<svg width="48" height="48" viewBox="0 0 48 48" fill="none" xmlns="http://www.w3.org/2000/svg">
<rect width="48" height="48" rx="24" fill="black"/>
<path d="M34.4898 29.4027C30.7026 27.5986 30.0989 24.8132 30.0721 24.6066C30.0396 24.3564 30.0027 24.1596 30.2833 23.9051C30.5538 23.6591 31.7542 22.928 32.0872 22.6993C32.6377 22.3205 32.8802 21.9424 32.7015 21.4775C32.5765 21.1559 32.2722 21.0348 31.9516 21.0348C31.8505 21.0351 31.7498 21.0462 31.6511 21.068C31.0462 21.1971 30.4589 21.4953 30.1189 21.5759C30.0781 21.5863 30.0361 21.5918 29.994 21.5925C29.8128 21.5925 29.744 21.5132 29.7615 21.2986C29.804 20.648 29.894 19.3783 29.7896 18.1922C29.6465 16.5603 29.1117 15.7518 28.4774 15.0366C28.1706 14.6899 26.746 13.2 23.9966 13.2C21.2472 13.2 19.8244 14.6899 19.5195 15.0323C18.8834 15.7474 18.3491 16.556 18.2073 18.1879C18.1029 19.374 18.1967 20.6431 18.2354 21.2943C18.2479 21.4984 18.1842 21.5882 18.003 21.5882C17.9608 21.5875 17.9189 21.5819 17.878 21.5716C17.5387 21.491 16.9513 21.1928 16.3465 21.0637C16.2478 21.0419 16.147 21.0308 16.0459 21.0305C15.7241 21.0305 15.4211 21.1535 15.2961 21.4732C15.1174 21.9381 15.3586 22.3162 15.911 22.695C16.244 22.9237 17.4443 23.6542 17.7149 23.9008C17.9948 24.1553 17.9586 24.3521 17.9261 24.6023C17.8992 24.812 17.295 27.5974 13.5084 29.3984C13.2866 29.5042 12.9091 29.728 13.5746 30.0895C14.6194 30.6577 15.3148 30.5968 15.8553 30.9393C16.314 31.2301 16.0428 31.8573 16.3765 32.0836C16.7864 32.3621 17.998 32.0639 19.5632 32.5724C20.8754 32.9979 21.6728 34.2 23.9997 34.2C26.3267 34.2 27.1471 32.9924 28.4362 32.5724C29.9983 32.0639 31.2124 32.3621 31.623 32.0836C31.956 31.8573 31.6855 31.2301 32.1441 30.9393C32.6846 30.5968 33.3794 30.6577 34.4248 30.0895C35.0891 29.7323 34.7116 29.5085 34.4898 29.4027Z" fill="white"/>
</svg>
