<svg width="48" height="48" viewBox="0 0 48 48" fill="none" xmlns="http://www.w3.org/2000/svg">
<rect width="48" height="48" rx="24" fill="black"/>
<path d="M35.5057 18.2293C35.2289 17.2013 34.4184 16.3908 33.3904 16.114C31.5123 15.6 23.9999 15.6 23.9999 15.6C23.9999 15.6 16.4876 15.6 14.6095 16.0942C13.6013 16.371 12.771 17.2013 12.4942 18.2293C12 20.1074 12 24.0019 12 24.0019C12 24.0019 12 27.9163 12.4942 29.7746C12.771 30.8026 13.5815 31.6131 14.6095 31.8899C16.5074 32.4039 23.9999 32.4039 23.9999 32.4039C23.9999 32.4039 31.5123 32.4039 33.3904 31.9096C34.4184 31.6329 35.2289 30.8223 35.5057 29.7943C35.9999 27.9163 35.9999 24.0217 35.9999 24.0217C35.9999 24.0217 36.0197 20.1074 35.5057 18.2293Z" fill="white"/>
<path d="M21.6074 27.5999L27.8545 24.0019L21.6074 20.4039V27.5999Z" fill="black"/>
</svg>
