<svg width="48" height="48" viewBox="0 0 48 48" fill="none" xmlns="http://www.w3.org/2000/svg">
<rect width="48" height="48" rx="24" fill="black"/>
<g clip-path="url(#clip0_56_1848)">
<path d="M16.8 36C14.1491 36 12 33.8509 12 31.2V16.8C12 14.1491 14.1491 12 16.8 12H31.2C33.8509 12 36 14.1491 36 16.8V31.2C36 33.8509 33.8509 36 31.2 36H16.8Z" fill="white"/>
<path fill-rule="evenodd" clip-rule="evenodd" d="M27.0631 20.4001C27.2746 20.4001 27.4461 20.5715 27.4461 20.783V23.3362C27.4461 23.5477 27.2746 23.7192 27.0631 23.7192C26.8516 23.7192 26.6802 23.5477 26.6802 23.3362V20.783C26.6802 20.5715 26.8516 20.4001 27.0631 20.4001ZM24.127 21.4213C24.127 20.8573 24.5842 20.4001 25.1482 20.4001H25.5313C25.7428 20.4001 25.9142 20.5715 25.9142 20.783C25.9142 20.9945 25.7428 21.166 25.5313 21.166H25.1482C25.0072 21.166 24.8929 21.2803 24.8929 21.4213V21.549C24.8929 21.6195 24.9501 21.6766 25.0206 21.6766C25.5142 21.6766 25.9142 22.0767 25.9142 22.5703V22.6979C25.9142 23.2619 25.457 23.7192 24.8929 23.7192H24.51C24.2984 23.7192 24.127 23.5477 24.127 23.3362C24.127 23.1247 24.2984 22.9532 24.51 22.9532H24.8929C25.0339 22.9532 25.1482 22.8389 25.1482 22.6979V22.5703C25.1482 22.4998 25.0911 22.4426 25.0206 22.4426C24.5271 22.4426 24.127 22.0425 24.127 21.549V21.4213Z" fill="black"/>
<path fill-rule="evenodd" clip-rule="evenodd" d="M26.435 24.785C26.4809 24.5785 26.6855 24.4484 26.892 24.4942L29.1898 25.0049C29.3932 25.05 29.5231 25.2495 29.4822 25.4538L28.9716 28.0071C28.9302 28.2144 28.7284 28.349 28.521 28.3074C28.3136 28.266 28.179 28.0642 28.2206 27.8568L28.6577 25.6713L26.7258 25.242C26.5193 25.1961 26.3891 24.9915 26.435 24.785Z" fill="black"/>
<path fill-rule="evenodd" clip-rule="evenodd" d="M18.2535 20.4225C18.4056 20.3679 18.5756 20.4147 18.6784 20.5393L19.1489 21.1096L19.6195 20.5393C19.7223 20.4147 19.8923 20.3679 20.0443 20.4225C20.1964 20.4772 20.2979 20.6215 20.2979 20.783V23.3362C20.2979 23.5477 20.1264 23.7192 19.9149 23.7192C19.7034 23.7192 19.5319 23.5477 19.5319 23.3362V21.8491L19.4444 21.9552C19.3716 22.0434 19.2633 22.0945 19.1489 22.0945C19.0346 22.0945 18.9263 22.0434 18.8535 21.9552L18.766 21.8491V23.3362C18.766 23.5477 18.5945 23.7192 18.383 23.7192C18.1715 23.7192 18 23.5477 18 23.3362V20.783C18 20.6215 18.1014 20.4772 18.2535 20.4225Z" fill="black"/>
<path fill-rule="evenodd" clip-rule="evenodd" d="M18.1055 25.6255C18.2512 25.4722 18.4937 25.4662 18.6469 25.6119C19.5066 26.4296 21.2771 27.0383 23.3927 27.0383C25.0748 27.0383 26.5538 26.6523 27.5226 26.0716C27.704 25.9628 27.9392 26.0217 28.048 26.2031C28.1567 26.3845 28.0979 26.6197 27.9164 26.7285C26.8001 27.3977 25.176 27.8043 23.3927 27.8043C21.1742 27.8043 19.1769 27.1731 18.119 26.1669C17.9658 26.0212 17.9597 25.7787 18.1055 25.6255Z" fill="black"/>
<path fill-rule="evenodd" clip-rule="evenodd" d="M28.2129 21.2937C28.2129 20.8001 28.613 20.4001 29.1065 20.4001H29.6171C29.8287 20.4001 30.0001 20.5715 30.0001 20.783C30.0001 20.9945 29.8287 21.166 29.6171 21.166H29.1065C29.036 21.166 28.9789 21.2232 28.9789 21.2937V22.8256C28.9789 22.8961 29.036 22.9532 29.1065 22.9532H29.6171C29.8287 22.9532 30.0001 23.1247 30.0001 23.3362C30.0001 23.5477 29.8287 23.7192 29.6171 23.7192H29.1065C28.613 23.7192 28.2129 23.3191 28.2129 22.8256V21.2937Z" fill="black"/>
<path fill-rule="evenodd" clip-rule="evenodd" d="M21.4474 20.4C21.6589 20.4 21.8304 20.5715 21.8304 20.783V22.8255C21.8304 22.896 21.8876 22.9532 21.9581 22.9532H22.4687C22.5392 22.9532 22.5963 22.896 22.5963 22.8255V20.783C22.5963 20.5715 22.7679 20.4 22.9794 20.4C23.1909 20.4 23.3623 20.5715 23.3623 20.783V22.8255C23.3623 23.3191 22.9623 23.7192 22.4687 23.7192H21.9581C21.4645 23.7192 21.0645 23.3191 21.0645 22.8255V20.783C21.0645 20.5715 21.2359 20.4 21.4474 20.4Z" fill="black"/>
</g>
<defs>
<clipPath id="clip0_56_1848">
<rect width="24" height="24" fill="white" transform="translate(12 12)"/>
</clipPath>
</defs>
</svg>
