<svg width="40" height="40" viewBox="0 0 40 40" fill="none" xmlns="http://www.w3.org/2000/svg">
<g clip-path="url(#clip0_56_1715)">
<path d="M8 40C3.58176 40 0 36.4182 0 32V8C0 3.58176 3.58176 0 8 0H32C36.4182 0 40 3.58176 40 8V32C40 36.4182 36.4182 40 32 40H8Z" fill="#E3F8FB"/>
<path fill-rule="evenodd" clip-rule="evenodd" d="M25.1063 14.0001C25.4588 14.0001 25.7445 14.2858 25.7445 14.6383V18.8937C25.7445 19.2462 25.4588 19.532 25.1063 19.532C24.7538 19.532 24.468 19.2462 24.468 18.8937V14.6383C24.468 14.2858 24.7538 14.0001 25.1063 14.0001ZM20.2126 15.7022C20.2126 14.7621 20.9748 14.0001 21.9148 14.0001H22.5531C22.9056 14.0001 23.1914 14.2858 23.1914 14.6383C23.1914 14.9908 22.9056 15.2766 22.5531 15.2766H21.9148C21.6798 15.2766 21.4893 15.4672 21.4893 15.7022V15.915C21.4893 16.0325 21.5845 16.1277 21.702 16.1277C22.5246 16.1277 23.1914 16.7945 23.1914 17.6171V17.8298C23.1914 18.7698 22.4294 19.532 21.4893 19.532H20.851C20.4984 19.532 20.2126 19.2462 20.2126 18.8937C20.2126 18.5411 20.4984 18.2553 20.851 18.2553H21.4893C21.7243 18.2553 21.9148 18.0648 21.9148 17.8298V17.6171C21.9148 17.4996 21.8195 17.4043 21.702 17.4043C20.8795 17.4043 20.2126 16.7375 20.2126 15.915V15.7022Z" fill="#25C6DA"/>
<path fill-rule="evenodd" clip-rule="evenodd" d="M24.0578 21.3083C24.1343 20.9642 24.4753 20.7473 24.8194 20.8237L28.6492 21.6748C28.9882 21.7501 29.2047 22.0826 29.1366 22.4231L28.2856 26.6785C28.2165 27.0241 27.8802 27.2483 27.5344 27.1791C27.1888 27.11 26.9646 26.7737 27.0338 26.4281L27.7623 22.7855L24.5424 22.07C24.1983 21.9935 23.9813 21.6525 24.0578 21.3083Z" fill="#8DE2EC"/>
<path fill-rule="evenodd" clip-rule="evenodd" d="M10.4225 14.0376C10.6759 13.9466 10.9593 14.0245 11.1307 14.2321L11.9149 15.1827L12.6991 14.2321C12.8705 14.0245 13.1539 13.9466 13.4072 14.0376C13.6607 14.1287 13.8297 14.3691 13.8297 14.6383V18.8937C13.8297 19.2462 13.544 19.532 13.1915 19.532C12.839 19.532 12.5532 19.2462 12.5532 18.8937V16.4151L12.4073 16.592C12.286 16.739 12.1054 16.8241 11.9149 16.8241C11.7244 16.8241 11.5438 16.739 11.4225 16.592L11.2766 16.4151V18.8937C11.2766 19.2462 10.9908 19.532 10.6383 19.532C10.2858 19.532 10 19.2462 10 18.8937V14.6383C10 14.3691 10.169 14.1287 10.4225 14.0376Z" fill="#25C6DA"/>
<path fill-rule="evenodd" clip-rule="evenodd" d="M10.1758 22.7091C10.4187 22.4537 10.8228 22.4436 11.0782 22.6865C12.511 24.0493 15.4619 25.0638 18.9879 25.0638C21.7914 25.0638 24.2564 24.4205 25.871 23.4526C26.1733 23.2713 26.5654 23.3695 26.7466 23.6718C26.9279 23.9742 26.8298 24.3662 26.5274 24.5475C24.6669 25.6628 21.96 26.3405 18.9879 26.3405C15.2903 26.3405 11.9615 25.2885 10.1984 23.6115C9.94297 23.3686 9.93284 22.9645 10.1758 22.7091Z" fill="#8DE2EC"/>
<path fill-rule="evenodd" clip-rule="evenodd" d="M27.0212 15.4895C27.0212 14.6668 27.6881 14.0001 28.5106 14.0001H29.3616C29.7142 14.0001 30 14.2858 30 14.6383C30 14.9908 29.7142 15.2766 29.3616 15.2766H28.5106C28.3931 15.2766 28.2979 15.372 28.2979 15.4895V18.0426C28.2979 18.1601 28.3931 18.2553 28.5106 18.2553H29.3616C29.7142 18.2553 30 18.5411 30 18.8937C30 19.2462 29.7142 19.532 29.3616 19.532H28.5106C27.6881 19.532 27.0212 18.8652 27.0212 18.0426V15.4895Z" fill="#25C6DA"/>
<path fill-rule="evenodd" clip-rule="evenodd" d="M15.7447 14.0001C16.0972 14.0001 16.3831 14.2858 16.3831 14.6383V18.0426C16.3831 18.1601 16.4783 18.2553 16.5958 18.2553H17.4468C17.5643 18.2553 17.6596 18.1601 17.6596 18.0426V14.6383C17.6596 14.2858 17.9454 14.0001 18.2979 14.0001C18.6504 14.0001 18.9362 14.2858 18.9362 14.6383V18.0426C18.9362 18.8652 18.2694 19.5319 17.4468 19.5319H16.5958C15.7732 19.5319 15.1064 18.8652 15.1064 18.0426V14.6383C15.1064 14.2858 15.3922 14.0001 15.7447 14.0001Z" fill="#25C6DA"/>
</g>
<defs>
<clipPath id="clip0_56_1715">
<rect width="40" height="40" fill="white"/>
</clipPath>
</defs>
</svg>
