<svg width="48" height="48" viewBox="0 0 48 48" fill="none" xmlns="http://www.w3.org/2000/svg">
<rect width="48" height="48" rx="24" fill="black"/>
<g clip-path="url(#clip0_56_1838)">
<path d="M20.7442 12.5422C16.9982 12.8194 13.8137 13.0743 13.664 13.1042C13.2442 13.179 12.8623 13.4638 12.6827 13.8386L12.5254 14.1684L12.5406 22.028L12.5628 29.8877L12.8026 30.3748C12.9376 30.6444 13.8516 31.9033 14.848 33.1992C16.8186 35.7541 16.9608 35.8967 17.7099 35.9715C17.9274 35.9938 19.5606 35.9189 21.3289 35.8142C23.1048 35.7019 25.9515 35.5295 27.6601 35.4323C34.9573 34.9893 34.5825 35.0267 35.0019 34.6671C35.5264 34.2326 35.4889 34.9443 35.5112 25.3917C35.5264 17.2922 35.5188 16.7606 35.3989 16.5133C35.2568 16.2361 35.0019 16.0414 31.6752 13.7035C29.4501 12.1452 29.2928 12.0627 28.2959 12.0476C27.8842 12.0329 24.4826 12.2575 20.7442 12.5422ZM29.1654 13.5685C29.48 13.7107 31.7804 15.3141 32.1173 15.6216C32.2073 15.7116 32.2371 15.7864 32.1921 15.8315C32.0874 15.9215 17.8516 16.7682 17.4398 16.708C17.2527 16.6782 16.9755 16.5659 16.8182 16.4607C16.1662 16.0186 14.5481 14.6924 14.5481 14.5953C14.5481 14.3404 14.4955 14.3404 20.8418 13.8836C22.0557 13.8012 24.0486 13.6514 25.2625 13.5538C27.8918 13.3439 28.6788 13.3515 29.1654 13.5685ZM33.6908 17.667C33.7955 17.7717 33.8855 17.9741 33.9154 18.1688C33.9377 18.3489 33.9528 21.7054 33.9377 25.6163C33.9154 32.3293 33.9078 32.7491 33.7804 32.9438C33.7055 33.0637 33.5558 33.1912 33.443 33.2286C33.1289 33.3561 18.2117 34.2028 17.9046 34.1127C17.7625 34.0753 17.5673 33.9554 17.4626 33.8507L17.2825 33.656L17.2602 26.4184C17.2451 21.3386 17.2602 19.0908 17.3204 18.8885C17.3654 18.7388 17.4777 18.5588 17.5753 18.4991C17.7104 18.409 18.5945 18.3342 21.6364 18.1546C23.7719 18.0347 27.0758 17.8324 28.9716 17.7201C33.4809 17.4424 33.4662 17.4424 33.6908 17.667Z" fill="white"/>
<path d="M29.6815 20.147C28.8722 20.1996 28.1529 20.2744 28.0705 20.3194C27.8232 20.4469 27.6734 20.6568 27.6436 20.8966C27.6213 21.1439 27.6962 21.1737 28.505 21.2713L28.857 21.3164V24.5156C28.857 26.4184 28.8272 27.6773 28.7898 27.6399C28.7523 27.5949 27.6886 25.9768 26.4221 24.0436C25.156 22.1034 24.107 20.5071 24.0919 20.4924C24.0767 20.4772 23.2527 20.5222 22.2639 20.59C21.0499 20.6724 20.3833 20.7473 20.2482 20.8222C20.0308 20.9345 19.791 21.3315 19.791 21.594C19.791 21.7513 20.0758 21.8338 20.6752 21.8338H20.9898V31.0343L20.4804 31.1916C20.0834 31.3115 19.9483 31.3864 19.881 31.5361C19.7612 31.791 19.7687 32.0232 19.8886 32.0232C19.9336 32.0232 20.7803 31.9706 21.754 31.9109C23.6796 31.7986 23.8966 31.746 24.099 31.349C24.1591 31.2291 24.2113 31.1016 24.2113 31.0642C24.2113 31.0343 23.9492 30.9443 23.6341 30.8695C23.312 30.7946 22.9898 30.7197 22.9225 30.7046C22.795 30.6671 22.7874 30.435 22.7874 27.213V23.7589L25.0651 27.3329C27.455 31.0789 27.7549 31.5063 28.1221 31.6934C28.5794 31.9332 29.7407 31.7683 30.3249 31.3864L30.505 31.2741L30.5201 26.1644L30.5424 21.0472L30.9395 20.9724C31.4114 20.8823 31.6289 20.6653 31.6289 20.2905C31.6289 20.0508 31.6137 20.0356 31.3891 20.0432C31.255 20.0494 30.4832 20.0944 29.6815 20.147Z" fill="white"/>
</g>
<defs>
<clipPath id="clip0_56_1838">
<rect width="24" height="24" fill="white" transform="translate(12 12)"/>
</clipPath>
</defs>
</svg>
