<svg width="40" height="40" viewBox="0 0 40 40" fill="none" xmlns="http://www.w3.org/2000/svg">
<g clip-path="url(#clip0_56_1711)">
<path d="M14.5726 0.903703C8.32923 1.36567 3.02169 1.79053 2.77215 1.84028C2.07248 1.96505 1.43599 2.43966 1.13669 3.06431L0.874512 3.61394L0.899782 16.7134L0.936898 29.8129L1.33648 30.6247C1.56155 31.074 3.08487 33.1722 4.7456 35.332C8.02994 39.5901 8.26685 39.8278 9.51536 39.9526C9.87783 39.9897 12.5999 39.8649 15.547 39.6904C18.5068 39.5032 23.2513 39.2158 26.099 39.0539C38.261 38.3155 37.6364 38.3779 38.3353 37.7785C39.2095 37.0544 39.1471 38.2405 39.1842 22.3195C39.2095 8.8204 39.1968 7.93436 38.997 7.52214C38.7601 7.06017 38.3353 6.7356 32.7908 2.83925C29.0824 0.241938 28.8202 0.104531 27.1587 0.0792609C26.4725 0.0547803 20.8033 0.429096 14.5726 0.903703ZM28.6078 2.61418C29.1322 2.85109 32.9661 5.52342 33.5276 6.03593C33.6777 6.18597 33.7274 6.31075 33.6524 6.38577C33.4779 6.53581 9.75148 7.94699 9.06523 7.8467C8.7533 7.79695 8.29133 7.6098 8.02915 7.43448C6.94253 6.6977 4.24572 4.48734 4.24572 4.32545C4.24572 3.9006 4.15806 3.9006 14.7352 3.13933C16.7584 3.00192 20.0799 2.75238 22.1031 2.5897C26.4851 2.23987 27.7968 2.2525 28.6078 2.61418ZM36.1502 9.44505C36.3247 9.61957 36.4748 9.95677 36.5245 10.2813C36.5616 10.5814 36.5869 16.1756 36.5616 22.6938C36.5245 33.8822 36.5119 34.5818 36.2994 34.9064C36.1747 35.1062 35.9251 35.3186 35.7372 35.381C35.2136 35.5934 10.3516 37.0046 9.83992 36.8546C9.60301 36.7922 9.27766 36.5924 9.10314 36.4179L8.80305 36.0933L8.76594 24.0307C8.74067 15.5644 8.76594 11.8181 8.86623 11.4809C8.94125 11.2313 9.12841 10.9313 9.29108 10.8318C9.51615 10.6817 10.9897 10.5569 16.0596 10.2576C19.6187 10.0578 25.1253 9.72065 28.2848 9.53349C35.8004 9.07073 35.7759 9.07073 36.1502 9.44505Z" fill="black"/>
<path d="M29.4694 13.5783C28.1207 13.6659 26.9219 13.7907 26.7845 13.8657C26.3723 14.0782 26.1227 14.428 26.073 14.8276C26.0359 15.2398 26.1606 15.2896 27.5086 15.4522L28.0954 15.5273V20.8593C28.0954 24.0307 28.0456 26.1289 27.9832 26.0665C27.9209 25.9915 26.148 23.2947 24.0371 20.0727C21.9271 16.8389 20.1787 14.1785 20.1534 14.154C20.1281 14.1287 18.7549 14.2037 17.1068 14.3166C15.0836 14.4541 13.9725 14.5788 13.7474 14.7036C13.3849 14.8908 12.9854 15.5525 12.9854 15.99C12.9854 16.2522 13.46 16.3896 14.4589 16.3896H14.9833V31.7239L14.1344 31.9861C13.4726 32.1859 13.2475 32.3106 13.1354 32.5602C12.9356 32.985 12.9482 33.372 13.148 33.372C13.223 33.372 14.6342 33.2843 16.2571 33.1848C19.4664 32.9977 19.8281 32.91 20.1653 32.2483C20.2656 32.0485 20.3524 31.836 20.3524 31.7736C20.3524 31.7239 19.9157 31.5739 19.3906 31.4491C18.8536 31.3243 18.3166 31.1995 18.2044 31.1743C17.992 31.1119 17.9794 30.7249 17.9794 25.355V19.5981L21.7754 25.5548C25.7587 31.7981 26.2585 32.5104 26.8706 32.8224C27.6326 33.222 29.5682 32.9471 30.5419 32.3106L30.8419 32.1235L30.8672 23.6074L30.9043 15.0787L31.5661 14.9539C32.3526 14.8039 32.7151 14.4422 32.7151 13.8176C32.7151 13.418 32.6898 13.3927 32.3155 13.4053C32.092 13.4156 30.8056 13.4906 29.4694 13.5783Z" fill="black"/>
</g>
<defs>
<clipPath id="clip0_56_1711">
<rect width="40" height="40" fill="white"/>
</clipPath>
</defs>
</svg>
