<svg width="40" height="40" viewBox="0 0 40 40" fill="none" xmlns="http://www.w3.org/2000/svg">
<rect width="40" height="40" rx="20" fill="black"/>
<path d="M16.4685 7.539C12.3924 7.84061 8.92723 8.11798 8.76431 8.15047C8.30751 8.23193 7.89196 8.54178 7.69656 8.9496L7.52539 9.30844L7.54189 17.8607L7.56612 26.413L7.827 26.943C7.97394 27.2364 8.96847 28.6063 10.0527 30.0164C12.197 32.7963 12.3517 32.9515 13.1668 33.033C13.4034 33.0572 15.1806 32.9757 17.1047 32.8618C19.0371 32.7396 22.1346 32.5519 23.9938 32.4462C31.9341 31.9642 31.5263 32.0049 31.9825 31.6136C32.5533 31.1408 32.5125 31.9152 32.5368 21.5208C32.5533 12.7076 32.545 12.1291 32.4146 11.86C32.2599 11.5584 31.9825 11.3465 28.3627 8.80266C25.9416 7.10695 25.7704 7.01724 24.6857 7.00074C24.2376 6.98476 20.5363 7.22914 16.4685 7.539ZM25.6317 8.65572C25.9741 8.8104 28.4772 10.5551 28.8437 10.8897C28.9417 10.9877 28.9742 11.0691 28.9252 11.1181C28.8113 11.2161 13.3209 12.1374 12.8729 12.0719C12.6692 12.0394 12.3676 11.9172 12.1965 11.8028C11.487 11.3217 9.72636 9.87866 9.72636 9.77297C9.72636 9.49559 9.66913 9.49559 16.5747 8.99858C17.8956 8.90887 20.0641 8.74595 21.385 8.63974C24.2459 8.41134 25.1022 8.41959 25.6317 8.65572ZM30.5559 13.1154C30.6699 13.2294 30.7678 13.4495 30.8003 13.6614C30.8246 13.8573 30.8411 17.5096 30.8246 21.7652C30.8003 29.0698 30.7921 29.5266 30.6534 29.7385C30.5719 29.8689 30.409 30.0076 30.2863 30.0483C29.9445 30.187 13.7128 31.1083 13.3787 31.0104C13.224 30.9696 13.0116 30.8392 12.8976 30.7253L12.7017 30.5134L12.6775 22.638C12.661 17.1106 12.6775 14.6647 12.743 14.4446C12.7919 14.2816 12.9141 14.0857 13.0203 14.0208C13.1673 13.9228 14.1293 13.8413 17.4393 13.6459C19.763 13.5155 23.3581 13.2953 25.4209 13.1732C30.3276 12.871 30.3116 12.871 30.5559 13.1154Z" fill="white"/>
<path d="M26.1946 15.8139C25.3141 15.8711 24.5314 15.9526 24.4417 16.0016C24.1726 16.1403 24.0097 16.3687 23.9772 16.6295C23.9529 16.8987 24.0344 16.9311 24.9145 17.0373L25.2976 17.0863V20.5675C25.2976 22.638 25.2651 24.0079 25.2243 23.9671C25.1836 23.9182 24.0262 22.1575 22.648 20.054C21.2704 17.9427 20.129 16.2057 20.1125 16.1897C20.096 16.1733 19.1994 16.2222 18.1234 16.296C16.8025 16.3857 16.0771 16.4671 15.9301 16.5486C15.6935 16.6708 15.4326 17.1028 15.4326 17.3885C15.4326 17.5596 15.7425 17.6493 16.3947 17.6493H16.737V27.6607L16.1828 27.8319C15.7507 27.9623 15.6038 28.0438 15.5306 28.2067C15.4001 28.4841 15.4084 28.7367 15.5388 28.7367C15.5878 28.7367 16.5091 28.6795 17.5686 28.6145C19.6639 28.4923 19.9 28.4351 20.1202 28.003C20.1857 27.8726 20.2424 27.7339 20.2424 27.6932C20.2424 27.6607 19.9573 27.5627 19.6144 27.4813C19.2638 27.3998 18.9132 27.3183 18.84 27.3019C18.7013 27.2611 18.6931 27.0085 18.6931 23.5026V19.7441L21.1714 23.633C23.772 27.7092 24.0983 28.1742 24.4979 28.3778C24.9954 28.6387 26.2591 28.4593 26.8948 28.0438L27.0907 27.9216L27.1072 22.3617L27.1314 16.7935L27.5635 16.712C28.077 16.6141 28.3136 16.3779 28.3136 15.9701C28.3136 15.7092 28.2971 15.6927 28.0528 15.701C27.9069 15.7077 27.067 15.7567 26.1946 15.8139Z" fill="white"/>
</svg>
