<svg width="180" height="44" viewBox="0 0 180 44" fill="none" xmlns="http://www.w3.org/2000/svg">
<path d="M0 16C0 7.16344 7.16344 0 16 0H164C172.837 0 180 7.16344 180 16V28C180 36.8366 172.837 44 164 44H16C7.16344 44 0 36.8366 0 28V16Z" fill="#FB2C36"/>
<path d="M36 14.5V29.5M43.5 22L28.5 22" stroke="#030713" stroke-width="2" stroke-linecap="round" stroke-linejoin="round"/>
<path d="M61.2912 28.5V15.4091H66.3026C67.2486 15.4091 68.0348 15.5582 68.6612 15.8565C69.2919 16.1506 69.7628 16.5533 70.0739 17.0646C70.3892 17.576 70.5469 18.1555 70.5469 18.8033C70.5469 19.3359 70.4446 19.7919 70.2401 20.1712C70.0355 20.5462 69.7607 20.8509 69.4155 21.0852C69.0703 21.3196 68.6847 21.4879 68.2585 21.5902V21.718C68.723 21.7436 69.1683 21.8864 69.5945 22.1463C70.0249 22.402 70.3764 22.7642 70.6491 23.233C70.9219 23.7017 71.0582 24.2685 71.0582 24.9332C71.0582 25.6108 70.8942 26.2202 70.5661 26.7614C70.2379 27.2983 69.7436 27.7223 69.0831 28.0334C68.4226 28.3445 67.5916 28.5 66.5902 28.5H61.2912ZM63.6626 26.5185H66.2131C67.0739 26.5185 67.6939 26.3544 68.0732 26.0263C68.4567 25.6939 68.6484 25.2678 68.6484 24.7479C68.6484 24.3601 68.5526 24.0107 68.3608 23.6996C68.169 23.3842 67.8963 23.1371 67.5426 22.9581C67.1889 22.7749 66.767 22.6832 66.277 22.6832H63.6626V26.5185ZM63.6626 20.9766H66.0085C66.4176 20.9766 66.7862 20.902 67.1143 20.7528C67.4425 20.5994 67.7003 20.3842 67.8878 20.1072C68.0795 19.826 68.1754 19.4936 68.1754 19.1101C68.1754 18.603 67.9964 18.1854 67.6385 17.8572C67.2848 17.5291 66.7585 17.3651 66.0597 17.3651H63.6626V20.9766ZM79.5968 24.3707V18.6818H81.9107V28.5H79.6671V26.755H79.5649C79.3433 27.3047 78.9789 27.7543 78.4718 28.1037C77.969 28.4531 77.3489 28.6278 76.6117 28.6278C75.9683 28.6278 75.3994 28.4851 74.905 28.1996C74.415 27.9098 74.0315 27.4901 73.7545 26.9403C73.4775 26.3864 73.339 25.7173 73.339 24.9332V18.6818H75.6529V24.5753C75.6529 25.1974 75.8234 25.6918 76.1643 26.0582C76.5052 26.4247 76.9526 26.608 77.5066 26.608C77.8475 26.608 78.1778 26.5249 78.4974 26.3587C78.817 26.1925 79.0791 25.9453 79.2836 25.6172C79.4924 25.2848 79.5968 24.8693 79.5968 24.3707ZM89.5129 18.6818V20.4716H83.8687V18.6818H89.5129ZM85.2622 16.3295H87.5761V25.5469C87.5761 25.858 87.623 26.0966 87.7167 26.2628C87.8147 26.4247 87.9426 26.5355 88.1002 26.5952C88.2579 26.6548 88.4326 26.6847 88.6244 26.6847C88.7693 26.6847 88.9014 26.674 89.0207 26.6527C89.1443 26.6314 89.238 26.6122 89.3019 26.5952L89.6918 28.4041C89.5683 28.4467 89.3914 28.4936 89.1613 28.5447C88.9355 28.5959 88.6585 28.6257 88.3303 28.6342C87.7508 28.6513 87.2288 28.5639 86.7643 28.3722C86.2998 28.1761 85.9312 27.8736 85.6585 27.4645C85.39 27.0554 85.2579 26.544 85.2622 25.9304V16.3295ZM96.6708 18.6818V20.4716H91.0266V18.6818H96.6708ZM92.42 16.3295H94.734V25.5469C94.734 25.858 94.7808 26.0966 94.8746 26.2628C94.9726 26.4247 95.1004 26.5355 95.2581 26.5952C95.4158 26.6548 95.5905 26.6847 95.7823 26.6847C95.9272 26.6847 96.0593 26.674 96.1786 26.6527C96.3022 26.6314 96.3959 26.6122 96.4598 26.5952L96.8497 28.4041C96.7262 28.4467 96.5493 28.4936 96.3192 28.5447C96.0933 28.5959 95.8164 28.6257 95.4882 28.6342C94.9087 28.6513 94.3867 28.5639 93.9222 28.3722C93.4577 28.1761 93.0891 27.8736 92.8164 27.4645C92.5479 27.0554 92.4158 26.544 92.42 25.9304V16.3295ZM103.103 28.6918C102.144 28.6918 101.313 28.4808 100.61 28.0589C99.9071 27.6371 99.3617 27.0469 98.9739 26.2884C98.5904 25.5298 98.3986 24.6435 98.3986 23.6293C98.3986 22.6151 98.5904 21.7266 98.9739 20.9638C99.3617 20.201 99.9071 19.6087 100.61 19.1868C101.313 18.7649 102.144 18.554 103.103 18.554C104.062 18.554 104.893 18.7649 105.596 19.1868C106.299 19.6087 106.842 20.201 107.226 20.9638C107.614 21.7266 107.808 22.6151 107.808 23.6293C107.808 24.6435 107.614 25.5298 107.226 26.2884C106.842 27.0469 106.299 27.6371 105.596 28.0589C104.893 28.4808 104.062 28.6918 103.103 28.6918ZM103.116 26.8381C103.636 26.8381 104.07 26.6953 104.42 26.4098C104.769 26.12 105.029 25.7322 105.2 25.2464C105.374 24.7607 105.462 24.2195 105.462 23.6229C105.462 23.022 105.374 22.4787 105.2 21.9929C105.029 21.5028 104.769 21.1129 104.42 20.8232C104.07 20.5334 103.636 20.3885 103.116 20.3885C102.583 20.3885 102.14 20.5334 101.786 20.8232C101.437 21.1129 101.175 21.5028 101 21.9929C100.83 22.4787 100.744 23.022 100.744 23.6229C100.744 24.2195 100.83 24.7607 101 25.2464C101.175 25.7322 101.437 26.12 101.786 26.4098C102.14 26.6953 102.583 26.8381 103.116 26.8381ZM112.406 22.7472V28.5H110.092V18.6818H112.303V20.3501H112.418C112.644 19.8004 113.004 19.3636 113.499 19.0398C113.997 18.7159 114.613 18.554 115.346 18.554C116.023 18.554 116.614 18.6989 117.117 18.9886C117.624 19.2784 118.016 19.6982 118.293 20.2479C118.574 20.7976 118.712 21.4645 118.708 22.2486V28.5H116.394V22.6065C116.394 21.9503 116.224 21.4368 115.883 21.0661C115.546 20.6953 115.08 20.5099 114.483 20.5099C114.078 20.5099 113.718 20.5994 113.403 20.7784C113.092 20.9531 112.847 21.2067 112.668 21.5391C112.493 21.8714 112.406 22.2741 112.406 22.7472Z" fill="#030713"/>
<path d="M144 14.5V29.5M151.5 22L136.5 22" stroke="#030713" stroke-width="2" stroke-linecap="round" stroke-linejoin="round"/>
</svg>
