<svg width="48" height="47" viewBox="0 0 48 47" fill="none" xmlns="http://www.w3.org/2000/svg">
<path d="M4 15.5C4 8.87258 9.37258 3.5 16 3.5H32C38.6274 3.5 44 8.87258 44 15.5V31.5C44 38.1274 38.6274 43.5 32 43.5H16C9.37258 43.5 4 38.1274 4 31.5V15.5Z" fill="#FEF2F2"/>
<path d="M32.25 19L31.6246 29.6321C31.5546 30.8214 30.5698 31.75 29.3785 31.75H18.6215C17.4302 31.75 16.4454 30.8214 16.3754 29.6321L15.75 19M21.9998 22.75H25.9998M15.375 19H32.625C33.2463 19 33.75 18.4963 33.75 17.875V16.375C33.75 15.7537 33.2463 15.25 32.625 15.25H15.375C14.7537 15.25 14.25 15.7537 14.25 16.375V17.875C14.25 18.4963 14.7537 19 15.375 19Z" stroke="#82171A" stroke-width="2" stroke-linecap="round" stroke-linejoin="round"/>
<path d="M34 1C41.1797 1 47 6.8203 47 14V33C47 40.1797 41.1797 46 34 46H14C6.8203 46 1 40.1797 1 33V14C1 6.8203 6.8203 1 14 1H34Z" stroke="#E70208" stroke-width="2"/>
</svg>
