<svg width="48" height="48" viewBox="0 0 48 48" fill="none" xmlns="http://www.w3.org/2000/svg">
<rect width="48" height="48" rx="24" fill="black"/>
<rect x="7" y="7" width="34" height="34" rx="17" fill="black"/>
<path d="M24 12.6455C30.3948 12.6455 35.3535 17.3345 35.3535 23.6611C35.3535 29.9878 30.3948 34.6738 24 34.6738C22.8505 34.6738 21.7489 34.5211 20.7129 34.2373C20.5114 34.1834 20.2956 34.1971 20.1055 34.2822L17.8516 35.2754C17.2613 35.5363 16.5971 35.1168 16.5771 34.4727L16.5156 32.4512C16.5098 32.2017 16.3961 31.9692 16.2119 31.8047C14.0037 29.8292 12.6465 26.9677 12.6465 23.6582C12.6466 17.3316 17.6052 12.6455 24 12.6455ZM30.8203 21.1211C31.1381 20.6131 30.5139 20.0395 30.0371 20.4024L26.4551 23.1221C26.2139 23.3065 25.8788 23.3065 25.6348 23.125L22.9805 21.1348C22.1829 20.539 21.0473 20.746 20.5166 21.5889L17.1816 26.8799C16.8611 27.3879 17.4861 27.958 17.9629 27.5947L21.5449 24.876C21.7862 24.6917 22.1212 24.6915 22.3652 24.8731L25.0186 26.8633C25.816 27.4592 26.9516 27.2519 27.4824 26.4092L30.8203 21.1211Z" fill="white"/>
</svg>
