<svg width="40" height="40" viewBox="0 0 40 40" fill="none" xmlns="http://www.w3.org/2000/svg">
<rect width="40" height="40" rx="20" fill="url(#paint0_radial_56_1763)"/>
<path d="M20.0005 6.6418C27.5236 6.64199 33.3569 12.1587 33.3569 19.6018C33.3568 27.0447 27.5235 32.5576 20.0005 32.5578C18.6481 32.5578 17.3521 32.3771 16.1333 32.0432C15.8962 31.9797 15.6422 31.9967 15.4185 32.0969L12.7671 33.2658C12.0726 33.5729 11.2914 33.0784 11.2681 32.3205L11.1948 29.9436C11.1881 29.6498 11.0544 29.3755 10.8374 29.1818C8.23946 26.8577 6.64307 23.4914 6.64307 19.5979C6.6432 12.1548 12.4772 6.6418 20.0005 6.6418ZM28.0239 16.6125C28.3977 16.0148 27.663 15.3404 27.1021 15.7678L22.8882 18.967C22.6044 19.184 22.2105 19.1836 21.9233 18.9699L18.8013 16.6291C17.8629 15.9279 16.5273 16.1725 15.9028 17.1643L11.979 23.3879C11.6017 23.9855 12.336 24.6568 12.897 24.2297L17.1118 21.0305C17.3956 20.8137 17.7896 20.8139 18.0767 21.0275L21.1987 23.3684C22.137 24.0694 23.4727 23.8257 24.0972 22.8342L28.0239 16.6125Z" fill="white"/>
<defs>
<radialGradient id="paint0_radial_56_1763" cx="0" cy="0" r="1" gradientUnits="userSpaceOnUse" gradientTransform="translate(7.7 39.7853) scale(43.584 43.5801)">
<stop stop-color="#0099FF"/>
<stop offset="0.6098" stop-color="#A033FF"/>
<stop offset="0.9348" stop-color="#FF5280"/>
<stop offset="1" stop-color="#FF7061"/>
</radialGradient>
</defs>
</svg>
