<svg width="40" height="40" viewBox="0 0 40 40" fill="none" xmlns="http://www.w3.org/2000/svg">
<g clip-path="url(#clip0_56_1804)">
<path fill-rule="evenodd" clip-rule="evenodd" d="M20 -0.00177002C8.735 -0.00177002 0 8.25323 0 19.3982C0 25.2282 2.39 30.2682 6.28 33.7482C6.605 34.0382 6.805 34.4482 6.815 34.8882L6.925 38.4482C6.96 39.5832 8.13 40.3232 9.17 39.8632L13.14 38.1132C13.475 37.9632 13.855 37.9382 14.21 38.0332C16.035 38.5332 17.975 38.8032 20 38.8032C31.265 38.8032 40 30.5482 40 19.4032C40 8.25823 31.265 -0.00177002 20 -0.00177002Z" fill="black"/>
<path fill-rule="evenodd" clip-rule="evenodd" d="M7.9899 25.0732L13.8649 15.7532C14.7999 14.2682 16.7999 13.9032 18.2049 14.9532L22.8799 18.4582C23.3099 18.7782 23.8999 18.7782 24.3249 18.4532L30.6349 13.6632C31.4749 13.0232 32.5749 14.0332 32.0149 14.9282L26.1349 24.2432C25.1999 25.7282 23.1999 26.0932 21.7949 25.0432L17.1199 21.5382C16.6899 21.2182 16.0999 21.2182 15.6749 21.5432L9.36489 26.3332C8.5249 26.9732 7.4249 25.9682 7.9899 25.0732Z" fill="white"/>
</g>
<defs>
<clipPath id="clip0_56_1804">
<rect width="40" height="40" fill="white"/>
</clipPath>
</defs>
</svg>
