<svg width="48" height="48" viewBox="0 0 48 48" fill="none" xmlns="http://www.w3.org/2000/svg">
<rect width="48" height="48" rx="24" fill="black"/>
<path d="M18.1012 22.066C18.4187 23.1205 18.803 24.1096 19.2207 25.0636C19.9392 26.7724 20.4237 27.6763 21.0936 28.7977C21.9123 30.1367 22.8161 31.6614 24.3032 32.649C25.3893 33.3687 26.7108 33.7369 27.9807 33.7369C29.7701 33.7369 31.3073 32.9503 32.2946 32.0281C33.2637 31.1243 34.5184 29.382 34.5184 25.9827C34.5184 24.811 35.0364 23.8052 35.4207 23.0018C35.4207 22.9851 35.4374 22.9516 35.4708 22.8846C35.6212 22.5499 35.805 22.1147 35.805 21.6795C35.805 21.3615 35.7215 20.9932 35.5042 20.6752C35.1701 20.1061 34.5685 19.9053 34.0156 19.9053C32.729 19.9053 31.842 20.8091 31.3908 21.7312L31.2404 22.0325C31.0566 21.7647 30.8728 21.4802 30.7225 21.2291C30.2546 20.4089 29.9873 19.8566 29.7534 19.1521C29.5696 18.5997 29.4192 17.9637 29.3189 17.4433C29.0349 15.8014 28.567 15.2658 27.7969 15.065C27.2288 14.9143 26.5604 15.0315 26.0744 15.3495C25.7417 14.5963 25.1736 14.2615 24.4202 14.2615C23.3508 14.2615 22.3802 14.9645 22.3802 16.1544C22.3802 16.3051 22.3969 16.4557 22.4136 16.6399C22.2799 16.6064 22.1296 16.5896 21.9792 16.5896C20.8263 16.5896 19.9726 17.3931 19.9726 18.4826C19.9726 18.7336 20.006 19.0182 20.0896 19.3529C19.9893 19.3362 19.889 19.3362 19.7888 19.3362C19.2207 19.3697 18.7027 19.5873 18.3336 20.0392C17.9675 20.4744 17.8171 21.1439 18.1012 22.066Z" fill="black"/>
<path d="M19.0527 21.7647C18.9023 21.2793 18.919 20.9111 19.1028 20.6768C19.2866 20.4592 19.5372 20.3587 19.838 20.342C20.356 20.3253 20.5565 20.6935 20.8572 21.6476C21.041 22.2501 21.4086 23.122 21.6258 23.6074C21.9099 24.1932 22.3109 24.9799 22.4947 25.2493C22.6451 25.4836 22.7788 25.5505 22.9291 25.5505C23.1965 25.5505 23.397 25.3999 23.397 25.1321C23.397 24.9815 23.2466 24.7304 23.1631 24.5797C23.0127 24.2952 22.6952 23.7261 22.478 23.2407C22.2441 22.7051 21.9767 22.0356 21.7595 21.4315C21.6258 21.08 21.4755 20.5778 21.3251 20.0757C21.0912 19.3058 20.9742 18.8371 20.9742 18.4841C20.9742 17.9485 21.3752 17.597 21.9767 17.597C22.4112 17.597 22.6952 17.8146 22.879 18.6012C23.0294 19.321 23.2967 20.4942 23.681 21.4147C23.9317 22.0173 24.2993 22.8223 24.5165 23.224C24.6501 23.4583 24.8005 23.6592 24.8005 23.7428C24.8005 23.86 24.5833 24.0441 24.3995 24.2952C24.2826 24.4458 24.2324 24.5463 24.2324 24.6634C24.2324 24.7639 24.2993 24.8643 24.3995 24.9982C24.4998 25.1321 24.6 25.266 24.717 25.266C24.8005 25.266 24.8507 25.2325 24.9008 25.1656C25.4188 24.5128 25.9869 24.0609 26.64 23.6911C27.4086 23.2559 28.1955 23.0383 28.8137 22.9044C29.1145 22.8375 29.198 22.7705 29.198 22.6031C29.198 22.4023 29.0476 22.2851 28.8471 22.2684C28.6967 22.2516 28.5631 22.2684 28.3291 22.2851C28.162 22.3019 28.0785 22.2182 27.9782 22.0006C27.6775 21.3645 27.0927 20.2918 26.7418 18.9193C26.5914 18.3334 26.4577 17.7141 26.3742 16.9092C26.3241 16.5409 26.3909 16.407 26.5747 16.2397C26.8086 16.0388 27.2263 15.9551 27.5438 16.0388C27.9281 16.1392 28.1286 16.4405 28.3291 17.6137C28.4294 18.1661 28.5965 18.869 28.797 19.4731C29.0476 20.2431 29.3651 20.8806 29.8496 21.7343C30.117 22.2029 30.4512 22.6884 30.802 23.1585C30.7352 23.3594 30.6182 23.4933 30.2339 23.8113C29.8496 24.1293 29.4653 24.4641 29.1144 25.0834C28.8638 25.5353 28.7469 26.0375 28.7469 26.3722C28.7469 26.6903 28.8137 26.7572 29.0142 26.7572C29.3651 26.7572 29.6491 26.6903 29.6658 26.5396C29.7494 25.937 29.8496 25.5521 30.1838 25.0986C30.3843 24.8476 30.7352 24.5295 31.0193 24.2785C31.5539 23.8433 31.7377 23.5922 31.9215 22.9729C32.0051 22.6884 32.1053 22.4205 32.239 22.1695C32.5565 21.5836 33.1246 20.9141 34.0117 20.9141C34.2957 20.9141 34.5296 20.9978 34.68 21.2321C34.7636 21.3661 34.797 21.5502 34.797 21.6841C34.797 21.9854 34.5798 22.4038 34.4795 22.6047C34.1119 23.3913 33.5104 24.598 33.5104 25.9873C33.5104 29.0184 32.441 30.5263 31.6041 31.2962C30.7853 32.0662 29.4972 32.7372 27.9767 32.7372C26.8907 32.7372 25.7696 32.4192 24.8507 31.8166C23.5641 30.963 22.7605 29.6224 21.9418 28.2834C21.2901 27.1954 20.839 26.3403 20.1357 24.6832C19.7393 23.7231 19.3701 22.7857 19.0527 21.7647Z" fill="white"/>
<path d="M23.3496 16.1545C23.3496 15.5184 23.9344 15.2673 24.419 15.2673C24.937 15.2673 25.1207 15.5184 25.2544 16.054C25.3714 16.4892 25.4215 16.8909 25.4716 17.3596C25.5385 17.8283 25.7724 18.901 25.8392 19.1688C26.0899 20.0894 26.5911 21.1789 27.1926 22.4845C26.8418 22.6016 26.3739 22.8025 26.0564 22.9699C25.6554 23.1874 25.5719 23.1874 25.4048 22.8694C25.0539 22.2166 24.8033 21.7312 24.5861 21.1606C24.4023 20.692 24.2185 20.1564 24.0681 19.5355C23.8175 18.481 23.784 18.1797 23.5835 17.6928C23.4666 17.1922 23.3496 16.5729 23.3496 16.1545Z" fill="white"/>
<path d="M17.3658 27.3659C17.0119 27.585 15.136 28.5695 14.7122 28.7262C14.4099 28.8388 14.0818 28.8114 13.8889 28.2393C13.6519 27.5317 13.9846 27.3643 14.4585 27.1802C14.8777 27.0174 16.617 26.3874 17.021 26.2779C17.3051 26.2018 17.5025 26.2977 17.6393 26.64C17.7896 27.0159 17.6863 27.1665 17.3658 27.3659Z" fill="white"/>
<path d="M15.8193 23.3777C15.3149 23.3913 13.2203 23.3016 12.7418 23.2544C12.3256 23.2133 12.157 23.0292 12.2025 22.4251C12.2512 21.7769 12.5033 21.7373 12.9119 21.7769C13.3858 21.8225 15.5808 22.1801 15.9301 22.2882C16.2917 22.4008 16.3418 22.5651 16.2977 22.8816C16.2415 23.2924 16.0562 23.37 15.8193 23.3777Z" fill="white"/>
<path d="M16.0787 19.1292C15.5015 18.9467 13.7881 17.9074 13.3415 17.6396C12.9374 17.3961 12.8858 17.177 13.1668 16.6429C13.4159 16.1712 13.6924 16.089 14.1025 16.302C14.578 16.5501 16.2564 17.8587 16.5769 18.1174C16.8868 18.3669 16.8443 18.4962 16.6817 18.8173C16.5192 19.1384 16.3673 19.2205 16.0787 19.1292Z" fill="white"/>
</svg>
