<svg width="40" height="40" viewBox="0 0 40 40" fill="none" xmlns="http://www.w3.org/2000/svg">
<path d="M10.1672 16.7767C10.6963 18.5342 11.3368 20.1826 12.033 21.7727C13.2305 24.6207 14.0381 26.1271 15.1545 27.9962C16.5191 30.2279 18.0254 32.769 20.5039 34.4149C22.314 35.6145 24.5166 36.2282 26.633 36.2282C29.6153 36.2282 32.1773 34.9171 33.8229 33.3802C35.4381 31.8738 37.5292 28.97 37.5292 23.3045C37.5292 21.3517 38.3925 19.6754 39.033 18.3363C39.033 18.3084 39.0609 18.2527 39.1166 18.1411C39.3672 17.5831 39.6735 16.8578 39.6735 16.1325C39.6735 15.6025 39.5343 14.9887 39.1723 14.4587C38.6153 13.5102 37.6128 13.1755 36.6912 13.1755C34.5469 13.1755 33.0685 14.6819 32.3166 16.2187L32.0659 16.7209C31.7596 16.2745 31.4533 15.8003 31.2026 15.3818C30.4229 14.0149 29.9773 13.0943 29.5875 11.9201C29.2811 10.9995 29.0305 9.93945 28.8634 9.07212C28.39 6.33572 27.6102 5.44302 26.3267 5.10826C25.3799 4.85719 24.2659 5.05247 23.4558 5.58251C22.9014 4.32716 21.9545 3.76923 20.6988 3.76923C18.9166 3.76923 17.2988 4.94088 17.2988 6.92408C17.2988 7.17515 17.3267 7.42622 17.3545 7.73308C17.1318 7.67729 16.8811 7.64939 16.6305 7.64939C14.709 7.64939 13.2862 8.98843 13.2862 10.8042C13.2862 11.2227 13.3419 11.6969 13.4811 12.2549C13.314 12.227 13.1469 12.227 12.9799 12.227C12.033 12.2828 11.1697 12.6454 10.5545 13.3986C9.94441 14.1239 9.69378 15.2398 10.1672 16.7767Z" fill="#1F1F1A"/>
<path d="M11.7546 16.2745C11.504 15.4655 11.5318 14.8518 11.8382 14.4613C12.1445 14.0986 12.5622 13.9312 13.0635 13.9033C13.9268 13.8754 14.261 14.4891 14.7622 16.0793C15.0686 17.0835 15.6812 18.5367 16.0432 19.3457C16.5167 20.3221 17.185 21.6332 17.4913 22.0821C17.742 22.4727 17.9648 22.5842 18.2154 22.5842C18.661 22.5842 18.9951 22.3332 18.9951 21.8868C18.9951 21.6358 18.7445 21.2173 18.6053 20.9662C18.3546 20.492 17.8255 19.5435 17.4635 18.7345C17.0736 17.8418 16.628 16.726 16.266 15.7191C16.0432 15.1333 15.7926 14.2964 15.542 13.4595C15.1521 12.1763 14.9572 11.3952 14.9572 10.8068C14.9572 9.9141 15.6255 9.32827 16.628 9.32827C17.3521 9.32827 17.8255 9.69093 18.1318 11.0021C18.3825 12.2016 18.828 14.1569 19.4686 15.6912C19.8863 16.6955 20.4989 18.0371 20.861 18.7066C21.0837 19.0972 21.3344 19.4319 21.3344 19.5714C21.3344 19.7667 20.9723 20.0735 20.666 20.492C20.4711 20.7431 20.3875 20.9104 20.3875 21.1057C20.3875 21.2731 20.4989 21.4405 20.666 21.6637C20.8331 21.8868 21.0002 22.11 21.1951 22.11C21.3344 22.11 21.4179 22.0542 21.5015 21.9426C22.3648 20.8547 23.3116 20.1014 24.4002 19.4852C25.6812 18.7599 26.9926 18.3972 28.023 18.174C28.5242 18.0625 28.6635 17.9509 28.6635 17.6719C28.6635 17.3371 28.4129 17.1419 28.0787 17.114C27.828 17.0861 27.6053 17.114 27.2154 17.1419C26.9369 17.1698 26.7977 17.0303 26.6306 16.6676C26.1293 15.6075 25.1546 13.8196 24.5698 11.5321C24.3192 10.5557 24.0964 9.52355 23.9572 8.18197C23.8736 7.56825 23.985 7.34507 24.2913 7.06611C24.6812 6.73135 25.3774 6.59186 25.9065 6.73135C26.547 6.89873 26.8812 7.40087 27.2154 9.35617C27.3825 10.2768 27.661 11.4484 27.9951 12.4552C28.4129 13.7385 28.942 14.8011 29.7496 16.2238C30.1951 17.0049 30.7521 17.8139 31.3369 18.5976C31.2255 18.9323 31.0306 19.1555 30.3901 19.6855C29.7496 20.2156 29.1091 20.7735 28.5242 21.8057C28.1065 22.5589 27.9116 23.3958 27.9116 23.9537C27.9116 24.4838 28.023 24.5953 28.3572 24.5953C28.942 24.5953 29.4154 24.4838 29.4432 24.2327C29.5825 23.2284 29.7496 22.5868 30.3065 21.831C30.6407 21.4126 31.2255 20.8826 31.6989 20.4641C32.5901 19.7388 32.8964 19.3203 33.2027 18.2882C33.342 17.8139 33.5091 17.3676 33.7318 16.9491C34.261 15.9727 35.2078 14.8569 36.6863 14.8569C37.1597 14.8569 37.5496 14.9964 37.8002 15.3869C37.9394 15.6101 37.9951 15.9169 37.9951 16.1401C37.9951 16.6423 37.6331 17.3397 37.466 17.6744C36.8534 18.9856 35.8508 20.9967 35.8508 23.3121C35.8508 28.3639 34.0686 30.8772 32.6736 32.1604C31.3091 33.4436 29.1622 34.562 26.628 34.562C24.8179 34.562 22.9496 34.032 21.4179 33.0277C19.2736 31.605 17.9344 29.3707 16.5698 27.139C15.4837 25.3257 14.7318 23.9005 13.5597 21.1387C12.8989 19.5384 12.2837 17.9762 11.7546 16.2745Z" fill="#FFE450"/>
<path d="M18.9165 6.92409C18.9165 5.86402 19.8912 5.44557 20.6988 5.44557C21.5621 5.44557 21.8684 5.86402 22.0912 6.75671C22.2861 7.48202 22.3697 8.15154 22.4532 8.93265C22.5646 9.71375 22.9545 11.5017 23.0659 11.948C23.4836 13.4823 24.319 15.2982 25.3216 17.4741C24.7368 17.6694 23.957 18.0041 23.4279 18.2831C22.7595 18.6457 22.6203 18.6457 22.3418 18.1157C21.757 17.0277 21.3393 16.2187 20.9773 15.2677C20.6709 14.4866 20.3646 13.5939 20.114 12.5592C19.6962 10.8017 19.6406 10.2996 19.3064 9.48804C19.1114 8.65368 18.9165 7.62151 18.9165 6.92409Z" fill="#FFE450"/>
<path d="M8.94159 25.6098C8.35172 25.975 5.22514 27.6158 4.51881 27.877C4.01501 28.0647 3.46818 28.019 3.14666 27.0655C2.75172 25.8862 3.30615 25.6072 4.09602 25.3004C4.79476 25.029 7.69349 23.9791 8.36691 23.7965C8.84033 23.6697 9.16944 23.8295 9.39729 24.4001C9.64792 25.0265 9.47577 25.2775 8.94159 25.6098Z" fill="#1F1F1A"/>
<path d="M6.36461 18.9628C5.5241 18.9856 2.03296 18.836 1.23549 18.7573C0.541824 18.6889 0.260811 18.382 0.33676 17.3752C0.417773 16.2948 0.838026 16.2289 1.51904 16.2948C2.30891 16.3709 5.96714 16.9669 6.54942 17.1469C7.15195 17.3346 7.2355 17.6085 7.16208 18.136C7.06841 18.8207 6.75955 18.9501 6.36461 18.9628Z" fill="#1F1F1A"/>
<path d="M6.79736 11.8821C5.83534 11.5778 2.97964 9.84562 2.23534 9.39928C1.56192 8.99351 1.47584 8.62832 1.9442 7.73816C2.35939 6.95198 2.82015 6.81503 3.50369 7.17008C4.2961 7.58346 7.09357 9.76447 7.62774 10.1956C8.1442 10.6115 8.07331 10.8271 7.80243 11.3622C7.53154 11.8973 7.27838 12.0342 6.79736 11.8821Z" fill="#1F1F1A"/>
</svg>
