<svg width="40" height="40" viewBox="0 0 40 40" fill="none" xmlns="http://www.w3.org/2000/svg">
<rect width="40" height="40" rx="20" fill="#EAE8E1"/>
<path d="M12.6702 17.8151C13.0288 19.0062 13.4628 20.1233 13.9346 21.2009C14.7462 23.131 15.2935 24.1519 16.0501 25.4186C16.9749 26.931 17.9957 28.6532 19.6754 29.7686C20.9021 30.5815 22.3947 30.9975 23.8291 30.9975C25.8501 30.9975 27.5864 30.1089 28.7016 29.0674C29.7962 28.0465 31.2134 26.0786 31.2134 22.239C31.2134 20.9156 31.7985 19.7796 32.2325 18.8721C32.2325 18.8532 32.2514 18.8154 32.2892 18.7398C32.459 18.3617 32.6666 17.8701 32.6666 17.3786C32.6666 17.0194 32.5722 16.6035 32.3269 16.2443C31.9494 15.6015 31.27 15.3746 30.6455 15.3746C29.1923 15.3746 28.1904 16.3955 27.6808 17.437L27.5109 17.7773C27.3033 17.4748 27.0957 17.1534 26.9259 16.8699C26.3975 15.9435 26.0955 15.3196 25.8313 14.5239C25.6237 13.9 25.4538 13.1816 25.3406 12.5938C25.0198 10.7393 24.4913 10.1343 23.6215 9.90747C22.9798 9.73732 22.2249 9.86965 21.6759 10.2289C21.3001 9.37811 20.6585 9 19.8075 9C18.5996 9 17.5033 9.79403 17.5033 11.138C17.5033 11.3082 17.5222 11.4783 17.541 11.6863C17.3901 11.6485 17.2202 11.6296 17.0503 11.6296C15.7481 11.6296 14.7839 12.5371 14.7839 13.7676C14.7839 14.0512 14.8217 14.3726 14.916 14.7507C14.8028 14.7318 14.6896 14.7318 14.5763 14.7318C13.9346 14.7696 13.3496 15.0154 12.9327 15.5258C12.5192 16.0174 12.3493 16.7736 12.6702 17.8151Z" fill="#1F1F1A"/>
<path d="M13.7455 17.4748C13.5757 16.9266 13.5945 16.5107 13.8021 16.246C14.0097 16.0002 14.2928 15.8868 14.6325 15.8679C15.2176 15.849 15.444 16.2649 15.7838 17.3425C15.9914 18.0231 16.4066 19.0079 16.6519 19.5562C16.9727 20.2179 17.4257 21.1064 17.6333 21.4106C17.8031 21.6753 17.9541 21.7509 18.124 21.7509C18.4259 21.7509 18.6524 21.5808 18.6524 21.2783C18.6524 21.1081 18.4825 20.8246 18.3882 20.6544C18.2183 20.333 17.8597 19.6902 17.6144 19.142C17.3502 18.537 17.0482 17.7808 16.8029 17.0984C16.6519 16.7014 16.482 16.1343 16.3122 15.5671C16.048 14.6974 15.9159 14.1681 15.9159 13.7693C15.9159 13.1644 16.3688 12.7674 17.0482 12.7674C17.5389 12.7674 17.8597 13.0131 18.0673 13.9017C18.2372 14.7146 18.5392 16.0397 18.9732 17.0795C19.2563 17.7601 19.6715 18.6693 19.9169 19.1231C20.0678 19.3877 20.2377 19.6146 20.2377 19.7091C20.2377 19.8415 19.9924 20.0494 19.7848 20.333C19.6526 20.5032 19.596 20.6166 19.596 20.7489C19.596 20.8624 19.6715 20.9758 19.7848 21.127C19.898 21.2783 20.0112 21.4295 20.1433 21.4295C20.2377 21.4295 20.2943 21.3917 20.3509 21.3161C20.936 20.5788 21.5777 20.0683 22.3154 19.6507C23.1835 19.1591 24.0723 18.9134 24.7706 18.7621C25.1103 18.6865 25.2046 18.6109 25.2046 18.4218C25.2046 18.195 25.0348 18.0626 24.8083 18.0437C24.6385 18.0248 24.4875 18.0437 24.2233 18.0626C24.0345 18.0815 23.9402 17.987 23.8269 17.7412C23.4872 17.0228 22.8267 15.8111 22.4304 14.2609C22.2605 13.5992 22.1095 12.8997 22.0152 11.9905C21.9585 11.5746 22.034 11.4233 22.2416 11.2343C22.5058 11.0074 22.9777 10.9129 23.3362 11.0074C23.7703 11.1209 23.9968 11.4612 24.2233 12.7863C24.3365 13.4101 24.5252 14.2042 24.7517 14.8865C25.0348 15.7561 25.3934 16.4763 25.9407 17.4405C26.2426 17.9698 26.6201 18.5181 27.0164 19.0491C26.9409 19.276 26.8088 19.4273 26.3747 19.7865C25.9407 20.1457 25.5066 20.5238 25.1103 21.2233C24.8272 21.7337 24.6951 22.3009 24.6951 22.679C24.6951 23.0382 24.7706 23.1138 24.997 23.1138C25.3934 23.1138 25.7142 23.0382 25.7331 22.8681C25.8274 22.1875 25.9407 21.7526 26.3181 21.2405C26.5446 20.9569 26.9409 20.5977 27.2618 20.3141C27.8657 19.8226 28.0733 19.539 28.2809 18.8395C28.3752 18.5181 28.4885 18.2156 28.6395 17.932C28.998 17.2703 29.6397 16.5141 30.6417 16.5141C30.9625 16.5141 31.2267 16.6086 31.3966 16.8733C31.4909 17.0245 31.5287 17.2325 31.5287 17.3837C31.5287 17.724 31.2833 18.1967 31.1701 18.4235C30.7549 19.3121 30.0755 20.675 30.0755 22.2442C30.0755 25.6678 28.8676 27.371 27.9223 28.2407C26.9975 29.1103 25.5426 29.8683 23.8252 29.8683C22.5985 29.8683 21.3323 29.5091 20.2943 28.8285C18.8411 27.8643 17.9335 26.3501 17.0088 24.8377C16.2727 23.6088 15.7632 22.6429 14.9688 20.7713C14.521 19.6868 14.1041 18.6281 13.7455 17.4748Z" fill="#FFE450"/>
<path d="M18.5996 11.138C18.5996 10.4196 19.2602 10.136 19.8075 10.136C20.3925 10.136 20.6001 10.4196 20.7511 11.0246C20.8832 11.5162 20.9398 11.9699 20.9964 12.4992C21.0719 13.0286 21.3361 14.2403 21.4116 14.5428C21.6947 15.5826 22.2609 16.8131 22.9403 18.2878C22.544 18.4201 22.0156 18.647 21.657 18.836C21.204 19.0818 21.1097 19.0818 20.9209 18.7226C20.5246 17.9853 20.2415 17.437 19.9962 16.7925C19.7886 16.2632 19.581 15.6582 19.4111 14.957C19.128 13.7659 19.0903 13.4256 18.8638 12.8756C18.7317 12.3102 18.5996 11.6107 18.5996 11.138Z" fill="#FFE450"/>
<path d="M11.8399 23.8013C11.4402 24.0488 9.32127 25.1608 8.84259 25.3378C8.50117 25.465 8.13058 25.4341 7.91269 24.7878C7.64504 23.9887 8.02078 23.7996 8.55607 23.5916C9.02961 23.4077 10.9941 22.6962 11.4505 22.5725C11.7713 22.4865 11.9943 22.5948 12.1487 22.9815C12.3186 23.406 12.2019 23.5762 11.8399 23.8013Z" fill="#1F1F1A"/>
<path d="M10.0932 19.2967C9.52363 19.3121 7.15768 19.2107 6.61724 19.1574C6.14714 19.111 5.9567 18.9031 6.00817 18.2208C6.06307 17.4886 6.34788 17.4439 6.8094 17.4886C7.3447 17.5402 9.82387 17.944 10.2185 18.0661C10.6268 18.1933 10.6834 18.3789 10.6337 18.7364C10.5702 19.2004 10.3609 19.2881 10.0932 19.2967Z" fill="#1F1F1A"/>
<path d="M10.3869 14.4981C9.73491 14.2918 7.7996 13.118 7.29519 12.8155C6.83881 12.5405 6.78048 12.293 7.09788 11.6898C7.37926 11.157 7.69151 11.0642 8.15475 11.3048C8.69176 11.5849 10.5876 13.063 10.9496 13.3552C11.2996 13.637 11.2516 13.7831 11.068 14.1458C10.8844 14.5084 10.7129 14.6012 10.3869 14.4981Z" fill="#1F1F1A"/>
</svg>
