<svg width="40" height="40" viewBox="0 0 40 40" fill="none" xmlns="http://www.w3.org/2000/svg">
<path d="M10.1667 16.7767C10.6958 18.5342 11.3363 20.1826 12.0325 21.7727C13.23 24.6207 14.0376 26.1271 15.1541 27.9962C16.5186 30.2279 18.0249 32.769 20.5034 34.4149C22.3135 35.6145 24.5161 36.2282 26.6325 36.2282C29.6148 36.2282 32.1768 34.9171 33.8224 33.3802C35.4376 31.8738 37.5287 28.97 37.5287 23.3045C37.5287 21.3517 38.392 19.6754 39.0325 18.3363C39.0325 18.3084 39.0604 18.2527 39.1161 18.1411C39.3667 17.5831 39.673 16.8578 39.673 16.1325C39.673 15.6025 39.5338 14.9887 39.1718 14.4587C38.6148 13.5102 37.6123 13.1755 36.6908 13.1755C34.5465 13.1755 33.068 14.6819 32.3161 16.2187L32.0654 16.7209C31.7591 16.2745 31.4528 15.8003 31.2022 15.3818C30.4224 14.0149 29.9768 13.0943 29.587 11.9201C29.2806 10.9995 29.03 9.93945 28.8629 9.07212C28.3895 6.33572 27.6097 5.44302 26.3262 5.10826C25.3794 4.85719 24.2654 5.05247 23.4553 5.58251C22.9009 4.32716 21.9541 3.76923 20.6984 3.76923C18.9161 3.76923 17.2984 4.94088 17.2984 6.92408C17.2984 7.17515 17.3262 7.42622 17.3541 7.73308C17.1313 7.67729 16.8806 7.64939 16.63 7.64939C14.7085 7.64939 13.2857 8.98843 13.2857 10.8042C13.2857 11.2227 13.3414 11.6969 13.4806 12.2549C13.3135 12.227 13.1465 12.227 12.9794 12.227C12.0325 12.2828 11.1692 12.6454 10.5541 13.3986C9.94393 14.1239 9.69329 15.2398 10.1667 16.7767Z" fill="#1F1F1A"/>
<path d="M11.7541 16.2745C11.5035 15.4655 11.5314 14.8518 11.8377 14.4613C12.144 14.0986 12.5617 13.9312 13.063 13.9033C13.9263 13.8754 14.2605 14.4891 14.7617 16.0793C15.0681 17.0835 15.6807 18.5367 16.0427 19.3457C16.5162 20.3221 17.1845 21.6332 17.4908 22.0821C17.7415 22.4727 17.9643 22.5842 18.2149 22.5842C18.6605 22.5842 18.9946 22.3332 18.9946 21.8868C18.9946 21.6358 18.744 21.2173 18.6048 20.9662C18.3541 20.492 17.825 19.5435 17.463 18.7345C17.0731 17.8418 16.6276 16.726 16.2655 15.7191C16.0427 15.1333 15.7921 14.2964 15.5415 13.4595C15.1516 12.1763 14.9567 11.3952 14.9567 10.8068C14.9567 9.9141 15.625 9.32827 16.6276 9.32827C17.3516 9.32827 17.825 9.69093 18.1314 11.0021C18.382 12.2016 18.8276 14.1569 19.4681 15.6912C19.8858 16.6955 20.4984 18.0371 20.8605 18.7066C21.0833 19.0972 21.3339 19.4319 21.3339 19.5714C21.3339 19.7667 20.9719 20.0735 20.6655 20.492C20.4706 20.7431 20.387 20.9104 20.387 21.1057C20.387 21.2731 20.4984 21.4405 20.6655 21.6637C20.8326 21.8868 20.9997 22.11 21.1946 22.11C21.3339 22.11 21.4174 22.0542 21.501 21.9426C22.3643 20.8547 23.3111 20.1014 24.3997 19.4852C25.6807 18.7599 26.9921 18.3972 28.0225 18.174C28.5238 18.0625 28.663 17.9509 28.663 17.6719C28.663 17.3371 28.4124 17.1419 28.0782 17.114C27.8276 17.0861 27.6048 17.114 27.2149 17.1419C26.9364 17.1698 26.7972 17.0303 26.6301 16.6676C26.1288 15.6075 25.1541 13.8196 24.5693 11.5321C24.3187 10.5557 24.0959 9.52355 23.9567 8.18197C23.8731 7.56825 23.9845 7.34507 24.2908 7.06611C24.6807 6.73135 25.3769 6.59186 25.906 6.73135C26.5465 6.89873 26.8807 7.40087 27.2149 9.35617C27.382 10.2768 27.6605 11.4484 27.9946 12.4552C28.4124 13.7385 28.9415 14.8011 29.7491 16.2238C30.1946 17.0049 30.7516 17.8139 31.3364 18.5976C31.225 18.9323 31.0301 19.1555 30.3896 19.6855C29.7491 20.2156 29.1086 20.7735 28.5238 21.8057C28.106 22.5589 27.9111 23.3958 27.9111 23.9537C27.9111 24.4838 28.0225 24.5953 28.3567 24.5953C28.9415 24.5953 29.4149 24.4838 29.4427 24.2327C29.582 23.2284 29.7491 22.5868 30.306 21.831C30.6402 21.4126 31.225 20.8826 31.6984 20.4641C32.5896 19.7388 32.8959 19.3203 33.2022 18.2882C33.3415 17.8139 33.5086 17.3676 33.7314 16.9491C34.2605 15.9727 35.2073 14.8569 36.6858 14.8569C37.1592 14.8569 37.5491 14.9964 37.7997 15.3869C37.9389 15.6101 37.9946 15.9169 37.9946 16.1401C37.9946 16.6423 37.6326 17.3397 37.4655 17.6744C36.8529 18.9856 35.8503 20.9967 35.8503 23.3121C35.8503 28.3639 34.0681 30.8772 32.6731 32.1604C31.3086 33.4436 29.1617 34.562 26.6276 34.562C24.8174 34.562 22.9491 34.032 21.4174 33.0277C19.2731 31.605 17.9339 29.3707 16.5693 27.139C15.4833 25.3257 14.7314 23.9005 13.5592 21.1387C12.8984 19.5384 12.2833 17.9762 11.7541 16.2745Z" fill="white"/>
<path d="M18.916 6.92409C18.916 5.86402 19.8907 5.44557 20.6983 5.44557C21.5616 5.44557 21.8679 5.86402 22.0907 6.75671C22.2856 7.48202 22.3692 8.15154 22.4527 8.93265C22.5641 9.71375 22.954 11.5017 23.0654 11.948C23.4831 13.4823 24.3185 15.2982 25.3211 17.4741C24.7363 17.6694 23.9565 18.0041 23.4274 18.2831C22.7591 18.6457 22.6198 18.6457 22.3413 18.1157C21.7565 17.0277 21.3388 16.2187 20.9768 15.2677C20.6704 14.4866 20.3641 13.5939 20.1135 12.5592C19.6958 10.8017 19.6401 10.2996 19.3059 9.48804C19.111 8.65368 18.916 7.62151 18.916 6.92409Z" fill="white"/>
<path d="M8.9411 25.6098C8.35123 25.975 5.22465 27.6158 4.51832 27.877C4.01452 28.0647 3.46769 28.019 3.14617 27.0655C2.75123 25.8862 3.30566 25.6072 4.09554 25.3004C4.79427 25.029 7.693 23.9791 8.36642 23.7965C8.83984 23.6697 9.16895 23.8295 9.3968 24.4001C9.64743 25.0265 9.47528 25.2775 8.9411 25.6098Z" fill="#1F1F1A"/>
<path d="M6.36412 18.9628C5.52361 18.9856 2.03247 18.836 1.23501 18.7573C0.541335 18.6889 0.260323 18.382 0.336272 17.3752C0.417285 16.2948 0.837538 16.2289 1.51855 16.2948C2.30842 16.3709 5.96665 16.9669 6.54893 17.1469C7.15146 17.3346 7.23501 17.6085 7.16159 18.136C7.06792 18.8207 6.75906 18.9501 6.36412 18.9628Z" fill="#1F1F1A"/>
<path d="M6.79688 11.8821C5.83485 11.5778 2.97915 9.84562 2.23485 9.39928C1.56143 8.99351 1.47536 8.62832 1.94371 7.73816C2.3589 6.95198 2.81966 6.81503 3.50321 7.17008C4.29561 7.58346 7.09308 9.76447 7.62726 10.1956C8.14371 10.6115 8.07283 10.8271 7.80194 11.3622C7.53105 11.8973 7.27789 12.0342 6.79688 11.8821Z" fill="#1F1F1A"/>
</svg>
