<svg width="40" height="40" viewBox="0 0 40 40" fill="none" xmlns="http://www.w3.org/2000/svg">
<path d="M28.6529 14.4391C31.2252 16.2844 34.3763 17.3701 37.7797 17.3701V10.7977C37.1356 10.7978 36.4931 10.7304 35.863 10.5964V15.7699C32.4599 15.7699 29.3092 14.6842 26.7362 12.839V26.2514C26.7362 32.961 21.3164 38.3998 14.631 38.3998C12.1366 38.3998 9.81807 37.643 7.89209 36.3451C10.0903 38.6007 13.1558 40 16.5473 40C23.233 40 28.6532 34.5611 28.6532 27.8513V14.4391H28.6529ZM31.0173 7.80832C29.7028 6.36704 28.8397 4.50446 28.6529 2.44529V1.59993H26.8366C27.2938 4.21713 28.8532 6.45311 31.0173 7.80832ZM12.1206 31.1963C11.3861 30.2299 10.9892 29.0477 10.991 27.8321C10.991 24.7634 13.47 22.2752 16.5284 22.2752C17.0984 22.2751 17.665 22.3626 18.2082 22.5356V15.8163C17.5734 15.729 16.9327 15.6919 16.2923 15.7055V20.9355C15.7487 20.7625 15.1819 20.6747 14.6117 20.6752C11.5533 20.6752 9.07445 23.1631 9.07445 26.2322C9.07445 28.4023 10.3135 30.2811 12.1206 31.1963Z" fill="#FF004F"/>
<path d="M26.7362 12.8389C29.3091 14.684 32.4598 15.7697 35.8629 15.7697V10.5963C33.9633 10.1902 32.2817 9.194 31.0173 7.80832C28.853 6.45298 27.2937 4.217 26.8365 1.59993H22.0655V27.851C22.0547 30.9113 19.58 33.3893 16.5281 33.3893C14.7297 33.3893 13.132 32.529 12.1201 31.1963C10.3132 30.2811 9.07411 28.4022 9.07411 26.2324C9.07411 23.1635 11.553 20.6754 14.6114 20.6754C15.1974 20.6754 15.7622 20.7669 16.292 20.9356V15.7056C9.72408 15.8418 4.44189 21.2275 4.44189 27.8511C4.44189 31.1576 5.75728 34.1551 7.89216 36.3452C9.81814 37.643 12.1366 38.4 14.6311 38.4C21.3166 38.4 26.7363 32.9609 26.7363 26.2514V12.8389H26.7362Z" fill="black"/>
<path d="M35.8629 10.5963V9.19747C34.15 9.20008 32.4706 8.71865 31.0173 7.80822C32.3038 9.22177 33.9979 10.1964 35.8629 10.5963ZM26.8365 1.59997C26.7929 1.34985 26.7594 1.09808 26.7362 0.845356V0H20.1487V26.2514C20.1382 29.3113 17.6636 31.7893 14.6114 31.7893C13.7154 31.7893 12.8694 31.5758 12.1201 31.1965C13.132 32.5291 14.7297 33.3892 16.5281 33.3892C19.5797 33.3892 22.0549 30.9115 22.0656 27.8512V1.59997H26.8365ZM16.2923 15.7057V14.2165C15.7418 14.141 15.1869 14.1031 14.6313 14.1034C7.94525 14.1032 2.52539 19.5423 2.52539 26.2514C2.52539 30.4575 4.65549 34.1645 7.89234 36.345C5.75745 34.155 4.44207 31.1574 4.44207 27.851C4.44207 21.2275 9.72411 15.8419 16.2923 15.7057Z" fill="#00F2EA"/>
</svg>
