<svg width="48" height="48" viewBox="0 0 48 48" fill="none" xmlns="http://www.w3.org/2000/svg">
<rect width="48" height="48" rx="24" fill="black"/>
<g clip-path="url(#clip0_56_1837)">
<path d="M32.4 12H15.6C13.6118 12 12 13.6118 12 15.6V32.4C12 34.3882 13.6118 36 15.6 36H32.4C34.3882 36 36 34.3882 36 32.4V15.6C36 13.6118 34.3882 12 32.4 12Z" fill="black"/>
<path d="M29.8785 16.9359C30.3941 17.7844 30.6238 18.6562 30.6238 19.7625C30.6238 23.2828 27.6191 27.8578 25.177 31.0687H19.6082L17.377 17.7094L22.2566 17.2453L23.4426 26.7516C24.5441 24.9516 25.9082 22.125 25.9082 20.2031C25.9082 19.1484 25.7254 18.4312 25.4441 17.8406L29.8785 16.9359Z" fill="white"/>
</g>
<defs>
<clipPath id="clip0_56_1837">
<rect width="24" height="24" fill="white" transform="translate(12 12)"/>
</clipPath>
</defs>
</svg>
