<svg width="198" height="48" viewBox="0 0 198 48" fill="none" xmlns="http://www.w3.org/2000/svg">
<path d="M4 16C4 9.37258 9.37258 4 16 4H182C188.627 4 194 9.37258 194 16V32C194 38.6274 188.627 44 182 44H16C9.37259 44 4 38.6274 4 32V16Z" fill="#030713"/>
<path d="M34.5625 19.875L33.9892 29.6211C33.9251 30.7113 33.0223 31.5625 31.9303 31.5625H22.0697C20.9777 31.5625 20.0749 30.7113 20.0108 29.6211L19.4375 19.875M25.1664 23.3125H28.8331M19.0937 19.875H34.9062C35.4758 19.875 35.9375 19.4133 35.9375 18.8438V17.4688C35.9375 16.8992 35.4758 16.4375 34.9062 16.4375H19.0938C18.5242 16.4375 18.0625 16.8992 18.0625 17.4688V18.8438C18.0625 19.4133 18.5242 19.875 19.0937 19.875Z" stroke="#F3F4F6" stroke-width="1.5" stroke-linecap="round" stroke-linejoin="round"/>
<path d="M47.2784 30V18.3636H51.4261C52.3314 18.3636 53.0814 18.5284 53.6761 18.858C54.2708 19.1875 54.7159 19.6383 55.0114 20.2102C55.3068 20.7784 55.4545 21.4186 55.4545 22.1307C55.4545 22.8466 55.3049 23.4905 55.0057 24.0625C54.7102 24.6307 54.2633 25.0814 53.6648 25.4148C53.0701 25.7443 52.322 25.9091 51.4205 25.9091H48.5682V24.4205H51.2614C51.8333 24.4205 52.2973 24.322 52.6534 24.125C53.0095 23.9242 53.2708 23.6515 53.4375 23.3068C53.6042 22.9621 53.6875 22.5701 53.6875 22.1307C53.6875 21.6913 53.6042 21.3011 53.4375 20.9602C53.2708 20.6193 53.0076 20.3523 52.6477 20.1591C52.2917 19.9659 51.822 19.8693 51.2386 19.8693H49.0341V30H47.2784ZM59.3953 18.3636V30H57.6964V18.3636H59.3953ZM64.5406 30.1932C63.9875 30.1932 63.4875 30.0909 63.0406 29.8864C62.5936 29.678 62.2394 29.3769 61.9781 28.983C61.7205 28.589 61.5917 28.1061 61.5917 27.5341C61.5917 27.0417 61.6864 26.6364 61.8758 26.3182C62.0652 26 62.3209 25.7481 62.6428 25.5625C62.9648 25.3769 63.3247 25.2367 63.7224 25.142C64.1201 25.0473 64.5254 24.9754 64.9383 24.9261C65.461 24.8655 65.8853 24.8163 66.211 24.7784C66.5368 24.7367 66.7735 24.6705 66.9213 24.5795C67.069 24.4886 67.1428 24.3409 67.1428 24.1364V24.0966C67.1428 23.6004 67.0027 23.2159 66.7224 22.9432C66.4459 22.6705 66.033 22.5341 65.4838 22.5341C64.9118 22.5341 64.461 22.661 64.1315 22.9148C63.8057 23.1648 63.5803 23.4432 63.4553 23.75L61.8588 23.3864C62.0481 22.8561 62.3247 22.428 62.6883 22.1023C63.0557 21.7727 63.4781 21.5341 63.9553 21.3864C64.4326 21.2348 64.9345 21.1591 65.461 21.1591C65.8095 21.1591 66.1788 21.2008 66.569 21.2841C66.9629 21.3636 67.3303 21.5114 67.6713 21.7273C68.0159 21.9432 68.2981 22.2519 68.5178 22.6534C68.7375 23.0511 68.8474 23.5682 68.8474 24.2045V30H67.1883V28.8068H67.1201C67.0103 29.0265 66.8455 29.2424 66.6258 29.4545C66.4061 29.6667 66.1239 29.8428 65.7792 29.983C65.4345 30.1231 65.0216 30.1932 64.5406 30.1932ZM64.9099 28.8295C65.3796 28.8295 65.7811 28.7367 66.1144 28.5511C66.4516 28.3655 66.7072 28.1231 66.8815 27.8239C67.0595 27.5208 67.1485 27.197 67.1485 26.8523V25.7273C67.0879 25.7879 66.9705 25.8447 66.7963 25.8977C66.6258 25.947 66.4307 25.9905 66.211 26.0284C65.9913 26.0625 65.7773 26.0947 65.569 26.125C65.3606 26.1515 65.1864 26.1742 65.0463 26.1932C64.7167 26.2348 64.4156 26.3049 64.1428 26.4034C63.8739 26.5019 63.658 26.6439 63.4951 26.8295C63.336 27.0114 63.2565 27.2538 63.2565 27.5568C63.2565 27.9773 63.4118 28.2955 63.7224 28.5114C64.033 28.7235 64.4288 28.8295 64.9099 28.8295ZM75.1063 30.1761C74.2616 30.1761 73.5343 29.9848 72.9245 29.6023C72.3184 29.2159 71.8525 28.6837 71.5268 28.0057C71.201 27.3277 71.0381 26.5511 71.0381 25.6761C71.0381 24.7898 71.2048 24.0076 71.5381 23.3295C71.8715 22.6477 72.3412 22.1155 72.9472 21.733C73.5533 21.3504 74.2673 21.1591 75.0893 21.1591C75.7521 21.1591 76.343 21.2822 76.862 21.5284C77.3809 21.7708 77.7995 22.1117 78.1177 22.5511C78.4396 22.9905 78.6309 23.5038 78.6915 24.0909H77.0381C76.9472 23.6818 76.7389 23.3295 76.4131 23.0341C76.0912 22.7386 75.6593 22.5909 75.1177 22.5909C74.6442 22.5909 74.2294 22.7159 73.8734 22.9659C73.5211 23.2121 73.2465 23.5644 73.0495 24.0227C72.8525 24.4773 72.754 25.0152 72.754 25.6364C72.754 26.2727 72.8506 26.822 73.0438 27.2841C73.237 27.7462 73.5097 28.1042 73.862 28.358C74.218 28.6117 74.6366 28.7386 75.1177 28.7386C75.4396 28.7386 75.7313 28.6799 75.9927 28.5625C76.2578 28.4413 76.4794 28.2689 76.6574 28.0455C76.8393 27.822 76.9662 27.553 77.0381 27.2386H78.6915C78.6309 27.803 78.4472 28.3068 78.1404 28.75C77.8336 29.1932 77.4226 29.5417 76.9074 29.7955C76.3961 30.0492 75.7957 30.1761 75.1063 30.1761ZM84.5897 30.1761C83.7298 30.1761 82.9893 29.9924 82.3681 29.625C81.7506 29.2538 81.2734 28.733 80.9362 28.0625C80.6029 27.3883 80.4362 26.5985 80.4362 25.6932C80.4362 24.7992 80.6029 24.0114 80.9362 23.3295C81.2734 22.6477 81.7431 22.1155 82.3453 21.733C82.9514 21.3504 83.6597 21.1591 84.4703 21.1591C84.9628 21.1591 85.44 21.2405 85.9022 21.4034C86.3643 21.5663 86.7791 21.822 87.1465 22.1705C87.5139 22.5189 87.8037 22.9716 88.0158 23.5284C88.2279 24.0814 88.334 24.7538 88.334 25.5455V26.1477H81.3965V24.875H86.6692C86.6692 24.428 86.5783 24.0322 86.3965 23.6875C86.2147 23.339 85.959 23.0644 85.6294 22.8636C85.3037 22.6629 84.9211 22.5625 84.4817 22.5625C84.0044 22.5625 83.5878 22.6799 83.2317 22.9148C82.8794 23.1458 82.6067 23.4489 82.4135 23.8239C82.2241 24.1951 82.1294 24.5985 82.1294 25.0341V26.0284C82.1294 26.6117 82.2317 27.108 82.4362 27.517C82.6446 27.9261 82.9344 28.2386 83.3056 28.4545C83.6768 28.6667 84.1105 28.7727 84.6067 28.7727C84.9287 28.7727 85.2222 28.7273 85.4874 28.6364C85.7525 28.5417 85.9817 28.4015 86.1749 28.2159C86.3681 28.0303 86.5158 27.8011 86.6181 27.5284L88.226 27.8182C88.0972 28.2917 87.8662 28.7064 87.5328 29.0625C87.2033 29.4148 86.7885 29.6894 86.2885 29.8864C85.7923 30.0795 85.226 30.1761 84.5897 30.1761ZM92.2378 24.8182V30H90.5389V18.3636H92.2151V22.6932H92.323C92.5276 22.2235 92.8401 21.8504 93.2605 21.5739C93.681 21.2973 94.2302 21.1591 94.9082 21.1591C95.5067 21.1591 96.0294 21.2822 96.4764 21.5284C96.9272 21.7746 97.2757 22.142 97.5219 22.6307C97.7719 23.1155 97.8969 23.7216 97.8969 24.4489V30H96.198V24.6534C96.198 24.0133 96.0332 23.517 95.7037 23.1648C95.3741 22.8087 94.9158 22.6307 94.3287 22.6307C93.9272 22.6307 93.5673 22.7159 93.2491 22.8864C92.9348 23.0568 92.6866 23.3068 92.5048 23.6364C92.3268 23.9621 92.2378 24.3561 92.2378 24.8182ZM104.16 30.1761C103.342 30.1761 102.628 29.9886 102.018 29.6136C101.408 29.2386 100.935 28.714 100.598 28.0398C100.26 27.3655 100.092 26.5777 100.092 25.6761C100.092 24.7708 100.26 23.9792 100.598 23.3011C100.935 22.6231 101.408 22.0966 102.018 21.7216C102.628 21.3466 103.342 21.1591 104.16 21.1591C104.978 21.1591 105.692 21.3466 106.302 21.7216C106.912 22.0966 107.385 22.6231 107.723 23.3011C108.06 23.9792 108.228 24.7708 108.228 25.6761C108.228 26.5777 108.06 27.3655 107.723 28.0398C107.385 28.714 106.912 29.2386 106.302 29.6136C105.692 29.9886 104.978 30.1761 104.16 30.1761ZM104.166 28.75C104.696 28.75 105.135 28.6098 105.484 28.3295C105.832 28.0492 106.09 27.6761 106.257 27.2102C106.427 26.7443 106.512 26.2311 106.512 25.6705C106.512 25.1136 106.427 24.6023 106.257 24.1364C106.09 23.6667 105.832 23.2898 105.484 23.0057C105.135 22.7216 104.696 22.5795 104.166 22.5795C103.632 22.5795 103.188 22.7216 102.836 23.0057C102.488 23.2898 102.228 23.6667 102.058 24.1364C101.891 24.6023 101.808 25.1136 101.808 25.6705C101.808 26.2311 101.891 26.7443 102.058 27.2102C102.228 27.6761 102.488 28.0492 102.836 28.3295C103.188 28.6098 103.632 28.75 104.166 28.75ZM112.143 18.3636V30H110.445V18.3636H112.143ZM118.016 30.1705C117.311 30.1705 116.683 29.9905 116.13 29.6307C115.58 29.267 115.149 28.75 114.834 28.0795C114.524 27.4053 114.368 26.5966 114.368 25.6534C114.368 24.7102 114.525 23.9034 114.84 23.233C115.158 22.5625 115.594 22.0492 116.147 21.6932C116.7 21.3371 117.327 21.1591 118.027 21.1591C118.569 21.1591 119.005 21.25 119.334 21.4318C119.667 21.6098 119.925 21.8182 120.107 22.0568C120.292 22.2955 120.436 22.5057 120.539 22.6875H120.641V18.3636H122.34V30H120.681V28.642H120.539C120.436 28.8277 120.289 29.0398 120.096 29.2784C119.906 29.517 119.645 29.7254 119.311 29.9034C118.978 30.0814 118.546 30.1705 118.016 30.1705ZM118.391 28.7216C118.88 28.7216 119.292 28.5928 119.63 28.3352C119.971 28.0739 120.228 27.7121 120.402 27.25C120.58 26.7879 120.669 26.25 120.669 25.6364C120.669 25.0303 120.582 24.5 120.408 24.0455C120.234 23.5909 119.978 23.2367 119.641 22.983C119.304 22.7292 118.887 22.6023 118.391 22.6023C117.88 22.6023 117.453 22.7348 117.113 23C116.772 23.2652 116.514 23.6269 116.34 24.0852C116.169 24.5436 116.084 25.0606 116.084 25.6364C116.084 26.2197 116.171 26.7443 116.346 27.2102C116.52 27.6761 116.777 28.0455 117.118 28.3182C117.463 28.5871 117.887 28.7216 118.391 28.7216ZM128.846 30.1761C127.986 30.1761 127.246 29.9924 126.624 29.625C126.007 29.2538 125.53 28.733 125.192 28.0625C124.859 27.3883 124.692 26.5985 124.692 25.6932C124.692 24.7992 124.859 24.0114 125.192 23.3295C125.53 22.6477 125.999 22.1155 126.602 21.733C127.208 21.3504 127.916 21.1591 128.727 21.1591C129.219 21.1591 129.696 21.2405 130.158 21.4034C130.621 21.5663 131.035 21.822 131.403 22.1705C131.77 22.5189 132.06 22.9716 132.272 23.5284C132.484 24.0814 132.59 24.7538 132.59 25.5455V26.1477H125.653V24.875H130.925C130.925 24.428 130.835 24.0322 130.653 23.6875C130.471 23.339 130.215 23.0644 129.886 22.8636C129.56 22.6629 129.177 22.5625 128.738 22.5625C128.261 22.5625 127.844 22.6799 127.488 22.9148C127.136 23.1458 126.863 23.4489 126.67 23.8239C126.48 24.1951 126.386 24.5985 126.386 25.0341V26.0284C126.386 26.6117 126.488 27.108 126.692 27.517C126.901 27.9261 127.191 28.2386 127.562 28.4545C127.933 28.6667 128.367 28.7727 128.863 28.7727C129.185 28.7727 129.478 28.7273 129.744 28.6364C130.009 28.5417 130.238 28.4015 130.431 28.2159C130.624 28.0303 130.772 27.8011 130.874 27.5284L132.482 27.8182C132.353 28.2917 132.122 28.7064 131.789 29.0625C131.46 29.4148 131.045 29.6894 130.545 29.8864C130.049 30.0795 129.482 30.1761 128.846 30.1761ZM134.795 30V21.2727H136.437V22.6591H136.528C136.687 22.1894 136.968 21.8201 137.369 21.5511C137.774 21.2784 138.233 21.142 138.744 21.142C138.85 21.142 138.975 21.1458 139.119 21.1534C139.267 21.161 139.382 21.1705 139.466 21.1818V22.8068C139.397 22.7879 139.276 22.767 139.102 22.7443C138.928 22.7178 138.754 22.7045 138.579 22.7045C138.178 22.7045 137.82 22.7898 137.505 22.9602C137.195 23.1269 136.949 23.3598 136.767 23.6591C136.585 23.9545 136.494 24.2917 136.494 24.6705V30H134.795Z" fill="#F3F4F6"/>
<path d="M178.562 19.875L177.989 29.6211C177.925 30.7113 177.022 31.5625 175.93 31.5625H166.07C164.978 31.5625 164.075 30.7113 164.011 29.6211L163.438 19.875M169.166 23.3125H172.833M163.094 19.875H178.906C179.476 19.875 179.938 19.4133 179.938 18.8438V17.4688C179.938 16.8992 179.476 16.4375 178.906 16.4375H163.094C162.524 16.4375 162.062 16.8992 162.062 17.4688V18.8438C162.062 19.4133 162.524 19.875 163.094 19.875Z" stroke="#F3F4F6" stroke-width="1.5" stroke-linecap="round" stroke-linejoin="round"/>
<path d="M184 1C191.18 1 197 6.8203 197 14V34C197 41.1797 191.18 47 184 47H14C6.8203 47 1 41.1797 1 34V14C1 6.8203 6.8203 1 14 1H184Z" stroke="#6A7282" stroke-width="2"/>
</svg>
