<svg width="48" height="48" viewBox="0 0 48 48" fill="none" xmlns="http://www.w3.org/2000/svg">
<rect width="48" height="48" rx="24" fill="black"/>
<path fill-rule="evenodd" clip-rule="evenodd" d="M31.66 22.9739C31.3112 23.0379 30.9576 23.0699 30.6024 23.0699C28.5372 23.0699 27.67 22.3014 26.892 21.6118C26.2588 21.0507 25.6846 20.5419 24.572 20.5419H23.6472C21.9448 20.5419 20.8264 21.7579 20.8264 23.3131V24.5803C20.8264 26.1371 21.9448 27.3531 23.6472 27.3531H24.572C25.6846 27.3531 26.2588 26.8439 26.892 26.2825C27.67 25.5925 28.5372 24.8235 30.6024 24.8235C30.689 24.8235 30.7752 24.8225 30.8615 24.8216C31.129 24.8186 31.3969 24.8157 31.6776 24.8411M31.6776 24.8411C32.4504 25.1035 33.3656 25.5131 33.8152 25.8427C34.428 26.2971 34.3096 26.8091 34.2168 27.1131C33.4584 29.5723 31.8424 31.6763 29.6648 33.0459C27.4872 34.4139 24.8888 34.9563 22.3448 34.5739C19.8008 34.1899 17.4792 32.9067 15.8008 30.9563C14.1224 29.0075 13.1992 26.5195 13.1992 23.9467C13.1992 21.3739 14.1224 18.8859 15.8008 16.9371C17.4792 14.9867 19.8008 13.7035 22.3448 13.3195C24.8888 12.9371 27.4872 13.4795 29.6648 14.8475C31.8424 16.2171 33.4584 18.3211 34.2168 20.7803C34.3096 21.0843 34.428 21.5963 33.8152 22.0507C33.1768 22.5179 32.4408 22.8331 31.6632 22.9739V22.9563H31.66C31.5928 22.5835 31.4888 22.2171 31.348 21.8651C32.0328 21.6619 32.7992 21.3739 33.1304 21.1339C33.1272 21.1291 33.124 21.1227 33.124 21.1179C32.4472 18.9243 31.0056 17.0475 29.0632 15.8267C27.1192 14.6059 24.8024 14.1243 22.5336 14.4667C20.2632 14.8091 18.1928 15.9531 16.6952 17.6939C15.1992 19.4331 14.3752 21.6523 14.3752 23.9467C14.3752 26.2411 15.1992 28.4603 16.6952 30.1995C18.1928 31.9403 20.2632 33.0843 22.5336 33.4267C24.8024 33.7691 27.1192 33.2875 29.0632 32.0667C31.0056 30.8459 32.4472 28.9691 33.124 26.7755C33.1272 26.7707 33.1304 26.7643 33.1304 26.7595C32.604 26.3771 31.9944 26.1259 31.3512 26.0267H31.3496C31.3494 26.0269 31.3492 26.0272 31.349 26.0274C31.4767 25.7066 31.6574 24.9278 31.6769 24.8437C31.6772 24.8425 31.6774 24.842 31.6776 24.8411C31.6776 24.8412 31.6776 24.8409 31.6776 24.8411Z" fill="white"/>
<path d="M31.348 26.0299C31.1032 25.9899 30.8536 25.9707 30.6056 25.9707C28.9823 25.9707 28.3681 26.5126 27.6639 27.134L27.6568 27.1403L27.6545 27.1423C26.9717 27.7467 26.1223 28.4987 24.5768 28.4987H23.652C22.5336 28.4987 21.5176 28.0923 20.7896 27.3563C20.0792 26.6363 19.6872 25.6507 19.6872 24.5819V23.3179C19.6872 22.2491 20.0792 21.2635 20.7896 20.5435C21.516 19.8075 22.5336 19.4011 23.652 19.4011H24.5768C26.124 19.4011 26.9736 20.1531 27.6568 20.7595L27.6573 20.7599C28.3643 21.3869 28.9755 21.9291 30.6056 21.9291C30.8552 21.9291 31.1032 21.9067 31.348 21.8667V21.8651L31.3416 21.8523C31.244 21.6107 31.1304 21.3739 30.9992 21.1483L29.9096 19.2603C29.4184 18.4107 28.7128 17.7035 27.8616 17.2123C27.0104 16.7211 26.0456 16.4619 25.0632 16.4619H22.8824C21.9 16.4619 20.9352 16.7211 20.084 17.2123C19.2344 17.7035 18.5272 18.4107 18.036 19.2603L16.9464 21.1483C16.4552 21.9995 16.196 22.9643 16.196 23.9467C16.196 24.9291 16.4552 25.8939 16.9464 26.7451L18.036 28.6331C18.5272 29.4827 19.2344 30.1899 20.084 30.6811C20.9352 31.1723 21.9 31.4315 22.8824 31.4315H25.0632C26.0456 31.4315 27.0104 31.1723 27.8616 30.6811C28.7128 30.1899 29.4184 29.4827 29.9096 28.6331L30.9992 26.7483C31.1304 26.5227 31.244 26.2859 31.3416 26.0443L31.348 26.0299Z" fill="white"/>
</svg>
