<svg width="40" height="40" viewBox="0 0 40 40" fill="none" xmlns="http://www.w3.org/2000/svg">
<path d="M36.9225 23.1067C36.1732 22.5573 34.6478 21.8747 33.3598 21.4373C33.4932 20.5973 33.5412 19.544 33.3358 18.3253H33.3305V18.296H33.3358V18.3253C34.6318 18.0907 35.8585 17.5653 36.9225 16.7867C37.9438 16.0293 37.7465 15.176 37.5918 14.6693C36.3278 10.5707 33.6345 7.06399 30.0052 4.78133C26.3758 2.50133 22.0452 1.59733 17.8052 2.23466C13.5652 2.87466 9.69583 5.01333 6.8985 8.26399C4.10117 11.512 2.5625 15.6587 2.5625 19.9467C2.5625 24.2347 4.10117 28.3813 6.8985 31.6293C9.69583 34.88 13.5652 37.0187 17.8052 37.6587C22.0452 38.296 26.3758 37.392 30.0052 35.112C33.6345 32.8293 36.3278 29.3227 37.5918 25.224C37.7465 24.7173 37.9438 23.864 36.9225 23.1067ZM35.7705 24.6613C34.6425 28.3173 32.2398 31.4453 29.0025 33.48C25.7625 35.5147 21.9012 36.3173 18.1198 35.7467C14.3358 35.176 10.8852 33.2693 8.38917 30.368C5.89583 27.4693 4.5225 23.7707 4.5225 19.9467C4.5225 16.1227 5.89583 12.424 8.38917 9.52533C10.8852 6.62399 14.3358 4.71733 18.1198 4.14666C21.9012 3.57599 25.7625 4.37866 29.0025 6.41333C32.2398 8.44799 34.6425 11.576 35.7705 15.232C35.7705 15.24 35.7758 15.2507 35.7812 15.2587C35.2292 15.6587 33.9518 16.1387 32.8105 16.4773L32.7998 16.456C32.6372 16.0533 32.4478 15.6587 32.2292 15.2827L30.4132 12.136C29.5945 10.72 28.4185 9.54133 26.9998 8.72266C25.5812 7.90399 23.9732 7.47199 22.3358 7.47199H18.7012C17.0638 7.47199 15.4558 7.90399 14.0372 8.72266C12.6212 9.54133 11.4425 10.72 10.6238 12.136L8.80783 15.2827C7.98917 16.7013 7.55717 18.3093 7.55717 19.9467C7.55717 21.584 7.98917 23.192 8.80783 24.6107L10.6238 27.7573C11.4425 29.1733 12.6212 30.352 14.0372 31.1707C15.4558 31.9893 17.0638 32.4213 18.7012 32.4213H22.3358C23.9732 32.4213 25.5812 31.9893 26.9998 31.1707C28.4185 30.352 29.5945 29.1733 30.4132 27.7573L32.2292 24.616C32.4478 24.24 32.6372 23.8453 32.7998 23.4427L32.8105 23.4187C32.8105 23.4187 32.8105 23.416 32.8132 23.4133H32.8158C33.8878 23.5787 34.9038 23.9973 35.7812 24.6347C35.7812 24.6427 35.7758 24.6533 35.7705 24.6613Z" fill="#006BFF"/>
<path d="M32.8106 16.48C32.4026 16.5467 31.9893 16.584 31.5733 16.584C28.856 16.584 27.8373 15.68 26.6586 14.6347C25.52 13.624 24.104 12.3707 21.5253 12.3707H19.984C18.12 12.3707 16.424 13.048 15.2133 14.2747C14.0293 15.4747 13.376 17.1173 13.376 18.8987V21.0053C13.376 22.7867 14.0293 24.4293 15.2133 25.6293C16.4266 26.856 18.12 27.5333 19.984 27.5333H21.5253C24.104 27.5333 25.52 26.2773 26.6586 25.2693C27.8373 24.2293 28.8586 23.32 31.5733 23.32C31.9866 23.32 32.4026 23.352 32.8106 23.4187C33.0453 22.832 33.3893 21.3067 33.36 21.4373C32.7413 21.3813 32.16 21.408 31.568 21.408C25.3253 21.408 25.6506 25.624 21.5173 25.624H19.976C17.1386 25.624 15.2746 23.5973 15.2746 21.0027V18.8907C15.2746 16.2987 17.1386 14.272 19.976 14.272H21.5173C25.6506 14.272 25.3253 18.4853 31.568 18.4853C32.16 18.4853 32.7493 18.432 33.3306 18.3253V18.296C33.2186 17.6747 33.0453 17.064 32.8106 16.4773V16.48Z" fill="#0AE8F0"/>
</svg>
