<svg width="40" height="40" viewBox="0 0 40 40" fill="none" xmlns="http://www.w3.org/2000/svg">
<path fill-rule="evenodd" clip-rule="evenodd" d="M32.768 18.2898C32.1866 18.3965 31.5973 18.4498 31.0053 18.4498C27.5634 18.4498 26.118 17.169 24.8212 16.0197C23.766 15.0845 22.809 14.2365 20.9547 14.2365H19.4133C16.576 14.2365 14.712 16.2631 14.712 18.8551V20.9671C14.712 23.5618 16.576 25.5885 19.4133 25.5885H20.9547C22.809 25.5885 23.766 24.7399 24.8212 23.8041C26.118 22.6541 27.5634 21.3725 31.0053 21.3725C31.1497 21.3725 31.2933 21.3709 31.4371 21.3693C31.883 21.3644 32.3295 21.3595 32.7973 21.4018M32.7973 21.4018C34.0853 21.8391 35.6107 22.5218 36.36 23.0711C37.3813 23.8285 37.184 24.6818 37.0294 25.1885C35.7653 29.2871 33.072 32.7938 29.4427 35.0765C25.8134 37.3565 21.4827 38.2605 17.2427 37.6231C13.0027 36.9831 9.13336 34.8445 6.336 31.5938C3.5387 28.3458 2 24.1991 2 19.9111C2 15.6231 3.5387 11.4765 6.336 8.22847C9.13336 4.9778 13.0027 2.83914 17.2427 2.19914C21.4827 1.5618 25.8134 2.4658 29.4427 4.7458C33.072 7.02847 35.7653 10.5351 37.0294 14.6338C37.184 15.1405 37.3813 15.9938 36.36 16.7511C35.296 17.5298 34.0693 18.0551 32.7733 18.2898V18.2605H32.768C32.6559 17.6391 32.4826 17.0285 32.248 16.4418C33.3893 16.1031 34.6667 15.6231 35.2187 15.2231C35.2133 15.2151 35.208 15.2045 35.208 15.1965C34.08 11.5405 31.6773 8.41247 28.44 6.37781C25.2 4.34314 21.3387 3.54047 17.5573 4.11113C13.7733 4.68181 10.3227 6.58847 7.82666 9.48981C5.33331 12.3885 3.96002 16.0871 3.96002 19.9111C3.96002 23.7351 5.33331 27.4338 7.82666 30.3325C10.3227 33.2338 13.7733 35.1405 17.5573 35.7111C21.3387 36.2818 25.2 35.4791 28.44 33.4445C31.6773 31.4098 34.08 28.2818 35.208 24.6258C35.2133 24.6178 35.2187 24.6071 35.2187 24.5991C34.3413 23.9618 33.3253 23.5431 32.2534 23.3778H32.2507C32.2503 23.3782 32.2499 23.3786 32.2496 23.379C32.4624 22.8443 32.7637 21.5463 32.7962 21.4062C32.7967 21.4042 32.7969 21.4033 32.7973 21.4018C32.7973 21.4021 32.7973 21.4015 32.7973 21.4018Z" fill="black"/>
<path d="M32.248 23.3831C31.84 23.3165 31.424 23.2845 31.0106 23.2845C28.3051 23.2845 27.2815 24.1877 26.1078 25.2233L26.0959 25.2338L26.0921 25.2372C24.9541 26.2446 23.5385 27.4978 20.9626 27.4978H19.4213C17.5573 27.4978 15.864 26.8205 14.6506 25.5938C13.4666 24.3938 12.8133 22.7511 12.8133 20.9698V18.8631C12.8133 17.0818 13.4666 15.4391 14.6506 14.2392C15.8613 13.0125 17.5573 12.3351 19.4213 12.3351H20.9626C23.5413 12.3351 24.9573 13.5885 26.0959 14.5992L26.0969 14.5999C27.2751 15.6449 28.2939 16.5485 31.0106 16.5485C31.4266 16.5485 31.84 16.5111 32.248 16.4445V16.4418L32.2373 16.4205C32.0746 16.0178 31.8853 15.6231 31.6667 15.2471L29.8506 12.1005C29.032 10.6845 27.856 9.5058 26.4373 8.68713C25.0187 7.86847 23.4106 7.43646 21.7733 7.43646H18.1387C16.5013 7.43646 14.8933 7.86847 13.4747 8.68713C12.0587 9.5058 10.88 10.6845 10.0613 12.1005L8.24536 15.2471C7.42664 16.6658 6.99469 18.2738 6.99469 19.9111C6.99469 21.5485 7.42664 23.1565 8.24536 24.5751L10.0613 27.7218C10.88 29.1378 12.0587 30.3165 13.4747 31.1351C14.8933 31.9538 16.5013 32.3858 18.1387 32.3858H21.7733C23.4106 32.3858 25.0187 31.9538 26.4373 31.1351C27.856 30.3165 29.032 29.1378 29.8506 27.7218L31.6667 24.5805C31.8853 24.2045 32.0746 23.8098 32.2373 23.4071L32.248 23.3831Z" fill="black"/>
</svg>
