<svg width="48" height="48" viewBox="0 0 48 48" fill="none" xmlns="http://www.w3.org/2000/svg">
<rect width="48" height="48" rx="24" fill="black"/>
<g clip-path="url(#clip0_56_1842)">
<path d="M31.9891 12H16.0109C14.9471 12 13.927 12.4226 13.1748 13.1748C12.4226 13.927 12 14.9471 12 16.0109V31.9891C12 33.0529 12.4226 34.073 13.1748 34.8252C13.927 35.5774 14.9471 36 16.0109 36H31.9891C32.5158 36.0001 33.0374 35.8964 33.5241 35.6948C34.0107 35.4933 34.4529 35.1979 34.8254 34.8254C35.1979 34.4529 35.4933 34.0107 35.6948 33.5241C35.8964 33.0374 36.0001 32.5158 36 31.9891V16.0109C36.0001 15.4841 35.8965 14.9625 35.695 14.4758C35.4935 13.9891 35.198 13.5469 34.8256 13.1744C34.4531 12.802 34.0109 12.5065 33.5242 12.305C33.0375 12.1035 32.5159 11.9999 31.9891 12ZM31.6368 30.3725C31.6366 30.708 31.5032 31.0297 31.266 31.2669C31.0287 31.5041 30.7069 31.6373 30.3714 31.6373H17.6313C17.4651 31.6374 17.3006 31.6047 17.147 31.5412C16.9935 31.4777 16.854 31.3845 16.7364 31.2671C16.6189 31.1496 16.5256 31.0102 16.4619 30.8567C16.3983 30.7032 16.3655 30.5387 16.3654 30.3725V17.6319C16.3654 17.4656 16.398 17.301 16.4616 17.1473C16.5252 16.9937 16.6185 16.8541 16.736 16.7366C16.8536 16.619 16.9932 16.5258 17.1468 16.4622C17.3004 16.3986 17.465 16.3659 17.6313 16.366H30.3709C30.5371 16.366 30.7017 16.3987 30.8552 16.4623C31.0088 16.526 31.1483 16.6192 31.2658 16.7368C31.3833 16.8543 31.4765 16.9939 31.5401 17.1475C31.6036 17.301 31.6363 17.4656 31.6362 17.6319V30.3725H31.6368Z" fill="white"/>
<path d="M21.453 27.273C21.2599 27.2724 21.0749 27.1952 20.9386 27.0582C20.8024 26.9213 20.7261 26.7358 20.7266 26.5427V21.4573C20.7266 21.0543 21.0516 20.727 21.453 20.727H26.546C26.9485 20.727 27.2725 21.0543 27.2725 21.4573V26.5427C27.2725 26.9452 26.9485 27.273 26.546 27.273H21.453Z" fill="white"/>
</g>
<defs>
<clipPath id="clip0_56_1842">
<rect width="24" height="24" fill="white" transform="translate(12 12)"/>
</clipPath>
</defs>
</svg>
