<svg width="40" height="40" viewBox="0 0 40 40" fill="none" xmlns="http://www.w3.org/2000/svg">
<g clip-path="url(#clip0_56_1709)">
<path d="M33.3152 2.47372e-07H6.68485C4.91192 2.47372e-07 3.2116 0.704295 1.95795 1.95795C0.704294 3.2116 0 4.91192 0 6.68485L0 33.3152C0 35.0881 0.704294 36.7884 1.95795 38.0421C3.2116 39.2957 4.91192 40 6.68485 40H33.3152C34.1931 40.0001 35.0624 39.8273 35.8735 39.4914C36.6846 39.1555 37.4216 38.6631 38.0423 38.0423C38.6631 37.4216 39.1555 36.6846 39.4914 35.8735C39.8273 35.0624 40.0001 34.1931 40 33.3152V6.68485C40.0002 5.80691 39.8275 4.93754 39.4916 4.12639C39.1558 3.31523 38.6634 2.57821 38.0426 1.95741C37.4218 1.33662 36.6848 0.844228 35.8736 0.508367C35.0625 0.172507 34.1931 -0.000238614 33.3152 2.47372e-07ZM32.7279 30.6209C32.7277 31.18 32.5054 31.7162 32.1099 32.1115C31.7145 32.5068 31.1782 32.7288 30.619 32.7288H9.38551C9.10857 32.729 8.83431 32.6745 8.5784 32.5687C8.32249 32.4628 8.08994 32.3076 7.89403 32.1118C7.69811 31.9161 7.54267 31.6836 7.43658 31.4278C7.33049 31.172 7.27582 30.8978 7.2757 30.6209V9.38642C7.27558 9.10932 7.33007 8.83492 7.43606 8.57889C7.54204 8.32286 7.69745 8.09023 7.89338 7.89429C8.08932 7.69836 8.32195 7.54295 8.57798 7.43697C8.83401 7.33098 9.10841 7.27649 9.38551 7.27661H30.6181C30.8951 7.27661 31.1695 7.33119 31.4254 7.43723C31.6813 7.54327 31.9138 7.69869 32.1097 7.89462C32.3055 8.09054 32.4608 8.32313 32.5668 8.5791C32.6727 8.83507 32.7271 9.1094 32.727 9.38642V30.6209H32.7279Z" fill="#2E3B4E"/>
<path d="M15.7557 25.455C15.4338 25.454 15.1254 25.3253 14.8984 25.097C14.6713 24.8688 14.5442 24.5597 14.5449 24.2378V15.7622C14.5449 15.0904 15.0867 14.545 15.7557 14.545H24.244C24.9149 14.545 25.4548 15.0904 25.4548 15.7622V24.2378C25.4548 24.9086 24.9149 25.455 24.244 25.455H15.7557Z" fill="#2E3B4E"/>
</g>
<defs>
<clipPath id="clip0_56_1709">
<rect width="40" height="40" fill="white"/>
</clipPath>
</defs>
</svg>
