<svg width="40" height="40" viewBox="0 0 40 40" fill="none" xmlns="http://www.w3.org/2000/svg">
<rect width="40" height="40" rx="20" fill="#2E3B4E"/>
<path d="M27.9891 8H12.0109C10.9471 8 9.92696 8.42258 9.17477 9.17477C8.42258 9.92696 8 10.9471 8 12.0109V27.9891C8 29.0529 8.42258 30.073 9.17477 30.8252C9.92696 31.5774 10.9471 32 12.0109 32H27.9891C28.5158 32.0001 29.0374 31.8964 29.5241 31.6948C30.0107 31.4933 30.4529 31.1979 30.8254 30.8254C31.1979 30.4529 31.4933 30.0107 31.6948 29.5241C31.8964 29.0374 32.0001 28.5158 32 27.9891V12.0109C32.0001 11.4841 31.8965 10.9625 31.695 10.4758C31.4935 9.98914 31.198 9.54692 30.8256 9.17445C30.4531 8.80197 30.0109 8.50654 29.5242 8.30502C29.0375 8.1035 28.5159 7.99986 27.9891 8ZM27.6368 26.3725C27.6366 26.708 27.5032 27.0297 27.266 27.2669C27.0287 27.5041 26.7069 27.6373 26.3714 27.6373H13.6313C13.4651 27.6374 13.3006 27.6047 13.147 27.5412C12.9935 27.4777 12.854 27.3845 12.7364 27.2671C12.6189 27.1496 12.5256 27.0102 12.4619 26.8567C12.3983 26.7032 12.3655 26.5387 12.3654 26.3725V13.6319C12.3653 13.4656 12.398 13.301 12.4616 13.1473C12.5252 12.9937 12.6185 12.8541 12.736 12.7366C12.8536 12.619 12.9932 12.5258 13.1468 12.4622C13.3004 12.3986 13.465 12.3659 13.6313 12.366H26.3709C26.5371 12.366 26.7017 12.3987 26.8552 12.4623C27.0088 12.526 27.1483 12.6192 27.2658 12.7368C27.3833 12.8543 27.4765 12.9939 27.5401 13.1475C27.6036 13.301 27.6363 13.4656 27.6362 13.6319V26.3725H27.6368Z" fill="white"/>
<path d="M17.6659 23C17.4888 22.9995 17.3192 22.9287 17.1944 22.8031C17.0695 22.6776 16.9996 22.5077 17 22.3306V17.6694C17 17.3 17.298 17 17.6659 17H22.3341C22.703 17 23 17.3 23 17.6694V22.3306C23 22.6995 22.703 23 22.3341 23H17.6659Z" fill="white"/>
</svg>
