<svg width="149" height="40" viewBox="0 0 149 40" fill="none" xmlns="http://www.w3.org/2000/svg">
<path d="M0 12C0 5.37258 5.37258 0 12 0H137C143.627 0 149 5.37258 149 12V28C149 34.6274 143.627 40 137 40H12C5.37258 40 0 34.6274 0 28V12Z" fill="#1C388F"/>
<path d="M28 12.5V27.5M35.5 20L20.5 20" stroke="#F9FAFB" stroke-width="2" stroke-linecap="round" stroke-linejoin="round"/>
<path d="M49.2784 26V14.3636H53.5398C54.3655 14.3636 55.0492 14.5 55.5909 14.7727C56.1326 15.0417 56.5379 15.4072 56.8068 15.8693C57.0758 16.3277 57.2102 16.8447 57.2102 17.4205C57.2102 17.9053 57.1212 18.3144 56.9432 18.6477C56.7652 18.9773 56.5265 19.2424 56.2273 19.4432C55.9318 19.6402 55.6061 19.7841 55.25 19.875V19.9886C55.6364 20.0076 56.0133 20.1326 56.3807 20.3636C56.7519 20.5909 57.0587 20.9148 57.3011 21.3352C57.5436 21.7557 57.6648 22.267 57.6648 22.8693C57.6648 23.464 57.5246 23.9981 57.2443 24.4716C56.9678 24.9413 56.5398 25.3144 55.9602 25.5909C55.3807 25.8636 54.6402 26 53.7386 26H49.2784ZM51.0341 24.4943H53.5682C54.4091 24.4943 55.0114 24.3314 55.375 24.0057C55.7386 23.6799 55.9205 23.2727 55.9205 22.7841C55.9205 22.4167 55.8277 22.0795 55.642 21.7727C55.4564 21.4659 55.1913 21.2216 54.8466 21.0398C54.5057 20.858 54.1004 20.767 53.6307 20.767H51.0341V24.4943ZM51.0341 19.3977H53.3864C53.7803 19.3977 54.1345 19.322 54.4489 19.1705C54.767 19.0189 55.0189 18.8068 55.2045 18.5341C55.3939 18.2576 55.4886 17.9318 55.4886 17.5568C55.4886 17.0758 55.3201 16.6723 54.983 16.3466C54.6458 16.0208 54.1288 15.858 53.4318 15.858H51.0341V19.3977ZM65.4592 22.3807V17.2727H67.1637V26H65.4933V24.4886H65.4024C65.2016 24.9545 64.8797 25.3428 64.4365 25.6534C63.9971 25.9602 63.4497 26.1136 62.7944 26.1136C62.2338 26.1136 61.7376 25.9905 61.3058 25.7443C60.8778 25.4943 60.5406 25.125 60.2944 24.6364C60.052 24.1477 59.9308 23.5436 59.9308 22.8239V17.2727H61.6297V22.6193C61.6297 23.214 61.7944 23.6875 62.124 24.0398C62.4535 24.392 62.8816 24.5682 63.4081 24.5682C63.7262 24.5682 64.0425 24.4886 64.3569 24.3295C64.6751 24.1705 64.9384 23.9299 65.1467 23.608C65.3588 23.286 65.463 22.8769 65.4592 22.3807ZM73.8403 17.2727V18.6364H69.0732V17.2727H73.8403ZM70.3516 15.1818H72.0505V23.4375C72.0505 23.767 72.0998 24.0152 72.1982 24.1818C72.2967 24.3447 72.4236 24.4564 72.5789 24.517C72.738 24.5739 72.9104 24.6023 73.096 24.6023C73.2323 24.6023 73.3516 24.5928 73.4539 24.5739C73.5562 24.5549 73.6357 24.5398 73.6926 24.5284L73.9994 25.9318C73.9009 25.9697 73.7607 26.0076 73.5789 26.0455C73.3971 26.0871 73.1698 26.1098 72.8971 26.1136C72.4501 26.1212 72.0335 26.0417 71.6471 25.875C71.2607 25.7083 70.9482 25.4508 70.7096 25.1023C70.471 24.7538 70.3516 24.3163 70.3516 23.7898V15.1818ZM80.1134 17.2727V18.6364H75.3464V17.2727H80.1134ZM76.6248 15.1818H78.3236V23.4375C78.3236 23.767 78.3729 24.0152 78.4714 24.1818C78.5698 24.3447 78.6967 24.4564 78.852 24.517C79.0111 24.5739 79.1835 24.6023 79.3691 24.6023C79.5055 24.6023 79.6248 24.5928 79.727 24.5739C79.8293 24.5549 79.9089 24.5398 79.9657 24.5284L80.2725 25.9318C80.174 25.9697 80.0339 26.0076 79.852 26.0455C79.6702 26.0871 79.443 26.1098 79.1702 26.1136C78.7233 26.1212 78.3066 26.0417 77.9202 25.875C77.5339 25.7083 77.2214 25.4508 76.9827 25.1023C76.7441 24.7538 76.6248 24.3163 76.6248 23.7898V15.1818ZM85.8951 26.1761C85.0769 26.1761 84.3629 25.9886 83.753 25.6136C83.1432 25.2386 82.6697 24.714 82.3326 24.0398C81.9954 23.3655 81.8269 22.5777 81.8269 21.6761C81.8269 20.7708 81.9954 19.9792 82.3326 19.3011C82.6697 18.6231 83.1432 18.0966 83.753 17.7216C84.3629 17.3466 85.0769 17.1591 85.8951 17.1591C86.7132 17.1591 87.4273 17.3466 88.0371 17.7216C88.6469 18.0966 89.1204 18.6231 89.4576 19.3011C89.7947 19.9792 89.9632 20.7708 89.9632 21.6761C89.9632 22.5777 89.7947 23.3655 89.4576 24.0398C89.1204 24.714 88.6469 25.2386 88.0371 25.6136C87.4273 25.9886 86.7132 26.1761 85.8951 26.1761ZM85.9007 24.75C86.431 24.75 86.8704 24.6098 87.2189 24.3295C87.5674 24.0492 87.825 23.6761 87.9916 23.2102C88.1621 22.7443 88.2473 22.2311 88.2473 21.6705C88.2473 21.1136 88.1621 20.6023 87.9916 20.1364C87.825 19.6667 87.5674 19.2898 87.2189 19.0057C86.8704 18.7216 86.431 18.5795 85.9007 18.5795C85.3666 18.5795 84.9235 18.7216 84.5712 19.0057C84.2227 19.2898 83.9632 19.6667 83.7928 20.1364C83.6261 20.6023 83.5428 21.1136 83.5428 21.6705C83.5428 22.2311 83.6261 22.7443 83.7928 23.2102C83.9632 23.6761 84.2227 24.0492 84.5712 24.3295C84.9235 24.6098 85.3666 24.75 85.9007 24.75ZM93.8784 20.8182V26H92.1795V17.2727H93.8102V18.6932H93.9182C94.1189 18.2311 94.4333 17.8598 94.8614 17.5795C95.2932 17.2992 95.8367 17.1591 96.492 17.1591C97.0867 17.1591 97.6076 17.2841 98.0545 17.5341C98.5015 17.7803 98.8481 18.1477 99.0943 18.6364C99.3405 19.125 99.4636 19.7292 99.4636 20.4489V26H97.7648V20.6534C97.7648 20.0208 97.6 19.5265 97.2705 19.1705C96.9409 18.8106 96.4883 18.6307 95.9125 18.6307C95.5186 18.6307 95.1682 18.7159 94.8614 18.8864C94.5583 19.0568 94.3178 19.3068 94.1398 19.6364C93.9655 19.9621 93.8784 20.3561 93.8784 20.8182Z" fill="#F9FAFB"/>
<path d="M121 12.5V27.5M128.5 20L113.5 20" stroke="#F9FAFB" stroke-width="2" stroke-linecap="round" stroke-linejoin="round"/>
</svg>
