<svg width="48" height="48" viewBox="0 0 48 48" fill="none" xmlns="http://www.w3.org/2000/svg">
<rect width="48" height="48" rx="24" fill="black"/>
<path d="M34.7992 24.1807C34.7992 22.7953 33.7363 21.6709 32.4266 21.6709C31.7813 21.6709 31.2119 21.9319 30.7943 22.3736C29.1809 21.1488 26.9412 20.3457 24.4737 20.2453L25.5556 14.8843L29.0671 15.6673C29.105 16.611 29.8453 17.374 30.7563 17.374C31.6864 17.374 32.4456 16.5709 32.4456 15.587C32.4456 14.6032 31.6864 13.8 30.7563 13.8C30.092 13.8 29.5226 14.2016 29.2569 14.8039L25.3279 13.9205C25.214 13.9004 25.1001 13.9205 25.0052 13.9807C24.9103 14.0409 24.8533 14.1413 24.8154 14.2618L23.6196 20.2453C21.0952 20.3256 18.8365 21.1087 17.2041 22.3736C16.7866 21.952 16.1982 21.6709 15.5718 21.6709C14.2621 21.6709 13.1992 22.7953 13.1992 24.1807C13.1992 25.2047 13.7686 26.0681 14.6038 26.4697C14.5658 26.7106 14.5468 26.9717 14.5468 27.2327C14.5468 31.0878 18.7795 34.2 24.0182 34.2C29.2569 34.2 33.4896 31.0878 33.4896 27.2327C33.4896 26.9717 33.4706 26.7307 33.4326 26.4898C34.2108 26.0882 34.7992 25.2047 34.7992 24.1807ZM18.5707 25.9677C18.5707 24.9839 19.33 24.1807 20.26 24.1807C21.1901 24.1807 21.9493 24.9839 21.9493 25.9677C21.9493 26.9516 21.1901 27.7547 20.26 27.7547C19.33 27.7547 18.5707 26.9516 18.5707 25.9677ZM28.0041 30.6862C26.8463 31.911 24.6446 31.9913 23.9992 31.9913C23.3539 31.9913 21.1331 31.8909 19.9943 30.6862C19.8235 30.5055 19.8235 30.2043 19.9943 30.0236C20.1651 29.8429 20.4498 29.8429 20.6207 30.0236C21.3419 30.7866 22.8983 31.0677 24.0182 31.0677C25.1381 31.0677 26.6755 30.7866 27.4157 30.0236C27.5866 29.8429 27.8713 29.8429 28.0421 30.0236C28.175 30.2244 28.175 30.5055 28.0041 30.6862ZM27.7004 27.7547C26.7704 27.7547 26.0112 26.9516 26.0112 25.9677C26.0112 24.9839 26.7704 24.1807 27.7004 24.1807C28.6305 24.1807 29.3897 24.9839 29.3897 25.9677C29.3897 26.9516 28.6305 27.7547 27.7004 27.7547Z" fill="white"/>
</svg>
