<svg width="40" height="40" viewBox="0 0 40 40" fill="none" xmlns="http://www.w3.org/2000/svg">
<g clip-path="url(#clip0_56_1806)">
<path d="M20 40C31.0457 40 40 31.0457 40 20C40 8.9543 31.0457 0 20 0C8.9543 0 0 8.9543 0 20C0 31.0457 8.9543 40 20 40Z" fill="black"/>
<path d="M33.3337 20C33.3337 18.386 32.0238 17.076 30.4098 17.076C29.6145 17.076 28.9127 17.3801 28.3981 17.8947C26.4098 16.4678 23.6495 15.5322 20.6086 15.4152L21.9419 9.1696L26.2694 10.0819C26.3162 11.1813 27.2285 12.0702 28.3513 12.0702C29.4975 12.0702 30.4332 11.1345 30.4332 9.98832C30.4332 8.84212 29.4975 7.90644 28.3513 7.90644C27.5326 7.90644 26.8308 8.37428 26.5033 9.07604L21.6612 8.0468C21.5209 8.02341 21.3805 8.0468 21.2636 8.11697C21.1466 8.18715 21.0764 8.30411 21.0297 8.44446L19.556 15.4152C16.4449 15.5088 13.6612 16.4211 11.6495 17.8947C11.1349 17.4035 10.4098 17.076 9.63784 17.076C8.02381 17.076 6.71387 18.386 6.71387 20C6.71387 21.193 7.41562 22.1988 8.44486 22.6667C8.39808 22.9474 8.37469 23.2515 8.37469 23.5556C8.37469 28.0468 13.5911 31.6725 20.0472 31.6725C26.5033 31.6725 31.7197 28.0468 31.7197 23.5556C31.7197 23.2515 31.6963 22.9708 31.6495 22.6901C32.6086 22.2222 33.3337 21.193 33.3337 20ZM13.3337 22.0819C13.3337 20.9357 14.2694 20 15.4156 20C16.5618 20 17.4975 20.9357 17.4975 22.0819C17.4975 23.2281 16.5618 24.1638 15.4156 24.1638C14.2694 24.1638 13.3337 23.2281 13.3337 22.0819ZM24.9595 27.579C23.5326 29.0059 20.8191 29.0994 20.0238 29.0994C19.2285 29.0994 16.4916 28.9825 15.0881 27.579C14.8776 27.3684 14.8776 27.0176 15.0881 26.807C15.2987 26.5965 15.6495 26.5965 15.8601 26.807C16.749 27.6959 18.6671 28.0234 20.0472 28.0234C21.4273 28.0234 23.3221 27.6959 24.2343 26.807C24.4449 26.5965 24.7957 26.5965 25.0063 26.807C25.17 27.0409 25.17 27.3684 24.9595 27.579ZM24.5852 24.1638C23.439 24.1638 22.5033 23.2281 22.5033 22.0819C22.5033 20.9357 23.439 20 24.5852 20C25.7314 20 26.6671 20.9357 26.6671 22.0819C26.6671 23.2281 25.7314 24.1638 24.5852 24.1638Z" fill="white"/>
</g>
<defs>
<clipPath id="clip0_56_1806">
<rect width="40" height="40" fill="white"/>
</clipPath>
</defs>
</svg>
