<svg width="341" height="38" viewBox="0 0 341 38" fill="none" xmlns="http://www.w3.org/2000/svg">
<path d="M0 4C0 1.79086 1.79086 0 4 0H337C339.209 0 341 1.79086 341 4V34C341 36.2091 339.209 38 337 38H4C1.79086 38 0 36.2091 0 34V4Z" fill="#11A5F4"/>
<path fill-rule="evenodd" clip-rule="evenodd" d="M5.875 19C5.875 14.5127 9.51269 10.875 14 10.875C18.4873 10.875 22.125 14.5127 22.125 19C22.125 23.4873 18.4873 27.125 14 27.125C9.51269 27.125 5.875 23.4873 5.875 19ZM13.1302 17.7987C14.0854 17.3211 15.1609 18.1839 14.9019 19.2199L14.3111 21.5833L14.3456 21.566C14.6544 21.4116 15.0298 21.5368 15.1842 21.8455C15.3385 22.1542 15.2134 22.5297 14.9046 22.684L14.8701 22.7013C13.9149 23.1789 12.8394 22.3162 13.0984 21.2801L13.6892 18.9167L13.6546 18.934C13.3459 19.0884 12.9705 18.9633 12.8161 18.6545C12.6618 18.3458 12.7869 17.9704 13.0956 17.816L13.1302 17.7987ZM14 16.5C14.3452 16.5 14.625 16.2202 14.625 15.875C14.625 15.5298 14.3452 15.25 14 15.25C13.6548 15.25 13.375 15.5298 13.375 15.875C13.375 16.2202 13.6548 16.5 14 16.5Z" fill="#030713"/>
<path d="M30.4659 14.3182V24.5H29.233V14.3182H30.4659ZM33.9522 19.9062V24.5H32.7789V16.8636H33.9125V18.0568H34.0119C34.1909 17.669 34.4627 17.3575 34.8272 17.1222C35.1918 16.8835 35.6625 16.7642 36.2392 16.7642C36.7562 16.7642 37.2086 16.8703 37.5964 17.0824C37.9842 17.2912 38.2858 17.6094 38.5012 18.0369C38.7167 18.4612 38.8244 18.9981 38.8244 19.6477V24.5H37.6511V19.7273C37.6511 19.1274 37.4953 18.66 37.1838 18.3253C36.8722 17.9872 36.4447 17.8182 35.9011 17.8182C35.5266 17.8182 35.1918 17.8994 34.8968 18.0618C34.6052 18.2242 34.3748 18.4612 34.2058 18.7727C34.0368 19.0843 33.9522 19.4621 33.9522 19.9062ZM46.3775 18.5739L45.3235 18.8722C45.2572 18.6965 45.1594 18.5258 45.0302 18.3601C44.9042 18.1911 44.7319 18.0518 44.5131 17.9425C44.2944 17.8331 44.0143 17.7784 43.6729 17.7784C43.2056 17.7784 42.8162 17.8861 42.5046 18.1016C42.1964 18.3137 42.0423 18.5838 42.0423 18.9119C42.0423 19.2036 42.1483 19.4339 42.3604 19.603C42.5726 19.772 42.904 19.9129 43.3548 20.0256L44.4883 20.304C45.171 20.4697 45.6798 20.7232 46.0146 21.0646C46.3493 21.4027 46.5167 21.8385 46.5167 22.3722C46.5167 22.8097 46.3907 23.2008 46.1388 23.5455C45.8903 23.8902 45.5423 24.1619 45.0948 24.3608C44.6474 24.5597 44.127 24.6591 43.5337 24.6591C42.7549 24.6591 42.1102 24.4901 41.5998 24.152C41.0894 23.8139 40.7662 23.3201 40.6303 22.6705L41.744 22.392C41.85 22.803 42.0505 23.1113 42.3455 23.3168C42.6438 23.5223 43.0333 23.625 43.5138 23.625C44.0607 23.625 44.4949 23.509 44.8164 23.277C45.1412 23.0417 45.3036 22.7599 45.3036 22.4318C45.3036 22.1667 45.2108 21.9446 45.0252 21.7656C44.8396 21.5833 44.5546 21.4474 44.1701 21.358L42.8974 21.0597C42.198 20.8939 41.6843 20.6371 41.3562 20.2891C41.0314 19.9377 40.869 19.4986 40.869 18.9716C40.869 18.5407 40.9899 18.1596 41.2319 17.8281C41.4772 17.4967 41.8103 17.2365 42.2312 17.0476C42.6554 16.8587 43.136 16.7642 43.6729 16.7642C44.4286 16.7642 45.0219 16.9299 45.4528 17.2614C45.887 17.5928 46.1952 18.0303 46.3775 18.5739ZM51.4846 24.6591C50.7488 24.6591 50.1141 24.4967 49.5804 24.1719C49.0501 23.8438 48.6408 23.3864 48.3525 22.7997C48.0674 22.2098 47.9249 21.5237 47.9249 20.7415C47.9249 19.9593 48.0674 19.2699 48.3525 18.6733C48.6408 18.0734 49.0418 17.6061 49.5556 17.2713C50.0726 16.9332 50.6758 16.7642 51.3652 16.7642C51.763 16.7642 52.1557 16.8305 52.5435 16.9631C52.9313 17.0956 53.2843 17.3111 53.6025 17.6094C53.9206 17.9044 54.1742 18.2955 54.3631 18.7827C54.552 19.2699 54.6465 19.8698 54.6465 20.5824V21.0795H48.7601V20.0653H53.4533C53.4533 19.6345 53.3671 19.25 53.1948 18.9119C53.0257 18.5739 52.7838 18.3071 52.4689 18.1115C52.1574 17.916 51.7895 17.8182 51.3652 17.8182C50.8979 17.8182 50.4935 17.9342 50.1522 18.1662C49.8141 18.3949 49.5539 18.6932 49.3716 19.0611C49.1893 19.429 49.0982 19.8234 49.0982 20.2443V20.9205C49.0982 21.4972 49.1976 21.986 49.3965 22.3871C49.5987 22.7848 49.8787 23.0881 50.2367 23.2969C50.5946 23.5024 51.0106 23.6051 51.4846 23.6051C51.7928 23.6051 52.0712 23.562 52.3198 23.4759C52.5717 23.3864 52.7888 23.2538 52.9711 23.0781C53.1534 22.8991 53.2942 22.6771 53.3936 22.4119L54.5272 22.7301C54.4078 23.1146 54.2073 23.4527 53.9256 23.7443C53.6439 24.0327 53.2959 24.258 52.8816 24.4205C52.4673 24.5795 52.0016 24.6591 51.4846 24.6591ZM56.4313 24.5V16.8636H57.5648V18.017H57.6444C57.7836 17.6392 58.0355 17.3326 58.4 17.0973C58.7646 16.862 59.1756 16.7443 59.633 16.7443C59.7192 16.7443 59.8269 16.746 59.9561 16.7493C60.0854 16.7526 60.1832 16.7576 60.2495 16.7642V17.9574C60.2097 17.9474 60.1185 17.9325 59.976 17.9126C59.8368 17.8894 59.6893 17.8778 59.5336 17.8778C59.1623 17.8778 58.8309 17.9557 58.5392 18.1115C58.2509 18.264 58.0222 18.4761 57.8532 18.7479C57.6874 19.0163 57.6046 19.3229 57.6046 19.6676V24.5H56.4313ZM65.4398 16.8636V17.858H61.4824V16.8636H65.4398ZM62.6358 15.0341H63.8091V22.3125C63.8091 22.6439 63.8572 22.8925 63.9533 23.0582C64.0527 23.2206 64.1787 23.33 64.3311 23.3864C64.4869 23.4394 64.651 23.4659 64.8233 23.4659C64.9526 23.4659 65.0587 23.4593 65.1415 23.446C65.2244 23.4295 65.2907 23.4162 65.3404 23.4062L65.579 24.4602C65.4995 24.4901 65.3884 24.5199 65.2459 24.5497C65.1034 24.5829 64.9228 24.5994 64.704 24.5994C64.3726 24.5994 64.0478 24.5282 63.7296 24.3857C63.4147 24.2431 63.1529 24.026 62.9441 23.7344C62.7386 23.4427 62.6358 23.0748 62.6358 22.6307V15.0341ZM71.8979 27.3636C71.699 27.3636 71.5217 27.3471 71.3659 27.3139C71.2102 27.2841 71.1025 27.2543 71.0428 27.2244L71.3411 26.1903C71.6261 26.2633 71.878 26.2898 72.0968 26.2699C72.3155 26.25 72.5094 26.1522 72.6784 25.9766C72.8508 25.8042 73.0082 25.5241 73.1507 25.1364L73.3695 24.5398L70.5456 16.8636H71.8184L73.9263 22.9489H74.0059L76.1138 16.8636H77.3865L74.1451 25.6136C73.9992 26.008 73.8186 26.3345 73.6032 26.593C73.3877 26.8549 73.1375 27.0488 72.8525 27.1747C72.5707 27.3007 72.2525 27.3636 71.8979 27.3636ZM81.764 24.6591C81.0746 24.6591 80.4698 24.495 79.9494 24.1669C79.4324 23.8388 79.028 23.3797 78.7363 22.7898C78.448 22.1998 78.3038 21.5104 78.3038 20.7216C78.3038 19.9261 78.448 19.2318 78.7363 18.6385C79.028 18.0452 79.4324 17.5845 79.9494 17.2564C80.4698 16.9283 81.0746 16.7642 81.764 16.7642C82.4534 16.7642 83.0566 16.9283 83.5737 17.2564C84.094 17.5845 84.4984 18.0452 84.7868 18.6385C85.0784 19.2318 85.2243 19.9261 85.2243 20.7216C85.2243 21.5104 85.0784 22.1998 84.7868 22.7898C84.4984 23.3797 84.094 23.8388 83.5737 24.1669C83.0566 24.495 82.4534 24.6591 81.764 24.6591ZM81.764 23.6051C82.2877 23.6051 82.7186 23.4709 83.0566 23.2024C83.3947 22.9339 83.6449 22.581 83.8074 22.1435C83.9698 21.706 84.051 21.232 84.051 20.7216C84.051 20.2112 83.9698 19.7356 83.8074 19.2947C83.6449 18.8539 83.3947 18.4976 83.0566 18.2259C82.7186 17.9541 82.2877 17.8182 81.764 17.8182C81.2404 17.8182 80.8095 17.9541 80.4714 18.2259C80.1333 18.4976 79.8831 18.8539 79.7207 19.2947C79.5583 19.7356 79.4771 20.2112 79.4771 20.7216C79.4771 21.232 79.5583 21.706 79.7207 22.1435C79.8831 22.581 80.1333 22.9339 80.4714 23.2024C80.8095 23.4709 81.2404 23.6051 81.764 23.6051ZM91.8278 21.3778V16.8636H93.0011V24.5H91.8278V23.2074H91.7482C91.5692 23.5952 91.2908 23.925 90.913 24.1967C90.5352 24.4652 90.0579 24.5994 89.4812 24.5994C89.0039 24.5994 88.5797 24.495 88.2085 24.2862C87.8372 24.0741 87.5456 23.7559 87.3335 23.3317C87.1213 22.9041 87.0153 22.3655 87.0153 21.7159V16.8636H88.1886V21.6364C88.1886 22.1932 88.3443 22.6373 88.6559 22.9688C88.9708 23.3002 89.3718 23.4659 89.859 23.4659C90.1507 23.4659 90.4473 23.3913 90.7489 23.2422C91.0539 23.093 91.3091 22.8643 91.5146 22.5561C91.7234 22.2479 91.8278 21.8551 91.8278 21.3778ZM95.15 24.5V16.8636H96.2836V18.017H96.3631C96.5023 17.6392 96.7542 17.3326 97.1188 17.0973C97.4834 16.862 97.8944 16.7443 98.3517 16.7443C98.4379 16.7443 98.5456 16.746 98.6749 16.7493C98.8042 16.7526 98.9019 16.7576 98.9682 16.7642V17.9574C98.9284 17.9474 98.8373 17.9325 98.6948 17.9126C98.5556 17.8894 98.4081 17.8778 98.2523 17.8778C97.8811 17.8778 97.5497 17.9557 97.258 18.1115C96.9696 18.264 96.7409 18.4761 96.5719 18.7479C96.4062 19.0163 96.3233 19.3229 96.3233 19.6676V24.5H95.15ZM106.544 24.679C106.06 24.679 105.621 24.5878 105.226 24.4055C104.832 24.2199 104.519 23.9531 104.287 23.6051C104.055 23.2538 103.939 22.8295 103.939 22.3324C103.939 21.8949 104.025 21.5402 104.197 21.2685C104.369 20.9934 104.6 20.7779 104.888 20.6222C105.176 20.4664 105.495 20.3504 105.843 20.2741C106.194 20.1946 106.547 20.1316 106.902 20.0852C107.366 20.0256 107.742 19.9808 108.03 19.951C108.322 19.9179 108.534 19.8632 108.667 19.7869C108.802 19.7107 108.87 19.5781 108.87 19.3892V19.3494C108.87 18.8589 108.736 18.4777 108.468 18.206C108.203 17.9342 107.8 17.7983 107.26 17.7983C106.699 17.7983 106.26 17.9209 105.942 18.1662C105.624 18.4115 105.4 18.6733 105.271 18.9517L104.157 18.554C104.356 18.09 104.621 17.7287 104.953 17.4702C105.288 17.2083 105.652 17.026 106.047 16.9233C106.444 16.8172 106.835 16.7642 107.22 16.7642C107.465 16.7642 107.747 16.794 108.065 16.8537C108.386 16.91 108.696 17.0277 108.995 17.2067C109.296 17.3857 109.547 17.6558 109.745 18.017C109.944 18.3783 110.044 18.8622 110.044 19.4688V24.5H108.87V23.4659H108.811C108.731 23.6316 108.599 23.8089 108.413 23.9979C108.227 24.1868 107.98 24.3475 107.672 24.4801C107.364 24.6127 106.988 24.679 106.544 24.679ZM106.723 23.625C107.187 23.625 107.578 23.5339 107.896 23.3516C108.217 23.1693 108.459 22.9339 108.622 22.6456C108.788 22.3572 108.87 22.054 108.87 21.7358V20.6619C108.821 20.7216 108.711 20.7763 108.542 20.826C108.377 20.8724 108.184 20.9138 107.966 20.9503C107.75 20.9834 107.54 21.0133 107.334 21.0398C107.132 21.063 106.968 21.0829 106.842 21.0994C106.537 21.1392 106.252 21.2038 105.987 21.2933C105.725 21.3795 105.513 21.5104 105.35 21.6861C105.191 21.8584 105.112 22.0937 105.112 22.392C105.112 22.7997 105.263 23.108 105.564 23.3168C105.869 23.5223 106.255 23.625 106.723 23.625ZM113.358 14.3182V24.5H112.185V14.3182H113.358ZM118.709 24.6591C117.973 24.6591 117.339 24.4967 116.805 24.1719C116.275 23.8438 115.865 23.3864 115.577 22.7997C115.292 22.2098 115.15 21.5237 115.15 20.7415C115.15 19.9593 115.292 19.2699 115.577 18.6733C115.865 18.0734 116.266 17.6061 116.78 17.2713C117.297 16.9332 117.9 16.7642 118.59 16.7642C118.988 16.7642 119.38 16.8305 119.768 16.9631C120.156 17.0956 120.509 17.3111 120.827 17.6094C121.145 17.9044 121.399 18.2955 121.588 18.7827C121.777 19.2699 121.871 19.8698 121.871 20.5824V21.0795H115.985V20.0653H120.678C120.678 19.6345 120.592 19.25 120.419 18.9119C120.25 18.5739 120.008 18.3071 119.694 18.1115C119.382 17.916 119.014 17.8182 118.59 17.8182C118.123 17.8182 117.718 17.9342 117.377 18.1662C117.039 18.3949 116.779 18.6932 116.596 19.0611C116.414 19.429 116.323 19.8234 116.323 20.2443V20.9205C116.323 21.4972 116.422 21.986 116.621 22.3871C116.823 22.7848 117.103 23.0881 117.461 23.2969C117.819 23.5024 118.235 23.6051 118.709 23.6051C119.017 23.6051 119.296 23.562 119.544 23.4759C119.796 23.3864 120.013 23.2538 120.196 23.0781C120.378 22.8991 120.519 22.6771 120.618 22.4119L121.752 22.7301C121.632 23.1146 121.432 23.4527 121.15 23.7443C120.868 24.0327 120.52 24.258 120.106 24.4205C119.692 24.5795 119.226 24.6591 118.709 24.6591ZM123.656 24.5V16.8636H124.789V18.017H124.869C125.008 17.6392 125.26 17.3326 125.625 17.0973C125.989 16.862 126.4 16.7443 126.858 16.7443C126.944 16.7443 127.051 16.746 127.181 16.7493C127.31 16.7526 127.408 16.7576 127.474 16.7642V17.9574C127.434 17.9474 127.343 17.9325 127.201 17.9126C127.061 17.8894 126.914 17.8778 126.758 17.8778C126.387 17.8778 126.056 17.9557 125.764 18.1115C125.475 18.264 125.247 18.4761 125.078 18.7479C124.912 19.0163 124.829 19.3229 124.829 19.6676V24.5H123.656ZM132.664 16.8636V17.858H128.707V16.8636H132.664ZM129.86 15.0341H131.034V22.3125C131.034 22.6439 131.082 22.8925 131.178 23.0582C131.277 23.2206 131.403 23.33 131.556 23.3864C131.712 23.4394 131.876 23.4659 132.048 23.4659C132.177 23.4659 132.283 23.4593 132.366 23.446C132.449 23.4295 132.515 23.4162 132.565 23.4062L132.804 24.4602C132.724 24.4901 132.613 24.5199 132.471 24.5497C132.328 24.5829 132.147 24.5994 131.929 24.5994C131.597 24.5994 131.272 24.5282 130.954 24.3857C130.639 24.2431 130.377 24.026 130.169 23.7344C129.963 23.4427 129.86 23.0748 129.86 22.6307V15.0341ZM141.688 16.8636V17.858H137.73V16.8636H141.688ZM138.884 15.0341H140.057V22.3125C140.057 22.6439 140.105 22.8925 140.201 23.0582C140.301 23.2206 140.427 23.33 140.579 23.3864C140.735 23.4394 140.899 23.4659 141.071 23.4659C141.201 23.4659 141.307 23.4593 141.39 23.446C141.472 23.4295 141.539 23.4162 141.588 23.4062L141.827 24.4602C141.748 24.4901 141.636 24.5199 141.494 24.5497C141.351 24.5829 141.171 24.5994 140.952 24.5994C140.621 24.5994 140.296 24.5282 139.978 24.3857C139.663 24.2431 139.401 24.026 139.192 23.7344C138.987 23.4427 138.884 23.0748 138.884 22.6307V15.0341ZM143.453 24.5V16.8636H144.626V24.5H143.453ZM144.049 15.5909C143.821 15.5909 143.623 15.513 143.458 15.3572C143.295 15.2015 143.214 15.0142 143.214 14.7955C143.214 14.5767 143.295 14.3894 143.458 14.2337C143.623 14.0779 143.821 14 144.049 14C144.278 14 144.474 14.0779 144.636 14.2337C144.802 14.3894 144.885 14.5767 144.885 14.7955C144.885 15.0142 144.802 15.2015 144.636 15.3572C144.474 15.513 144.278 15.5909 144.049 15.5909ZM150.096 16.8636V17.858H146.139V16.8636H150.096ZM147.292 15.0341H148.465V22.3125C148.465 22.6439 148.513 22.8925 148.61 23.0582C148.709 23.2206 148.835 23.33 148.987 23.3864C149.143 23.4394 149.307 23.4659 149.48 23.4659C149.609 23.4659 149.715 23.4593 149.798 23.446C149.881 23.4295 149.947 23.4162 149.997 23.4062L150.235 24.4602C150.156 24.4901 150.045 24.5199 149.902 24.5497C149.76 24.5829 149.579 24.5994 149.36 24.5994C149.029 24.5994 148.704 24.5282 148.386 24.3857C148.071 24.2431 147.809 24.026 147.6 23.7344C147.395 23.4427 147.292 23.0748 147.292 22.6307V15.0341ZM153.198 14.3182V24.5H152.025V14.3182H153.198ZM158.549 24.6591C157.813 24.6591 157.179 24.4967 156.645 24.1719C156.115 23.8438 155.705 23.3864 155.417 22.7997C155.132 22.2098 154.989 21.5237 154.989 20.7415C154.989 19.9593 155.132 19.2699 155.417 18.6733C155.705 18.0734 156.106 17.6061 156.62 17.2713C157.137 16.9332 157.74 16.7642 158.43 16.7642C158.827 16.7642 159.22 16.8305 159.608 16.9631C159.996 17.0956 160.349 17.3111 160.667 17.6094C160.985 17.9044 161.239 18.2955 161.428 18.7827C161.616 19.2699 161.711 19.8698 161.711 20.5824V21.0795H155.825V20.0653H160.518C160.518 19.6345 160.432 19.25 160.259 18.9119C160.09 18.5739 159.848 18.3071 159.533 18.1115C159.222 17.916 158.854 17.8182 158.43 17.8182C157.962 17.8182 157.558 17.9342 157.217 18.1662C156.879 18.3949 156.618 18.6932 156.436 19.0611C156.254 19.429 156.163 19.8234 156.163 20.2443V20.9205C156.163 21.4972 156.262 21.986 156.461 22.3871C156.663 22.7848 156.943 23.0881 157.301 23.2969C157.659 23.5024 158.075 23.6051 158.549 23.6051C158.857 23.6051 159.136 23.562 159.384 23.4759C159.636 23.3864 159.853 23.2538 160.036 23.0781C160.218 22.8991 160.359 22.6771 160.458 22.4119L161.592 22.7301C161.472 23.1146 161.272 23.4527 160.99 23.7443C160.708 24.0327 160.36 24.258 159.946 24.4205C159.532 24.5795 159.066 24.6591 158.549 24.6591ZM168.607 19.9062V24.5H167.433V14.3182H168.607V18.0568H168.706C168.885 17.6624 169.153 17.3492 169.511 17.1172C169.873 16.8819 170.353 16.7642 170.953 16.7642C171.473 16.7642 171.929 16.8686 172.32 17.0774C172.711 17.2829 173.015 17.5994 173.23 18.027C173.449 18.4512 173.558 18.9915 173.558 19.6477V24.5H172.385V19.7273C172.385 19.1207 172.228 18.6518 171.913 18.3203C171.601 17.9856 171.169 17.8182 170.615 17.8182C170.231 17.8182 169.886 17.8994 169.581 18.0618C169.279 18.2242 169.041 18.4612 168.865 18.7727C168.693 19.0843 168.607 19.4621 168.607 19.9062ZM178.906 24.6591C178.171 24.6591 177.536 24.4967 177.002 24.1719C176.472 23.8438 176.063 23.3864 175.774 22.7997C175.489 22.2098 175.347 21.5237 175.347 20.7415C175.347 19.9593 175.489 19.2699 175.774 18.6733C176.063 18.0734 176.464 17.6061 176.977 17.2713C177.494 16.9332 178.098 16.7642 178.787 16.7642C179.185 16.7642 179.578 16.8305 179.965 16.9631C180.353 17.0956 180.706 17.3111 181.024 17.6094C181.343 17.9044 181.596 18.2955 181.785 18.7827C181.974 19.2699 182.068 19.8698 182.068 20.5824V21.0795H176.182V20.0653H180.875C180.875 19.6345 180.789 19.25 180.617 18.9119C180.448 18.5739 180.206 18.3071 179.891 18.1115C179.579 17.916 179.211 17.8182 178.787 17.8182C178.32 17.8182 177.915 17.9342 177.574 18.1662C177.236 18.3949 176.976 18.6932 176.794 19.0611C176.611 19.429 176.52 19.8234 176.52 20.2443V20.9205C176.52 21.4972 176.619 21.986 176.818 22.3871C177.021 22.7848 177.301 23.0881 177.659 23.2969C178.017 23.5024 178.432 23.6051 178.906 23.6051C179.215 23.6051 179.493 23.562 179.742 23.4759C179.994 23.3864 180.211 23.2538 180.393 23.0781C180.575 22.8991 180.716 22.6771 180.816 22.4119L181.949 22.7301C181.83 23.1146 181.629 23.4527 181.347 23.7443C181.066 24.0327 180.718 24.258 180.303 24.4205C179.889 24.5795 179.423 24.6591 178.906 24.6591ZM183.853 24.5V16.8636H184.987V18.017H185.066C185.205 17.6392 185.457 17.3326 185.822 17.0973C186.186 16.862 186.597 16.7443 187.055 16.7443C187.141 16.7443 187.249 16.746 187.378 16.7493C187.507 16.7526 187.605 16.7576 187.671 16.7642V17.9574C187.632 17.9474 187.54 17.9325 187.398 17.9126C187.259 17.8894 187.111 17.8778 186.955 17.8778C186.584 17.8778 186.253 17.9557 185.961 18.1115C185.673 18.264 185.444 18.4761 185.275 18.7479C185.109 19.0163 185.026 19.3229 185.026 19.6676V24.5H183.853ZM192.031 24.6591C191.296 24.6591 190.661 24.4967 190.127 24.1719C189.597 23.8438 189.188 23.3864 188.899 22.7997C188.614 22.2098 188.472 21.5237 188.472 20.7415C188.472 19.9593 188.614 19.2699 188.899 18.6733C189.188 18.0734 189.589 17.6061 190.102 17.2713C190.619 16.9332 191.223 16.7642 191.912 16.7642C192.31 16.7642 192.703 16.8305 193.09 16.9631C193.478 17.0956 193.831 17.3111 194.149 17.6094C194.468 17.9044 194.721 18.2955 194.91 18.7827C195.099 19.2699 195.193 19.8698 195.193 20.5824V21.0795H189.307V20.0653H194C194 19.6345 193.914 19.25 193.742 18.9119C193.573 18.5739 193.331 18.3071 193.016 18.1115C192.704 17.916 192.336 17.8182 191.912 17.8182C191.445 17.8182 191.04 17.9342 190.699 18.1662C190.361 18.3949 190.101 18.6932 189.919 19.0611C189.736 19.429 189.645 19.8234 189.645 20.2443V20.9205C189.645 21.4972 189.744 21.986 189.943 22.3871C190.146 22.7848 190.426 23.0881 190.784 23.2969C191.142 23.5024 191.557 23.6051 192.031 23.6051C192.34 23.6051 192.618 23.562 192.867 23.4759C193.119 23.3864 193.336 23.2538 193.518 23.0781C193.7 22.8991 193.841 22.6771 193.941 22.4119L195.074 22.7301C194.955 23.1146 194.754 23.4527 194.472 23.7443C194.191 24.0327 193.843 24.258 193.428 24.4205C193.014 24.5795 192.548 24.6591 192.031 24.6591ZM198.529 14.3182L198.43 21.6364H197.276L197.177 14.3182H198.529ZM197.853 24.5795C197.608 24.5795 197.397 24.4917 197.222 24.3161C197.046 24.1404 196.958 23.9299 196.958 23.6847C196.958 23.4394 197.046 23.2289 197.222 23.0533C197.397 22.8776 197.608 22.7898 197.853 22.7898C198.098 22.7898 198.309 22.8776 198.485 23.0533C198.66 23.2289 198.748 23.4394 198.748 23.6847C198.748 23.8471 198.707 23.9962 198.624 24.1321C198.544 24.268 198.436 24.3774 198.301 24.4602C198.168 24.5398 198.019 24.5795 197.853 24.5795Z" fill="#030713"/>
<path d="M220.761 13.3636H222.523V21.017C222.523 21.8314 222.331 22.553 221.949 23.1818C221.566 23.8068 221.028 24.2992 220.335 24.6591C219.642 25.0152 218.83 25.1932 217.898 25.1932C216.97 25.1932 216.159 25.0152 215.466 24.6591C214.773 24.2992 214.235 23.8068 213.852 23.1818C213.47 22.553 213.278 21.8314 213.278 21.017V13.3636H215.034V20.875C215.034 21.4015 215.15 21.8693 215.381 22.2784C215.616 22.6875 215.947 23.0095 216.375 23.2443C216.803 23.4754 217.311 23.5909 217.898 23.5909C218.489 23.5909 218.998 23.4754 219.426 23.2443C219.858 23.0095 220.188 22.6875 220.415 22.2784C220.646 21.8693 220.761 21.4015 220.761 20.875V13.3636ZM225.259 28.2727V16.2727H226.918V17.6875H227.06C227.159 17.5057 227.301 17.2955 227.486 17.0568C227.672 16.8182 227.929 16.6098 228.259 16.4318C228.588 16.25 229.024 16.1591 229.566 16.1591C230.27 16.1591 230.899 16.3371 231.452 16.6932C232.005 17.0492 232.439 17.5625 232.753 18.233C233.071 18.9034 233.231 19.7102 233.231 20.6534C233.231 21.5966 233.073 22.4053 232.759 23.0795C232.445 23.75 232.013 24.267 231.463 24.6307C230.914 24.9905 230.287 25.1705 229.583 25.1705C229.052 25.1705 228.619 25.0814 228.282 24.9034C227.948 24.7254 227.687 24.517 227.498 24.2784C227.308 24.0398 227.162 23.8277 227.06 23.642H226.958V28.2727H225.259ZM226.924 20.6364C226.924 21.25 227.013 21.7879 227.191 22.25C227.369 22.7121 227.626 23.0739 227.963 23.3352C228.301 23.5928 228.713 23.7216 229.202 23.7216C229.71 23.7216 230.134 23.5871 230.475 23.3182C230.816 23.0455 231.073 22.6761 231.248 22.2102C231.426 21.7443 231.515 21.2197 231.515 20.6364C231.515 20.0606 231.427 19.5436 231.253 19.0852C231.083 18.6269 230.825 18.2652 230.481 18C230.14 17.7348 229.713 17.6023 229.202 17.6023C228.71 17.6023 228.293 17.7292 227.952 17.983C227.615 18.2367 227.359 18.5909 227.185 19.0455C227.011 19.5 226.924 20.0303 226.924 20.6364ZM239.113 28.4545C238.42 28.4545 237.823 28.3636 237.323 28.1818C236.827 28 236.422 27.7595 236.107 27.4602C235.793 27.161 235.558 26.8333 235.403 26.4773L236.863 25.875C236.965 26.0417 237.102 26.2178 237.272 26.4034C237.446 26.5928 237.681 26.7538 237.977 26.8864C238.276 27.0189 238.66 27.0852 239.13 27.0852C239.774 27.0852 240.306 26.928 240.727 26.6136C241.147 26.303 241.357 25.8068 241.357 25.125V23.4091H241.249C241.147 23.5947 240.999 23.8011 240.806 24.0284C240.617 24.2557 240.355 24.4527 240.022 24.6193C239.689 24.786 239.255 24.8693 238.721 24.8693C238.032 24.8693 237.41 24.7083 236.857 24.3864C236.308 24.0606 235.872 23.5814 235.551 22.9489C235.232 22.3125 235.073 21.5303 235.073 20.6023C235.073 19.6742 235.23 18.8788 235.545 18.2159C235.863 17.553 236.299 17.0455 236.852 16.6932C237.405 16.3371 238.032 16.1591 238.732 16.1591C239.274 16.1591 239.711 16.25 240.045 16.4318C240.378 16.6098 240.638 16.8182 240.823 17.0568C241.013 17.2955 241.158 17.5057 241.261 17.6875H241.386V16.2727H243.051V25.1932C243.051 25.9432 242.876 26.5587 242.528 27.0398C242.179 27.5208 241.708 27.8769 241.113 28.108C240.522 28.339 239.855 28.4545 239.113 28.4545ZM239.096 23.4602C239.585 23.4602 239.997 23.3466 240.335 23.1193C240.676 22.8883 240.933 22.5587 241.107 22.1307C241.285 21.6989 241.374 21.1818 241.374 20.5795C241.374 19.9924 241.287 19.4754 241.113 19.0284C240.939 18.5814 240.683 18.233 240.346 17.983C240.009 17.7292 239.592 17.6023 239.096 17.6023C238.585 17.6023 238.158 17.7348 237.818 18C237.477 18.2614 237.219 18.6174 237.045 19.0682C236.874 19.5189 236.789 20.0227 236.789 20.5795C236.789 21.1515 236.876 21.6534 237.051 22.0852C237.225 22.517 237.482 22.8542 237.823 23.0966C238.168 23.339 238.592 23.4602 239.096 23.4602ZM245.649 25V16.2727H247.291V17.6591H247.382C247.541 17.1894 247.821 16.8201 248.223 16.5511C248.628 16.2784 249.086 16.142 249.598 16.142C249.704 16.142 249.829 16.1458 249.973 16.1534C250.121 16.161 250.236 16.1705 250.319 16.1818V17.8068C250.251 17.7879 250.13 17.767 249.956 17.7443C249.781 17.7178 249.607 17.7045 249.433 17.7045C249.031 17.7045 248.674 17.7898 248.359 17.9602C248.049 18.1269 247.802 18.3598 247.621 18.6591C247.439 18.9545 247.348 19.2917 247.348 19.6705V25H245.649ZM254.571 25.1932C254.018 25.1932 253.518 25.0909 253.071 24.8864C252.624 24.678 252.27 24.3769 252.009 23.983C251.751 23.589 251.622 23.1061 251.622 22.5341C251.622 22.0417 251.717 21.6364 251.906 21.3182C252.096 21 252.351 20.7481 252.673 20.5625C252.995 20.3769 253.355 20.2367 253.753 20.142C254.151 20.0473 254.556 19.9754 254.969 19.9261C255.492 19.8655 255.916 19.8163 256.242 19.7784C256.567 19.7367 256.804 19.6705 256.952 19.5795C257.1 19.4886 257.173 19.3409 257.173 19.1364V19.0966C257.173 18.6004 257.033 18.2159 256.753 17.9432C256.476 17.6705 256.064 17.5341 255.514 17.5341C254.942 17.5341 254.492 17.661 254.162 17.9148C253.836 18.1648 253.611 18.4432 253.486 18.75L251.889 18.3864C252.079 17.8561 252.355 17.428 252.719 17.1023C253.086 16.7727 253.509 16.5341 253.986 16.3864C254.463 16.2348 254.965 16.1591 255.492 16.1591C255.84 16.1591 256.209 16.2008 256.6 16.2841C256.994 16.3636 257.361 16.5114 257.702 16.7273C258.047 16.9432 258.329 17.2519 258.548 17.6534C258.768 18.0511 258.878 18.5682 258.878 19.2045V25H257.219V23.8068H257.151C257.041 24.0265 256.876 24.2424 256.656 24.4545C256.437 24.6667 256.155 24.8428 255.81 24.983C255.465 25.1231 255.052 25.1932 254.571 25.1932ZM254.941 23.8295C255.41 23.8295 255.812 23.7367 256.145 23.5511C256.482 23.3655 256.738 23.1231 256.912 22.8239C257.09 22.5208 257.179 22.197 257.179 21.8523V20.7273C257.119 20.7879 257.001 20.8447 256.827 20.8977C256.656 20.947 256.461 20.9905 256.242 21.0284C256.022 21.0625 255.808 21.0947 255.6 21.125C255.391 21.1515 255.217 21.1742 255.077 21.1932C254.747 21.2348 254.446 21.3049 254.173 21.4034C253.905 21.5019 253.689 21.6439 253.526 21.8295C253.367 22.0114 253.287 22.2538 253.287 22.5568C253.287 22.9773 253.442 23.2955 253.753 23.5114C254.064 23.7235 254.459 23.8295 254.941 23.8295ZM264.728 25.1705C264.023 25.1705 263.395 24.9905 262.841 24.6307C262.292 24.267 261.86 23.75 261.546 23.0795C261.235 22.4053 261.08 21.5966 261.08 20.6534C261.08 19.7102 261.237 18.9034 261.552 18.233C261.87 17.5625 262.305 17.0492 262.859 16.6932C263.412 16.3371 264.038 16.1591 264.739 16.1591C265.281 16.1591 265.716 16.25 266.046 16.4318C266.379 16.6098 266.637 16.8182 266.819 17.0568C267.004 17.2955 267.148 17.5057 267.251 17.6875H267.353V13.3636H269.052V25H267.393V23.642H267.251C267.148 23.8277 267.001 24.0398 266.807 24.2784C266.618 24.517 266.357 24.7254 266.023 24.9034C265.69 25.0814 265.258 25.1705 264.728 25.1705ZM265.103 23.7216C265.591 23.7216 266.004 23.5928 266.341 23.3352C266.682 23.0739 266.94 22.7121 267.114 22.25C267.292 21.7879 267.381 21.25 267.381 20.6364C267.381 20.0303 267.294 19.5 267.12 19.0455C266.946 18.5909 266.69 18.2367 266.353 17.983C266.016 17.7292 265.599 17.6023 265.103 17.6023C264.591 17.6023 264.165 17.7348 263.824 18C263.484 18.2652 263.226 18.6269 263.052 19.0852C262.881 19.5436 262.796 20.0606 262.796 20.6364C262.796 21.2197 262.883 21.7443 263.057 22.2102C263.232 22.6761 263.489 23.0455 263.83 23.3182C264.175 23.5871 264.599 23.7216 265.103 23.7216ZM275.558 25.1761C274.698 25.1761 273.957 24.9924 273.336 24.625C272.719 24.2538 272.241 23.733 271.904 23.0625C271.571 22.3883 271.404 21.5985 271.404 20.6932C271.404 19.7992 271.571 19.0114 271.904 18.3295C272.241 17.6477 272.711 17.1155 273.313 16.733C273.92 16.3504 274.628 16.1591 275.438 16.1591C275.931 16.1591 276.408 16.2405 276.87 16.4034C277.332 16.5663 277.747 16.822 278.115 17.1705C278.482 17.5189 278.772 17.9716 278.984 18.5284C279.196 19.0814 279.302 19.7538 279.302 20.5455V21.1477H272.365V19.875H277.637C277.637 19.428 277.546 19.0322 277.365 18.6875C277.183 18.339 276.927 18.0644 276.598 17.8636C276.272 17.6629 275.889 17.5625 275.45 17.5625C274.973 17.5625 274.556 17.6799 274.2 17.9148C273.848 18.1458 273.575 18.4489 273.382 18.8239C273.192 19.1951 273.098 19.5985 273.098 20.0341V21.0284C273.098 21.6117 273.2 22.108 273.404 22.517C273.613 22.9261 273.902 23.2386 274.274 23.4545C274.645 23.6667 275.079 23.7727 275.575 23.7727C275.897 23.7727 276.19 23.7273 276.456 23.6364C276.721 23.5417 276.95 23.4015 277.143 23.2159C277.336 23.0303 277.484 22.8011 277.586 22.5284L279.194 22.8182C279.065 23.2917 278.834 23.7064 278.501 24.0625C278.171 24.4148 277.757 24.6894 277.257 24.8864C276.76 25.0795 276.194 25.1761 275.558 25.1761Z" fill="#030713"/>
<path d="M212 29H280.052V30.0909H212V29Z" fill="#030713"/>
<path fill-rule="evenodd" clip-rule="evenodd" d="M301.058 11.0581C301.302 10.814 301.698 10.814 301.942 11.0581L306.942 16.0581C307.186 16.3021 307.186 16.6979 306.942 16.9419L301.942 21.9419C301.698 22.186 301.302 22.186 301.058 21.9419C300.814 21.6979 300.814 21.3021 301.058 21.0581L304.991 17.125H296.5C294.084 17.125 292.125 19.0838 292.125 21.5C292.125 23.9162 294.084 25.875 296.5 25.875H299C299.345 25.875 299.625 26.1548 299.625 26.5C299.625 26.8452 299.345 27.125 299 27.125H296.5C293.393 27.125 290.875 24.6066 290.875 21.5C290.875 18.3934 293.393 15.875 296.5 15.875H304.991L301.058 11.9419C300.814 11.6979 300.814 11.3021 301.058 11.0581Z" fill="#030713"/>
<path fill-rule="evenodd" clip-rule="evenodd" d="M321.558 13.5581C321.802 13.314 322.198 13.314 322.442 13.5581L327 18.1161L331.558 13.5581C331.802 13.314 332.198 13.314 332.442 13.5581C332.686 13.8021 332.686 14.1979 332.442 14.4419L327.884 19L332.442 23.5581C332.686 23.8021 332.686 24.1979 332.442 24.4419C332.198 24.686 331.802 24.686 331.558 24.4419L327 19.8839L322.442 24.4419C322.198 24.686 321.802 24.686 321.558 24.4419C321.314 24.1979 321.314 23.8021 321.558 23.5581L326.116 19L321.558 14.4419C321.314 14.1979 321.314 13.8021 321.558 13.5581Z" fill="#030713"/>
</svg>
