<svg width="192" height="42" viewBox="0 0 192 42" fill="none" xmlns="http://www.w3.org/2000/svg">
<mask id="path-1-outside-1_67_2840" maskUnits="userSpaceOnUse" x="0" y="0" width="192" height="42" fill="black">
<rect fill="white" width="192" height="42"/>
<path d="M1 13C1 6.37258 6.37258 1 13 1H179C185.627 1 191 6.37258 191 13V29C191 35.6274 185.627 41 179 41H13C6.37259 41 1 35.6274 1 29V13Z"/>
</mask>
<path d="M1 13C1 6.37258 6.37258 1 13 1H179C185.627 1 191 6.37258 191 13V29C191 35.6274 185.627 41 179 41H13C6.37259 41 1 35.6274 1 29V13Z" fill="#022C22"/>
<path d="M13 1V2H179V1V0H13V1ZM191 13H190V29H191H192V13H191ZM179 41V40H13V41V42H179V41ZM1 29H2V13H1H0V29H1ZM13 41V40C6.92487 40 2 35.0751 2 29H1H0C0 36.1797 5.8203 42 13 42V41ZM191 29H190C190 35.0751 185.075 40 179 40V41V42C186.18 42 192 36.1797 192 29H191ZM179 1V2C185.075 2 190 6.92487 190 13H191H192C192 5.8203 186.18 0 179 0V1ZM13 1V0C5.8203 0 0 5.8203 0 13H1H2C2 6.92487 6.92487 2 13 2V1Z" fill="#1ABC7D" mask="url(#path-1-outside-1_67_2840)"/>
<path d="M24 14.125V27.875M30.875 21L17.125 21" stroke="#1FD491" stroke-width="1.5" stroke-linecap="round" stroke-linejoin="round"/>
<path d="M44.2784 27V15.3636H48.4261C49.3314 15.3636 50.0814 15.5284 50.6761 15.858C51.2708 16.1875 51.7159 16.6383 52.0114 17.2102C52.3068 17.7784 52.4545 18.4186 52.4545 19.1307C52.4545 19.8466 52.3049 20.4905 52.0057 21.0625C51.7102 21.6307 51.2633 22.0814 50.6648 22.4148C50.0701 22.7443 49.322 22.9091 48.4205 22.9091H45.5682V21.4205H48.2614C48.8333 21.4205 49.2973 21.322 49.6534 21.125C50.0095 20.9242 50.2708 20.6515 50.4375 20.3068C50.6042 19.9621 50.6875 19.5701 50.6875 19.1307C50.6875 18.6913 50.6042 18.3011 50.4375 17.9602C50.2708 17.6193 50.0076 17.3523 49.6477 17.1591C49.2917 16.9659 48.822 16.8693 48.2386 16.8693H46.0341V27H44.2784ZM56.3953 15.3636V27H54.6964V15.3636H56.3953ZM61.5406 27.1932C60.9875 27.1932 60.4875 27.0909 60.0406 26.8864C59.5936 26.678 59.2394 26.3769 58.9781 25.983C58.7205 25.589 58.5917 25.1061 58.5917 24.5341C58.5917 24.0417 58.6864 23.6364 58.8758 23.3182C59.0652 23 59.3209 22.7481 59.6428 22.5625C59.9648 22.3769 60.3247 22.2367 60.7224 22.142C61.1201 22.0473 61.5254 21.9754 61.9383 21.9261C62.461 21.8655 62.8853 21.8163 63.211 21.7784C63.5368 21.7367 63.7735 21.6705 63.9213 21.5795C64.069 21.4886 64.1428 21.3409 64.1428 21.1364V21.0966C64.1428 20.6004 64.0027 20.2159 63.7224 19.9432C63.4459 19.6705 63.033 19.5341 62.4838 19.5341C61.9118 19.5341 61.461 19.661 61.1315 19.9148C60.8057 20.1648 60.5803 20.4432 60.4553 20.75L58.8588 20.3864C59.0481 19.8561 59.3247 19.428 59.6883 19.1023C60.0557 18.7727 60.4781 18.5341 60.9553 18.3864C61.4326 18.2348 61.9345 18.1591 62.461 18.1591C62.8095 18.1591 63.1788 18.2008 63.569 18.2841C63.9629 18.3636 64.3303 18.5114 64.6713 18.7273C65.0159 18.9432 65.2981 19.2519 65.5178 19.6534C65.7375 20.0511 65.8474 20.5682 65.8474 21.2045V27H64.1883V25.8068H64.1201C64.0103 26.0265 63.8455 26.2424 63.6258 26.4545C63.4061 26.6667 63.1239 26.8428 62.7792 26.983C62.4345 27.1231 62.0216 27.1932 61.5406 27.1932ZM61.9099 25.8295C62.3796 25.8295 62.7811 25.7367 63.1144 25.5511C63.4516 25.3655 63.7072 25.1231 63.8815 24.8239C64.0595 24.5208 64.1485 24.197 64.1485 23.8523V22.7273C64.0879 22.7879 63.9705 22.8447 63.7963 22.8977C63.6258 22.947 63.4307 22.9905 63.211 23.0284C62.9913 23.0625 62.7773 23.0947 62.569 23.125C62.3606 23.1515 62.1864 23.1742 62.0463 23.1932C61.7167 23.2348 61.4156 23.3049 61.1428 23.4034C60.8739 23.5019 60.658 23.6439 60.4951 23.8295C60.336 24.0114 60.2565 24.2538 60.2565 24.5568C60.2565 24.9773 60.4118 25.2955 60.7224 25.5114C61.033 25.7235 61.4288 25.8295 61.9099 25.8295ZM72.1063 27.1761C71.2616 27.1761 70.5343 26.9848 69.9245 26.6023C69.3184 26.2159 68.8525 25.6837 68.5268 25.0057C68.201 24.3277 68.0381 23.5511 68.0381 22.6761C68.0381 21.7898 68.2048 21.0076 68.5381 20.3295C68.8715 19.6477 69.3412 19.1155 69.9472 18.733C70.5533 18.3504 71.2673 18.1591 72.0893 18.1591C72.7521 18.1591 73.343 18.2822 73.862 18.5284C74.3809 18.7708 74.7995 19.1117 75.1177 19.5511C75.4396 19.9905 75.6309 20.5038 75.6915 21.0909H74.0381C73.9472 20.6818 73.7389 20.3295 73.4131 20.0341C73.0912 19.7386 72.6593 19.5909 72.1177 19.5909C71.6442 19.5909 71.2294 19.7159 70.8734 19.9659C70.5211 20.2121 70.2465 20.5644 70.0495 21.0227C69.8525 21.4773 69.754 22.0152 69.754 22.6364C69.754 23.2727 69.8506 23.822 70.0438 24.2841C70.237 24.7462 70.5097 25.1042 70.862 25.358C71.218 25.6117 71.6366 25.7386 72.1177 25.7386C72.4396 25.7386 72.7313 25.6799 72.9927 25.5625C73.2578 25.4413 73.4794 25.2689 73.6574 25.0455C73.8393 24.822 73.9662 24.553 74.0381 24.2386H75.6915C75.6309 24.803 75.4472 25.3068 75.1404 25.75C74.8336 26.1932 74.4226 26.5417 73.9074 26.7955C73.3961 27.0492 72.7957 27.1761 72.1063 27.1761ZM81.5897 27.1761C80.7298 27.1761 79.9893 26.9924 79.3681 26.625C78.7506 26.2538 78.2734 25.733 77.9362 25.0625C77.6029 24.3883 77.4362 23.5985 77.4362 22.6932C77.4362 21.7992 77.6029 21.0114 77.9362 20.3295C78.2734 19.6477 78.7431 19.1155 79.3453 18.733C79.9514 18.3504 80.6597 18.1591 81.4703 18.1591C81.9628 18.1591 82.44 18.2405 82.9022 18.4034C83.3643 18.5663 83.7791 18.822 84.1465 19.1705C84.5139 19.5189 84.8037 19.9716 85.0158 20.5284C85.2279 21.0814 85.334 21.7538 85.334 22.5455V23.1477H78.3965V21.875H83.6692C83.6692 21.428 83.5783 21.0322 83.3965 20.6875C83.2147 20.339 82.959 20.0644 82.6294 19.8636C82.3037 19.6629 81.9211 19.5625 81.4817 19.5625C81.0044 19.5625 80.5878 19.6799 80.2317 19.9148C79.8794 20.1458 79.6067 20.4489 79.4135 20.8239C79.2241 21.1951 79.1294 21.5985 79.1294 22.0341V23.0284C79.1294 23.6117 79.2317 24.108 79.4362 24.517C79.6446 24.9261 79.9344 25.2386 80.3056 25.4545C80.6768 25.6667 81.1105 25.7727 81.6067 25.7727C81.9287 25.7727 82.2222 25.7273 82.4874 25.6364C82.7525 25.5417 82.9817 25.4015 83.1749 25.2159C83.3681 25.0303 83.5158 24.8011 83.6181 24.5284L85.226 24.8182C85.0972 25.2917 84.8662 25.7064 84.5328 26.0625C84.2033 26.4148 83.7885 26.6894 83.2885 26.8864C82.7923 27.0795 82.226 27.1761 81.5897 27.1761ZM89.2378 21.8182V27H87.5389V15.3636H89.2151V19.6932H89.323C89.5276 19.2235 89.8401 18.8504 90.2605 18.5739C90.681 18.2973 91.2302 18.1591 91.9082 18.1591C92.5067 18.1591 93.0294 18.2822 93.4764 18.5284C93.9272 18.7746 94.2757 19.142 94.5219 19.6307C94.7719 20.1155 94.8969 20.7216 94.8969 21.4489V27H93.198V21.6534C93.198 21.0133 93.0332 20.517 92.7037 20.1648C92.3741 19.8087 91.9158 19.6307 91.3287 19.6307C90.9272 19.6307 90.5673 19.7159 90.2491 19.8864C89.9348 20.0568 89.6866 20.3068 89.5048 20.6364C89.3268 20.9621 89.2378 21.3561 89.2378 21.8182ZM101.16 27.1761C100.342 27.1761 99.6279 26.9886 99.018 26.6136C98.4082 26.2386 97.9347 25.714 97.5976 25.0398C97.2604 24.3655 97.0919 23.5777 97.0919 22.6761C97.0919 21.7708 97.2604 20.9792 97.5976 20.3011C97.9347 19.6231 98.4082 19.0966 99.018 18.7216C99.6279 18.3466 100.342 18.1591 101.16 18.1591C101.978 18.1591 102.692 18.3466 103.302 18.7216C103.912 19.0966 104.385 19.6231 104.723 20.3011C105.06 20.9792 105.228 21.7708 105.228 22.6761C105.228 23.5777 105.06 24.3655 104.723 25.0398C104.385 25.714 103.912 26.2386 103.302 26.6136C102.692 26.9886 101.978 27.1761 101.16 27.1761ZM101.166 25.75C101.696 25.75 102.135 25.6098 102.484 25.3295C102.832 25.0492 103.09 24.6761 103.257 24.2102C103.427 23.7443 103.512 23.2311 103.512 22.6705C103.512 22.1136 103.427 21.6023 103.257 21.1364C103.09 20.6667 102.832 20.2898 102.484 20.0057C102.135 19.7216 101.696 19.5795 101.166 19.5795C100.632 19.5795 100.188 19.7216 99.8362 20.0057C99.4877 20.2898 99.2282 20.6667 99.0578 21.1364C98.8911 21.6023 98.8078 22.1136 98.8078 22.6705C98.8078 23.2311 98.8911 23.7443 99.0578 24.2102C99.2282 24.6761 99.4877 25.0492 99.8362 25.3295C100.188 25.6098 100.632 25.75 101.166 25.75ZM109.143 15.3636V27H107.445V15.3636H109.143ZM115.016 27.1705C114.311 27.1705 113.683 26.9905 113.13 26.6307C112.58 26.267 112.149 25.75 111.834 25.0795C111.524 24.4053 111.368 23.5966 111.368 22.6534C111.368 21.7102 111.525 20.9034 111.84 20.233C112.158 19.5625 112.594 19.0492 113.147 18.6932C113.7 18.3371 114.327 18.1591 115.027 18.1591C115.569 18.1591 116.005 18.25 116.334 18.4318C116.667 18.6098 116.925 18.8182 117.107 19.0568C117.292 19.2955 117.436 19.5057 117.539 19.6875H117.641V15.3636H119.34V27H117.681V25.642H117.539C117.436 25.8277 117.289 26.0398 117.096 26.2784C116.906 26.517 116.645 26.7254 116.311 26.9034C115.978 27.0814 115.546 27.1705 115.016 27.1705ZM115.391 25.7216C115.88 25.7216 116.292 25.5928 116.63 25.3352C116.971 25.0739 117.228 24.7121 117.402 24.25C117.58 23.7879 117.669 23.25 117.669 22.6364C117.669 22.0303 117.582 21.5 117.408 21.0455C117.234 20.5909 116.978 20.2367 116.641 19.983C116.304 19.7292 115.887 19.6023 115.391 19.6023C114.88 19.6023 114.453 19.7348 114.113 20C113.772 20.2652 113.514 20.6269 113.34 21.0852C113.169 21.5436 113.084 22.0606 113.084 22.6364C113.084 23.2197 113.171 23.7443 113.346 24.2102C113.52 24.6761 113.777 25.0455 114.118 25.3182C114.463 25.5871 114.887 25.7216 115.391 25.7216ZM125.846 27.1761C124.986 27.1761 124.246 26.9924 123.624 26.625C123.007 26.2538 122.53 25.733 122.192 25.0625C121.859 24.3883 121.692 23.5985 121.692 22.6932C121.692 21.7992 121.859 21.0114 122.192 20.3295C122.53 19.6477 122.999 19.1155 123.602 18.733C124.208 18.3504 124.916 18.1591 125.727 18.1591C126.219 18.1591 126.696 18.2405 127.158 18.4034C127.621 18.5663 128.035 18.822 128.403 19.1705C128.77 19.5189 129.06 19.9716 129.272 20.5284C129.484 21.0814 129.59 21.7538 129.59 22.5455V23.1477H122.653V21.875H127.925C127.925 21.428 127.835 21.0322 127.653 20.6875C127.471 20.339 127.215 20.0644 126.886 19.8636C126.56 19.6629 126.177 19.5625 125.738 19.5625C125.261 19.5625 124.844 19.6799 124.488 19.9148C124.136 20.1458 123.863 20.4489 123.67 20.8239C123.48 21.1951 123.386 21.5985 123.386 22.0341V23.0284C123.386 23.6117 123.488 24.108 123.692 24.517C123.901 24.9261 124.191 25.2386 124.562 25.4545C124.933 25.6667 125.367 25.7727 125.863 25.7727C126.185 25.7727 126.478 25.7273 126.744 25.6364C127.009 25.5417 127.238 25.4015 127.431 25.2159C127.624 25.0303 127.772 24.8011 127.874 24.5284L129.482 24.8182C129.353 25.2917 129.122 25.7064 128.789 26.0625C128.46 26.4148 128.045 26.6894 127.545 26.8864C127.049 27.0795 126.482 27.1761 125.846 27.1761ZM131.795 27V18.2727H133.437V19.6591H133.528C133.687 19.1894 133.968 18.8201 134.369 18.5511C134.774 18.2784 135.233 18.142 135.744 18.142C135.85 18.142 135.975 18.1458 136.119 18.1534C136.267 18.161 136.382 18.1705 136.466 18.1818V19.8068C136.397 19.7879 136.276 19.767 136.102 19.7443C135.928 19.7178 135.754 19.7045 135.579 19.7045C135.178 19.7045 134.82 19.7898 134.505 19.9602C134.195 20.1269 133.949 20.3598 133.767 20.6591C133.585 20.9545 133.494 21.2917 133.494 21.6705V27H131.795Z" fill="#F3F4F6"/>
<path d="M168 14.125V27.875M174.875 21L161.125 21" stroke="#1FD491" stroke-width="1.5" stroke-linecap="round" stroke-linejoin="round"/>
</svg>
