<svg width="312" height="166" viewBox="0 0 312 166" fill="none" xmlns="http://www.w3.org/2000/svg">
<path d="M0 4C0 1.79086 1.79086 0 4 0H308C310.209 0 312 1.79086 312 4V162C312 164.209 310.209 166 308 166H3.99999C1.79085 166 0 164.209 0 162V4Z" fill="#FB2C36"/>
<path fill-rule="evenodd" clip-rule="evenodd" d="M17.875 26C17.875 21.5127 21.5127 17.875 26 17.875C30.4873 17.875 34.125 21.5127 34.125 26C34.125 30.4873 30.4873 34.125 26 34.125C21.5127 34.125 17.875 30.4873 17.875 26ZM25.1302 24.7987C26.0854 24.3211 27.1609 25.1839 26.9019 26.2199L26.3111 28.5833L26.3456 28.566C26.6544 28.4116 27.0298 28.5368 27.1842 28.8455C27.3385 29.1542 27.2134 29.5297 26.9046 29.684L26.8701 29.7013C25.9149 30.1789 24.8394 29.3162 25.0984 28.2801L25.6892 25.9167L25.6546 25.934C25.3459 26.0884 24.9705 25.9633 24.8161 25.6545C24.6618 25.3458 24.7869 24.9704 25.0956 24.816L25.1302 24.7987ZM26 23.5C26.3452 23.5 26.625 23.2202 26.625 22.875C26.625 22.5298 26.3452 22.25 26 22.25C25.6548 22.25 25.375 22.5298 25.375 22.875C25.375 23.2202 25.6548 23.5 26 23.5Z" fill="#030713"/>
<path d="M179.761 22.3636H181.523V30.017C181.523 30.8314 181.331 31.553 180.949 32.1818C180.566 32.8068 180.028 33.2992 179.335 33.6591C178.642 34.0152 177.83 34.1932 176.898 34.1932C175.97 34.1932 175.159 34.0152 174.466 33.6591C173.773 33.2992 173.235 32.8068 172.852 32.1818C172.47 31.553 172.278 30.8314 172.278 30.017V22.3636H174.034V29.875C174.034 30.4015 174.15 30.8693 174.381 31.2784C174.616 31.6875 174.947 32.0095 175.375 32.2443C175.803 32.4754 176.311 32.5909 176.898 32.5909C177.489 32.5909 177.998 32.4754 178.426 32.2443C178.858 32.0095 179.188 31.6875 179.415 31.2784C179.646 30.8693 179.761 30.4015 179.761 29.875V22.3636ZM184.259 37.2727V25.2727H185.918V26.6875H186.06C186.159 26.5057 186.301 26.2955 186.486 26.0568C186.672 25.8182 186.929 25.6098 187.259 25.4318C187.588 25.25 188.024 25.1591 188.566 25.1591C189.27 25.1591 189.899 25.3371 190.452 25.6932C191.005 26.0492 191.439 26.5625 191.753 27.233C192.071 27.9034 192.231 28.7102 192.231 29.6534C192.231 30.5966 192.073 31.4053 191.759 32.0795C191.445 32.75 191.013 33.267 190.463 33.6307C189.914 33.9905 189.287 34.1705 188.583 34.1705C188.052 34.1705 187.619 34.0814 187.282 33.9034C186.948 33.7254 186.687 33.517 186.498 33.2784C186.308 33.0398 186.162 32.8277 186.06 32.642H185.958V37.2727H184.259ZM185.924 29.6364C185.924 30.25 186.013 30.7879 186.191 31.25C186.369 31.7121 186.626 32.0739 186.963 32.3352C187.301 32.5928 187.713 32.7216 188.202 32.7216C188.71 32.7216 189.134 32.5871 189.475 32.3182C189.816 32.0455 190.073 31.6761 190.248 31.2102C190.426 30.7443 190.515 30.2197 190.515 29.6364C190.515 29.0606 190.427 28.5436 190.253 28.0852C190.083 27.6269 189.825 27.2652 189.481 27C189.14 26.7348 188.713 26.6023 188.202 26.6023C187.71 26.6023 187.293 26.7292 186.952 26.983C186.615 27.2367 186.359 27.5909 186.185 28.0455C186.011 28.5 185.924 29.0303 185.924 29.6364ZM198.113 37.4545C197.42 37.4545 196.823 37.3636 196.323 37.1818C195.827 37 195.422 36.7595 195.107 36.4602C194.793 36.161 194.558 35.8333 194.403 35.4773L195.863 34.875C195.965 35.0417 196.102 35.2178 196.272 35.4034C196.446 35.5928 196.681 35.7538 196.977 35.8864C197.276 36.0189 197.66 36.0852 198.13 36.0852C198.774 36.0852 199.306 35.928 199.727 35.6136C200.147 35.303 200.357 34.8068 200.357 34.125V32.4091H200.249C200.147 32.5947 199.999 32.8011 199.806 33.0284C199.617 33.2557 199.355 33.4527 199.022 33.6193C198.689 33.786 198.255 33.8693 197.721 33.8693C197.032 33.8693 196.41 33.7083 195.857 33.3864C195.308 33.0606 194.872 32.5814 194.551 31.9489C194.232 31.3125 194.073 30.5303 194.073 29.6023C194.073 28.6742 194.23 27.8788 194.545 27.2159C194.863 26.553 195.299 26.0455 195.852 25.6932C196.405 25.3371 197.032 25.1591 197.732 25.1591C198.274 25.1591 198.711 25.25 199.045 25.4318C199.378 25.6098 199.638 25.8182 199.823 26.0568C200.013 26.2955 200.158 26.5057 200.261 26.6875H200.386V25.2727H202.051V34.1932C202.051 34.9432 201.876 35.5587 201.528 36.0398C201.179 36.5208 200.708 36.8769 200.113 37.108C199.522 37.339 198.855 37.4545 198.113 37.4545ZM198.096 32.4602C198.585 32.4602 198.997 32.3466 199.335 32.1193C199.676 31.8883 199.933 31.5587 200.107 31.1307C200.285 30.6989 200.374 30.1818 200.374 29.5795C200.374 28.9924 200.287 28.4754 200.113 28.0284C199.939 27.5814 199.683 27.233 199.346 26.983C199.009 26.7292 198.592 26.6023 198.096 26.6023C197.585 26.6023 197.158 26.7348 196.818 27C196.477 27.2614 196.219 27.6174 196.045 28.0682C195.874 28.5189 195.789 29.0227 195.789 29.5795C195.789 30.1515 195.876 30.6534 196.051 31.0852C196.225 31.517 196.482 31.8542 196.823 32.0966C197.168 32.339 197.592 32.4602 198.096 32.4602ZM204.649 34V25.2727H206.291V26.6591H206.382C206.541 26.1894 206.821 25.8201 207.223 25.5511C207.628 25.2784 208.086 25.142 208.598 25.142C208.704 25.142 208.829 25.1458 208.973 25.1534C209.121 25.161 209.236 25.1705 209.319 25.1818V26.8068C209.251 26.7879 209.13 26.767 208.956 26.7443C208.781 26.7178 208.607 26.7045 208.433 26.7045C208.031 26.7045 207.674 26.7898 207.359 26.9602C207.049 27.1269 206.802 27.3598 206.621 27.6591C206.439 27.9545 206.348 28.2917 206.348 28.6705V34H204.649ZM213.571 34.1932C213.018 34.1932 212.518 34.0909 212.071 33.8864C211.624 33.678 211.27 33.3769 211.009 32.983C210.751 32.589 210.622 32.1061 210.622 31.5341C210.622 31.0417 210.717 30.6364 210.906 30.3182C211.096 30 211.351 29.7481 211.673 29.5625C211.995 29.3769 212.355 29.2367 212.753 29.142C213.151 29.0473 213.556 28.9754 213.969 28.9261C214.492 28.8655 214.916 28.8163 215.242 28.7784C215.567 28.7367 215.804 28.6705 215.952 28.5795C216.1 28.4886 216.173 28.3409 216.173 28.1364V28.0966C216.173 27.6004 216.033 27.2159 215.753 26.9432C215.476 26.6705 215.064 26.5341 214.514 26.5341C213.942 26.5341 213.492 26.661 213.162 26.9148C212.836 27.1648 212.611 27.4432 212.486 27.75L210.889 27.3864C211.079 26.8561 211.355 26.428 211.719 26.1023C212.086 25.7727 212.509 25.5341 212.986 25.3864C213.463 25.2348 213.965 25.1591 214.492 25.1591C214.84 25.1591 215.209 25.2008 215.6 25.2841C215.994 25.3636 216.361 25.5114 216.702 25.7273C217.047 25.9432 217.329 26.2519 217.548 26.6534C217.768 27.0511 217.878 27.5682 217.878 28.2045V34H216.219V32.8068H216.151C216.041 33.0265 215.876 33.2424 215.656 33.4545C215.437 33.6667 215.155 33.8428 214.81 33.983C214.465 34.1231 214.052 34.1932 213.571 34.1932ZM213.941 32.8295C214.41 32.8295 214.812 32.7367 215.145 32.5511C215.482 32.3655 215.738 32.1231 215.912 31.8239C216.09 31.5208 216.179 31.197 216.179 30.8523V29.7273C216.119 29.7879 216.001 29.8447 215.827 29.8977C215.656 29.947 215.461 29.9905 215.242 30.0284C215.022 30.0625 214.808 30.0947 214.6 30.125C214.391 30.1515 214.217 30.1742 214.077 30.1932C213.747 30.2348 213.446 30.3049 213.173 30.4034C212.905 30.5019 212.689 30.6439 212.526 30.8295C212.367 31.0114 212.287 31.2538 212.287 31.5568C212.287 31.9773 212.442 32.2955 212.753 32.5114C213.064 32.7235 213.459 32.8295 213.941 32.8295ZM223.728 34.1705C223.023 34.1705 222.395 33.9905 221.841 33.6307C221.292 33.267 220.86 32.75 220.546 32.0795C220.235 31.4053 220.08 30.5966 220.08 29.6534C220.08 28.7102 220.237 27.9034 220.552 27.233C220.87 26.5625 221.305 26.0492 221.859 25.6932C222.412 25.3371 223.038 25.1591 223.739 25.1591C224.281 25.1591 224.716 25.25 225.046 25.4318C225.379 25.6098 225.637 25.8182 225.819 26.0568C226.004 26.2955 226.148 26.5057 226.251 26.6875H226.353V22.3636H228.052V34H226.393V32.642H226.251C226.148 32.8277 226.001 33.0398 225.807 33.2784C225.618 33.517 225.357 33.7254 225.023 33.9034C224.69 34.0814 224.258 34.1705 223.728 34.1705ZM224.103 32.7216C224.591 32.7216 225.004 32.5928 225.341 32.3352C225.682 32.0739 225.94 31.7121 226.114 31.25C226.292 30.7879 226.381 30.25 226.381 29.6364C226.381 29.0303 226.294 28.5 226.12 28.0455C225.946 27.5909 225.69 27.2367 225.353 26.983C225.016 26.7292 224.599 26.6023 224.103 26.6023C223.591 26.6023 223.165 26.7348 222.824 27C222.484 27.2652 222.226 27.6269 222.052 28.0852C221.881 28.5436 221.796 29.0606 221.796 29.6364C221.796 30.2197 221.883 30.7443 222.057 31.2102C222.232 31.6761 222.489 32.0455 222.83 32.3182C223.175 32.5871 223.599 32.7216 224.103 32.7216ZM234.558 34.1761C233.698 34.1761 232.957 33.9924 232.336 33.625C231.719 33.2538 231.241 32.733 230.904 32.0625C230.571 31.3883 230.404 30.5985 230.404 29.6932C230.404 28.7992 230.571 28.0114 230.904 27.3295C231.241 26.6477 231.711 26.1155 232.313 25.733C232.92 25.3504 233.628 25.1591 234.438 25.1591C234.931 25.1591 235.408 25.2405 235.87 25.4034C236.332 25.5663 236.747 25.822 237.115 26.1705C237.482 26.5189 237.772 26.9716 237.984 27.5284C238.196 28.0814 238.302 28.7538 238.302 29.5455V30.1477H231.365V28.875H236.637C236.637 28.428 236.546 28.0322 236.365 27.6875C236.183 27.339 235.927 27.0644 235.598 26.8636C235.272 26.6629 234.889 26.5625 234.45 26.5625C233.973 26.5625 233.556 26.6799 233.2 26.9148C232.848 27.1458 232.575 27.4489 232.382 27.8239C232.192 28.1951 232.098 28.5985 232.098 29.0341V30.0284C232.098 30.6117 232.2 31.108 232.404 31.517C232.613 31.9261 232.902 32.2386 233.274 32.4545C233.645 32.6667 234.079 32.7727 234.575 32.7727C234.897 32.7727 235.19 32.7273 235.456 32.6364C235.721 32.5417 235.95 32.4015 236.143 32.2159C236.336 32.0303 236.484 31.8011 236.586 31.5284L238.194 31.8182C238.065 32.2917 237.834 32.7064 237.501 33.0625C237.171 33.4148 236.757 33.6894 236.257 33.8864C235.76 34.0795 235.194 34.1761 234.558 34.1761Z" fill="#030713"/>
<path d="M171 38H239.052V39.0909H171V38Z" fill="#030713"/>
<path fill-rule="evenodd" clip-rule="evenodd" d="M260.058 20.0581C260.302 19.814 260.698 19.814 260.942 20.0581L265.942 25.0581C266.186 25.3021 266.186 25.6979 265.942 25.9419L260.942 30.9419C260.698 31.186 260.302 31.186 260.058 30.9419C259.814 30.6979 259.814 30.3021 260.058 30.0581L263.991 26.125H255.5C253.084 26.125 251.125 28.0838 251.125 30.5C251.125 32.9162 253.084 34.875 255.5 34.875H258C258.345 34.875 258.625 35.1548 258.625 35.5C258.625 35.8452 258.345 36.125 258 36.125H255.5C252.393 36.125 249.875 33.6066 249.875 30.5C249.875 27.3934 252.393 24.875 255.5 24.875H263.991L260.058 20.9419C259.814 20.6979 259.814 20.3021 260.058 20.0581Z" fill="#030713"/>
<path fill-rule="evenodd" clip-rule="evenodd" d="M280.558 22.5581C280.802 22.314 281.198 22.314 281.442 22.5581L286 27.1161L290.558 22.5581C290.802 22.314 291.198 22.314 291.442 22.5581C291.686 22.8021 291.686 23.1979 291.442 23.4419L286.884 28L291.442 32.5581C291.686 32.8021 291.686 33.1979 291.442 33.4419C291.198 33.686 290.802 33.686 290.558 33.4419L286 28.8839L281.442 33.4419C281.198 33.686 280.802 33.686 280.558 33.4419C280.314 33.1979 280.314 32.8021 280.558 32.5581L285.116 28L280.558 23.4419C280.314 23.1979 280.314 22.8021 280.558 22.5581Z" fill="#030713"/>
<path d="M19.0341 50.3636V62H17.2784V50.3636H19.0341ZM23.1534 56.8182V62H21.4545V53.2727H23.0852V54.6932H23.1932C23.3939 54.2311 23.7083 53.8598 24.1364 53.5795C24.5682 53.2992 25.1117 53.1591 25.767 53.1591C26.3617 53.1591 26.8826 53.2841 27.3295 53.5341C27.7765 53.7803 28.1231 54.1477 28.3693 54.6364C28.6155 55.125 28.7386 55.7292 28.7386 56.4489V62H27.0398V56.6534C27.0398 56.0208 26.875 55.5265 26.5455 55.1705C26.2159 54.8106 25.7633 54.6307 25.1875 54.6307C24.7936 54.6307 24.4432 54.7159 24.1364 54.8864C23.8333 55.0568 23.5928 55.3068 23.4148 55.6364C23.2405 55.9621 23.1534 56.3561 23.1534 56.8182ZM37.5568 55.4034L36.017 55.6761C35.9527 55.4792 35.8504 55.2917 35.7102 55.1136C35.5739 54.9356 35.3883 54.7898 35.1534 54.6761C34.9186 54.5625 34.625 54.5057 34.2727 54.5057C33.7917 54.5057 33.3902 54.6136 33.0682 54.8295C32.7462 55.0417 32.5852 55.3163 32.5852 55.6534C32.5852 55.9451 32.6932 56.1799 32.9091 56.358C33.125 56.536 33.4735 56.6818 33.9545 56.7955L35.3409 57.1136C36.1439 57.2992 36.7424 57.5852 37.1364 57.9716C37.5303 58.358 37.7273 58.8598 37.7273 59.4773C37.7273 60 37.5758 60.4659 37.2727 60.875C36.9735 61.2803 36.5549 61.5985 36.017 61.8295C35.483 62.0606 34.8636 62.1761 34.1591 62.1761C33.1818 62.1761 32.3845 61.9678 31.767 61.5511C31.1496 61.1307 30.7708 60.5341 30.6307 59.7614L32.2727 59.5114C32.375 59.9394 32.5852 60.2633 32.9034 60.483C33.2216 60.6989 33.6364 60.8068 34.1477 60.8068C34.7045 60.8068 35.1496 60.6913 35.483 60.4602C35.8163 60.2254 35.983 59.9394 35.983 59.6023C35.983 59.3295 35.8807 59.1004 35.6761 58.9148C35.4754 58.7292 35.1667 58.589 34.75 58.4943L33.2727 58.1705C32.4583 57.9848 31.8561 57.6894 31.4659 57.2841C31.0795 56.8788 30.8864 56.3655 30.8864 55.7443C30.8864 55.2292 31.0303 54.7784 31.3182 54.392C31.6061 54.0057 32.0038 53.7045 32.5114 53.4886C33.0189 53.2689 33.6004 53.1591 34.2557 53.1591C35.1989 53.1591 35.9413 53.3636 36.483 53.7727C37.0246 54.178 37.3826 54.7216 37.5568 55.4034ZM43.3565 62.1761C42.4967 62.1761 41.7562 61.9924 41.1349 61.625C40.5175 61.2538 40.0402 60.733 39.7031 60.0625C39.3698 59.3883 39.2031 58.5985 39.2031 57.6932C39.2031 56.7992 39.3698 56.0114 39.7031 55.3295C40.0402 54.6477 40.5099 54.1155 41.1122 53.733C41.7183 53.3504 42.4266 53.1591 43.2372 53.1591C43.7296 53.1591 44.2069 53.2405 44.669 53.4034C45.1312 53.5663 45.5459 53.822 45.9134 54.1705C46.2808 54.5189 46.5705 54.9716 46.7827 55.5284C46.9948 56.0814 47.1009 56.7538 47.1009 57.5455V58.1477H40.1634V56.875H45.4361C45.4361 56.428 45.3452 56.0322 45.1634 55.6875C44.9815 55.339 44.7259 55.0644 44.3963 54.8636C44.0705 54.6629 43.688 54.5625 43.2486 54.5625C42.7713 54.5625 42.3546 54.6799 41.9986 54.9148C41.6463 55.1458 41.3736 55.4489 41.1804 55.8239C40.991 56.1951 40.8963 56.5985 40.8963 57.0341V58.0284C40.8963 58.6117 40.9986 59.108 41.2031 59.517C41.4115 59.9261 41.7012 60.2386 42.0724 60.4545C42.4437 60.6667 42.8774 60.7727 43.3736 60.7727C43.6955 60.7727 43.9891 60.7273 44.2543 60.6364C44.5194 60.5417 44.7486 60.4015 44.9418 60.2159C45.1349 60.0303 45.2827 59.8011 45.3849 59.5284L46.9929 59.8182C46.8641 60.2917 46.633 60.7064 46.2997 61.0625C45.9702 61.4148 45.5554 61.6894 45.0554 61.8864C44.5592 62.0795 43.9929 62.1761 43.3565 62.1761ZM48.9858 62V53.2727H50.6278V54.6591H50.7188C50.8778 54.1894 51.1581 53.8201 51.5597 53.5511C51.965 53.2784 52.4233 53.142 52.9347 53.142C53.0407 53.142 53.1657 53.1458 53.3097 53.1534C53.4574 53.161 53.5729 53.1705 53.6562 53.1818V54.8068C53.5881 54.7879 53.4669 54.767 53.2926 54.7443C53.1184 54.7178 52.9441 54.7045 52.7699 54.7045C52.3684 54.7045 52.0104 54.7898 51.696 54.9602C51.3854 55.1269 51.1392 55.3598 50.9574 55.6591C50.7756 55.9545 50.6847 56.2917 50.6847 56.6705V62H48.9858ZM59.7159 53.2727V54.6364H54.9489V53.2727H59.7159ZM56.2273 51.1818H57.9261V59.4375C57.9261 59.767 57.9754 60.0152 58.0739 60.1818C58.1723 60.3447 58.2992 60.4564 58.4545 60.517C58.6136 60.5739 58.786 60.6023 58.9716 60.6023C59.108 60.6023 59.2273 60.5928 59.3295 60.5739C59.4318 60.5549 59.5114 60.5398 59.5682 60.5284L59.875 61.9318C59.7765 61.9697 59.6364 62.0076 59.4545 62.0455C59.2727 62.0871 59.0455 62.1098 58.7727 62.1136C58.3258 62.1212 57.9091 62.0417 57.5227 61.875C57.1364 61.7083 56.8239 61.4508 56.5852 61.1023C56.3466 60.7538 56.2273 60.3163 56.2273 59.7898V51.1818ZM66.9034 65.2727C66.6496 65.2727 66.4186 65.2519 66.2102 65.2102C66.0019 65.1723 65.8466 65.1307 65.7443 65.0852L66.1534 63.6932C66.464 63.7765 66.7405 63.8125 66.983 63.8011C67.2254 63.7898 67.4394 63.6989 67.625 63.5284C67.8144 63.358 67.9811 63.0795 68.125 62.6932L68.3352 62.1136L65.142 53.2727H66.9602L69.1705 60.0455H69.2614L71.4716 53.2727H73.2955L69.6989 63.1648C69.5322 63.6193 69.3201 64.0038 69.0625 64.3182C68.8049 64.6364 68.4981 64.875 68.142 65.0341C67.786 65.1932 67.3731 65.2727 66.9034 65.2727ZM78.2713 62.1761C77.4531 62.1761 76.7391 61.9886 76.1293 61.6136C75.5194 61.2386 75.0459 60.714 74.7088 60.0398C74.3717 59.3655 74.2031 58.5777 74.2031 57.6761C74.2031 56.7708 74.3717 55.9792 74.7088 55.3011C75.0459 54.6231 75.5194 54.0966 76.1293 53.7216C76.7391 53.3466 77.4531 53.1591 78.2713 53.1591C79.0895 53.1591 79.8035 53.3466 80.4134 53.7216C81.0232 54.0966 81.4967 54.6231 81.8338 55.3011C82.1709 55.9792 82.3395 56.7708 82.3395 57.6761C82.3395 58.5777 82.1709 59.3655 81.8338 60.0398C81.4967 60.714 81.0232 61.2386 80.4134 61.6136C79.8035 61.9886 79.0895 62.1761 78.2713 62.1761ZM78.277 60.75C78.8073 60.75 79.2467 60.6098 79.5952 60.3295C79.9437 60.0492 80.2012 59.6761 80.3679 59.2102C80.5384 58.7443 80.6236 58.2311 80.6236 57.6705C80.6236 57.1136 80.5384 56.6023 80.3679 56.1364C80.2012 55.6667 79.9437 55.2898 79.5952 55.0057C79.2467 54.7216 78.8073 54.5795 78.277 54.5795C77.7429 54.5795 77.2997 54.7216 76.9474 55.0057C76.599 55.2898 76.3395 55.6667 76.169 56.1364C76.0024 56.6023 75.919 57.1136 75.919 57.6705C75.919 58.2311 76.0024 58.7443 76.169 59.2102C76.3395 59.6761 76.599 60.0492 76.9474 60.3295C77.2997 60.6098 77.7429 60.75 78.277 60.75ZM89.7642 58.3807V53.2727H91.4688V62H89.7983V60.4886H89.7074C89.5066 60.9545 89.1847 61.3428 88.7415 61.6534C88.3021 61.9602 87.7547 62.1136 87.0994 62.1136C86.5388 62.1136 86.0426 61.9905 85.6108 61.7443C85.1828 61.4943 84.8456 61.125 84.5994 60.6364C84.357 60.1477 84.2358 59.5436 84.2358 58.8239V53.2727H85.9347V58.6193C85.9347 59.214 86.0994 59.6875 86.429 60.0398C86.7585 60.392 87.1866 60.5682 87.7131 60.5682C88.0313 60.5682 88.3475 60.4886 88.6619 60.3295C88.9801 60.1705 89.2434 59.9299 89.4517 59.608C89.6638 59.286 89.768 58.8769 89.7642 58.3807ZM93.7514 62V53.2727H95.3935V54.6591H95.4844C95.6435 54.1894 95.9238 53.8201 96.3253 53.5511C96.7306 53.2784 97.1889 53.142 97.7003 53.142C97.8063 53.142 97.9313 53.1458 98.0753 53.1534C98.223 53.161 98.3385 53.1705 98.4219 53.1818V54.8068C98.3537 54.7879 98.2325 54.767 98.0582 54.7443C97.884 54.7178 97.7098 54.7045 97.5355 54.7045C97.134 54.7045 96.776 54.7898 96.4616 54.9602C96.151 55.1269 95.9048 55.3598 95.723 55.6591C95.5412 55.9545 95.4503 56.2917 95.4503 56.6705V62H93.7514ZM106.666 62.1932C106.113 62.1932 105.613 62.0909 105.166 61.8864C104.719 61.678 104.365 61.3769 104.104 60.983C103.846 60.589 103.717 60.1061 103.717 59.5341C103.717 59.0417 103.812 58.6364 104.001 58.3182C104.191 58 104.446 57.7481 104.768 57.5625C105.09 57.3769 105.45 57.2367 105.848 57.142C106.246 57.0473 106.651 56.9754 107.064 56.9261C107.587 56.8655 108.011 56.8163 108.337 56.7784C108.662 56.7367 108.899 56.6705 109.047 56.5795C109.195 56.4886 109.268 56.3409 109.268 56.1364V56.0966C109.268 55.6004 109.128 55.2159 108.848 54.9432C108.571 54.6705 108.159 54.5341 107.609 54.5341C107.037 54.5341 106.587 54.661 106.257 54.9148C105.931 55.1648 105.706 55.4432 105.581 55.75L103.984 55.3864C104.174 54.8561 104.45 54.428 104.814 54.1023C105.181 53.7727 105.604 53.5341 106.081 53.3864C106.558 53.2348 107.06 53.1591 107.587 53.1591C107.935 53.1591 108.304 53.2008 108.695 53.2841C109.089 53.3636 109.456 53.5114 109.797 53.7273C110.142 53.9432 110.424 54.2519 110.643 54.6534C110.863 55.0511 110.973 55.5682 110.973 56.2045V62H109.314V60.8068H109.246C109.136 61.0265 108.971 61.2424 108.751 61.4545C108.532 61.6667 108.25 61.8428 107.905 61.983C107.56 62.1231 107.147 62.1932 106.666 62.1932ZM107.036 60.8295C107.505 60.8295 107.907 60.7367 108.24 60.5511C108.577 60.3655 108.833 60.1231 109.007 59.8239C109.185 59.5208 109.274 59.197 109.274 58.8523V57.7273C109.214 57.7879 109.096 57.8447 108.922 57.8977C108.751 57.947 108.556 57.9905 108.337 58.0284C108.117 58.0625 107.903 58.0947 107.695 58.125C107.486 58.1515 107.312 58.1742 107.172 58.1932C106.842 58.2348 106.541 58.3049 106.268 58.4034C106 58.5019 105.784 58.6439 105.621 58.8295C105.462 59.0114 105.382 59.2538 105.382 59.5568C105.382 59.9773 105.537 60.2955 105.848 60.5114C106.159 60.7235 106.554 60.8295 107.036 60.8295ZM114.935 50.3636V62H113.236V50.3636H114.935ZM120.982 62.1761C120.122 62.1761 119.381 61.9924 118.76 61.625C118.143 61.2538 117.665 60.733 117.328 60.0625C116.995 59.3883 116.828 58.5985 116.828 57.6932C116.828 56.7992 116.995 56.0114 117.328 55.3295C117.665 54.6477 118.135 54.1155 118.737 53.733C119.343 53.3504 120.052 53.1591 120.862 53.1591C121.355 53.1591 121.832 53.2405 122.294 53.4034C122.756 53.5663 123.171 53.822 123.538 54.1705C123.906 54.5189 124.196 54.9716 124.408 55.5284C124.62 56.0814 124.726 56.7538 124.726 57.5455V58.1477H117.788V56.875H123.061C123.061 56.428 122.97 56.0322 122.788 55.6875C122.607 55.339 122.351 55.0644 122.021 54.8636C121.696 54.6629 121.313 54.5625 120.874 54.5625C120.396 54.5625 119.98 54.6799 119.624 54.9148C119.271 55.1458 118.999 55.4489 118.805 55.8239C118.616 56.1951 118.521 56.5985 118.521 57.0341V58.0284C118.521 58.6117 118.624 59.108 118.828 59.517C119.036 59.9261 119.326 60.2386 119.697 60.4545C120.069 60.6667 120.502 60.7727 120.999 60.7727C121.321 60.7727 121.614 60.7273 121.879 60.6364C122.144 60.5417 122.374 60.4015 122.567 60.2159C122.76 60.0303 122.908 59.8011 123.01 59.5284L124.618 59.8182C124.489 60.2917 124.258 60.7064 123.925 61.0625C123.595 61.4148 123.18 61.6894 122.68 61.8864C122.184 62.0795 121.618 62.1761 120.982 62.1761ZM126.611 62V53.2727H128.253V54.6591H128.344C128.503 54.1894 128.783 53.8201 129.185 53.5511C129.59 53.2784 130.048 53.142 130.56 53.142C130.666 53.142 130.791 53.1458 130.935 53.1534C131.082 53.161 131.198 53.1705 131.281 53.1818V54.8068C131.213 54.7879 131.092 54.767 130.918 54.7443C130.743 54.7178 130.569 54.7045 130.395 54.7045C129.993 54.7045 129.635 54.7898 129.321 54.9602C129.01 55.1269 128.764 55.3598 128.582 55.6591C128.401 55.9545 128.31 56.2917 128.31 56.6705V62H126.611ZM137.341 53.2727V54.6364H132.574V53.2727H137.341ZM133.852 51.1818H135.551V59.4375C135.551 59.767 135.6 60.0152 135.699 60.1818C135.797 60.3447 135.924 60.4564 136.08 60.517C136.239 60.5739 136.411 60.6023 136.597 60.6023C136.733 60.6023 136.852 60.5928 136.955 60.5739C137.057 60.5549 137.136 60.5398 137.193 60.5284L137.5 61.9318C137.402 61.9697 137.261 62.0076 137.08 62.0455C136.898 62.0871 136.67 62.1098 136.398 62.1136C135.951 62.1212 135.534 62.0417 135.148 61.875C134.761 61.7083 134.449 61.4508 134.21 61.1023C133.972 60.7538 133.852 60.3163 133.852 59.7898V51.1818ZM147.528 53.2727V54.6364H142.761V53.2727H147.528ZM144.04 51.1818H145.739V59.4375C145.739 59.767 145.788 60.0152 145.886 60.1818C145.985 60.3447 146.112 60.4564 146.267 60.517C146.426 60.5739 146.598 60.6023 146.784 60.6023C146.92 60.6023 147.04 60.5928 147.142 60.5739C147.244 60.5549 147.324 60.5398 147.381 60.5284L147.688 61.9318C147.589 61.9697 147.449 62.0076 147.267 62.0455C147.085 62.0871 146.858 62.1098 146.585 62.1136C146.138 62.1212 145.722 62.0417 145.335 61.875C144.949 61.7083 144.636 61.4508 144.398 61.1023C144.159 60.7538 144.04 60.3163 144.04 59.7898V51.1818ZM149.408 62V53.2727H151.107V62H149.408ZM150.266 51.9261C149.97 51.9261 149.716 51.8277 149.504 51.6307C149.296 51.4299 149.192 51.1913 149.192 50.9148C149.192 50.6345 149.296 50.3958 149.504 50.1989C149.716 49.9981 149.97 49.8977 150.266 49.8977C150.561 49.8977 150.813 49.9981 151.021 50.1989C151.233 50.3958 151.339 50.6345 151.339 50.9148C151.339 51.1913 151.233 51.4299 151.021 51.6307C150.813 51.8277 150.561 51.9261 150.266 51.9261ZM157.466 53.2727V54.6364H152.699V53.2727H157.466ZM153.977 51.1818H155.676V59.4375C155.676 59.767 155.725 60.0152 155.824 60.1818C155.922 60.3447 156.049 60.4564 156.205 60.517C156.364 60.5739 156.536 60.6023 156.722 60.6023C156.858 60.6023 156.977 60.5928 157.08 60.5739C157.182 60.5549 157.261 60.5398 157.318 60.5284L157.625 61.9318C157.527 61.9697 157.386 62.0076 157.205 62.0455C157.023 62.0871 156.795 62.1098 156.523 62.1136C156.076 62.1212 155.659 62.0417 155.273 61.875C154.886 61.7083 154.574 61.4508 154.335 61.1023C154.097 60.7538 153.977 60.3163 153.977 59.7898V51.1818ZM161.232 50.3636V62H159.533V50.3636H161.232ZM167.278 62.1761C166.419 62.1761 165.678 61.9924 165.057 61.625C164.439 61.2538 163.962 60.733 163.625 60.0625C163.292 59.3883 163.125 58.5985 163.125 57.6932C163.125 56.7992 163.292 56.0114 163.625 55.3295C163.962 54.6477 164.432 54.1155 165.034 53.733C165.64 53.3504 166.348 53.1591 167.159 53.1591C167.652 53.1591 168.129 53.2405 168.591 53.4034C169.053 53.5663 169.468 53.822 169.835 54.1705C170.203 54.5189 170.492 54.9716 170.705 55.5284C170.917 56.0814 171.023 56.7538 171.023 57.5455V58.1477H164.085V56.875H169.358C169.358 56.428 169.267 56.0322 169.085 55.6875C168.903 55.339 168.648 55.0644 168.318 54.8636C167.992 54.6629 167.61 54.5625 167.17 54.5625C166.693 54.5625 166.277 54.6799 165.92 54.9148C165.568 55.1458 165.295 55.4489 165.102 55.8239C164.913 56.1951 164.818 56.5985 164.818 57.0341V58.0284C164.818 58.6117 164.92 59.108 165.125 59.517C165.333 59.9261 165.623 60.2386 165.994 60.4545C166.366 60.6667 166.799 60.7727 167.295 60.7727C167.617 60.7727 167.911 60.7273 168.176 60.6364C168.441 60.5417 168.67 60.4015 168.864 60.2159C169.057 60.0303 169.205 59.8011 169.307 59.5284L170.915 59.8182C170.786 60.2917 170.555 60.7064 170.222 61.0625C169.892 61.4148 169.477 61.6894 168.977 61.8864C168.481 62.0795 167.915 62.1761 167.278 62.1761ZM178.841 56.8182V62H177.142V50.3636H178.818V54.6932H178.926C179.131 54.2235 179.443 53.8504 179.864 53.5739C180.284 53.2973 180.833 53.1591 181.511 53.1591C182.11 53.1591 182.633 53.2822 183.08 53.5284C183.53 53.7746 183.879 54.142 184.125 54.6307C184.375 55.1155 184.5 55.7216 184.5 56.4489V62H182.801V56.6534C182.801 56.0133 182.636 55.517 182.307 55.1648C181.977 54.8087 181.519 54.6307 180.932 54.6307C180.53 54.6307 180.17 54.7159 179.852 54.8864C179.538 55.0568 179.29 55.3068 179.108 55.6364C178.93 55.9621 178.841 56.3561 178.841 56.8182ZM190.528 62.1761C189.669 62.1761 188.928 61.9924 188.307 61.625C187.689 61.2538 187.212 60.733 186.875 60.0625C186.542 59.3883 186.375 58.5985 186.375 57.6932C186.375 56.7992 186.542 56.0114 186.875 55.3295C187.212 54.6477 187.682 54.1155 188.284 53.733C188.89 53.3504 189.598 53.1591 190.409 53.1591C190.902 53.1591 191.379 53.2405 191.841 53.4034C192.303 53.5663 192.718 53.822 193.085 54.1705C193.453 54.5189 193.742 54.9716 193.955 55.5284C194.167 56.0814 194.273 56.7538 194.273 57.5455V58.1477H187.335V56.875H192.608C192.608 56.428 192.517 56.0322 192.335 55.6875C192.153 55.339 191.898 55.0644 191.568 54.8636C191.242 54.6629 190.86 54.5625 190.42 54.5625C189.943 54.5625 189.527 54.6799 189.17 54.9148C188.818 55.1458 188.545 55.4489 188.352 55.8239C188.163 56.1951 188.068 56.5985 188.068 57.0341V58.0284C188.068 58.6117 188.17 59.108 188.375 59.517C188.583 59.9261 188.873 60.2386 189.244 60.4545C189.616 60.6667 190.049 60.7727 190.545 60.7727C190.867 60.7727 191.161 60.7273 191.426 60.6364C191.691 60.5417 191.92 60.4015 192.114 60.2159C192.307 60.0303 192.455 59.8011 192.557 59.5284L194.165 59.8182C194.036 60.2917 193.805 60.7064 193.472 61.0625C193.142 61.4148 192.727 61.6894 192.227 61.8864C191.731 62.0795 191.165 62.1761 190.528 62.1761ZM196.158 62V53.2727H197.8V54.6591H197.891C198.05 54.1894 198.33 53.8201 198.732 53.5511C199.137 53.2784 199.595 53.142 200.107 53.142C200.213 53.142 200.338 53.1458 200.482 53.1534C200.629 53.161 200.745 53.1705 200.828 53.1818V54.8068C200.76 54.7879 200.639 54.767 200.464 54.7443C200.29 54.7178 200.116 54.7045 199.942 54.7045C199.54 54.7045 199.182 54.7898 198.868 54.9602C198.557 55.1269 198.311 55.3598 198.129 55.6591C197.947 55.9545 197.857 56.2917 197.857 56.6705V62H196.158ZM205.747 62.1761C204.887 62.1761 204.147 61.9924 203.526 61.625C202.908 61.2538 202.431 60.733 202.094 60.0625C201.76 59.3883 201.594 58.5985 201.594 57.6932C201.594 56.7992 201.76 56.0114 202.094 55.3295C202.431 54.6477 202.901 54.1155 203.503 53.733C204.109 53.3504 204.817 53.1591 205.628 53.1591C206.12 53.1591 206.598 53.2405 207.06 53.4034C207.522 53.5663 207.937 53.822 208.304 54.1705C208.671 54.5189 208.961 54.9716 209.173 55.5284C209.385 56.0814 209.491 56.7538 209.491 57.5455V58.1477H202.554V56.875H207.827C207.827 56.428 207.736 56.0322 207.554 55.6875C207.372 55.339 207.116 55.0644 206.787 54.8636C206.461 54.6629 206.079 54.5625 205.639 54.5625C205.162 54.5625 204.745 54.6799 204.389 54.9148C204.037 55.1458 203.764 55.4489 203.571 55.8239C203.382 56.1951 203.287 56.5985 203.287 57.0341V58.0284C203.287 58.6117 203.389 59.108 203.594 59.517C203.802 59.9261 204.092 60.2386 204.463 60.4545C204.834 60.6667 205.268 60.7727 205.764 60.7727C206.086 60.7727 206.38 60.7273 206.645 60.6364C206.91 60.5417 207.139 60.4015 207.332 60.2159C207.526 60.0303 207.673 59.8011 207.776 59.5284L209.384 59.8182C209.255 60.2917 209.024 60.7064 208.69 61.0625C208.361 61.4148 207.946 61.6894 207.446 61.8864C206.95 62.0795 206.384 62.1761 205.747 62.1761ZM213.518 50.3636L213.371 58.6534H211.797L211.649 50.3636H213.518ZM212.587 62.108C212.272 62.108 212.003 61.9981 211.78 61.7784C211.556 61.5549 211.446 61.286 211.45 60.9716C211.446 60.661 211.556 60.3958 211.78 60.1761C212.003 59.9527 212.272 59.8409 212.587 59.8409C212.893 59.8409 213.159 59.9527 213.382 60.1761C213.606 60.3958 213.719 60.661 213.723 60.9716C213.719 61.1799 213.664 61.3712 213.558 61.5455C213.456 61.7159 213.32 61.8523 213.149 61.9545C212.979 62.0568 212.791 62.108 212.587 62.108Z" fill="#030713"/>
<path d="M18.4659 81.8182V92H17.233V81.8182H18.4659ZM21.9522 87.4062V92H20.7789V84.3636H21.9125V85.5568H22.0119C22.1909 85.169 22.4627 84.8575 22.8272 84.6222C23.1918 84.3835 23.6625 84.2642 24.2392 84.2642C24.7562 84.2642 25.2086 84.3703 25.5964 84.5824C25.9842 84.7912 26.2858 85.1094 26.5012 85.5369C26.7167 85.9612 26.8244 86.4981 26.8244 87.1477V92H25.6511V87.2273C25.6511 86.6274 25.4953 86.16 25.1838 85.8253C24.8722 85.4872 24.4447 85.3182 23.9011 85.3182C23.5266 85.3182 23.1918 85.3994 22.8968 85.5618C22.6052 85.7242 22.3748 85.9612 22.2058 86.2727C22.0368 86.5843 21.9522 86.9621 21.9522 87.4062ZM34.3775 86.0739L33.3235 86.3722C33.2572 86.1965 33.1594 86.0258 33.0302 85.8601C32.9042 85.6911 32.7319 85.5518 32.5131 85.4425C32.2944 85.3331 32.0143 85.2784 31.6729 85.2784C31.2056 85.2784 30.8162 85.3861 30.5046 85.6016C30.1964 85.8137 30.0423 86.0838 30.0423 86.4119C30.0423 86.7036 30.1483 86.9339 30.3604 87.103C30.5726 87.272 30.904 87.4129 31.3548 87.5256L32.4883 87.804C33.171 87.9697 33.6798 88.2232 34.0146 88.5646C34.3493 88.9027 34.5167 89.3385 34.5167 89.8722C34.5167 90.3097 34.3907 90.7008 34.1388 91.0455C33.8903 91.3902 33.5423 91.6619 33.0948 91.8608C32.6474 92.0597 32.127 92.1591 31.5337 92.1591C30.7549 92.1591 30.1102 91.9901 29.5998 91.652C29.0894 91.3139 28.7662 90.8201 28.6303 90.1705L29.744 89.892C29.85 90.303 30.0505 90.6113 30.3455 90.8168C30.6438 91.0223 31.0333 91.125 31.5138 91.125C32.0607 91.125 32.4949 91.009 32.8164 90.777C33.1412 90.5417 33.3036 90.2599 33.3036 89.9318C33.3036 89.6667 33.2108 89.4446 33.0252 89.2656C32.8396 89.0833 32.5546 88.9474 32.1701 88.858L30.8974 88.5597C30.198 88.3939 29.6843 88.1371 29.3562 87.7891C29.0314 87.4377 28.869 86.9986 28.869 86.4716C28.869 86.0407 28.9899 85.6596 29.2319 85.3281C29.4772 84.9967 29.8103 84.7365 30.2312 84.5476C30.6554 84.3587 31.136 84.2642 31.6729 84.2642C32.4286 84.2642 33.0219 84.4299 33.4528 84.7614C33.887 85.0928 34.1952 85.5303 34.3775 86.0739ZM39.4846 92.1591C38.7488 92.1591 38.1141 91.9967 37.5804 91.6719C37.0501 91.3438 36.6408 90.8864 36.3525 90.2997C36.0674 89.7098 35.9249 89.0237 35.9249 88.2415C35.9249 87.4593 36.0674 86.7699 36.3525 86.1733C36.6408 85.5734 37.0418 85.1061 37.5556 84.7713C38.0726 84.4332 38.6758 84.2642 39.3652 84.2642C39.763 84.2642 40.1557 84.3305 40.5435 84.4631C40.9313 84.5956 41.2843 84.8111 41.6025 85.1094C41.9206 85.4044 42.1742 85.7955 42.3631 86.2827C42.552 86.7699 42.6465 87.3698 42.6465 88.0824V88.5795H36.7601V87.5653H41.4533C41.4533 87.1345 41.3671 86.75 41.1948 86.4119C41.0257 86.0739 40.7838 85.8071 40.4689 85.6115C40.1574 85.416 39.7895 85.3182 39.3652 85.3182C38.8979 85.3182 38.4935 85.4342 38.1522 85.6662C37.8141 85.8949 37.5539 86.1932 37.3716 86.5611C37.1893 86.929 37.0982 87.3234 37.0982 87.7443V88.4205C37.0982 88.9972 37.1976 89.486 37.3965 89.8871C37.5987 90.2848 37.8787 90.5881 38.2367 90.7969C38.5946 91.0024 39.0106 91.1051 39.4846 91.1051C39.7928 91.1051 40.0712 91.062 40.3198 90.9759C40.5717 90.8864 40.7888 90.7538 40.9711 90.5781C41.1534 90.3991 41.2942 90.1771 41.3936 89.9119L42.5272 90.2301C42.4078 90.6146 42.2073 90.9527 41.9256 91.2443C41.6439 91.5327 41.2959 91.758 40.8816 91.9205C40.4673 92.0795 40.0016 92.1591 39.4846 92.1591ZM44.4313 92V84.3636H45.5648V85.517H45.6444C45.7836 85.1392 46.0355 84.8326 46.4 84.5973C46.7646 84.362 47.1756 84.2443 47.633 84.2443C47.7192 84.2443 47.8269 84.246 47.9561 84.2493C48.0854 84.2526 48.1832 84.2576 48.2495 84.2642V85.4574C48.2097 85.4474 48.1185 85.4325 47.976 85.4126C47.8368 85.3894 47.6893 85.3778 47.5336 85.3778C47.1623 85.3778 46.8309 85.4557 46.5392 85.6115C46.2509 85.764 46.0222 85.9761 45.8532 86.2479C45.6874 86.5163 45.6046 86.8229 45.6046 87.1676V92H44.4313ZM53.4398 84.3636V85.358H49.4824V84.3636H53.4398ZM50.6358 82.5341H51.8091V89.8125C51.8091 90.1439 51.8572 90.3925 51.9533 90.5582C52.0527 90.7206 52.1787 90.83 52.3311 90.8864C52.4869 90.9394 52.651 90.9659 52.8233 90.9659C52.9526 90.9659 53.0587 90.9593 53.1415 90.946C53.2244 90.9295 53.2907 90.9162 53.3404 90.9062L53.579 91.9602C53.4995 91.9901 53.3884 92.0199 53.2459 92.0497C53.1034 92.0829 52.9228 92.0994 52.704 92.0994C52.3726 92.0994 52.0478 92.0282 51.7296 91.8857C51.4147 91.7431 51.1529 91.526 50.9441 91.2344C50.7386 90.9427 50.6358 90.5748 50.6358 90.1307V82.5341ZM62.4632 84.3636V85.358H58.5059V84.3636H62.4632ZM59.6593 82.5341H60.8326V89.8125C60.8326 90.1439 60.8806 90.3925 60.9767 90.5582C61.0762 90.7206 61.2021 90.83 61.3546 90.8864C61.5104 90.9394 61.6744 90.9659 61.8468 90.9659C61.976 90.9659 62.0821 90.9593 62.165 90.946C62.2478 90.9295 62.3141 90.9162 62.3638 90.9062L62.6025 91.9602C62.5229 91.9901 62.4119 92.0199 62.2694 92.0497C62.1268 92.0829 61.9462 92.0994 61.7275 92.0994C61.396 92.0994 61.0712 92.0282 60.753 91.8857C60.4382 91.7431 60.1763 91.526 59.9675 91.2344C59.762 90.9427 59.6593 90.5748 59.6593 90.1307V82.5341ZM65.5655 87.4062V92H64.3922V81.8182H65.5655V85.5568H65.665C65.8439 85.1624 66.1124 84.8492 66.4703 84.6172C66.8316 84.3819 67.3122 84.2642 67.9121 84.2642C68.4325 84.2642 68.8882 84.3686 69.2793 84.5774C69.6704 84.7829 69.9737 85.0994 70.1891 85.527C70.4078 85.9512 70.5172 86.4915 70.5172 87.1477V92H69.3439V87.2273C69.3439 86.6207 69.1865 86.1518 68.8716 85.8203C68.5601 85.4856 68.1275 85.3182 67.574 85.3182C67.1896 85.3182 66.8449 85.3994 66.54 85.5618C66.2383 85.7242 65.9997 85.9612 65.824 86.2727C65.6517 86.5843 65.5655 86.9621 65.5655 87.4062ZM75.8654 92.1591C75.1296 92.1591 74.4949 91.9967 73.9613 91.6719C73.431 91.3438 73.0217 90.8864 72.7333 90.2997C72.4483 89.7098 72.3058 89.0237 72.3058 88.2415C72.3058 87.4593 72.4483 86.7699 72.7333 86.1733C73.0217 85.5734 73.4227 85.1061 73.9364 84.7713C74.4535 84.4332 75.0567 84.2642 75.7461 84.2642C76.1438 84.2642 76.5366 84.3305 76.9244 84.4631C77.3121 84.5956 77.6651 84.8111 77.9833 85.1094C78.3015 85.4044 78.555 85.7955 78.744 86.2827C78.9329 86.7699 79.0273 87.3698 79.0273 88.0824V88.5795H73.141V87.5653H77.8342C77.8342 87.1345 77.748 86.75 77.5756 86.4119C77.4066 86.0739 77.1647 85.8071 76.8498 85.6115C76.5382 85.416 76.1703 85.3182 75.7461 85.3182C75.2788 85.3182 74.8744 85.4342 74.533 85.6662C74.195 85.8949 73.9348 86.1932 73.7525 86.5611C73.5702 86.929 73.479 87.3234 73.479 87.7443V88.4205C73.479 88.9972 73.5785 89.486 73.7773 89.8871C73.9795 90.2848 74.2596 90.5881 74.6175 90.7969C74.9755 91.0024 75.3915 91.1051 75.8654 91.1051C76.1737 91.1051 76.4521 91.062 76.7006 90.9759C76.9525 90.8864 77.1696 90.7538 77.3519 90.5781C77.5342 90.3991 77.6751 90.1771 77.7745 89.9119L78.908 90.2301C78.7887 90.6146 78.5882 90.9527 78.3065 91.2443C78.0247 91.5327 77.6767 91.758 77.2624 91.9205C76.8481 92.0795 76.3825 92.1591 75.8654 92.1591ZM86.9968 92.179C86.5129 92.179 86.0737 92.0878 85.6793 91.9055C85.2849 91.7199 84.9717 91.4531 84.7397 91.1051C84.5077 90.7538 84.3917 90.3295 84.3917 89.8324C84.3917 89.3949 84.4779 89.0402 84.6502 88.7685C84.8226 88.4934 85.0529 88.2779 85.3413 88.1222C85.6296 87.9664 85.9478 87.8504 86.2958 87.7741C86.6471 87.6946 87.0001 87.6316 87.3548 87.5852C87.8188 87.5256 88.195 87.4808 88.4833 87.451C88.775 87.4179 88.9871 87.3632 89.1197 87.2869C89.2556 87.2107 89.3235 87.0781 89.3235 86.8892V86.8494C89.3235 86.3589 89.1893 85.9777 88.9208 85.706C88.6557 85.4342 88.253 85.2983 87.7127 85.2983C87.1526 85.2983 86.7134 85.4209 86.3952 85.6662C86.0771 85.9115 85.8533 86.1733 85.7241 86.4517L84.6104 86.054C84.8093 85.59 85.0745 85.2287 85.4059 84.9702C85.7406 84.7083 86.1052 84.526 86.4996 84.4233C86.8974 84.3172 87.2885 84.2642 87.6729 84.2642C87.9182 84.2642 88.1999 84.294 88.5181 84.3537C88.8396 84.41 89.1495 84.5277 89.4478 84.7067C89.7494 84.8857 89.9996 85.1558 90.1985 85.517C90.3974 85.8783 90.4968 86.3622 90.4968 86.9688V92H89.3235V90.9659H89.2638C89.1843 91.1316 89.0517 91.3089 88.8661 91.4979C88.6805 91.6868 88.4336 91.8475 88.1254 91.9801C87.8171 92.1127 87.4409 92.179 86.9968 92.179ZM87.1758 91.125C87.6398 91.125 88.0309 91.0339 88.3491 90.8516C88.6706 90.6693 88.9125 90.4339 89.0749 90.1456C89.2406 89.8572 89.3235 89.554 89.3235 89.2358V88.1619C89.2738 88.2216 89.1644 88.2763 88.9954 88.326C88.8297 88.3724 88.6374 88.4138 88.4187 88.4503C88.2032 88.4834 87.9928 88.5133 87.7873 88.5398C87.5851 88.563 87.421 88.5829 87.2951 88.5994C86.9902 88.6392 86.7051 88.7038 86.44 88.7933C86.1781 88.8795 85.966 89.0104 85.8036 89.1861C85.6445 89.3584 85.565 89.5937 85.565 89.892C85.565 90.2997 85.7158 90.608 86.0174 90.8168C86.3223 91.0223 86.7085 91.125 87.1758 91.125ZM93.8116 81.8182V92H92.6383V81.8182H93.8116ZM99.1623 92.1591C98.4265 92.1591 97.7918 91.9967 97.2582 91.6719C96.7279 91.3438 96.3185 90.8864 96.0302 90.2997C95.7451 89.7098 95.6026 89.0237 95.6026 88.2415C95.6026 87.4593 95.7451 86.7699 96.0302 86.1733C96.3185 85.5734 96.7196 85.1061 97.2333 84.7713C97.7504 84.4332 98.3536 84.2642 99.043 84.2642C99.4407 84.2642 99.8335 84.3305 100.221 84.4631C100.609 84.5956 100.962 84.8111 101.28 85.1094C101.598 85.4044 101.852 85.7955 102.041 86.2827C102.23 86.7699 102.324 87.3698 102.324 88.0824V88.5795H96.4379V87.5653H101.131C101.131 87.1345 101.045 86.75 100.873 86.4119C100.703 86.0739 100.462 85.8071 100.147 85.6115C99.8351 85.416 99.4672 85.3182 99.043 85.3182C98.5756 85.3182 98.1713 85.4342 97.8299 85.6662C97.4918 85.8949 97.2317 86.1932 97.0494 86.5611C96.8671 86.929 96.7759 87.3234 96.7759 87.7443V88.4205C96.7759 88.9972 96.8754 89.486 97.0742 89.8871C97.2764 90.2848 97.5565 90.5881 97.9144 90.7969C98.2724 91.0024 98.6883 91.1051 99.1623 91.1051C99.4705 91.1051 99.7489 91.062 99.9975 90.9759C100.249 90.8864 100.467 90.7538 100.649 90.5781C100.831 90.3991 100.972 90.1771 101.071 89.9119L102.205 90.2301C102.086 90.6146 101.885 90.9527 101.603 91.2443C101.322 91.5327 100.974 91.758 100.559 91.9205C100.145 92.0795 99.6793 92.1591 99.1623 92.1591ZM104.109 92V84.3636H105.243V85.517H105.322C105.461 85.1392 105.713 84.8326 106.078 84.5973C106.442 84.362 106.853 84.2443 107.311 84.2443C107.397 84.2443 107.505 84.246 107.634 84.2493C107.763 84.2526 107.861 84.2576 107.927 84.2642V85.4574C107.887 85.4474 107.796 85.4325 107.654 85.4126C107.515 85.3894 107.367 85.3778 107.211 85.3778C106.84 85.3778 106.509 85.4557 106.217 85.6115C105.929 85.764 105.7 85.9761 105.531 86.2479C105.365 86.5163 105.282 86.8229 105.282 87.1676V92H104.109ZM113.118 84.3636V85.358H109.16V84.3636H113.118ZM110.314 82.5341H111.487V89.8125C111.487 90.1439 111.535 90.3925 111.631 90.5582C111.73 90.7206 111.856 90.83 112.009 90.8864C112.165 90.9394 112.329 90.9659 112.501 90.9659C112.63 90.9659 112.736 90.9593 112.819 90.946C112.902 90.9295 112.968 90.9162 113.018 90.9062L113.257 91.9602C113.177 91.9901 113.066 92.0199 112.924 92.0497C112.781 92.0829 112.6 92.0994 112.382 92.0994C112.05 92.0994 111.725 92.0282 111.407 91.8857C111.092 91.7431 110.831 91.526 110.622 91.2344C110.416 90.9427 110.314 90.5748 110.314 90.1307V82.5341ZM121.703 92.1591C121.067 92.1591 120.505 91.9983 120.018 91.6768C119.531 91.352 119.15 90.8946 118.875 90.3047C118.6 89.7114 118.462 89.0104 118.462 88.2017C118.462 87.3996 118.6 86.7036 118.875 86.1136C119.15 85.5237 119.533 85.0679 120.023 84.7464C120.514 84.425 121.08 84.2642 121.723 84.2642C122.221 84.2642 122.613 84.3471 122.902 84.5128C123.193 84.6752 123.415 84.8608 123.568 85.0696C123.724 85.2751 123.845 85.4441 123.931 85.5767H124.03V81.8182H125.203V92H124.07V90.8267H123.931C123.845 90.9659 123.722 91.1416 123.563 91.3537C123.404 91.5625 123.177 91.7498 122.882 91.9155C122.587 92.0779 122.194 92.1591 121.703 92.1591ZM121.863 91.1051C122.333 91.1051 122.731 90.9825 123.056 90.7372C123.381 90.4886 123.627 90.1456 123.797 89.7081C123.966 89.2673 124.05 88.7585 124.05 88.1818C124.05 87.6117 123.967 87.1129 123.801 86.6854C123.636 86.2545 123.391 85.9197 123.066 85.6811C122.741 85.4392 122.34 85.3182 121.863 85.3182C121.365 85.3182 120.951 85.4458 120.62 85.701C120.292 85.9529 120.045 86.2959 119.879 86.7301C119.717 87.161 119.635 87.6449 119.635 88.1818C119.635 88.7254 119.718 89.2192 119.884 89.6634C120.053 90.1042 120.301 90.4555 120.63 90.7173C120.961 90.9759 121.372 91.1051 121.863 91.1051ZM130.717 92.1591C129.981 92.1591 129.346 91.9967 128.813 91.6719C128.283 91.3438 127.873 90.8864 127.585 90.2997C127.3 89.7098 127.157 89.0237 127.157 88.2415C127.157 87.4593 127.3 86.7699 127.585 86.1733C127.873 85.5734 128.274 85.1061 128.788 84.7713C129.305 84.4332 129.908 84.2642 130.598 84.2642C130.995 84.2642 131.388 84.3305 131.776 84.4631C132.164 84.5956 132.517 84.8111 132.835 85.1094C133.153 85.4044 133.407 85.7955 133.596 86.2827C133.784 86.7699 133.879 87.3698 133.879 88.0824V88.5795H127.993V87.5653H132.686C132.686 87.1345 132.6 86.75 132.427 86.4119C132.258 86.0739 132.016 85.8071 131.701 85.6115C131.39 85.416 131.022 85.3182 130.598 85.3182C130.13 85.3182 129.726 85.4342 129.385 85.6662C129.047 85.8949 128.786 86.1932 128.604 86.5611C128.422 86.929 128.331 87.3234 128.331 87.7443V88.4205C128.331 88.9972 128.43 89.486 128.629 89.8871C128.831 90.2848 129.111 90.5881 129.469 90.7969C129.827 91.0024 130.243 91.1051 130.717 91.1051C131.025 91.1051 131.304 91.062 131.552 90.9759C131.804 90.8864 132.021 90.7538 132.203 90.5781C132.386 90.3991 132.527 90.1771 132.626 89.9119L133.76 90.2301C133.64 90.6146 133.44 90.9527 133.158 91.2443C132.876 91.5327 132.528 91.758 132.114 91.9205C131.7 92.0795 131.234 92.1591 130.717 92.1591ZM141.073 86.0739L140.019 86.3722C139.953 86.1965 139.855 86.0258 139.725 85.8601C139.6 85.6911 139.427 85.5518 139.208 85.4425C138.99 85.3331 138.71 85.2784 138.368 85.2784C137.901 85.2784 137.511 85.3861 137.2 85.6016C136.892 85.8137 136.738 86.0838 136.738 86.4119C136.738 86.7036 136.844 86.9339 137.056 87.103C137.268 87.272 137.599 87.4129 138.05 87.5256L139.184 87.804C139.866 87.9697 140.375 88.2232 140.71 88.5646C141.045 88.9027 141.212 89.3385 141.212 89.8722C141.212 90.3097 141.086 90.7008 140.834 91.0455C140.586 91.3902 140.238 91.6619 139.79 91.8608C139.343 92.0597 138.822 92.1591 138.229 92.1591C137.45 92.1591 136.806 91.9901 136.295 91.652C135.785 91.3139 135.462 90.8201 135.326 90.1705L136.439 89.892C136.545 90.303 136.746 90.6113 137.041 90.8168C137.339 91.0223 137.729 91.125 138.209 91.125C138.756 91.125 139.19 91.009 139.512 90.777C139.837 90.5417 139.999 90.2599 139.999 89.9318C139.999 89.6667 139.906 89.4446 139.721 89.2656C139.535 89.0833 139.25 88.9474 138.865 88.858L137.593 88.5597C136.893 88.3939 136.38 88.1371 136.051 87.7891C135.727 87.4377 135.564 86.9986 135.564 86.4716C135.564 86.0407 135.685 85.6596 135.927 85.3281C136.172 84.9967 136.506 84.7365 136.926 84.5476C137.351 84.3587 137.831 84.2642 138.368 84.2642C139.124 84.2642 139.717 84.4299 140.148 84.7614C140.582 85.0928 140.891 85.5303 141.073 86.0739ZM146.08 92.1591C145.365 92.1591 144.748 91.9901 144.231 91.652C143.714 91.3139 143.316 90.8482 143.038 90.255C142.759 89.6617 142.62 88.9839 142.62 88.2216C142.62 87.446 142.763 86.7616 143.048 86.1683C143.336 85.5717 143.737 85.1061 144.251 84.7713C144.768 84.4332 145.371 84.2642 146.061 84.2642C146.597 84.2642 147.081 84.3636 147.512 84.5625C147.943 84.7614 148.296 85.0398 148.571 85.3977C148.846 85.7557 149.017 86.1733 149.083 86.6506H147.91C147.82 86.3026 147.622 85.9943 147.313 85.7259C147.008 85.4541 146.597 85.3182 146.08 85.3182C145.623 85.3182 145.222 85.4375 144.877 85.6761C144.536 85.9115 144.269 86.2446 144.077 86.6754C143.888 87.103 143.794 87.6051 143.794 88.1818C143.794 88.7718 143.886 89.2855 144.072 89.723C144.261 90.1605 144.526 90.5002 144.867 90.7422C145.212 90.9841 145.616 91.1051 146.08 91.1051C146.385 91.1051 146.662 91.0521 146.911 90.946C147.159 90.84 147.37 90.6875 147.542 90.4886C147.714 90.2898 147.837 90.0511 147.91 89.7727H149.083C149.017 90.2235 148.853 90.6295 148.591 90.9908C148.333 91.3487 147.99 91.6338 147.562 91.8459C147.138 92.0547 146.644 92.1591 146.08 92.1591ZM150.798 92V84.3636H151.932V85.517H152.012C152.151 85.1392 152.403 84.8326 152.767 84.5973C153.132 84.362 153.543 84.2443 154 84.2443C154.086 84.2443 154.194 84.246 154.323 84.2493C154.453 84.2526 154.55 84.2576 154.617 84.2642V85.4574C154.577 85.4474 154.486 85.4325 154.343 85.4126C154.204 85.3894 154.057 85.3778 153.901 85.3778C153.53 85.3778 153.198 85.4557 152.906 85.6115C152.618 85.764 152.389 85.9761 152.22 86.2479C152.055 86.5163 151.972 86.8229 151.972 87.1676V92H150.798ZM156.007 92V84.3636H157.181V92H156.007ZM156.604 83.0909C156.375 83.0909 156.178 83.013 156.012 82.8572C155.85 82.7015 155.769 82.5142 155.769 82.2955C155.769 82.0767 155.85 81.8894 156.012 81.7337C156.178 81.5779 156.375 81.5 156.604 81.5C156.833 81.5 157.028 81.5779 157.191 81.7337C157.356 81.8894 157.439 82.0767 157.439 82.2955C157.439 82.5142 157.356 82.7015 157.191 82.8572C157.028 83.013 156.833 83.0909 156.604 83.0909ZM159.33 94.8636V84.3636H160.463V85.5767H160.602C160.689 85.4441 160.808 85.2751 160.96 85.0696C161.116 84.8608 161.338 84.6752 161.627 84.5128C161.918 84.3471 162.313 84.2642 162.81 84.2642C163.453 84.2642 164.02 84.425 164.51 84.7464C165.001 85.0679 165.383 85.5237 165.659 86.1136C165.934 86.7036 166.071 87.3996 166.071 88.2017C166.071 89.0104 165.934 89.7114 165.659 90.3047C165.383 90.8946 165.002 91.352 164.515 91.6768C164.028 91.9983 163.466 92.1591 162.83 92.1591C162.339 92.1591 161.946 92.0779 161.651 91.9155C161.356 91.7498 161.129 91.5625 160.97 91.3537C160.811 91.1416 160.689 90.9659 160.602 90.8267H160.503V94.8636H159.33ZM160.483 88.1818C160.483 88.7585 160.568 89.2673 160.737 89.7081C160.906 90.1456 161.153 90.4886 161.477 90.7372C161.802 90.9825 162.2 91.1051 162.671 91.1051C163.161 91.1051 163.57 90.9759 163.899 90.7173C164.23 90.4555 164.479 90.1042 164.644 89.6634C164.813 89.2192 164.898 88.7254 164.898 88.1818C164.898 87.6449 164.815 87.161 164.649 86.7301C164.487 86.2959 164.24 85.9529 163.909 85.701C163.58 85.4458 163.168 85.3182 162.671 85.3182C162.193 85.3182 161.792 85.4392 161.468 85.6811C161.143 85.9197 160.897 86.2545 160.732 86.6854C160.566 87.1129 160.483 87.6117 160.483 88.1818ZM171.182 84.3636V85.358H167.225V84.3636H171.182ZM168.378 82.5341H169.551V89.8125C169.551 90.1439 169.599 90.3925 169.695 90.5582C169.795 90.7206 169.921 90.83 170.073 90.8864C170.229 90.9394 170.393 90.9659 170.566 90.9659C170.695 90.9659 170.801 90.9593 170.884 90.946C170.967 90.9295 171.033 90.9162 171.083 90.9062L171.321 91.9602C171.242 91.9901 171.131 92.0199 170.988 92.0497C170.846 92.0829 170.665 92.0994 170.446 92.0994C170.115 92.0994 169.79 92.0282 169.472 91.8857C169.157 91.7431 168.895 91.526 168.686 91.2344C168.481 90.9427 168.378 90.5748 168.378 90.1307V82.5341ZM172.947 92V84.3636H174.12V92H172.947ZM173.544 83.0909C173.315 83.0909 173.118 83.013 172.952 82.8572C172.789 82.7015 172.708 82.5142 172.708 82.2955C172.708 82.0767 172.789 81.8894 172.952 81.7337C173.118 81.5779 173.315 81.5 173.544 81.5C173.772 81.5 173.968 81.5779 174.13 81.7337C174.296 81.8894 174.379 82.0767 174.379 82.2955C174.379 82.5142 174.296 82.7015 174.13 82.8572C173.968 83.013 173.772 83.0909 173.544 83.0909ZM179.371 92.1591C178.682 92.1591 178.077 91.995 177.557 91.6669C177.04 91.3388 176.635 90.8797 176.344 90.2898C176.055 89.6998 175.911 89.0104 175.911 88.2216C175.911 87.4261 176.055 86.7318 176.344 86.1385C176.635 85.5452 177.04 85.0845 177.557 84.7564C178.077 84.4283 178.682 84.2642 179.371 84.2642C180.061 84.2642 180.664 84.4283 181.181 84.7564C181.701 85.0845 182.106 85.5452 182.394 86.1385C182.686 86.7318 182.832 87.4261 182.832 88.2216C182.832 89.0104 182.686 89.6998 182.394 90.2898C182.106 90.8797 181.701 91.3388 181.181 91.6669C180.664 91.995 180.061 92.1591 179.371 92.1591ZM179.371 91.1051C179.895 91.1051 180.326 90.9709 180.664 90.7024C181.002 90.4339 181.252 90.081 181.415 89.6435C181.577 89.206 181.658 88.732 181.658 88.2216C181.658 87.7112 181.577 87.2356 181.415 86.7947C181.252 86.3539 181.002 85.9976 180.664 85.7259C180.326 85.4541 179.895 85.3182 179.371 85.3182C178.848 85.3182 178.417 85.4541 178.079 85.7259C177.741 85.9976 177.491 86.3539 177.328 86.7947C177.166 87.2356 177.085 87.7112 177.085 88.2216C177.085 88.732 177.166 89.206 177.328 89.6435C177.491 90.081 177.741 90.4339 178.079 90.7024C178.417 90.9709 178.848 91.1051 179.371 91.1051ZM185.796 87.4062V92H184.623V84.3636H185.756V85.5568H185.856C186.035 85.169 186.306 84.8575 186.671 84.6222C187.036 84.3835 187.506 84.2642 188.083 84.2642C188.6 84.2642 189.052 84.3703 189.44 84.5824C189.828 84.7912 190.13 85.1094 190.345 85.5369C190.56 85.9612 190.668 86.4981 190.668 87.1477V92H189.495V87.2273C189.495 86.6274 189.339 86.16 189.028 85.8253C188.716 85.4872 188.288 85.3182 187.745 85.3182C187.37 85.3182 187.036 85.3994 186.741 85.5618C186.449 85.7242 186.219 85.9612 186.05 86.2727C185.881 86.5843 185.796 86.9621 185.796 87.4062ZM197.923 87.4062V92H196.75V81.8182H197.923V85.5568H198.022C198.201 85.1624 198.47 84.8492 198.828 84.6172C199.189 84.3819 199.67 84.2642 200.27 84.2642C200.79 84.2642 201.246 84.3686 201.637 84.5774C202.028 84.7829 202.331 85.0994 202.547 85.527C202.765 85.9512 202.875 86.4915 202.875 87.1477V92H201.701V87.2273C201.701 86.6207 201.544 86.1518 201.229 85.8203C200.917 85.4856 200.485 85.3182 199.931 85.3182C199.547 85.3182 199.202 85.3994 198.897 85.5618C198.596 85.7242 198.357 85.9612 198.181 86.2727C198.009 86.5843 197.923 86.9621 197.923 87.4062ZM208.223 92.1591C207.487 92.1591 206.852 91.9967 206.319 91.6719C205.788 91.3438 205.379 90.8864 205.091 90.2997C204.806 89.7098 204.663 89.0237 204.663 88.2415C204.663 87.4593 204.806 86.7699 205.091 86.1733C205.379 85.5734 205.78 85.1061 206.294 84.7713C206.811 84.4332 207.414 84.2642 208.104 84.2642C208.501 84.2642 208.894 84.3305 209.282 84.4631C209.67 84.5956 210.023 84.8111 210.341 85.1094C210.659 85.4044 210.912 85.7955 211.101 86.2827C211.29 86.7699 211.385 87.3698 211.385 88.0824V88.5795H205.498V87.5653H210.192C210.192 87.1345 210.105 86.75 209.933 86.4119C209.764 86.0739 209.522 85.8071 209.207 85.6115C208.896 85.416 208.528 85.3182 208.104 85.3182C207.636 85.3182 207.232 85.4342 206.89 85.6662C206.552 85.8949 206.292 86.1932 206.11 86.5611C205.928 86.929 205.836 87.3234 205.836 87.7443V88.4205C205.836 88.9972 205.936 89.486 206.135 89.8871C206.337 90.2848 206.617 90.5881 206.975 90.7969C207.333 91.0024 207.749 91.1051 208.223 91.1051C208.531 91.1051 208.809 91.062 209.058 90.9759C209.31 90.8864 209.527 90.7538 209.709 90.5781C209.892 90.3991 210.032 90.1771 210.132 89.9119L211.265 90.2301C211.146 90.6146 210.946 90.9527 210.664 91.2443C210.382 91.5327 210.034 91.758 209.62 91.9205C209.206 92.0795 208.74 92.1591 208.223 92.1591ZM213.17 92V84.3636H214.303V85.517H214.383C214.522 85.1392 214.774 84.8326 215.138 84.5973C215.503 84.362 215.914 84.2443 216.371 84.2443C216.457 84.2443 216.565 84.246 216.694 84.2493C216.824 84.2526 216.921 84.2576 216.988 84.2642V85.4574C216.948 85.4474 216.857 85.4325 216.714 85.4126C216.575 85.3894 216.428 85.3778 216.272 85.3778C215.901 85.3778 215.569 85.4557 215.278 85.6115C214.989 85.764 214.76 85.9761 214.591 86.2479C214.426 86.5163 214.343 86.8229 214.343 87.1676V92H213.17ZM221.348 92.1591C220.612 92.1591 219.977 91.9967 219.444 91.6719C218.913 91.3438 218.504 90.8864 218.216 90.2997C217.931 89.7098 217.788 89.0237 217.788 88.2415C217.788 87.4593 217.931 86.7699 218.216 86.1733C218.504 85.5734 218.905 85.1061 219.419 84.7713C219.936 84.4332 220.539 84.2642 221.229 84.2642C221.626 84.2642 222.019 84.3305 222.407 84.4631C222.795 84.5956 223.148 84.8111 223.466 85.1094C223.784 85.4044 224.037 85.7955 224.226 86.2827C224.415 86.7699 224.51 87.3698 224.51 88.0824V88.5795H218.623V87.5653H223.317C223.317 87.1345 223.23 86.75 223.058 86.4119C222.889 86.0739 222.647 85.8071 222.332 85.6115C222.021 85.416 221.653 85.3182 221.229 85.3182C220.761 85.3182 220.357 85.4342 220.015 85.6662C219.677 85.8949 219.417 86.1932 219.235 86.5611C219.053 86.929 218.961 87.3234 218.961 87.7443V88.4205C218.961 88.9972 219.061 89.486 219.26 89.8871C219.462 90.2848 219.742 90.5881 220.1 90.7969C220.458 91.0024 220.874 91.1051 221.348 91.1051C221.656 91.1051 221.934 91.062 222.183 90.9759C222.435 90.8864 222.652 90.7538 222.834 90.5781C223.017 90.3991 223.157 90.1771 223.257 89.9119L224.39 90.2301C224.271 90.6146 224.071 90.9527 223.789 91.2443C223.507 91.5327 223.159 91.758 222.745 91.9205C222.331 92.0795 221.865 92.1591 221.348 92.1591ZM227.15 92.0795C226.904 92.0795 226.694 91.9917 226.518 91.8161C226.343 91.6404 226.255 91.4299 226.255 91.1847C226.255 90.9394 226.343 90.7289 226.518 90.5533C226.694 90.3776 226.904 90.2898 227.15 90.2898C227.395 90.2898 227.605 90.3776 227.781 90.5533C227.957 90.7289 228.045 90.9394 228.045 91.1847C228.045 91.3471 228.003 91.4962 227.92 91.6321C227.841 91.768 227.733 91.8774 227.597 91.9602C227.465 92.0398 227.315 92.0795 227.15 92.0795ZM234.088 92V84.3636H235.261V92H234.088ZM234.684 83.0909C234.455 83.0909 234.258 83.013 234.093 82.8572C233.93 82.7015 233.849 82.5142 233.849 82.2955C233.849 82.0767 233.93 81.8894 234.093 81.7337C234.258 81.5779 234.455 81.5 234.684 81.5C234.913 81.5 235.108 81.5779 235.271 81.7337C235.436 81.8894 235.519 82.0767 235.519 82.2955C235.519 82.5142 235.436 82.7015 235.271 82.8572C235.108 83.013 234.913 83.0909 234.684 83.0909ZM240.731 84.3636V85.358H236.773V84.3636H240.731ZM237.927 82.5341H239.1V89.8125C239.1 90.1439 239.148 90.3925 239.244 90.5582C239.344 90.7206 239.47 90.83 239.622 90.8864C239.778 90.9394 239.942 90.9659 240.114 90.9659C240.244 90.9659 240.35 90.9593 240.433 90.946C240.515 90.9295 240.582 90.9162 240.631 90.9062L240.87 91.9602C240.79 91.9901 240.679 92.0199 240.537 92.0497C240.394 92.0829 240.214 92.0994 239.995 92.0994C239.664 92.0994 239.339 92.0282 239.021 91.8857C238.706 91.7431 238.444 91.526 238.235 91.2344C238.03 90.9427 237.927 90.5748 237.927 90.1307V82.5341ZM248.163 92L245.837 84.3636H247.07L248.72 90.2102H248.8L250.43 84.3636H251.683L253.294 90.1903H253.374L255.024 84.3636H256.257L253.93 92H252.777L251.107 86.1335H250.987L249.317 92H248.163ZM260.651 92.1591C259.961 92.1591 259.356 91.995 258.836 91.6669C258.319 91.3388 257.915 90.8797 257.623 90.2898C257.335 89.6998 257.191 89.0104 257.191 88.2216C257.191 87.4261 257.335 86.7318 257.623 86.1385C257.915 85.5452 258.319 85.0845 258.836 84.7564C259.356 84.4283 259.961 84.2642 260.651 84.2642C261.34 84.2642 261.943 84.4283 262.46 84.7564C262.981 85.0845 263.385 85.5452 263.673 86.1385C263.965 86.7318 264.111 87.4261 264.111 88.2216C264.111 89.0104 263.965 89.6998 263.673 90.2898C263.385 90.8797 262.981 91.3388 262.46 91.6669C261.943 91.995 261.34 92.1591 260.651 92.1591ZM260.651 91.1051C261.174 91.1051 261.605 90.9709 261.943 90.7024C262.281 90.4339 262.532 90.081 262.694 89.6435C262.856 89.206 262.938 88.732 262.938 88.2216C262.938 87.7112 262.856 87.2356 262.694 86.7947C262.532 86.3539 262.281 85.9976 261.943 85.7259C261.605 85.4541 261.174 85.3182 260.651 85.3182C260.127 85.3182 259.696 85.4541 259.358 85.7259C259.02 85.9976 258.77 86.3539 258.607 86.7947C258.445 87.2356 258.364 87.7112 258.364 88.2216C258.364 88.732 258.445 89.206 258.607 89.6435C258.77 90.081 259.02 90.4339 259.358 90.7024C259.696 90.9709 260.127 91.1051 260.651 91.1051ZM270.714 88.8778V84.3636H271.888V92H270.714V90.7074H270.635C270.456 91.0952 270.178 91.425 269.8 91.6967C269.422 91.9652 268.945 92.0994 268.368 92.0994C267.891 92.0994 267.466 91.995 267.095 91.7862C266.724 91.5741 266.432 91.2559 266.22 90.8317C266.008 90.4041 265.902 89.8655 265.902 89.2159V84.3636H267.075V89.1364C267.075 89.6932 267.231 90.1373 267.543 90.4688C267.857 90.8002 268.259 90.9659 268.746 90.9659C269.037 90.9659 269.334 90.8913 269.636 90.7422C269.941 90.593 270.196 90.3643 270.401 90.0561C270.61 89.7479 270.714 89.3551 270.714 88.8778ZM275.21 81.8182V92H274.037V81.8182H275.21ZM280.243 92.1591C279.606 92.1591 279.044 91.9983 278.557 91.6768C278.07 91.352 277.689 90.8946 277.414 90.3047C277.139 89.7114 277.001 89.0104 277.001 88.2017C277.001 87.3996 277.139 86.7036 277.414 86.1136C277.689 85.5237 278.072 85.0679 278.562 84.7464C279.053 84.425 279.619 84.2642 280.262 84.2642C280.76 84.2642 281.152 84.3471 281.441 84.5128C281.732 84.6752 281.954 84.8608 282.107 85.0696C282.263 85.2751 282.384 85.4441 282.47 85.5767H282.569V81.8182H283.743V92H282.609V90.8267H282.47C282.384 90.9659 282.261 91.1416 282.102 91.3537C281.943 91.5625 281.716 91.7498 281.421 91.9155C281.126 92.0779 280.733 92.1591 280.243 92.1591ZM280.402 91.1051C280.872 91.1051 281.27 90.9825 281.595 90.7372C281.92 90.4886 282.167 90.1456 282.336 89.7081C282.505 89.2673 282.589 88.7585 282.589 88.1818C282.589 87.6117 282.506 87.1129 282.341 86.6854C282.175 86.2545 281.93 85.9197 281.605 85.6811C281.28 85.4392 280.879 85.3182 280.402 85.3182C279.904 85.3182 279.49 85.4458 279.159 85.701C278.831 85.9529 278.584 86.2959 278.418 86.7301C278.256 87.161 278.174 87.6449 278.174 88.1818C278.174 88.7254 278.257 89.2192 278.423 89.6634C278.592 90.1042 278.841 90.4555 279.169 90.7173C279.5 90.9759 279.911 91.1051 280.402 91.1051ZM18.2472 102.818V113H17.0739V102.818H18.2472ZM23.4984 113.159C22.809 113.159 22.2041 112.995 21.6838 112.667C21.1667 112.339 20.7624 111.88 20.4707 111.29C20.1824 110.7 20.0382 110.01 20.0382 109.222C20.0382 108.426 20.1824 107.732 20.4707 107.138C20.7624 106.545 21.1667 106.085 21.6838 105.756C22.2041 105.428 22.809 105.264 23.4984 105.264C24.1878 105.264 24.791 105.428 25.3081 105.756C25.8284 106.085 26.2328 106.545 26.5211 107.138C26.8128 107.732 26.9586 108.426 26.9586 109.222C26.9586 110.01 26.8128 110.7 26.5211 111.29C26.2328 111.88 25.8284 112.339 25.3081 112.667C24.791 112.995 24.1878 113.159 23.4984 113.159ZM23.4984 112.105C24.0221 112.105 24.4529 111.971 24.791 111.702C25.1291 111.434 25.3793 111.081 25.5417 110.643C25.7041 110.206 25.7853 109.732 25.7853 109.222C25.7853 108.711 25.7041 108.236 25.5417 107.795C25.3793 107.354 25.1291 106.998 24.791 106.726C24.4529 106.454 24.0221 106.318 23.4984 106.318C22.9747 106.318 22.5439 106.454 22.2058 106.726C21.8677 106.998 21.6175 107.354 21.4551 107.795C21.2927 108.236 21.2115 108.711 21.2115 109.222C21.2115 109.732 21.2927 110.206 21.4551 110.643C21.6175 111.081 21.8677 111.434 22.2058 111.702C22.5439 111.971 22.9747 112.105 23.4984 112.105ZM31.8519 113.159C31.1625 113.159 30.5576 112.995 30.0373 112.667C29.5202 112.339 29.1159 111.88 28.8242 111.29C28.5359 110.7 28.3917 110.01 28.3917 109.222C28.3917 108.426 28.5359 107.732 28.8242 107.138C29.1159 106.545 29.5202 106.085 30.0373 105.756C30.5576 105.428 31.1625 105.264 31.8519 105.264C32.5413 105.264 33.1445 105.428 33.6616 105.756C34.1819 106.085 34.5863 106.545 34.8746 107.138C35.1663 107.732 35.3121 108.426 35.3121 109.222C35.3121 110.01 35.1663 110.7 34.8746 111.29C34.5863 111.88 34.1819 112.339 33.6616 112.667C33.1445 112.995 32.5413 113.159 31.8519 113.159ZM31.8519 112.105C32.3756 112.105 32.8065 111.971 33.1445 111.702C33.4826 111.434 33.7328 111.081 33.8952 110.643C34.0576 110.206 34.1388 109.732 34.1388 109.222C34.1388 108.711 34.0576 108.236 33.8952 107.795C33.7328 107.354 33.4826 106.998 33.1445 106.726C32.8065 106.454 32.3756 106.318 31.8519 106.318C31.3282 106.318 30.8974 106.454 30.5593 106.726C30.2212 106.998 29.971 107.354 29.8086 107.795C29.6462 108.236 29.565 108.711 29.565 109.222C29.565 109.732 29.6462 110.206 29.8086 110.643C29.971 111.081 30.2212 111.434 30.5593 111.702C30.8974 111.971 31.3282 112.105 31.8519 112.105ZM38.1969 110.216L38.177 108.764H38.4157L41.7566 105.364H43.2083L39.6486 108.963H39.5492L38.1969 110.216ZM37.1032 113V102.818H38.2765V113H37.1032ZM41.9554 113L38.9725 109.222L39.8077 108.406L43.4469 113H41.9554ZM48.815 113V102.818H49.9883V106.577H50.0877C50.1739 106.444 50.2932 106.275 50.4457 106.07C50.6014 105.861 50.8235 105.675 51.1119 105.513C51.4035 105.347 51.7979 105.264 52.2951 105.264C52.9381 105.264 53.5049 105.425 53.9954 105.746C54.4859 106.068 54.8687 106.524 55.1438 107.114C55.4189 107.704 55.5565 108.4 55.5565 109.202C55.5565 110.01 55.4189 110.711 55.1438 111.305C54.8687 111.895 54.4876 112.352 54.0004 112.677C53.5131 112.998 52.9513 113.159 52.315 113.159C51.8245 113.159 51.4317 113.078 51.1367 112.915C50.8417 112.75 50.6147 112.562 50.4556 112.354C50.2965 112.142 50.1739 111.966 50.0877 111.827H49.9485V113H48.815ZM49.9684 109.182C49.9684 109.759 50.0529 110.267 50.2219 110.708C50.391 111.146 50.6379 111.489 50.9627 111.737C51.2875 111.982 51.6853 112.105 52.1559 112.105C52.6464 112.105 53.0558 111.976 53.3839 111.717C53.7153 111.455 53.9639 111.104 54.1296 110.663C54.2987 110.219 54.3832 109.725 54.3832 109.182C54.3832 108.645 54.3003 108.161 54.1346 107.73C53.9722 107.296 53.7253 106.953 53.3938 106.701C53.0657 106.446 52.6531 106.318 52.1559 106.318C51.6786 106.318 51.2776 106.439 50.9528 106.681C50.628 106.92 50.3827 107.254 50.217 107.685C50.0513 108.113 49.9684 108.612 49.9684 109.182ZM60.5529 113.159C59.8171 113.159 59.1824 112.997 58.6488 112.672C58.1185 112.344 57.7092 111.886 57.4208 111.3C57.1358 110.71 56.9933 110.024 56.9933 109.241C56.9933 108.459 57.1358 107.77 57.4208 107.173C57.7092 106.573 58.1102 106.106 58.6239 105.771C59.141 105.433 59.7442 105.264 60.4336 105.264C60.8313 105.264 61.2241 105.33 61.6119 105.463C61.9996 105.596 62.3526 105.811 62.6708 106.109C62.989 106.404 63.2425 106.795 63.4315 107.283C63.6204 107.77 63.7148 108.37 63.7148 109.082V109.58H57.8285V108.565H62.5217C62.5217 108.134 62.4355 107.75 62.2631 107.412C62.0941 107.074 61.8522 106.807 61.5373 106.612C61.2257 106.416 60.8578 106.318 60.4336 106.318C59.9663 106.318 59.5619 106.434 59.2205 106.666C58.8825 106.895 58.6223 107.193 58.44 107.561C58.2577 107.929 58.1665 108.323 58.1665 108.744V109.42C58.1665 109.997 58.266 110.486 58.4648 110.887C58.667 111.285 58.9471 111.588 59.305 111.797C59.663 112.002 60.079 112.105 60.5529 112.105C60.8612 112.105 61.1396 112.062 61.3881 111.976C61.64 111.886 61.8571 111.754 62.0394 111.578C62.2217 111.399 62.3626 111.177 62.462 110.912L63.5955 111.23C63.4762 111.615 63.2757 111.953 62.994 112.244C62.7122 112.533 62.3642 112.758 61.9499 112.92C61.5356 113.08 61.07 113.159 60.5529 113.159ZM68.8207 105.364V106.358H64.8633V105.364H68.8207ZM66.0167 103.534H67.19V110.812C67.19 111.144 67.238 111.393 67.3342 111.558C67.4336 111.721 67.5595 111.83 67.712 111.886C67.8678 111.939 68.0318 111.966 68.2042 111.966C68.3335 111.966 68.4395 111.959 68.5224 111.946C68.6052 111.929 68.6715 111.916 68.7212 111.906L68.9599 112.96C68.8803 112.99 68.7693 113.02 68.6268 113.05C68.4843 113.083 68.3036 113.099 68.0849 113.099C67.7534 113.099 67.4286 113.028 67.1104 112.886C66.7956 112.743 66.5337 112.526 66.3249 112.234C66.1194 111.943 66.0167 111.575 66.0167 111.131V103.534ZM73.9066 105.364V106.358H69.9492V105.364H73.9066ZM71.1026 103.534H72.2759V110.812C72.2759 111.144 72.324 111.393 72.4201 111.558C72.5195 111.721 72.6455 111.83 72.7979 111.886C72.9537 111.939 73.1178 111.966 73.2901 111.966C73.4194 111.966 73.5255 111.959 73.6083 111.946C73.6912 111.929 73.7575 111.916 73.8072 111.906L74.0458 112.96C73.9663 112.99 73.8552 113.02 73.7127 113.05C73.5702 113.083 73.3896 113.099 73.1708 113.099C72.8394 113.099 72.5146 113.028 72.1964 112.886C71.8815 112.743 71.6197 112.526 71.4109 112.234C71.2054 111.943 71.1026 111.575 71.1026 111.131V103.534ZM78.7912 113.159C78.0554 113.159 77.4207 112.997 76.8871 112.672C76.3568 112.344 75.9474 111.886 75.6591 111.3C75.3741 110.71 75.2315 110.024 75.2315 109.241C75.2315 108.459 75.3741 107.77 75.6591 107.173C75.9474 106.573 76.3485 106.106 76.8622 105.771C77.3793 105.433 77.9825 105.264 78.6719 105.264C79.0696 105.264 79.4624 105.33 79.8501 105.463C80.2379 105.596 80.5909 105.811 80.9091 106.109C81.2273 106.404 81.4808 106.795 81.6697 107.283C81.8587 107.77 81.9531 108.37 81.9531 109.082V109.58H76.0668V108.565H80.7599C80.7599 108.134 80.6738 107.75 80.5014 107.412C80.3324 107.074 80.0904 106.807 79.7756 106.612C79.464 106.416 79.0961 106.318 78.6719 106.318C78.2045 106.318 77.8002 106.434 77.4588 106.666C77.1207 106.895 76.8606 107.193 76.6783 107.561C76.496 107.929 76.4048 108.323 76.4048 108.744V109.42C76.4048 109.997 76.5043 110.486 76.7031 110.887C76.9053 111.285 77.1854 111.588 77.5433 111.797C77.9013 112.002 78.3172 112.105 78.7912 112.105C79.0994 112.105 79.3778 112.062 79.6264 111.976C79.8783 111.886 80.0954 111.754 80.2777 111.578C80.46 111.399 80.6009 111.177 80.7003 110.912L81.8338 111.23C81.7145 111.615 81.514 111.953 81.2322 112.244C80.9505 112.533 80.6025 112.758 80.1882 112.92C79.7739 113.08 79.3082 113.159 78.7912 113.159ZM83.7379 113V105.364H84.8714V106.517H84.951C85.0902 106.139 85.3421 105.833 85.7067 105.597C86.0713 105.362 86.4822 105.244 86.9396 105.244C87.0258 105.244 87.1335 105.246 87.2628 105.249C87.392 105.253 87.4898 105.258 87.5561 105.264V106.457C87.5163 106.447 87.4252 106.433 87.2827 106.413C87.1435 106.389 86.996 106.378 86.8402 106.378C86.469 106.378 86.1375 106.456 85.8459 106.612C85.5575 106.764 85.3288 106.976 85.1598 107.248C84.9941 107.516 84.9112 107.823 84.9112 108.168V113H83.7379ZM95.1316 113.179C94.6477 113.179 94.2085 113.088 93.8141 112.906C93.4197 112.72 93.1065 112.453 92.8745 112.105C92.6425 111.754 92.5265 111.33 92.5265 110.832C92.5265 110.395 92.6126 110.04 92.785 109.768C92.9573 109.493 93.1877 109.278 93.476 109.122C93.7644 108.966 94.0826 108.85 94.4306 108.774C94.7819 108.695 95.1349 108.632 95.4895 108.585C95.9535 108.526 96.3297 108.481 96.6181 108.451C96.9097 108.418 97.1219 108.363 97.2544 108.287C97.3903 108.211 97.4583 108.078 97.4583 107.889V107.849C97.4583 107.359 97.324 106.978 97.0556 106.706C96.7904 106.434 96.3877 106.298 95.8475 106.298C95.2873 106.298 94.8482 106.421 94.53 106.666C94.2118 106.911 93.9881 107.173 93.8588 107.452L92.7452 107.054C92.9441 106.59 93.2092 106.229 93.5407 105.97C93.8754 105.708 94.24 105.526 94.6344 105.423C95.0321 105.317 95.4232 105.264 95.8077 105.264C96.053 105.264 96.3347 105.294 96.6529 105.354C96.9744 105.41 97.2843 105.528 97.5826 105.707C97.8842 105.886 98.1344 106.156 98.3333 106.517C98.5321 106.878 98.6316 107.362 98.6316 107.969V113H97.4583V111.966H97.3986C97.3191 112.132 97.1865 112.309 97.0009 112.498C96.8153 112.687 96.5684 112.848 96.2601 112.98C95.9519 113.113 95.5757 113.179 95.1316 113.179ZM95.3105 112.125C95.7746 112.125 96.1657 112.034 96.4838 111.852C96.8053 111.669 97.0473 111.434 97.2097 111.146C97.3754 110.857 97.4583 110.554 97.4583 110.236V109.162C97.4086 109.222 97.2992 109.276 97.1301 109.326C96.9644 109.372 96.7722 109.414 96.5534 109.45C96.338 109.483 96.1275 109.513 95.9221 109.54C95.7199 109.563 95.5558 109.583 95.4299 109.599C95.1249 109.639 94.8399 109.704 94.5748 109.793C94.3129 109.879 94.1008 110.01 93.9384 110.186C93.7793 110.358 93.6998 110.594 93.6998 110.892C93.6998 111.3 93.8506 111.608 94.1522 111.817C94.4571 112.022 94.8432 112.125 95.3105 112.125ZM106.182 107.074L105.128 107.372C105.062 107.196 104.964 107.026 104.835 106.86C104.709 106.691 104.537 106.552 104.318 106.442C104.099 106.333 103.819 106.278 103.478 106.278C103.01 106.278 102.621 106.386 102.309 106.602C102.001 106.814 101.847 107.084 101.847 107.412C101.847 107.704 101.953 107.934 102.165 108.103C102.377 108.272 102.709 108.413 103.159 108.526L104.293 108.804C104.976 108.97 105.484 109.223 105.819 109.565C106.154 109.903 106.321 110.339 106.321 110.872C106.321 111.31 106.195 111.701 105.944 112.045C105.695 112.39 105.347 112.662 104.9 112.861C104.452 113.06 103.932 113.159 103.338 113.159C102.56 113.159 101.915 112.99 101.404 112.652C100.894 112.314 100.571 111.82 100.435 111.17L101.549 110.892C101.655 111.303 101.855 111.611 102.15 111.817C102.449 112.022 102.838 112.125 103.319 112.125C103.865 112.125 104.3 112.009 104.621 111.777C104.946 111.542 105.108 111.26 105.108 110.932C105.108 110.667 105.016 110.445 104.83 110.266C104.644 110.083 104.359 109.947 103.975 109.858L102.702 109.56C102.003 109.394 101.489 109.137 101.161 108.789C100.836 108.438 100.674 107.999 100.674 107.472C100.674 107.041 100.795 106.66 101.037 106.328C101.282 105.997 101.615 105.737 102.036 105.548C102.46 105.359 102.941 105.264 103.478 105.264C104.233 105.264 104.827 105.43 105.257 105.761C105.692 106.093 106 106.53 106.182 107.074ZM115.346 105.364V106.358H111.389V105.364H115.346ZM112.542 103.534H113.715V110.812C113.715 111.144 113.763 111.393 113.86 111.558C113.959 111.721 114.085 111.83 114.237 111.886C114.393 111.939 114.557 111.966 114.73 111.966C114.859 111.966 114.965 111.959 115.048 111.946C115.131 111.929 115.197 111.916 115.247 111.906L115.485 112.96C115.406 112.99 115.295 113.02 115.152 113.05C115.01 113.083 114.829 113.099 114.61 113.099C114.279 113.099 113.954 113.028 113.636 112.886C113.321 112.743 113.059 112.526 112.85 112.234C112.645 111.943 112.542 111.575 112.542 111.131V103.534ZM118.841 113L116.514 105.364H117.747L119.398 111.21H119.477L121.108 105.364H122.361L123.972 111.19H124.051L125.702 105.364H126.935L124.608 113H123.455L121.784 107.134H121.665L119.994 113H118.841ZM131.328 113.159C130.639 113.159 130.034 112.995 129.514 112.667C128.997 112.339 128.592 111.88 128.301 111.29C128.012 110.7 127.868 110.01 127.868 109.222C127.868 108.426 128.012 107.732 128.301 107.138C128.592 106.545 128.997 106.085 129.514 105.756C130.034 105.428 130.639 105.264 131.328 105.264C132.018 105.264 132.621 105.428 133.138 105.756C133.658 106.085 134.063 106.545 134.351 107.138C134.643 107.732 134.789 108.426 134.789 109.222C134.789 110.01 134.643 110.7 134.351 111.29C134.063 111.88 133.658 112.339 133.138 112.667C132.621 112.995 132.018 113.159 131.328 113.159ZM131.328 112.105C131.852 112.105 132.283 111.971 132.621 111.702C132.959 111.434 133.209 111.081 133.372 110.643C133.534 110.206 133.615 109.732 133.615 109.222C133.615 108.711 133.534 108.236 133.372 107.795C133.209 107.354 132.959 106.998 132.621 106.726C132.283 106.454 131.852 106.318 131.328 106.318C130.805 106.318 130.374 106.454 130.036 106.726C129.698 106.998 129.448 107.354 129.285 107.795C129.123 108.236 129.042 108.711 129.042 109.222C129.042 109.732 129.123 110.206 129.285 110.643C129.448 111.081 129.698 111.434 130.036 111.702C130.374 111.971 130.805 112.105 131.328 112.105ZM141.691 102.818V113H140.517V102.818H141.691ZM143.839 113V105.364H145.013V113H143.839ZM144.436 104.091C144.207 104.091 144.01 104.013 143.844 103.857C143.682 103.701 143.601 103.514 143.601 103.295C143.601 103.077 143.682 102.889 143.844 102.734C144.01 102.578 144.207 102.5 144.436 102.5C144.665 102.5 144.86 102.578 145.023 102.734C145.188 102.889 145.271 103.077 145.271 103.295C145.271 103.514 145.188 103.701 145.023 103.857C144.86 104.013 144.665 104.091 144.436 104.091ZM148.335 108.406V113H147.162V105.364H148.295V106.557H148.395C148.574 106.169 148.845 105.857 149.21 105.622C149.575 105.384 150.045 105.264 150.622 105.264C151.139 105.264 151.591 105.37 151.979 105.582C152.367 105.791 152.669 106.109 152.884 106.537C153.099 106.961 153.207 107.498 153.207 108.148V113H152.034V108.227C152.034 107.627 151.878 107.16 151.567 106.825C151.255 106.487 150.827 106.318 150.284 106.318C149.909 106.318 149.575 106.399 149.28 106.562C148.988 106.724 148.758 106.961 148.589 107.273C148.42 107.584 148.335 107.962 148.335 108.406ZM158.553 113.159C157.817 113.159 157.182 112.997 156.649 112.672C156.118 112.344 155.709 111.886 155.421 111.3C155.136 110.71 154.993 110.024 154.993 109.241C154.993 108.459 155.136 107.77 155.421 107.173C155.709 106.573 156.11 106.106 156.624 105.771C157.141 105.433 157.744 105.264 158.434 105.264C158.831 105.264 159.224 105.33 159.612 105.463C160 105.596 160.353 105.811 160.671 106.109C160.989 106.404 161.243 106.795 161.431 107.283C161.62 107.77 161.715 108.37 161.715 109.082V109.58H155.828V108.565H160.522C160.522 108.134 160.435 107.75 160.263 107.412C160.094 107.074 159.852 106.807 159.537 106.612C159.226 106.416 158.858 106.318 158.434 106.318C157.966 106.318 157.562 106.434 157.221 106.666C156.882 106.895 156.622 107.193 156.44 107.561C156.258 107.929 156.167 108.323 156.167 108.744V109.42C156.167 109.997 156.266 110.486 156.465 110.887C156.667 111.285 156.947 111.588 157.305 111.797C157.663 112.002 158.079 112.105 158.553 112.105C158.861 112.105 159.14 112.062 159.388 111.976C159.64 111.886 159.857 111.754 160.039 111.578C160.222 111.399 160.363 111.177 160.462 110.912L161.596 111.23C161.476 111.615 161.276 111.953 160.994 112.244C160.712 112.533 160.364 112.758 159.95 112.92C159.536 113.08 159.07 113.159 158.553 113.159ZM168.909 107.074L167.855 107.372C167.788 107.196 167.691 107.026 167.561 106.86C167.435 106.691 167.263 106.552 167.044 106.442C166.826 106.333 166.546 106.278 166.204 106.278C165.737 106.278 165.347 106.386 165.036 106.602C164.728 106.814 164.574 107.084 164.574 107.412C164.574 107.704 164.68 107.934 164.892 108.103C165.104 108.272 165.435 108.413 165.886 108.526L167.02 108.804C167.702 108.97 168.211 109.223 168.546 109.565C168.881 109.903 169.048 110.339 169.048 110.872C169.048 111.31 168.922 111.701 168.67 112.045C168.422 112.39 168.074 112.662 167.626 112.861C167.179 113.06 166.658 113.159 166.065 113.159C165.286 113.159 164.641 112.99 164.131 112.652C163.621 112.314 163.297 111.82 163.162 111.17L164.275 110.892C164.381 111.303 164.582 111.611 164.877 111.817C165.175 112.022 165.565 112.125 166.045 112.125C166.592 112.125 167.026 112.009 167.348 111.777C167.672 111.542 167.835 111.26 167.835 110.932C167.835 110.667 167.742 110.445 167.556 110.266C167.371 110.083 167.086 109.947 166.701 109.858L165.429 109.56C164.729 109.394 164.216 109.137 163.887 108.789C163.563 108.438 163.4 107.999 163.4 107.472C163.4 107.041 163.521 106.66 163.763 106.328C164.008 105.997 164.342 105.737 164.762 105.548C165.187 105.359 165.667 105.264 166.204 105.264C166.96 105.264 167.553 105.43 167.984 105.761C168.418 106.093 168.726 106.53 168.909 107.074ZM177.854 113.159C177.164 113.159 176.56 112.995 176.039 112.667C175.522 112.339 175.118 111.88 174.826 111.29C174.538 110.7 174.394 110.01 174.394 109.222C174.394 108.426 174.538 107.732 174.826 107.138C175.118 106.545 175.522 106.085 176.039 105.756C176.56 105.428 177.164 105.264 177.854 105.264C178.543 105.264 179.146 105.428 179.664 105.756C180.184 106.085 180.588 106.545 180.877 107.138C181.168 107.732 181.314 108.426 181.314 109.222C181.314 110.01 181.168 110.7 180.877 111.29C180.588 111.88 180.184 112.339 179.664 112.667C179.146 112.995 178.543 113.159 177.854 113.159ZM177.854 112.105C178.378 112.105 178.808 111.971 179.146 111.702C179.485 111.434 179.735 111.081 179.897 110.643C180.06 110.206 180.141 109.732 180.141 109.222C180.141 108.711 180.06 108.236 179.897 107.795C179.735 107.354 179.485 106.998 179.146 106.726C178.808 106.454 178.378 106.318 177.854 106.318C177.33 106.318 176.899 106.454 176.561 106.726C176.223 106.998 175.973 107.354 175.811 107.795C175.648 108.236 175.567 108.711 175.567 109.222C175.567 109.732 175.648 110.206 175.811 110.643C175.973 111.081 176.223 111.434 176.561 111.702C176.899 111.971 177.33 112.105 177.854 112.105ZM186.506 105.364V106.358H182.389V105.364H186.506ZM183.622 113V104.31C183.622 103.872 183.725 103.508 183.93 103.216C184.136 102.924 184.403 102.705 184.731 102.56C185.059 102.414 185.405 102.341 185.77 102.341C186.058 102.341 186.294 102.364 186.476 102.411C186.658 102.457 186.794 102.5 186.884 102.54L186.545 103.554C186.486 103.534 186.403 103.509 186.297 103.479C186.194 103.45 186.058 103.435 185.889 103.435C185.501 103.435 185.221 103.532 185.049 103.728C184.88 103.924 184.795 104.21 184.795 104.588V113H183.622ZM195.409 105.364V106.358H191.451V105.364H195.409ZM192.605 103.534H193.778V110.812C193.778 111.144 193.826 111.393 193.922 111.558C194.021 111.721 194.147 111.83 194.3 111.886C194.456 111.939 194.62 111.966 194.792 111.966C194.921 111.966 195.027 111.959 195.11 111.946C195.193 111.929 195.259 111.916 195.309 111.906L195.548 112.96C195.468 112.99 195.357 113.02 195.215 113.05C195.072 113.083 194.892 113.099 194.673 113.099C194.341 113.099 194.017 113.028 193.698 112.886C193.383 112.743 193.122 112.526 192.913 112.234C192.707 111.943 192.605 111.575 192.605 111.131V103.534ZM200.293 113.159C199.557 113.159 198.923 112.997 198.389 112.672C197.859 112.344 197.449 111.886 197.161 111.3C196.876 110.71 196.733 110.024 196.733 109.241C196.733 108.459 196.876 107.77 197.161 107.173C197.449 106.573 197.85 106.106 198.364 105.771C198.881 105.433 199.484 105.264 200.174 105.264C200.572 105.264 200.964 105.33 201.352 105.463C201.74 105.596 202.093 105.811 202.411 106.109C202.729 106.404 202.983 106.795 203.172 107.283C203.361 107.77 203.455 108.37 203.455 109.082V109.58H197.569V108.565H202.262C202.262 108.134 202.176 107.75 202.003 107.412C201.834 107.074 201.592 106.807 201.278 106.612C200.966 106.416 200.598 106.318 200.174 106.318C199.706 106.318 199.302 106.434 198.961 106.666C198.623 106.895 198.363 107.193 198.18 107.561C197.998 107.929 197.907 108.323 197.907 108.744V109.42C197.907 109.997 198.006 110.486 198.205 110.887C198.407 111.285 198.687 111.588 199.045 111.797C199.403 112.002 199.819 112.105 200.293 112.105C200.601 112.105 200.88 112.062 201.128 111.976C201.38 111.886 201.597 111.754 201.78 111.578C201.962 111.399 202.103 111.177 202.202 110.912L203.336 111.23C203.216 111.615 203.016 111.953 202.734 112.244C202.452 112.533 202.104 112.758 201.69 112.92C201.276 113.08 200.81 113.159 200.293 113.159ZM205.91 105.364L207.739 108.486L209.569 105.364H210.921L208.455 109.182L210.921 113H209.569L207.739 110.037L205.91 113H204.558L206.984 109.182L204.558 105.364H205.91ZM215.916 105.364V106.358H211.959V105.364H215.916ZM213.112 103.534H214.286V110.812C214.286 111.144 214.334 111.393 214.43 111.558C214.529 111.721 214.655 111.83 214.808 111.886C214.963 111.939 215.128 111.966 215.3 111.966C215.429 111.966 215.535 111.959 215.618 111.946C215.701 111.929 215.767 111.916 215.817 111.906L216.056 112.96C215.976 112.99 215.865 113.02 215.722 113.05C215.58 113.083 215.399 113.099 215.181 113.099C214.849 113.099 214.524 113.028 214.206 112.886C213.891 112.743 213.629 112.526 213.421 112.234C213.215 111.943 213.112 111.575 213.112 111.131V103.534ZM218.536 113.08C218.291 113.08 218.081 112.992 217.905 112.816C217.729 112.64 217.642 112.43 217.642 112.185C217.642 111.939 217.729 111.729 217.905 111.553C218.081 111.378 218.291 111.29 218.536 111.29C218.782 111.29 218.992 111.378 219.168 111.553C219.343 111.729 219.431 111.939 219.431 112.185C219.431 112.347 219.39 112.496 219.307 112.632C219.227 112.768 219.12 112.877 218.984 112.96C218.851 113.04 218.702 113.08 218.536 113.08Z" fill="#030713"/>
<path d="M24.7614 132.364H26.5227V140.017C26.5227 140.831 26.3314 141.553 25.9489 142.182C25.5663 142.807 25.0284 143.299 24.3352 143.659C23.642 144.015 22.8295 144.193 21.8977 144.193C20.9697 144.193 20.1591 144.015 19.4659 143.659C18.7727 143.299 18.2348 142.807 17.8523 142.182C17.4697 141.553 17.2784 140.831 17.2784 140.017V132.364H19.0341V139.875C19.0341 140.402 19.1496 140.869 19.3807 141.278C19.6155 141.688 19.947 142.009 20.375 142.244C20.803 142.475 21.3106 142.591 21.8977 142.591C22.4886 142.591 22.9981 142.475 23.4261 142.244C23.858 142.009 24.1875 141.688 24.4148 141.278C24.6458 140.869 24.7614 140.402 24.7614 139.875V132.364ZM29.2589 147.273V135.273H30.918V136.688H31.0601C31.1585 136.506 31.3006 136.295 31.4862 136.057C31.6718 135.818 31.9294 135.61 32.2589 135.432C32.5885 135.25 33.0241 135.159 33.5657 135.159C34.2703 135.159 34.8991 135.337 35.4521 135.693C36.0051 136.049 36.4388 136.562 36.7532 137.233C37.0714 137.903 37.2305 138.71 37.2305 139.653C37.2305 140.597 37.0733 141.405 36.7589 142.08C36.4445 142.75 36.0127 143.267 35.4635 143.631C34.9142 143.991 34.2873 144.17 33.5828 144.17C33.0525 144.17 32.6188 144.081 32.2816 143.903C31.9483 143.725 31.687 143.517 31.4976 143.278C31.3082 143.04 31.1623 142.828 31.0601 142.642H30.9578V147.273H29.2589ZM30.9237 139.636C30.9237 140.25 31.0127 140.788 31.1907 141.25C31.3688 141.712 31.6263 142.074 31.9635 142.335C32.3006 142.593 32.7135 142.722 33.2021 142.722C33.7097 142.722 34.1339 142.587 34.4748 142.318C34.8157 142.045 35.0733 141.676 35.2476 141.21C35.4256 140.744 35.5146 140.22 35.5146 139.636C35.5146 139.061 35.4275 138.544 35.2532 138.085C35.0828 137.627 34.8252 137.265 34.4805 137C34.1396 136.735 33.7135 136.602 33.2021 136.602C32.7097 136.602 32.293 136.729 31.9521 136.983C31.615 137.237 31.3593 137.591 31.1851 138.045C31.0108 138.5 30.9237 139.03 30.9237 139.636ZM43.113 147.455C42.4198 147.455 41.8232 147.364 41.3232 147.182C40.827 147 40.4217 146.759 40.1073 146.46C39.7929 146.161 39.5581 145.833 39.4028 145.477L40.863 144.875C40.9653 145.042 41.1016 145.218 41.2721 145.403C41.4463 145.593 41.6812 145.754 41.9766 145.886C42.2759 146.019 42.6604 146.085 43.1301 146.085C43.774 146.085 44.3062 145.928 44.7266 145.614C45.1471 145.303 45.3573 144.807 45.3573 144.125V142.409H45.2494C45.1471 142.595 44.9994 142.801 44.8062 143.028C44.6168 143.256 44.3554 143.453 44.0221 143.619C43.6888 143.786 43.2551 143.869 42.721 143.869C42.0316 143.869 41.4104 143.708 40.8573 143.386C40.3081 143.061 39.8725 142.581 39.5505 141.949C39.2323 141.312 39.0732 140.53 39.0732 139.602C39.0732 138.674 39.2304 137.879 39.5448 137.216C39.863 136.553 40.2986 136.045 40.8516 135.693C41.4047 135.337 42.0316 135.159 42.7323 135.159C43.274 135.159 43.7115 135.25 44.0448 135.432C44.3782 135.61 44.6376 135.818 44.8232 136.057C45.0126 136.295 45.1585 136.506 45.2607 136.688H45.3857V135.273H47.0505V144.193C47.0505 144.943 46.8763 145.559 46.5278 146.04C46.1793 146.521 45.7077 146.877 45.113 147.108C44.5221 147.339 43.8554 147.455 43.113 147.455ZM43.096 142.46C43.5846 142.46 43.9975 142.347 44.3346 142.119C44.6755 141.888 44.9331 141.559 45.1073 141.131C45.2854 140.699 45.3744 140.182 45.3744 139.58C45.3744 138.992 45.2873 138.475 45.113 138.028C44.9388 137.581 44.6831 137.233 44.346 136.983C44.0088 136.729 43.5922 136.602 43.096 136.602C42.5846 136.602 42.1585 136.735 41.8176 137C41.4766 137.261 41.2191 137.617 41.0448 138.068C40.8744 138.519 40.7891 139.023 40.7891 139.58C40.7891 140.152 40.8763 140.653 41.0505 141.085C41.2248 141.517 41.4823 141.854 41.8232 142.097C42.1679 142.339 42.5922 142.46 43.096 142.46ZM49.6489 144V135.273H51.291V136.659H51.3819C51.541 136.189 51.8213 135.82 52.2228 135.551C52.6281 135.278 53.0864 135.142 53.5978 135.142C53.7038 135.142 53.8288 135.146 53.9728 135.153C54.1205 135.161 54.236 135.17 54.3194 135.182V136.807C54.2512 136.788 54.13 136.767 53.9557 136.744C53.7815 136.718 53.6073 136.705 53.433 136.705C53.0315 136.705 52.6735 136.79 52.3591 136.96C52.0485 137.127 51.8023 137.36 51.6205 137.659C51.4387 137.955 51.3478 138.292 51.3478 138.67V144H49.6489ZM58.5712 144.193C58.0182 144.193 57.5182 144.091 57.0712 143.886C56.6242 143.678 56.2701 143.377 56.0087 142.983C55.7511 142.589 55.6223 142.106 55.6223 141.534C55.6223 141.042 55.717 140.636 55.9064 140.318C56.0958 140 56.3515 139.748 56.6735 139.562C56.9954 139.377 57.3553 139.237 57.753 139.142C58.1507 139.047 58.556 138.975 58.9689 138.926C59.4916 138.866 59.9159 138.816 60.2416 138.778C60.5674 138.737 60.8041 138.67 60.9519 138.58C61.0996 138.489 61.1735 138.341 61.1735 138.136V138.097C61.1735 137.6 61.0333 137.216 60.753 136.943C60.4765 136.67 60.0636 136.534 59.5144 136.534C58.9424 136.534 58.4916 136.661 58.1621 136.915C57.8363 137.165 57.611 137.443 57.486 137.75L55.8894 137.386C56.0788 136.856 56.3553 136.428 56.7189 136.102C57.0863 135.773 57.5087 135.534 57.986 135.386C58.4632 135.235 58.9651 135.159 59.4916 135.159C59.8401 135.159 60.2094 135.201 60.5996 135.284C60.9935 135.364 61.361 135.511 61.7019 135.727C62.0466 135.943 62.3288 136.252 62.5485 136.653C62.7682 137.051 62.878 137.568 62.878 138.205V144H61.2189V142.807H61.1507C61.0409 143.027 60.8761 143.242 60.6564 143.455C60.4367 143.667 60.1545 143.843 59.8098 143.983C59.4651 144.123 59.0523 144.193 58.5712 144.193ZM58.9405 142.83C59.4102 142.83 59.8117 142.737 60.1451 142.551C60.4822 142.366 60.7379 142.123 60.9121 141.824C61.0901 141.521 61.1791 141.197 61.1791 140.852V139.727C61.1185 139.788 61.0011 139.845 60.8269 139.898C60.6564 139.947 60.4613 139.991 60.2416 140.028C60.0219 140.062 59.8079 140.095 59.5996 140.125C59.3913 140.152 59.217 140.174 59.0769 140.193C58.7473 140.235 58.4462 140.305 58.1735 140.403C57.9045 140.502 57.6886 140.644 57.5257 140.83C57.3666 141.011 57.2871 141.254 57.2871 141.557C57.2871 141.977 57.4424 142.295 57.753 142.511C58.0636 142.723 58.4594 142.83 58.9405 142.83ZM68.7278 144.17C68.0233 144.17 67.3945 143.991 66.8415 143.631C66.2922 143.267 65.8604 142.75 65.546 142.08C65.2354 141.405 65.0801 140.597 65.0801 139.653C65.0801 138.71 65.2373 137.903 65.5517 137.233C65.8699 136.562 66.3055 136.049 66.8585 135.693C67.4116 135.337 68.0384 135.159 68.7392 135.159C69.2809 135.159 69.7165 135.25 70.046 135.432C70.3794 135.61 70.6369 135.818 70.8187 136.057C71.0044 136.295 71.1483 136.506 71.2506 136.688H71.3528V132.364H73.0517V144H71.3926V142.642H71.2506C71.1483 142.828 71.0006 143.04 70.8074 143.278C70.618 143.517 70.3566 143.725 70.0233 143.903C69.69 144.081 69.2581 144.17 68.7278 144.17ZM69.1028 142.722C69.5915 142.722 70.0044 142.593 70.3415 142.335C70.6824 142.074 70.94 141.712 71.1142 141.25C71.2922 140.788 71.3812 140.25 71.3812 139.636C71.3812 139.03 71.2941 138.5 71.1199 138.045C70.9456 137.591 70.69 137.237 70.3528 136.983C70.0157 136.729 69.5991 136.602 69.1028 136.602C68.5915 136.602 68.1653 136.735 67.8244 137C67.4835 137.265 67.2259 137.627 67.0517 138.085C66.8812 138.544 66.796 139.061 66.796 139.636C66.796 140.22 66.8831 140.744 67.0574 141.21C67.2316 141.676 67.4892 142.045 67.8301 142.318C68.1748 142.587 68.5991 142.722 69.1028 142.722ZM79.5578 144.176C78.6979 144.176 77.9574 143.992 77.3362 143.625C76.7188 143.254 76.2415 142.733 75.9044 142.062C75.571 141.388 75.4044 140.598 75.4044 139.693C75.4044 138.799 75.571 138.011 75.9044 137.33C76.2415 136.648 76.7112 136.116 77.3135 135.733C77.9195 135.35 78.6279 135.159 79.4385 135.159C79.9309 135.159 80.4082 135.241 80.8703 135.403C81.3324 135.566 81.7472 135.822 82.1146 136.17C82.482 136.519 82.7718 136.972 82.9839 137.528C83.196 138.081 83.3021 138.754 83.3021 139.545V140.148H76.3646V138.875H81.6373C81.6373 138.428 81.5464 138.032 81.3646 137.688C81.1828 137.339 80.9271 137.064 80.5976 136.864C80.2718 136.663 79.8892 136.562 79.4498 136.562C78.9726 136.562 78.5559 136.68 78.1998 136.915C77.8476 137.146 77.5748 137.449 77.3816 137.824C77.1923 138.195 77.0976 138.598 77.0976 139.034V140.028C77.0976 140.612 77.1998 141.108 77.4044 141.517C77.6127 141.926 77.9025 142.239 78.2737 142.455C78.6449 142.667 79.0786 142.773 79.5748 142.773C79.8968 142.773 80.1904 142.727 80.4555 142.636C80.7207 142.542 80.9498 142.402 81.143 142.216C81.3362 142.03 81.4839 141.801 81.5862 141.528L83.1941 141.818C83.0654 142.292 82.8343 142.706 82.501 143.062C82.1714 143.415 81.7566 143.689 81.2566 143.886C80.7604 144.08 80.1941 144.176 79.5578 144.176Z" fill="#030713"/>
<path d="M16 148H84.0521V149.091H16V148Z" fill="#030713"/>
<path d="M109.761 132.364H111.523V140.017C111.523 140.831 111.331 141.553 110.949 142.182C110.566 142.807 110.028 143.299 109.335 143.659C108.642 144.015 107.83 144.193 106.898 144.193C105.97 144.193 105.159 144.015 104.466 143.659C103.773 143.299 103.235 142.807 102.852 142.182C102.47 141.553 102.278 140.831 102.278 140.017V132.364H104.034V139.875C104.034 140.402 104.15 140.869 104.381 141.278C104.616 141.688 104.947 142.009 105.375 142.244C105.803 142.475 106.311 142.591 106.898 142.591C107.489 142.591 107.998 142.475 108.426 142.244C108.858 142.009 109.188 141.688 109.415 141.278C109.646 140.869 109.761 140.402 109.761 139.875V132.364ZM114.259 147.273V135.273H115.918V136.688H116.06C116.159 136.506 116.301 136.295 116.486 136.057C116.672 135.818 116.929 135.61 117.259 135.432C117.588 135.25 118.024 135.159 118.566 135.159C119.27 135.159 119.899 135.337 120.452 135.693C121.005 136.049 121.439 136.562 121.753 137.233C122.071 137.903 122.231 138.71 122.231 139.653C122.231 140.597 122.073 141.405 121.759 142.08C121.445 142.75 121.013 143.267 120.463 143.631C119.914 143.991 119.287 144.17 118.583 144.17C118.052 144.17 117.619 144.081 117.282 143.903C116.948 143.725 116.687 143.517 116.498 143.278C116.308 143.04 116.162 142.828 116.06 142.642H115.958V147.273H114.259ZM115.924 139.636C115.924 140.25 116.013 140.788 116.191 141.25C116.369 141.712 116.626 142.074 116.963 142.335C117.301 142.593 117.713 142.722 118.202 142.722C118.71 142.722 119.134 142.587 119.475 142.318C119.816 142.045 120.073 141.676 120.248 141.21C120.426 140.744 120.515 140.22 120.515 139.636C120.515 139.061 120.427 138.544 120.253 138.085C120.083 137.627 119.825 137.265 119.481 137C119.14 136.735 118.713 136.602 118.202 136.602C117.71 136.602 117.293 136.729 116.952 136.983C116.615 137.237 116.359 137.591 116.185 138.045C116.011 138.5 115.924 139.03 115.924 139.636ZM128.113 147.455C127.42 147.455 126.823 147.364 126.323 147.182C125.827 147 125.422 146.759 125.107 146.46C124.793 146.161 124.558 145.833 124.403 145.477L125.863 144.875C125.965 145.042 126.102 145.218 126.272 145.403C126.446 145.593 126.681 145.754 126.977 145.886C127.276 146.019 127.66 146.085 128.13 146.085C128.774 146.085 129.306 145.928 129.727 145.614C130.147 145.303 130.357 144.807 130.357 144.125V142.409H130.249C130.147 142.595 129.999 142.801 129.806 143.028C129.617 143.256 129.355 143.453 129.022 143.619C128.689 143.786 128.255 143.869 127.721 143.869C127.032 143.869 126.41 143.708 125.857 143.386C125.308 143.061 124.872 142.581 124.551 141.949C124.232 141.312 124.073 140.53 124.073 139.602C124.073 138.674 124.23 137.879 124.545 137.216C124.863 136.553 125.299 136.045 125.852 135.693C126.405 135.337 127.032 135.159 127.732 135.159C128.274 135.159 128.711 135.25 129.045 135.432C129.378 135.61 129.638 135.818 129.823 136.057C130.013 136.295 130.158 136.506 130.261 136.688H130.386V135.273H132.051V144.193C132.051 144.943 131.876 145.559 131.528 146.04C131.179 146.521 130.708 146.877 130.113 147.108C129.522 147.339 128.855 147.455 128.113 147.455ZM128.096 142.46C128.585 142.46 128.997 142.347 129.335 142.119C129.676 141.888 129.933 141.559 130.107 141.131C130.285 140.699 130.374 140.182 130.374 139.58C130.374 138.992 130.287 138.475 130.113 138.028C129.939 137.581 129.683 137.233 129.346 136.983C129.009 136.729 128.592 136.602 128.096 136.602C127.585 136.602 127.158 136.735 126.818 137C126.477 137.261 126.219 137.617 126.045 138.068C125.874 138.519 125.789 139.023 125.789 139.58C125.789 140.152 125.876 140.653 126.051 141.085C126.225 141.517 126.482 141.854 126.823 142.097C127.168 142.339 127.592 142.46 128.096 142.46ZM134.649 144V135.273H136.291V136.659H136.382C136.541 136.189 136.821 135.82 137.223 135.551C137.628 135.278 138.086 135.142 138.598 135.142C138.704 135.142 138.829 135.146 138.973 135.153C139.121 135.161 139.236 135.17 139.319 135.182V136.807C139.251 136.788 139.13 136.767 138.956 136.744C138.781 136.718 138.607 136.705 138.433 136.705C138.031 136.705 137.674 136.79 137.359 136.96C137.049 137.127 136.802 137.36 136.621 137.659C136.439 137.955 136.348 138.292 136.348 138.67V144H134.649ZM143.571 144.193C143.018 144.193 142.518 144.091 142.071 143.886C141.624 143.678 141.27 143.377 141.009 142.983C140.751 142.589 140.622 142.106 140.622 141.534C140.622 141.042 140.717 140.636 140.906 140.318C141.096 140 141.351 139.748 141.673 139.562C141.995 139.377 142.355 139.237 142.753 139.142C143.151 139.047 143.556 138.975 143.969 138.926C144.492 138.866 144.916 138.816 145.242 138.778C145.567 138.737 145.804 138.67 145.952 138.58C146.1 138.489 146.173 138.341 146.173 138.136V138.097C146.173 137.6 146.033 137.216 145.753 136.943C145.476 136.67 145.064 136.534 144.514 136.534C143.942 136.534 143.492 136.661 143.162 136.915C142.836 137.165 142.611 137.443 142.486 137.75L140.889 137.386C141.079 136.856 141.355 136.428 141.719 136.102C142.086 135.773 142.509 135.534 142.986 135.386C143.463 135.235 143.965 135.159 144.492 135.159C144.84 135.159 145.209 135.201 145.6 135.284C145.994 135.364 146.361 135.511 146.702 135.727C147.047 135.943 147.329 136.252 147.548 136.653C147.768 137.051 147.878 137.568 147.878 138.205V144H146.219V142.807H146.151C146.041 143.027 145.876 143.242 145.656 143.455C145.437 143.667 145.155 143.843 144.81 143.983C144.465 144.123 144.052 144.193 143.571 144.193ZM143.941 142.83C144.41 142.83 144.812 142.737 145.145 142.551C145.482 142.366 145.738 142.123 145.912 141.824C146.09 141.521 146.179 141.197 146.179 140.852V139.727C146.119 139.788 146.001 139.845 145.827 139.898C145.656 139.947 145.461 139.991 145.242 140.028C145.022 140.062 144.808 140.095 144.6 140.125C144.391 140.152 144.217 140.174 144.077 140.193C143.747 140.235 143.446 140.305 143.173 140.403C142.905 140.502 142.689 140.644 142.526 140.83C142.367 141.011 142.287 141.254 142.287 141.557C142.287 141.977 142.442 142.295 142.753 142.511C143.064 142.723 143.459 142.83 143.941 142.83ZM153.728 144.17C153.023 144.17 152.395 143.991 151.841 143.631C151.292 143.267 150.86 142.75 150.546 142.08C150.235 141.405 150.08 140.597 150.08 139.653C150.08 138.71 150.237 137.903 150.552 137.233C150.87 136.562 151.305 136.049 151.859 135.693C152.412 135.337 153.038 135.159 153.739 135.159C154.281 135.159 154.716 135.25 155.046 135.432C155.379 135.61 155.637 135.818 155.819 136.057C156.004 136.295 156.148 136.506 156.251 136.688H156.353V132.364H158.052V144H156.393V142.642H156.251C156.148 142.828 156.001 143.04 155.807 143.278C155.618 143.517 155.357 143.725 155.023 143.903C154.69 144.081 154.258 144.17 153.728 144.17ZM154.103 142.722C154.591 142.722 155.004 142.593 155.341 142.335C155.682 142.074 155.94 141.712 156.114 141.25C156.292 140.788 156.381 140.25 156.381 139.636C156.381 139.03 156.294 138.5 156.12 138.045C155.946 137.591 155.69 137.237 155.353 136.983C155.016 136.729 154.599 136.602 154.103 136.602C153.591 136.602 153.165 136.735 152.824 137C152.484 137.265 152.226 137.627 152.052 138.085C151.881 138.544 151.796 139.061 151.796 139.636C151.796 140.22 151.883 140.744 152.057 141.21C152.232 141.676 152.489 142.045 152.83 142.318C153.175 142.587 153.599 142.722 154.103 142.722ZM164.558 144.176C163.698 144.176 162.957 143.992 162.336 143.625C161.719 143.254 161.241 142.733 160.904 142.062C160.571 141.388 160.404 140.598 160.404 139.693C160.404 138.799 160.571 138.011 160.904 137.33C161.241 136.648 161.711 136.116 162.313 135.733C162.92 135.35 163.628 135.159 164.438 135.159C164.931 135.159 165.408 135.241 165.87 135.403C166.332 135.566 166.747 135.822 167.115 136.17C167.482 136.519 167.772 136.972 167.984 137.528C168.196 138.081 168.302 138.754 168.302 139.545V140.148H161.365V138.875H166.637C166.637 138.428 166.546 138.032 166.365 137.688C166.183 137.339 165.927 137.064 165.598 136.864C165.272 136.663 164.889 136.562 164.45 136.562C163.973 136.562 163.556 136.68 163.2 136.915C162.848 137.146 162.575 137.449 162.382 137.824C162.192 138.195 162.098 138.598 162.098 139.034V140.028C162.098 140.612 162.2 141.108 162.404 141.517C162.613 141.926 162.902 142.239 163.274 142.455C163.645 142.667 164.079 142.773 164.575 142.773C164.897 142.773 165.19 142.727 165.456 142.636C165.721 142.542 165.95 142.402 166.143 142.216C166.336 142.03 166.484 141.801 166.586 141.528L168.194 141.818C168.065 142.292 167.834 142.706 167.501 143.062C167.171 143.415 166.757 143.689 166.257 143.886C165.76 144.08 165.194 144.176 164.558 144.176Z" fill="#030713"/>
<path d="M101 148H169.052V149.091H101V148Z" fill="#030713"/>
</svg>
