<svg width="430" height="48" viewBox="0 0 430 48" fill="none" xmlns="http://www.w3.org/2000/svg">
<path d="M0 4C0 1.79086 1.79086 0 4 0H426C428.209 0 430 1.79086 430 4V44C430 46.2091 428.209 48 426 48H4C1.79086 48 0 46.2091 0 44V4Z" fill="#460809"/>
<path d="M17.375 23.375L17.4096 23.3577C17.8872 23.1189 18.4249 23.5503 18.2954 24.0683L17.7046 26.4317C17.5751 26.9497 18.1128 27.3811 18.5904 27.1423L18.625 27.125M25.5 24C25.5 28.1421 22.1421 31.5 18 31.5C13.8579 31.5 10.5 28.1421 10.5 24C10.5 19.8579 13.8579 16.5 18 16.5C22.1421 16.5 25.5 19.8579 25.5 24ZM18 20.875H18.0063V20.8813H18V20.875Z" stroke="#FD6368" stroke-width="1.5" stroke-linecap="round" stroke-linejoin="round"/>
<path d="M38.8182 18.3636V30H37.4091V18.3636H38.8182ZM42.8026 24.75V30H41.4616V21.2727H42.7571V22.6364H42.8707C43.0753 22.1932 43.3859 21.8371 43.8026 21.5682C44.2192 21.2955 44.7571 21.1591 45.4162 21.1591C46.0071 21.1591 46.5241 21.2803 46.9673 21.5227C47.4105 21.7614 47.7552 22.125 48.0014 22.6136C48.2476 23.0985 48.3707 23.7121 48.3707 24.4545V30H47.0298V24.5455C47.0298 23.8598 46.8518 23.3258 46.4957 22.9432C46.1397 22.5568 45.651 22.3636 45.0298 22.3636C44.6018 22.3636 44.2192 22.4564 43.8821 22.642C43.5488 22.8277 43.2855 23.0985 43.0923 23.4545C42.8991 23.8106 42.8026 24.2424 42.8026 24.75ZM57.0028 23.2273L55.7983 23.5682C55.7225 23.3674 55.6108 23.1723 55.4631 22.983C55.3191 22.7898 55.1222 22.6307 54.8722 22.5057C54.6222 22.3807 54.3021 22.3182 53.9119 22.3182C53.3778 22.3182 52.9328 22.4413 52.5767 22.6875C52.2244 22.9299 52.0483 23.2386 52.0483 23.6136C52.0483 23.947 52.1695 24.2102 52.4119 24.4034C52.6544 24.5966 53.0331 24.7576 53.5483 24.8864L54.8438 25.2045C55.6241 25.3939 56.2055 25.6837 56.5881 26.0739C56.9706 26.4602 57.1619 26.9583 57.1619 27.5682C57.1619 28.0682 57.018 28.5152 56.7301 28.9091C56.446 29.303 56.0483 29.6136 55.5369 29.8409C55.0256 30.0682 54.4309 30.1818 53.7528 30.1818C52.8627 30.1818 52.1259 29.9886 51.5426 29.6023C50.9593 29.2159 50.59 28.6515 50.4347 27.9091L51.7074 27.5909C51.8286 28.0606 52.0578 28.4129 52.3949 28.6477C52.7358 28.8826 53.1809 29 53.7301 29C54.3551 29 54.8513 28.8674 55.2188 28.6023C55.59 28.3333 55.7756 28.0114 55.7756 27.6364C55.7756 27.3333 55.6695 27.0795 55.4574 26.875C55.2453 26.6667 54.9195 26.5114 54.4801 26.4091L53.0256 26.0682C52.2263 25.8788 51.6392 25.5852 51.2642 25.1875C50.893 24.786 50.7074 24.2841 50.7074 23.6818C50.7074 23.1894 50.8456 22.7538 51.1222 22.375C51.4025 21.9962 51.7831 21.6989 52.2642 21.483C52.7491 21.267 53.2983 21.1591 53.9119 21.1591C54.7756 21.1591 55.4536 21.3485 55.946 21.7273C56.4422 22.1061 56.7945 22.6061 57.0028 23.2273ZM62.8395 30.1818C61.9986 30.1818 61.2732 29.9962 60.6634 29.625C60.0573 29.25 59.5895 28.7273 59.2599 28.0568C58.9342 27.3826 58.7713 26.5985 58.7713 25.7045C58.7713 24.8106 58.9342 24.0227 59.2599 23.3409C59.5895 22.6553 60.0478 22.1212 60.6349 21.7386C61.2259 21.3523 61.9152 21.1591 62.7031 21.1591C63.1577 21.1591 63.6065 21.2348 64.0497 21.3864C64.4929 21.5379 64.8963 21.7841 65.2599 22.125C65.6236 22.4621 65.9134 22.9091 66.1293 23.4659C66.3452 24.0227 66.4531 24.7083 66.4531 25.5227V26.0909H59.7259V24.9318H65.0895C65.0895 24.4394 64.991 24 64.794 23.6136C64.6009 23.2273 64.3243 22.9223 63.9645 22.6989C63.6084 22.4754 63.188 22.3636 62.7031 22.3636C62.169 22.3636 61.7069 22.4962 61.3168 22.7614C60.9304 23.0227 60.633 23.3636 60.4247 23.7841C60.2164 24.2045 60.1122 24.6553 60.1122 25.1364V25.9091C60.1122 26.5682 60.2259 27.1269 60.4531 27.5852C60.6842 28.0398 61.0043 28.3864 61.4134 28.625C61.8224 28.8598 62.2978 28.9773 62.8395 28.9773C63.1918 28.9773 63.5099 28.928 63.794 28.8295C64.0819 28.7273 64.33 28.5758 64.5384 28.375C64.7467 28.1705 64.9077 27.9167 65.0213 27.6136L66.3168 27.9773C66.1804 28.4167 65.9512 28.803 65.6293 29.1364C65.3073 29.4659 64.9096 29.7235 64.4361 29.9091C63.9626 30.0909 63.4304 30.1818 62.8395 30.1818ZM68.4929 30V21.2727H69.7884V22.5909H69.8793C70.0384 22.1591 70.3262 21.8087 70.7429 21.5398C71.1596 21.2708 71.6293 21.1364 72.152 21.1364C72.2505 21.1364 72.3736 21.1383 72.5213 21.142C72.669 21.1458 72.7808 21.1515 72.8565 21.1591V22.5227C72.8111 22.5114 72.7069 22.4943 72.544 22.4716C72.3849 22.4451 72.2164 22.4318 72.0384 22.4318C71.6141 22.4318 71.2353 22.5208 70.902 22.6989C70.5724 22.8731 70.3111 23.1155 70.1179 23.4261C69.9285 23.733 69.8338 24.0833 69.8338 24.4773V30H68.4929ZM78.7884 21.2727V22.4091H74.2656V21.2727H78.7884ZM75.5838 19.1818H76.9247V27.5C76.9247 27.8788 76.9796 28.1629 77.0895 28.3523C77.2031 28.5379 77.3471 28.6629 77.5213 28.7273C77.6993 28.7879 77.8868 28.8182 78.0838 28.8182C78.2315 28.8182 78.3527 28.8106 78.4474 28.7955C78.5421 28.7765 78.6179 28.7614 78.6747 28.75L78.9474 29.9545C78.8565 29.9886 78.7296 30.0227 78.5668 30.0568C78.4039 30.0947 78.1974 30.1136 77.9474 30.1136C77.5687 30.1136 77.1974 30.0322 76.8338 29.8693C76.474 29.7064 76.1747 29.4583 75.9361 29.125C75.7012 28.7917 75.5838 28.3712 75.5838 27.8636V19.1818ZM86.169 33.2727C85.9418 33.2727 85.7391 33.2538 85.5611 33.2159C85.383 33.1818 85.2599 33.1477 85.1918 33.1136L85.5327 31.9318C85.8584 32.0152 86.1463 32.0455 86.3963 32.0227C86.6463 32 86.8679 31.8883 87.0611 31.6875C87.258 31.4905 87.438 31.1705 87.6009 30.7273L87.8509 30.0455L84.6236 21.2727H86.0781L88.4872 28.2273H88.5781L90.9872 21.2727H92.4418L88.7372 31.2727C88.5705 31.7235 88.3641 32.0966 88.1179 32.392C87.8717 32.6913 87.5857 32.9129 87.2599 33.0568C86.938 33.2008 86.5743 33.2727 86.169 33.2727ZM97.4446 30.1818C96.6567 30.1818 95.9654 29.9943 95.3707 29.6193C94.7798 29.2443 94.3177 28.7197 93.9844 28.0455C93.6548 27.3712 93.4901 26.5833 93.4901 25.6818C93.4901 24.7727 93.6548 23.9792 93.9844 23.3011C94.3177 22.6231 94.7798 22.0966 95.3707 21.7216C95.9654 21.3466 96.6567 21.1591 97.4446 21.1591C98.2325 21.1591 98.9219 21.3466 99.5128 21.7216C100.107 22.0966 100.57 22.6231 100.899 23.3011C101.232 23.9792 101.399 24.7727 101.399 25.6818C101.399 26.5833 101.232 27.3712 100.899 28.0455C100.57 28.7197 100.107 29.2443 99.5128 29.6193C98.9219 29.9943 98.2325 30.1818 97.4446 30.1818ZM97.4446 28.9773C98.0431 28.9773 98.5355 28.8239 98.9219 28.517C99.3082 28.2102 99.5942 27.8068 99.7798 27.3068C99.9654 26.8068 100.058 26.2652 100.058 25.6818C100.058 25.0985 99.9654 24.5549 99.7798 24.0511C99.5942 23.5473 99.3082 23.1402 98.9219 22.8295C98.5355 22.5189 98.0431 22.3636 97.4446 22.3636C96.8461 22.3636 96.3537 22.5189 95.9673 22.8295C95.581 23.1402 95.295 23.5473 95.1094 24.0511C94.9238 24.5549 94.831 25.0985 94.831 25.6818C94.831 26.2652 94.9238 26.8068 95.1094 27.3068C95.295 27.8068 95.581 28.2102 95.9673 28.517C96.3537 28.8239 96.8461 28.9773 97.4446 28.9773ZM108.946 26.4318V21.2727H110.287V30H108.946V28.5227H108.855C108.651 28.9659 108.332 29.3428 107.901 29.6534C107.469 29.9602 106.923 30.1136 106.264 30.1136C105.719 30.1136 105.234 29.9943 104.81 29.7557C104.385 29.5133 104.052 29.1496 103.81 28.6648C103.567 28.1761 103.446 27.5606 103.446 26.8182V21.2727H104.787V26.7273C104.787 27.3636 104.965 27.8712 105.321 28.25C105.681 28.6288 106.139 28.8182 106.696 28.8182C107.029 28.8182 107.368 28.733 107.713 28.5625C108.062 28.392 108.353 28.1307 108.588 27.7784C108.827 27.4261 108.946 26.9773 108.946 26.4318ZM112.743 30V21.2727H114.038V22.5909H114.129C114.288 22.1591 114.576 21.8087 114.993 21.5398C115.41 21.2708 115.879 21.1364 116.402 21.1364C116.5 21.1364 116.624 21.1383 116.771 21.142C116.919 21.1458 117.031 21.1515 117.107 21.1591V22.5227C117.061 22.5114 116.957 22.4943 116.794 22.4716C116.635 22.4451 116.466 22.4318 116.288 22.4318C115.864 22.4318 115.485 22.5208 115.152 22.6989C114.822 22.8731 114.561 23.1155 114.368 23.4261C114.179 23.733 114.084 24.0833 114.084 24.4773V30H112.743ZM125.764 30.2045C125.211 30.2045 124.709 30.1004 124.259 29.892C123.808 29.6799 123.45 29.375 123.185 28.9773C122.92 28.5758 122.787 28.0909 122.787 27.5227C122.787 27.0227 122.885 26.6174 123.082 26.3068C123.279 25.9924 123.543 25.7462 123.872 25.5682C124.202 25.3902 124.565 25.2576 124.963 25.1705C125.365 25.0795 125.768 25.0076 126.173 24.9545C126.704 24.8864 127.134 24.8352 127.463 24.8011C127.796 24.7633 128.039 24.7008 128.19 24.6136C128.346 24.5265 128.423 24.375 128.423 24.1591V24.1136C128.423 23.553 128.27 23.1174 127.963 22.8068C127.66 22.4962 127.2 22.3409 126.582 22.3409C125.942 22.3409 125.44 22.4811 125.077 22.7614C124.713 23.0417 124.457 23.3409 124.31 23.6591L123.037 23.2045C123.264 22.6742 123.567 22.2614 123.946 21.9659C124.329 21.6667 124.745 21.4583 125.196 21.3409C125.651 21.2197 126.098 21.1591 126.537 21.1591C126.817 21.1591 127.139 21.1932 127.503 21.2614C127.87 21.3258 128.224 21.4602 128.565 21.6648C128.91 21.8693 129.196 22.178 129.423 22.5909C129.651 23.0038 129.764 23.5568 129.764 24.25V30H128.423V28.8182H128.355C128.264 29.0076 128.113 29.2102 127.901 29.4261C127.688 29.642 127.406 29.8258 127.054 29.9773C126.702 30.1288 126.272 30.2045 125.764 30.2045ZM125.969 29C126.499 29 126.946 28.8958 127.31 28.6875C127.677 28.4792 127.954 28.2102 128.139 27.8807C128.329 27.5511 128.423 27.2045 128.423 26.8409V25.6136C128.366 25.6818 128.241 25.7443 128.048 25.8011C127.859 25.8542 127.639 25.9015 127.389 25.9432C127.143 25.9811 126.902 26.0152 126.668 26.0455C126.437 26.072 126.249 26.0947 126.105 26.1136C125.757 26.1591 125.431 26.233 125.128 26.3352C124.829 26.4337 124.586 26.5833 124.401 26.7841C124.219 26.9811 124.128 27.25 124.128 27.5909C124.128 28.0568 124.3 28.4091 124.645 28.6477C124.993 28.8826 125.435 29 125.969 29ZM133.553 18.3636V30H132.212V18.3636H133.553ZM139.668 30.1818C138.827 30.1818 138.101 29.9962 137.491 29.625C136.885 29.25 136.418 28.7273 136.088 28.0568C135.762 27.3826 135.599 26.5985 135.599 25.7045C135.599 24.8106 135.762 24.0227 136.088 23.3409C136.418 22.6553 136.876 22.1212 137.463 21.7386C138.054 21.3523 138.743 21.1591 139.531 21.1591C139.986 21.1591 140.435 21.2348 140.878 21.3864C141.321 21.5379 141.724 21.7841 142.088 22.125C142.452 22.4621 142.741 22.9091 142.957 23.4659C143.173 24.0227 143.281 24.7083 143.281 25.5227V26.0909H136.554V24.9318H141.918C141.918 24.4394 141.819 24 141.622 23.6136C141.429 23.2273 141.152 22.9223 140.793 22.6989C140.437 22.4754 140.016 22.3636 139.531 22.3636C138.997 22.3636 138.535 22.4962 138.145 22.7614C137.759 23.0227 137.461 23.3636 137.253 23.7841C137.045 24.2045 136.94 24.6553 136.94 25.1364V25.9091C136.94 26.5682 137.054 27.1269 137.281 27.5852C137.512 28.0398 137.832 28.3864 138.241 28.625C138.651 28.8598 139.126 28.9773 139.668 28.9773C140.02 28.9773 140.338 28.928 140.622 28.8295C140.91 28.7273 141.158 28.5758 141.366 28.375C141.575 28.1705 141.736 27.9167 141.849 27.6136L143.145 27.9773C143.009 28.4167 142.779 28.803 142.457 29.1364C142.135 29.4659 141.738 29.7235 141.264 29.9091C140.791 30.0909 140.259 30.1818 139.668 30.1818ZM145.321 30V21.2727H146.616V22.5909H146.707C146.866 22.1591 147.154 21.8087 147.571 21.5398C147.988 21.2708 148.457 21.1364 148.98 21.1364C149.079 21.1364 149.202 21.1383 149.349 21.142C149.497 21.1458 149.609 21.1515 149.685 21.1591V22.5227C149.639 22.5114 149.535 22.4943 149.372 22.4716C149.213 22.4451 149.045 22.4318 148.866 22.4318C148.442 22.4318 148.063 22.5208 147.73 22.6989C147.401 22.8731 147.139 23.1155 146.946 23.4261C146.757 23.733 146.662 24.0833 146.662 24.4773V30H145.321ZM155.616 21.2727V22.4091H151.094V21.2727H155.616ZM152.412 19.1818H153.753V27.5C153.753 27.8788 153.808 28.1629 153.918 28.3523C154.031 28.5379 154.175 28.6629 154.349 28.7273C154.527 28.7879 154.715 28.8182 154.912 28.8182C155.06 28.8182 155.181 28.8106 155.276 28.7955C155.37 28.7765 155.446 28.7614 155.503 28.75L155.776 29.9545C155.685 29.9886 155.558 30.0227 155.395 30.0568C155.232 30.0947 155.026 30.1136 154.776 30.1136C154.397 30.1136 154.026 30.0322 153.662 29.8693C153.302 29.7064 153.003 29.4583 152.764 29.125C152.529 28.7917 152.412 28.3712 152.412 27.8636V19.1818ZM165.929 21.2727V22.4091H161.406V21.2727H165.929ZM162.724 19.1818H164.065V27.5C164.065 27.8788 164.12 28.1629 164.23 28.3523C164.344 28.5379 164.488 28.6629 164.662 28.7273C164.84 28.7879 165.027 28.8182 165.224 28.8182C165.372 28.8182 165.493 28.8106 165.588 28.7955C165.683 28.7765 165.759 28.7614 165.815 28.75L166.088 29.9545C165.997 29.9886 165.87 30.0227 165.707 30.0568C165.545 30.0947 165.338 30.1136 165.088 30.1136C164.709 30.1136 164.338 30.0322 163.974 29.8693C163.615 29.7064 163.315 29.4583 163.077 29.125C162.842 28.7917 162.724 28.3712 162.724 27.8636V19.1818ZM167.946 30V21.2727H169.287V30H167.946ZM168.628 19.8182C168.366 19.8182 168.141 19.7292 167.952 19.5511C167.766 19.3731 167.673 19.1591 167.673 18.9091C167.673 18.6591 167.766 18.4451 167.952 18.267C168.141 18.089 168.366 18 168.628 18C168.889 18 169.113 18.089 169.298 18.267C169.488 18.4451 169.582 18.6591 169.582 18.9091C169.582 19.1591 169.488 19.3731 169.298 19.5511C169.113 19.7292 168.889 19.8182 168.628 19.8182ZM175.538 21.2727V22.4091H171.016V21.2727H175.538ZM172.334 19.1818H173.675V27.5C173.675 27.8788 173.73 28.1629 173.839 28.3523C173.953 28.5379 174.097 28.6629 174.271 28.7273C174.449 28.7879 174.637 28.8182 174.834 28.8182C174.982 28.8182 175.103 28.8106 175.197 28.7955C175.292 28.7765 175.368 28.7614 175.425 28.75L175.697 29.9545C175.607 29.9886 175.48 30.0227 175.317 30.0568C175.154 30.0947 174.947 30.1136 174.697 30.1136C174.319 30.1136 173.947 30.0322 173.584 29.8693C173.224 29.7064 172.925 29.4583 172.686 29.125C172.451 28.7917 172.334 28.3712 172.334 27.8636V19.1818ZM179.084 18.3636V30H177.743V18.3636H179.084ZM185.199 30.1818C184.358 30.1818 183.633 29.9962 183.023 29.625C182.417 29.25 181.949 28.7273 181.619 28.0568C181.294 27.3826 181.131 26.5985 181.131 25.7045C181.131 24.8106 181.294 24.0227 181.619 23.3409C181.949 22.6553 182.407 22.1212 182.994 21.7386C183.585 21.3523 184.275 21.1591 185.062 21.1591C185.517 21.1591 185.966 21.2348 186.409 21.3864C186.852 21.5379 187.256 21.7841 187.619 22.125C187.983 22.4621 188.273 22.9091 188.489 23.4659C188.705 24.0227 188.812 24.7083 188.812 25.5227V26.0909H182.085V24.9318H187.449C187.449 24.4394 187.35 24 187.153 23.6136C186.96 23.2273 186.684 22.9223 186.324 22.6989C185.968 22.4754 185.547 22.3636 185.062 22.3636C184.528 22.3636 184.066 22.4962 183.676 22.7614C183.29 23.0227 182.992 23.3636 182.784 23.7841C182.576 24.2045 182.472 24.6553 182.472 25.1364V25.9091C182.472 26.5682 182.585 27.1269 182.812 27.5852C183.044 28.0398 183.364 28.3864 183.773 28.625C184.182 28.8598 184.657 28.9773 185.199 28.9773C185.551 28.9773 185.869 28.928 186.153 28.8295C186.441 28.7273 186.689 28.5758 186.898 28.375C187.106 28.1705 187.267 27.9167 187.381 27.6136L188.676 27.9773C188.54 28.4167 188.311 28.803 187.989 29.1364C187.667 29.4659 187.269 29.7235 186.795 29.9091C186.322 30.0909 185.79 30.1818 185.199 30.1818ZM196.693 24.75V30H195.352V18.3636H196.693V22.6364H196.807C197.011 22.1856 197.318 21.8277 197.727 21.5625C198.14 21.2936 198.689 21.1591 199.375 21.1591C199.97 21.1591 200.491 21.2784 200.938 21.517C201.384 21.7519 201.731 22.1136 201.977 22.6023C202.227 23.0871 202.352 23.7045 202.352 24.4545V30H201.011V24.5455C201.011 23.8523 200.831 23.3163 200.472 22.9375C200.116 22.5549 199.621 22.3636 198.989 22.3636C198.549 22.3636 198.155 22.4564 197.807 22.642C197.462 22.8277 197.189 23.0985 196.989 23.4545C196.792 23.8106 196.693 24.2424 196.693 24.75ZM208.464 30.1818C207.624 30.1818 206.898 29.9962 206.288 29.625C205.682 29.25 205.214 28.7273 204.885 28.0568C204.559 27.3826 204.396 26.5985 204.396 25.7045C204.396 24.8106 204.559 24.0227 204.885 23.3409C205.214 22.6553 205.673 22.1212 206.26 21.7386C206.851 21.3523 207.54 21.1591 208.328 21.1591C208.783 21.1591 209.232 21.2348 209.675 21.3864C210.118 21.5379 210.521 21.7841 210.885 22.125C211.249 22.4621 211.538 22.9091 211.754 23.4659C211.97 24.0227 212.078 24.7083 212.078 25.5227V26.0909H205.351V24.9318H210.714C210.714 24.4394 210.616 24 210.419 23.6136C210.226 23.2273 209.949 22.9223 209.589 22.6989C209.233 22.4754 208.813 22.3636 208.328 22.3636C207.794 22.3636 207.332 22.4962 206.942 22.7614C206.555 23.0227 206.258 23.3636 206.05 23.7841C205.841 24.2045 205.737 24.6553 205.737 25.1364V25.9091C205.737 26.5682 205.851 27.1269 206.078 27.5852C206.309 28.0398 206.629 28.3864 207.038 28.625C207.447 28.8598 207.923 28.9773 208.464 28.9773C208.817 28.9773 209.135 28.928 209.419 28.8295C209.707 28.7273 209.955 28.5758 210.163 28.375C210.372 28.1705 210.533 27.9167 210.646 27.6136L211.942 27.9773C211.805 28.4167 211.576 28.803 211.254 29.1364C210.932 29.4659 210.535 29.7235 210.061 29.9091C209.588 30.0909 209.055 30.1818 208.464 30.1818ZM214.118 30V21.2727H215.413V22.5909H215.504C215.663 22.1591 215.951 21.8087 216.368 21.5398C216.785 21.2708 217.254 21.1364 217.777 21.1364C217.875 21.1364 217.999 21.1383 218.146 21.142C218.294 21.1458 218.406 21.1515 218.482 21.1591V22.5227C218.436 22.5114 218.332 22.4943 218.169 22.4716C218.01 22.4451 217.841 22.4318 217.663 22.4318C217.239 22.4318 216.86 22.5208 216.527 22.6989C216.197 22.8731 215.936 23.1155 215.743 23.4261C215.554 23.733 215.459 24.0833 215.459 24.4773V30H214.118ZM223.464 30.1818C222.624 30.1818 221.898 29.9962 221.288 29.625C220.682 29.25 220.214 28.7273 219.885 28.0568C219.559 27.3826 219.396 26.5985 219.396 25.7045C219.396 24.8106 219.559 24.0227 219.885 23.3409C220.214 22.6553 220.673 22.1212 221.26 21.7386C221.851 21.3523 222.54 21.1591 223.328 21.1591C223.783 21.1591 224.232 21.2348 224.675 21.3864C225.118 21.5379 225.521 21.7841 225.885 22.125C226.249 22.4621 226.538 22.9091 226.754 23.4659C226.97 24.0227 227.078 24.7083 227.078 25.5227V26.0909H220.351V24.9318H225.714C225.714 24.4394 225.616 24 225.419 23.6136C225.226 23.2273 224.949 22.9223 224.589 22.6989C224.233 22.4754 223.813 22.3636 223.328 22.3636C222.794 22.3636 222.332 22.4962 221.942 22.7614C221.555 23.0227 221.258 23.3636 221.05 23.7841C220.841 24.2045 220.737 24.6553 220.737 25.1364V25.9091C220.737 26.5682 220.851 27.1269 221.078 27.5852C221.309 28.0398 221.629 28.3864 222.038 28.625C222.447 28.8598 222.923 28.9773 223.464 28.9773C223.817 28.9773 224.135 28.928 224.419 28.8295C224.707 28.7273 224.955 28.5758 225.163 28.375C225.372 28.1705 225.533 27.9167 225.646 27.6136L226.942 27.9773C226.805 28.4167 226.576 28.803 226.254 29.1364C225.932 29.4659 225.535 29.7235 225.061 29.9091C224.588 30.0909 224.055 30.1818 223.464 30.1818ZM230.891 18.3636L230.777 26.7273H229.459L229.345 18.3636H230.891ZM230.118 30.0909C229.838 30.0909 229.597 29.9905 229.396 29.7898C229.196 29.589 229.095 29.3485 229.095 29.0682C229.095 28.7879 229.196 28.5473 229.396 28.3466C229.597 28.1458 229.838 28.0455 230.118 28.0455C230.398 28.0455 230.639 28.1458 230.839 28.3466C231.04 28.5473 231.141 28.7879 231.141 29.0682C231.141 29.2538 231.093 29.4242 230.999 29.5795C230.908 29.7348 230.785 29.8598 230.629 29.9545C230.478 30.0455 230.307 30.0909 230.118 30.0909Z" fill="#F3F4F6"/>
<path d="M305.761 18.3636H307.523V26.017C307.523 26.8314 307.331 27.553 306.949 28.1818C306.566 28.8068 306.028 29.2992 305.335 29.6591C304.642 30.0152 303.83 30.1932 302.898 30.1932C301.97 30.1932 301.159 30.0152 300.466 29.6591C299.773 29.2992 299.235 28.8068 298.852 28.1818C298.47 27.553 298.278 26.8314 298.278 26.017V18.3636H300.034V25.875C300.034 26.4015 300.15 26.8693 300.381 27.2784C300.616 27.6875 300.947 28.0095 301.375 28.2443C301.803 28.4754 302.311 28.5909 302.898 28.5909C303.489 28.5909 303.998 28.4754 304.426 28.2443C304.858 28.0095 305.188 27.6875 305.415 27.2784C305.646 26.8693 305.761 26.4015 305.761 25.875V18.3636ZM310.259 33.2727V21.2727H311.918V22.6875H312.06C312.159 22.5057 312.301 22.2955 312.486 22.0568C312.672 21.8182 312.929 21.6098 313.259 21.4318C313.588 21.25 314.024 21.1591 314.566 21.1591C315.27 21.1591 315.899 21.3371 316.452 21.6932C317.005 22.0492 317.439 22.5625 317.753 23.233C318.071 23.9034 318.231 24.7102 318.231 25.6534C318.231 26.5966 318.073 27.4053 317.759 28.0795C317.445 28.75 317.013 29.267 316.463 29.6307C315.914 29.9905 315.287 30.1705 314.583 30.1705C314.052 30.1705 313.619 30.0814 313.282 29.9034C312.948 29.7254 312.687 29.517 312.498 29.2784C312.308 29.0398 312.162 28.8277 312.06 28.642H311.958V33.2727H310.259ZM311.924 25.6364C311.924 26.25 312.013 26.7879 312.191 27.25C312.369 27.7121 312.626 28.0739 312.963 28.3352C313.301 28.5928 313.713 28.7216 314.202 28.7216C314.71 28.7216 315.134 28.5871 315.475 28.3182C315.816 28.0455 316.073 27.6761 316.248 27.2102C316.426 26.7443 316.515 26.2197 316.515 25.6364C316.515 25.0606 316.427 24.5436 316.253 24.0852C316.083 23.6269 315.825 23.2652 315.481 23C315.14 22.7348 314.713 22.6023 314.202 22.6023C313.71 22.6023 313.293 22.7292 312.952 22.983C312.615 23.2367 312.359 23.5909 312.185 24.0455C312.011 24.5 311.924 25.0303 311.924 25.6364ZM324.113 33.4545C323.42 33.4545 322.823 33.3636 322.323 33.1818C321.827 33 321.422 32.7595 321.107 32.4602C320.793 32.161 320.558 31.8333 320.403 31.4773L321.863 30.875C321.965 31.0417 322.102 31.2178 322.272 31.4034C322.446 31.5928 322.681 31.7538 322.977 31.8864C323.276 32.0189 323.66 32.0852 324.13 32.0852C324.774 32.0852 325.306 31.928 325.727 31.6136C326.147 31.303 326.357 30.8068 326.357 30.125V28.4091H326.249C326.147 28.5947 325.999 28.8011 325.806 29.0284C325.617 29.2557 325.355 29.4527 325.022 29.6193C324.689 29.786 324.255 29.8693 323.721 29.8693C323.032 29.8693 322.41 29.7083 321.857 29.3864C321.308 29.0606 320.872 28.5814 320.551 27.9489C320.232 27.3125 320.073 26.5303 320.073 25.6023C320.073 24.6742 320.23 23.8788 320.545 23.2159C320.863 22.553 321.299 22.0455 321.852 21.6932C322.405 21.3371 323.032 21.1591 323.732 21.1591C324.274 21.1591 324.711 21.25 325.045 21.4318C325.378 21.6098 325.638 21.8182 325.823 22.0568C326.013 22.2955 326.158 22.5057 326.261 22.6875H326.386V21.2727H328.051V30.1932C328.051 30.9432 327.876 31.5587 327.528 32.0398C327.179 32.5208 326.708 32.8769 326.113 33.108C325.522 33.339 324.855 33.4545 324.113 33.4545ZM324.096 28.4602C324.585 28.4602 324.997 28.3466 325.335 28.1193C325.676 27.8883 325.933 27.5587 326.107 27.1307C326.285 26.6989 326.374 26.1818 326.374 25.5795C326.374 24.9924 326.287 24.4754 326.113 24.0284C325.939 23.5814 325.683 23.233 325.346 22.983C325.009 22.7292 324.592 22.6023 324.096 22.6023C323.585 22.6023 323.158 22.7348 322.818 23C322.477 23.2614 322.219 23.6174 322.045 24.0682C321.874 24.5189 321.789 25.0227 321.789 25.5795C321.789 26.1515 321.876 26.6534 322.051 27.0852C322.225 27.517 322.482 27.8542 322.823 28.0966C323.168 28.339 323.592 28.4602 324.096 28.4602ZM330.649 30V21.2727H332.291V22.6591H332.382C332.541 22.1894 332.821 21.8201 333.223 21.5511C333.628 21.2784 334.086 21.142 334.598 21.142C334.704 21.142 334.829 21.1458 334.973 21.1534C335.121 21.161 335.236 21.1705 335.319 21.1818V22.8068C335.251 22.7879 335.13 22.767 334.956 22.7443C334.781 22.7178 334.607 22.7045 334.433 22.7045C334.031 22.7045 333.674 22.7898 333.359 22.9602C333.049 23.1269 332.802 23.3598 332.621 23.6591C332.439 23.9545 332.348 24.2917 332.348 24.6705V30H330.649ZM339.571 30.1932C339.018 30.1932 338.518 30.0909 338.071 29.8864C337.624 29.678 337.27 29.3769 337.009 28.983C336.751 28.589 336.622 28.1061 336.622 27.5341C336.622 27.0417 336.717 26.6364 336.906 26.3182C337.096 26 337.351 25.7481 337.673 25.5625C337.995 25.3769 338.355 25.2367 338.753 25.142C339.151 25.0473 339.556 24.9754 339.969 24.9261C340.492 24.8655 340.916 24.8163 341.242 24.7784C341.567 24.7367 341.804 24.6705 341.952 24.5795C342.1 24.4886 342.173 24.3409 342.173 24.1364V24.0966C342.173 23.6004 342.033 23.2159 341.753 22.9432C341.476 22.6705 341.064 22.5341 340.514 22.5341C339.942 22.5341 339.492 22.661 339.162 22.9148C338.836 23.1648 338.611 23.4432 338.486 23.75L336.889 23.3864C337.079 22.8561 337.355 22.428 337.719 22.1023C338.086 21.7727 338.509 21.5341 338.986 21.3864C339.463 21.2348 339.965 21.1591 340.492 21.1591C340.84 21.1591 341.209 21.2008 341.6 21.2841C341.994 21.3636 342.361 21.5114 342.702 21.7273C343.047 21.9432 343.329 22.2519 343.548 22.6534C343.768 23.0511 343.878 23.5682 343.878 24.2045V30H342.219V28.8068H342.151C342.041 29.0265 341.876 29.2424 341.656 29.4545C341.437 29.6667 341.155 29.8428 340.81 29.983C340.465 30.1231 340.052 30.1932 339.571 30.1932ZM339.941 28.8295C340.41 28.8295 340.812 28.7367 341.145 28.5511C341.482 28.3655 341.738 28.1231 341.912 27.8239C342.09 27.5208 342.179 27.197 342.179 26.8523V25.7273C342.119 25.7879 342.001 25.8447 341.827 25.8977C341.656 25.947 341.461 25.9905 341.242 26.0284C341.022 26.0625 340.808 26.0947 340.6 26.125C340.391 26.1515 340.217 26.1742 340.077 26.1932C339.747 26.2348 339.446 26.3049 339.173 26.4034C338.905 26.5019 338.689 26.6439 338.526 26.8295C338.367 27.0114 338.287 27.2538 338.287 27.5568C338.287 27.9773 338.442 28.2955 338.753 28.5114C339.064 28.7235 339.459 28.8295 339.941 28.8295ZM349.728 30.1705C349.023 30.1705 348.395 29.9905 347.841 29.6307C347.292 29.267 346.86 28.75 346.546 28.0795C346.235 27.4053 346.08 26.5966 346.08 25.6534C346.08 24.7102 346.237 23.9034 346.552 23.233C346.87 22.5625 347.305 22.0492 347.859 21.6932C348.412 21.3371 349.038 21.1591 349.739 21.1591C350.281 21.1591 350.716 21.25 351.046 21.4318C351.379 21.6098 351.637 21.8182 351.819 22.0568C352.004 22.2955 352.148 22.5057 352.251 22.6875H352.353V18.3636H354.052V30H352.393V28.642H352.251C352.148 28.8277 352.001 29.0398 351.807 29.2784C351.618 29.517 351.357 29.7254 351.023 29.9034C350.69 30.0814 350.258 30.1705 349.728 30.1705ZM350.103 28.7216C350.591 28.7216 351.004 28.5928 351.341 28.3352C351.682 28.0739 351.94 27.7121 352.114 27.25C352.292 26.7879 352.381 26.25 352.381 25.6364C352.381 25.0303 352.294 24.5 352.12 24.0455C351.946 23.5909 351.69 23.2367 351.353 22.983C351.016 22.7292 350.599 22.6023 350.103 22.6023C349.591 22.6023 349.165 22.7348 348.824 23C348.484 23.2652 348.226 23.6269 348.052 24.0852C347.881 24.5436 347.796 25.0606 347.796 25.6364C347.796 26.2197 347.883 26.7443 348.057 27.2102C348.232 27.6761 348.489 28.0455 348.83 28.3182C349.175 28.5871 349.599 28.7216 350.103 28.7216ZM360.558 30.1761C359.698 30.1761 358.957 29.9924 358.336 29.625C357.719 29.2538 357.241 28.733 356.904 28.0625C356.571 27.3883 356.404 26.5985 356.404 25.6932C356.404 24.7992 356.571 24.0114 356.904 23.3295C357.241 22.6477 357.711 22.1155 358.313 21.733C358.92 21.3504 359.628 21.1591 360.438 21.1591C360.931 21.1591 361.408 21.2405 361.87 21.4034C362.332 21.5663 362.747 21.822 363.115 22.1705C363.482 22.5189 363.772 22.9716 363.984 23.5284C364.196 24.0814 364.302 24.7538 364.302 25.5455V26.1477H357.365V24.875H362.637C362.637 24.428 362.546 24.0322 362.365 23.6875C362.183 23.339 361.927 23.0644 361.598 22.8636C361.272 22.6629 360.889 22.5625 360.45 22.5625C359.973 22.5625 359.556 22.6799 359.2 22.9148C358.848 23.1458 358.575 23.4489 358.382 23.8239C358.192 24.1951 358.098 24.5985 358.098 25.0341V26.0284C358.098 26.6117 358.2 27.108 358.404 27.517C358.613 27.9261 358.902 28.2386 359.274 28.4545C359.645 28.6667 360.079 28.7727 360.575 28.7727C360.897 28.7727 361.19 28.7273 361.456 28.6364C361.721 28.5417 361.95 28.4015 362.143 28.2159C362.336 28.0303 362.484 27.8011 362.586 27.5284L364.194 27.8182C364.065 28.2917 363.834 28.7064 363.501 29.0625C363.171 29.4148 362.757 29.6894 362.257 29.8864C361.76 30.0795 361.194 30.1761 360.558 30.1761Z" fill="#F3F4F6"/>
<path d="M297 34H365.052V35.0909H297V34Z" fill="#F3F4F6"/>
<path fill-rule="evenodd" clip-rule="evenodd" d="M386.058 16.0581C386.302 15.814 386.698 15.814 386.942 16.0581L391.942 21.0581C392.186 21.3021 392.186 21.6979 391.942 21.9419L386.942 26.9419C386.698 27.186 386.302 27.186 386.058 26.9419C385.814 26.6979 385.814 26.3021 386.058 26.0581L389.991 22.125H381.5C379.084 22.125 377.125 24.0838 377.125 26.5C377.125 28.9162 379.084 30.875 381.5 30.875H384C384.345 30.875 384.625 31.1548 384.625 31.5C384.625 31.8452 384.345 32.125 384 32.125H381.5C378.393 32.125 375.875 29.6066 375.875 26.5C375.875 23.3934 378.393 20.875 381.5 20.875H389.991L386.058 16.9419C385.814 16.6979 385.814 16.3021 386.058 16.0581Z" fill="#F3F4F6"/>
<path fill-rule="evenodd" clip-rule="evenodd" d="M406.558 18.5581C406.802 18.314 407.198 18.314 407.442 18.5581L412 23.1161L416.558 18.5581C416.802 18.314 417.198 18.314 417.442 18.5581C417.686 18.8021 417.686 19.1979 417.442 19.4419L412.884 24L417.442 28.5581C417.686 28.8021 417.686 29.1979 417.442 29.4419C417.198 29.686 416.802 29.686 416.558 29.4419L412 24.8839L407.442 29.4419C407.198 29.686 406.802 29.686 406.558 29.4419C406.314 29.1979 406.314 28.8021 406.558 28.5581L411.116 24L406.558 19.4419C406.314 19.1979 406.314 18.8021 406.558 18.5581Z" fill="#F3F4F6"/>
</svg>
