<svg width="48" height="48" viewBox="0 0 48 48" fill="none" xmlns="http://www.w3.org/2000/svg">
<rect width="48" height="48" rx="24" fill="black"/>
<path d="M30.8438 29.2969C31.9219 28.5 32.625 27.3281 32.625 26.0156C32.625 23.625 30.2812 21.7031 27.4219 21.7031C24.5625 21.7031 22.2656 23.625 22.2656 26.0156C22.2656 28.4062 24.5625 30.3281 27.4219 30.3281C28.0312 30.3281 28.5938 30.2344 29.1094 30.0937C29.2969 30.0469 29.4844 30.0937 29.5312 30.1406L30.7031 30.7969C30.8438 30.8906 30.9844 30.7969 30.9375 30.6094L30.6562 29.5781C30.6562 29.4375 30.75 29.3437 30.8438 29.2969ZM25.6875 25.3125C25.5834 25.3401 25.4744 25.3434 25.3688 25.3221C25.2632 25.3009 25.164 25.2557 25.0786 25.19C24.9933 25.1243 24.9242 25.04 24.8766 24.9433C24.8291 24.8467 24.8043 24.7405 24.8043 24.6328C24.8043 24.5251 24.8291 24.4189 24.8766 24.3223C24.9242 24.2257 24.9933 24.1413 25.0786 24.0756C25.164 24.0099 25.2632 23.9647 25.3688 23.9435C25.4744 23.9223 25.5834 23.9256 25.6875 23.9531C25.8375 23.9928 25.9701 24.081 26.0647 24.204C26.1593 24.3269 26.2106 24.4777 26.2106 24.6328C26.2106 24.7879 26.1593 24.9387 26.0647 25.0616C25.9701 25.1846 25.8375 25.2728 25.6875 25.3125ZM29.1562 25.3125C29.0522 25.3401 28.9431 25.3434 28.8376 25.3221C28.732 25.3009 28.6327 25.2557 28.5474 25.19C28.4621 25.1243 28.3929 25.04 28.3454 24.9433C28.2978 24.8467 28.2731 24.7405 28.2731 24.6328C28.2731 24.5251 28.2978 24.4189 28.3454 24.3223C28.3929 24.2257 28.4621 24.1413 28.5474 24.0756C28.6327 24.0099 28.732 23.9647 28.8376 23.9435C28.9431 23.9223 29.0522 23.9256 29.1562 23.9531C29.3062 23.9928 29.4388 24.081 29.5334 24.204C29.628 24.3269 29.6793 24.4777 29.6793 24.6328C29.6793 24.7879 29.628 24.9387 29.5334 25.0616C29.4388 25.1846 29.3062 25.2728 29.1562 25.3125Z" fill="white"/>
<path d="M21.6094 16.9219C18.1875 16.9219 15.4219 19.2656 15.4219 22.125C15.4219 23.6719 16.2188 25.0781 17.5312 26.0156C17.6719 26.1094 17.7656 26.25 17.7188 26.4844L17.3906 27.6094C17.3438 27.8438 17.5312 27.9375 17.6719 27.8906L19.0781 27.0938C19.2188 27 19.4062 26.9531 19.5938 27C20.8125 27.375 21.8438 27.2812 21.9844 27.2812C20.8594 23.3438 24.75 21.0938 27.75 21.2812C27.2812 18.8438 24.7031 16.9219 21.6094 16.9219ZM19.5469 21.2812C19.4228 21.3111 19.2936 21.3125 19.169 21.2852C19.0443 21.2579 18.9275 21.2027 18.8272 21.1237C18.727 21.0447 18.646 20.9441 18.5903 20.8293C18.5346 20.7145 18.5056 20.5885 18.5056 20.4609C18.5056 20.3333 18.5346 20.2074 18.5903 20.0926C18.646 19.9778 18.727 19.8771 18.8272 19.7982C18.9275 19.7192 19.0443 19.664 19.169 19.6367C19.2936 19.6094 19.4228 19.6108 19.5469 19.6406C19.731 19.685 19.8949 19.79 20.0122 19.9388C20.1294 20.0876 20.1931 20.2715 20.1931 20.4609C20.1931 20.6504 20.1294 20.8343 20.0122 20.9831C19.8949 21.1319 19.731 21.2369 19.5469 21.2812ZM23.7188 21.2812C23.5947 21.3111 23.4655 21.3125 23.3408 21.2852C23.2162 21.2579 23.0993 21.2027 22.9991 21.1237C22.8989 21.0447 22.8179 20.9441 22.7622 20.8293C22.7065 20.7145 22.6775 20.5885 22.6775 20.4609C22.6775 20.3333 22.7065 20.2074 22.7622 20.0926C22.8179 19.9778 22.8989 19.8771 22.9991 19.7982C23.0993 19.7192 23.2162 19.664 23.3408 19.6367C23.4655 19.6094 23.5947 19.6108 23.7188 19.6406C23.9029 19.685 24.0668 19.79 24.184 19.9388C24.3013 20.0876 24.365 20.2715 24.365 20.4609C24.365 20.6504 24.3013 20.8343 24.184 20.9831C24.0668 21.1319 23.9029 21.2369 23.7188 21.2812Z" fill="white"/>
</svg>
