<svg width="40" height="40" viewBox="0 0 40 40" fill="none" xmlns="http://www.w3.org/2000/svg">
<g clip-path="url(#clip0_56_1729)">
<path d="M20.081 32.0382C13.4363 32.0382 10.4004 28.6533 10.4004 26.1706C10.3995 25.5783 10.6426 25.0118 11.0724 24.6044C11.5023 24.1969 12.081 23.9845 12.6723 24.0171C15.5173 24.0171 14.7731 28.2845 20.081 28.2845C22.7942 28.2845 24.3878 26.6513 24.3878 25.1169C24.3878 24.1949 23.861 23.1413 22.0698 22.7198L16.1429 21.2249C11.3816 20.0132 10.5518 17.3658 10.5518 14.9095C10.5518 9.81233 15.2143 7.96841 19.6529 7.96841C23.7425 7.96841 28.6025 10.2272 28.6025 13.2829C28.6025 14.5999 27.5028 15.3046 26.2252 15.3046C23.7952 15.3046 24.2035 11.8933 19.3171 11.8933C16.887 11.8933 15.6095 13.0326 15.6095 14.6263C15.6095 16.22 17.4995 16.76 19.159 17.1222L23.5317 18.11C28.3259 19.19 29.6035 22.002 29.6035 24.6954C29.6035 28.8377 26.3964 32.0382 20.0744 32.0382H20.081ZM38.428 23.273C38.6178 22.1857 38.7126 21.084 38.7112 19.9803C38.7344 14.4361 36.2984 9.16688 32.0596 5.59308C27.8209 2.01929 22.2159 0.508725 16.7553 1.46858C15.077 0.502254 13.1734 -0.00430082 11.2367 2.75068e-05C7.26149 0.0243113 3.59727 2.15483 1.60966 5.59758C-0.377943 9.04032 -0.3908 13.2789 1.57588 16.7336C0.478488 22.7635 2.4008 28.9488 6.72275 33.2943C11.0447 37.6399 17.2194 39.5959 23.2552 38.5314C24.9315 39.4969 26.8327 40.0035 28.7672 40C32.7404 39.9744 36.4024 37.8448 38.3895 34.4041C40.3767 30.9635 40.3914 26.7273 38.428 23.273Z" fill="#0078D7"/>
</g>
<defs>
<clipPath id="clip0_56_1729">
<rect width="40" height="40" fill="white"/>
</clipPath>
</defs>
</svg>
