<svg width="48" height="48" viewBox="0 0 48 48" fill="none" xmlns="http://www.w3.org/2000/svg">
<rect width="48" height="48" rx="24" fill="black"/>
<path d="M23.9792 13.4855C18.3037 13.4855 13.7031 18.0861 13.7031 23.7616C13.7031 29.437 18.3037 34.0377 23.9792 34.0377C29.6547 34.0377 34.2553 29.4371 34.2553 23.7616C34.2553 18.0861 29.6547 13.4855 23.9792 13.4855ZM23.9792 14.6197C29.0276 14.6197 33.1212 18.7133 33.1212 23.7616C33.1212 28.81 29.0276 32.9036 23.9792 32.9036C18.9309 32.9036 14.8458 28.81 14.8458 23.7616C14.8458 18.7133 18.9309 14.6197 23.9792 14.6197Z" fill="white"/>
<path d="M28.2619 16.907L21.1358 18.834H21.1276V21.7326H21.1358V26.9153C20.8241 26.7277 20.4419 26.6163 20.0312 26.6163C18.9735 26.6163 18.1211 27.3509 18.1211 28.2524C18.1211 29.1542 18.9737 29.8804 20.0312 29.8804C21.0888 29.8804 21.9876 29.1535 21.9499 28.2525L21.9305 27.79L21.8835 21.5247L27.5146 20.0047V25.7272C27.1858 25.5006 26.7661 25.3618 26.3103 25.3618C25.2525 25.3618 24.3999 26.0965 24.3999 26.998C24.3999 27.8998 25.2525 28.6259 26.3103 28.6259C27.3681 28.6259 28.2571 27.8998 28.2571 26.998C28.2571 26.9895 28.2574 26.9815 28.2571 26.973L28.2622 19.8051V16.907H28.2619Z" fill="white"/>
</svg>
