<svg width="40" height="40" viewBox="0 0 40 40" fill="none" xmlns="http://www.w3.org/2000/svg">
<path d="M19.9647 2.47581C10.5056 2.47581 2.83789 10.1435 2.83789 19.6026C2.83789 29.0617 10.5056 36.7294 19.9647 36.7294C29.4238 36.7294 37.0915 29.0618 37.0915 19.6026C37.0915 10.1435 29.4238 2.47581 19.9647 2.47581ZM19.9647 4.36611C28.3786 4.36611 35.2013 11.1888 35.2013 19.6027C35.2013 28.0166 28.3786 34.8393 19.9647 34.8393C11.5508 34.8393 4.74241 28.0166 4.74241 19.6027C4.74241 11.1888 11.5508 4.36611 19.9647 4.36611Z" fill="black"/>
<path d="M27.1016 8.17841L15.2248 11.39H15.211V16.2209H15.2248V24.8588C14.7052 24.5461 14.0682 24.3605 13.3838 24.3605C11.6208 24.3605 10.2002 25.5848 10.2002 27.0874C10.2002 28.5904 11.6212 29.8006 13.3838 29.8006C15.1464 29.8006 16.6444 28.5891 16.5816 27.0874L16.5492 26.3167L16.4708 15.8745L25.856 13.3412V22.8787C25.308 22.5009 24.6086 22.2697 23.8489 22.2697C22.0859 22.2697 20.6648 23.4941 20.6648 24.9966C20.6648 26.4996 22.0859 27.7098 23.8489 27.7098C25.6119 27.7098 27.0936 26.4996 27.0936 24.9966C27.0936 24.9825 27.0941 24.9692 27.0936 24.955L27.1021 13.0086V8.17841H27.1016Z" fill="black"/>
</svg>
