<svg width="48" height="48" viewBox="0 0 48 48" fill="none" xmlns="http://www.w3.org/2000/svg">
<rect width="48" height="48" rx="24" fill="black"/>
<g clip-path="url(#clip0_56_1840)">
<path d="M32.3758 12.001H15.6242C13.6225 12.001 12 13.6235 12 15.625V32.3749C12 34.3765 13.6225 35.9989 15.6242 35.9989H32.3758C34.3775 35.9989 36 34.3764 36 32.3749V15.6252C36 13.6236 34.3774 12.001 32.3758 12.001Z" fill="black"/>
<path d="M17.3957 16.3616C18.9067 15.0096 20.6782 14.0583 23.3877 14.5501V23.2593C23.2716 23.6773 22.9232 23.7703 22.6213 23.538L17.3957 16.3616ZM28.2094 19.5316C29.4232 20.2898 30.7817 21.8052 31.1666 24.0369L25.3319 24.9816C24.9954 24.8536 24.7424 24.6424 24.7746 24.1455L28.2094 19.5316ZM25.5062 27.0021C25.1298 27.0867 24.9308 27.3129 25.0185 27.7685L27.9696 32.7642C29.2819 32.1621 30.5917 30.7567 31.1845 28.6743L25.5062 27.0021ZM22.4754 27.6988C22.8657 27.6482 23.2303 27.6407 23.3463 28.0471L23.5205 33.6211C21.6033 33.7629 20.0044 33.2679 18.9221 31.7398L22.4754 27.6988ZM21.709 25.1209C21.9878 25.4559 22.1442 25.8085 21.7787 26.2357L16.4138 28.1169C15.7814 26.3706 15.8393 24.7305 16.4138 23.1701L21.709 25.1209Z" fill="white"/>
</g>
<defs>
<clipPath id="clip0_56_1840">
<rect width="24" height="24" fill="white" transform="translate(12 12)"/>
</clipPath>
</defs>
</svg>
