<svg width="40" height="40" viewBox="0 0 40 40" fill="none" xmlns="http://www.w3.org/2000/svg">
<rect width="40" height="40" rx="20" fill="#FF0000"/>
<path opacity="0.554" d="M26.6884 6H12.5331C8.78608 6 5.76953 9.04107 5.76953 12.8185V26.6287C5.89087 29.5773 6.35744 27.7132 7.24536 24.4479C8.27749 20.6528 11.6385 17.336 15.7319 14.8502C18.8561 12.9528 22.353 11.7413 28.7187 11.6259C32.3287 11.5607 32.0101 6.94068 26.6884 6Z" fill="url(#paint0_linear_56_1767)"/>
<path d="M11.7945 10.4299C13.6841 8.73898 15.8997 7.54924 19.2883 8.16435V19.0567C19.1431 19.5794 18.7074 19.6957 18.3299 19.4052L11.7945 10.4299ZM25.3186 14.3945C26.8367 15.3427 28.5357 17.238 29.0171 20.0291L21.7199 21.2106C21.2991 21.0505 20.9826 20.7864 21.0229 20.1649L25.3186 14.3945ZM21.9379 23.7376C21.4671 23.8433 21.2182 24.1262 21.3279 24.6961L25.0187 30.9441C26.66 30.191 28.2981 28.4333 29.0394 25.8289L21.9379 23.7376ZM18.1474 24.6089C18.6355 24.5457 19.0915 24.5362 19.2366 25.0445L19.4545 32.0156C17.0566 32.193 15.057 31.574 13.7034 29.6629L18.1474 24.6089ZM17.1888 21.3848C17.5375 21.8038 17.7332 22.2447 17.2761 22.779L10.5664 25.1318C9.77542 22.9477 9.84784 20.8966 10.5664 18.945L17.1888 21.3848Z" fill="white"/>
<defs>
<linearGradient id="paint0_linear_56_1767" x1="12.2424" y1="0.299361" x2="16.148" y2="11.6837" gradientUnits="userSpaceOnUse">
<stop stop-color="white"/>
<stop offset="1" stop-color="white" stop-opacity="0"/>
</linearGradient>
</defs>
</svg>
