<svg width="146" height="43" viewBox="0 0 146 43" fill="none" xmlns="http://www.w3.org/2000/svg">
<path d="M28 14V29M35.5 21.5L20.5 21.5" stroke="#F3F4F6" stroke-width="2" stroke-linecap="round" stroke-linejoin="round"/>
<path d="M49.1985 27V16.0909H53.1935C53.9677 16.0909 54.6087 16.2187 55.1165 16.4744C55.6243 16.7266 56.0043 17.0692 56.2564 17.5025C56.5085 17.9322 56.6346 18.4169 56.6346 18.9567C56.6346 19.4112 56.5511 19.7947 56.3842 20.1072C56.2173 20.4162 55.9936 20.6648 55.7131 20.853C55.4361 21.0376 55.1307 21.1726 54.7969 21.2578V21.3643C55.1591 21.3821 55.5124 21.4993 55.8569 21.7159C56.2049 21.929 56.4925 22.2326 56.7198 22.6268C56.9471 23.021 57.0607 23.5004 57.0607 24.065C57.0607 24.6225 56.9293 25.1232 56.6665 25.5671C56.4073 26.0075 56.006 26.3572 55.4627 26.6165C54.9194 26.8722 54.2251 27 53.38 27H49.1985ZM50.8445 25.5884H53.2202C54.0085 25.5884 54.5732 25.4357 54.9141 25.1303C55.255 24.8249 55.4254 24.4432 55.4254 23.9851C55.4254 23.6406 55.3384 23.3246 55.1644 23.0369C54.9904 22.7493 54.7418 22.5202 54.4187 22.3498C54.0991 22.1793 53.7191 22.0941 53.2788 22.0941H50.8445V25.5884ZM50.8445 20.8104H53.0497C53.419 20.8104 53.7511 20.7393 54.0458 20.5973C54.3441 20.4553 54.5803 20.2564 54.7543 20.0007C54.9318 19.7415 55.0206 19.4361 55.0206 19.0845C55.0206 18.6335 54.8626 18.2553 54.5465 17.9499C54.2305 17.6445 53.7457 17.4918 53.0923 17.4918H50.8445V20.8104ZM64.388 23.6069V18.8182H65.986V27H64.42V25.5831H64.3347C64.1465 26.0199 63.8447 26.3839 63.4292 26.6751C63.0173 26.9627 62.5041 27.1065 61.8898 27.1065C61.3642 27.1065 60.899 26.9911 60.4942 26.7603C60.0929 26.5259 59.7769 26.1797 59.546 25.7216C59.3188 25.2635 59.2051 24.6971 59.2051 24.0224V18.8182H60.7978V23.8306C60.7978 24.3881 60.9523 24.832 61.2612 25.1623C61.5702 25.4925 61.9715 25.6577 62.4651 25.6577C62.7634 25.6577 63.0599 25.5831 63.3546 25.4339C63.6529 25.2848 63.8997 25.0593 64.095 24.7575C64.2939 24.4556 64.3916 24.0721 64.388 23.6069ZM72.2653 18.8182V20.0966H67.7962V18.8182H72.2653ZM68.9947 16.858H70.5874V24.5977C70.5874 24.9066 70.6335 25.1392 70.7258 25.2955C70.8182 25.4482 70.9371 25.5529 71.0827 25.6097C71.2319 25.663 71.3935 25.6896 71.5675 25.6896C71.6953 25.6896 71.8072 25.6808 71.903 25.663C71.9989 25.6452 72.0735 25.631 72.1268 25.6204L72.4144 26.9361C72.3221 26.9716 72.1907 27.0071 72.0202 27.0426C71.8498 27.0817 71.6367 27.103 71.381 27.1065C70.962 27.1136 70.5714 27.0391 70.2092 26.8828C69.8469 26.7266 69.554 26.4851 69.3303 26.1584C69.1065 25.8317 68.9947 25.4215 68.9947 24.9279V16.858ZM78.1663 18.8182V20.0966H73.6972V18.8182H78.1663ZM74.8957 16.858H76.4884V24.5977C76.4884 24.9066 76.5346 25.1392 76.6269 25.2955C76.7192 25.4482 76.8382 25.5529 76.9838 25.6097C77.1329 25.663 77.2945 25.6896 77.4685 25.6896C77.5964 25.6896 77.7082 25.6808 77.8041 25.663C77.9 25.6452 77.9746 25.631 78.0278 25.6204L78.3155 26.9361C78.2231 26.9716 78.0917 27.0071 77.9213 27.0426C77.7508 27.0817 77.5378 27.103 77.2821 27.1065C76.8631 27.1136 76.4724 27.0391 76.1102 26.8828C75.748 26.7266 75.455 26.4851 75.2313 26.1584C75.0076 25.8317 74.8957 25.4215 74.8957 24.9279V16.858ZM83.6066 27.1651C82.8396 27.1651 82.1702 26.9893 81.5984 26.6378C81.0267 26.2862 80.5828 25.7944 80.2668 25.1623C79.9507 24.5302 79.7927 23.7915 79.7927 22.9464C79.7927 22.0977 79.9507 21.3555 80.2668 20.7198C80.5828 20.0842 81.0267 19.5906 81.5984 19.239C82.1702 18.8874 82.8396 18.7116 83.6066 18.7116C84.3737 18.7116 85.0431 18.8874 85.6148 19.239C86.1865 19.5906 86.6304 20.0842 86.9465 20.7198C87.2625 21.3555 87.4205 22.0977 87.4205 22.9464C87.4205 23.7915 87.2625 24.5302 86.9465 25.1623C86.6304 25.7944 86.1865 26.2862 85.6148 26.6378C85.0431 26.9893 84.3737 27.1651 83.6066 27.1651ZM83.6119 25.8281C84.1091 25.8281 84.521 25.6967 84.8477 25.4339C85.1744 25.1712 85.4159 24.8214 85.5722 24.3846C85.732 23.9478 85.8119 23.4666 85.8119 22.9411C85.8119 22.419 85.732 21.9396 85.5722 21.5028C85.4159 21.0625 85.1744 20.7092 84.8477 20.4428C84.521 20.1765 84.1091 20.0433 83.6119 20.0433C83.1112 20.0433 82.6958 20.1765 82.3655 20.4428C82.0388 20.7092 81.7955 21.0625 81.6357 21.5028C81.4795 21.9396 81.4014 22.419 81.4014 22.9411C81.4014 23.4666 81.4795 23.9478 81.6357 24.3846C81.7955 24.8214 82.0388 25.1712 82.3655 25.4339C82.6958 25.6967 83.1112 25.8281 83.6119 25.8281ZM91.111 22.142V27H89.5183V18.8182H91.0471V20.1499H91.1483C91.3365 19.7166 91.6312 19.3686 92.0325 19.1058C92.4374 18.843 92.9469 18.7116 93.5613 18.7116C94.1188 18.7116 94.6071 18.8288 95.0261 19.0632C95.4452 19.294 95.7701 19.6385 96.0009 20.0966C96.2317 20.5547 96.3472 21.1211 96.3472 21.7958V27H94.7545V21.9876C94.7545 21.3945 94.6 20.9311 94.291 20.5973C93.9821 20.2599 93.5577 20.0913 93.018 20.0913C92.6486 20.0913 92.3202 20.1712 92.0325 20.331C91.7484 20.4908 91.5229 20.7251 91.356 21.0341C91.1927 21.3395 91.111 21.7088 91.111 22.142Z" fill="#F3F4F6"/>
<path d="M118 14V29M125.5 21.5L110.5 21.5" stroke="#F3F4F6" stroke-width="2" stroke-linecap="round" stroke-linejoin="round"/>
<path d="M132 1C139.18 1 145 6.8203 145 14V29C145 36.1797 139.18 42 132 42H14C6.8203 42 1 36.1797 1 29V14C1 6.8203 6.8203 1 14 1H132Z" stroke="#364153" stroke-width="2"/>
</svg>
