<svg width="48" height="48" viewBox="0 0 48 48" fill="none" xmlns="http://www.w3.org/2000/svg">
<rect width="48" height="48" rx="24" fill="black"/>
<path d="M33.7732 29.7033C33.407 30.5418 32.9734 31.3136 32.4711 32.0232C31.7864 32.9906 31.2258 33.6602 30.7938 34.032C30.1241 34.6424 29.4065 34.955 28.6381 34.9728C28.0865 34.9728 27.4212 34.8172 26.6468 34.5017C25.8699 34.1876 25.1559 34.032 24.5031 34.032C23.8184 34.032 23.0841 34.1876 22.2986 34.5017C21.512 34.8172 20.8783 34.9816 20.3938 34.9979C19.6569 35.0291 18.9225 34.7076 18.1893 34.032C17.7214 33.6276 17.1362 32.9343 16.435 31.9521C15.6828 30.9033 15.0643 29.687 14.5798 28.3004C14.0609 26.8026 13.8008 25.3523 13.8008 23.9482C13.8008 22.3398 14.1515 20.9526 14.854 19.7901C15.4061 18.8564 16.1405 18.1198 17.0598 17.5791C17.979 17.0383 18.9722 16.7628 20.0419 16.7452C20.6271 16.7452 21.3946 16.9246 22.3484 17.2771C23.2995 17.6309 23.9102 17.8103 24.1779 17.8103C24.3781 17.8103 25.0565 17.6005 26.2066 17.1823C27.2941 16.7945 28.212 16.6339 28.964 16.6972C31.0016 16.8601 32.5324 17.6561 33.5505 19.0901C31.7281 20.1843 30.8267 21.7169 30.8446 23.6829C30.8611 25.2142 31.4217 26.4886 32.5235 27.5004C33.0228 27.97 33.5804 28.333 34.2008 28.5907C34.0662 28.9774 33.9242 29.3477 33.7732 29.7033ZM29.1 11.4801C29.1 12.6804 28.6575 13.8011 27.7755 14.8384C26.7111 16.0716 25.4237 16.7841 24.0275 16.6717C24.0098 16.5277 23.9994 16.3761 23.9994 16.2169C23.9994 15.0646 24.5056 13.8315 25.4045 12.8232C25.8533 12.3127 26.4241 11.8882 27.1162 11.5496C27.8069 11.2161 28.4602 11.0316 29.0746 11C29.0926 11.1605 29.1 11.3209 29.1 11.4801V11.4801Z" fill="white"/>
</svg>
