<svg width="138" height="36" viewBox="0 0 138 36" fill="none" xmlns="http://www.w3.org/2000/svg">
<path d="M0 12C0 5.37258 5.37258 0 12 0H126C132.627 0 138 5.37258 138 12V24C138 30.6274 132.627 36 126 36H12C5.37258 36 0 30.6274 0 24V12Z" fill="#F3F4F6"/>
<path d="M24 10.5V25.5M31.5 18L16.5 18" stroke="#99A1AF" stroke-width="2" stroke-linecap="round" stroke-linejoin="round"/>
<path d="M45.1985 23.5V12.5909H49.1935C49.9677 12.5909 50.6087 12.7187 51.1165 12.9744C51.6243 13.2266 52.0043 13.5692 52.2564 14.0025C52.5085 14.4322 52.6346 14.9169 52.6346 15.4567C52.6346 15.9112 52.5511 16.2947 52.3842 16.6072C52.2173 16.9162 51.9936 17.1648 51.7131 17.353C51.4361 17.5376 51.1307 17.6726 50.7969 17.7578V17.8643C51.1591 17.8821 51.5124 17.9993 51.8569 18.2159C52.2049 18.429 52.4925 18.7326 52.7198 19.1268C52.9471 19.521 53.0607 20.0004 53.0607 20.565C53.0607 21.1225 52.9293 21.6232 52.6665 22.0671C52.4073 22.5075 52.006 22.8572 51.4627 23.1165C50.9194 23.3722 50.2251 23.5 49.38 23.5H45.1985ZM46.8445 22.0884H49.2202C50.0085 22.0884 50.5732 21.9357 50.9141 21.6303C51.255 21.3249 51.4254 20.9432 51.4254 20.4851C51.4254 20.1406 51.3384 19.8246 51.1644 19.5369C50.9904 19.2493 50.7418 19.0202 50.4187 18.8498C50.0991 18.6793 49.7191 18.5941 49.2788 18.5941H46.8445V22.0884ZM46.8445 17.3104H49.0497C49.419 17.3104 49.7511 17.2393 50.0458 17.0973C50.3441 16.9553 50.5803 16.7564 50.7543 16.5007C50.9318 16.2415 51.0206 15.9361 51.0206 15.5845C51.0206 15.1335 50.8626 14.7553 50.5465 14.4499C50.2305 14.1445 49.7457 13.9918 49.0923 13.9918H46.8445V17.3104ZM60.388 20.1069V15.3182H61.986V23.5H60.42V22.0831H60.3347C60.1465 22.5199 59.8447 22.8839 59.4292 23.1751C59.0173 23.4627 58.5041 23.6065 57.8898 23.6065C57.3642 23.6065 56.899 23.4911 56.4942 23.2603C56.0929 23.0259 55.7769 22.6797 55.546 22.2216C55.3188 21.7635 55.2051 21.1971 55.2051 20.5224V15.3182H56.7978V20.3306C56.7978 20.8881 56.9523 21.332 57.2612 21.6623C57.5702 21.9925 57.9715 22.1577 58.4651 22.1577C58.7634 22.1577 59.0599 22.0831 59.3546 21.9339C59.6529 21.7848 59.8997 21.5593 60.095 21.2575C60.2939 20.9556 60.3916 20.5721 60.388 20.1069ZM68.2653 15.3182V16.5966H63.7962V15.3182H68.2653ZM64.9947 13.358H66.5874V21.0977C66.5874 21.4066 66.6335 21.6392 66.7258 21.7955C66.8182 21.9482 66.9371 22.0529 67.0827 22.1097C67.2319 22.163 67.3935 22.1896 67.5675 22.1896C67.6953 22.1896 67.8072 22.1808 67.903 22.163C67.9989 22.1452 68.0735 22.131 68.1268 22.1204L68.4144 23.4361C68.3221 23.4716 68.1907 23.5071 68.0202 23.5426C67.8498 23.5817 67.6367 23.603 67.381 23.6065C66.962 23.6136 66.5714 23.5391 66.2092 23.3828C65.8469 23.2266 65.554 22.9851 65.3303 22.6584C65.1065 22.3317 64.9947 21.9215 64.9947 21.4279V13.358ZM74.1663 15.3182V16.5966H69.6972V15.3182H74.1663ZM70.8957 13.358H72.4884V21.0977C72.4884 21.4066 72.5346 21.6392 72.6269 21.7955C72.7192 21.9482 72.8382 22.0529 72.9838 22.1097C73.1329 22.163 73.2945 22.1896 73.4685 22.1896C73.5964 22.1896 73.7082 22.1808 73.8041 22.163C73.9 22.1452 73.9746 22.131 74.0278 22.1204L74.3155 23.4361C74.2231 23.4716 74.0917 23.5071 73.9213 23.5426C73.7508 23.5817 73.5378 23.603 73.2821 23.6065C72.8631 23.6136 72.4724 23.5391 72.1102 23.3828C71.748 23.2266 71.455 22.9851 71.2313 22.6584C71.0076 22.3317 70.8957 21.9215 70.8957 21.4279V13.358ZM79.6066 23.6651C78.8396 23.6651 78.1702 23.4893 77.5984 23.1378C77.0267 22.7862 76.5828 22.2944 76.2668 21.6623C75.9507 21.0302 75.7927 20.2915 75.7927 19.4464C75.7927 18.5977 75.9507 17.8555 76.2668 17.2198C76.5828 16.5842 77.0267 16.0906 77.5984 15.739C78.1702 15.3874 78.8396 15.2116 79.6066 15.2116C80.3737 15.2116 81.0431 15.3874 81.6148 15.739C82.1865 16.0906 82.6304 16.5842 82.9465 17.2198C83.2625 17.8555 83.4205 18.5977 83.4205 19.4464C83.4205 20.2915 83.2625 21.0302 82.9465 21.6623C82.6304 22.2944 82.1865 22.7862 81.6148 23.1378C81.0431 23.4893 80.3737 23.6651 79.6066 23.6651ZM79.6119 22.3281C80.1091 22.3281 80.521 22.1967 80.8477 21.9339C81.1744 21.6712 81.4159 21.3214 81.5722 20.8846C81.732 20.4478 81.8119 19.9666 81.8119 19.4411C81.8119 18.919 81.732 18.4396 81.5722 18.0028C81.4159 17.5625 81.1744 17.2092 80.8477 16.9428C80.521 16.6765 80.1091 16.5433 79.6119 16.5433C79.1112 16.5433 78.6958 16.6765 78.3655 16.9428C78.0388 17.2092 77.7955 17.5625 77.6357 18.0028C77.4795 18.4396 77.4014 18.919 77.4014 19.4411C77.4014 19.9666 77.4795 20.4478 77.6357 20.8846C77.7955 21.3214 78.0388 21.6712 78.3655 21.9339C78.6958 22.1967 79.1112 22.3281 79.6119 22.3281ZM87.111 18.642V23.5H85.5183V15.3182H87.0471V16.6499H87.1483C87.3365 16.2166 87.6312 15.8686 88.0325 15.6058C88.4374 15.343 88.9469 15.2116 89.5613 15.2116C90.1188 15.2116 90.6071 15.3288 91.0261 15.5632C91.4452 15.794 91.7701 16.1385 92.0009 16.5966C92.2317 17.0547 92.3472 17.6211 92.3472 18.2958V23.5H90.7545V18.4876C90.7545 17.8945 90.6 17.4311 90.291 17.0973C89.9821 16.7599 89.5577 16.5913 89.018 16.5913C88.6486 16.5913 88.3202 16.6712 88.0325 16.831C87.7484 16.9908 87.5229 17.2251 87.356 17.5341C87.1927 17.8395 87.111 18.2088 87.111 18.642Z" fill="#99A1AF"/>
<path d="M114 10.5V25.5M121.5 18L106.5 18" stroke="#99A1AF" stroke-width="2" stroke-linecap="round" stroke-linejoin="round"/>
</svg>
