<svg width="48" height="48" viewBox="0 0 48 48" fill="none" xmlns="http://www.w3.org/2000/svg">
<rect width="48" height="48" rx="24" fill="black"/>
<g clip-path="url(#clip0_56_1853)">
<path d="M24.2374 34.7659C21.7784 34.7659 19.4969 34.0098 17.6033 32.7211C16.7157 33.1879 14.7103 33.2931 13.8358 33.1879C12.5734 33.0367 11.2387 31.9847 12.5208 30.959C14.513 29.3744 13.9739 28.7498 13.9739 28.7498C13.0205 27.0469 12.4748 25.0876 12.4748 23.0033C12.4814 16.5007 17.7479 11.2341 24.2374 11.2341C30.7335 11.2341 36 16.5007 36 22.9967C36 29.4928 30.7335 34.7659 24.2374 34.7659ZM24.2374 12.9568C18.6553 12.9568 14.1317 17.4869 14.1317 23.069C14.1317 24.9889 14.6708 26.7905 15.5979 28.3224C15.5979 28.3224 16.262 30.0385 14.5591 31.3206C15.6242 31.6822 17.8729 31.0182 17.9846 31.0182C19.7073 32.3726 21.877 33.1813 24.2374 33.1813C29.8196 33.1813 34.3497 28.6512 34.3497 23.069C34.3497 17.4869 29.8261 12.9568 24.2374 12.9568ZM29.6486 25.962C28.4125 25.962 27.4591 25.1467 27.4591 23.7791C27.4591 22.4115 28.3599 21.5371 29.7209 21.5371C31.0228 21.5371 31.8841 22.4313 31.8841 23.7068C31.8841 25.2519 30.7861 25.962 29.6486 25.962ZM29.6881 22.4707C29.0569 22.4707 28.8202 23.1216 28.8202 23.7463C28.8202 24.4761 29.1226 25.0218 29.6881 25.0218C30.2009 25.0218 30.5296 24.509 30.5296 23.7463C30.5231 23.1151 30.2864 22.4707 29.6881 22.4707ZM26.0061 25.87C26.0061 25.87 25.5064 25.87 25.296 25.87C24.9607 25.87 25.0264 25.3834 25.0264 25.3834V23.5622C25.0264 22.9441 24.8292 22.5891 24.4018 22.5891C24.0993 22.5891 23.8824 22.7995 23.7969 23.0493C23.764 23.1479 23.7443 23.286 23.7443 23.3846V25.4492C23.7443 25.4492 23.7509 25.8634 23.3827 25.8634C23.1131 25.8634 22.7975 25.8634 22.7975 25.8634C22.7975 25.8634 22.4622 25.8371 22.4622 25.4097C22.4622 24.7194 22.4622 23.4833 22.4622 23.4833C22.4622 22.9441 22.2715 22.5825 21.8573 22.5825C21.522 22.5825 21.3181 22.8455 21.2392 23.0625C21.1932 23.1677 21.1866 23.286 21.1866 23.3912V25.4097C21.1866 25.4097 21.2327 25.8634 20.8908 25.8634C20.7198 25.8634 20.5094 25.8634 20.3253 25.8634C19.9045 25.8634 19.9045 25.4097 19.9045 25.4097V22.977C19.9045 22.5628 19.8782 21.879 19.8782 21.879C19.8782 21.879 19.8716 21.6226 20.1478 21.6226C20.3187 21.6226 20.5291 21.6226 20.7001 21.6226C20.9631 21.6226 21.0091 21.879 21.0091 21.879L21.042 22.1946H21.0683C21.2524 21.925 21.6206 21.5239 22.3504 21.5239C22.8961 21.5239 23.3301 21.8001 23.5142 22.2406H23.5339C23.6917 22.0236 23.8824 21.8527 24.0796 21.7278C24.3163 21.5897 24.5727 21.5174 24.8883 21.5174C25.7036 21.5174 26.3151 22.0894 26.3151 23.3583C26.3151 23.3583 26.3151 24.6865 26.3151 25.4032C26.3085 25.8371 26.0061 25.87 26.0061 25.87ZM17.8334 20.7481C17.4192 20.7481 17.143 20.4522 17.1496 20.0906C17.143 19.7092 17.4192 19.4199 17.84 19.4199C18.2674 19.4199 18.5303 19.7092 18.5435 20.0906C18.5435 20.4588 18.2674 20.7481 17.8334 20.7481ZM17.4521 21.6291C17.7545 21.6291 18.2148 21.6291 18.2148 21.6291C18.2148 21.6291 18.504 21.6291 18.504 21.9579C18.504 22.7271 18.504 25.4886 18.504 25.4886C18.504 25.4886 18.5238 25.87 18.2016 25.87C17.8794 25.87 17.4192 25.87 17.4192 25.87C17.4192 25.87 17.1891 25.8568 17.1891 25.5412C17.1891 24.5944 17.1891 21.8987 17.1891 21.8987C17.1891 21.8987 17.1825 21.6291 17.4521 21.6291Z" fill="white"/>
</g>
<defs>
<clipPath id="clip0_56_1853">
<rect width="24" height="24" fill="white" transform="translate(12 11)"/>
</clipPath>
</defs>
</svg>
