<svg width="40" height="40" viewBox="0 0 40 40" fill="none" xmlns="http://www.w3.org/2000/svg">
<rect width="40" height="40" rx="20" fill="#339FF8"/>
<path d="M20.9279 33.233C18.0079 33.233 15.2987 32.3351 13.0501 30.8048C11.9961 31.3592 9.61485 31.4841 8.57646 31.3592C7.07742 31.1796 5.4925 29.9304 7.01496 28.7124C9.38063 26.8308 8.74041 26.0891 8.74041 26.0891C7.60833 24.067 6.9603 21.7403 6.9603 19.2654C6.96811 11.5437 13.2219 5.28994 20.9279 5.28994C28.6417 5.28994 34.8955 11.5437 34.8955 19.2575C34.8955 26.9713 28.6417 33.233 20.9279 33.233ZM20.9279 7.3355C14.2993 7.3355 8.92779 12.7149 8.92779 19.3434C8.92779 21.6232 9.56801 23.7625 10.6689 25.5816C10.6689 25.5816 11.4574 27.6194 9.43528 29.1418C10.7001 29.5712 13.3703 28.7827 13.503 28.7827C15.5485 30.391 18.125 31.3513 20.9279 31.3513C27.5565 31.3513 32.9358 25.972 32.9358 19.3434C32.9358 12.7149 27.5643 7.3355 20.9279 7.3355ZM27.3535 22.7787C25.8857 22.7787 24.7536 21.8106 24.7536 20.1866C24.7536 18.5627 25.8232 17.5243 27.4394 17.5243C28.9852 17.5243 30.008 18.5861 30.008 20.1008C30.008 21.9355 28.7042 22.7787 27.3535 22.7787ZM27.4003 18.6329C26.6508 18.6329 26.3697 19.4059 26.3697 20.1476C26.3697 21.0142 26.7289 21.6623 27.4003 21.6623C28.0093 21.6623 28.3997 21.0533 28.3997 20.1476C28.3919 19.3981 28.1108 18.6329 27.4003 18.6329ZM23.0281 22.6694C23.0281 22.6694 22.4348 22.6694 22.1849 22.6694C21.7867 22.6694 21.8648 22.0917 21.8648 22.0917V19.929C21.8648 19.1951 21.6306 18.7735 21.1231 18.7735C20.764 18.7735 20.5063 19.0233 20.4048 19.32C20.3658 19.4371 20.3423 19.6011 20.3423 19.7182V22.1697C20.3423 22.1697 20.3502 22.6616 19.9129 22.6616C19.5928 22.6616 19.2181 22.6616 19.2181 22.6616C19.2181 22.6616 18.8199 22.6304 18.8199 22.1229C18.8199 21.3031 18.8199 19.8353 18.8199 19.8353C18.8199 19.1951 18.5935 18.7657 18.1016 18.7657C17.7034 18.7657 17.4614 19.078 17.3677 19.3356C17.313 19.4605 17.3052 19.6011 17.3052 19.726V22.1229C17.3052 22.1229 17.3599 22.6616 16.9539 22.6616C16.7509 22.6616 16.5011 22.6616 16.2824 22.6616C15.7828 22.6616 15.7828 22.1229 15.7828 22.1229V19.2341C15.7828 18.7422 15.7515 17.9303 15.7515 17.9303C15.7515 17.9303 15.7437 17.6258 16.0716 17.6258C16.2746 17.6258 16.5245 17.6258 16.7275 17.6258C17.0398 17.6258 17.0944 17.9303 17.0944 17.9303L17.1335 18.305H17.1647C17.3833 17.9849 17.8205 17.5087 18.6872 17.5087C19.3352 17.5087 19.8505 17.8366 20.0691 18.3597H20.0925C20.2799 18.102 20.5063 17.899 20.7405 17.7507C21.0216 17.5867 21.3261 17.5009 21.7008 17.5009C22.669 17.5009 23.3951 18.1801 23.3951 19.687C23.3951 19.687 23.3951 21.2641 23.3951 22.1151C23.3873 22.6304 23.0281 22.6694 23.0281 22.6694ZM13.3234 16.5874C12.8315 16.5874 12.5036 16.236 12.5114 15.8066C12.5036 15.3538 12.8315 15.0103 13.3312 15.0103C13.8387 15.0103 14.151 15.3538 14.1666 15.8066C14.1666 16.2439 13.8387 16.5874 13.3234 16.5874ZM12.8706 17.6336C13.2297 17.6336 13.7762 17.6336 13.7762 17.6336C13.7762 17.6336 14.1198 17.6336 14.1198 18.024C14.1198 18.9374 14.1198 22.2166 14.1198 22.2166C14.1198 22.2166 14.1432 22.6694 13.7606 22.6694C13.3781 22.6694 12.8315 22.6694 12.8315 22.6694C12.8315 22.6694 12.5583 22.6538 12.5583 22.279C12.5583 21.1548 12.5583 17.9537 12.5583 17.9537C12.5583 17.9537 12.5505 17.6336 12.8706 17.6336Z" fill="white"/>
</svg>
