<svg width="48" height="48" viewBox="0 0 48 48" fill="none" xmlns="http://www.w3.org/2000/svg">
<rect width="48" height="48" rx="24" fill="black"/>
<rect x="12" y="12" width="24" height="24" rx="12" fill="black"/>
<path d="M20.8192 19.2C21.2863 19.2 21.7127 19.2407 22.0983 19.3212C22.484 19.4017 22.8133 19.5339 23.088 19.7178C23.3627 19.9016 23.5759 20.1457 23.7276 20.4507C23.8792 20.7558 23.9546 21.132 23.9546 21.5803C23.9546 22.0642 23.842 22.4675 23.6175 22.7904C23.393 23.1132 23.0603 23.3776 22.6209 23.5835C23.2258 23.7538 23.6773 24.0521 23.9754 24.4775C24.2735 24.9029 24.4226 25.4164 24.4226 26.0172C24.4226 26.501 24.3264 26.9205 24.134 27.2747C23.9416 27.6289 23.6825 27.9179 23.3567 28.1416C23.0308 28.3661 22.6599 28.5314 22.243 28.639C21.8236 28.7466 21.3912 28.8008 20.9578 28.8H16.1992V19.2H20.8192ZM20.5445 23.0852C20.9292 23.0852 21.2456 22.9954 21.4934 22.8166C21.7413 22.637 21.8652 22.3463 21.8643 21.943C21.8643 21.7193 21.8227 21.5354 21.7404 21.3922C21.6581 21.249 21.548 21.1363 21.4102 21.0558C21.2724 20.9753 21.1147 20.9193 20.9362 20.888C20.7525 20.8566 20.5661 20.8405 20.3789 20.8414H18.3588V23.0869L20.5445 23.0852ZM20.6684 27.1586C20.872 27.1595 21.0748 27.1391 21.2733 27.0984C21.4657 27.0578 21.6355 26.9908 21.782 26.8968C21.9285 26.8027 22.0455 26.6748 22.133 26.5138C22.2196 26.3528 22.2638 26.146 22.2638 25.8952C22.2638 25.4028 22.1217 25.0503 21.8375 24.8402C21.5532 24.6292 21.1771 24.5241 20.71 24.5241H18.3588V27.1595L20.6684 27.1586ZM27.1386 26.9569C27.4315 27.2349 27.8536 27.3738 28.4039 27.3738C28.7982 27.3738 29.137 27.2772 29.4213 27.0849C29.7055 26.8925 29.8797 26.6883 29.9438 26.4731H31.6624C31.3876 27.3069 30.9656 27.9026 30.3971 28.2611C29.8286 28.6195 29.1414 28.7991 28.3345 28.7991C27.7756 28.7991 27.2712 28.7119 26.8223 28.5373C26.3734 28.3627 25.9929 28.1136 25.6809 27.7908C25.3689 27.4679 25.128 27.0832 24.959 26.6349C24.79 26.1867 24.7051 25.6935 24.7051 25.1562C24.7051 24.6368 24.7918 24.1529 24.966 23.7047C25.1402 23.2564 25.388 22.8692 25.7087 22.5421C26.0293 22.215 26.4124 21.9574 26.8569 21.7693C27.3015 21.5811 27.7946 21.4871 28.3354 21.4871C28.9403 21.4871 29.4672 21.6015 29.917 21.8303C30.3659 22.0591 30.7351 22.3658 31.0237 22.7514C31.3122 23.1369 31.5211 23.5759 31.6494 24.0691C31.7776 24.5622 31.8235 25.0774 31.7871 25.6155H26.6585C26.6853 26.2316 26.8457 26.6798 27.1386 26.9569ZM29.3459 23.3005C29.1119 23.0497 28.7566 22.9242 28.2799 22.9242C27.9679 22.9242 27.7088 22.9759 27.5034 23.0785C27.2972 23.1818 27.1325 23.309 27.0086 23.4615C26.8847 23.614 26.798 23.775 26.7477 23.9453C26.6975 24.1157 26.6671 24.2682 26.6585 24.4021H29.8347C29.7419 23.9191 29.579 23.5513 29.3459 23.3005ZM26.324 19.6872H30.2922V20.7634H26.324V19.6872Z" fill="white"/>
</svg>
