<svg width="478" height="125" viewBox="0 0 478 125" fill="none" xmlns="http://www.w3.org/2000/svg">
<path d="M4 0.5H474C475.933 0.5 477.5 2.067 477.5 4V121C477.5 122.933 475.933 124.5 474 124.5H4C2.067 124.5 0.5 122.933 0.5 121V4C0.5 2.067 2.067 0.5 4 0.5Z" fill="white"/>
<path d="M4 0.5H474C475.933 0.5 477.5 2.067 477.5 4V121C477.5 122.933 475.933 124.5 474 124.5H4C2.067 124.5 0.5 122.933 0.5 121V4C0.5 2.067 2.067 0.5 4 0.5Z" stroke="#139865"/>
<path d="M15.5 22.625L17.375 24.5L20.5 20.125M25.5 22C25.5 26.1421 22.1421 29.5 18 29.5C13.8579 29.5 10.5 26.1421 10.5 22C10.5 17.8579 13.8579 14.5 18 14.5C22.1421 14.5 25.5 17.8579 25.5 22Z" stroke="#0D7A55" stroke-width="1.5" stroke-linecap="round" stroke-linejoin="round"/>
<path d="M39.4134 14.9091V28H37.4382V14.9091H39.4134ZM44.0476 22.1705V28H42.1364V18.1818H43.9709V19.7798H44.0923C44.3182 19.2599 44.6719 18.8423 45.1534 18.527C45.6392 18.2116 46.2507 18.054 46.9879 18.054C47.657 18.054 48.2429 18.1946 48.7457 18.4759C49.2486 18.7528 49.6385 19.1662 49.9155 19.7159C50.1925 20.2656 50.331 20.9453 50.331 21.755V28H48.4197V21.9851C48.4197 21.2734 48.2344 20.7173 47.8636 20.3168C47.4929 19.9119 46.9837 19.7095 46.3359 19.7095C45.8928 19.7095 45.4986 19.8054 45.1534 19.9972C44.8125 20.1889 44.5419 20.4702 44.3416 20.8409C44.1456 21.2074 44.0476 21.6506 44.0476 22.1705ZM60.2514 20.5788L58.5192 20.8857C58.4467 20.6641 58.3317 20.4531 58.174 20.2528C58.0206 20.0526 57.8118 19.8885 57.5476 19.7607C57.2834 19.6328 56.9531 19.5689 56.5568 19.5689C56.0156 19.5689 55.5639 19.6903 55.2017 19.9332C54.8395 20.1719 54.6584 20.4808 54.6584 20.8601C54.6584 21.1882 54.7798 21.4524 55.0227 21.6527C55.2656 21.853 55.6577 22.017 56.1989 22.1449L57.7585 22.5028C58.6619 22.7116 59.3352 23.0334 59.7784 23.468C60.2216 23.9027 60.4432 24.4673 60.4432 25.1619C60.4432 25.75 60.2727 26.2741 59.9318 26.7344C59.5952 27.1903 59.1243 27.5483 58.5192 27.8082C57.9183 28.0682 57.2216 28.1982 56.429 28.1982C55.3295 28.1982 54.4325 27.9638 53.7379 27.495C53.0433 27.022 52.6172 26.3509 52.4595 25.4815L54.3068 25.2003C54.4219 25.6818 54.6584 26.0462 55.0163 26.2933C55.3743 26.5362 55.8409 26.6577 56.4162 26.6577C57.0426 26.6577 57.5433 26.5277 57.9183 26.2678C58.2933 26.0036 58.4808 25.6818 58.4808 25.3026C58.4808 24.9957 58.3658 24.7379 58.1357 24.5291C57.9098 24.3203 57.5625 24.1626 57.0938 24.0561L55.4318 23.6918C54.5156 23.483 53.8381 23.1506 53.3991 22.6946C52.9645 22.2386 52.7472 21.6612 52.7472 20.9624C52.7472 20.3828 52.9091 19.8757 53.233 19.4411C53.5568 19.0064 54.0043 18.6676 54.5753 18.4247C55.1463 18.1776 55.8004 18.054 56.5376 18.054C57.5987 18.054 58.4339 18.2841 59.0433 18.7443C59.6527 19.2003 60.0554 19.8118 60.2514 20.5788ZM66.7761 28.1982C65.8088 28.1982 64.9757 27.9915 64.2768 27.5781C63.5822 27.1605 63.0453 26.5746 62.666 25.8203C62.291 25.0618 62.1035 24.1733 62.1035 23.1548C62.1035 22.1491 62.291 21.2628 62.666 20.4957C63.0453 19.7287 63.5737 19.13 64.2512 18.6996C64.9331 18.2692 65.7299 18.054 66.6419 18.054C67.1958 18.054 67.7328 18.1456 68.2527 18.3288C68.7725 18.5121 69.2392 18.7997 69.6525 19.1918C70.0659 19.5838 70.3919 20.093 70.6305 20.7195C70.8691 21.3416 70.9885 22.098 70.9885 22.9886V23.6662H63.1838V22.2344H69.1156C69.1156 21.7315 69.0133 21.2862 68.8088 20.8984C68.6042 20.5064 68.3166 20.1974 67.9458 19.9716C67.5794 19.7457 67.149 19.6328 66.6547 19.6328C66.1177 19.6328 65.649 19.7649 65.2484 20.0291C64.8521 20.2891 64.5453 20.63 64.3279 21.0518C64.1149 21.4695 64.0083 21.9233 64.0083 22.4134V23.532C64.0083 24.1882 64.1234 24.7464 64.3535 25.2067C64.5879 25.6669 64.9139 26.0185 65.3315 26.2614C65.7491 26.5 66.237 26.6193 66.7953 26.6193C67.1575 26.6193 67.4877 26.5682 67.786 26.4659C68.0843 26.3594 68.3422 26.2017 68.5595 25.9929C68.7768 25.7841 68.943 25.5263 69.0581 25.2195L70.867 25.5455C70.7221 26.0781 70.4622 26.5447 70.0872 26.9453C69.7164 27.3416 69.2498 27.6506 68.6873 27.8722C68.1291 28.0895 67.492 28.1982 66.7761 28.1982ZM73.109 28V18.1818H74.9563V19.7415H75.0586C75.2376 19.2131 75.5529 18.7976 76.0046 18.495C76.4606 18.1882 76.9762 18.0348 77.5515 18.0348C77.6708 18.0348 77.8114 18.0391 77.9734 18.0476C78.1396 18.0561 78.2695 18.0668 78.3633 18.0795V19.9077C78.2866 19.8864 78.1502 19.8629 77.9542 19.8374C77.7582 19.8075 77.5621 19.7926 77.3661 19.7926C76.9144 19.7926 76.5117 19.8885 76.158 20.0803C75.8086 20.2678 75.5316 20.5298 75.3271 20.8665C75.1225 21.1989 75.0202 21.5781 75.0202 22.0043V28H73.109ZM85.1804 18.1818V19.7159H79.8175V18.1818H85.1804ZM81.2557 15.8295H83.1669V25.1172C83.1669 25.4879 83.2223 25.767 83.3331 25.9545C83.4439 26.1378 83.5866 26.2635 83.7614 26.3317C83.9403 26.3956 84.1342 26.4276 84.343 26.4276C84.4964 26.4276 84.6307 26.4169 84.7457 26.3956C84.8608 26.3743 84.9503 26.3572 85.0142 26.3445L85.3594 27.9233C85.2486 27.9659 85.0909 28.0085 84.8864 28.0511C84.6818 28.098 84.4261 28.1236 84.1193 28.1278C83.6165 28.1364 83.1477 28.0469 82.7131 27.8594C82.2784 27.6719 81.9268 27.3821 81.6584 26.9901C81.3899 26.598 81.2557 26.1058 81.2557 25.5135V15.8295ZM93.2663 31.6818C92.9808 31.6818 92.7209 31.6584 92.4865 31.6115C92.2521 31.5689 92.0774 31.522 91.9624 31.4709L92.4226 29.9048C92.772 29.9986 93.0831 30.0391 93.3558 30.0263C93.6286 30.0135 93.8693 29.9112 94.0781 29.7195C94.2912 29.5277 94.4787 29.2145 94.6406 28.7798L94.8771 28.1278L91.2848 18.1818H93.3303L95.8168 25.8011H95.919L98.4055 18.1818H100.457L96.4112 29.3104C96.2237 29.8217 95.9851 30.2543 95.6953 30.608C95.4055 30.9659 95.0604 31.2344 94.6598 31.4134C94.2592 31.5923 93.7947 31.6818 93.2663 31.6818ZM106.055 28.1982C105.135 28.1982 104.331 27.9872 103.645 27.5653C102.959 27.1435 102.427 26.5533 102.047 25.7947C101.668 25.0362 101.479 24.1499 101.479 23.1357C101.479 22.1172 101.668 21.2266 102.047 20.4638C102.427 19.701 102.959 19.1087 103.645 18.6868C104.331 18.2649 105.135 18.054 106.055 18.054C106.976 18.054 107.779 18.2649 108.465 18.6868C109.151 19.1087 109.684 19.701 110.063 20.4638C110.442 21.2266 110.632 22.1172 110.632 23.1357C110.632 24.1499 110.442 25.0362 110.063 25.7947C109.684 26.5533 109.151 27.1435 108.465 27.5653C107.779 27.9872 106.976 28.1982 106.055 28.1982ZM106.062 26.5938C106.658 26.5938 107.153 26.4361 107.545 26.1207C107.937 25.8054 108.226 25.3857 108.414 24.8615C108.606 24.3374 108.702 23.7599 108.702 23.1293C108.702 22.5028 108.606 21.9276 108.414 21.4034C108.226 20.875 107.937 20.451 107.545 20.1314C107.153 19.8118 106.658 19.652 106.062 19.652C105.461 19.652 104.962 19.8118 104.566 20.1314C104.174 20.451 103.882 20.875 103.69 21.4034C103.503 21.9276 103.409 22.5028 103.409 23.1293C103.409 23.7599 103.503 24.3374 103.69 24.8615C103.882 25.3857 104.174 25.8054 104.566 26.1207C104.962 26.4361 105.461 26.5938 106.062 26.5938ZM118.985 23.9283V18.1818H120.902V28H119.023V26.2997H118.921C118.695 26.8239 118.333 27.2607 117.834 27.6101C117.34 27.9553 116.724 28.1278 115.987 28.1278C115.356 28.1278 114.798 27.9893 114.312 27.7124C113.831 27.4311 113.451 27.0156 113.174 26.4659C112.902 25.9162 112.765 25.2365 112.765 24.4268V18.1818H114.676V24.1967C114.676 24.8658 114.862 25.3984 115.233 25.7947C115.603 26.1911 116.085 26.3892 116.677 26.3892C117.035 26.3892 117.391 26.2997 117.745 26.1207C118.103 25.9418 118.399 25.6712 118.633 25.3089C118.872 24.9467 118.989 24.4865 118.985 23.9283ZM123.47 28V18.1818H125.318V19.7415H125.42C125.599 19.2131 125.914 18.7976 126.366 18.495C126.822 18.1882 127.338 18.0348 127.913 18.0348C128.032 18.0348 128.173 18.0391 128.335 18.0476C128.501 18.0561 128.631 18.0668 128.725 18.0795V19.9077C128.648 19.8864 128.512 19.8629 128.316 19.8374C128.119 19.8075 127.923 19.7926 127.727 19.7926C127.276 19.7926 126.873 19.8885 126.519 20.0803C126.17 20.2678 125.893 20.5298 125.688 20.8665C125.484 21.1989 125.382 21.5781 125.382 22.0043V28H123.47ZM137.999 28.2173C137.377 28.2173 136.815 28.1023 136.312 27.8722C135.809 27.6378 135.411 27.299 135.117 26.8558C134.827 26.4126 134.682 25.8693 134.682 25.2259C134.682 24.6719 134.789 24.2159 135.002 23.858C135.215 23.5 135.502 23.2166 135.865 23.0078C136.227 22.799 136.632 22.6413 137.079 22.5348C137.526 22.4283 137.982 22.3473 138.447 22.2919C139.035 22.2237 139.512 22.1683 139.879 22.1257C140.245 22.0788 140.512 22.0043 140.678 21.902C140.844 21.7997 140.927 21.6335 140.927 21.4034V21.3587C140.927 20.8004 140.769 20.3679 140.454 20.0611C140.143 19.7543 139.678 19.6009 139.061 19.6009C138.417 19.6009 137.91 19.7436 137.539 20.0291C137.173 20.3104 136.919 20.6236 136.779 20.9688L134.982 20.5597C135.195 19.9631 135.507 19.4815 135.916 19.1151C136.329 18.7443 136.804 18.4759 137.341 18.3097C137.878 18.1392 138.443 18.054 139.035 18.054C139.427 18.054 139.843 18.1009 140.281 18.1946C140.725 18.2841 141.138 18.4503 141.521 18.6932C141.909 18.9361 142.227 19.2834 142.474 19.7351C142.721 20.1825 142.845 20.7642 142.845 21.4801V28H140.978V26.6577H140.901C140.778 26.9048 140.593 27.1477 140.345 27.3864C140.098 27.625 139.781 27.8232 139.393 27.9808C139.005 28.1385 138.541 28.2173 137.999 28.2173ZM138.415 26.6832C138.943 26.6832 139.395 26.5788 139.77 26.37C140.149 26.1612 140.437 25.8885 140.633 25.5518C140.833 25.2109 140.933 24.8466 140.933 24.4588V23.1932C140.865 23.2614 140.733 23.3253 140.537 23.3849C140.345 23.4403 140.126 23.4893 139.879 23.532C139.632 23.5703 139.391 23.6065 139.156 23.6406C138.922 23.6705 138.726 23.696 138.568 23.7173C138.198 23.7642 137.859 23.843 137.552 23.9538C137.249 24.0646 137.007 24.2244 136.823 24.4332C136.644 24.6378 136.555 24.9105 136.555 25.2514C136.555 25.7244 136.73 26.0824 137.079 26.3253C137.428 26.5639 137.874 26.6832 138.415 26.6832ZM147.301 14.9091V28H145.39V14.9091H147.301ZM154.104 28.1982C153.137 28.1982 152.304 27.9915 151.605 27.5781C150.91 27.1605 150.373 26.5746 149.994 25.8203C149.619 25.0618 149.432 24.1733 149.432 23.1548C149.432 22.1491 149.619 21.2628 149.994 20.4957C150.373 19.7287 150.902 19.13 151.579 18.6996C152.261 18.2692 153.058 18.054 153.97 18.054C154.524 18.054 155.061 18.1456 155.581 18.3288C156.101 18.5121 156.567 18.7997 156.981 19.1918C157.394 19.5838 157.72 20.093 157.959 20.7195C158.197 21.3416 158.317 22.098 158.317 22.9886V23.6662H150.512V22.2344H156.444C156.444 21.7315 156.341 21.2862 156.137 20.8984C155.932 20.5064 155.645 20.1974 155.274 19.9716C154.907 19.7457 154.477 19.6328 153.983 19.6328C153.446 19.6328 152.977 19.7649 152.577 20.0291C152.18 20.2891 151.873 20.63 151.656 21.0518C151.443 21.4695 151.336 21.9233 151.336 22.4134V23.532C151.336 24.1882 151.452 24.7464 151.682 25.2067C151.916 25.6669 152.242 26.0185 152.66 26.2614C153.077 26.5 153.565 26.6193 154.123 26.6193C154.486 26.6193 154.816 26.5682 155.114 26.4659C155.412 26.3594 155.67 26.2017 155.888 25.9929C156.105 25.7841 156.271 25.5263 156.386 25.2195L158.195 25.5455C158.05 26.0781 157.79 26.5447 157.415 26.9453C157.045 27.3416 156.578 27.6506 156.015 27.8722C155.457 28.0895 154.82 28.1982 154.104 28.1982ZM160.437 28V18.1818H162.284V19.7415H162.387C162.566 19.2131 162.881 18.7976 163.333 18.495C163.789 18.1882 164.304 18.0348 164.88 18.0348C164.999 18.0348 165.14 18.0391 165.301 18.0476C165.468 18.0561 165.598 18.0668 165.691 18.0795V19.9077C165.615 19.8864 165.478 19.8629 165.282 19.8374C165.086 19.8075 164.89 19.7926 164.694 19.7926C164.243 19.7926 163.84 19.8885 163.486 20.0803C163.137 20.2678 162.86 20.5298 162.655 20.8665C162.451 21.1989 162.348 21.5781 162.348 22.0043V28H160.437ZM172.509 18.1818V19.7159H167.146V18.1818H172.509ZM168.584 15.8295H170.495V25.1172C170.495 25.4879 170.55 25.767 170.661 25.9545C170.772 26.1378 170.915 26.2635 171.089 26.3317C171.268 26.3956 171.462 26.4276 171.671 26.4276C171.825 26.4276 171.959 26.4169 172.074 26.3956C172.189 26.3743 172.278 26.3572 172.342 26.3445L172.688 27.9233C172.577 27.9659 172.419 28.0085 172.214 28.0511C172.01 28.098 171.754 28.1236 171.447 28.1278C170.945 28.1364 170.476 28.0469 170.041 27.8594C169.607 27.6719 169.255 27.3821 168.987 26.9901C168.718 26.598 168.584 26.1058 168.584 25.5135V15.8295ZM183.969 18.1818V19.7159H178.607V18.1818H183.969ZM180.045 15.8295H181.956V25.1172C181.956 25.4879 182.011 25.767 182.122 25.9545C182.233 26.1378 182.376 26.2635 182.55 26.3317C182.729 26.3956 182.923 26.4276 183.132 26.4276C183.286 26.4276 183.42 26.4169 183.535 26.3956C183.65 26.3743 183.739 26.3572 183.803 26.3445L184.148 27.9233C184.038 27.9659 183.88 28.0085 183.675 28.0511C183.471 28.098 183.215 28.1236 182.908 28.1278C182.406 28.1364 181.937 28.0469 181.502 27.8594C181.067 27.6719 180.716 27.3821 180.447 26.9901C180.179 26.598 180.045 26.1058 180.045 25.5135V15.8295ZM186.084 28V18.1818H187.995V28H186.084ZM187.049 16.6669C186.716 16.6669 186.431 16.5561 186.192 16.3345C185.958 16.1087 185.841 15.8402 185.841 15.5291C185.841 15.2138 185.958 14.9453 186.192 14.7237C186.431 14.4979 186.716 14.3849 187.049 14.3849C187.381 14.3849 187.665 14.4979 187.899 14.7237C188.138 14.9453 188.257 15.2138 188.257 15.5291C188.257 15.8402 188.138 16.1087 187.899 16.3345C187.665 16.5561 187.381 16.6669 187.049 16.6669ZM195.149 18.1818V19.7159H189.786V18.1818H195.149ZM191.224 15.8295H193.136V25.1172C193.136 25.4879 193.191 25.767 193.302 25.9545C193.413 26.1378 193.555 26.2635 193.73 26.3317C193.909 26.3956 194.103 26.4276 194.312 26.4276C194.465 26.4276 194.599 26.4169 194.714 26.3956C194.83 26.3743 194.919 26.3572 194.983 26.3445L195.328 27.9233C195.217 27.9659 195.06 28.0085 194.855 28.0511C194.651 28.098 194.395 28.1236 194.088 28.1278C193.585 28.1364 193.116 28.0469 192.682 27.8594C192.247 27.6719 191.896 27.3821 191.627 26.9901C191.359 26.598 191.224 26.1058 191.224 25.5135V15.8295ZM199.385 14.9091V28H197.474V14.9091H199.385ZM206.188 28.1982C205.221 28.1982 204.388 27.9915 203.689 27.5781C202.994 27.1605 202.457 26.5746 202.078 25.8203C201.703 25.0618 201.516 24.1733 201.516 23.1548C201.516 22.1491 201.703 21.2628 202.078 20.4957C202.457 19.7287 202.986 19.13 203.663 18.6996C204.345 18.2692 205.142 18.054 206.054 18.054C206.608 18.054 207.145 18.1456 207.665 18.3288C208.185 18.5121 208.651 18.7997 209.065 19.1918C209.478 19.5838 209.804 20.093 210.043 20.7195C210.281 21.3416 210.401 22.098 210.401 22.9886V23.6662H202.596V22.2344H208.528C208.528 21.7315 208.425 21.2862 208.221 20.8984C208.016 20.5064 207.729 20.1974 207.358 19.9716C206.991 19.7457 206.561 19.6328 206.067 19.6328C205.53 19.6328 205.061 19.7649 204.661 20.0291C204.264 20.2891 203.957 20.63 203.74 21.0518C203.527 21.4695 203.42 21.9233 203.42 22.4134V23.532C203.42 24.1882 203.536 24.7464 203.766 25.2067C204 25.6669 204.326 26.0185 204.744 26.2614C205.161 26.5 205.649 26.6193 206.207 26.6193C206.57 26.6193 206.9 26.5682 207.198 26.4659C207.496 26.3594 207.754 26.2017 207.972 25.9929C208.189 25.7841 208.355 25.5263 208.47 25.2195L210.279 25.5455C210.134 26.0781 209.874 26.5447 209.499 26.9453C209.129 27.3416 208.662 27.6506 208.099 27.8722C207.541 28.0895 206.904 28.1982 206.188 28.1982ZM219.196 22.1705V28H217.285V14.9091H219.17V19.7798H219.292C219.522 19.2514 219.874 18.8317 220.347 18.5206C220.82 18.2095 221.438 18.054 222.2 18.054C222.874 18.054 223.462 18.1925 223.964 18.4695C224.472 18.7464 224.864 19.1598 225.141 19.7095C225.422 20.255 225.562 20.9368 225.562 21.755V28H223.651V21.9851C223.651 21.2649 223.466 20.7067 223.095 20.3104C222.724 19.9098 222.209 19.7095 221.548 19.7095C221.097 19.7095 220.692 19.8054 220.334 19.9972C219.98 20.1889 219.701 20.4702 219.496 20.8409C219.296 21.2074 219.196 21.6506 219.196 22.1705ZM232.344 28.1982C231.377 28.1982 230.544 27.9915 229.845 27.5781C229.151 27.1605 228.614 26.5746 228.234 25.8203C227.859 25.0618 227.672 24.1733 227.672 23.1548C227.672 22.1491 227.859 21.2628 228.234 20.4957C228.614 19.7287 229.142 19.13 229.82 18.6996C230.501 18.2692 231.298 18.054 232.21 18.054C232.764 18.054 233.301 18.1456 233.821 18.3288C234.341 18.5121 234.808 18.7997 235.221 19.1918C235.634 19.5838 235.96 20.093 236.199 20.7195C236.438 21.3416 236.557 22.098 236.557 22.9886V23.6662H228.752V22.2344H234.684C234.684 21.7315 234.582 21.2862 234.377 20.8984C234.173 20.5064 233.885 20.1974 233.514 19.9716C233.148 19.7457 232.717 19.6328 232.223 19.6328C231.686 19.6328 231.217 19.7649 230.817 20.0291C230.42 20.2891 230.114 20.63 229.896 21.0518C229.683 21.4695 229.577 21.9233 229.577 22.4134V23.532C229.577 24.1882 229.692 24.7464 229.922 25.2067C230.156 25.6669 230.482 26.0185 230.9 26.2614C231.317 26.5 231.805 26.6193 232.364 26.6193C232.726 26.6193 233.056 26.5682 233.354 26.4659C233.653 26.3594 233.911 26.2017 234.128 25.9929C234.345 25.7841 234.511 25.5263 234.626 25.2195L236.435 25.5455C236.29 26.0781 236.031 26.5447 235.656 26.9453C235.285 27.3416 234.818 27.6506 234.256 27.8722C233.697 28.0895 233.06 28.1982 232.344 28.1982ZM238.677 28V18.1818H240.525V19.7415H240.627C240.806 19.2131 241.121 18.7976 241.573 18.495C242.029 18.1882 242.545 18.0348 243.12 18.0348C243.239 18.0348 243.38 18.0391 243.542 18.0476C243.708 18.0561 243.838 18.0668 243.932 18.0795V19.9077C243.855 19.8864 243.719 19.8629 243.523 19.8374C243.327 19.8075 243.131 19.7926 242.934 19.7926C242.483 19.7926 242.08 19.8885 241.726 20.0803C241.377 20.2678 241.1 20.5298 240.895 20.8665C240.691 21.1989 240.589 21.5781 240.589 22.0043V28H238.677ZM249.466 28.1982C248.498 28.1982 247.665 27.9915 246.966 27.5781C246.272 27.1605 245.735 26.5746 245.355 25.8203C244.98 25.0618 244.793 24.1733 244.793 23.1548C244.793 22.1491 244.98 21.2628 245.355 20.4957C245.735 19.7287 246.263 19.13 246.941 18.6996C247.623 18.2692 248.419 18.054 249.331 18.054C249.885 18.054 250.422 18.1456 250.942 18.3288C251.462 18.5121 251.929 18.7997 252.342 19.1918C252.755 19.5838 253.081 20.093 253.32 20.7195C253.559 21.3416 253.678 22.098 253.678 22.9886V23.6662H245.873V22.2344H251.805C251.805 21.7315 251.703 21.2862 251.498 20.8984C251.294 20.5064 251.006 20.1974 250.635 19.9716C250.269 19.7457 249.838 19.6328 249.344 19.6328C248.807 19.6328 248.338 19.7649 247.938 20.0291C247.542 20.2891 247.235 20.63 247.017 21.0518C246.804 21.4695 246.698 21.9233 246.698 22.4134V23.532C246.698 24.1882 246.813 24.7464 247.043 25.2067C247.277 25.6669 247.603 26.0185 248.021 26.2614C248.439 26.5 248.926 26.6193 249.485 26.6193C249.847 26.6193 250.177 26.5682 250.475 26.4659C250.774 26.3594 251.032 26.2017 251.249 25.9929C251.466 25.7841 251.632 25.5263 251.748 25.2195L253.556 25.5455C253.412 26.0781 253.152 26.5447 252.777 26.9453C252.406 27.3416 251.939 27.6506 251.377 27.8722C250.819 28.0895 250.181 28.1982 249.466 28.1982ZM258.208 14.9091L258.042 24.2351H256.271L256.105 14.9091H258.208ZM257.16 28.1214C256.806 28.1214 256.504 27.9979 256.252 27.7507C256.001 27.4993 255.877 27.1967 255.882 26.843C255.877 26.4936 256.001 26.1953 256.252 25.9482C256.504 25.6967 256.806 25.571 257.16 25.571C257.505 25.571 257.803 25.6967 258.055 25.9482C258.306 26.1953 258.434 26.4936 258.438 26.843C258.434 27.0774 258.372 27.2926 258.253 27.4886C258.138 27.6804 257.985 27.8338 257.793 27.9489C257.601 28.0639 257.39 28.1214 257.16 28.1214Z" fill="#101828"/>
<path d="M38.8182 46.3636V58H37.4091V46.3636H38.8182ZM42.8026 52.75V58H41.4616V49.2727H42.7571V50.6364H42.8707C43.0753 50.1932 43.3859 49.8371 43.8026 49.5682C44.2192 49.2955 44.7571 49.1591 45.4162 49.1591C46.0071 49.1591 46.5241 49.2803 46.9673 49.5227C47.4105 49.7614 47.7552 50.125 48.0014 50.6136C48.2476 51.0985 48.3707 51.7121 48.3707 52.4545V58H47.0298V52.5455C47.0298 51.8598 46.8518 51.3258 46.4957 50.9432C46.1397 50.5568 45.651 50.3636 45.0298 50.3636C44.6018 50.3636 44.2192 50.4564 43.8821 50.642C43.5488 50.8277 43.2855 51.0985 43.0923 51.4545C42.8991 51.8106 42.8026 52.2424 42.8026 52.75ZM57.0028 51.2273L55.7983 51.5682C55.7225 51.3674 55.6108 51.1723 55.4631 50.983C55.3191 50.7898 55.1222 50.6307 54.8722 50.5057C54.6222 50.3807 54.3021 50.3182 53.9119 50.3182C53.3778 50.3182 52.9328 50.4413 52.5767 50.6875C52.2244 50.9299 52.0483 51.2386 52.0483 51.6136C52.0483 51.947 52.1695 52.2102 52.4119 52.4034C52.6544 52.5966 53.0331 52.7576 53.5483 52.8864L54.8438 53.2045C55.6241 53.3939 56.2055 53.6837 56.5881 54.0739C56.9706 54.4602 57.1619 54.9583 57.1619 55.5682C57.1619 56.0682 57.018 56.5152 56.7301 56.9091C56.446 57.303 56.0483 57.6136 55.5369 57.8409C55.0256 58.0682 54.4309 58.1818 53.7528 58.1818C52.8627 58.1818 52.1259 57.9886 51.5426 57.6023C50.9593 57.2159 50.59 56.6515 50.4347 55.9091L51.7074 55.5909C51.8286 56.0606 52.0578 56.4129 52.3949 56.6477C52.7358 56.8826 53.1809 57 53.7301 57C54.3551 57 54.8513 56.8674 55.2188 56.6023C55.59 56.3333 55.7756 56.0114 55.7756 55.6364C55.7756 55.3333 55.6695 55.0795 55.4574 54.875C55.2453 54.6667 54.9195 54.5114 54.4801 54.4091L53.0256 54.0682C52.2263 53.8788 51.6392 53.5852 51.2642 53.1875C50.893 52.786 50.7074 52.2841 50.7074 51.6818C50.7074 51.1894 50.8456 50.7538 51.1222 50.375C51.4025 49.9962 51.7831 49.6989 52.2642 49.483C52.7491 49.267 53.2983 49.1591 53.9119 49.1591C54.7756 49.1591 55.4536 49.3485 55.946 49.7273C56.4422 50.1061 56.7945 50.6061 57.0028 51.2273ZM62.8395 58.1818C61.9986 58.1818 61.2732 57.9962 60.6634 57.625C60.0573 57.25 59.5895 56.7273 59.2599 56.0568C58.9342 55.3826 58.7713 54.5985 58.7713 53.7045C58.7713 52.8106 58.9342 52.0227 59.2599 51.3409C59.5895 50.6553 60.0478 50.1212 60.6349 49.7386C61.2259 49.3523 61.9152 49.1591 62.7031 49.1591C63.1577 49.1591 63.6065 49.2348 64.0497 49.3864C64.4929 49.5379 64.8963 49.7841 65.2599 50.125C65.6236 50.4621 65.9134 50.9091 66.1293 51.4659C66.3452 52.0227 66.4531 52.7083 66.4531 53.5227V54.0909H59.7259V52.9318H65.0895C65.0895 52.4394 64.991 52 64.794 51.6136C64.6009 51.2273 64.3243 50.9223 63.9645 50.6989C63.6084 50.4754 63.188 50.3636 62.7031 50.3636C62.169 50.3636 61.7069 50.4962 61.3168 50.7614C60.9304 51.0227 60.633 51.3636 60.4247 51.7841C60.2164 52.2045 60.1122 52.6553 60.1122 53.1364V53.9091C60.1122 54.5682 60.2259 55.1269 60.4531 55.5852C60.6842 56.0398 61.0043 56.3864 61.4134 56.625C61.8224 56.8598 62.2978 56.9773 62.8395 56.9773C63.1918 56.9773 63.5099 56.928 63.794 56.8295C64.0819 56.7273 64.33 56.5758 64.5384 56.375C64.7467 56.1705 64.9077 55.9167 65.0213 55.6136L66.3168 55.9773C66.1804 56.4167 65.9512 56.803 65.6293 57.1364C65.3073 57.4659 64.9096 57.7235 64.4361 57.9091C63.9626 58.0909 63.4304 58.1818 62.8395 58.1818ZM68.4929 58V49.2727H69.7884V50.5909H69.8793C70.0384 50.1591 70.3262 49.8087 70.7429 49.5398C71.1596 49.2708 71.6293 49.1364 72.152 49.1364C72.2505 49.1364 72.3736 49.1383 72.5213 49.142C72.669 49.1458 72.7808 49.1515 72.8565 49.1591V50.5227C72.8111 50.5114 72.7069 50.4943 72.544 50.4716C72.3849 50.4451 72.2164 50.4318 72.0384 50.4318C71.6141 50.4318 71.2353 50.5208 70.902 50.6989C70.5724 50.8731 70.3111 51.1155 70.1179 51.4261C69.9285 51.733 69.8338 52.0833 69.8338 52.4773V58H68.4929ZM78.7884 49.2727V50.4091H74.2656V49.2727H78.7884ZM75.5838 47.1818H76.9247V55.5C76.9247 55.8788 76.9796 56.1629 77.0895 56.3523C77.2031 56.5379 77.3471 56.6629 77.5213 56.7273C77.6993 56.7879 77.8868 56.8182 78.0838 56.8182C78.2315 56.8182 78.3527 56.8106 78.4474 56.7955C78.5421 56.7765 78.6179 56.7614 78.6747 56.75L78.9474 57.9545C78.8565 57.9886 78.7296 58.0227 78.5668 58.0568C78.4039 58.0947 78.1974 58.1136 77.9474 58.1136C77.5687 58.1136 77.1974 58.0322 76.8338 57.8693C76.474 57.7064 76.1747 57.4583 75.9361 57.125C75.7012 56.7917 75.5838 56.3712 75.5838 55.8636V47.1818ZM89.1009 49.2727V50.4091H84.5781V49.2727H89.1009ZM85.8963 47.1818H87.2372V55.5C87.2372 55.8788 87.2921 56.1629 87.402 56.3523C87.5156 56.5379 87.6596 56.6629 87.8338 56.7273C88.0118 56.7879 88.1993 56.8182 88.3963 56.8182C88.544 56.8182 88.6652 56.8106 88.7599 56.7955C88.8546 56.7765 88.9304 56.7614 88.9872 56.75L89.2599 57.9545C89.169 57.9886 89.0421 58.0227 88.8793 58.0568C88.7164 58.0947 88.5099 58.1136 88.2599 58.1136C87.8812 58.1136 87.5099 58.0322 87.1463 57.8693C86.7865 57.7064 86.4872 57.4583 86.2486 57.125C86.0137 56.7917 85.8963 56.3712 85.8963 55.8636V47.1818ZM92.6463 52.75V58H91.3054V46.3636H92.6463V50.6364H92.7599C92.9645 50.1856 93.2713 49.8277 93.6804 49.5625C94.0933 49.2936 94.6425 49.1591 95.3281 49.1591C95.9228 49.1591 96.4437 49.2784 96.8906 49.517C97.3376 49.7519 97.6842 50.1136 97.9304 50.6023C98.1804 51.0871 98.3054 51.7045 98.3054 52.4545V58H96.9645V52.5455C96.9645 51.8523 96.7846 51.3163 96.4247 50.9375C96.0687 50.5549 95.5743 50.3636 94.9418 50.3636C94.5024 50.3636 94.1084 50.4564 93.7599 50.642C93.4152 50.8277 93.1425 51.0985 92.9418 51.4545C92.7448 51.8106 92.6463 52.2424 92.6463 52.75ZM104.418 58.1818C103.577 58.1818 102.851 57.9962 102.241 57.625C101.635 57.25 101.168 56.7273 100.838 56.0568C100.512 55.3826 100.349 54.5985 100.349 53.7045C100.349 52.8106 100.512 52.0227 100.838 51.3409C101.168 50.6553 101.626 50.1212 102.213 49.7386C102.804 49.3523 103.493 49.1591 104.281 49.1591C104.736 49.1591 105.185 49.2348 105.628 49.3864C106.071 49.5379 106.474 49.7841 106.838 50.125C107.202 50.4621 107.491 50.9091 107.707 51.4659C107.923 52.0227 108.031 52.7083 108.031 53.5227V54.0909H101.304V52.9318H106.668C106.668 52.4394 106.569 52 106.372 51.6136C106.179 51.2273 105.902 50.9223 105.543 50.6989C105.187 50.4754 104.766 50.3636 104.281 50.3636C103.747 50.3636 103.285 50.4962 102.895 50.7614C102.509 51.0227 102.211 51.3636 102.003 51.7841C101.795 52.2045 101.69 52.6553 101.69 53.1364V53.9091C101.69 54.5682 101.804 55.1269 102.031 55.5852C102.262 56.0398 102.582 56.3864 102.991 56.625C103.401 56.8598 103.876 56.9773 104.418 56.9773C104.77 56.9773 105.088 56.928 105.372 56.8295C105.66 56.7273 105.908 56.5758 106.116 56.375C106.325 56.1705 106.486 55.9167 106.599 55.6136L107.895 55.9773C107.759 56.4167 107.529 56.803 107.207 57.1364C106.885 57.4659 106.488 57.7235 106.014 57.9091C105.541 58.0909 105.009 58.1818 104.418 58.1818ZM117.139 58.2045C116.586 58.2045 116.084 58.1004 115.634 57.892C115.183 57.6799 114.825 57.375 114.56 56.9773C114.295 56.5758 114.162 56.0909 114.162 55.5227C114.162 55.0227 114.26 54.6174 114.457 54.3068C114.654 53.9924 114.918 53.7462 115.247 53.5682C115.577 53.3902 115.94 53.2576 116.338 53.1705C116.74 53.0795 117.143 53.0076 117.548 52.9545C118.079 52.8864 118.509 52.8352 118.838 52.8011C119.171 52.7633 119.414 52.7008 119.565 52.6136C119.721 52.5265 119.798 52.375 119.798 52.1591V52.1136C119.798 51.553 119.645 51.1174 119.338 50.8068C119.035 50.4962 118.575 50.3409 117.957 50.3409C117.317 50.3409 116.815 50.4811 116.452 50.7614C116.088 51.0417 115.832 51.3409 115.685 51.6591L114.412 51.2045C114.639 50.6742 114.942 50.2614 115.321 49.9659C115.704 49.6667 116.12 49.4583 116.571 49.3409C117.026 49.2197 117.473 49.1591 117.912 49.1591C118.192 49.1591 118.514 49.1932 118.878 49.2614C119.245 49.3258 119.599 49.4602 119.94 49.6648C120.285 49.8693 120.571 50.178 120.798 50.5909C121.026 51.0038 121.139 51.5568 121.139 52.25V58H119.798V56.8182H119.73C119.639 57.0076 119.488 57.2102 119.276 57.4261C119.063 57.642 118.781 57.8258 118.429 57.9773C118.077 58.1288 117.647 58.2045 117.139 58.2045ZM117.344 57C117.874 57 118.321 56.8958 118.685 56.6875C119.052 56.4792 119.329 56.2102 119.514 55.8807C119.704 55.5511 119.798 55.2045 119.798 54.8409V53.6136C119.741 53.6818 119.616 53.7443 119.423 53.8011C119.234 53.8542 119.014 53.9015 118.764 53.9432C118.518 53.9811 118.277 54.0152 118.043 54.0455C117.812 54.072 117.624 54.0947 117.48 54.1136C117.132 54.1591 116.806 54.233 116.503 54.3352C116.204 54.4337 115.961 54.5833 115.776 54.7841C115.594 54.9811 115.503 55.25 115.503 55.5909C115.503 56.0568 115.675 56.4091 116.02 56.6477C116.368 56.8826 116.81 57 117.344 57ZM124.928 46.3636V58H123.587V46.3636H124.928ZM131.043 58.1818C130.202 58.1818 129.476 57.9962 128.866 57.625C128.26 57.25 127.793 56.7273 127.463 56.0568C127.137 55.3826 126.974 54.5985 126.974 53.7045C126.974 52.8106 127.137 52.0227 127.463 51.3409C127.793 50.6553 128.251 50.1212 128.838 49.7386C129.429 49.3523 130.118 49.1591 130.906 49.1591C131.361 49.1591 131.81 49.2348 132.253 49.3864C132.696 49.5379 133.099 49.7841 133.463 50.125C133.827 50.4621 134.116 50.9091 134.332 51.4659C134.548 52.0227 134.656 52.7083 134.656 53.5227V54.0909H127.929V52.9318H133.293C133.293 52.4394 133.194 52 132.997 51.6136C132.804 51.2273 132.527 50.9223 132.168 50.6989C131.812 50.4754 131.391 50.3636 130.906 50.3636C130.372 50.3636 129.91 50.4962 129.52 50.7614C129.134 51.0227 128.836 51.3636 128.628 51.7841C128.42 52.2045 128.315 52.6553 128.315 53.1364V53.9091C128.315 54.5682 128.429 55.1269 128.656 55.5852C128.887 56.0398 129.207 56.3864 129.616 56.625C130.026 56.8598 130.501 56.9773 131.043 56.9773C131.395 56.9773 131.713 56.928 131.997 56.8295C132.285 56.7273 132.533 56.5758 132.741 56.375C132.95 56.1705 133.111 55.9167 133.224 55.6136L134.52 55.9773C134.384 56.4167 134.154 56.803 133.832 57.1364C133.51 57.4659 133.113 57.7235 132.639 57.9091C132.166 58.0909 131.634 58.1818 131.043 58.1818ZM136.696 58V49.2727H137.991V50.5909H138.082C138.241 50.1591 138.529 49.8087 138.946 49.5398C139.363 49.2708 139.832 49.1364 140.355 49.1364C140.454 49.1364 140.577 49.1383 140.724 49.142C140.872 49.1458 140.984 49.1515 141.06 49.1591V50.5227C141.014 50.5114 140.91 50.4943 140.747 50.4716C140.588 50.4451 140.42 50.4318 140.241 50.4318C139.817 50.4318 139.438 50.5208 139.105 50.6989C138.776 50.8731 138.514 51.1155 138.321 51.4261C138.132 51.733 138.037 52.0833 138.037 52.4773V58H136.696ZM146.991 49.2727V50.4091H142.469V49.2727H146.991ZM143.787 47.1818H145.128V55.5C145.128 55.8788 145.183 56.1629 145.293 56.3523C145.406 56.5379 145.55 56.6629 145.724 56.7273C145.902 56.7879 146.09 56.8182 146.287 56.8182C146.435 56.8182 146.556 56.8106 146.651 56.7955C146.745 56.7765 146.821 56.7614 146.878 56.75L147.151 57.9545C147.06 57.9886 146.933 58.0227 146.77 58.0568C146.607 58.0947 146.401 58.1136 146.151 58.1136C145.772 58.1136 145.401 58.0322 145.037 57.8693C144.677 57.7064 144.378 57.4583 144.139 57.125C143.904 56.7917 143.787 56.3712 143.787 55.8636V47.1818ZM156.804 58.1818C156.077 58.1818 155.435 57.9981 154.878 57.6307C154.321 57.2595 153.885 56.7367 153.571 56.0625C153.257 55.3845 153.099 54.5833 153.099 53.6591C153.099 52.7424 153.257 51.947 153.571 51.2727C153.885 50.5985 154.323 50.0777 154.884 49.7102C155.444 49.3428 156.092 49.1591 156.827 49.1591C157.395 49.1591 157.844 49.2538 158.173 49.4432C158.507 49.6288 158.76 49.8409 158.935 50.0795C159.113 50.3144 159.251 50.5076 159.349 50.6591H159.463V46.3636H160.804V58H159.509V56.6591H159.349C159.251 56.8182 159.111 57.0189 158.929 57.2614C158.747 57.5 158.488 57.714 158.151 57.9034C157.813 58.089 157.365 58.1818 156.804 58.1818ZM156.986 56.9773C157.524 56.9773 157.978 56.8371 158.349 56.5568C158.721 56.2727 159.003 55.8807 159.196 55.3807C159.389 54.8769 159.486 54.2955 159.486 53.6364C159.486 52.9848 159.391 52.4148 159.202 51.9261C159.012 51.4337 158.732 51.0511 158.361 50.7784C157.99 50.5019 157.531 50.3636 156.986 50.3636C156.418 50.3636 155.944 50.5095 155.565 50.8011C155.19 51.089 154.908 51.4811 154.719 51.9773C154.533 52.4697 154.44 53.0227 154.44 53.6364C154.44 54.2576 154.535 54.822 154.724 55.3295C154.918 55.8333 155.202 56.2348 155.577 56.5341C155.955 56.8295 156.425 56.9773 156.986 56.9773ZM167.105 58.1818C166.264 58.1818 165.539 57.9962 164.929 57.625C164.323 57.25 163.855 56.7273 163.526 56.0568C163.2 55.3826 163.037 54.5985 163.037 53.7045C163.037 52.8106 163.2 52.0227 163.526 51.3409C163.855 50.6553 164.313 50.1212 164.901 49.7386C165.491 49.3523 166.181 49.1591 166.969 49.1591C167.423 49.1591 167.872 49.2348 168.315 49.3864C168.759 49.5379 169.162 49.7841 169.526 50.125C169.889 50.4621 170.179 50.9091 170.395 51.4659C170.611 52.0227 170.719 52.7083 170.719 53.5227V54.0909H163.991V52.9318H169.355C169.355 52.4394 169.257 52 169.06 51.6136C168.866 51.2273 168.59 50.9223 168.23 50.6989C167.874 50.4754 167.454 50.3636 166.969 50.3636C166.435 50.3636 165.973 50.4962 165.582 50.7614C165.196 51.0227 164.899 51.3636 164.69 51.7841C164.482 52.2045 164.378 52.6553 164.378 53.1364V53.9091C164.378 54.5682 164.491 55.1269 164.719 55.5852C164.95 56.0398 165.27 56.3864 165.679 56.625C166.088 56.8598 166.563 56.9773 167.105 56.9773C167.457 56.9773 167.776 56.928 168.06 56.8295C168.348 56.7273 168.596 56.5758 168.804 56.375C169.012 56.1705 169.173 55.9167 169.287 55.6136L170.582 55.9773C170.446 56.4167 170.217 56.803 169.895 57.1364C169.573 57.4659 169.175 57.7235 168.702 57.9091C168.228 58.0909 167.696 58.1818 167.105 58.1818ZM178.94 51.2273L177.736 51.5682C177.66 51.3674 177.548 51.1723 177.401 50.983C177.257 50.7898 177.06 50.6307 176.81 50.5057C176.56 50.3807 176.24 50.3182 175.849 50.3182C175.315 50.3182 174.87 50.4413 174.514 50.6875C174.162 50.9299 173.986 51.2386 173.986 51.6136C173.986 51.947 174.107 52.2102 174.349 52.4034C174.592 52.5966 174.971 52.7576 175.486 52.8864L176.781 53.2045C177.562 53.3939 178.143 53.6837 178.526 54.0739C178.908 54.4602 179.099 54.9583 179.099 55.5682C179.099 56.0682 178.955 56.5152 178.668 56.9091C178.384 57.303 177.986 57.6136 177.474 57.8409C176.963 58.0682 176.368 58.1818 175.69 58.1818C174.8 58.1818 174.063 57.9886 173.48 57.6023C172.897 57.2159 172.527 56.6515 172.372 55.9091L173.645 55.5909C173.766 56.0606 173.995 56.4129 174.332 56.6477C174.673 56.8826 175.118 57 175.668 57C176.293 57 176.789 56.8674 177.156 56.6023C177.527 56.3333 177.713 56.0114 177.713 55.6364C177.713 55.3333 177.607 55.0795 177.395 54.875C177.183 54.6667 176.857 54.5114 176.418 54.4091L174.963 54.0682C174.164 53.8788 173.577 53.5852 173.202 53.1875C172.83 52.786 172.645 52.2841 172.645 51.6818C172.645 51.1894 172.783 50.7538 173.06 50.375C173.34 49.9962 173.721 49.6989 174.202 49.483C174.687 49.267 175.236 49.1591 175.849 49.1591C176.713 49.1591 177.391 49.3485 177.884 49.7273C178.38 50.1061 178.732 50.6061 178.94 51.2273ZM184.663 58.1818C183.845 58.1818 183.141 57.9886 182.55 57.6023C181.959 57.2159 181.504 56.6837 181.186 56.0057C180.868 55.3277 180.709 54.553 180.709 53.6818C180.709 52.7955 180.872 52.0133 181.197 51.3352C181.527 50.6534 181.985 50.1212 182.572 49.7386C183.163 49.3523 183.853 49.1591 184.641 49.1591C185.254 49.1591 185.807 49.2727 186.3 49.5C186.792 49.7273 187.196 50.0455 187.51 50.4545C187.824 50.8636 188.019 51.3409 188.095 51.8864H186.754C186.652 51.4886 186.425 51.1364 186.072 50.8295C185.724 50.5189 185.254 50.3636 184.663 50.3636C184.141 50.3636 183.682 50.5 183.288 50.7727C182.898 51.0417 182.593 51.4223 182.374 51.9148C182.158 52.4034 182.05 52.9773 182.05 53.6364C182.05 54.3106 182.156 54.8977 182.368 55.3977C182.584 55.8977 182.887 56.286 183.277 56.5625C183.671 56.839 184.133 56.9773 184.663 56.9773C185.012 56.9773 185.328 56.9167 185.612 56.7955C185.896 56.6742 186.137 56.5 186.334 56.2727C186.531 56.0455 186.671 55.7727 186.754 55.4545H188.095C188.019 55.9697 187.832 56.4337 187.533 56.8466C187.237 57.2557 186.845 57.5814 186.357 57.8239C185.872 58.0625 185.307 58.1818 184.663 58.1818ZM190.055 58V49.2727H191.351V50.5909H191.442C191.601 50.1591 191.889 49.8087 192.305 49.5398C192.722 49.2708 193.192 49.1364 193.714 49.1364C193.813 49.1364 193.936 49.1383 194.084 49.142C194.232 49.1458 194.343 49.1515 194.419 49.1591V50.5227C194.374 50.5114 194.269 50.4943 194.107 50.4716C193.947 50.4451 193.779 50.4318 193.601 50.4318C193.177 50.4318 192.798 50.5208 192.464 50.6989C192.135 50.8731 191.874 51.1155 191.68 51.4261C191.491 51.733 191.396 52.0833 191.396 52.4773V58H190.055ZM196.009 58V49.2727H197.349V58H196.009ZM196.69 47.8182C196.429 47.8182 196.204 47.7292 196.014 47.5511C195.829 47.3731 195.736 47.1591 195.736 46.9091C195.736 46.6591 195.829 46.4451 196.014 46.267C196.204 46.089 196.429 46 196.69 46C196.952 46 197.175 46.089 197.361 46.267C197.55 46.4451 197.645 46.6591 197.645 46.9091C197.645 47.1591 197.55 47.3731 197.361 47.5511C197.175 47.7292 196.952 47.8182 196.69 47.8182ZM199.805 61.2727V49.2727H201.101V50.6591H201.26C201.358 50.5076 201.495 50.3144 201.669 50.0795C201.847 49.8409 202.101 49.6288 202.43 49.4432C202.764 49.2538 203.214 49.1591 203.783 49.1591C204.518 49.1591 205.165 49.3428 205.726 49.7102C206.286 50.0777 206.724 50.5985 207.038 51.2727C207.353 51.947 207.51 52.7424 207.51 53.6591C207.51 54.5833 207.353 55.3845 207.038 56.0625C206.724 56.7367 206.288 57.2595 205.732 57.6307C205.175 57.9981 204.533 58.1818 203.805 58.1818C203.245 58.1818 202.796 58.089 202.459 57.9034C202.122 57.714 201.862 57.5 201.68 57.2614C201.499 57.0189 201.358 56.8182 201.26 56.6591H201.146V61.2727H199.805ZM201.124 53.6364C201.124 54.2955 201.22 54.8769 201.413 55.3807C201.607 55.8807 201.889 56.2727 202.26 56.5568C202.631 56.8371 203.086 56.9773 203.624 56.9773C204.184 56.9773 204.652 56.8295 205.027 56.5341C205.406 56.2348 205.69 55.8333 205.879 55.3295C206.072 54.822 206.169 54.2576 206.169 53.6364C206.169 53.0227 206.074 52.4697 205.885 51.9773C205.699 51.4811 205.417 51.089 205.038 50.8011C204.663 50.5095 204.192 50.3636 203.624 50.3636C203.078 50.3636 202.62 50.5019 202.249 50.7784C201.877 51.0511 201.597 51.4337 201.408 51.9261C201.218 52.4148 201.124 52.9848 201.124 53.6364ZM213.351 49.2727V50.4091H208.828V49.2727H213.351ZM210.146 47.1818H211.487V55.5C211.487 55.8788 211.542 56.1629 211.652 56.3523C211.766 56.5379 211.91 56.6629 212.084 56.7273C212.262 56.7879 212.449 56.8182 212.646 56.8182C212.794 56.8182 212.915 56.8106 213.01 56.7955C213.105 56.7765 213.18 56.7614 213.237 56.75L213.51 57.9545C213.419 57.9886 213.292 58.0227 213.129 58.0568C212.966 58.0947 212.76 58.1136 212.51 58.1136C212.131 58.1136 211.76 58.0322 211.396 57.8693C211.036 57.7064 210.737 57.4583 210.499 57.125C210.264 56.7917 210.146 56.3712 210.146 55.8636V47.1818ZM215.368 58V49.2727H216.709V58H215.368ZM216.05 47.8182C215.788 47.8182 215.563 47.7292 215.374 47.5511C215.188 47.3731 215.095 47.1591 215.095 46.9091C215.095 46.6591 215.188 46.4451 215.374 46.267C215.563 46.089 215.788 46 216.05 46C216.311 46 216.535 46.089 216.72 46.267C216.91 46.4451 217.004 46.6591 217.004 46.9091C217.004 47.1591 216.91 47.3731 216.72 47.5511C216.535 47.7292 216.311 47.8182 216.05 47.8182ZM222.71 58.1818C221.922 58.1818 221.231 57.9943 220.636 57.6193C220.045 57.2443 219.583 56.7197 219.25 56.0455C218.92 55.3712 218.756 54.5833 218.756 53.6818C218.756 52.7727 218.92 51.9792 219.25 51.3011C219.583 50.6231 220.045 50.0966 220.636 49.7216C221.231 49.3466 221.922 49.1591 222.71 49.1591C223.498 49.1591 224.188 49.3466 224.778 49.7216C225.373 50.0966 225.835 50.6231 226.165 51.3011C226.498 51.9792 226.665 52.7727 226.665 53.6818C226.665 54.5833 226.498 55.3712 226.165 56.0455C225.835 56.7197 225.373 57.2443 224.778 57.6193C224.188 57.9943 223.498 58.1818 222.71 58.1818ZM222.71 56.9773C223.309 56.9773 223.801 56.8239 224.188 56.517C224.574 56.2102 224.86 55.8068 225.045 55.3068C225.231 54.8068 225.324 54.2652 225.324 53.6818C225.324 53.0985 225.231 52.5549 225.045 52.0511C224.86 51.5473 224.574 51.1402 224.188 50.8295C223.801 50.5189 223.309 50.3636 222.71 50.3636C222.112 50.3636 221.619 50.5189 221.233 50.8295C220.847 51.1402 220.561 51.5473 220.375 52.0511C220.189 52.5549 220.097 53.0985 220.097 53.6818C220.097 54.2652 220.189 54.8068 220.375 55.3068C220.561 55.8068 220.847 56.2102 221.233 56.517C221.619 56.8239 222.112 56.9773 222.71 56.9773ZM230.053 52.75V58H228.712V49.2727H230.007V50.6364H230.121C230.325 50.1932 230.636 49.8371 231.053 49.5682C231.469 49.2955 232.007 49.1591 232.666 49.1591C233.257 49.1591 233.774 49.2803 234.217 49.5227C234.661 49.7614 235.005 50.125 235.251 50.6136C235.498 51.0985 235.621 51.7121 235.621 52.4545V58H234.28V52.5455C234.28 51.8598 234.102 51.3258 233.746 50.9432C233.39 50.5568 232.901 50.3636 232.28 50.3636C231.852 50.3636 231.469 50.4564 231.132 50.642C230.799 50.8277 230.536 51.0985 230.342 51.4545C230.149 51.8106 230.053 52.2424 230.053 52.75ZM243.912 52.75V58H242.571V46.3636H243.912V50.6364H244.026C244.23 50.1856 244.537 49.8277 244.946 49.5625C245.359 49.2936 245.908 49.1591 246.594 49.1591C247.188 49.1591 247.709 49.2784 248.156 49.517C248.603 49.7519 248.95 50.1136 249.196 50.6023C249.446 51.0871 249.571 51.7045 249.571 52.4545V58H248.23V52.5455C248.23 51.8523 248.05 51.3163 247.69 50.9375C247.334 50.5549 246.84 50.3636 246.207 50.3636C245.768 50.3636 245.374 50.4564 245.026 50.642C244.681 50.8277 244.408 51.0985 244.207 51.4545C244.01 51.8106 243.912 52.2424 243.912 52.75ZM255.683 58.1818C254.842 58.1818 254.117 57.9962 253.507 57.625C252.901 57.25 252.433 56.7273 252.104 56.0568C251.778 55.3826 251.615 54.5985 251.615 53.7045C251.615 52.8106 251.778 52.0227 252.104 51.3409C252.433 50.6553 252.892 50.1212 253.479 49.7386C254.07 49.3523 254.759 49.1591 255.547 49.1591C256.001 49.1591 256.45 49.2348 256.893 49.3864C257.337 49.5379 257.74 49.7841 258.104 50.125C258.467 50.4621 258.757 50.9091 258.973 51.4659C259.189 52.0227 259.297 52.7083 259.297 53.5227V54.0909H252.57V52.9318H257.933C257.933 52.4394 257.835 52 257.638 51.6136C257.445 51.2273 257.168 50.9223 256.808 50.6989C256.452 50.4754 256.032 50.3636 255.547 50.3636C255.013 50.3636 254.551 50.4962 254.161 50.7614C253.774 51.0227 253.477 51.3636 253.268 51.7841C253.06 52.2045 252.956 52.6553 252.956 53.1364V53.9091C252.956 54.5682 253.07 55.1269 253.297 55.5852C253.528 56.0398 253.848 56.3864 254.257 56.625C254.666 56.8598 255.142 56.9773 255.683 56.9773C256.036 56.9773 256.354 56.928 256.638 56.8295C256.926 56.7273 257.174 56.5758 257.382 56.375C257.59 56.1705 257.751 55.9167 257.865 55.6136L259.161 55.9773C259.024 56.4167 258.795 56.803 258.473 57.1364C258.151 57.4659 257.753 57.7235 257.28 57.9091C256.806 58.0909 256.274 58.1818 255.683 58.1818ZM261.337 58V49.2727H262.632V50.5909H262.723C262.882 50.1591 263.17 49.8087 263.587 49.5398C264.003 49.2708 264.473 49.1364 264.996 49.1364C265.094 49.1364 265.217 49.1383 265.365 49.142C265.513 49.1458 265.625 49.1515 265.7 49.1591V50.5227C265.655 50.5114 265.551 50.4943 265.388 50.4716C265.229 50.4451 265.06 50.4318 264.882 50.4318C264.458 50.4318 264.079 50.5208 263.746 50.6989C263.416 50.8731 263.155 51.1155 262.962 51.4261C262.772 51.733 262.678 52.0833 262.678 52.4773V58H261.337ZM270.683 58.1818C269.842 58.1818 269.117 57.9962 268.507 57.625C267.901 57.25 267.433 56.7273 267.104 56.0568C266.778 55.3826 266.615 54.5985 266.615 53.7045C266.615 52.8106 266.778 52.0227 267.104 51.3409C267.433 50.6553 267.892 50.1212 268.479 49.7386C269.07 49.3523 269.759 49.1591 270.547 49.1591C271.001 49.1591 271.45 49.2348 271.893 49.3864C272.337 49.5379 272.74 49.7841 273.104 50.125C273.467 50.4621 273.757 50.9091 273.973 51.4659C274.189 52.0227 274.297 52.7083 274.297 53.5227V54.0909H267.57V52.9318H272.933C272.933 52.4394 272.835 52 272.638 51.6136C272.445 51.2273 272.168 50.9223 271.808 50.6989C271.452 50.4754 271.032 50.3636 270.547 50.3636C270.013 50.3636 269.551 50.4962 269.161 50.7614C268.774 51.0227 268.477 51.3636 268.268 51.7841C268.06 52.2045 267.956 52.6553 267.956 53.1364V53.9091C267.956 54.5682 268.07 55.1269 268.297 55.5852C268.528 56.0398 268.848 56.3864 269.257 56.625C269.666 56.8598 270.142 56.9773 270.683 56.9773C271.036 56.9773 271.354 56.928 271.638 56.8295C271.926 56.7273 272.174 56.5758 272.382 56.375C272.59 56.1705 272.751 55.9167 272.865 55.6136L274.161 55.9773C274.024 56.4167 273.795 56.803 273.473 57.1364C273.151 57.4659 272.753 57.7235 272.28 57.9091C271.806 58.0909 271.274 58.1818 270.683 58.1818ZM277.314 58.0909C277.034 58.0909 276.793 57.9905 276.592 57.7898C276.392 57.589 276.291 57.3485 276.291 57.0682C276.291 56.7879 276.392 56.5473 276.592 56.3466C276.793 56.1458 277.034 56.0455 277.314 56.0455C277.594 56.0455 277.835 56.1458 278.036 56.3466C278.236 56.5473 278.337 56.7879 278.337 57.0682C278.337 57.2538 278.289 57.4242 278.195 57.5795C278.104 57.7348 277.981 57.8598 277.825 57.9545C277.674 58.0455 277.503 58.0909 277.314 58.0909ZM285.243 58V49.2727H286.584V58H285.243ZM285.925 47.8182C285.663 47.8182 285.438 47.7292 285.249 47.5511C285.063 47.3731 284.97 47.1591 284.97 46.9091C284.97 46.6591 285.063 46.4451 285.249 46.267C285.438 46.089 285.663 46 285.925 46C286.186 46 286.41 46.089 286.595 46.267C286.785 46.4451 286.879 46.6591 286.879 46.9091C286.879 47.1591 286.785 47.3731 286.595 47.5511C286.41 47.7292 286.186 47.8182 285.925 47.8182ZM292.835 49.2727V50.4091H288.312V49.2727H292.835ZM289.631 47.1818H290.972V55.5C290.972 55.8788 291.027 56.1629 291.136 56.3523C291.25 56.5379 291.394 56.6629 291.568 56.7273C291.746 56.7879 291.934 56.8182 292.131 56.8182C292.278 56.8182 292.4 56.8106 292.494 56.7955C292.589 56.7765 292.665 56.7614 292.722 56.75L292.994 57.9545C292.903 57.9886 292.777 58.0227 292.614 58.0568C292.451 58.0947 292.244 58.1136 291.994 58.1136C291.616 58.1136 291.244 58.0322 290.881 57.8693C290.521 57.7064 290.222 57.4583 289.983 57.125C289.748 56.7917 289.631 56.3712 289.631 55.8636V47.1818ZM39.2045 82L36.5455 73.2727H37.9545L39.8409 79.9545H39.9318L41.7955 73.2727H43.2273L45.0682 79.9318H45.1591L47.0455 73.2727H48.4545L45.7955 82H44.4773L42.5682 75.2955H42.4318L40.5227 82H39.2045ZM53.4759 82.1818C52.688 82.1818 51.9967 81.9943 51.402 81.6193C50.8111 81.2443 50.349 80.7197 50.0156 80.0455C49.6861 79.3712 49.5213 78.5833 49.5213 77.6818C49.5213 76.7727 49.6861 75.9792 50.0156 75.3011C50.349 74.6231 50.8111 74.0966 51.402 73.7216C51.9967 73.3466 52.688 73.1591 53.4759 73.1591C54.2637 73.1591 54.9531 73.3466 55.544 73.7216C56.1387 74.0966 56.6009 74.6231 56.9304 75.3011C57.2637 75.9792 57.4304 76.7727 57.4304 77.6818C57.4304 78.5833 57.2637 79.3712 56.9304 80.0455C56.6009 80.7197 56.1387 81.2443 55.544 81.6193C54.9531 81.9943 54.2637 82.1818 53.4759 82.1818ZM53.4759 80.9773C54.0743 80.9773 54.5668 80.8239 54.9531 80.517C55.3395 80.2102 55.6255 79.8068 55.8111 79.3068C55.9967 78.8068 56.0895 78.2652 56.0895 77.6818C56.0895 77.0985 55.9967 76.5549 55.8111 76.0511C55.6255 75.5473 55.3395 75.1402 54.9531 74.8295C54.5668 74.5189 54.0743 74.3636 53.4759 74.3636C52.8774 74.3636 52.3849 74.5189 51.9986 74.8295C51.6122 75.1402 51.3262 75.5473 51.1406 76.0511C50.955 76.5549 50.8622 77.0985 50.8622 77.6818C50.8622 78.2652 50.955 78.8068 51.1406 79.3068C51.3262 79.8068 51.6122 80.2102 51.9986 80.517C52.3849 80.8239 52.8774 80.9773 53.4759 80.9773ZM64.9773 78.4318V73.2727H66.3182V82H64.9773V80.5227H64.8864C64.6818 80.9659 64.3636 81.3428 63.9318 81.6534C63.5 81.9602 62.9545 82.1136 62.2955 82.1136C61.75 82.1136 61.2652 81.9943 60.8409 81.7557C60.4167 81.5133 60.0833 81.1496 59.8409 80.6648C59.5985 80.1761 59.4773 79.5606 59.4773 78.8182V73.2727H60.8182V78.7273C60.8182 79.3636 60.9962 79.8712 61.3523 80.25C61.7121 80.6288 62.1705 80.8182 62.7273 80.8182C63.0606 80.8182 63.3996 80.733 63.7443 80.5625C64.0928 80.392 64.3845 80.1307 64.6193 79.7784C64.858 79.4261 64.9773 78.9773 64.9773 78.4318ZM70.1151 70.3636V82H68.7741V70.3636H70.1151ZM75.8665 82.1818C75.1392 82.1818 74.4972 81.9981 73.9403 81.6307C73.3835 81.2595 72.9479 80.7367 72.6335 80.0625C72.3191 79.3845 72.1619 78.5833 72.1619 77.6591C72.1619 76.7424 72.3191 75.947 72.6335 75.2727C72.9479 74.5985 73.3854 74.0777 73.946 73.7102C74.5066 73.3428 75.1544 73.1591 75.8892 73.1591C76.4574 73.1591 76.9063 73.2538 77.2358 73.4432C77.5691 73.6288 77.8229 73.8409 77.9972 74.0795C78.1752 74.3144 78.3134 74.5076 78.4119 74.6591H78.5256V70.3636H79.8665V82H78.571V80.6591H78.4119C78.3134 80.8182 78.1733 81.0189 77.9915 81.2614C77.8097 81.5 77.5502 81.714 77.2131 81.9034C76.8759 82.089 76.4271 82.1818 75.8665 82.1818ZM76.0483 80.9773C76.5862 80.9773 77.0407 80.8371 77.4119 80.5568C77.7831 80.2727 78.0653 79.8807 78.2585 79.3807C78.4517 78.8769 78.5483 78.2955 78.5483 77.6364C78.5483 76.9848 78.4536 76.4148 78.2642 75.9261C78.0748 75.4337 77.7945 75.0511 77.4233 74.7784C77.0521 74.5019 76.5938 74.3636 76.0483 74.3636C75.4801 74.3636 75.0066 74.5095 74.6278 74.8011C74.2528 75.089 73.9706 75.4811 73.7812 75.9773C73.5956 76.4697 73.5028 77.0227 73.5028 77.6364C73.5028 78.2576 73.5975 78.822 73.7869 79.3295C73.9801 79.8333 74.2642 80.2348 74.6392 80.5341C75.018 80.8295 75.4877 80.9773 76.0483 80.9773ZM88.3494 70.3636V82H87.0085V70.3636H88.3494ZM94.3509 82.1818C93.563 82.1818 92.8717 81.9943 92.277 81.6193C91.6861 81.2443 91.224 80.7197 90.8906 80.0455C90.5611 79.3712 90.3963 78.5833 90.3963 77.6818C90.3963 76.7727 90.5611 75.9792 90.8906 75.3011C91.224 74.6231 91.6861 74.0966 92.277 73.7216C92.8717 73.3466 93.563 73.1591 94.3509 73.1591C95.1387 73.1591 95.8281 73.3466 96.419 73.7216C97.0137 74.0966 97.4759 74.6231 97.8054 75.3011C98.1387 75.9792 98.3054 76.7727 98.3054 77.6818C98.3054 78.5833 98.1387 79.3712 97.8054 80.0455C97.4759 80.7197 97.0137 81.2443 96.419 81.6193C95.8281 81.9943 95.1387 82.1818 94.3509 82.1818ZM94.3509 80.9773C94.9493 80.9773 95.4418 80.8239 95.8281 80.517C96.2145 80.2102 96.5005 79.8068 96.6861 79.3068C96.8717 78.8068 96.9645 78.2652 96.9645 77.6818C96.9645 77.0985 96.8717 76.5549 96.6861 76.0511C96.5005 75.5473 96.2145 75.1402 95.8281 74.8295C95.4418 74.5189 94.9493 74.3636 94.3509 74.3636C93.7524 74.3636 93.2599 74.5189 92.8736 74.8295C92.4872 75.1402 92.2012 75.5473 92.0156 76.0511C91.83 76.5549 91.7372 77.0985 91.7372 77.6818C91.7372 78.2652 91.83 78.8068 92.0156 79.3068C92.2012 79.8068 92.4872 80.2102 92.8736 80.517C93.2599 80.8239 93.7524 80.9773 94.3509 80.9773ZM103.898 82.1818C103.11 82.1818 102.419 81.9943 101.824 81.6193C101.233 81.2443 100.771 80.7197 100.438 80.0455C100.108 79.3712 99.9432 78.5833 99.9432 77.6818C99.9432 76.7727 100.108 75.9792 100.438 75.3011C100.771 74.6231 101.233 74.0966 101.824 73.7216C102.419 73.3466 103.11 73.1591 103.898 73.1591C104.686 73.1591 105.375 73.3466 105.966 73.7216C106.561 74.0966 107.023 74.6231 107.352 75.3011C107.686 75.9792 107.852 76.7727 107.852 77.6818C107.852 78.5833 107.686 79.3712 107.352 80.0455C107.023 80.7197 106.561 81.2443 105.966 81.6193C105.375 81.9943 104.686 82.1818 103.898 82.1818ZM103.898 80.9773C104.496 80.9773 104.989 80.8239 105.375 80.517C105.761 80.2102 106.047 79.8068 106.233 79.3068C106.419 78.8068 106.511 78.2652 106.511 77.6818C106.511 77.0985 106.419 76.5549 106.233 76.0511C106.047 75.5473 105.761 75.1402 105.375 74.8295C104.989 74.5189 104.496 74.3636 103.898 74.3636C103.299 74.3636 102.807 74.5189 102.42 74.8295C102.034 75.1402 101.748 75.5473 101.562 76.0511C101.377 76.5549 101.284 77.0985 101.284 77.6818C101.284 78.2652 101.377 78.8068 101.562 79.3068C101.748 79.8068 102.034 80.2102 102.42 80.517C102.807 80.8239 103.299 80.9773 103.898 80.9773ZM111.149 78.8182L111.126 77.1591H111.399L115.217 73.2727H116.876L112.808 77.3864H112.695L111.149 78.8182ZM109.899 82V70.3636H111.24V82H109.899ZM115.445 82L112.036 77.6818L112.99 76.75L117.149 82H115.445ZM123.284 82V70.3636H124.625V74.6591H124.739C124.837 74.5076 124.973 74.3144 125.148 74.0795C125.326 73.8409 125.58 73.6288 125.909 73.4432C126.242 73.2538 126.693 73.1591 127.261 73.1591C127.996 73.1591 128.644 73.3428 129.205 73.7102C129.765 74.0777 130.203 74.5985 130.517 75.2727C130.831 75.947 130.989 76.7424 130.989 77.6591C130.989 78.5833 130.831 79.3845 130.517 80.0625C130.203 80.7367 129.767 81.2595 129.21 81.6307C128.653 81.9981 128.011 82.1818 127.284 82.1818C126.723 82.1818 126.275 82.089 125.938 81.9034C125.6 81.714 125.341 81.5 125.159 81.2614C124.977 81.0189 124.837 80.8182 124.739 80.6591H124.58V82H123.284ZM124.602 77.6364C124.602 78.2955 124.699 78.8769 124.892 79.3807C125.085 79.8807 125.367 80.2727 125.739 80.5568C126.11 80.8371 126.564 80.9773 127.102 80.9773C127.663 80.9773 128.131 80.8295 128.506 80.5341C128.884 80.2348 129.169 79.8333 129.358 79.3295C129.551 78.822 129.648 78.2576 129.648 77.6364C129.648 77.0227 129.553 76.4697 129.364 75.9773C129.178 75.4811 128.896 75.089 128.517 74.8011C128.142 74.5095 127.67 74.3636 127.102 74.3636C126.557 74.3636 126.098 74.5019 125.727 74.7784C125.356 75.0511 125.076 75.4337 124.886 75.9261C124.697 76.4148 124.602 76.9848 124.602 77.6364ZM136.699 82.1818C135.858 82.1818 135.133 81.9962 134.523 81.625C133.917 81.25 133.449 80.7273 133.119 80.0568C132.794 79.3826 132.631 78.5985 132.631 77.7045C132.631 76.8106 132.794 76.0227 133.119 75.3409C133.449 74.6553 133.907 74.1212 134.494 73.7386C135.085 73.3523 135.775 73.1591 136.562 73.1591C137.017 73.1591 137.466 73.2348 137.909 73.3864C138.352 73.5379 138.756 73.7841 139.119 74.125C139.483 74.4621 139.773 74.9091 139.989 75.4659C140.205 76.0227 140.312 76.7083 140.312 77.5227V78.0909H133.585V76.9318H138.949C138.949 76.4394 138.85 76 138.653 75.6136C138.46 75.2273 138.184 74.9223 137.824 74.6989C137.468 74.4754 137.047 74.3636 136.562 74.3636C136.028 74.3636 135.566 74.4962 135.176 74.7614C134.79 75.0227 134.492 75.3636 134.284 75.7841C134.076 76.2045 133.972 76.6553 133.972 77.1364V77.9091C133.972 78.5682 134.085 79.1269 134.312 79.5852C134.544 80.0398 134.864 80.3864 135.273 80.625C135.682 80.8598 136.157 80.9773 136.699 80.9773C137.051 80.9773 137.369 80.928 137.653 80.8295C137.941 80.7273 138.189 80.5758 138.398 80.375C138.606 80.1705 138.767 79.9167 138.881 79.6136L140.176 79.9773C140.04 80.4167 139.811 80.803 139.489 81.1364C139.167 81.4659 138.769 81.7235 138.295 81.9091C137.822 82.0909 137.29 82.1818 136.699 82.1818ZM146.148 73.2727V74.4091H141.625V73.2727H146.148ZM142.943 71.1818H144.284V79.5C144.284 79.8788 144.339 80.1629 144.449 80.3523C144.563 80.5379 144.706 80.6629 144.881 80.7273C145.059 80.7879 145.246 80.8182 145.443 80.8182C145.591 80.8182 145.712 80.8106 145.807 80.7955C145.902 80.7765 145.977 80.7614 146.034 80.75L146.307 81.9545C146.216 81.9886 146.089 82.0227 145.926 82.0568C145.763 82.0947 145.557 82.1136 145.307 82.1136C144.928 82.1136 144.557 82.0322 144.193 81.8693C143.833 81.7064 143.534 81.4583 143.295 81.125C143.061 80.7917 142.943 80.3712 142.943 79.8636V71.1818ZM151.96 73.2727V74.4091H147.438V73.2727H151.96ZM148.756 71.1818H150.097V79.5C150.097 79.8788 150.152 80.1629 150.261 80.3523C150.375 80.5379 150.519 80.6629 150.693 80.7273C150.871 80.7879 151.059 80.8182 151.256 80.8182C151.403 80.8182 151.525 80.8106 151.619 80.7955C151.714 80.7765 151.79 80.7614 151.847 80.75L152.119 81.9545C152.028 81.9886 151.902 82.0227 151.739 82.0568C151.576 82.0947 151.369 82.1136 151.119 82.1136C150.741 82.1136 150.369 82.0322 150.006 81.8693C149.646 81.7064 149.347 81.4583 149.108 81.125C148.873 80.7917 148.756 80.3712 148.756 79.8636V71.1818ZM157.543 82.1818C156.702 82.1818 155.976 81.9962 155.366 81.625C154.76 81.25 154.293 80.7273 153.963 80.0568C153.637 79.3826 153.474 78.5985 153.474 77.7045C153.474 76.8106 153.637 76.0227 153.963 75.3409C154.293 74.6553 154.751 74.1212 155.338 73.7386C155.929 73.3523 156.618 73.1591 157.406 73.1591C157.861 73.1591 158.31 73.2348 158.753 73.3864C159.196 73.5379 159.599 73.7841 159.963 74.125C160.327 74.4621 160.616 74.9091 160.832 75.4659C161.048 76.0227 161.156 76.7083 161.156 77.5227V78.0909H154.429V76.9318H159.793C159.793 76.4394 159.694 76 159.497 75.6136C159.304 75.2273 159.027 74.9223 158.668 74.6989C158.312 74.4754 157.891 74.3636 157.406 74.3636C156.872 74.3636 156.41 74.4962 156.02 74.7614C155.634 75.0227 155.336 75.3636 155.128 75.7841C154.92 76.2045 154.815 76.6553 154.815 77.1364V77.9091C154.815 78.5682 154.929 79.1269 155.156 79.5852C155.387 80.0398 155.707 80.3864 156.116 80.625C156.526 80.8598 157.001 80.9773 157.543 80.9773C157.895 80.9773 158.213 80.928 158.497 80.8295C158.785 80.7273 159.033 80.5758 159.241 80.375C159.45 80.1705 159.611 79.9167 159.724 79.6136L161.02 79.9773C160.884 80.4167 160.654 80.803 160.332 81.1364C160.01 81.4659 159.613 81.7235 159.139 81.9091C158.666 82.0909 158.134 82.1818 157.543 82.1818ZM163.196 82V73.2727H164.491V74.5909H164.582C164.741 74.1591 165.029 73.8087 165.446 73.5398C165.863 73.2708 166.332 73.1364 166.855 73.1364C166.954 73.1364 167.077 73.1383 167.224 73.142C167.372 73.1458 167.484 73.1515 167.56 73.1591V74.5227C167.514 74.5114 167.41 74.4943 167.247 74.4716C167.088 74.4451 166.92 74.4318 166.741 74.4318C166.317 74.4318 165.938 74.5208 165.605 74.6989C165.276 74.8731 165.014 75.1155 164.821 75.4261C164.632 75.733 164.537 76.0833 164.537 76.4773V82H163.196ZM176.217 82.2045C175.664 82.2045 175.162 82.1004 174.712 81.892C174.261 81.6799 173.903 81.375 173.638 80.9773C173.373 80.5758 173.24 80.0909 173.24 79.5227C173.24 79.0227 173.339 78.6174 173.536 78.3068C173.732 77.9924 173.996 77.7462 174.325 77.5682C174.655 77.3902 175.018 77.2576 175.416 77.1705C175.818 77.0795 176.221 77.0076 176.626 76.9545C177.157 76.8864 177.587 76.8352 177.916 76.8011C178.25 76.7633 178.492 76.7008 178.643 76.6136C178.799 76.5265 178.876 76.375 178.876 76.1591V76.1136C178.876 75.553 178.723 75.1174 178.416 74.8068C178.113 74.4962 177.653 74.3409 177.036 74.3409C176.395 74.3409 175.893 74.4811 175.53 74.7614C175.166 75.0417 174.911 75.3409 174.763 75.6591L173.49 75.2045C173.717 74.6742 174.02 74.2614 174.399 73.9659C174.782 73.6667 175.198 73.4583 175.649 73.3409C176.104 73.2197 176.551 73.1591 176.99 73.1591C177.27 73.1591 177.592 73.1932 177.956 73.2614C178.323 73.3258 178.678 73.4602 179.018 73.6648C179.363 73.8693 179.649 74.178 179.876 74.5909C180.104 75.0038 180.217 75.5568 180.217 76.25V82H178.876V80.8182H178.808C178.717 81.0076 178.566 81.2102 178.354 81.4261C178.142 81.642 177.859 81.8258 177.507 81.9773C177.155 82.1288 176.725 82.2045 176.217 82.2045ZM176.422 81C176.952 81 177.399 80.8958 177.763 80.6875C178.13 80.4792 178.407 80.2102 178.592 79.8807C178.782 79.5511 178.876 79.2045 178.876 78.8409V77.6136C178.82 77.6818 178.695 77.7443 178.501 77.8011C178.312 77.8542 178.092 77.9015 177.842 77.9432C177.596 77.9811 177.356 78.0152 177.121 78.0455C176.89 78.072 176.702 78.0947 176.558 78.1136C176.21 78.1591 175.884 78.233 175.581 78.3352C175.282 78.4337 175.039 78.5833 174.854 78.7841C174.672 78.9811 174.581 79.25 174.581 79.5909C174.581 80.0568 174.753 80.4091 175.098 80.6477C175.446 80.8826 175.888 81 176.422 81ZM188.847 75.2273L187.642 75.5682C187.566 75.3674 187.455 75.1723 187.307 74.983C187.163 74.7898 186.966 74.6307 186.716 74.5057C186.466 74.3807 186.146 74.3182 185.756 74.3182C185.222 74.3182 184.777 74.4413 184.42 74.6875C184.068 74.9299 183.892 75.2386 183.892 75.6136C183.892 75.947 184.013 76.2102 184.256 76.4034C184.498 76.5966 184.877 76.7576 185.392 76.8864L186.688 77.2045C187.468 77.3939 188.049 77.6837 188.432 78.0739C188.814 78.4602 189.006 78.9583 189.006 79.5682C189.006 80.0682 188.862 80.5152 188.574 80.9091C188.29 81.303 187.892 81.6136 187.381 81.8409C186.869 82.0682 186.275 82.1818 185.597 82.1818C184.706 82.1818 183.97 81.9886 183.386 81.6023C182.803 81.2159 182.434 80.6515 182.278 79.9091L183.551 79.5909C183.672 80.0606 183.902 80.4129 184.239 80.6477C184.58 80.8826 185.025 81 185.574 81C186.199 81 186.695 80.8674 187.062 80.6023C187.434 80.3333 187.619 80.0114 187.619 79.6364C187.619 79.3333 187.513 79.0795 187.301 78.875C187.089 78.6667 186.763 78.5114 186.324 78.4091L184.869 78.0682C184.07 77.8788 183.483 77.5852 183.108 77.1875C182.737 76.786 182.551 76.2841 182.551 75.6818C182.551 75.1894 182.689 74.7538 182.966 74.375C183.246 73.9962 183.627 73.6989 184.108 73.483C184.593 73.267 185.142 73.1591 185.756 73.1591C186.619 73.1591 187.297 73.3485 187.79 73.7273C188.286 74.1061 188.638 74.6061 188.847 75.2273ZM199.32 73.2727V74.4091H194.797V73.2727H199.32ZM196.115 71.1818H197.456V79.5C197.456 79.8788 197.511 80.1629 197.621 80.3523C197.734 80.5379 197.878 80.6629 198.053 80.7273C198.231 80.7879 198.418 80.8182 198.615 80.8182C198.763 80.8182 198.884 80.8106 198.979 80.7955C199.073 80.7765 199.149 80.7614 199.206 80.75L199.479 81.9545C199.388 81.9886 199.261 82.0227 199.098 82.0568C198.935 82.0947 198.729 82.1136 198.479 82.1136C198.1 82.1136 197.729 82.0322 197.365 81.8693C197.005 81.7064 196.706 81.4583 196.467 81.125C196.232 80.7917 196.115 80.3712 196.115 79.8636V71.1818ZM203.314 82L200.655 73.2727H202.064L203.95 79.9545H204.041L205.905 73.2727H207.337L209.178 79.9318H209.268L211.155 73.2727H212.564L209.905 82H208.587L206.678 75.2955H206.541L204.632 82H203.314ZM217.585 82.1818C216.797 82.1818 216.106 81.9943 215.511 81.6193C214.92 81.2443 214.458 80.7197 214.125 80.0455C213.795 79.3712 213.631 78.5833 213.631 77.6818C213.631 76.7727 213.795 75.9792 214.125 75.3011C214.458 74.6231 214.92 74.0966 215.511 73.7216C216.106 73.3466 216.797 73.1591 217.585 73.1591C218.373 73.1591 219.063 73.3466 219.653 73.7216C220.248 74.0966 220.71 74.6231 221.04 75.3011C221.373 75.9792 221.54 76.7727 221.54 77.6818C221.54 78.5833 221.373 79.3712 221.04 80.0455C220.71 80.7197 220.248 81.2443 219.653 81.6193C219.063 81.9943 218.373 82.1818 217.585 82.1818ZM217.585 80.9773C218.184 80.9773 218.676 80.8239 219.062 80.517C219.449 80.2102 219.735 79.8068 219.92 79.3068C220.106 78.8068 220.199 78.2652 220.199 77.6818C220.199 77.0985 220.106 76.5549 219.92 76.0511C219.735 75.5473 219.449 75.1402 219.062 74.8295C218.676 74.5189 218.184 74.3636 217.585 74.3636C216.987 74.3636 216.494 74.5189 216.108 74.8295C215.722 75.1402 215.436 75.5473 215.25 76.0511C215.064 76.5549 214.972 77.0985 214.972 77.6818C214.972 78.2652 215.064 78.8068 215.25 79.3068C215.436 79.8068 215.722 80.2102 216.108 80.517C216.494 80.8239 216.987 80.9773 217.585 80.9773ZM229.428 70.3636V82H228.087V70.3636H229.428ZM231.884 82V73.2727H233.224V82H231.884ZM232.565 71.8182C232.304 71.8182 232.079 71.7292 231.889 71.5511C231.704 71.3731 231.611 71.1591 231.611 70.9091C231.611 70.6591 231.704 70.4451 231.889 70.267C232.079 70.089 232.304 70 232.565 70C232.827 70 233.05 70.089 233.236 70.267C233.425 70.4451 233.52 70.6591 233.52 70.9091C233.52 71.1591 233.425 71.3731 233.236 71.5511C233.05 71.7292 232.827 71.8182 232.565 71.8182ZM237.021 76.75V82H235.68V73.2727H236.976V74.6364H237.089C237.294 74.1932 237.605 73.8371 238.021 73.5682C238.438 73.2955 238.976 73.1591 239.635 73.1591C240.226 73.1591 240.743 73.2803 241.186 73.5227C241.629 73.7614 241.974 74.125 242.22 74.6136C242.466 75.0985 242.589 75.7121 242.589 76.4545V82H241.249V76.5455C241.249 75.8598 241.071 75.3258 240.714 74.9432C240.358 74.5568 239.87 74.3636 239.249 74.3636C238.821 74.3636 238.438 74.4564 238.101 74.642C237.768 74.8277 237.504 75.0985 237.311 75.4545C237.118 75.8106 237.021 76.2424 237.021 76.75ZM248.699 82.1818C247.858 82.1818 247.133 81.9962 246.523 81.625C245.917 81.25 245.449 80.7273 245.119 80.0568C244.794 79.3826 244.631 78.5985 244.631 77.7045C244.631 76.8106 244.794 76.0227 245.119 75.3409C245.449 74.6553 245.907 74.1212 246.494 73.7386C247.085 73.3523 247.775 73.1591 248.562 73.1591C249.017 73.1591 249.466 73.2348 249.909 73.3864C250.352 73.5379 250.756 73.7841 251.119 74.125C251.483 74.4621 251.773 74.9091 251.989 75.4659C252.205 76.0227 252.312 76.7083 252.312 77.5227V78.0909H245.585V76.9318H250.949C250.949 76.4394 250.85 76 250.653 75.6136C250.46 75.2273 250.184 74.9223 249.824 74.6989C249.468 74.4754 249.047 74.3636 248.562 74.3636C248.028 74.3636 247.566 74.4962 247.176 74.7614C246.79 75.0227 246.492 75.3636 246.284 75.7841C246.076 76.2045 245.972 76.6553 245.972 77.1364V77.9091C245.972 78.5682 246.085 79.1269 246.312 79.5852C246.544 80.0398 246.864 80.3864 247.273 80.625C247.682 80.8598 248.157 80.9773 248.699 80.9773C249.051 80.9773 249.369 80.928 249.653 80.8295C249.941 80.7273 250.189 80.5758 250.398 80.375C250.606 80.1705 250.767 79.9167 250.881 79.6136L252.176 79.9773C252.04 80.4167 251.811 80.803 251.489 81.1364C251.167 81.4659 250.769 81.7235 250.295 81.9091C249.822 82.0909 249.29 82.1818 248.699 82.1818ZM260.534 75.2273L259.33 75.5682C259.254 75.3674 259.142 75.1723 258.994 74.983C258.85 74.7898 258.653 74.6307 258.403 74.5057C258.153 74.3807 257.833 74.3182 257.443 74.3182C256.909 74.3182 256.464 74.4413 256.108 74.6875C255.756 74.9299 255.58 75.2386 255.58 75.6136C255.58 75.947 255.701 76.2102 255.943 76.4034C256.186 76.5966 256.564 76.7576 257.08 76.8864L258.375 77.2045C259.155 77.3939 259.737 77.6837 260.119 78.0739C260.502 78.4602 260.693 78.9583 260.693 79.5682C260.693 80.0682 260.549 80.5152 260.261 80.9091C259.977 81.303 259.58 81.6136 259.068 81.8409C258.557 82.0682 257.962 82.1818 257.284 82.1818C256.394 82.1818 255.657 81.9886 255.074 81.6023C254.491 81.2159 254.121 80.6515 253.966 79.9091L255.239 79.5909C255.36 80.0606 255.589 80.4129 255.926 80.6477C256.267 80.8826 256.712 81 257.261 81C257.886 81 258.383 80.8674 258.75 80.6023C259.121 80.3333 259.307 80.0114 259.307 79.6364C259.307 79.3333 259.201 79.0795 258.989 78.875C258.777 78.6667 258.451 78.5114 258.011 78.4091L256.557 78.0682C255.758 77.8788 255.17 77.5852 254.795 77.1875C254.424 76.786 254.239 76.2841 254.239 75.6818C254.239 75.1894 254.377 74.7538 254.653 74.375C254.934 73.9962 255.314 73.6989 255.795 73.483C256.28 73.267 256.83 73.1591 257.443 73.1591C258.307 73.1591 258.985 73.3485 259.477 73.7273C259.973 74.1061 260.326 74.6061 260.534 75.2273ZM270.757 82.1818C269.969 82.1818 269.278 81.9943 268.683 81.6193C268.092 81.2443 267.63 80.7197 267.297 80.0455C266.967 79.3712 266.803 78.5833 266.803 77.6818C266.803 76.7727 266.967 75.9792 267.297 75.3011C267.63 74.6231 268.092 74.0966 268.683 73.7216C269.278 73.3466 269.969 73.1591 270.757 73.1591C271.545 73.1591 272.234 73.3466 272.825 73.7216C273.42 74.0966 273.882 74.6231 274.212 75.3011C274.545 75.9792 274.712 76.7727 274.712 77.6818C274.712 78.5833 274.545 79.3712 274.212 80.0455C273.882 80.7197 273.42 81.2443 272.825 81.6193C272.234 81.9943 271.545 82.1818 270.757 82.1818ZM270.757 80.9773C271.356 80.9773 271.848 80.8239 272.234 80.517C272.621 80.2102 272.907 79.8068 273.092 79.3068C273.278 78.8068 273.371 78.2652 273.371 77.6818C273.371 77.0985 273.278 76.5549 273.092 76.0511C272.907 75.5473 272.621 75.1402 272.234 74.8295C271.848 74.5189 271.356 74.3636 270.757 74.3636C270.159 74.3636 269.666 74.5189 269.28 74.8295C268.893 75.1402 268.607 75.5473 268.422 76.0511C268.236 76.5549 268.143 77.0985 268.143 77.6818C268.143 78.2652 268.236 78.8068 268.422 79.3068C268.607 79.8068 268.893 80.2102 269.28 80.517C269.666 80.8239 270.159 80.9773 270.757 80.9773ZM280.645 73.2727V74.4091H275.94V73.2727H280.645ZM277.349 82V72.0682C277.349 71.5682 277.467 71.1515 277.702 70.8182C277.937 70.4848 278.241 70.2348 278.616 70.0682C278.991 69.9015 279.387 69.8182 279.804 69.8182C280.134 69.8182 280.402 69.8447 280.611 69.8977C280.819 69.9508 280.974 70 281.077 70.0455L280.69 71.2045C280.622 71.1818 280.527 71.1534 280.406 71.1193C280.289 71.0852 280.134 71.0682 279.94 71.0682C279.497 71.0682 279.177 71.1799 278.98 71.4034C278.787 71.6269 278.69 71.9545 278.69 72.3864V82H277.349ZM290.82 73.2727V74.4091H286.297V73.2727H290.82ZM287.615 71.1818H288.956V79.5C288.956 79.8788 289.011 80.1629 289.121 80.3523C289.234 80.5379 289.378 80.6629 289.553 80.7273C289.731 80.7879 289.918 80.8182 290.115 80.8182C290.263 80.8182 290.384 80.8106 290.479 80.7955C290.573 80.7765 290.649 80.7614 290.706 80.75L290.979 81.9545C290.888 81.9886 290.761 82.0227 290.598 82.0568C290.435 82.0947 290.229 82.1136 289.979 82.1136C289.6 82.1136 289.229 82.0322 288.865 81.8693C288.505 81.7064 288.206 81.4583 287.967 81.125C287.732 80.7917 287.615 80.3712 287.615 79.8636V71.1818ZM296.402 82.1818C295.561 82.1818 294.836 81.9962 294.226 81.625C293.62 81.25 293.152 80.7273 292.822 80.0568C292.497 79.3826 292.334 78.5985 292.334 77.7045C292.334 76.8106 292.497 76.0227 292.822 75.3409C293.152 74.6553 293.61 74.1212 294.197 73.7386C294.788 73.3523 295.478 73.1591 296.266 73.1591C296.72 73.1591 297.169 73.2348 297.612 73.3864C298.055 73.5379 298.459 73.7841 298.822 74.125C299.186 74.4621 299.476 74.9091 299.692 75.4659C299.908 76.0227 300.016 76.7083 300.016 77.5227V78.0909H293.288V76.9318H298.652C298.652 76.4394 298.554 76 298.357 75.6136C298.163 75.2273 297.887 74.9223 297.527 74.6989C297.171 74.4754 296.75 74.3636 296.266 74.3636C295.732 74.3636 295.269 74.4962 294.879 74.7614C294.493 75.0227 294.196 75.3636 293.987 75.7841C293.779 76.2045 293.675 76.6553 293.675 77.1364V77.9091C293.675 78.5682 293.788 79.1269 294.016 79.5852C294.247 80.0398 294.567 80.3864 294.976 80.625C295.385 80.8598 295.86 80.9773 296.402 80.9773C296.754 80.9773 297.072 80.928 297.357 80.8295C297.644 80.7273 297.893 80.5758 298.101 80.375C298.309 80.1705 298.47 79.9167 298.584 79.6136L299.879 79.9773C299.743 80.4167 299.514 80.803 299.192 81.1364C298.87 81.4659 298.472 81.7235 297.999 81.9091C297.525 82.0909 296.993 82.1818 296.402 82.1818ZM302.821 73.2727L304.912 76.8409L307.003 73.2727H308.548L305.73 77.6364L308.548 82H307.003L304.912 78.6136L302.821 82H301.276L304.048 77.6364L301.276 73.2727H302.821ZM314.257 73.2727V74.4091H309.734V73.2727H314.257ZM311.053 71.1818H312.393V79.5C312.393 79.8788 312.448 80.1629 312.558 80.3523C312.672 80.5379 312.816 80.6629 312.99 80.7273C313.168 80.7879 313.356 80.8182 313.553 80.8182C313.7 80.8182 313.821 80.8106 313.916 80.7955C314.011 80.7765 314.087 80.7614 314.143 80.75L314.416 81.9545C314.325 81.9886 314.198 82.0227 314.036 82.0568C313.873 82.0947 313.666 82.1136 313.416 82.1136C313.037 82.1136 312.666 82.0322 312.303 81.8693C311.943 81.7064 311.643 81.4583 311.405 81.125C311.17 80.7917 311.053 80.3712 311.053 79.8636V71.1818ZM317.251 82.0909C316.971 82.0909 316.731 81.9905 316.53 81.7898C316.329 81.589 316.229 81.3485 316.229 81.0682C316.229 80.7879 316.329 80.5473 316.53 80.3466C316.731 80.1458 316.971 80.0455 317.251 80.0455C317.532 80.0455 317.772 80.1458 317.973 80.3466C318.174 80.5473 318.274 80.7879 318.274 81.0682C318.274 81.2538 318.227 81.4242 318.132 81.5795C318.041 81.7348 317.918 81.8598 317.763 81.9545C317.611 82.0455 317.441 82.0909 317.251 82.0909Z" fill="#101828"/>
<path d="M44.7614 99.3636H46.5227V107.017C46.5227 107.831 46.3314 108.553 45.9489 109.182C45.5663 109.807 45.0284 110.299 44.3352 110.659C43.642 111.015 42.8295 111.193 41.8977 111.193C40.9697 111.193 40.1591 111.015 39.4659 110.659C38.7727 110.299 38.2348 109.807 37.8523 109.182C37.4697 108.553 37.2784 107.831 37.2784 107.017V99.3636H39.0341V106.875C39.0341 107.402 39.1496 107.869 39.3807 108.278C39.6155 108.688 39.947 109.009 40.375 109.244C40.803 109.475 41.3106 109.591 41.8977 109.591C42.4886 109.591 42.9981 109.475 43.4261 109.244C43.858 109.009 44.1875 108.688 44.4148 108.278C44.6458 107.869 44.7614 107.402 44.7614 106.875V99.3636ZM49.2589 114.273V102.273H50.918V103.688H51.0601C51.1585 103.506 51.3006 103.295 51.4862 103.057C51.6718 102.818 51.9294 102.61 52.2589 102.432C52.5885 102.25 53.0241 102.159 53.5657 102.159C54.2703 102.159 54.8991 102.337 55.4521 102.693C56.0051 103.049 56.4388 103.562 56.7532 104.233C57.0714 104.903 57.2305 105.71 57.2305 106.653C57.2305 107.597 57.0733 108.405 56.7589 109.08C56.4445 109.75 56.0127 110.267 55.4635 110.631C54.9142 110.991 54.2873 111.17 53.5828 111.17C53.0525 111.17 52.6188 111.081 52.2816 110.903C51.9483 110.725 51.687 110.517 51.4976 110.278C51.3082 110.04 51.1623 109.828 51.0601 109.642H50.9578V114.273H49.2589ZM50.9237 106.636C50.9237 107.25 51.0127 107.788 51.1907 108.25C51.3688 108.712 51.6263 109.074 51.9635 109.335C52.3006 109.593 52.7135 109.722 53.2021 109.722C53.7097 109.722 54.1339 109.587 54.4748 109.318C54.8157 109.045 55.0733 108.676 55.2476 108.21C55.4256 107.744 55.5146 107.22 55.5146 106.636C55.5146 106.061 55.4275 105.544 55.2532 105.085C55.0828 104.627 54.8252 104.265 54.4805 104C54.1396 103.735 53.7135 103.602 53.2021 103.602C52.7097 103.602 52.293 103.729 51.9521 103.983C51.615 104.237 51.3593 104.591 51.1851 105.045C51.0108 105.5 50.9237 106.03 50.9237 106.636ZM63.113 114.455C62.4198 114.455 61.8232 114.364 61.3232 114.182C60.827 114 60.4217 113.759 60.1073 113.46C59.7929 113.161 59.5581 112.833 59.4028 112.477L60.863 111.875C60.9653 112.042 61.1016 112.218 61.2721 112.403C61.4463 112.593 61.6812 112.754 61.9766 112.886C62.2759 113.019 62.6604 113.085 63.1301 113.085C63.774 113.085 64.3062 112.928 64.7266 112.614C65.1471 112.303 65.3573 111.807 65.3573 111.125V109.409H65.2494C65.1471 109.595 64.9994 109.801 64.8062 110.028C64.6168 110.256 64.3554 110.453 64.0221 110.619C63.6888 110.786 63.2551 110.869 62.721 110.869C62.0316 110.869 61.4104 110.708 60.8573 110.386C60.3081 110.061 59.8725 109.581 59.5505 108.949C59.2323 108.312 59.0732 107.53 59.0732 106.602C59.0732 105.674 59.2304 104.879 59.5448 104.216C59.863 103.553 60.2986 103.045 60.8516 102.693C61.4047 102.337 62.0316 102.159 62.7323 102.159C63.274 102.159 63.7115 102.25 64.0448 102.432C64.3782 102.61 64.6376 102.818 64.8232 103.057C65.0126 103.295 65.1585 103.506 65.2607 103.688H65.3857V102.273H67.0505V111.193C67.0505 111.943 66.8763 112.559 66.5278 113.04C66.1793 113.521 65.7077 113.877 65.113 114.108C64.5221 114.339 63.8554 114.455 63.113 114.455ZM63.096 109.46C63.5846 109.46 63.9975 109.347 64.3346 109.119C64.6755 108.888 64.9331 108.559 65.1073 108.131C65.2854 107.699 65.3744 107.182 65.3744 106.58C65.3744 105.992 65.2873 105.475 65.113 105.028C64.9388 104.581 64.6831 104.233 64.346 103.983C64.0088 103.729 63.5922 103.602 63.096 103.602C62.5846 103.602 62.1585 103.735 61.8176 104C61.4766 104.261 61.2191 104.617 61.0448 105.068C60.8744 105.519 60.7891 106.023 60.7891 106.58C60.7891 107.152 60.8763 107.653 61.0505 108.085C61.2248 108.517 61.4823 108.854 61.8232 109.097C62.1679 109.339 62.5922 109.46 63.096 109.46ZM69.6489 111V102.273H71.291V103.659H71.3819C71.541 103.189 71.8213 102.82 72.2228 102.551C72.6281 102.278 73.0864 102.142 73.5978 102.142C73.7038 102.142 73.8288 102.146 73.9728 102.153C74.1205 102.161 74.236 102.17 74.3194 102.182V103.807C74.2512 103.788 74.13 103.767 73.9557 103.744C73.7815 103.718 73.6073 103.705 73.433 103.705C73.0315 103.705 72.6735 103.79 72.3591 103.96C72.0485 104.127 71.8023 104.36 71.6205 104.659C71.4387 104.955 71.3478 105.292 71.3478 105.67V111H69.6489ZM78.5712 111.193C78.0182 111.193 77.5182 111.091 77.0712 110.886C76.6242 110.678 76.2701 110.377 76.0087 109.983C75.7511 109.589 75.6223 109.106 75.6223 108.534C75.6223 108.042 75.717 107.636 75.9064 107.318C76.0958 107 76.3515 106.748 76.6735 106.562C76.9954 106.377 77.3553 106.237 77.753 106.142C78.1507 106.047 78.556 105.975 78.9689 105.926C79.4916 105.866 79.9159 105.816 80.2416 105.778C80.5674 105.737 80.8041 105.67 80.9519 105.58C81.0996 105.489 81.1735 105.341 81.1735 105.136V105.097C81.1735 104.6 81.0333 104.216 80.753 103.943C80.4765 103.67 80.0636 103.534 79.5144 103.534C78.9424 103.534 78.4916 103.661 78.1621 103.915C77.8363 104.165 77.611 104.443 77.486 104.75L75.8894 104.386C76.0788 103.856 76.3553 103.428 76.7189 103.102C77.0863 102.773 77.5087 102.534 77.986 102.386C78.4632 102.235 78.9651 102.159 79.4916 102.159C79.8401 102.159 80.2094 102.201 80.5996 102.284C80.9935 102.364 81.361 102.511 81.7019 102.727C82.0466 102.943 82.3288 103.252 82.5485 103.653C82.7682 104.051 82.878 104.568 82.878 105.205V111H81.2189V109.807H81.1507C81.0409 110.027 80.8761 110.242 80.6564 110.455C80.4367 110.667 80.1545 110.843 79.8098 110.983C79.4651 111.123 79.0523 111.193 78.5712 111.193ZM78.9405 109.83C79.4102 109.83 79.8117 109.737 80.1451 109.551C80.4822 109.366 80.7379 109.123 80.9121 108.824C81.0901 108.521 81.1791 108.197 81.1791 107.852V106.727C81.1185 106.788 81.0011 106.845 80.8269 106.898C80.6564 106.947 80.4613 106.991 80.2416 107.028C80.0219 107.062 79.8079 107.095 79.5996 107.125C79.3913 107.152 79.217 107.174 79.0769 107.193C78.7473 107.235 78.4462 107.305 78.1735 107.403C77.9045 107.502 77.6886 107.644 77.5257 107.83C77.3666 108.011 77.2871 108.254 77.2871 108.557C77.2871 108.977 77.4424 109.295 77.753 109.511C78.0636 109.723 78.4594 109.83 78.9405 109.83ZM88.7278 111.17C88.0233 111.17 87.3945 110.991 86.8415 110.631C86.2922 110.267 85.8604 109.75 85.546 109.08C85.2354 108.405 85.0801 107.597 85.0801 106.653C85.0801 105.71 85.2373 104.903 85.5517 104.233C85.8699 103.562 86.3055 103.049 86.8585 102.693C87.4116 102.337 88.0384 102.159 88.7392 102.159C89.2809 102.159 89.7165 102.25 90.046 102.432C90.3794 102.61 90.6369 102.818 90.8187 103.057C91.0044 103.295 91.1483 103.506 91.2506 103.688H91.3528V99.3636H93.0517V111H91.3926V109.642H91.2506C91.1483 109.828 91.0006 110.04 90.8074 110.278C90.618 110.517 90.3566 110.725 90.0233 110.903C89.69 111.081 89.2581 111.17 88.7278 111.17ZM89.1028 109.722C89.5915 109.722 90.0044 109.593 90.3415 109.335C90.6824 109.074 90.94 108.712 91.1142 108.25C91.2922 107.788 91.3812 107.25 91.3812 106.636C91.3812 106.03 91.2941 105.5 91.1199 105.045C90.9456 104.591 90.69 104.237 90.3528 103.983C90.0157 103.729 89.5991 103.602 89.1028 103.602C88.5915 103.602 88.1653 103.735 87.8244 104C87.4835 104.265 87.2259 104.627 87.0517 105.085C86.8812 105.544 86.796 106.061 86.796 106.636C86.796 107.22 86.8831 107.744 87.0574 108.21C87.2316 108.676 87.4892 109.045 87.8301 109.318C88.1748 109.587 88.5991 109.722 89.1028 109.722ZM99.5578 111.176C98.6979 111.176 97.9574 110.992 97.3362 110.625C96.7188 110.254 96.2415 109.733 95.9044 109.062C95.571 108.388 95.4044 107.598 95.4044 106.693C95.4044 105.799 95.571 105.011 95.9044 104.33C96.2415 103.648 96.7112 103.116 97.3135 102.733C97.9195 102.35 98.6279 102.159 99.4385 102.159C99.9309 102.159 100.408 102.241 100.87 102.403C101.332 102.566 101.747 102.822 102.115 103.17C102.482 103.519 102.772 103.972 102.984 104.528C103.196 105.081 103.302 105.754 103.302 106.545V107.148H96.3646V105.875H101.637C101.637 105.428 101.546 105.032 101.365 104.688C101.183 104.339 100.927 104.064 100.598 103.864C100.272 103.663 99.8892 103.562 99.4498 103.562C98.9726 103.562 98.5559 103.68 98.1998 103.915C97.8476 104.146 97.5748 104.449 97.3816 104.824C97.1923 105.195 97.0976 105.598 97.0976 106.034V107.028C97.0976 107.612 97.1998 108.108 97.4044 108.517C97.6127 108.926 97.9025 109.239 98.2737 109.455C98.6449 109.667 99.0786 109.773 99.5748 109.773C99.8968 109.773 100.19 109.727 100.456 109.636C100.721 109.542 100.95 109.402 101.143 109.216C101.336 109.03 101.484 108.801 101.586 108.528L103.194 108.818C103.065 109.292 102.834 109.706 102.501 110.062C102.171 110.415 101.757 110.689 101.257 110.886C100.76 111.08 100.194 111.176 99.5578 111.176Z" fill="#101828"/>
<path d="M36 115H104.052V116.091H36V115Z" fill="#101828"/>
<path d="M129.761 99.3636H131.523V107.017C131.523 107.831 131.331 108.553 130.949 109.182C130.566 109.807 130.028 110.299 129.335 110.659C128.642 111.015 127.83 111.193 126.898 111.193C125.97 111.193 125.159 111.015 124.466 110.659C123.773 110.299 123.235 109.807 122.852 109.182C122.47 108.553 122.278 107.831 122.278 107.017V99.3636H124.034V106.875C124.034 107.402 124.15 107.869 124.381 108.278C124.616 108.688 124.947 109.009 125.375 109.244C125.803 109.475 126.311 109.591 126.898 109.591C127.489 109.591 127.998 109.475 128.426 109.244C128.858 109.009 129.188 108.688 129.415 108.278C129.646 107.869 129.761 107.402 129.761 106.875V99.3636ZM134.259 114.273V102.273H135.918V103.688H136.06C136.159 103.506 136.301 103.295 136.486 103.057C136.672 102.818 136.929 102.61 137.259 102.432C137.588 102.25 138.024 102.159 138.566 102.159C139.27 102.159 139.899 102.337 140.452 102.693C141.005 103.049 141.439 103.562 141.753 104.233C142.071 104.903 142.231 105.71 142.231 106.653C142.231 107.597 142.073 108.405 141.759 109.08C141.445 109.75 141.013 110.267 140.463 110.631C139.914 110.991 139.287 111.17 138.583 111.17C138.052 111.17 137.619 111.081 137.282 110.903C136.948 110.725 136.687 110.517 136.498 110.278C136.308 110.04 136.162 109.828 136.06 109.642H135.958V114.273H134.259ZM135.924 106.636C135.924 107.25 136.013 107.788 136.191 108.25C136.369 108.712 136.626 109.074 136.963 109.335C137.301 109.593 137.713 109.722 138.202 109.722C138.71 109.722 139.134 109.587 139.475 109.318C139.816 109.045 140.073 108.676 140.248 108.21C140.426 107.744 140.515 107.22 140.515 106.636C140.515 106.061 140.427 105.544 140.253 105.085C140.083 104.627 139.825 104.265 139.481 104C139.14 103.735 138.713 103.602 138.202 103.602C137.71 103.602 137.293 103.729 136.952 103.983C136.615 104.237 136.359 104.591 136.185 105.045C136.011 105.5 135.924 106.03 135.924 106.636ZM148.113 114.455C147.42 114.455 146.823 114.364 146.323 114.182C145.827 114 145.422 113.759 145.107 113.46C144.793 113.161 144.558 112.833 144.403 112.477L145.863 111.875C145.965 112.042 146.102 112.218 146.272 112.403C146.446 112.593 146.681 112.754 146.977 112.886C147.276 113.019 147.66 113.085 148.13 113.085C148.774 113.085 149.306 112.928 149.727 112.614C150.147 112.303 150.357 111.807 150.357 111.125V109.409H150.249C150.147 109.595 149.999 109.801 149.806 110.028C149.617 110.256 149.355 110.453 149.022 110.619C148.689 110.786 148.255 110.869 147.721 110.869C147.032 110.869 146.41 110.708 145.857 110.386C145.308 110.061 144.872 109.581 144.551 108.949C144.232 108.312 144.073 107.53 144.073 106.602C144.073 105.674 144.23 104.879 144.545 104.216C144.863 103.553 145.299 103.045 145.852 102.693C146.405 102.337 147.032 102.159 147.732 102.159C148.274 102.159 148.711 102.25 149.045 102.432C149.378 102.61 149.638 102.818 149.823 103.057C150.013 103.295 150.158 103.506 150.261 103.688H150.386V102.273H152.051V111.193C152.051 111.943 151.876 112.559 151.528 113.04C151.179 113.521 150.708 113.877 150.113 114.108C149.522 114.339 148.855 114.455 148.113 114.455ZM148.096 109.46C148.585 109.46 148.997 109.347 149.335 109.119C149.676 108.888 149.933 108.559 150.107 108.131C150.285 107.699 150.374 107.182 150.374 106.58C150.374 105.992 150.287 105.475 150.113 105.028C149.939 104.581 149.683 104.233 149.346 103.983C149.009 103.729 148.592 103.602 148.096 103.602C147.585 103.602 147.158 103.735 146.818 104C146.477 104.261 146.219 104.617 146.045 105.068C145.874 105.519 145.789 106.023 145.789 106.58C145.789 107.152 145.876 107.653 146.051 108.085C146.225 108.517 146.482 108.854 146.823 109.097C147.168 109.339 147.592 109.46 148.096 109.46ZM154.649 111V102.273H156.291V103.659H156.382C156.541 103.189 156.821 102.82 157.223 102.551C157.628 102.278 158.086 102.142 158.598 102.142C158.704 102.142 158.829 102.146 158.973 102.153C159.121 102.161 159.236 102.17 159.319 102.182V103.807C159.251 103.788 159.13 103.767 158.956 103.744C158.781 103.718 158.607 103.705 158.433 103.705C158.031 103.705 157.674 103.79 157.359 103.96C157.049 104.127 156.802 104.36 156.621 104.659C156.439 104.955 156.348 105.292 156.348 105.67V111H154.649ZM163.571 111.193C163.018 111.193 162.518 111.091 162.071 110.886C161.624 110.678 161.27 110.377 161.009 109.983C160.751 109.589 160.622 109.106 160.622 108.534C160.622 108.042 160.717 107.636 160.906 107.318C161.096 107 161.351 106.748 161.673 106.562C161.995 106.377 162.355 106.237 162.753 106.142C163.151 106.047 163.556 105.975 163.969 105.926C164.492 105.866 164.916 105.816 165.242 105.778C165.567 105.737 165.804 105.67 165.952 105.58C166.1 105.489 166.173 105.341 166.173 105.136V105.097C166.173 104.6 166.033 104.216 165.753 103.943C165.476 103.67 165.064 103.534 164.514 103.534C163.942 103.534 163.492 103.661 163.162 103.915C162.836 104.165 162.611 104.443 162.486 104.75L160.889 104.386C161.079 103.856 161.355 103.428 161.719 103.102C162.086 102.773 162.509 102.534 162.986 102.386C163.463 102.235 163.965 102.159 164.492 102.159C164.84 102.159 165.209 102.201 165.6 102.284C165.994 102.364 166.361 102.511 166.702 102.727C167.047 102.943 167.329 103.252 167.548 103.653C167.768 104.051 167.878 104.568 167.878 105.205V111H166.219V109.807H166.151C166.041 110.027 165.876 110.242 165.656 110.455C165.437 110.667 165.155 110.843 164.81 110.983C164.465 111.123 164.052 111.193 163.571 111.193ZM163.941 109.83C164.41 109.83 164.812 109.737 165.145 109.551C165.482 109.366 165.738 109.123 165.912 108.824C166.09 108.521 166.179 108.197 166.179 107.852V106.727C166.119 106.788 166.001 106.845 165.827 106.898C165.656 106.947 165.461 106.991 165.242 107.028C165.022 107.062 164.808 107.095 164.6 107.125C164.391 107.152 164.217 107.174 164.077 107.193C163.747 107.235 163.446 107.305 163.173 107.403C162.905 107.502 162.689 107.644 162.526 107.83C162.367 108.011 162.287 108.254 162.287 108.557C162.287 108.977 162.442 109.295 162.753 109.511C163.064 109.723 163.459 109.83 163.941 109.83ZM173.728 111.17C173.023 111.17 172.395 110.991 171.841 110.631C171.292 110.267 170.86 109.75 170.546 109.08C170.235 108.405 170.08 107.597 170.08 106.653C170.08 105.71 170.237 104.903 170.552 104.233C170.87 103.562 171.305 103.049 171.859 102.693C172.412 102.337 173.038 102.159 173.739 102.159C174.281 102.159 174.716 102.25 175.046 102.432C175.379 102.61 175.637 102.818 175.819 103.057C176.004 103.295 176.148 103.506 176.251 103.688H176.353V99.3636H178.052V111H176.393V109.642H176.251C176.148 109.828 176.001 110.04 175.807 110.278C175.618 110.517 175.357 110.725 175.023 110.903C174.69 111.081 174.258 111.17 173.728 111.17ZM174.103 109.722C174.591 109.722 175.004 109.593 175.341 109.335C175.682 109.074 175.94 108.712 176.114 108.25C176.292 107.788 176.381 107.25 176.381 106.636C176.381 106.03 176.294 105.5 176.12 105.045C175.946 104.591 175.69 104.237 175.353 103.983C175.016 103.729 174.599 103.602 174.103 103.602C173.591 103.602 173.165 103.735 172.824 104C172.484 104.265 172.226 104.627 172.052 105.085C171.881 105.544 171.796 106.061 171.796 106.636C171.796 107.22 171.883 107.744 172.057 108.21C172.232 108.676 172.489 109.045 172.83 109.318C173.175 109.587 173.599 109.722 174.103 109.722ZM184.558 111.176C183.698 111.176 182.957 110.992 182.336 110.625C181.719 110.254 181.241 109.733 180.904 109.062C180.571 108.388 180.404 107.598 180.404 106.693C180.404 105.799 180.571 105.011 180.904 104.33C181.241 103.648 181.711 103.116 182.313 102.733C182.92 102.35 183.628 102.159 184.438 102.159C184.931 102.159 185.408 102.241 185.87 102.403C186.332 102.566 186.747 102.822 187.115 103.17C187.482 103.519 187.772 103.972 187.984 104.528C188.196 105.081 188.302 105.754 188.302 106.545V107.148H181.365V105.875H186.637C186.637 105.428 186.546 105.032 186.365 104.688C186.183 104.339 185.927 104.064 185.598 103.864C185.272 103.663 184.889 103.562 184.45 103.562C183.973 103.562 183.556 103.68 183.2 103.915C182.848 104.146 182.575 104.449 182.382 104.824C182.192 105.195 182.098 105.598 182.098 106.034V107.028C182.098 107.612 182.2 108.108 182.404 108.517C182.613 108.926 182.902 109.239 183.274 109.455C183.645 109.667 184.079 109.773 184.575 109.773C184.897 109.773 185.19 109.727 185.456 109.636C185.721 109.542 185.95 109.402 186.143 109.216C186.336 109.03 186.484 108.801 186.586 108.528L188.194 108.818C188.065 109.292 187.834 109.706 187.501 110.062C187.171 110.415 186.757 110.689 186.257 110.886C185.76 111.08 185.194 111.176 184.558 111.176Z" fill="#101828"/>
<path d="M121 115H189.052V116.091H121V115Z" fill="#101828"/>
<path d="M353.761 14.3636H355.523V22.017C355.523 22.8314 355.331 23.553 354.949 24.1818C354.566 24.8068 354.028 25.2992 353.335 25.6591C352.642 26.0152 351.83 26.1932 350.898 26.1932C349.97 26.1932 349.159 26.0152 348.466 25.6591C347.773 25.2992 347.235 24.8068 346.852 24.1818C346.47 23.553 346.278 22.8314 346.278 22.017V14.3636H348.034V21.875C348.034 22.4015 348.15 22.8693 348.381 23.2784C348.616 23.6875 348.947 24.0095 349.375 24.2443C349.803 24.4754 350.311 24.5909 350.898 24.5909C351.489 24.5909 351.998 24.4754 352.426 24.2443C352.858 24.0095 353.188 23.6875 353.415 23.2784C353.646 22.8693 353.761 22.4015 353.761 21.875V14.3636ZM358.259 29.2727V17.2727H359.918V18.6875H360.06C360.159 18.5057 360.301 18.2955 360.486 18.0568C360.672 17.8182 360.929 17.6098 361.259 17.4318C361.588 17.25 362.024 17.1591 362.566 17.1591C363.27 17.1591 363.899 17.3371 364.452 17.6932C365.005 18.0492 365.439 18.5625 365.753 19.233C366.071 19.9034 366.231 20.7102 366.231 21.6534C366.231 22.5966 366.073 23.4053 365.759 24.0795C365.445 24.75 365.013 25.267 364.463 25.6307C363.914 25.9905 363.287 26.1705 362.583 26.1705C362.052 26.1705 361.619 26.0814 361.282 25.9034C360.948 25.7254 360.687 25.517 360.498 25.2784C360.308 25.0398 360.162 24.8277 360.06 24.642H359.958V29.2727H358.259ZM359.924 21.6364C359.924 22.25 360.013 22.7879 360.191 23.25C360.369 23.7121 360.626 24.0739 360.963 24.3352C361.301 24.5928 361.713 24.7216 362.202 24.7216C362.71 24.7216 363.134 24.5871 363.475 24.3182C363.816 24.0455 364.073 23.6761 364.248 23.2102C364.426 22.7443 364.515 22.2197 364.515 21.6364C364.515 21.0606 364.427 20.5436 364.253 20.0852C364.083 19.6269 363.825 19.2652 363.481 19C363.14 18.7348 362.713 18.6023 362.202 18.6023C361.71 18.6023 361.293 18.7292 360.952 18.983C360.615 19.2367 360.359 19.5909 360.185 20.0455C360.011 20.5 359.924 21.0303 359.924 21.6364ZM372.113 29.4545C371.42 29.4545 370.823 29.3636 370.323 29.1818C369.827 29 369.422 28.7595 369.107 28.4602C368.793 28.161 368.558 27.8333 368.403 27.4773L369.863 26.875C369.965 27.0417 370.102 27.2178 370.272 27.4034C370.446 27.5928 370.681 27.7538 370.977 27.8864C371.276 28.0189 371.66 28.0852 372.13 28.0852C372.774 28.0852 373.306 27.928 373.727 27.6136C374.147 27.303 374.357 26.8068 374.357 26.125V24.4091H374.249C374.147 24.5947 373.999 24.8011 373.806 25.0284C373.617 25.2557 373.355 25.4527 373.022 25.6193C372.689 25.786 372.255 25.8693 371.721 25.8693C371.032 25.8693 370.41 25.7083 369.857 25.3864C369.308 25.0606 368.872 24.5814 368.551 23.9489C368.232 23.3125 368.073 22.5303 368.073 21.6023C368.073 20.6742 368.23 19.8788 368.545 19.2159C368.863 18.553 369.299 18.0455 369.852 17.6932C370.405 17.3371 371.032 17.1591 371.732 17.1591C372.274 17.1591 372.711 17.25 373.045 17.4318C373.378 17.6098 373.638 17.8182 373.823 18.0568C374.013 18.2955 374.158 18.5057 374.261 18.6875H374.386V17.2727H376.051V26.1932C376.051 26.9432 375.876 27.5587 375.528 28.0398C375.179 28.5208 374.708 28.8769 374.113 29.108C373.522 29.339 372.855 29.4545 372.113 29.4545ZM372.096 24.4602C372.585 24.4602 372.997 24.3466 373.335 24.1193C373.676 23.8883 373.933 23.5587 374.107 23.1307C374.285 22.6989 374.374 22.1818 374.374 21.5795C374.374 20.9924 374.287 20.4754 374.113 20.0284C373.939 19.5814 373.683 19.233 373.346 18.983C373.009 18.7292 372.592 18.6023 372.096 18.6023C371.585 18.6023 371.158 18.7348 370.818 19C370.477 19.2614 370.219 19.6174 370.045 20.0682C369.874 20.5189 369.789 21.0227 369.789 21.5795C369.789 22.1515 369.876 22.6534 370.051 23.0852C370.225 23.517 370.482 23.8542 370.823 24.0966C371.168 24.339 371.592 24.4602 372.096 24.4602ZM378.649 26V17.2727H380.291V18.6591H380.382C380.541 18.1894 380.821 17.8201 381.223 17.5511C381.628 17.2784 382.086 17.142 382.598 17.142C382.704 17.142 382.829 17.1458 382.973 17.1534C383.121 17.161 383.236 17.1705 383.319 17.1818V18.8068C383.251 18.7879 383.13 18.767 382.956 18.7443C382.781 18.7178 382.607 18.7045 382.433 18.7045C382.031 18.7045 381.674 18.7898 381.359 18.9602C381.049 19.1269 380.802 19.3598 380.621 19.6591C380.439 19.9545 380.348 20.2917 380.348 20.6705V26H378.649ZM387.571 26.1932C387.018 26.1932 386.518 26.0909 386.071 25.8864C385.624 25.678 385.27 25.3769 385.009 24.983C384.751 24.589 384.622 24.1061 384.622 23.5341C384.622 23.0417 384.717 22.6364 384.906 22.3182C385.096 22 385.351 21.7481 385.673 21.5625C385.995 21.3769 386.355 21.2367 386.753 21.142C387.151 21.0473 387.556 20.9754 387.969 20.9261C388.492 20.8655 388.916 20.8163 389.242 20.7784C389.567 20.7367 389.804 20.6705 389.952 20.5795C390.1 20.4886 390.173 20.3409 390.173 20.1364V20.0966C390.173 19.6004 390.033 19.2159 389.753 18.9432C389.476 18.6705 389.064 18.5341 388.514 18.5341C387.942 18.5341 387.492 18.661 387.162 18.9148C386.836 19.1648 386.611 19.4432 386.486 19.75L384.889 19.3864C385.079 18.8561 385.355 18.428 385.719 18.1023C386.086 17.7727 386.509 17.5341 386.986 17.3864C387.463 17.2348 387.965 17.1591 388.492 17.1591C388.84 17.1591 389.209 17.2008 389.6 17.2841C389.994 17.3636 390.361 17.5114 390.702 17.7273C391.047 17.9432 391.329 18.2519 391.548 18.6534C391.768 19.0511 391.878 19.5682 391.878 20.2045V26H390.219V24.8068H390.151C390.041 25.0265 389.876 25.2424 389.656 25.4545C389.437 25.6667 389.155 25.8428 388.81 25.983C388.465 26.1231 388.052 26.1932 387.571 26.1932ZM387.941 24.8295C388.41 24.8295 388.812 24.7367 389.145 24.5511C389.482 24.3655 389.738 24.1231 389.912 23.8239C390.09 23.5208 390.179 23.197 390.179 22.8523V21.7273C390.119 21.7879 390.001 21.8447 389.827 21.8977C389.656 21.947 389.461 21.9905 389.242 22.0284C389.022 22.0625 388.808 22.0947 388.6 22.125C388.391 22.1515 388.217 22.1742 388.077 22.1932C387.747 22.2348 387.446 22.3049 387.173 22.4034C386.905 22.5019 386.689 22.6439 386.526 22.8295C386.367 23.0114 386.287 23.2538 386.287 23.5568C386.287 23.9773 386.442 24.2955 386.753 24.5114C387.064 24.7235 387.459 24.8295 387.941 24.8295ZM397.728 26.1705C397.023 26.1705 396.395 25.9905 395.841 25.6307C395.292 25.267 394.86 24.75 394.546 24.0795C394.235 23.4053 394.08 22.5966 394.08 21.6534C394.08 20.7102 394.237 19.9034 394.552 19.233C394.87 18.5625 395.305 18.0492 395.859 17.6932C396.412 17.3371 397.038 17.1591 397.739 17.1591C398.281 17.1591 398.716 17.25 399.046 17.4318C399.379 17.6098 399.637 17.8182 399.819 18.0568C400.004 18.2955 400.148 18.5057 400.251 18.6875H400.353V14.3636H402.052V26H400.393V24.642H400.251C400.148 24.8277 400.001 25.0398 399.807 25.2784C399.618 25.517 399.357 25.7254 399.023 25.9034C398.69 26.0814 398.258 26.1705 397.728 26.1705ZM398.103 24.7216C398.591 24.7216 399.004 24.5928 399.341 24.3352C399.682 24.0739 399.94 23.7121 400.114 23.25C400.292 22.7879 400.381 22.25 400.381 21.6364C400.381 21.0303 400.294 20.5 400.12 20.0455C399.946 19.5909 399.69 19.2367 399.353 18.983C399.016 18.7292 398.599 18.6023 398.103 18.6023C397.591 18.6023 397.165 18.7348 396.824 19C396.484 19.2652 396.226 19.6269 396.052 20.0852C395.881 20.5436 395.796 21.0606 395.796 21.6364C395.796 22.2197 395.883 22.7443 396.057 23.2102C396.232 23.6761 396.489 24.0455 396.83 24.3182C397.175 24.5871 397.599 24.7216 398.103 24.7216ZM408.558 26.1761C407.698 26.1761 406.957 25.9924 406.336 25.625C405.719 25.2538 405.241 24.733 404.904 24.0625C404.571 23.3883 404.404 22.5985 404.404 21.6932C404.404 20.7992 404.571 20.0114 404.904 19.3295C405.241 18.6477 405.711 18.1155 406.313 17.733C406.92 17.3504 407.628 17.1591 408.438 17.1591C408.931 17.1591 409.408 17.2405 409.87 17.4034C410.332 17.5663 410.747 17.822 411.115 18.1705C411.482 18.5189 411.772 18.9716 411.984 19.5284C412.196 20.0814 412.302 20.7538 412.302 21.5455V22.1477H405.365V20.875H410.637C410.637 20.428 410.546 20.0322 410.365 19.6875C410.183 19.339 409.927 19.0644 409.598 18.8636C409.272 18.6629 408.889 18.5625 408.45 18.5625C407.973 18.5625 407.556 18.6799 407.2 18.9148C406.848 19.1458 406.575 19.4489 406.382 19.8239C406.192 20.1951 406.098 20.5985 406.098 21.0341V22.0284C406.098 22.6117 406.2 23.108 406.404 23.517C406.613 23.9261 406.902 24.2386 407.274 24.4545C407.645 24.6667 408.079 24.7727 408.575 24.7727C408.897 24.7727 409.19 24.7273 409.456 24.6364C409.721 24.5417 409.95 24.4015 410.143 24.2159C410.336 24.0303 410.484 23.8011 410.586 23.5284L412.194 23.8182C412.065 24.2917 411.834 24.7064 411.501 25.0625C411.171 25.4148 410.757 25.6894 410.257 25.8864C409.76 26.0795 409.194 26.1761 408.558 26.1761Z" fill="#101828"/>
<path d="M345 30H413.052V31.0909H345V30Z" fill="#101828"/>
<path fill-rule="evenodd" clip-rule="evenodd" d="M434.058 10.0581C434.302 9.81398 434.698 9.81398 434.942 10.0581L439.942 15.0581C440.186 15.3021 440.186 15.6979 439.942 15.9419L434.942 20.9419C434.698 21.186 434.302 21.186 434.058 20.9419C433.814 20.6979 433.814 20.3021 434.058 20.0581L437.991 16.125H429.5C427.084 16.125 425.125 18.0838 425.125 20.5C425.125 22.9162 427.084 24.875 429.5 24.875H432C432.345 24.875 432.625 25.1548 432.625 25.5C432.625 25.8452 432.345 26.125 432 26.125H429.5C426.393 26.125 423.875 23.6066 423.875 20.5C423.875 17.3934 426.393 14.875 429.5 14.875H437.991L434.058 10.9419C433.814 10.6979 433.814 10.3021 434.058 10.0581Z" fill="#101828"/>
<path fill-rule="evenodd" clip-rule="evenodd" d="M454.558 12.5581C454.802 12.314 455.198 12.314 455.442 12.5581L460 17.1161L464.558 12.5581C464.802 12.314 465.198 12.314 465.442 12.5581C465.686 12.8021 465.686 13.1979 465.442 13.4419L460.884 18L465.442 22.5581C465.686 22.8021 465.686 23.1979 465.442 23.4419C465.198 23.686 464.802 23.686 464.558 23.4419L460 18.8839L455.442 23.4419C455.198 23.686 454.802 23.686 454.558 23.4419C454.314 23.1979 454.314 22.8021 454.558 22.5581L459.116 18L454.558 13.4419C454.314 13.1979 454.314 12.8021 454.558 12.5581Z" fill="#101828"/>
</svg>
