<svg width="40" height="40" viewBox="0 0 40 40" fill="none" xmlns="http://www.w3.org/2000/svg">
<path d="M0 12C0 5.37258 5.37258 0 12 0H28C34.6274 0 40 5.37258 40 12V28C40 34.6274 34.6274 40 28 40H12C5.37258 40 0 34.6274 0 28V12Z" fill="#FB2C36"/>
<path d="M28.25 15.5L27.6246 26.1321C27.5546 27.3214 26.5698 28.25 25.3785 28.25H14.6215C13.4302 28.25 12.4454 27.3214 12.3754 26.1321L11.75 15.5M17.9998 19.25H21.9998M11.375 15.5H28.625C29.2463 15.5 29.75 14.9963 29.75 14.375V12.875C29.75 12.2537 29.2463 11.75 28.625 11.75H11.375C10.7537 11.75 10.25 12.2537 10.25 12.875V14.375C10.25 14.9963 10.7537 15.5 11.375 15.5Z" stroke="#030713" stroke-width="2" stroke-linecap="round" stroke-linejoin="round"/>
</svg>
