<svg width="381" height="806" viewBox="0 0 381 806" fill="none" xmlns="http://www.w3.org/2000/svg">
<g filter="url(#filter0_dd_23_130)">
<path d="M3 18C3 9.16343 10.1634 2 19 2H362C370.837 2 378 9.16344 378 18V786C378 794.837 370.837 802 362 802H19C10.1634 802 3 794.837 3 786V18Z" fill="#EFF6FF"/>
<path d="M19 2.5H362C370.56 2.5 377.5 9.43959 377.5 18V786C377.5 794.56 370.56 801.5 362 801.5H19C10.4396 801.5 3.5 794.56 3.5 786V18C3.5 9.43959 10.4396 2.5 19 2.5Z" stroke="#99A1AF"/>
</g>
<defs>
<filter id="filter0_dd_23_130" x="0" y="0" width="381" height="806" filterUnits="userSpaceOnUse" color-interpolation-filters="sRGB">
<feFlood flood-opacity="0" result="BackgroundImageFix"/>
<feColorMatrix in="SourceAlpha" type="matrix" values="0 0 0 0 0 0 0 0 0 0 0 0 0 0 0 0 0 0 127 0" result="hardAlpha"/>
<feOffset dy="1"/>
<feGaussianBlur stdDeviation="1"/>
<feComposite in2="hardAlpha" operator="out"/>
<feColorMatrix type="matrix" values="0 0 0 0 0 0 0 0 0 0 0 0 0 0 0 0 0 0 0.06 0"/>
<feBlend mode="normal" in2="BackgroundImageFix" result="effect1_dropShadow_23_130"/>
<feColorMatrix in="SourceAlpha" type="matrix" values="0 0 0 0 0 0 0 0 0 0 0 0 0 0 0 0 0 0 127 0" result="hardAlpha"/>
<feOffset dy="1"/>
<feGaussianBlur stdDeviation="1.5"/>
<feComposite in2="hardAlpha" operator="out"/>
<feColorMatrix type="matrix" values="0 0 0 0 0 0 0 0 0 0 0 0 0 0 0 0 0 0 0.1 0"/>
<feBlend mode="normal" in2="effect1_dropShadow_23_130" result="effect2_dropShadow_23_130"/>
<feBlend mode="normal" in="SourceGraphic" in2="effect2_dropShadow_23_130" result="shape"/>
</filter>
</defs>
</svg>
