<svg width="48" height="48" viewBox="0 0 48 48" fill="none" xmlns="http://www.w3.org/2000/svg">
<rect width="48" height="48" rx="24" fill="black"/>
<g clip-path="url(#clip0_56_1846)">
<path d="M32.0216 36H15.9784C13.7812 36 12 34.2188 12 32.0216V15.9784C12 13.7812 13.7812 12 15.9784 12H32.0216C34.2188 12 36 13.7812 36 15.9784V32.0216C36 34.2188 34.2188 36 32.0216 36Z" fill="black"/>
<path d="M24.2837 22.1049C23.035 22.1049 21.9485 22.8073 21.4013 23.8385C20.8539 22.8073 19.7679 22.1049 18.5184 22.1049C17.812 22.1042 17.1246 22.3332 16.5599 22.7575V20.0085C16.5568 19.8376 16.4866 19.6748 16.3645 19.5552C16.2425 19.4355 16.0783 19.3686 15.9073 19.3689C15.5509 19.3689 15.264 19.6533 15.2559 20.0085V25.4218H15.2565C15.2853 27.1992 16.7337 28.6311 18.5184 28.6311C19.7679 28.6311 20.8539 27.928 21.4013 26.8979C21.9485 27.928 23.035 28.6311 24.2837 28.6311C26.0852 28.6311 27.5466 27.1702 27.5466 25.3673C27.5466 23.5654 26.0852 22.1049 24.2837 22.1049ZM18.5184 27.3247C17.4373 27.3247 16.5599 26.4489 16.5599 25.3678C16.5599 24.2871 17.4373 23.4112 18.5184 23.4112C19.5993 23.4112 20.4748 24.2871 20.4748 25.3673C20.4748 26.4487 19.5993 27.3247 18.5184 27.3247ZM24.2837 27.3247C23.2024 27.3247 22.3256 26.4487 22.3256 25.3673C22.3256 24.2871 23.2024 23.4112 24.2837 23.4112C25.3645 23.4112 26.2408 24.2871 26.2408 25.3673C26.2408 26.4487 25.3645 27.3247 24.2837 27.3247Z" fill="white"/>
<path d="M32.6097 27.5386L30.8361 25.3631L32.6119 23.1834C32.8364 22.8959 32.772 22.4944 32.462 22.2811C32.1517 22.0659 31.7164 22.1211 31.4763 22.4001V22.3997L29.9485 24.2721L28.4222 22.3997V22.4001C28.1845 22.1211 27.7464 22.0659 27.437 22.2811C27.1277 22.4946 27.063 22.8959 27.2886 23.1834H27.288L29.0606 25.3631L27.288 27.5386H27.2886C27.063 27.8271 27.1277 28.2273 27.437 28.4415C27.7464 28.6557 28.1845 28.6012 28.4222 28.3218L29.9485 26.452L31.4741 28.3218C31.7145 28.6012 32.1497 28.6557 32.46 28.4415C32.77 28.2273 32.8347 27.8271 32.6097 27.5386Z" fill="white"/>
</g>
<defs>
<clipPath id="clip0_56_1846">
<rect width="24" height="24" fill="white" transform="translate(12 12)"/>
</clipPath>
</defs>
</svg>
