<svg width="40" height="40" viewBox="0 0 40 40" fill="none" xmlns="http://www.w3.org/2000/svg">
<g clip-path="url(#clip0_56_1707)">
<path d="M33.3694 40H6.63063C2.96859 40 0 37.0314 0 33.3694V6.63063C0 2.96859 2.96859 0 6.63063 0H33.3694C37.0314 0 40 2.96859 40 6.63063V33.3694C40 37.0314 37.0314 40 33.3694 40Z" fill="#0061D5"/>
<path d="M20.4717 16.8416C18.3906 16.8416 16.5797 18.0122 15.6676 19.7308C14.7553 18.0122 12.9453 16.8416 10.8628 16.8416C9.68557 16.8403 8.5399 17.2221 7.59873 17.9292V13.3475C7.59348 13.0627 7.47653 12.7913 7.27307 12.5919C7.06961 12.3925 6.79595 12.2811 6.51107 12.2816C5.91701 12.2816 5.43889 12.7555 5.42529 13.3475V22.3697H5.42639C5.47436 25.332 7.88842 27.7184 10.8628 27.7184C12.9453 27.7184 14.7553 26.5467 15.6676 24.8298C16.5797 26.5467 18.3906 27.7184 20.4717 27.7184C23.4742 27.7184 25.9098 25.2838 25.9098 22.2789C25.9098 19.2756 23.4742 16.8416 20.4717 16.8416ZM10.8628 25.5411C9.06107 25.5411 7.59873 24.0816 7.59873 22.2797C7.59873 20.4784 9.06107 19.0188 10.8628 19.0188C12.6644 19.0188 14.1236 20.4784 14.1236 22.2789C14.1236 24.0811 12.6644 25.5411 10.8628 25.5411ZM20.4717 25.5411C18.6695 25.5411 17.2083 24.0811 17.2083 22.2789C17.2083 20.4784 18.6695 19.0188 20.4717 19.0188C22.2731 19.0188 23.7336 20.4784 23.7336 22.2789C23.7336 24.0811 22.2731 25.5411 20.4717 25.5411Z" fill="white"/>
<path d="M34.3482 25.8977L31.3923 22.2719L34.3518 18.6391C34.726 18.1598 34.6187 17.4906 34.1021 17.1352C33.5849 16.7766 32.8593 16.8684 32.4591 17.3334V17.3328L29.9129 20.4534L27.369 17.3328V17.3334C26.9729 16.8684 26.2427 16.7766 25.7271 17.1352C25.2115 17.4909 25.1037 18.1598 25.4798 18.6391H25.4787L28.4331 22.2719L25.4787 25.8977H25.4798C25.1037 26.3784 25.2115 27.0455 25.7271 27.4025C26.2427 27.7595 26.9729 27.6686 27.369 27.203L29.9129 24.0867L32.4555 27.203C32.8562 27.6686 33.5815 27.7595 34.0987 27.4025C34.6154 27.0455 34.7232 26.3784 34.3482 25.8977Z" fill="white"/>
</g>
<defs>
<clipPath id="clip0_56_1707">
<rect width="40" height="40" fill="white"/>
</clipPath>
</defs>
</svg>
