<svg width="40" height="40" viewBox="0 0 40 40" fill="none" xmlns="http://www.w3.org/2000/svg">
<rect width="40" height="40" rx="20" fill="#0061D5"/>
<path d="M20.4722 16.8416C18.3911 16.8416 16.5802 18.0122 15.6681 19.7308C14.7558 18.0122 12.9458 16.8416 10.8633 16.8416C9.68606 16.8403 8.54039 17.2221 7.59922 17.9292V13.3475C7.59397 13.0627 7.47701 12.7913 7.27356 12.5919C7.0701 12.3925 6.79644 12.2811 6.51156 12.2816C5.9175 12.2816 5.43938 12.7555 5.42578 13.3475V22.3697H5.42687C5.47484 25.332 7.88891 27.7184 10.8633 27.7184C12.9458 27.7184 14.7558 26.5467 15.6681 24.8298C16.5802 26.5467 18.3911 27.7184 20.4722 27.7184C23.4747 27.7184 25.9103 25.2838 25.9103 22.2789C25.9103 19.2756 23.4747 16.8416 20.4722 16.8416ZM10.8633 25.5411C9.06156 25.5411 7.59922 24.0816 7.59922 22.2797C7.59922 20.4784 9.06156 19.0188 10.8633 19.0188C12.6648 19.0188 14.1241 20.4784 14.1241 22.2789C14.1241 24.0811 12.6648 25.5411 10.8633 25.5411ZM20.4722 25.5411C18.67 25.5411 17.2088 24.0811 17.2088 22.2789C17.2088 20.4784 18.67 19.0188 20.4722 19.0188C22.2736 19.0188 23.7341 20.4784 23.7341 22.2789C23.7341 24.0811 22.2736 25.5411 20.4722 25.5411Z" fill="white"/>
<path d="M34.3482 25.8977L31.3923 22.2719L34.3518 18.6391C34.726 18.1598 34.6187 17.4906 34.1021 17.1352C33.5849 16.7766 32.8593 16.8684 32.4591 17.3334V17.3328L29.9129 20.4534L27.369 17.3328V17.3334C26.9729 16.8684 26.2427 16.7766 25.7271 17.1352C25.2115 17.4909 25.1037 18.1598 25.4798 18.6391H25.4787L28.4331 22.2719L25.4787 25.8977H25.4798C25.1037 26.3784 25.2115 27.0455 25.7271 27.4025C26.2427 27.7595 26.9729 27.6686 27.369 27.203L29.9129 24.0867L32.4555 27.203C32.8562 27.6686 33.5815 27.7595 34.0987 27.4025C34.6154 27.0455 34.7232 26.3784 34.3482 25.8977Z" fill="white"/>
</svg>
