<svg width="140" height="38" viewBox="0 0 140 38" fill="none" xmlns="http://www.w3.org/2000/svg">
<path d="M127 0.5C133.904 0.5 139.5 6.09644 139.5 13V25C139.5 31.9036 133.904 37.5 127 37.5H13C6.09644 37.5 0.5 31.9036 0.5 25V13C0.5 6.09644 6.09644 0.5 13 0.5H127Z" fill="#F3F4F6"/>
<path d="M127 0.5C133.904 0.5 139.5 6.09644 139.5 13V25C139.5 31.9036 133.904 37.5 127 37.5H13C6.09644 37.5 0.5 31.9036 0.5 25V13C0.5 6.09644 6.09644 0.5 13 0.5H127Z" stroke="#99A1AF"/>
<path d="M33.25 14.5L32.6246 25.1321C32.5546 26.3214 31.5698 27.25 30.3785 27.25H19.6215C18.4302 27.25 17.4454 26.3214 17.3754 25.1321L16.75 14.5M22.9998 18.25H26.9998M16.375 14.5H33.625C34.2463 14.5 34.75 13.9963 34.75 13.375V11.875C34.75 11.2537 34.2463 10.75 33.625 10.75H16.375C15.7537 10.75 15.25 11.2537 15.25 11.875V13.375C15.25 13.9963 15.7537 14.5 16.375 14.5Z" stroke="#101828" stroke-width="2" stroke-linecap="round" stroke-linejoin="round"/>
<path d="M46.1985 24.5V13.5909H50.1935C50.9677 13.5909 51.6087 13.7187 52.1165 13.9744C52.6243 14.2266 53.0043 14.5692 53.2564 15.0025C53.5085 15.4322 53.6346 15.9169 53.6346 16.4567C53.6346 16.9112 53.5511 17.2947 53.3842 17.6072C53.2173 17.9162 52.9936 18.1648 52.7131 18.353C52.4361 18.5376 52.1307 18.6726 51.7969 18.7578V18.8643C52.1591 18.8821 52.5124 18.9993 52.8569 19.2159C53.2049 19.429 53.4925 19.7326 53.7198 20.1268C53.9471 20.521 54.0607 21.0004 54.0607 21.565C54.0607 22.1225 53.9293 22.6232 53.6665 23.0671C53.4073 23.5075 53.006 23.8572 52.4627 24.1165C51.9194 24.3722 51.2251 24.5 50.38 24.5H46.1985ZM47.8445 23.0884H50.2202C51.0085 23.0884 51.5732 22.9357 51.9141 22.6303C52.255 22.3249 52.4254 21.9432 52.4254 21.4851C52.4254 21.1406 52.3384 20.8246 52.1644 20.5369C51.9904 20.2493 51.7418 20.0202 51.4187 19.8498C51.0991 19.6793 50.7191 19.5941 50.2788 19.5941H47.8445V23.0884ZM47.8445 18.3104H50.0497C50.419 18.3104 50.7511 18.2393 51.0458 18.0973C51.3441 17.9553 51.5803 17.7564 51.7543 17.5007C51.9318 17.2415 52.0206 16.9361 52.0206 16.5845C52.0206 16.1335 51.8626 15.7553 51.5465 15.4499C51.2305 15.1445 50.7457 14.9918 50.0923 14.9918H47.8445V18.3104ZM61.388 21.1069V16.3182H62.986V24.5H61.42V23.0831H61.3347C61.1465 23.5199 60.8447 23.8839 60.4292 24.1751C60.0173 24.4627 59.5041 24.6065 58.8898 24.6065C58.3642 24.6065 57.899 24.4911 57.4942 24.2603C57.0929 24.0259 56.7769 23.6797 56.546 23.2216C56.3188 22.7635 56.2051 22.1971 56.2051 21.5224V16.3182H57.7978V21.3306C57.7978 21.8881 57.9523 22.332 58.2612 22.6623C58.5702 22.9925 58.9715 23.1577 59.4651 23.1577C59.7634 23.1577 60.0599 23.0831 60.3546 22.9339C60.6529 22.7848 60.8997 22.5593 61.095 22.2575C61.2939 21.9556 61.3916 21.5721 61.388 21.1069ZM69.2653 16.3182V17.5966H64.7962V16.3182H69.2653ZM65.9947 14.358H67.5874V22.0977C67.5874 22.4066 67.6335 22.6392 67.7258 22.7955C67.8182 22.9482 67.9371 23.0529 68.0827 23.1097C68.2319 23.163 68.3935 23.1896 68.5675 23.1896C68.6953 23.1896 68.8072 23.1808 68.903 23.163C68.9989 23.1452 69.0735 23.131 69.1268 23.1204L69.4144 24.4361C69.3221 24.4716 69.1907 24.5071 69.0202 24.5426C68.8498 24.5817 68.6367 24.603 68.381 24.6065C67.962 24.6136 67.5714 24.5391 67.2092 24.3828C66.8469 24.2266 66.554 23.9851 66.3303 23.6584C66.1065 23.3317 65.9947 22.9215 65.9947 22.4279V14.358ZM75.1663 16.3182V17.5966H70.6972V16.3182H75.1663ZM71.8957 14.358H73.4884V22.0977C73.4884 22.4066 73.5346 22.6392 73.6269 22.7955C73.7192 22.9482 73.8382 23.0529 73.9838 23.1097C74.1329 23.163 74.2945 23.1896 74.4685 23.1896C74.5964 23.1896 74.7082 23.1808 74.8041 23.163C74.9 23.1452 74.9746 23.131 75.0278 23.1204L75.3155 24.4361C75.2231 24.4716 75.0917 24.5071 74.9213 24.5426C74.7508 24.5817 74.5378 24.603 74.2821 24.6065C73.8631 24.6136 73.4724 24.5391 73.1102 24.3828C72.748 24.2266 72.455 23.9851 72.2313 23.6584C72.0076 23.3317 71.8957 22.9215 71.8957 22.4279V14.358ZM80.6066 24.6651C79.8396 24.6651 79.1702 24.4893 78.5984 24.1378C78.0267 23.7862 77.5828 23.2944 77.2668 22.6623C76.9507 22.0302 76.7927 21.2915 76.7927 20.4464C76.7927 19.5977 76.9507 18.8555 77.2668 18.2198C77.5828 17.5842 78.0267 17.0906 78.5984 16.739C79.1702 16.3874 79.8396 16.2116 80.6066 16.2116C81.3737 16.2116 82.0431 16.3874 82.6148 16.739C83.1865 17.0906 83.6304 17.5842 83.9465 18.2198C84.2625 18.8555 84.4205 19.5977 84.4205 20.4464C84.4205 21.2915 84.2625 22.0302 83.9465 22.6623C83.6304 23.2944 83.1865 23.7862 82.6148 24.1378C82.0431 24.4893 81.3737 24.6651 80.6066 24.6651ZM80.6119 23.3281C81.1091 23.3281 81.521 23.1967 81.8477 22.9339C82.1744 22.6712 82.4159 22.3214 82.5722 21.8846C82.732 21.4478 82.8119 20.9666 82.8119 20.4411C82.8119 19.919 82.732 19.4396 82.5722 19.0028C82.4159 18.5625 82.1744 18.2092 81.8477 17.9428C81.521 17.6765 81.1091 17.5433 80.6119 17.5433C80.1112 17.5433 79.6958 17.6765 79.3655 17.9428C79.0388 18.2092 78.7955 18.5625 78.6357 19.0028C78.4795 19.4396 78.4014 19.919 78.4014 20.4411C78.4014 20.9666 78.4795 21.4478 78.6357 21.8846C78.7955 22.3214 79.0388 22.6712 79.3655 22.9339C79.6958 23.1967 80.1112 23.3281 80.6119 23.3281ZM88.111 19.642V24.5H86.5183V16.3182H88.0471V17.6499H88.1483C88.3365 17.2166 88.6312 16.8686 89.0325 16.6058C89.4374 16.343 89.9469 16.2116 90.5613 16.2116C91.1188 16.2116 91.6071 16.3288 92.0261 16.5632C92.4452 16.794 92.7701 17.1385 93.0009 17.5966C93.2317 18.0547 93.3472 18.6211 93.3472 19.2958V24.5H91.7545V19.4876C91.7545 18.8945 91.6 18.4311 91.291 18.0973C90.9821 17.7599 90.5577 17.5913 90.018 17.5913C89.6486 17.5913 89.3202 17.6712 89.0325 17.831C88.7484 17.9908 88.5229 18.2251 88.356 18.5341C88.1927 18.8395 88.111 19.2088 88.111 19.642Z" fill="#101828"/>
<path d="M123.25 14.5L122.625 25.1321C122.555 26.3214 121.57 27.25 120.378 27.25H109.622C108.43 27.25 107.445 26.3214 107.375 25.1321L106.75 14.5M113 18.25H117M106.375 14.5H123.625C124.246 14.5 124.75 13.9963 124.75 13.375V11.875C124.75 11.2537 124.246 10.75 123.625 10.75H106.375C105.754 10.75 105.25 11.2537 105.25 11.875V13.375C105.25 13.9963 105.754 14.5 106.375 14.5Z" stroke="#101828" stroke-width="2" stroke-linecap="round" stroke-linejoin="round"/>
</svg>
