<svg width="157" height="47" viewBox="0 0 157 47" fill="none" xmlns="http://www.w3.org/2000/svg">
<path d="M4 15.5C4 8.87258 9.37258 3.5 16 3.5H141C147.627 3.5 153 8.87258 153 15.5V31.5C153 38.1274 147.627 43.5 141 43.5H16C9.37258 43.5 4 38.1274 4 31.5V15.5Z" fill="#FEF2F2"/>
<path d="M32 16V31M39.5 23.5L24.5 23.5" stroke="#82171A" stroke-width="2" stroke-linecap="round" stroke-linejoin="round"/>
<path d="M53.2784 29.5V17.8636H57.5398C58.3655 17.8636 59.0492 18 59.5909 18.2727C60.1326 18.5417 60.5379 18.9072 60.8068 19.3693C61.0758 19.8277 61.2102 20.3447 61.2102 20.9205C61.2102 21.4053 61.1212 21.8144 60.9432 22.1477C60.7652 22.4773 60.5265 22.7424 60.2273 22.9432C59.9318 23.1402 59.6061 23.2841 59.25 23.375V23.4886C59.6364 23.5076 60.0133 23.6326 60.3807 23.8636C60.7519 24.0909 61.0587 24.4148 61.3011 24.8352C61.5436 25.2557 61.6648 25.767 61.6648 26.3693C61.6648 26.964 61.5246 27.4981 61.2443 27.9716C60.9678 28.4413 60.5398 28.8144 59.9602 29.0909C59.3807 29.3636 58.6402 29.5 57.7386 29.5H53.2784ZM55.0341 27.9943H57.5682C58.4091 27.9943 59.0114 27.8314 59.375 27.5057C59.7386 27.1799 59.9205 26.7727 59.9205 26.2841C59.9205 25.9167 59.8277 25.5795 59.642 25.2727C59.4564 24.9659 59.1913 24.7216 58.8466 24.5398C58.5057 24.358 58.1004 24.267 57.6307 24.267H55.0341V27.9943ZM55.0341 22.8977H57.3864C57.7803 22.8977 58.1345 22.822 58.4489 22.6705C58.767 22.5189 59.0189 22.3068 59.2045 22.0341C59.3939 21.7576 59.4886 21.4318 59.4886 21.0568C59.4886 20.5758 59.3201 20.1723 58.983 19.8466C58.6458 19.5208 58.1288 19.358 57.4318 19.358H55.0341V22.8977ZM69.4592 25.8807V20.7727H71.1637V29.5H69.4933V27.9886H69.4024C69.2016 28.4545 68.8797 28.8428 68.4365 29.1534C67.9971 29.4602 67.4497 29.6136 66.7944 29.6136C66.2338 29.6136 65.7376 29.4905 65.3058 29.2443C64.8778 28.9943 64.5406 28.625 64.2944 28.1364C64.052 27.6477 63.9308 27.0436 63.9308 26.3239V20.7727H65.6297V26.1193C65.6297 26.714 65.7944 27.1875 66.124 27.5398C66.4535 27.892 66.8816 28.0682 67.4081 28.0682C67.7262 28.0682 68.0425 27.9886 68.3569 27.8295C68.6751 27.6705 68.9384 27.4299 69.1467 27.108C69.3588 26.786 69.463 26.3769 69.4592 25.8807ZM77.8403 20.7727V22.1364H73.0732V20.7727H77.8403ZM74.3516 18.6818H76.0505V26.9375C76.0505 27.267 76.0998 27.5152 76.1982 27.6818C76.2967 27.8447 76.4236 27.9564 76.5789 28.017C76.738 28.0739 76.9104 28.1023 77.096 28.1023C77.2323 28.1023 77.3516 28.0928 77.4539 28.0739C77.5562 28.0549 77.6357 28.0398 77.6926 28.0284L77.9994 29.4318C77.9009 29.4697 77.7607 29.5076 77.5789 29.5455C77.3971 29.5871 77.1698 29.6098 76.8971 29.6136C76.4501 29.6212 76.0335 29.5417 75.6471 29.375C75.2607 29.2083 74.9482 28.9508 74.7096 28.6023C74.471 28.2538 74.3516 27.8163 74.3516 27.2898V18.6818ZM84.1134 20.7727V22.1364H79.3464V20.7727H84.1134ZM80.6248 18.6818H82.3236V26.9375C82.3236 27.267 82.3729 27.5152 82.4714 27.6818C82.5698 27.8447 82.6967 27.9564 82.852 28.017C83.0111 28.0739 83.1835 28.1023 83.3691 28.1023C83.5055 28.1023 83.6248 28.0928 83.727 28.0739C83.8293 28.0549 83.9089 28.0398 83.9657 28.0284L84.2725 29.4318C84.174 29.4697 84.0339 29.5076 83.852 29.5455C83.6702 29.5871 83.443 29.6098 83.1702 29.6136C82.7233 29.6212 82.3066 29.5417 81.9202 29.375C81.5339 29.2083 81.2214 28.9508 80.9827 28.6023C80.7441 28.2538 80.6248 27.8163 80.6248 27.2898V18.6818ZM89.8951 29.6761C89.0769 29.6761 88.3629 29.4886 87.753 29.1136C87.1432 28.7386 86.6697 28.214 86.3326 27.5398C85.9954 26.8655 85.8269 26.0777 85.8269 25.1761C85.8269 24.2708 85.9954 23.4792 86.3326 22.8011C86.6697 22.1231 87.1432 21.5966 87.753 21.2216C88.3629 20.8466 89.0769 20.6591 89.8951 20.6591C90.7132 20.6591 91.4273 20.8466 92.0371 21.2216C92.6469 21.5966 93.1204 22.1231 93.4576 22.8011C93.7947 23.4792 93.9632 24.2708 93.9632 25.1761C93.9632 26.0777 93.7947 26.8655 93.4576 27.5398C93.1204 28.214 92.6469 28.7386 92.0371 29.1136C91.4273 29.4886 90.7132 29.6761 89.8951 29.6761ZM89.9007 28.25C90.431 28.25 90.8704 28.1098 91.2189 27.8295C91.5674 27.5492 91.825 27.1761 91.9916 26.7102C92.1621 26.2443 92.2473 25.7311 92.2473 25.1705C92.2473 24.6136 92.1621 24.1023 91.9916 23.6364C91.825 23.1667 91.5674 22.7898 91.2189 22.5057C90.8704 22.2216 90.431 22.0795 89.9007 22.0795C89.3666 22.0795 88.9235 22.2216 88.5712 22.5057C88.2227 22.7898 87.9632 23.1667 87.7928 23.6364C87.6261 24.1023 87.5428 24.6136 87.5428 25.1705C87.5428 25.7311 87.6261 26.2443 87.7928 26.7102C87.9632 27.1761 88.2227 27.5492 88.5712 27.8295C88.9235 28.1098 89.3666 28.25 89.9007 28.25ZM97.8784 24.3182V29.5H96.1795V20.7727H97.8102V22.1932H97.9182C98.1189 21.7311 98.4333 21.3598 98.8614 21.0795C99.2932 20.7992 99.8367 20.6591 100.492 20.6591C101.087 20.6591 101.608 20.7841 102.055 21.0341C102.502 21.2803 102.848 21.6477 103.094 22.1364C103.341 22.625 103.464 23.2292 103.464 23.9489V29.5H101.765V24.1534C101.765 23.5208 101.6 23.0265 101.27 22.6705C100.941 22.3106 100.488 22.1307 99.9125 22.1307C99.5186 22.1307 99.1682 22.2159 98.8614 22.3864C98.5583 22.5568 98.3178 22.8068 98.1398 23.1364C97.9655 23.4621 97.8784 23.8561 97.8784 24.3182Z" fill="#82171A"/>
<path d="M125 16V31M132.5 23.5L117.5 23.5" stroke="#82171A" stroke-width="2" stroke-linecap="round" stroke-linejoin="round"/>
<path d="M143 1C150.18 1 156 6.8203 156 14V33C156 40.1797 150.18 46 143 46H14C6.8203 46 1 40.1797 1 33V14C1 6.8203 6.8203 1 14 1H143Z" stroke="#E70208" stroke-width="2"/>
</svg>
