<svg width="48" height="48" viewBox="0 0 48 48" fill="none" xmlns="http://www.w3.org/2000/svg">
<rect width="48" height="48" rx="24" fill="black"/>
<g clip-path="url(#clip0_56_1829)">
<path d="M31.2 12H16.8C14.149 12 12 14.149 12 16.8V31.2C12 33.851 14.149 36 16.8 36H31.2C33.851 36 36 33.851 36 31.2V16.8C36 14.149 33.851 12 31.2 12Z" fill="white"/>
<path d="M23.9945 32.1768C23.9945 31.2576 23.9945 30.3408 23.9945 29.4096C23.7713 29.3952 23.5577 29.3856 23.3441 29.3664C22.0577 29.244 20.8985 28.7952 19.8761 28.008C18.4889 26.94 17.6033 25.5408 17.3081 23.8152C16.9193 21.5472 17.5193 19.5504 19.1033 17.8728C20.1353 16.7784 21.4121 16.1088 22.8953 15.8784C24.9233 15.564 26.7569 16.0488 28.3457 17.3568C29.6393 18.4224 30.4457 19.7952 30.7073 21.4512C31.0673 23.7312 30.4433 25.7304 28.8209 27.384C27.2705 28.968 25.6913 30.5232 24.1241 32.0904C24.0905 32.124 24.0713 32.172 24.0449 32.2128C24.0281 32.2008 24.0113 32.1888 23.9945 32.1768ZM23.5625 26.0616C23.5625 25.38 23.5625 24.7056 23.5625 24.024C23.8577 24.024 24.1409 24.024 24.4385 24.024C24.4385 24.7104 24.4385 25.3848 24.4385 26.0592C25.3481 26.0592 26.2457 26.0592 27.1553 26.0592C27.1553 26.0016 27.1553 25.9488 27.1553 25.8984C27.1553 24.1416 27.1601 22.3872 27.1481 20.6304C27.1457 20.3616 27.1913 20.148 27.4169 19.9896C27.4505 19.9656 27.4913 19.9224 27.4913 19.8888C27.4985 19.6776 27.4937 19.4688 27.4937 19.2528C25.1561 19.2528 22.8329 19.2528 20.4953 19.2528C20.4953 19.3656 20.5073 19.476 20.4929 19.5792C20.4593 19.8192 20.5313 20.0088 20.7305 20.1456C20.8265 20.2128 20.8433 20.304 20.8433 20.4144C20.8409 22.2384 20.8409 24.0624 20.8409 25.8864C20.8409 25.9416 20.8409 25.9968 20.8409 26.0568C21.7529 26.0616 22.6481 26.0616 23.5625 26.0616Z" fill="black"/>
<path d="M23.5623 26.0616C22.6479 26.0616 21.7527 26.0616 20.8431 26.0616C20.8431 25.9992 20.8431 25.9464 20.8431 25.8912C20.8431 24.0672 20.8431 22.2432 20.8455 20.4192C20.8455 20.3064 20.8287 20.2152 20.7327 20.1504C20.5335 20.0136 20.4591 19.824 20.4951 19.584C20.5095 19.4784 20.4975 19.3704 20.4975 19.2576C22.8351 19.2576 25.1583 19.2576 27.4959 19.2576C27.4959 19.4712 27.4983 19.6824 27.4935 19.8936C27.4935 19.9296 27.4527 19.9704 27.4191 19.9944C27.1959 20.1528 27.1503 20.3664 27.1503 20.6352C27.1623 22.392 27.1575 24.1464 27.1575 25.9032C27.1575 25.9536 27.1575 26.0064 27.1575 26.064C26.2479 26.064 25.3503 26.064 24.4407 26.064C24.4407 25.3872 24.4407 24.7128 24.4407 24.0288C24.1455 24.0288 23.8599 24.0288 23.5647 24.0288C23.5623 24.708 23.5623 25.3824 23.5623 26.0616ZM22.7199 24.024C22.4247 24.024 22.1439 24.024 21.8631 24.024C21.8631 24.372 21.8631 24.708 21.8631 25.0488C22.1535 25.0488 22.4343 25.0488 22.7199 25.0488C22.7199 24.7032 22.7199 24.3696 22.7199 24.024ZM26.1303 24.0144C25.8615 24.0144 25.5975 24.012 25.3359 24.0168C25.3143 24.0168 25.2735 24.0648 25.2735 24.0936C25.2687 24.3888 25.2687 24.684 25.2735 24.9792C25.2735 25.0056 25.3071 25.0512 25.3263 25.0512C25.5927 25.056 25.8591 25.0536 26.1303 25.0536C26.1303 24.7032 26.1303 24.3672 26.1303 24.0144ZM21.8631 20.6016C21.8631 20.952 21.8631 21.2904 21.8631 21.6264C22.1535 21.6264 22.4343 21.6264 22.7151 21.6264C22.7151 21.2808 22.7151 20.9424 22.7151 20.6016C22.4295 20.6016 22.1487 20.6016 21.8631 20.6016ZM24.4263 21.6288C24.4263 21.2808 24.4263 20.9448 24.4263 20.604C24.1359 20.604 23.8551 20.604 23.5695 20.604C23.5695 20.9496 23.5695 21.2856 23.5695 21.6288C23.8575 21.6288 24.1359 21.6288 24.4263 21.6288ZM25.2783 21.6288C25.5687 21.6288 25.8471 21.6288 26.1303 21.6288C26.1303 21.2856 26.1303 20.9472 26.1303 20.6064C25.8423 20.6064 25.5615 20.6064 25.2783 20.6064C25.2783 20.9496 25.2783 21.2832 25.2783 21.6288ZM22.7151 23.3376C22.7151 22.992 22.7151 22.6512 22.7151 22.3104C22.4271 22.3104 22.1487 22.3104 21.8655 22.3104C21.8655 22.6584 21.8655 22.9968 21.8655 23.3376C22.1535 23.3376 22.4319 23.3376 22.7151 23.3376ZM24.4263 22.3128C24.1383 22.3128 23.8575 22.3128 23.5695 22.3128C23.5695 22.656 23.5695 22.9944 23.5695 23.3376C23.8575 23.3376 24.1383 23.3376 24.4263 23.3376C24.4263 22.992 24.4263 22.656 24.4263 22.3128ZM25.2831 23.3376C25.5711 23.3376 25.8495 23.3376 26.1327 23.3376C26.1327 22.9944 26.1327 22.656 26.1327 22.3128C25.8471 22.3128 25.5711 22.3128 25.2831 22.3128C25.2831 22.6512 25.2831 22.9896 25.2831 23.3376Z" fill="white"/>
<path d="M22.7201 24.024C22.7201 24.3696 22.7201 24.7032 22.7201 25.0488C22.4345 25.0488 22.1537 25.0488 21.8633 25.0488C21.8633 24.708 21.8633 24.372 21.8633 24.024C22.1441 24.024 22.4249 24.024 22.7201 24.024Z" fill="black"/>
<path d="M26.1299 24.0144C26.1299 24.3672 26.1299 24.7032 26.1299 25.056C25.8587 25.056 25.5923 25.0584 25.3259 25.0536C25.3067 25.0536 25.2731 25.0056 25.2731 24.9816C25.2683 24.6864 25.2683 24.3912 25.2731 24.096C25.2731 24.0696 25.3139 24.0216 25.3355 24.0192C25.5995 24.012 25.8611 24.0144 26.1299 24.0144Z" fill="black"/>
<path d="M21.8633 20.6016C22.1489 20.6016 22.4273 20.6016 22.7153 20.6016C22.7153 20.9424 22.7153 21.2808 22.7153 21.6264C22.4345 21.6264 22.1537 21.6264 21.8633 21.6264C21.8633 21.2904 21.8633 20.952 21.8633 20.6016Z" fill="black"/>
<path d="M24.4271 21.6288C24.1367 21.6288 23.8583 21.6288 23.5703 21.6288C23.5703 21.2856 23.5703 20.9496 23.5703 20.604C23.8559 20.604 24.1367 20.604 24.4271 20.604C24.4271 20.9448 24.4271 21.2832 24.4271 21.6288Z" fill="black"/>
<path d="M25.2793 21.6288C25.2793 21.2856 25.2793 20.9496 25.2793 20.6064C25.5649 20.6064 25.8457 20.6064 26.1313 20.6064C26.1313 20.9472 26.1313 21.2832 26.1313 21.6288C25.8481 21.6288 25.5721 21.6288 25.2793 21.6288Z" fill="black"/>
<path d="M22.7148 23.3376C22.4316 23.3376 22.1532 23.3376 21.8652 23.3376C21.8652 22.9968 21.8652 22.6584 21.8652 22.3104C22.1484 22.3104 22.4268 22.3104 22.7148 22.3104C22.7148 22.6512 22.7148 22.992 22.7148 23.3376Z" fill="black"/>
<path d="M24.4271 22.3128C24.4271 22.6584 24.4271 22.9944 24.4271 23.3376C24.1391 23.3376 23.8583 23.3376 23.5703 23.3376C23.5703 22.9944 23.5703 22.656 23.5703 22.3128C23.8583 22.3128 24.1391 22.3128 24.4271 22.3128Z" fill="black"/>
<path d="M25.2832 23.3376C25.2832 22.9896 25.2832 22.6536 25.2832 22.3128C25.5712 22.3128 25.8472 22.3128 26.1328 22.3128C26.1328 22.656 26.1328 22.9944 26.1328 23.3376C25.8472 23.3376 25.5712 23.3376 25.2832 23.3376Z" fill="black"/>
</g>
<defs>
<clipPath id="clip0_56_1829">
<rect width="24" height="24" fill="white" transform="translate(12 12)"/>
</clipPath>
</defs>
</svg>
