<svg width="40" height="40" viewBox="0 0 40 40" fill="none" xmlns="http://www.w3.org/2000/svg">
<g clip-path="url(#clip0_56_1702)">
<path d="M32 0H8C3.58172 0 0 3.58172 0 8V32C0 36.4183 3.58172 40 8 40H32C36.4183 40 40 36.4183 40 32V8C40 3.58172 36.4183 0 32 0Z" fill="#032765"/>
<path d="M19.9919 33.628C19.9919 32.096 19.9919 30.568 19.9919 29.016C19.6199 28.992 19.2639 28.976 18.9079 28.944C16.7639 28.74 14.8319 27.992 13.1279 26.68C10.8159 24.9 9.3399 22.568 8.8479 19.692C8.1999 15.912 9.1999 12.584 11.8399 9.788C13.5599 7.964 15.6879 6.848 18.1599 6.464C21.5399 5.94 24.5959 6.748 27.2439 8.928C29.3999 10.704 30.7439 12.992 31.1799 15.752C31.7799 19.552 30.7399 22.884 28.0359 25.64C25.4519 28.28 22.8199 30.872 20.2079 33.484C20.1519 33.54 20.1199 33.62 20.0759 33.688C20.0479 33.668 20.0199 33.648 19.9919 33.628ZM19.2719 23.436C19.2719 22.3 19.2719 21.176 19.2719 20.04C19.7639 20.04 20.2359 20.04 20.7319 20.04C20.7319 21.184 20.7319 22.308 20.7319 23.432C22.2479 23.432 23.7439 23.432 25.2599 23.432C25.2599 23.336 25.2599 23.248 25.2599 23.164C25.2599 20.236 25.2679 17.312 25.2479 14.384C25.2439 13.936 25.3199 13.58 25.6959 13.316C25.7519 13.276 25.8199 13.204 25.8199 13.148C25.8319 12.796 25.8239 12.448 25.8239 12.088C21.9279 12.088 18.0559 12.088 14.1599 12.088C14.1599 12.276 14.1799 12.46 14.1559 12.632C14.0999 13.032 14.2199 13.348 14.5519 13.576C14.7119 13.688 14.7399 13.84 14.7399 14.024C14.7359 17.064 14.7359 20.104 14.7359 23.144C14.7359 23.236 14.7359 23.328 14.7359 23.428C16.2559 23.436 17.7479 23.436 19.2719 23.436Z" fill="white"/>
<path d="M19.2721 23.436C17.7481 23.436 16.2561 23.436 14.7401 23.436C14.7401 23.332 14.7401 23.244 14.7401 23.152C14.7401 20.112 14.7401 17.072 14.7441 14.032C14.7441 13.844 14.7161 13.692 14.5561 13.584C14.2241 13.356 14.1001 13.04 14.1601 12.64C14.1841 12.464 14.1641 12.284 14.1641 12.096C18.0601 12.096 21.9321 12.096 25.8281 12.096C25.8281 12.452 25.8321 12.804 25.8241 13.156C25.8241 13.216 25.7561 13.284 25.7001 13.324C25.3281 13.588 25.2521 13.944 25.2521 14.392C25.2721 17.32 25.2641 20.244 25.2641 23.172C25.2641 23.256 25.2641 23.344 25.2641 23.44C23.7481 23.44 22.2521 23.44 20.7361 23.44C20.7361 22.312 20.7361 21.188 20.7361 20.048C20.2441 20.048 19.7681 20.048 19.2761 20.048C19.2721 21.18 19.2721 22.304 19.2721 23.436ZM17.8681 20.04C17.3761 20.04 16.9081 20.04 16.4401 20.04C16.4401 20.62 16.4401 21.18 16.4401 21.748C16.9241 21.748 17.3921 21.748 17.8681 21.748C17.8681 21.172 17.8681 20.616 17.8681 20.04ZM23.5521 20.024C23.1041 20.024 22.6641 20.02 22.2281 20.028C22.1921 20.028 22.1241 20.108 22.1241 20.156C22.1161 20.648 22.1161 21.14 22.1241 21.632C22.1241 21.676 22.1801 21.752 22.2121 21.752C22.6561 21.76 23.1001 21.756 23.5521 21.756C23.5521 21.172 23.5521 20.612 23.5521 20.024ZM16.4401 14.336C16.4401 14.92 16.4401 15.484 16.4401 16.044C16.9241 16.044 17.3921 16.044 17.8601 16.044C17.8601 15.468 17.8601 14.904 17.8601 14.336C17.3841 14.336 16.9161 14.336 16.4401 14.336ZM20.7121 16.048C20.7121 15.468 20.7121 14.908 20.7121 14.34C20.2281 14.34 19.7601 14.34 19.2841 14.34C19.2841 14.916 19.2841 15.476 19.2841 16.048C19.7641 16.048 20.2281 16.048 20.7121 16.048ZM22.1321 16.048C22.6161 16.048 23.0801 16.048 23.5521 16.048C23.5521 15.476 23.5521 14.912 23.5521 14.344C23.0721 14.344 22.6041 14.344 22.1321 14.344C22.1321 14.916 22.1321 15.472 22.1321 16.048ZM17.8601 18.896C17.8601 18.32 17.8601 17.752 17.8601 17.184C17.3801 17.184 16.9161 17.184 16.4441 17.184C16.4441 17.764 16.4441 18.328 16.4441 18.896C16.9241 18.896 17.3881 18.896 17.8601 18.896ZM20.7121 17.188C20.2321 17.188 19.7641 17.188 19.2841 17.188C19.2841 17.76 19.2841 18.324 19.2841 18.896C19.7641 18.896 20.2321 18.896 20.7121 18.896C20.7121 18.32 20.7121 17.76 20.7121 17.188ZM22.1401 18.896C22.6201 18.896 23.0841 18.896 23.5561 18.896C23.5561 18.324 23.5561 17.76 23.5561 17.188C23.0801 17.188 22.6201 17.188 22.1401 17.188C22.1401 17.752 22.1401 18.316 22.1401 18.896Z" fill="#032765"/>
<path d="M17.8679 20.04C17.8679 20.616 17.8679 21.172 17.8679 21.748C17.3919 21.748 16.9239 21.748 16.4399 21.748C16.4399 21.18 16.4399 20.62 16.4399 20.04C16.9079 20.04 17.3759 20.04 17.8679 20.04Z" fill="white"/>
<path d="M23.5517 20.024C23.5517 20.612 23.5517 21.172 23.5517 21.76C23.0997 21.76 22.6557 21.764 22.2117 21.756C22.1797 21.756 22.1237 21.676 22.1237 21.636C22.1157 21.144 22.1157 20.652 22.1237 20.16C22.1237 20.116 22.1917 20.036 22.2277 20.032C22.6677 20.02 23.1037 20.024 23.5517 20.024Z" fill="white"/>
<path d="M16.4399 14.336C16.9159 14.336 17.3799 14.336 17.8599 14.336C17.8599 14.904 17.8599 15.468 17.8599 16.044C17.3919 16.044 16.9239 16.044 16.4399 16.044C16.4399 15.484 16.4399 14.92 16.4399 14.336Z" fill="white"/>
<path d="M20.7117 16.048C20.2277 16.048 19.7637 16.048 19.2837 16.048C19.2837 15.476 19.2837 14.916 19.2837 14.34C19.7597 14.34 20.2277 14.34 20.7117 14.34C20.7117 14.908 20.7117 15.472 20.7117 16.048Z" fill="white"/>
<path d="M22.1318 16.048C22.1318 15.476 22.1318 14.916 22.1318 14.344C22.6078 14.344 23.0758 14.344 23.5518 14.344C23.5518 14.912 23.5518 15.472 23.5518 16.048C23.0798 16.048 22.6198 16.048 22.1318 16.048Z" fill="white"/>
<path d="M17.8598 18.896C17.3878 18.896 16.9238 18.896 16.4438 18.896C16.4438 18.328 16.4438 17.764 16.4438 17.184C16.9158 17.184 17.3798 17.184 17.8598 17.184C17.8598 17.752 17.8598 18.32 17.8598 18.896Z" fill="white"/>
<path d="M20.7117 17.188C20.7117 17.764 20.7117 18.324 20.7117 18.896C20.2317 18.896 19.7637 18.896 19.2837 18.896C19.2837 18.324 19.2837 17.76 19.2837 17.188C19.7637 17.188 20.2317 17.188 20.7117 17.188Z" fill="white"/>
<path d="M22.1401 18.896C22.1401 18.316 22.1401 17.756 22.1401 17.188C22.6201 17.188 23.0801 17.188 23.5561 17.188C23.5561 17.76 23.5561 18.324 23.5561 18.896C23.0801 18.896 22.6201 18.896 22.1401 18.896Z" fill="white"/>
</g>
<defs>
<clipPath id="clip0_56_1702">
<rect width="40" height="40" fill="white"/>
</clipPath>
</defs>
</svg>
