<svg width="40" height="40" viewBox="0 0 40 40" fill="none" xmlns="http://www.w3.org/2000/svg">
<rect width="40" height="40" rx="20" fill="#032765"/>
<path d="M19.9924 34.628C19.9924 33.096 19.9924 31.568 19.9924 30.016C19.6204 29.992 19.2644 29.976 18.9084 29.944C16.7644 29.74 14.8324 28.992 13.1284 27.68C10.8164 25.9 9.34038 23.568 8.84838 20.692C8.20038 16.912 9.20038 13.584 11.8404 10.788C13.5604 8.96399 15.6884 7.84799 18.1604 7.46399C21.5404 6.93999 24.5964 7.74799 27.2444 9.92799C29.4004 11.704 30.7444 13.992 31.1804 16.752C31.7804 20.552 30.7404 23.884 28.0364 26.64C25.4524 29.28 22.8204 31.872 20.2084 34.484C20.1524 34.54 20.1204 34.62 20.0764 34.688C20.0484 34.668 20.0204 34.648 19.9924 34.628ZM19.2724 24.436C19.2724 23.3 19.2724 22.176 19.2724 21.04C19.7644 21.04 20.2364 21.04 20.7324 21.04C20.7324 22.184 20.7324 23.308 20.7324 24.432C22.2484 24.432 23.7444 24.432 25.2604 24.432C25.2604 24.336 25.2604 24.248 25.2604 24.164C25.2604 21.236 25.2684 18.312 25.2484 15.384C25.2444 14.936 25.3204 14.58 25.6964 14.316C25.7524 14.276 25.8204 14.204 25.8204 14.148C25.8324 13.796 25.8244 13.448 25.8244 13.088C21.9284 13.088 18.0564 13.088 14.1604 13.088C14.1604 13.276 14.1804 13.46 14.1564 13.632C14.1004 14.032 14.2204 14.348 14.5524 14.576C14.7124 14.688 14.7404 14.84 14.7404 15.024C14.7364 18.064 14.7364 21.104 14.7364 24.144C14.7364 24.236 14.7364 24.328 14.7364 24.428C16.2564 24.436 17.7484 24.436 19.2724 24.436Z" fill="white"/>
<path d="M19.2721 24.436C17.7481 24.436 16.2561 24.436 14.7401 24.436C14.7401 24.332 14.7401 24.244 14.7401 24.152C14.7401 21.112 14.7401 18.072 14.7441 15.032C14.7441 14.844 14.7161 14.692 14.5561 14.584C14.2241 14.356 14.1001 14.04 14.1601 13.64C14.1841 13.464 14.1641 13.284 14.1641 13.096C18.0601 13.096 21.9321 13.096 25.8281 13.096C25.8281 13.452 25.8321 13.804 25.8241 14.156C25.8241 14.216 25.7561 14.284 25.7001 14.324C25.3281 14.588 25.2521 14.944 25.2521 15.392C25.2721 18.32 25.2641 21.244 25.2641 24.172C25.2641 24.256 25.2641 24.344 25.2641 24.44C23.7481 24.44 22.2521 24.44 20.7361 24.44C20.7361 23.312 20.7361 22.188 20.7361 21.048C20.2441 21.048 19.7681 21.048 19.2761 21.048C19.2721 22.18 19.2721 23.304 19.2721 24.436ZM17.8681 21.04C17.3761 21.04 16.9081 21.04 16.4401 21.04C16.4401 21.62 16.4401 22.18 16.4401 22.748C16.9241 22.748 17.3921 22.748 17.8681 22.748C17.8681 22.172 17.8681 21.616 17.8681 21.04ZM23.5521 21.024C23.1041 21.024 22.6641 21.02 22.2281 21.028C22.1921 21.028 22.1241 21.108 22.1241 21.156C22.1161 21.648 22.1161 22.14 22.1241 22.632C22.1241 22.676 22.1801 22.752 22.2121 22.752C22.6561 22.76 23.1001 22.756 23.5521 22.756C23.5521 22.172 23.5521 21.612 23.5521 21.024ZM16.4401 15.336C16.4401 15.92 16.4401 16.484 16.4401 17.044C16.9241 17.044 17.3921 17.044 17.8601 17.044C17.8601 16.468 17.8601 15.904 17.8601 15.336C17.3841 15.336 16.9161 15.336 16.4401 15.336ZM20.7121 17.048C20.7121 16.468 20.7121 15.908 20.7121 15.34C20.2281 15.34 19.7601 15.34 19.2841 15.34C19.2841 15.916 19.2841 16.476 19.2841 17.048C19.7641 17.048 20.2281 17.048 20.7121 17.048ZM22.1321 17.048C22.6161 17.048 23.0801 17.048 23.5521 17.048C23.5521 16.476 23.5521 15.912 23.5521 15.344C23.0721 15.344 22.6041 15.344 22.1321 15.344C22.1321 15.916 22.1321 16.472 22.1321 17.048ZM17.8601 19.896C17.8601 19.32 17.8601 18.752 17.8601 18.184C17.3801 18.184 16.9161 18.184 16.4441 18.184C16.4441 18.764 16.4441 19.328 16.4441 19.896C16.9241 19.896 17.3881 19.896 17.8601 19.896ZM20.7121 18.188C20.2321 18.188 19.7641 18.188 19.2841 18.188C19.2841 18.76 19.2841 19.324 19.2841 19.896C19.7641 19.896 20.2321 19.896 20.7121 19.896C20.7121 19.32 20.7121 18.76 20.7121 18.188ZM22.1401 19.896C22.6201 19.896 23.0841 19.896 23.5561 19.896C23.5561 19.324 23.5561 18.76 23.5561 18.188C23.0801 18.188 22.6201 18.188 22.1401 18.188C22.1401 18.752 22.1401 19.316 22.1401 19.896Z" fill="#032765"/>
<path d="M17.8684 21.04C17.8684 21.616 17.8684 22.172 17.8684 22.748C17.3924 22.748 16.9244 22.748 16.4404 22.748C16.4404 22.18 16.4404 21.62 16.4404 21.04C16.9084 21.04 17.3764 21.04 17.8684 21.04Z" fill="white"/>
<path d="M23.5522 21.024C23.5522 21.612 23.5522 22.172 23.5522 22.76C23.1002 22.76 22.6562 22.764 22.2122 22.756C22.1802 22.756 22.1242 22.676 22.1242 22.636C22.1162 22.144 22.1162 21.652 22.1242 21.16C22.1242 21.116 22.1922 21.036 22.2282 21.032C22.6682 21.02 23.1042 21.024 23.5522 21.024Z" fill="white"/>
<path d="M16.4404 15.336C16.9164 15.336 17.3804 15.336 17.8604 15.336C17.8604 15.904 17.8604 16.468 17.8604 17.044C17.3924 17.044 16.9244 17.044 16.4404 17.044C16.4404 16.484 16.4404 15.92 16.4404 15.336Z" fill="white"/>
<path d="M20.7122 17.048C20.2282 17.048 19.7642 17.048 19.2842 17.048C19.2842 16.476 19.2842 15.916 19.2842 15.34C19.7602 15.34 20.2282 15.34 20.7122 15.34C20.7122 15.908 20.7122 16.472 20.7122 17.048Z" fill="white"/>
<path d="M22.1328 17.048C22.1328 16.476 22.1328 15.916 22.1328 15.344C22.6088 15.344 23.0768 15.344 23.5528 15.344C23.5528 15.912 23.5528 16.472 23.5528 17.048C23.0808 17.048 22.6208 17.048 22.1328 17.048Z" fill="white"/>
<path d="M17.8603 19.896C17.3883 19.896 16.9243 19.896 16.4443 19.896C16.4443 19.328 16.4443 18.764 16.4443 18.184C16.9163 18.184 17.3803 18.184 17.8603 18.184C17.8603 18.752 17.8603 19.32 17.8603 19.896Z" fill="white"/>
<path d="M20.7122 18.188C20.7122 18.764 20.7122 19.324 20.7122 19.896C20.2322 19.896 19.7642 19.896 19.2842 19.896C19.2842 19.324 19.2842 18.76 19.2842 18.188C19.7642 18.188 20.2322 18.188 20.7122 18.188Z" fill="white"/>
<path d="M22.1406 19.896C22.1406 19.316 22.1406 18.756 22.1406 18.188C22.6206 18.188 23.0806 18.188 23.5566 18.188C23.5566 18.76 23.5566 19.324 23.5566 19.896C23.0806 19.896 22.6206 19.896 22.1406 19.896Z" fill="white"/>
</svg>
