<svg width="40" height="40" viewBox="0 0 40 40" fill="none" xmlns="http://www.w3.org/2000/svg">
<g clip-path="url(#clip0_56_1785)">
<path d="M32 0H8C3.58172 0 0 3.58172 0 8V32C0 36.4183 3.58172 40 8 40H32C36.4183 40 40 36.4183 40 32V8C40 3.58172 36.4183 0 32 0Z" fill="black"/>
<path d="M19.9924 33.628C19.9924 32.096 19.9924 30.568 19.9924 29.016C19.6204 28.992 19.2644 28.976 18.9084 28.944C16.7644 28.74 14.8324 27.992 13.1284 26.68C10.8164 24.9 9.34038 22.568 8.84838 19.692C8.20038 15.912 9.20038 12.584 11.8404 9.788C13.5604 7.964 15.6884 6.848 18.1604 6.464C21.5404 5.94 24.5964 6.748 27.2444 8.928C29.4004 10.704 30.7444 12.992 31.1804 15.752C31.7804 19.552 30.7404 22.884 28.0364 25.64C25.4524 28.28 22.8204 30.872 20.2084 33.484C20.1524 33.54 20.1204 33.62 20.0764 33.688C20.0484 33.668 20.0204 33.648 19.9924 33.628ZM19.2724 23.436C19.2724 22.3 19.2724 21.176 19.2724 20.04C19.7644 20.04 20.2364 20.04 20.7324 20.04C20.7324 21.184 20.7324 22.308 20.7324 23.432C22.2484 23.432 23.7444 23.432 25.2604 23.432C25.2604 23.336 25.2604 23.248 25.2604 23.164C25.2604 20.236 25.2684 17.312 25.2484 14.384C25.2444 13.936 25.3204 13.58 25.6964 13.316C25.7524 13.276 25.8204 13.204 25.8204 13.148C25.8324 12.796 25.8244 12.448 25.8244 12.088C21.9284 12.088 18.0564 12.088 14.1604 12.088C14.1604 12.276 14.1804 12.46 14.1564 12.632C14.1004 13.032 14.2204 13.348 14.5524 13.576C14.7124 13.688 14.7404 13.84 14.7404 14.024C14.7364 17.064 14.7364 20.104 14.7364 23.144C14.7364 23.236 14.7364 23.328 14.7364 23.428C16.2564 23.436 17.7484 23.436 19.2724 23.436Z" fill="white"/>
<path d="M19.2721 23.436C17.7481 23.436 16.2561 23.436 14.7401 23.436C14.7401 23.332 14.7401 23.244 14.7401 23.152C14.7401 20.112 14.7401 17.072 14.7441 14.032C14.7441 13.844 14.7161 13.692 14.5561 13.584C14.2241 13.356 14.1001 13.04 14.1601 12.64C14.1841 12.464 14.1641 12.284 14.1641 12.096C18.0601 12.096 21.9321 12.096 25.8281 12.096C25.8281 12.452 25.8321 12.804 25.8241 13.156C25.8241 13.216 25.7561 13.284 25.7001 13.324C25.3281 13.588 25.2521 13.944 25.2521 14.392C25.2721 17.32 25.2641 20.244 25.2641 23.172C25.2641 23.256 25.2641 23.344 25.2641 23.44C23.7481 23.44 22.2521 23.44 20.7361 23.44C20.7361 22.312 20.7361 21.188 20.7361 20.048C20.2441 20.048 19.7681 20.048 19.2761 20.048C19.2721 21.18 19.2721 22.304 19.2721 23.436ZM17.8681 20.04C17.3761 20.04 16.9081 20.04 16.4401 20.04C16.4401 20.62 16.4401 21.18 16.4401 21.748C16.9241 21.748 17.3921 21.748 17.8681 21.748C17.8681 21.172 17.8681 20.616 17.8681 20.04ZM23.5521 20.024C23.1041 20.024 22.6641 20.02 22.2281 20.028C22.1921 20.028 22.1241 20.108 22.1241 20.156C22.1161 20.648 22.1161 21.14 22.1241 21.632C22.1241 21.676 22.1801 21.752 22.2121 21.752C22.6561 21.76 23.1001 21.756 23.5521 21.756C23.5521 21.172 23.5521 20.612 23.5521 20.024ZM16.4401 14.336C16.4401 14.92 16.4401 15.484 16.4401 16.044C16.9241 16.044 17.3921 16.044 17.8601 16.044C17.8601 15.468 17.8601 14.904 17.8601 14.336C17.3841 14.336 16.9161 14.336 16.4401 14.336ZM20.7121 16.048C20.7121 15.468 20.7121 14.908 20.7121 14.34C20.2281 14.34 19.7601 14.34 19.2841 14.34C19.2841 14.916 19.2841 15.476 19.2841 16.048C19.7641 16.048 20.2281 16.048 20.7121 16.048ZM22.1321 16.048C22.6161 16.048 23.0801 16.048 23.5521 16.048C23.5521 15.476 23.5521 14.912 23.5521 14.344C23.0721 14.344 22.6041 14.344 22.1321 14.344C22.1321 14.916 22.1321 15.472 22.1321 16.048ZM17.8601 18.896C17.8601 18.32 17.8601 17.752 17.8601 17.184C17.3801 17.184 16.9161 17.184 16.4441 17.184C16.4441 17.764 16.4441 18.328 16.4441 18.896C16.9241 18.896 17.3881 18.896 17.8601 18.896ZM20.7121 17.188C20.2321 17.188 19.7641 17.188 19.2841 17.188C19.2841 17.76 19.2841 18.324 19.2841 18.896C19.7641 18.896 20.2321 18.896 20.7121 18.896C20.7121 18.32 20.7121 17.76 20.7121 17.188ZM22.1401 18.896C22.6201 18.896 23.0841 18.896 23.5561 18.896C23.5561 18.324 23.5561 17.76 23.5561 17.188C23.0801 17.188 22.6201 17.188 22.1401 17.188C22.1401 17.752 22.1401 18.316 22.1401 18.896Z" fill="black"/>
<path d="M17.8684 20.04C17.8684 20.616 17.8684 21.172 17.8684 21.748C17.3924 21.748 16.9244 21.748 16.4404 21.748C16.4404 21.18 16.4404 20.62 16.4404 20.04C16.9084 20.04 17.3764 20.04 17.8684 20.04Z" fill="white"/>
<path d="M23.5522 20.024C23.5522 20.612 23.5522 21.172 23.5522 21.76C23.1002 21.76 22.6562 21.764 22.2122 21.756C22.1802 21.756 22.1242 21.676 22.1242 21.636C22.1162 21.144 22.1162 20.652 22.1242 20.16C22.1242 20.116 22.1922 20.036 22.2282 20.032C22.6682 20.02 23.1042 20.024 23.5522 20.024Z" fill="white"/>
<path d="M16.4404 14.336C16.9164 14.336 17.3804 14.336 17.8604 14.336C17.8604 14.904 17.8604 15.468 17.8604 16.044C17.3924 16.044 16.9244 16.044 16.4404 16.044C16.4404 15.484 16.4404 14.92 16.4404 14.336Z" fill="white"/>
<path d="M20.7122 16.048C20.2282 16.048 19.7642 16.048 19.2842 16.048C19.2842 15.476 19.2842 14.916 19.2842 14.34C19.7602 14.34 20.2282 14.34 20.7122 14.34C20.7122 14.908 20.7122 15.472 20.7122 16.048Z" fill="white"/>
<path d="M22.1328 16.048C22.1328 15.476 22.1328 14.916 22.1328 14.344C22.6088 14.344 23.0768 14.344 23.5528 14.344C23.5528 14.912 23.5528 15.472 23.5528 16.048C23.0808 16.048 22.6208 16.048 22.1328 16.048Z" fill="white"/>
<path d="M17.8603 18.896C17.3883 18.896 16.9243 18.896 16.4443 18.896C16.4443 18.328 16.4443 17.764 16.4443 17.184C16.9163 17.184 17.3803 17.184 17.8603 17.184C17.8603 17.752 17.8603 18.32 17.8603 18.896Z" fill="white"/>
<path d="M20.7122 17.188C20.7122 17.764 20.7122 18.324 20.7122 18.896C20.2322 18.896 19.7642 18.896 19.2842 18.896C19.2842 18.324 19.2842 17.76 19.2842 17.188C19.7642 17.188 20.2322 17.188 20.7122 17.188Z" fill="white"/>
<path d="M22.1406 18.896C22.1406 18.316 22.1406 17.756 22.1406 17.188C22.6206 17.188 23.0806 17.188 23.5566 17.188C23.5566 17.76 23.5566 18.324 23.5566 18.896C23.0806 18.896 22.6206 18.896 22.1406 18.896Z" fill="white"/>
</g>
<defs>
<clipPath id="clip0_56_1785">
<rect width="40" height="40" fill="white"/>
</clipPath>
</defs>
</svg>
