<svg width="188" height="38" viewBox="0 0 188 38" fill="none" xmlns="http://www.w3.org/2000/svg">
<mask id="path-1-outside-1_67_2758" maskUnits="userSpaceOnUse" x="0" y="0" width="188" height="38" fill="black">
<rect fill="white" width="188" height="38"/>
<path d="M1 13C1 6.37258 6.37258 1 13 1H175C181.627 1 187 6.37258 187 13V25C187 31.6274 181.627 37 175 37H13C6.37258 37 1 31.6274 1 25V13Z"/>
</mask>
<path d="M1 13C1 6.37258 6.37258 1 13 1H175C181.627 1 187 6.37258 187 13V25C187 31.6274 181.627 37 175 37H13C6.37258 37 1 31.6274 1 25V13Z" fill="#101828"/>
<path d="M13 1V2H175V1V0H13V1ZM187 13H186V25H187H188V13H187ZM175 37V36H13V37V38H175V37ZM1 25H2V13H1H0V25H1ZM13 37V36C6.92487 36 2 31.0751 2 25H1H0C0 32.1797 5.8203 38 13 38V37ZM187 25H186C186 31.0751 181.075 36 175 36V37V38C182.18 38 188 32.1797 188 25H187ZM175 1V2C181.075 2 186 6.92487 186 13H187H188C188 5.8203 182.18 0 175 0V1ZM13 1V0C5.8203 0 0 5.8203 0 13H1H2C2 6.92487 6.92487 2 13 2V1Z" fill="#364153" mask="url(#path-1-outside-1_67_2758)"/>
<path d="M23 12.75V25.25M29.25 19L16.75 19" stroke="#F3F4F6" stroke-width="1.5" stroke-linecap="round" stroke-linejoin="round"/>
<path d="M42.1985 24.5V13.5909H46.087C46.9357 13.5909 47.6388 13.7454 48.1964 14.0543C48.7539 14.3633 49.1712 14.7859 49.4482 15.3221C49.7251 15.8548 49.8636 16.4549 49.8636 17.1225C49.8636 17.7937 49.7234 18.3974 49.4428 18.9336C49.1658 19.4663 48.7468 19.8888 48.1857 20.2013C47.6282 20.5103 46.9268 20.6648 46.0817 20.6648H43.4077V19.2692H45.9325C46.4688 19.2692 46.9038 19.1768 47.2376 18.9922C47.5714 18.804 47.8164 18.5483 47.9727 18.2251C48.1289 17.902 48.207 17.5344 48.207 17.1225C48.207 16.7106 48.1289 16.3448 47.9727 16.0252C47.8164 15.7056 47.5696 15.4553 47.2322 15.2741C46.8984 15.093 46.4581 15.0025 45.9112 15.0025H43.8445V24.5H42.1985ZM53.5781 13.5909V24.5H51.9854V13.5909H53.5781ZM58.4218 24.6811C57.9033 24.6811 57.4346 24.5852 57.0155 24.3935C56.5965 24.1982 56.2645 23.9158 56.0194 23.5465C55.778 23.1772 55.6572 22.7244 55.6572 22.1882C55.6572 21.7266 55.746 21.3466 55.9236 21.0483C56.1011 20.75 56.3408 20.5138 56.6427 20.3398C56.9445 20.1658 57.2819 20.0344 57.6547 19.9457C58.0276 19.8569 58.4076 19.7894 58.7947 19.7433C59.2847 19.6864 59.6824 19.6403 59.9878 19.6048C60.2932 19.5657 60.5152 19.5036 60.6537 19.4183C60.7922 19.3331 60.8614 19.1946 60.8614 19.0028V18.9656C60.8614 18.5004 60.73 18.1399 60.4672 17.8842C60.208 17.6286 59.8209 17.5007 59.306 17.5007C58.7698 17.5007 58.3472 17.6197 58.0383 17.8576C57.7329 18.092 57.5216 18.353 57.4044 18.6406L55.9076 18.2997C56.0851 17.8026 56.3444 17.4013 56.6853 17.0959C57.0297 16.7869 57.4257 16.5632 57.8731 16.4247C58.3206 16.2827 58.7911 16.2116 59.2847 16.2116C59.6114 16.2116 59.9576 16.2507 60.3234 16.3288C60.6927 16.4034 61.0372 16.5419 61.3568 16.7443C61.68 16.9467 61.9445 17.2362 62.1505 17.6126C62.3564 17.9854 62.4594 18.4702 62.4594 19.0668V24.5H60.904V23.3814H60.8401C60.7371 23.5874 60.5826 23.7898 60.3767 23.9886C60.1707 24.1875 59.9062 24.3526 59.583 24.484C59.2599 24.6154 58.8728 24.6811 58.4218 24.6811ZM58.768 23.4027C59.2084 23.4027 59.5848 23.3157 59.8973 23.1417C60.2133 22.9677 60.453 22.7404 60.6164 22.4599C60.7833 22.1758 60.8667 21.8722 60.8667 21.549V20.4943C60.8099 20.5511 60.6998 20.6044 60.5365 20.6541C60.3767 20.7003 60.1938 20.7411 59.9878 20.7766C59.7819 20.8086 59.5812 20.8388 59.3859 20.8672C59.1906 20.892 59.0273 20.9134 58.8959 20.9311C58.5869 20.9702 58.3046 21.0359 58.0489 21.1282C57.7968 21.2205 57.5944 21.3537 57.4417 21.5277C57.2925 21.6982 57.2179 21.9254 57.2179 22.2095C57.2179 22.6037 57.3635 22.902 57.6547 23.1044C57.9459 23.3033 58.317 23.4027 58.768 23.4027ZM68.3472 24.6651C67.5553 24.6651 66.8734 24.4858 66.3017 24.1271C65.7335 23.7649 65.2967 23.266 64.9913 22.6303C64.6859 21.9947 64.5332 21.2667 64.5332 20.4464C64.5332 19.6154 64.6895 18.8821 65.002 18.2464C65.3145 17.6072 65.7548 17.1083 66.323 16.7496C66.8912 16.391 67.5606 16.2116 68.3312 16.2116C68.9526 16.2116 69.5066 16.3271 69.9931 16.5579C70.4796 16.7852 70.872 17.1048 71.1703 17.5167C71.4722 17.9286 71.6515 18.4098 71.7083 18.9602H70.1582C70.073 18.5767 69.8777 18.2464 69.5723 17.9695C69.2705 17.6925 68.8656 17.554 68.3578 17.554C67.9139 17.554 67.5251 17.6712 67.1913 17.9055C66.861 18.1364 66.6036 18.4666 66.4189 18.8963C66.2342 19.3224 66.1419 19.8267 66.1419 20.4091C66.1419 21.0057 66.2325 21.5206 66.4136 21.9538C66.5947 22.3871 66.8504 22.7227 67.1806 22.9606C67.5144 23.1985 67.9068 23.3175 68.3578 23.3175C68.6597 23.3175 68.9331 23.2624 69.1781 23.1523C69.4267 23.0387 69.6344 22.8771 69.8014 22.6676C69.9718 22.4581 70.0908 22.206 70.1582 21.9112H71.7083C71.6515 22.4403 71.4793 22.9126 71.1916 23.3281C70.904 23.7436 70.5187 24.0703 70.0357 24.3082C69.5563 24.5462 68.9935 24.6651 68.3472 24.6651ZM77.2578 24.6651C76.4517 24.6651 75.7575 24.4929 75.1751 24.1484C74.5962 23.8004 74.1488 23.3121 73.8327 22.6836C73.5202 22.0515 73.364 21.3111 73.364 20.4624C73.364 19.6243 73.5202 18.8857 73.8327 18.2464C74.1488 17.6072 74.5891 17.1083 75.1538 16.7496C75.7219 16.391 76.386 16.2116 77.1459 16.2116C77.6076 16.2116 78.055 16.288 78.4883 16.4407C78.9215 16.5934 79.3104 16.8331 79.6548 17.1598C79.9993 17.4865 80.2709 17.9109 80.4698 18.4329C80.6687 18.9513 80.7681 19.5817 80.7681 20.3239V20.8885H74.2642V19.6953H79.2074C79.2074 19.2763 79.1222 18.9052 78.9517 18.582C78.7812 18.2553 78.5415 17.9979 78.2326 17.8097C77.9272 17.6214 77.5685 17.5273 77.1566 17.5273C76.7092 17.5273 76.3185 17.6374 75.9847 17.8576C75.6545 18.0742 75.3988 18.3583 75.2177 18.7099C75.0401 19.0579 74.9513 19.4361 74.9513 19.8445V20.7766C74.9513 21.3235 75.0472 21.7887 75.239 22.1722C75.4343 22.5558 75.706 22.8487 76.054 23.0511C76.402 23.25 76.8086 23.3494 77.2738 23.3494C77.5756 23.3494 77.8508 23.3068 78.0994 23.2216C78.348 23.1328 78.5628 23.0014 78.744 22.8274C78.9251 22.6534 79.0636 22.4386 79.1594 22.1829L80.6669 22.4545C80.5462 22.8984 80.3295 23.2873 80.017 23.6211C79.7081 23.9513 79.3192 24.2088 78.8505 24.3935C78.3853 24.5746 77.8544 24.6651 77.2578 24.6651ZM84.4479 19.642V24.5H82.8552V13.5909H84.4266V17.6499H84.5278C84.7196 17.2095 85.0126 16.8597 85.4067 16.6005C85.8009 16.3413 86.3158 16.2116 86.9515 16.2116C87.5126 16.2116 88.0026 16.3271 88.4216 16.5579C88.8442 16.7887 89.1709 17.1332 89.4018 17.5913C89.6361 18.0458 89.7533 18.614 89.7533 19.2958V24.5H88.1606V19.4876C88.1606 18.8874 88.0062 18.4222 87.6972 18.092C87.3883 17.7582 86.9586 17.5913 86.4081 17.5913C86.0317 17.5913 85.6944 17.6712 85.3961 17.831C85.1013 17.9908 84.8687 18.2251 84.6983 18.5341C84.5314 18.8395 84.4479 19.2088 84.4479 19.642ZM95.6451 24.6651C94.878 24.6651 94.2086 24.4893 93.6369 24.1378C93.0652 23.7862 92.6213 23.2944 92.3052 22.6623C91.9892 22.0302 91.8311 21.2915 91.8311 20.4464C91.8311 19.5977 91.9892 18.8555 92.3052 18.2198C92.6213 17.5842 93.0652 17.0906 93.6369 16.739C94.2086 16.3874 94.878 16.2116 95.6451 16.2116C96.4121 16.2116 97.0815 16.3874 97.6532 16.739C98.225 17.0906 98.6688 17.5842 98.9849 18.2198C99.3009 18.8555 99.459 19.5977 99.459 20.4464C99.459 21.2915 99.3009 22.0302 98.9849 22.6623C98.6688 23.2944 98.225 23.7862 97.6532 24.1378C97.0815 24.4893 96.4121 24.6651 95.6451 24.6651ZM95.6504 23.3281C96.1475 23.3281 96.5595 23.1967 96.8862 22.9339C97.2129 22.6712 97.4544 22.3214 97.6106 21.8846C97.7704 21.4478 97.8503 20.9666 97.8503 20.4411C97.8503 19.919 97.7704 19.4396 97.6106 19.0028C97.4544 18.5625 97.2129 18.2092 96.8862 17.9428C96.5595 17.6765 96.1475 17.5433 95.6504 17.5433C95.1497 17.5433 94.7342 17.6765 94.4039 17.9428C94.0772 18.2092 93.834 18.5625 93.6742 19.0028C93.5179 19.4396 93.4398 19.919 93.4398 20.4411C93.4398 20.9666 93.5179 21.4478 93.6742 21.8846C93.834 22.3214 94.0772 22.6712 94.4039 22.9339C94.7342 23.1967 95.1497 23.3281 95.6504 23.3281ZM103.149 13.5909V24.5H101.557V13.5909H103.149ZM108.675 24.6598C108.014 24.6598 107.425 24.4911 106.907 24.1538C106.392 23.8129 105.987 23.3281 105.692 22.6996C105.401 22.0675 105.255 21.3093 105.255 20.4251C105.255 19.5408 105.403 18.7844 105.697 18.1559C105.996 17.5273 106.404 17.0462 106.922 16.7124C107.441 16.3786 108.029 16.2116 108.686 16.2116C109.193 16.2116 109.602 16.2969 109.911 16.4673C110.223 16.6342 110.465 16.8295 110.635 17.0533C110.809 17.277 110.944 17.4741 111.04 17.6445H111.136V13.5909H112.729V24.5H111.173V23.2269H111.04C110.944 23.4009 110.806 23.5998 110.625 23.8235C110.447 24.0472 110.202 24.2425 109.889 24.4094C109.577 24.5763 109.172 24.6598 108.675 24.6598ZM109.027 23.3015C109.485 23.3015 109.872 23.1808 110.188 22.9393C110.507 22.6942 110.749 22.3551 110.912 21.9219C111.079 21.4886 111.163 20.9844 111.163 20.4091C111.163 19.8409 111.081 19.3437 110.918 18.9176C110.754 18.4915 110.514 18.1594 110.198 17.9215C109.882 17.6836 109.492 17.5646 109.027 17.5646C108.547 17.5646 108.148 17.6889 107.828 17.9375C107.508 18.1861 107.267 18.5252 107.104 18.9549C106.944 19.3846 106.864 19.8693 106.864 20.4091C106.864 20.956 106.946 21.4478 107.109 21.8846C107.272 22.3214 107.514 22.6676 107.833 22.9233C108.157 23.1754 108.554 23.3015 109.027 23.3015ZM118.848 24.6651C118.042 24.6651 117.348 24.4929 116.765 24.1484C116.186 23.8004 115.739 23.3121 115.423 22.6836C115.11 22.0515 114.954 21.3111 114.954 20.4624C114.954 19.6243 115.11 18.8857 115.423 18.2464C115.739 17.6072 116.179 17.1083 116.744 16.7496C117.312 16.391 117.976 16.2116 118.736 16.2116C119.198 16.2116 119.645 16.288 120.079 16.4407C120.512 16.5934 120.901 16.8331 121.245 17.1598C121.59 17.4865 121.861 17.9109 122.06 18.4329C122.259 18.9513 122.358 19.5817 122.358 20.3239V20.8885H115.854V19.6953H120.798C120.798 19.2763 120.712 18.9052 120.542 18.582C120.371 18.2553 120.132 17.9979 119.823 17.8097C119.517 17.6214 119.159 17.5273 118.747 17.5273C118.299 17.5273 117.909 17.6374 117.575 17.8576C117.245 18.0742 116.989 18.3583 116.808 18.7099C116.63 19.0579 116.542 19.4361 116.542 19.8445V20.7766C116.542 21.3235 116.637 21.7887 116.829 22.1722C117.025 22.5558 117.296 22.8487 117.644 23.0511C117.992 23.25 118.399 23.3494 118.864 23.3494C119.166 23.3494 119.441 23.3068 119.69 23.2216C119.938 23.1328 120.153 23.0014 120.334 22.8274C120.515 22.6534 120.654 22.4386 120.75 22.1829L122.257 22.4545C122.136 22.8984 121.92 23.2873 121.607 23.6211C121.298 23.9513 120.909 24.2088 120.441 24.3935C119.976 24.5746 119.445 24.6651 118.848 24.6651ZM124.445 24.5V16.3182H125.985V17.6179H126.07C126.219 17.1776 126.482 16.8313 126.858 16.5792C127.238 16.3235 127.668 16.1957 128.148 16.1957C128.247 16.1957 128.364 16.1992 128.499 16.2063C128.638 16.2134 128.746 16.2223 128.824 16.233V17.7564C128.76 17.7386 128.646 17.7191 128.483 17.6978C128.32 17.6729 128.156 17.6605 127.993 17.6605C127.617 17.6605 127.281 17.7404 126.986 17.9002C126.695 18.0565 126.464 18.2749 126.294 18.5554C126.123 18.8324 126.038 19.1484 126.038 19.5036V24.5H124.445Z" fill="#F3F4F6"/>
<path d="M165 12.75V25.25M171.25 19L158.75 19" stroke="#F3F4F6" stroke-width="1.5" stroke-linecap="round" stroke-linejoin="round"/>
</svg>
