<svg width="48" height="48" viewBox="0 0 48 48" fill="none" xmlns="http://www.w3.org/2000/svg">
<rect width="48" height="48" rx="24" fill="black"/>
<path d="M32.2582 22.7775C32.114 22.7084 31.9676 22.6419 31.8192 22.5782C31.5608 17.8172 28.9593 15.0915 24.5911 15.0636C24.5713 15.0635 24.5516 15.0635 24.5318 15.0635C21.9191 15.0635 19.7461 16.1788 18.4086 18.2082L20.811 19.8562C21.8102 18.3403 23.3782 18.0171 24.533 18.0171C24.5463 18.0171 24.5597 18.0171 24.5729 18.0172C26.0112 18.0264 27.0966 18.4446 27.799 19.2601C28.3102 19.8538 28.6521 20.6743 28.8214 21.7097C27.5462 21.493 26.1671 21.4263 24.6928 21.5108C20.5397 21.7501 17.8697 24.1722 18.0491 27.5379C18.1401 29.2452 18.9906 30.7139 20.4438 31.6734C21.6726 32.4844 23.2551 32.8811 24.8998 32.7913C27.0718 32.6722 28.7757 31.8435 29.9645 30.3282C30.8672 29.1775 31.4382 27.6863 31.6904 25.8073C32.7255 26.432 33.4926 27.2541 33.9163 28.2423C34.6367 29.9222 34.6787 32.6827 32.4263 34.9332C30.4528 36.9048 28.0806 37.7577 24.4955 37.784C20.5187 37.7545 17.511 36.4792 15.5556 33.9933C13.7244 31.6655 12.7781 28.3033 12.7428 24C12.7781 19.6966 13.7244 16.3344 15.5556 14.0067C17.511 11.5208 20.5186 10.2454 24.4954 10.2159C28.5011 10.2457 31.5612 11.5272 33.5915 14.025C34.587 15.2499 35.3376 16.7904 35.8324 18.5865L38.6477 17.8353C38.0479 15.6246 37.1041 13.7195 35.8199 12.1396C33.217 8.93724 29.4102 7.29633 24.5053 7.2623H24.4856C19.5907 7.29621 15.8265 8.94336 13.2978 12.158C11.0475 15.0186 9.88678 18.9989 9.84778 23.9882L9.84766 24L9.84778 24.0118C9.88678 29.0011 11.0475 32.9815 13.2978 35.8421C15.8265 39.0566 19.5907 40.7039 24.4856 40.7377H24.5053C28.8571 40.7075 31.9247 39.5681 34.4517 37.0434C37.7579 33.7403 37.6584 29.6 36.5687 27.0583C35.7869 25.2356 34.2964 23.7552 32.2582 22.7775ZM24.7443 29.842C22.9241 29.9445 21.033 29.1275 20.9398 27.3775C20.8707 26.08 21.8632 24.6322 24.856 24.4597C25.1987 24.44 25.5351 24.4303 25.8655 24.4303C26.9525 24.4303 27.9695 24.5359 28.8941 24.738C28.5492 29.0448 26.5264 29.7442 24.7443 29.842Z" fill="white"/>
</svg>
