<svg width="40" height="40" viewBox="0 0 40 40" fill="none" xmlns="http://www.w3.org/2000/svg">
<rect width="40" height="40" rx="20" fill="black"/>
<path d="M26.8825 18.9813C26.7623 18.9237 26.6403 18.8682 26.5166 18.8152C26.3013 14.8477 24.1334 12.5763 20.4932 12.553C20.4768 12.5529 20.4603 12.5529 20.4439 12.5529C18.2666 12.5529 16.4557 13.4823 15.3412 15.1735L17.3432 16.5468C18.1758 15.2836 19.4825 15.0143 20.4448 15.0143C20.4559 15.0143 20.4671 15.0143 20.4781 15.0144C21.6767 15.022 22.5811 15.3705 23.1665 16.0501C23.5925 16.5448 23.8774 17.2285 24.0185 18.0914C22.9558 17.9108 21.8066 17.8553 20.578 17.9257C17.1171 18.1251 14.8921 20.1435 15.0415 22.9483C15.1174 24.371 15.8261 25.5949 17.0372 26.3945C18.0611 27.0704 19.3799 27.4009 20.7505 27.3261C22.5605 27.2268 23.9804 26.5363 24.971 25.2735C25.7234 24.3146 26.1992 23.0719 26.4093 21.5061C27.2719 22.0267 27.9112 22.7117 28.2642 23.5353C28.8646 24.9352 28.8996 27.2356 27.0226 29.111C25.378 30.754 23.4011 31.4647 20.4136 31.4867C17.0995 31.4621 14.5932 30.3993 12.9636 28.3277C11.4377 26.3879 10.6491 23.5861 10.6196 20C10.6491 16.4139 11.4377 13.612 12.9636 11.6722C14.5932 9.60067 17.0995 8.53787 20.4135 8.51325C23.7516 8.53806 26.3016 9.60598 27.9935 11.6875C28.8232 12.7083 29.4487 13.992 29.861 15.4887L32.207 14.8628C31.7072 13.0205 30.9208 11.4329 29.8505 10.1163C27.6815 7.4477 24.5091 6.08027 20.4217 6.05192H20.4053C16.3262 6.08017 13.1894 7.4528 11.0821 10.1316C9.20692 12.5155 8.23963 15.8324 8.20713 19.9902L8.20703 20L8.20713 20.0098C8.23963 24.1676 9.20692 27.4846 11.0821 29.8684C13.1894 32.5472 16.3262 33.9199 20.4053 33.9481H20.4217C24.0483 33.9229 26.6046 32.9735 28.7104 30.8695C31.4656 28.1169 31.3826 24.6666 30.4746 22.5486C29.8231 21.0297 28.581 19.796 26.8825 18.9813ZM20.6209 24.8683C19.104 24.9537 17.5282 24.2729 17.4505 22.8146C17.3929 21.7333 18.22 20.5268 20.714 20.3831C20.9996 20.3666 21.2799 20.3586 21.5552 20.3586C22.4611 20.3586 23.3086 20.4466 24.0791 20.615C23.7917 24.204 22.106 24.7868 20.6209 24.8683Z" fill="white"/>
</svg>
