<svg width="40" height="40" viewBox="0 0 40 40" fill="none" xmlns="http://www.w3.org/2000/svg">
<path d="M29.7785 18.5393C29.6063 18.4567 29.4313 18.3772 29.254 18.3011C28.9452 12.6121 25.8367 9.35523 20.6171 9.3219C20.5934 9.32175 20.5699 9.32175 20.5463 9.32175C17.4243 9.32175 14.8277 10.6544 13.2296 13.0793L16.1002 15.0485C17.2941 13.2372 19.1678 12.851 20.5476 12.851C20.5636 12.851 20.5796 12.851 20.5953 12.8512C22.314 12.8621 23.6108 13.3618 24.4502 14.3363C25.061 15.0457 25.4696 16.0261 25.6719 17.2633C24.1481 17.0043 22.5002 16.9247 20.7385 17.0257C15.776 17.3116 12.5856 20.2058 12.7999 24.2275C12.9086 26.2675 13.9249 28.0225 15.6615 29.169C17.1297 30.1381 19.0206 30.6121 20.9859 30.5048C23.5813 30.3625 25.6173 29.3723 27.0377 27.5617C28.1165 26.1867 28.7988 24.4048 29.1 22.1596C30.3369 22.9061 31.2535 23.8884 31.7598 25.0692C32.6206 27.0765 32.6708 30.375 29.9794 33.0642C27.6213 35.42 24.7867 36.4392 20.5028 36.4706C15.7509 36.4354 12.157 34.9115 9.82044 31.9411C7.6324 29.1596 6.5016 25.1421 6.45942 20C6.5016 14.8579 7.6324 10.8404 9.82044 8.05892C12.157 5.08854 15.7508 3.56461 20.5028 3.52929C25.2892 3.56488 28.9456 5.09615 31.3717 8.08086C32.5613 9.54452 33.4581 11.3852 34.0494 13.5313L37.4133 12.6338C36.6967 9.99215 35.569 7.71579 34.0344 5.82794C30.9242 2.00141 26.3754 0.0406787 20.5145 2.28882e-05H20.491C14.642 0.0405375 10.1442 2.00873 7.12256 5.84988C4.43373 9.26802 3.04675 14.0241 3.00015 19.986L3 20L3.00015 20.0141C3.04675 25.9759 4.43373 30.7321 7.12256 34.1502C10.1442 37.9913 14.642 39.9596 20.491 40H20.5145C25.7146 39.964 29.38 38.6025 32.3996 35.5856C36.3502 31.6388 36.2313 26.6915 34.9292 23.6544C33.995 21.4765 32.214 19.7076 29.7785 18.5393ZM20.8001 26.9806C18.6251 27.1031 16.3655 26.1269 16.2541 24.0359C16.1715 22.4854 17.3575 20.7554 20.9336 20.5494C21.3431 20.5257 21.745 20.5142 22.1398 20.5142C23.4388 20.5142 24.654 20.6404 25.7588 20.8819C25.3467 26.0281 22.9296 26.8638 20.8001 26.9806Z" fill="black"/>
</svg>
