<svg width="48" height="48" viewBox="0 0 48 48" fill="none" xmlns="http://www.w3.org/2000/svg">
<rect width="48" height="48" rx="24" fill="black"/>
<g clip-path="url(#clip0_56_1824)">
<path d="M20.1993 36C22.4073 36 24.1993 34.208 24.1993 32V27.9999H20.1993C17.9913 27.9999 16.1992 29.792 16.1992 32C16.1992 34.208 17.9913 36 20.1993 36Z" fill="white"/>
<path d="M16.1992 24C16.1992 21.792 17.9913 19.9999 20.1993 19.9999H24.1993V27.9999H20.1993C17.9913 28 16.1992 26.208 16.1992 24Z" fill="white"/>
<path d="M16.1992 16C16.1992 13.792 17.9913 12 20.1993 12H24.1993V20H20.1993C17.9913 20 16.1992 18.208 16.1992 16Z" fill="white"/>
<path d="M24.1992 12H28.1993C30.4073 12 32.1993 13.792 32.1993 16C32.1993 18.208 30.4073 20 28.1993 20H24.1992V12Z" fill="white"/>
<path d="M32.1993 24C32.1993 26.208 30.4073 28 28.1993 28C25.9913 28 24.1992 26.208 24.1992 24C24.1992 21.792 25.9913 19.9999 28.1993 19.9999C30.4073 19.9999 32.1993 21.792 32.1993 24Z" fill="white"/>
</g>
<defs>
<clipPath id="clip0_56_1824">
<rect width="24" height="24" fill="white" transform="translate(12 12)"/>
</clipPath>
</defs>
</svg>
