<svg width="40" height="40" viewBox="0 0 40 40" fill="none" xmlns="http://www.w3.org/2000/svg">
<rect width="40" height="40" rx="20" fill="white"/>
<path d="M16.0004 33C18.3924 33 20.3338 31.0586 20.3338 28.6666V24.3333H16.0004C13.6084 24.3333 11.667 26.2746 11.667 28.6666C11.667 31.0586 13.6084 33 16.0004 33Z" fill="#0ACF83"/>
<path d="M11.667 20C11.667 17.608 13.6084 15.6666 16.0004 15.6666H20.3338V24.3332H16.0004C13.6084 24.3334 11.667 22.392 11.667 20Z" fill="#A259FF"/>
<path d="M11.667 11.3334C11.667 8.94137 13.6084 7 16.0004 7H20.3338V15.6666H16.0004C13.6084 15.6666 11.667 13.7254 11.667 11.3334Z" fill="#F24E1E"/>
<path d="M20.334 7H24.6674C27.0594 7 29.0008 8.94137 29.0008 11.3334C29.0008 13.7254 27.0594 15.6666 24.6674 15.6666H20.334V7Z" fill="#FF7262"/>
<path d="M29.0008 20C29.0008 22.392 27.0594 24.3334 24.6674 24.3334C22.2754 24.3334 20.334 22.392 20.334 20C20.334 17.608 22.2754 15.6666 24.6674 15.6666C27.0594 15.6666 29.0008 17.608 29.0008 20Z" fill="#1ABCFE"/>
</svg>
