<svg width="40" height="40" viewBox="0 0 40 40" fill="none" xmlns="http://www.w3.org/2000/svg">
<g clip-path="url(#clip0_56_1800)">
<path d="M13.6668 40C17.3468 40 20.3335 37.0133 20.3335 33.3333V26.6666H13.6668C9.98674 26.6666 7 29.6533 7 33.3333C7 37.0133 9.98674 40 13.6668 40Z" fill="black"/>
<path d="M7 20C7 16.32 9.98674 13.3332 13.6668 13.3332H20.3335V26.6665H13.6668C9.98674 26.6667 7 23.68 7 20Z" fill="black"/>
<path d="M7 6.66672C7 2.98672 9.98674 0 13.6668 0H20.3335V13.3333H13.6668C9.98674 13.3333 7 10.3467 7 6.66672Z" fill="black"/>
<path d="M20.333 0H26.9998C30.6798 0 33.6665 2.98672 33.6665 6.66672C33.6665 10.3467 30.6798 13.3333 26.9998 13.3333H20.333V0Z" fill="black"/>
<path d="M33.6665 20C33.6665 23.68 30.6798 26.6667 26.9998 26.6667C23.3197 26.6667 20.333 23.68 20.333 20C20.333 16.32 23.3197 13.3332 26.9998 13.3332C30.6798 13.3332 33.6665 16.32 33.6665 20Z" fill="black"/>
</g>
<defs>
<clipPath id="clip0_56_1800">
<rect width="40" height="40" fill="white"/>
</clipPath>
</defs>
</svg>
