<svg width="42" height="42" viewBox="0 0 42 42" fill="none" xmlns="http://www.w3.org/2000/svg">
<path d="M29 0.5C35.9036 0.5 41.5 6.09644 41.5 13V29C41.5 35.9036 35.9036 41.5 29 41.5H13C6.09644 41.5 0.5 35.9036 0.5 29V13C0.5 6.09644 6.09644 0.5 13 0.5H29Z" fill="#101828"/>
<path d="M29 0.5C35.9036 0.5 41.5 6.09644 41.5 13V29C41.5 35.9036 35.9036 41.5 29 41.5H13C6.09644 41.5 0.5 35.9036 0.5 29V13C0.5 6.09644 6.09644 0.5 13 0.5H29Z" stroke="#364153"/>
<path d="M29.25 16.5L28.6246 27.1321C28.5546 28.3214 27.5698 29.25 26.3785 29.25H15.6215C14.4302 29.25 13.4454 28.3214 13.3754 27.1321L12.75 16.5M18.9998 20.25H22.9998M12.375 16.5H29.625C30.2463 16.5 30.75 15.9963 30.75 15.375V13.875C30.75 13.2537 30.2463 12.75 29.625 12.75H12.375C11.7537 12.75 11.25 13.2537 11.25 13.875V15.375C11.25 15.9963 11.7537 16.5 12.375 16.5Z" stroke="#F3F4F6" stroke-width="2" stroke-linecap="round" stroke-linejoin="round"/>
</svg>
