<svg width="430" height="40" viewBox="0 0 430 40" fill="none" xmlns="http://www.w3.org/2000/svg">
<path d="M0 4C0 1.79086 1.79086 0 4 0H426C428.209 0 430 1.79086 430 4V36C430 38.2091 428.209 40 426 40H4C1.79086 40 0 38.2091 0 36V4Z" fill="#F3F4F6"/>
<path fill-rule="evenodd" clip-rule="evenodd" d="M16.9885 12.6737C17.3621 11.7754 18.6346 11.7754 19.0082 12.6737L20.7432 16.8451L25.2467 17.2062C26.2164 17.2839 26.6097 18.4942 25.8708 19.1271L22.4397 22.0662L23.4879 26.4608C23.7137 27.4071 22.6842 28.1551 21.8539 27.648L17.9984 25.293L14.1428 27.648C13.3126 28.1551 12.2831 27.4071 12.5088 26.4608L13.5571 22.0662L10.1259 19.1271C9.38707 18.4942 9.7803 17.2839 10.7501 17.2062L15.2535 16.8451L16.9885 12.6737Z" fill="#101828"/>
<path d="M38.8182 14.3636V26H37.4091V14.3636H38.8182ZM42.8026 20.75V26H41.4616V17.2727H42.7571V18.6364H42.8707C43.0753 18.1932 43.3859 17.8371 43.8026 17.5682C44.2192 17.2955 44.7571 17.1591 45.4162 17.1591C46.0071 17.1591 46.5241 17.2803 46.9673 17.5227C47.4105 17.7614 47.7552 18.125 48.0014 18.6136C48.2476 19.0985 48.3707 19.7121 48.3707 20.4545V26H47.0298V20.5455C47.0298 19.8598 46.8518 19.3258 46.4957 18.9432C46.1397 18.5568 45.651 18.3636 45.0298 18.3636C44.6018 18.3636 44.2192 18.4564 43.8821 18.642C43.5488 18.8277 43.2855 19.0985 43.0923 19.4545C42.8991 19.8106 42.8026 20.2424 42.8026 20.75ZM57.0028 19.2273L55.7983 19.5682C55.7225 19.3674 55.6108 19.1723 55.4631 18.983C55.3191 18.7898 55.1222 18.6307 54.8722 18.5057C54.6222 18.3807 54.3021 18.3182 53.9119 18.3182C53.3778 18.3182 52.9328 18.4413 52.5767 18.6875C52.2244 18.9299 52.0483 19.2386 52.0483 19.6136C52.0483 19.947 52.1695 20.2102 52.4119 20.4034C52.6544 20.5966 53.0331 20.7576 53.5483 20.8864L54.8438 21.2045C55.6241 21.3939 56.2055 21.6837 56.5881 22.0739C56.9706 22.4602 57.1619 22.9583 57.1619 23.5682C57.1619 24.0682 57.018 24.5152 56.7301 24.9091C56.446 25.303 56.0483 25.6136 55.5369 25.8409C55.0256 26.0682 54.4309 26.1818 53.7528 26.1818C52.8627 26.1818 52.1259 25.9886 51.5426 25.6023C50.9593 25.2159 50.59 24.6515 50.4347 23.9091L51.7074 23.5909C51.8286 24.0606 52.0578 24.4129 52.3949 24.6477C52.7358 24.8826 53.1809 25 53.7301 25C54.3551 25 54.8513 24.8674 55.2188 24.6023C55.59 24.3333 55.7756 24.0114 55.7756 23.6364C55.7756 23.3333 55.6695 23.0795 55.4574 22.875C55.2453 22.6667 54.9195 22.5114 54.4801 22.4091L53.0256 22.0682C52.2263 21.8788 51.6392 21.5852 51.2642 21.1875C50.893 20.786 50.7074 20.2841 50.7074 19.6818C50.7074 19.1894 50.8456 18.7538 51.1222 18.375C51.4025 17.9962 51.7831 17.6989 52.2642 17.483C52.7491 17.267 53.2983 17.1591 53.9119 17.1591C54.7756 17.1591 55.4536 17.3485 55.946 17.7273C56.4422 18.1061 56.7945 18.6061 57.0028 19.2273ZM62.8395 26.1818C61.9986 26.1818 61.2732 25.9962 60.6634 25.625C60.0573 25.25 59.5895 24.7273 59.2599 24.0568C58.9342 23.3826 58.7713 22.5985 58.7713 21.7045C58.7713 20.8106 58.9342 20.0227 59.2599 19.3409C59.5895 18.6553 60.0478 18.1212 60.6349 17.7386C61.2259 17.3523 61.9152 17.1591 62.7031 17.1591C63.1577 17.1591 63.6065 17.2348 64.0497 17.3864C64.4929 17.5379 64.8963 17.7841 65.2599 18.125C65.6236 18.4621 65.9134 18.9091 66.1293 19.4659C66.3452 20.0227 66.4531 20.7083 66.4531 21.5227V22.0909H59.7259V20.9318H65.0895C65.0895 20.4394 64.991 20 64.794 19.6136C64.6009 19.2273 64.3243 18.9223 63.9645 18.6989C63.6084 18.4754 63.188 18.3636 62.7031 18.3636C62.169 18.3636 61.7069 18.4962 61.3168 18.7614C60.9304 19.0227 60.633 19.3636 60.4247 19.7841C60.2164 20.2045 60.1122 20.6553 60.1122 21.1364V21.9091C60.1122 22.5682 60.2259 23.1269 60.4531 23.5852C60.6842 24.0398 61.0043 24.3864 61.4134 24.625C61.8224 24.8598 62.2978 24.9773 62.8395 24.9773C63.1918 24.9773 63.5099 24.928 63.794 24.8295C64.0819 24.7273 64.33 24.5758 64.5384 24.375C64.7467 24.1705 64.9077 23.9167 65.0213 23.6136L66.3168 23.9773C66.1804 24.4167 65.9512 24.803 65.6293 25.1364C65.3073 25.4659 64.9096 25.7235 64.4361 25.9091C63.9626 26.0909 63.4304 26.1818 62.8395 26.1818ZM68.4929 26V17.2727H69.7884V18.5909H69.8793C70.0384 18.1591 70.3262 17.8087 70.7429 17.5398C71.1596 17.2708 71.6293 17.1364 72.152 17.1364C72.2505 17.1364 72.3736 17.1383 72.5213 17.142C72.669 17.1458 72.7808 17.1515 72.8565 17.1591V18.5227C72.8111 18.5114 72.7069 18.4943 72.544 18.4716C72.3849 18.4451 72.2164 18.4318 72.0384 18.4318C71.6141 18.4318 71.2353 18.5208 70.902 18.6989C70.5724 18.8731 70.3111 19.1155 70.1179 19.4261C69.9285 19.733 69.8338 20.0833 69.8338 20.4773V26H68.4929ZM78.7884 17.2727V18.4091H74.2656V17.2727H78.7884ZM75.5838 15.1818H76.9247V23.5C76.9247 23.8788 76.9796 24.1629 77.0895 24.3523C77.2031 24.5379 77.3471 24.6629 77.5213 24.7273C77.6993 24.7879 77.8868 24.8182 78.0838 24.8182C78.2315 24.8182 78.3527 24.8106 78.4474 24.7955C78.5421 24.7765 78.6179 24.7614 78.6747 24.75L78.9474 25.9545C78.8565 25.9886 78.7296 26.0227 78.5668 26.0568C78.4039 26.0947 78.1974 26.1136 77.9474 26.1136C77.5687 26.1136 77.1974 26.0322 76.8338 25.8693C76.474 25.7064 76.1747 25.4583 75.9361 25.125C75.7012 24.7917 75.5838 24.3712 75.5838 23.8636V15.1818ZM86.169 29.2727C85.9418 29.2727 85.7391 29.2538 85.5611 29.2159C85.383 29.1818 85.2599 29.1477 85.1918 29.1136L85.5327 27.9318C85.8584 28.0152 86.1463 28.0455 86.3963 28.0227C86.6463 28 86.8679 27.8883 87.0611 27.6875C87.258 27.4905 87.438 27.1705 87.6009 26.7273L87.8509 26.0455L84.6236 17.2727H86.0781L88.4872 24.2273H88.5781L90.9872 17.2727H92.4418L88.7372 27.2727C88.5705 27.7235 88.3641 28.0966 88.1179 28.392C87.8717 28.6913 87.5857 28.9129 87.2599 29.0568C86.938 29.2008 86.5743 29.2727 86.169 29.2727ZM97.4446 26.1818C96.6567 26.1818 95.9654 25.9943 95.3707 25.6193C94.7798 25.2443 94.3177 24.7197 93.9844 24.0455C93.6548 23.3712 93.4901 22.5833 93.4901 21.6818C93.4901 20.7727 93.6548 19.9792 93.9844 19.3011C94.3177 18.6231 94.7798 18.0966 95.3707 17.7216C95.9654 17.3466 96.6567 17.1591 97.4446 17.1591C98.2325 17.1591 98.9219 17.3466 99.5128 17.7216C100.107 18.0966 100.57 18.6231 100.899 19.3011C101.232 19.9792 101.399 20.7727 101.399 21.6818C101.399 22.5833 101.232 23.3712 100.899 24.0455C100.57 24.7197 100.107 25.2443 99.5128 25.6193C98.9219 25.9943 98.2325 26.1818 97.4446 26.1818ZM97.4446 24.9773C98.0431 24.9773 98.5355 24.8239 98.9219 24.517C99.3082 24.2102 99.5942 23.8068 99.7798 23.3068C99.9654 22.8068 100.058 22.2652 100.058 21.6818C100.058 21.0985 99.9654 20.5549 99.7798 20.0511C99.5942 19.5473 99.3082 19.1402 98.9219 18.8295C98.5355 18.5189 98.0431 18.3636 97.4446 18.3636C96.8461 18.3636 96.3537 18.5189 95.9673 18.8295C95.581 19.1402 95.295 19.5473 95.1094 20.0511C94.9238 20.5549 94.831 21.0985 94.831 21.6818C94.831 22.2652 94.9238 22.8068 95.1094 23.3068C95.295 23.8068 95.581 24.2102 95.9673 24.517C96.3537 24.8239 96.8461 24.9773 97.4446 24.9773ZM108.946 22.4318V17.2727H110.287V26H108.946V24.5227H108.855C108.651 24.9659 108.332 25.3428 107.901 25.6534C107.469 25.9602 106.923 26.1136 106.264 26.1136C105.719 26.1136 105.234 25.9943 104.81 25.7557C104.385 25.5133 104.052 25.1496 103.81 24.6648C103.567 24.1761 103.446 23.5606 103.446 22.8182V17.2727H104.787V22.7273C104.787 23.3636 104.965 23.8712 105.321 24.25C105.681 24.6288 106.139 24.8182 106.696 24.8182C107.029 24.8182 107.368 24.733 107.713 24.5625C108.062 24.392 108.353 24.1307 108.588 23.7784C108.827 23.4261 108.946 22.9773 108.946 22.4318ZM112.743 26V17.2727H114.038V18.5909H114.129C114.288 18.1591 114.576 17.8087 114.993 17.5398C115.41 17.2708 115.879 17.1364 116.402 17.1364C116.5 17.1364 116.624 17.1383 116.771 17.142C116.919 17.1458 117.031 17.1515 117.107 17.1591V18.5227C117.061 18.5114 116.957 18.4943 116.794 18.4716C116.635 18.4451 116.466 18.4318 116.288 18.4318C115.864 18.4318 115.485 18.5208 115.152 18.6989C114.822 18.8731 114.561 19.1155 114.368 19.4261C114.179 19.733 114.084 20.0833 114.084 20.4773V26H112.743ZM125.764 26.2045C125.211 26.2045 124.709 26.1004 124.259 25.892C123.808 25.6799 123.45 25.375 123.185 24.9773C122.92 24.5758 122.787 24.0909 122.787 23.5227C122.787 23.0227 122.885 22.6174 123.082 22.3068C123.279 21.9924 123.543 21.7462 123.872 21.5682C124.202 21.3902 124.565 21.2576 124.963 21.1705C125.365 21.0795 125.768 21.0076 126.173 20.9545C126.704 20.8864 127.134 20.8352 127.463 20.8011C127.796 20.7633 128.039 20.7008 128.19 20.6136C128.346 20.5265 128.423 20.375 128.423 20.1591V20.1136C128.423 19.553 128.27 19.1174 127.963 18.8068C127.66 18.4962 127.2 18.3409 126.582 18.3409C125.942 18.3409 125.44 18.4811 125.077 18.7614C124.713 19.0417 124.457 19.3409 124.31 19.6591L123.037 19.2045C123.264 18.6742 123.567 18.2614 123.946 17.9659C124.329 17.6667 124.745 17.4583 125.196 17.3409C125.651 17.2197 126.098 17.1591 126.537 17.1591C126.817 17.1591 127.139 17.1932 127.503 17.2614C127.87 17.3258 128.224 17.4602 128.565 17.6648C128.91 17.8693 129.196 18.178 129.423 18.5909C129.651 19.0038 129.764 19.5568 129.764 20.25V26H128.423V24.8182H128.355C128.264 25.0076 128.113 25.2102 127.901 25.4261C127.688 25.642 127.406 25.8258 127.054 25.9773C126.702 26.1288 126.272 26.2045 125.764 26.2045ZM125.969 25C126.499 25 126.946 24.8958 127.31 24.6875C127.677 24.4792 127.954 24.2102 128.139 23.8807C128.329 23.5511 128.423 23.2045 128.423 22.8409V21.6136C128.366 21.6818 128.241 21.7443 128.048 21.8011C127.859 21.8542 127.639 21.9015 127.389 21.9432C127.143 21.9811 126.902 22.0152 126.668 22.0455C126.437 22.072 126.249 22.0947 126.105 22.1136C125.757 22.1591 125.431 22.233 125.128 22.3352C124.829 22.4337 124.586 22.5833 124.401 22.7841C124.219 22.9811 124.128 23.25 124.128 23.5909C124.128 24.0568 124.3 24.4091 124.645 24.6477C124.993 24.8826 125.435 25 125.969 25ZM133.553 14.3636V26H132.212V14.3636H133.553ZM139.668 26.1818C138.827 26.1818 138.101 25.9962 137.491 25.625C136.885 25.25 136.418 24.7273 136.088 24.0568C135.762 23.3826 135.599 22.5985 135.599 21.7045C135.599 20.8106 135.762 20.0227 136.088 19.3409C136.418 18.6553 136.876 18.1212 137.463 17.7386C138.054 17.3523 138.743 17.1591 139.531 17.1591C139.986 17.1591 140.435 17.2348 140.878 17.3864C141.321 17.5379 141.724 17.7841 142.088 18.125C142.452 18.4621 142.741 18.9091 142.957 19.4659C143.173 20.0227 143.281 20.7083 143.281 21.5227V22.0909H136.554V20.9318H141.918C141.918 20.4394 141.819 20 141.622 19.6136C141.429 19.2273 141.152 18.9223 140.793 18.6989C140.437 18.4754 140.016 18.3636 139.531 18.3636C138.997 18.3636 138.535 18.4962 138.145 18.7614C137.759 19.0227 137.461 19.3636 137.253 19.7841C137.045 20.2045 136.94 20.6553 136.94 21.1364V21.9091C136.94 22.5682 137.054 23.1269 137.281 23.5852C137.512 24.0398 137.832 24.3864 138.241 24.625C138.651 24.8598 139.126 24.9773 139.668 24.9773C140.02 24.9773 140.338 24.928 140.622 24.8295C140.91 24.7273 141.158 24.5758 141.366 24.375C141.575 24.1705 141.736 23.9167 141.849 23.6136L143.145 23.9773C143.009 24.4167 142.779 24.803 142.457 25.1364C142.135 25.4659 141.738 25.7235 141.264 25.9091C140.791 26.0909 140.259 26.1818 139.668 26.1818ZM145.321 26V17.2727H146.616V18.5909H146.707C146.866 18.1591 147.154 17.8087 147.571 17.5398C147.988 17.2708 148.457 17.1364 148.98 17.1364C149.079 17.1364 149.202 17.1383 149.349 17.142C149.497 17.1458 149.609 17.1515 149.685 17.1591V18.5227C149.639 18.5114 149.535 18.4943 149.372 18.4716C149.213 18.4451 149.045 18.4318 148.866 18.4318C148.442 18.4318 148.063 18.5208 147.73 18.6989C147.401 18.8731 147.139 19.1155 146.946 19.4261C146.757 19.733 146.662 20.0833 146.662 20.4773V26H145.321ZM155.616 17.2727V18.4091H151.094V17.2727H155.616ZM152.412 15.1818H153.753V23.5C153.753 23.8788 153.808 24.1629 153.918 24.3523C154.031 24.5379 154.175 24.6629 154.349 24.7273C154.527 24.7879 154.715 24.8182 154.912 24.8182C155.06 24.8182 155.181 24.8106 155.276 24.7955C155.37 24.7765 155.446 24.7614 155.503 24.75L155.776 25.9545C155.685 25.9886 155.558 26.0227 155.395 26.0568C155.232 26.0947 155.026 26.1136 154.776 26.1136C154.397 26.1136 154.026 26.0322 153.662 25.8693C153.302 25.7064 153.003 25.4583 152.764 25.125C152.529 24.7917 152.412 24.3712 152.412 23.8636V15.1818ZM165.929 17.2727V18.4091H161.406V17.2727H165.929ZM162.724 15.1818H164.065V23.5C164.065 23.8788 164.12 24.1629 164.23 24.3523C164.344 24.5379 164.488 24.6629 164.662 24.7273C164.84 24.7879 165.027 24.8182 165.224 24.8182C165.372 24.8182 165.493 24.8106 165.588 24.7955C165.683 24.7765 165.759 24.7614 165.815 24.75L166.088 25.9545C165.997 25.9886 165.87 26.0227 165.707 26.0568C165.545 26.0947 165.338 26.1136 165.088 26.1136C164.709 26.1136 164.338 26.0322 163.974 25.8693C163.615 25.7064 163.315 25.4583 163.077 25.125C162.842 24.7917 162.724 24.3712 162.724 23.8636V15.1818ZM167.946 26V17.2727H169.287V26H167.946ZM168.628 15.8182C168.366 15.8182 168.141 15.7292 167.952 15.5511C167.766 15.3731 167.673 15.1591 167.673 14.9091C167.673 14.6591 167.766 14.4451 167.952 14.267C168.141 14.089 168.366 14 168.628 14C168.889 14 169.113 14.089 169.298 14.267C169.488 14.4451 169.582 14.6591 169.582 14.9091C169.582 15.1591 169.488 15.3731 169.298 15.5511C169.113 15.7292 168.889 15.8182 168.628 15.8182ZM175.538 17.2727V18.4091H171.016V17.2727H175.538ZM172.334 15.1818H173.675V23.5C173.675 23.8788 173.73 24.1629 173.839 24.3523C173.953 24.5379 174.097 24.6629 174.271 24.7273C174.449 24.7879 174.637 24.8182 174.834 24.8182C174.982 24.8182 175.103 24.8106 175.197 24.7955C175.292 24.7765 175.368 24.7614 175.425 24.75L175.697 25.9545C175.607 25.9886 175.48 26.0227 175.317 26.0568C175.154 26.0947 174.947 26.1136 174.697 26.1136C174.319 26.1136 173.947 26.0322 173.584 25.8693C173.224 25.7064 172.925 25.4583 172.686 25.125C172.451 24.7917 172.334 24.3712 172.334 23.8636V15.1818ZM179.084 14.3636V26H177.743V14.3636H179.084ZM185.199 26.1818C184.358 26.1818 183.633 25.9962 183.023 25.625C182.417 25.25 181.949 24.7273 181.619 24.0568C181.294 23.3826 181.131 22.5985 181.131 21.7045C181.131 20.8106 181.294 20.0227 181.619 19.3409C181.949 18.6553 182.407 18.1212 182.994 17.7386C183.585 17.3523 184.275 17.1591 185.062 17.1591C185.517 17.1591 185.966 17.2348 186.409 17.3864C186.852 17.5379 187.256 17.7841 187.619 18.125C187.983 18.4621 188.273 18.9091 188.489 19.4659C188.705 20.0227 188.812 20.7083 188.812 21.5227V22.0909H182.085V20.9318H187.449C187.449 20.4394 187.35 20 187.153 19.6136C186.96 19.2273 186.684 18.9223 186.324 18.6989C185.968 18.4754 185.547 18.3636 185.062 18.3636C184.528 18.3636 184.066 18.4962 183.676 18.7614C183.29 19.0227 182.992 19.3636 182.784 19.7841C182.576 20.2045 182.472 20.6553 182.472 21.1364V21.9091C182.472 22.5682 182.585 23.1269 182.812 23.5852C183.044 24.0398 183.364 24.3864 183.773 24.625C184.182 24.8598 184.657 24.9773 185.199 24.9773C185.551 24.9773 185.869 24.928 186.153 24.8295C186.441 24.7273 186.689 24.5758 186.898 24.375C187.106 24.1705 187.267 23.9167 187.381 23.6136L188.676 23.9773C188.54 24.4167 188.311 24.803 187.989 25.1364C187.667 25.4659 187.269 25.7235 186.795 25.9091C186.322 26.0909 185.79 26.1818 185.199 26.1818ZM196.693 20.75V26H195.352V14.3636H196.693V18.6364H196.807C197.011 18.1856 197.318 17.8277 197.727 17.5625C198.14 17.2936 198.689 17.1591 199.375 17.1591C199.97 17.1591 200.491 17.2784 200.938 17.517C201.384 17.7519 201.731 18.1136 201.977 18.6023C202.227 19.0871 202.352 19.7045 202.352 20.4545V26H201.011V20.5455C201.011 19.8523 200.831 19.3163 200.472 18.9375C200.116 18.5549 199.621 18.3636 198.989 18.3636C198.549 18.3636 198.155 18.4564 197.807 18.642C197.462 18.8277 197.189 19.0985 196.989 19.4545C196.792 19.8106 196.693 20.2424 196.693 20.75ZM208.464 26.1818C207.624 26.1818 206.898 25.9962 206.288 25.625C205.682 25.25 205.214 24.7273 204.885 24.0568C204.559 23.3826 204.396 22.5985 204.396 21.7045C204.396 20.8106 204.559 20.0227 204.885 19.3409C205.214 18.6553 205.673 18.1212 206.26 17.7386C206.851 17.3523 207.54 17.1591 208.328 17.1591C208.783 17.1591 209.232 17.2348 209.675 17.3864C210.118 17.5379 210.521 17.7841 210.885 18.125C211.249 18.4621 211.538 18.9091 211.754 19.4659C211.97 20.0227 212.078 20.7083 212.078 21.5227V22.0909H205.351V20.9318H210.714C210.714 20.4394 210.616 20 210.419 19.6136C210.226 19.2273 209.949 18.9223 209.589 18.6989C209.233 18.4754 208.813 18.3636 208.328 18.3636C207.794 18.3636 207.332 18.4962 206.942 18.7614C206.555 19.0227 206.258 19.3636 206.05 19.7841C205.841 20.2045 205.737 20.6553 205.737 21.1364V21.9091C205.737 22.5682 205.851 23.1269 206.078 23.5852C206.309 24.0398 206.629 24.3864 207.038 24.625C207.447 24.8598 207.923 24.9773 208.464 24.9773C208.817 24.9773 209.135 24.928 209.419 24.8295C209.707 24.7273 209.955 24.5758 210.163 24.375C210.372 24.1705 210.533 23.9167 210.646 23.6136L211.942 23.9773C211.805 24.4167 211.576 24.803 211.254 25.1364C210.932 25.4659 210.535 25.7235 210.061 25.9091C209.588 26.0909 209.055 26.1818 208.464 26.1818ZM214.118 26V17.2727H215.413V18.5909H215.504C215.663 18.1591 215.951 17.8087 216.368 17.5398C216.785 17.2708 217.254 17.1364 217.777 17.1364C217.875 17.1364 217.999 17.1383 218.146 17.142C218.294 17.1458 218.406 17.1515 218.482 17.1591V18.5227C218.436 18.5114 218.332 18.4943 218.169 18.4716C218.01 18.4451 217.841 18.4318 217.663 18.4318C217.239 18.4318 216.86 18.5208 216.527 18.6989C216.197 18.8731 215.936 19.1155 215.743 19.4261C215.554 19.733 215.459 20.0833 215.459 20.4773V26H214.118ZM223.464 26.1818C222.624 26.1818 221.898 25.9962 221.288 25.625C220.682 25.25 220.214 24.7273 219.885 24.0568C219.559 23.3826 219.396 22.5985 219.396 21.7045C219.396 20.8106 219.559 20.0227 219.885 19.3409C220.214 18.6553 220.673 18.1212 221.26 17.7386C221.851 17.3523 222.54 17.1591 223.328 17.1591C223.783 17.1591 224.232 17.2348 224.675 17.3864C225.118 17.5379 225.521 17.7841 225.885 18.125C226.249 18.4621 226.538 18.9091 226.754 19.4659C226.97 20.0227 227.078 20.7083 227.078 21.5227V22.0909H220.351V20.9318H225.714C225.714 20.4394 225.616 20 225.419 19.6136C225.226 19.2273 224.949 18.9223 224.589 18.6989C224.233 18.4754 223.813 18.3636 223.328 18.3636C222.794 18.3636 222.332 18.4962 221.942 18.7614C221.555 19.0227 221.258 19.3636 221.05 19.7841C220.841 20.2045 220.737 20.6553 220.737 21.1364V21.9091C220.737 22.5682 220.851 23.1269 221.078 23.5852C221.309 24.0398 221.629 24.3864 222.038 24.625C222.447 24.8598 222.923 24.9773 223.464 24.9773C223.817 24.9773 224.135 24.928 224.419 24.8295C224.707 24.7273 224.955 24.5758 225.163 24.375C225.372 24.1705 225.533 23.9167 225.646 23.6136L226.942 23.9773C226.805 24.4167 226.576 24.803 226.254 25.1364C225.932 25.4659 225.535 25.7235 225.061 25.9091C224.588 26.0909 224.055 26.1818 223.464 26.1818ZM230.891 14.3636L230.777 22.7273H229.459L229.345 14.3636H230.891ZM230.118 26.0909C229.838 26.0909 229.597 25.9905 229.396 25.7898C229.196 25.589 229.095 25.3485 229.095 25.0682C229.095 24.7879 229.196 24.5473 229.396 24.3466C229.597 24.1458 229.838 24.0455 230.118 24.0455C230.398 24.0455 230.639 24.1458 230.839 24.3466C231.04 24.5473 231.141 24.7879 231.141 25.0682C231.141 25.2538 231.093 25.4242 230.999 25.5795C230.908 25.7348 230.785 25.8598 230.629 25.9545C230.478 26.0455 230.307 26.0909 230.118 26.0909Z" fill="#101828"/>
<path d="M305.761 14.3636H307.523V22.017C307.523 22.8314 307.331 23.553 306.949 24.1818C306.566 24.8068 306.028 25.2992 305.335 25.6591C304.642 26.0152 303.83 26.1932 302.898 26.1932C301.97 26.1932 301.159 26.0152 300.466 25.6591C299.773 25.2992 299.235 24.8068 298.852 24.1818C298.47 23.553 298.278 22.8314 298.278 22.017V14.3636H300.034V21.875C300.034 22.4015 300.15 22.8693 300.381 23.2784C300.616 23.6875 300.947 24.0095 301.375 24.2443C301.803 24.4754 302.311 24.5909 302.898 24.5909C303.489 24.5909 303.998 24.4754 304.426 24.2443C304.858 24.0095 305.188 23.6875 305.415 23.2784C305.646 22.8693 305.761 22.4015 305.761 21.875V14.3636ZM310.259 29.2727V17.2727H311.918V18.6875H312.06C312.159 18.5057 312.301 18.2955 312.486 18.0568C312.672 17.8182 312.929 17.6098 313.259 17.4318C313.588 17.25 314.024 17.1591 314.566 17.1591C315.27 17.1591 315.899 17.3371 316.452 17.6932C317.005 18.0492 317.439 18.5625 317.753 19.233C318.071 19.9034 318.231 20.7102 318.231 21.6534C318.231 22.5966 318.073 23.4053 317.759 24.0795C317.445 24.75 317.013 25.267 316.463 25.6307C315.914 25.9905 315.287 26.1705 314.583 26.1705C314.052 26.1705 313.619 26.0814 313.282 25.9034C312.948 25.7254 312.687 25.517 312.498 25.2784C312.308 25.0398 312.162 24.8277 312.06 24.642H311.958V29.2727H310.259ZM311.924 21.6364C311.924 22.25 312.013 22.7879 312.191 23.25C312.369 23.7121 312.626 24.0739 312.963 24.3352C313.301 24.5928 313.713 24.7216 314.202 24.7216C314.71 24.7216 315.134 24.5871 315.475 24.3182C315.816 24.0455 316.073 23.6761 316.248 23.2102C316.426 22.7443 316.515 22.2197 316.515 21.6364C316.515 21.0606 316.427 20.5436 316.253 20.0852C316.083 19.6269 315.825 19.2652 315.481 19C315.14 18.7348 314.713 18.6023 314.202 18.6023C313.71 18.6023 313.293 18.7292 312.952 18.983C312.615 19.2367 312.359 19.5909 312.185 20.0455C312.011 20.5 311.924 21.0303 311.924 21.6364ZM324.113 29.4545C323.42 29.4545 322.823 29.3636 322.323 29.1818C321.827 29 321.422 28.7595 321.107 28.4602C320.793 28.161 320.558 27.8333 320.403 27.4773L321.863 26.875C321.965 27.0417 322.102 27.2178 322.272 27.4034C322.446 27.5928 322.681 27.7538 322.977 27.8864C323.276 28.0189 323.66 28.0852 324.13 28.0852C324.774 28.0852 325.306 27.928 325.727 27.6136C326.147 27.303 326.357 26.8068 326.357 26.125V24.4091H326.249C326.147 24.5947 325.999 24.8011 325.806 25.0284C325.617 25.2557 325.355 25.4527 325.022 25.6193C324.689 25.786 324.255 25.8693 323.721 25.8693C323.032 25.8693 322.41 25.7083 321.857 25.3864C321.308 25.0606 320.872 24.5814 320.551 23.9489C320.232 23.3125 320.073 22.5303 320.073 21.6023C320.073 20.6742 320.23 19.8788 320.545 19.2159C320.863 18.553 321.299 18.0455 321.852 17.6932C322.405 17.3371 323.032 17.1591 323.732 17.1591C324.274 17.1591 324.711 17.25 325.045 17.4318C325.378 17.6098 325.638 17.8182 325.823 18.0568C326.013 18.2955 326.158 18.5057 326.261 18.6875H326.386V17.2727H328.051V26.1932C328.051 26.9432 327.876 27.5587 327.528 28.0398C327.179 28.5208 326.708 28.8769 326.113 29.108C325.522 29.339 324.855 29.4545 324.113 29.4545ZM324.096 24.4602C324.585 24.4602 324.997 24.3466 325.335 24.1193C325.676 23.8883 325.933 23.5587 326.107 23.1307C326.285 22.6989 326.374 22.1818 326.374 21.5795C326.374 20.9924 326.287 20.4754 326.113 20.0284C325.939 19.5814 325.683 19.233 325.346 18.983C325.009 18.7292 324.592 18.6023 324.096 18.6023C323.585 18.6023 323.158 18.7348 322.818 19C322.477 19.2614 322.219 19.6174 322.045 20.0682C321.874 20.5189 321.789 21.0227 321.789 21.5795C321.789 22.1515 321.876 22.6534 322.051 23.0852C322.225 23.517 322.482 23.8542 322.823 24.0966C323.168 24.339 323.592 24.4602 324.096 24.4602ZM330.649 26V17.2727H332.291V18.6591H332.382C332.541 18.1894 332.821 17.8201 333.223 17.5511C333.628 17.2784 334.086 17.142 334.598 17.142C334.704 17.142 334.829 17.1458 334.973 17.1534C335.121 17.161 335.236 17.1705 335.319 17.1818V18.8068C335.251 18.7879 335.13 18.767 334.956 18.7443C334.781 18.7178 334.607 18.7045 334.433 18.7045C334.031 18.7045 333.674 18.7898 333.359 18.9602C333.049 19.1269 332.802 19.3598 332.621 19.6591C332.439 19.9545 332.348 20.2917 332.348 20.6705V26H330.649ZM339.571 26.1932C339.018 26.1932 338.518 26.0909 338.071 25.8864C337.624 25.678 337.27 25.3769 337.009 24.983C336.751 24.589 336.622 24.1061 336.622 23.5341C336.622 23.0417 336.717 22.6364 336.906 22.3182C337.096 22 337.351 21.7481 337.673 21.5625C337.995 21.3769 338.355 21.2367 338.753 21.142C339.151 21.0473 339.556 20.9754 339.969 20.9261C340.492 20.8655 340.916 20.8163 341.242 20.7784C341.567 20.7367 341.804 20.6705 341.952 20.5795C342.1 20.4886 342.173 20.3409 342.173 20.1364V20.0966C342.173 19.6004 342.033 19.2159 341.753 18.9432C341.476 18.6705 341.064 18.5341 340.514 18.5341C339.942 18.5341 339.492 18.661 339.162 18.9148C338.836 19.1648 338.611 19.4432 338.486 19.75L336.889 19.3864C337.079 18.8561 337.355 18.428 337.719 18.1023C338.086 17.7727 338.509 17.5341 338.986 17.3864C339.463 17.2348 339.965 17.1591 340.492 17.1591C340.84 17.1591 341.209 17.2008 341.6 17.2841C341.994 17.3636 342.361 17.5114 342.702 17.7273C343.047 17.9432 343.329 18.2519 343.548 18.6534C343.768 19.0511 343.878 19.5682 343.878 20.2045V26H342.219V24.8068H342.151C342.041 25.0265 341.876 25.2424 341.656 25.4545C341.437 25.6667 341.155 25.8428 340.81 25.983C340.465 26.1231 340.052 26.1932 339.571 26.1932ZM339.941 24.8295C340.41 24.8295 340.812 24.7367 341.145 24.5511C341.482 24.3655 341.738 24.1231 341.912 23.8239C342.09 23.5208 342.179 23.197 342.179 22.8523V21.7273C342.119 21.7879 342.001 21.8447 341.827 21.8977C341.656 21.947 341.461 21.9905 341.242 22.0284C341.022 22.0625 340.808 22.0947 340.6 22.125C340.391 22.1515 340.217 22.1742 340.077 22.1932C339.747 22.2348 339.446 22.3049 339.173 22.4034C338.905 22.5019 338.689 22.6439 338.526 22.8295C338.367 23.0114 338.287 23.2538 338.287 23.5568C338.287 23.9773 338.442 24.2955 338.753 24.5114C339.064 24.7235 339.459 24.8295 339.941 24.8295ZM349.728 26.1705C349.023 26.1705 348.395 25.9905 347.841 25.6307C347.292 25.267 346.86 24.75 346.546 24.0795C346.235 23.4053 346.08 22.5966 346.08 21.6534C346.08 20.7102 346.237 19.9034 346.552 19.233C346.87 18.5625 347.305 18.0492 347.859 17.6932C348.412 17.3371 349.038 17.1591 349.739 17.1591C350.281 17.1591 350.716 17.25 351.046 17.4318C351.379 17.6098 351.637 17.8182 351.819 18.0568C352.004 18.2955 352.148 18.5057 352.251 18.6875H352.353V14.3636H354.052V26H352.393V24.642H352.251C352.148 24.8277 352.001 25.0398 351.807 25.2784C351.618 25.517 351.357 25.7254 351.023 25.9034C350.69 26.0814 350.258 26.1705 349.728 26.1705ZM350.103 24.7216C350.591 24.7216 351.004 24.5928 351.341 24.3352C351.682 24.0739 351.94 23.7121 352.114 23.25C352.292 22.7879 352.381 22.25 352.381 21.6364C352.381 21.0303 352.294 20.5 352.12 20.0455C351.946 19.5909 351.69 19.2367 351.353 18.983C351.016 18.7292 350.599 18.6023 350.103 18.6023C349.591 18.6023 349.165 18.7348 348.824 19C348.484 19.2652 348.226 19.6269 348.052 20.0852C347.881 20.5436 347.796 21.0606 347.796 21.6364C347.796 22.2197 347.883 22.7443 348.057 23.2102C348.232 23.6761 348.489 24.0455 348.83 24.3182C349.175 24.5871 349.599 24.7216 350.103 24.7216ZM360.558 26.1761C359.698 26.1761 358.957 25.9924 358.336 25.625C357.719 25.2538 357.241 24.733 356.904 24.0625C356.571 23.3883 356.404 22.5985 356.404 21.6932C356.404 20.7992 356.571 20.0114 356.904 19.3295C357.241 18.6477 357.711 18.1155 358.313 17.733C358.92 17.3504 359.628 17.1591 360.438 17.1591C360.931 17.1591 361.408 17.2405 361.87 17.4034C362.332 17.5663 362.747 17.822 363.115 18.1705C363.482 18.5189 363.772 18.9716 363.984 19.5284C364.196 20.0814 364.302 20.7538 364.302 21.5455V22.1477H357.365V20.875H362.637C362.637 20.428 362.546 20.0322 362.365 19.6875C362.183 19.339 361.927 19.0644 361.598 18.8636C361.272 18.6629 360.889 18.5625 360.45 18.5625C359.973 18.5625 359.556 18.6799 359.2 18.9148C358.848 19.1458 358.575 19.4489 358.382 19.8239C358.192 20.1951 358.098 20.5985 358.098 21.0341V22.0284C358.098 22.6117 358.2 23.108 358.404 23.517C358.613 23.9261 358.902 24.2386 359.274 24.4545C359.645 24.6667 360.079 24.7727 360.575 24.7727C360.897 24.7727 361.19 24.7273 361.456 24.6364C361.721 24.5417 361.95 24.4015 362.143 24.2159C362.336 24.0303 362.484 23.8011 362.586 23.5284L364.194 23.8182C364.065 24.2917 363.834 24.7064 363.501 25.0625C363.171 25.4148 362.757 25.6894 362.257 25.8864C361.76 26.0795 361.194 26.1761 360.558 26.1761Z" fill="#101828"/>
<path d="M297 30H365.052V31.0909H297V30Z" fill="#101828"/>
<path fill-rule="evenodd" clip-rule="evenodd" d="M386.058 12.0581C386.302 11.814 386.698 11.814 386.942 12.0581L391.942 17.0581C392.186 17.3021 392.186 17.6979 391.942 17.9419L386.942 22.9419C386.698 23.186 386.302 23.186 386.058 22.9419C385.814 22.6979 385.814 22.3021 386.058 22.0581L389.991 18.125H381.5C379.084 18.125 377.125 20.0838 377.125 22.5C377.125 24.9162 379.084 26.875 381.5 26.875H384C384.345 26.875 384.625 27.1548 384.625 27.5C384.625 27.8452 384.345 28.125 384 28.125H381.5C378.393 28.125 375.875 25.6066 375.875 22.5C375.875 19.3934 378.393 16.875 381.5 16.875H389.991L386.058 12.9419C385.814 12.6979 385.814 12.3021 386.058 12.0581Z" fill="#101828"/>
<path fill-rule="evenodd" clip-rule="evenodd" d="M406.558 14.5581C406.802 14.314 407.198 14.314 407.442 14.5581L412 19.1161L416.558 14.5581C416.802 14.314 417.198 14.314 417.442 14.5581C417.686 14.8021 417.686 15.1979 417.442 15.4419L412.884 20L417.442 24.5581C417.686 24.8021 417.686 25.1979 417.442 25.4419C417.198 25.686 416.802 25.686 416.558 25.4419L412 20.8839L407.442 25.4419C407.198 25.686 406.802 25.686 406.558 25.4419C406.314 25.1979 406.314 24.8021 406.558 24.5581L411.116 20L406.558 15.4419C406.314 15.1979 406.314 14.8021 406.558 14.5581Z" fill="#101828"/>
</svg>
