<svg width="48" height="48" viewBox="0 0 48 48" fill="none" xmlns="http://www.w3.org/2000/svg">
<rect width="48" height="48" rx="24" fill="black"/>
<path fill-rule="evenodd" clip-rule="evenodd" d="M14.0374 22.2933C20.2389 19.5914 24.3742 17.8101 26.4433 16.9495C32.351 14.4923 33.5786 14.0655 34.3787 14.0514C34.5546 14.0483 34.9481 14.0919 35.203 14.2987C35.4182 14.4733 35.4774 14.7092 35.5058 14.8748C35.5341 15.0404 35.5694 15.4175 35.5413 15.7122C35.2212 19.076 33.8359 27.2389 33.1312 31.0064C32.833 32.6005 32.2458 33.135 31.6774 33.1873C30.442 33.301 29.504 32.3709 28.3075 31.5866C26.4352 30.3593 25.3774 29.5953 23.5601 28.3977C21.4598 27.0136 22.8213 26.2529 24.0183 25.0097C24.3315 24.6843 29.7745 19.7335 29.8799 19.2844C29.893 19.2282 29.9053 19.0188 29.7809 18.9083C29.6565 18.7977 29.4729 18.8355 29.3404 18.8656C29.1527 18.9082 26.1616 20.8852 20.3674 24.7964C19.5184 25.3794 18.7494 25.6634 18.0604 25.6486C17.3009 25.6322 15.8398 25.2191 14.7537 24.866C13.4214 24.433 12.3626 24.204 12.4548 23.4686C12.5028 23.0855 13.0304 22.6937 14.0374 22.2933Z" fill="white"/>
</svg>
