<svg width="40" height="40" viewBox="0 0 40 40" fill="none" xmlns="http://www.w3.org/2000/svg">
<path fill-rule="evenodd" clip-rule="evenodd" d="M3.39499 18.8221C13.7308 14.319 20.623 11.3502 24.0715 9.91589C33.9177 5.82053 35.9636 5.10912 37.2971 5.08563C37.5904 5.08046 38.2462 5.15315 38.671 5.49784C39.0297 5.78889 39.1284 6.18205 39.1756 6.458C39.2228 6.73395 39.2816 7.36256 39.2349 7.85374C38.7013 13.46 36.3926 27.0648 35.218 33.3439C34.721 36.0008 33.7424 36.8917 32.795 36.9789C30.7361 37.1683 29.1726 35.6182 27.1785 34.311C24.058 32.2655 22.2951 30.9921 19.2661 28.9961C15.7656 26.6893 18.0348 25.4215 20.0298 23.3495C20.5519 22.8072 29.6235 14.5558 29.7991 13.8073C29.8211 13.7137 29.8415 13.3647 29.6342 13.1804C29.4269 12.9962 29.1209 13.0592 28.9001 13.1093C28.5871 13.1803 23.6021 16.4753 13.945 22.994C12.53 23.9657 11.2484 24.4391 10.1001 24.4143C8.83416 24.3869 6.39904 23.6985 4.58877 23.1101C2.36841 22.3883 0.603709 22.0067 0.757375 20.781C0.837413 20.1425 1.71662 19.4896 3.39499 18.8221Z" fill="url(#paint0_linear_56_1727)"/>
<defs>
<linearGradient id="paint0_linear_56_1727" x1="20" y1="5.08538" x2="20" y2="36.758" gradientUnits="userSpaceOnUse">
<stop stop-color="#2AABEE"/>
<stop offset="1" stop-color="#229ED9"/>
</linearGradient>
</defs>
</svg>
