<svg width="48" height="48" viewBox="0 0 48 48" fill="none" xmlns="http://www.w3.org/2000/svg">
<rect width="48" height="48" rx="24" fill="black"/>
<g clip-path="url(#clip0_56_1843)">
<path fill-rule="evenodd" clip-rule="evenodd" d="M35.52 24.2727C35.52 23.4218 35.4436 22.6036 35.3018 21.8182H24V26.46H30.4582C30.18 27.96 29.3345 29.2309 28.0636 30.0818V33.0927H31.9418C34.2109 31.0037 35.52 27.9273 35.52 24.2727Z" fill="white"/>
<path fill-rule="evenodd" clip-rule="evenodd" d="M24.001 36C27.241 36 29.9573 34.9254 31.9428 33.0927L28.0646 30.0818C26.9901 30.8018 25.6155 31.2273 24.001 31.2273C20.8755 31.2273 18.2301 29.1164 17.2864 26.28H13.2773V29.3891C15.2519 33.3109 19.3101 36 24.001 36Z" fill="white"/>
<path fill-rule="evenodd" clip-rule="evenodd" d="M17.2855 26.28C17.0455 25.56 16.9091 24.7909 16.9091 24C16.9091 23.2091 17.0455 22.44 17.2855 21.72V18.6109H13.2764C12.4636 20.2309 12 22.0636 12 24C12 25.9364 12.4636 27.7691 13.2764 29.3891L17.2855 26.28Z" fill="white"/>
<path fill-rule="evenodd" clip-rule="evenodd" d="M24.001 16.7727C25.7628 16.7727 27.3446 17.3782 28.5883 18.5673L32.0301 15.1255C29.9519 13.1891 27.2355 12 24.001 12C19.3101 12 15.2519 14.6891 13.2773 18.6109L17.2864 21.72C18.2301 18.8836 20.8755 16.7727 24.001 16.7727Z" fill="white"/>
</g>
<defs>
<clipPath id="clip0_56_1843">
<rect width="24" height="24" fill="white" transform="translate(12 12)"/>
</clipPath>
</defs>
</svg>
