<svg width="40" height="40" viewBox="0 0 40 40" fill="none" xmlns="http://www.w3.org/2000/svg">
<rect width="40" height="40" rx="20" fill="white"/>
<path fill-rule="evenodd" clip-rule="evenodd" d="M32.3403 20.2955C32.3403 19.3736 32.2576 18.4873 32.104 17.6364H19.8604V22.665H26.8567C26.5553 24.29 25.6394 25.6668 24.2626 26.5886V29.8505H28.464C30.9222 27.5873 32.3403 24.2545 32.3403 20.2955Z" fill="#4285F4"/>
<path fill-rule="evenodd" clip-rule="evenodd" d="M19.8604 33C23.3704 33 26.3132 31.8359 28.4641 29.8504L24.2627 26.5886C23.0986 27.3686 21.6095 27.8295 19.8604 27.8295C16.4745 27.8295 13.6086 25.5427 12.5863 22.47H8.24316V25.8382C10.3823 30.0868 14.7786 33 19.8604 33Z" fill="#34A853"/>
<path fill-rule="evenodd" clip-rule="evenodd" d="M12.5863 22.47C12.3263 21.69 12.1785 20.8568 12.1785 20C12.1785 19.1432 12.3263 18.31 12.5863 17.53V14.1618H8.24308C7.36262 15.9168 6.86035 17.9023 6.86035 20C6.86035 22.0977 7.36262 24.0832 8.24308 25.8382L12.5863 22.47Z" fill="#FBBC05"/>
<path fill-rule="evenodd" clip-rule="evenodd" d="M19.8604 12.1705C21.7691 12.1705 23.4827 12.8264 24.83 14.1145L28.5586 10.3859C26.3073 8.28818 23.3645 7 19.8604 7C14.7786 7 10.3823 9.91318 8.24316 14.1618L12.5863 17.53C13.6086 14.4573 16.4745 12.1705 19.8604 12.1705Z" fill="#EA4335"/>
</svg>
