<svg width="40" height="40" viewBox="0 0 40 40" fill="none" xmlns="http://www.w3.org/2000/svg">
<g clip-path="url(#clip0_56_1790)">
<path fill-rule="evenodd" clip-rule="evenodd" d="M39.2 20.4546C39.2 19.0364 39.0727 17.6728 38.8364 16.3637H20V24.1H30.7636C30.3 26.6 28.8909 28.7182 26.7727 30.1364V35.1546H33.2364C37.0182 31.6728 39.2 26.5455 39.2 20.4546Z" fill="black"/>
<path fill-rule="evenodd" clip-rule="evenodd" d="M19.9997 40C25.3997 40 29.927 38.2091 33.236 35.1545L26.7724 30.1363C24.9815 31.3363 22.6906 32.0454 19.9997 32.0454C14.7906 32.0454 10.3815 28.5273 8.80877 23.8H2.12695V28.9818C5.41786 35.5182 12.1815 40 19.9997 40Z" fill="black"/>
<path fill-rule="evenodd" clip-rule="evenodd" d="M8.80909 23.8C8.40909 22.6 8.18182 21.3182 8.18182 20C8.18182 18.6818 8.40909 17.4 8.80909 16.2V11.0182H2.12727C0.772727 13.7182 0 16.7727 0 20C0 23.2273 0.772727 26.2818 2.12727 28.9818L8.80909 23.8Z" fill="black"/>
<path fill-rule="evenodd" clip-rule="evenodd" d="M19.9997 7.95455C22.936 7.95455 25.5724 8.96364 27.6451 10.9455L33.3815 5.20909C29.9179 1.98182 25.3906 0 19.9997 0C12.1815 0 5.41786 4.48182 2.12695 11.0182L8.80877 16.2C10.3815 11.4727 14.7906 7.95455 19.9997 7.95455Z" fill="black"/>
</g>
<defs>
<clipPath id="clip0_56_1790">
<rect width="40" height="40" fill="white"/>
</clipPath>
</defs>
</svg>
