<svg width="188" height="51" viewBox="0 0 188 51" fill="none" xmlns="http://www.w3.org/2000/svg">
<path d="M4 19.5C4 10.6634 11.1634 3.5 20 3.5H168C176.837 3.5 184 10.6634 184 19.5V31.5C184 40.3366 176.837 47.5 168 47.5H20C11.1634 47.5 4 40.3366 4 31.5V19.5Z" fill="#2B7FFF"/>
<path d="M40 18V33M47.5 25.5L32.5 25.5" stroke="#030713" stroke-width="2" stroke-linecap="round" stroke-linejoin="round"/>
<path d="M65.2912 32V18.9091H70.3026C71.2486 18.9091 72.0348 19.0582 72.6612 19.3565C73.2919 19.6506 73.7628 20.0533 74.0739 20.5646C74.3892 21.076 74.5469 21.6555 74.5469 22.3033C74.5469 22.8359 74.4446 23.2919 74.2401 23.6712C74.0355 24.0462 73.7607 24.3509 73.4155 24.5852C73.0703 24.8196 72.6847 24.9879 72.2585 25.0902V25.218C72.723 25.2436 73.1683 25.3864 73.5945 25.6463C74.0249 25.902 74.3764 26.2642 74.6491 26.733C74.9219 27.2017 75.0582 27.7685 75.0582 28.4332C75.0582 29.1108 74.8942 29.7202 74.5661 30.2614C74.2379 30.7983 73.7436 31.2223 73.0831 31.5334C72.4226 31.8445 71.5916 32 70.5902 32H65.2912ZM67.6626 30.0185H70.2131C71.0739 30.0185 71.6939 29.8544 72.0732 29.5263C72.4567 29.1939 72.6484 28.7678 72.6484 28.2479C72.6484 27.8601 72.5526 27.5107 72.3608 27.1996C72.169 26.8842 71.8963 26.6371 71.5426 26.4581C71.1889 26.2749 70.767 26.1832 70.277 26.1832H67.6626V30.0185ZM67.6626 24.4766H70.0085C70.4176 24.4766 70.7862 24.402 71.1143 24.2528C71.4425 24.0994 71.7003 23.8842 71.8878 23.6072C72.0795 23.326 72.1754 22.9936 72.1754 22.6101C72.1754 22.103 71.9964 21.6854 71.6385 21.3572C71.2848 21.0291 70.7585 20.8651 70.0597 20.8651H67.6626V24.4766ZM83.5968 27.8707V22.1818H85.9107V32H83.6671V30.255H83.5649C83.3433 30.8047 82.9789 31.2543 82.4718 31.6037C81.969 31.9531 81.3489 32.1278 80.6117 32.1278C79.9683 32.1278 79.3994 31.9851 78.905 31.6996C78.415 31.4098 78.0315 30.9901 77.7545 30.4403C77.4775 29.8864 77.339 29.2173 77.339 28.4332V22.1818H79.6529V28.0753C79.6529 28.6974 79.8234 29.1918 80.1643 29.5582C80.5052 29.9247 80.9526 30.108 81.5066 30.108C81.8475 30.108 82.1778 30.0249 82.4974 29.8587C82.817 29.6925 83.0791 29.4453 83.2836 29.1172C83.4924 28.7848 83.5968 28.3693 83.5968 27.8707ZM93.5129 22.1818V23.9716H87.8687V22.1818H93.5129ZM89.2622 19.8295H91.5761V29.0469C91.5761 29.358 91.623 29.5966 91.7167 29.7628C91.8147 29.9247 91.9426 30.0355 92.1002 30.0952C92.2579 30.1548 92.4326 30.1847 92.6244 30.1847C92.7693 30.1847 92.9014 30.174 93.0207 30.1527C93.1443 30.1314 93.238 30.1122 93.3019 30.0952L93.6918 31.9041C93.5683 31.9467 93.3914 31.9936 93.1613 32.0447C92.9355 32.0959 92.6585 32.1257 92.3303 32.1342C91.7508 32.1513 91.2288 32.0639 90.7643 31.8722C90.2998 31.6761 89.9312 31.3736 89.6585 30.9645C89.39 30.5554 89.2579 30.044 89.2622 29.4304V19.8295ZM100.671 22.1818V23.9716H95.0266V22.1818H100.671ZM96.42 19.8295H98.734V29.0469C98.734 29.358 98.7808 29.5966 98.8746 29.7628C98.9726 29.9247 99.1004 30.0355 99.2581 30.0952C99.4158 30.1548 99.5905 30.1847 99.7823 30.1847C99.9272 30.1847 100.059 30.174 100.179 30.1527C100.302 30.1314 100.396 30.1122 100.46 30.0952L100.85 31.9041C100.726 31.9467 100.549 31.9936 100.319 32.0447C100.093 32.0959 99.8164 32.1257 99.4882 32.1342C98.9087 32.1513 98.3867 32.0639 97.9222 31.8722C97.4577 31.6761 97.0891 31.3736 96.8164 30.9645C96.5479 30.5554 96.4158 30.044 96.42 29.4304V19.8295ZM107.103 32.1918C106.144 32.1918 105.313 31.9808 104.61 31.5589C103.907 31.1371 103.362 30.5469 102.974 29.7884C102.59 29.0298 102.399 28.1435 102.399 27.1293C102.399 26.1151 102.59 25.2266 102.974 24.4638C103.362 23.701 103.907 23.1087 104.61 22.6868C105.313 22.2649 106.144 22.054 107.103 22.054C108.062 22.054 108.893 22.2649 109.596 22.6868C110.299 23.1087 110.842 23.701 111.226 24.4638C111.614 25.2266 111.808 26.1151 111.808 27.1293C111.808 28.1435 111.614 29.0298 111.226 29.7884C110.842 30.5469 110.299 31.1371 109.596 31.5589C108.893 31.9808 108.062 32.1918 107.103 32.1918ZM107.116 30.3381C107.636 30.3381 108.07 30.1953 108.42 29.9098C108.769 29.62 109.029 29.2322 109.2 28.7464C109.374 28.2607 109.462 27.7195 109.462 27.1229C109.462 26.522 109.374 25.9787 109.2 25.4929C109.029 25.0028 108.769 24.6129 108.42 24.3232C108.07 24.0334 107.636 23.8885 107.116 23.8885C106.583 23.8885 106.14 24.0334 105.786 24.3232C105.437 24.6129 105.175 25.0028 105 25.4929C104.83 25.9787 104.744 26.522 104.744 27.1229C104.744 27.7195 104.83 28.2607 105 28.7464C105.175 29.2322 105.437 29.62 105.786 29.9098C106.14 30.1953 106.583 30.3381 107.116 30.3381ZM116.406 26.2472V32H114.092V22.1818H116.303V23.8501H116.418C116.644 23.3004 117.004 22.8636 117.499 22.5398C117.997 22.2159 118.613 22.054 119.346 22.054C120.023 22.054 120.614 22.1989 121.117 22.4886C121.624 22.7784 122.016 23.1982 122.293 23.7479C122.574 24.2976 122.712 24.9645 122.708 25.7486V32H120.394V26.1065C120.394 25.4503 120.224 24.9368 119.883 24.5661C119.546 24.1953 119.08 24.0099 118.483 24.0099C118.078 24.0099 117.718 24.0994 117.403 24.2784C117.092 24.4531 116.847 24.7067 116.668 25.0391C116.493 25.3714 116.406 25.7741 116.406 26.2472Z" fill="#030713"/>
<path d="M148 18V33M155.5 25.5L140.5 25.5" stroke="#030713" stroke-width="2" stroke-linecap="round" stroke-linejoin="round"/>
<path d="M170 1C179.389 1 187 8.61116 187 18V33C187 42.3888 179.389 50 170 50H18C8.61116 50 1 42.3888 1 33V18C1 8.61116 8.61116 1 18 1H170Z" stroke="#2B7FFF" stroke-width="2"/>
</svg>
