<svg width="182" height="46" viewBox="0 0 182 46" fill="none" xmlns="http://www.w3.org/2000/svg">
<path d="M165 0.5C174.113 0.5 181.5 7.8873 181.5 17V29C181.5 38.1127 174.113 45.5 165 45.5H17C7.8873 45.5 0.5 38.1127 0.5 29V17C0.5 7.8873 7.8873 0.5 17 0.5H165Z" fill="#F9FAFB"/>
<path d="M165 0.5C174.113 0.5 181.5 7.8873 181.5 17V29C181.5 38.1127 174.113 45.5 165 45.5H17C7.8873 45.5 0.5 38.1127 0.5 29V17C0.5 7.8873 7.8873 0.5 17 0.5H165Z" stroke="#99A1AF"/>
<path d="M45.25 18.5L44.6246 29.1321C44.5546 30.3214 43.5698 31.25 42.3785 31.25H31.6215C30.4302 31.25 29.4454 30.3214 29.3754 29.1321L28.75 18.5M34.9998 22.25H38.9998M28.375 18.5H45.625C46.2463 18.5 46.75 17.9963 46.75 17.375V15.875C46.75 15.2537 46.2463 14.75 45.625 14.75H28.375C27.7537 14.75 27.25 15.2537 27.25 15.875V17.375C27.25 17.9963 27.7537 18.5 28.375 18.5Z" stroke="#101828" stroke-width="2" stroke-linecap="round" stroke-linejoin="round"/>
<path d="M62.2912 29.5V16.4091H67.3026C68.2486 16.4091 69.0348 16.5582 69.6612 16.8565C70.2919 17.1506 70.7628 17.5533 71.0739 18.0646C71.3892 18.576 71.5469 19.1555 71.5469 19.8033C71.5469 20.3359 71.4446 20.7919 71.2401 21.1712C71.0355 21.5462 70.7607 21.8509 70.4155 22.0852C70.0703 22.3196 69.6847 22.4879 69.2585 22.5902V22.718C69.723 22.7436 70.1683 22.8864 70.5945 23.1463C71.0249 23.402 71.3764 23.7642 71.6491 24.233C71.9219 24.7017 72.0582 25.2685 72.0582 25.9332C72.0582 26.6108 71.8942 27.2202 71.5661 27.7614C71.2379 28.2983 70.7436 28.7223 70.0831 29.0334C69.4226 29.3445 68.5916 29.5 67.5902 29.5H62.2912ZM64.6626 27.5185H67.2131C68.0739 27.5185 68.6939 27.3544 69.0732 27.0263C69.4567 26.6939 69.6484 26.2678 69.6484 25.7479C69.6484 25.3601 69.5526 25.0107 69.3608 24.6996C69.169 24.3842 68.8963 24.1371 68.5426 23.9581C68.1889 23.7749 67.767 23.6832 67.277 23.6832H64.6626V27.5185ZM64.6626 21.9766H67.0085C67.4176 21.9766 67.7862 21.902 68.1143 21.7528C68.4425 21.5994 68.7003 21.3842 68.8878 21.1072C69.0795 20.826 69.1754 20.4936 69.1754 20.1101C69.1754 19.603 68.9964 19.1854 68.6385 18.8572C68.2848 18.5291 67.7585 18.3651 67.0597 18.3651H64.6626V21.9766ZM80.5968 25.3707V19.6818H82.9107V29.5H80.6671V27.755H80.5649C80.3433 28.3047 79.9789 28.7543 79.4718 29.1037C78.969 29.4531 78.3489 29.6278 77.6117 29.6278C76.9683 29.6278 76.3994 29.4851 75.905 29.1996C75.415 28.9098 75.0315 28.4901 74.7545 27.9403C74.4775 27.3864 74.339 26.7173 74.339 25.9332V19.6818H76.6529V25.5753C76.6529 26.1974 76.8234 26.6918 77.1643 27.0582C77.5052 27.4247 77.9526 27.608 78.5066 27.608C78.8475 27.608 79.1778 27.5249 79.4974 27.3587C79.817 27.1925 80.0791 26.9453 80.2836 26.6172C80.4924 26.2848 80.5968 25.8693 80.5968 25.3707ZM90.5129 19.6818V21.4716H84.8687V19.6818H90.5129ZM86.2622 17.3295H88.5761V26.5469C88.5761 26.858 88.623 27.0966 88.7167 27.2628C88.8147 27.4247 88.9426 27.5355 89.1002 27.5952C89.2579 27.6548 89.4326 27.6847 89.6244 27.6847C89.7693 27.6847 89.9014 27.674 90.0207 27.6527C90.1443 27.6314 90.238 27.6122 90.3019 27.5952L90.6918 29.4041C90.5683 29.4467 90.3914 29.4936 90.1613 29.5447C89.9355 29.5959 89.6585 29.6257 89.3303 29.6342C88.7508 29.6513 88.2288 29.5639 87.7643 29.3722C87.2998 29.1761 86.9312 28.8736 86.6585 28.4645C86.39 28.0554 86.2579 27.544 86.2622 26.9304V17.3295ZM97.6708 19.6818V21.4716H92.0266V19.6818H97.6708ZM93.42 17.3295H95.734V26.5469C95.734 26.858 95.7808 27.0966 95.8746 27.2628C95.9726 27.4247 96.1004 27.5355 96.2581 27.5952C96.4158 27.6548 96.5905 27.6847 96.7823 27.6847C96.9272 27.6847 97.0593 27.674 97.1786 27.6527C97.3022 27.6314 97.3959 27.6122 97.4598 27.5952L97.8497 29.4041C97.7262 29.4467 97.5493 29.4936 97.3192 29.5447C97.0933 29.5959 96.8164 29.6257 96.4882 29.6342C95.9087 29.6513 95.3867 29.5639 94.9222 29.3722C94.4577 29.1761 94.0891 28.8736 93.8164 28.4645C93.5479 28.0554 93.4158 27.544 93.42 26.9304V17.3295ZM104.103 29.6918C103.144 29.6918 102.313 29.4808 101.61 29.0589C100.907 28.6371 100.362 28.0469 99.9739 27.2884C99.5904 26.5298 99.3986 25.6435 99.3986 24.6293C99.3986 23.6151 99.5904 22.7266 99.9739 21.9638C100.362 21.201 100.907 20.6087 101.61 20.1868C102.313 19.7649 103.144 19.554 104.103 19.554C105.062 19.554 105.893 19.7649 106.596 20.1868C107.299 20.6087 107.842 21.201 108.226 21.9638C108.614 22.7266 108.808 23.6151 108.808 24.6293C108.808 25.6435 108.614 26.5298 108.226 27.2884C107.842 28.0469 107.299 28.6371 106.596 29.0589C105.893 29.4808 105.062 29.6918 104.103 29.6918ZM104.116 27.8381C104.636 27.8381 105.07 27.6953 105.42 27.4098C105.769 27.12 106.029 26.7322 106.2 26.2464C106.374 25.7607 106.462 25.2195 106.462 24.6229C106.462 24.022 106.374 23.4787 106.2 22.9929C106.029 22.5028 105.769 22.1129 105.42 21.8232C105.07 21.5334 104.636 21.3885 104.116 21.3885C103.583 21.3885 103.14 21.5334 102.786 21.8232C102.437 22.1129 102.175 22.5028 102 22.9929C101.83 23.4787 101.744 24.022 101.744 24.6229C101.744 25.2195 101.83 25.7607 102 26.2464C102.175 26.7322 102.437 27.12 102.786 27.4098C103.14 27.6953 103.583 27.8381 104.116 27.8381ZM113.406 23.7472V29.5H111.092V19.6818H113.303V21.3501H113.418C113.644 20.8004 114.004 20.3636 114.499 20.0398C114.997 19.7159 115.613 19.554 116.346 19.554C117.023 19.554 117.614 19.6989 118.117 19.9886C118.624 20.2784 119.016 20.6982 119.293 21.2479C119.574 21.7976 119.712 22.4645 119.708 23.2486V29.5H117.394V23.6065C117.394 22.9503 117.224 22.4368 116.883 22.0661C116.546 21.6953 116.08 21.5099 115.483 21.5099C115.078 21.5099 114.718 21.5994 114.403 21.7784C114.092 21.9531 113.847 22.2067 113.668 22.5391C113.493 22.8714 113.406 23.2741 113.406 23.7472Z" fill="#101828"/>
<path d="M153.25 18.5L152.625 29.1321C152.555 30.3214 151.57 31.25 150.378 31.25H139.622C138.43 31.25 137.445 30.3214 137.375 29.1321L136.75 18.5M143 22.25H147M136.375 18.5H153.625C154.246 18.5 154.75 17.9963 154.75 17.375V15.875C154.75 15.2537 154.246 14.75 153.625 14.75H136.375C135.754 14.75 135.25 15.2537 135.25 15.875V17.375C135.25 17.9963 135.754 18.5 136.375 18.5Z" stroke="#101828" stroke-width="2" stroke-linecap="round" stroke-linejoin="round"/>
</svg>
