<svg width="201" height="42" viewBox="0 0 201 42" fill="none" xmlns="http://www.w3.org/2000/svg">
<mask id="path-1-outside-1_67_2844" maskUnits="userSpaceOnUse" x="0" y="0" width="201" height="42" fill="black">
<rect fill="white" width="201" height="42"/>
<path d="M1 17C1 8.16344 8.16344 1 17 1H184C192.837 1 200 8.16344 200 17V25C200 33.8366 192.837 41 184 41H17C8.16345 41 1 33.8366 1 25V17Z"/>
</mask>
<path d="M17 1V2H184V1V0H17V1ZM200 17H199V25H200H201V17H200ZM184 41V40H17V41V42H184V41ZM1 25H2V17H1H0V25H1ZM17 41V40C8.71573 40 2 33.2843 2 25H1H0C0 34.3888 7.61116 42 17 42V41ZM200 25H199C199 33.2843 192.284 40 184 40V41V42C193.389 42 201 34.3888 201 25H200ZM184 1V2C192.284 2 199 8.71573 199 17H200H201C201 7.61116 193.389 0 184 0V1ZM17 1V0C7.61116 0 0 7.61116 0 17H1H2C2 8.71573 8.71573 2 17 2V1Z" fill="#1ABC7D" mask="url(#path-1-outside-1_67_2844)"/>
<path d="M28 14.125V27.875M34.875 21L21.125 21" stroke="#F3F4F6" stroke-width="1.5" stroke-linecap="round" stroke-linejoin="round"/>
<path d="M48.2912 27.5V14.4091H53.2003C54.206 14.4091 55.0497 14.5966 55.7315 14.9716C56.4176 15.3466 56.9354 15.8622 57.2848 16.5185C57.6385 17.1705 57.8153 17.9119 57.8153 18.7429C57.8153 19.5824 57.6385 20.3281 57.2848 20.9801C56.9311 21.6321 56.4091 22.1456 55.7188 22.5206C55.0284 22.8913 54.1783 23.0767 53.1683 23.0767H49.9148V21.1271H52.8487C53.4368 21.1271 53.9183 21.0249 54.2933 20.8203C54.6683 20.6158 54.9453 20.3345 55.1243 19.9766C55.3075 19.6186 55.3991 19.2074 55.3991 18.7429C55.3991 18.2784 55.3075 17.8693 55.1243 17.5156C54.9453 17.1619 54.6662 16.8871 54.2869 16.6911C53.9119 16.4908 53.4283 16.3906 52.8359 16.3906H50.6626V27.5H48.2912ZM62.4068 14.4091V27.5H60.0929V14.4091H62.4068ZM67.9315 27.6982C67.3094 27.6982 66.749 27.5874 66.2504 27.3658C65.7561 27.1399 65.3641 26.8075 65.0743 26.3686C64.7888 25.9297 64.646 25.3885 64.646 24.745C64.646 24.1911 64.7483 23.733 64.9529 23.3707C65.1574 23.0085 65.4365 22.7188 65.7902 22.5014C66.1439 22.2841 66.5423 22.12 66.9855 22.0092C67.433 21.8942 67.8953 21.8111 68.3726 21.7599C68.9479 21.7003 69.4145 21.647 69.7725 21.6001C70.1304 21.549 70.3904 21.4723 70.5523 21.37C70.7185 21.2635 70.8016 21.0994 70.8016 20.8778V20.8395C70.8016 20.358 70.6588 19.9851 70.3733 19.7209C70.0878 19.4567 69.6766 19.3246 69.1396 19.3246C68.5729 19.3246 68.1233 19.4482 67.7909 19.6953C67.4628 19.9425 67.2412 20.2344 67.1261 20.571L64.9656 20.2642C65.1361 19.6676 65.4173 19.169 65.8094 18.7685C66.2014 18.3636 66.6808 18.0611 67.2476 17.8608C67.8144 17.6562 68.4408 17.554 69.1269 17.554C69.5999 17.554 70.0708 17.6094 70.5395 17.7202C71.0083 17.831 71.4365 18.0142 71.8243 18.2699C72.2121 18.5213 72.5232 18.8643 72.7575 19.299C72.9962 19.7337 73.1155 20.277 73.1155 20.929V27.5H70.8911V26.1513H70.8144C70.6737 26.424 70.4756 26.6797 70.2199 26.9183C69.9685 27.1527 69.651 27.3423 69.2675 27.4872C68.8882 27.6278 68.4429 27.6982 67.9315 27.6982ZM68.5324 25.9979C68.9969 25.9979 69.3996 25.9062 69.7405 25.723C70.0814 25.5355 70.3435 25.2884 70.5267 24.9815C70.7142 24.6747 70.808 24.3402 70.808 23.978V22.821C70.7355 22.8807 70.6119 22.9361 70.4372 22.9872C70.2668 23.0384 70.075 23.0831 69.8619 23.1214C69.6489 23.1598 69.4379 23.1939 69.2291 23.2237C69.0203 23.2536 68.8392 23.2791 68.6858 23.3004C68.3406 23.3473 68.0317 23.424 67.759 23.5305C67.4862 23.6371 67.271 23.7862 67.1134 23.978C66.9557 24.1655 66.8769 24.4084 66.8769 24.7067C66.8769 25.1328 67.0324 25.4545 67.3435 25.6719C67.6546 25.8892 68.0509 25.9979 68.5324 25.9979ZM80.0449 27.6918C79.0648 27.6918 78.2231 27.4766 77.52 27.0462C76.8211 26.6158 76.2821 26.0213 75.9028 25.2628C75.5278 24.5 75.3403 23.6222 75.3403 22.6293C75.3403 21.6321 75.5321 20.7521 75.9156 19.9893C76.2991 19.2223 76.8403 18.6257 77.5392 18.1996C78.2423 17.7692 79.0733 17.554 80.0321 17.554C80.829 17.554 81.5342 17.701 82.1479 17.995C82.7658 18.2848 83.2579 18.696 83.6244 19.2287C83.9909 19.7571 84.1997 20.375 84.2508 21.0824H82.0392C81.9497 20.6094 81.7366 20.2152 81.4 19.8999C81.0676 19.5803 80.6223 19.4205 80.064 19.4205C79.591 19.4205 79.1756 19.5483 78.8176 19.804C78.4596 20.0554 78.1805 20.4176 77.9802 20.8906C77.7842 21.3636 77.6862 21.9304 77.6862 22.5909C77.6862 23.2599 77.7842 23.8352 77.9802 24.3168C78.1763 24.794 78.4511 25.1626 78.8048 25.4226C79.1628 25.6783 79.5825 25.8061 80.064 25.8061C80.405 25.8061 80.7096 25.7422 80.9781 25.6143C81.2508 25.4822 81.4788 25.2926 81.6621 25.0455C81.8453 24.7983 81.971 24.4979 82.0392 24.1442H84.2508C84.1954 24.8388 83.9909 25.4545 83.6372 25.9915C83.2835 26.5241 82.802 26.9418 82.1926 27.2443C81.5832 27.5426 80.8673 27.6918 80.0449 27.6918ZM90.8175 27.6918C89.8331 27.6918 88.9829 27.4872 88.267 27.0781C87.5554 26.6648 87.0078 26.081 86.6243 25.3267C86.2408 24.5682 86.049 23.6754 86.049 22.6484C86.049 21.6385 86.2408 20.7521 86.6243 19.9893C87.0121 19.2223 87.5533 18.6257 88.2479 18.1996C88.9425 17.7692 89.7585 17.554 90.696 17.554C91.3011 17.554 91.8722 17.652 92.4091 17.848C92.9503 18.0398 93.4275 18.3381 93.8409 18.7429C94.2585 19.1477 94.5866 19.6634 94.8253 20.2898C95.0639 20.9119 95.1832 21.6534 95.1832 22.5142V23.2237H87.1356V21.6641H92.9652C92.9609 21.2209 92.865 20.8267 92.6775 20.4815C92.49 20.1321 92.228 19.8572 91.8913 19.657C91.5589 19.4567 91.1712 19.3565 90.728 19.3565C90.255 19.3565 89.8395 19.4716 89.4815 19.7017C89.1236 19.9276 88.8445 20.2259 88.6442 20.5966C88.4481 20.9631 88.348 21.3658 88.3437 21.8047V23.1662C88.3437 23.7372 88.4481 24.2273 88.657 24.6364C88.8658 25.0412 89.1577 25.3523 89.5327 25.5696C89.9077 25.7827 90.3466 25.8892 90.8494 25.8892C91.1861 25.8892 91.4908 25.8423 91.7635 25.7486C92.0362 25.6506 92.2727 25.5078 92.473 25.3203C92.6733 25.1328 92.8246 24.9006 92.9268 24.6236L95.0873 24.8665C94.951 25.4375 94.691 25.9361 94.3075 26.3622C93.9283 26.7841 93.4425 27.1122 92.8501 27.3466C92.2578 27.5767 91.5802 27.6918 90.8175 27.6918ZM99.7747 21.7472V27.5H97.4608V14.4091H99.7236V19.3501H99.8386C100.069 18.7962 100.425 18.3594 100.906 18.0398C101.392 17.7159 102.01 17.554 102.76 17.554C103.442 17.554 104.036 17.6967 104.543 17.9822C105.05 18.2678 105.442 18.6854 105.719 19.2351C106.001 19.7848 106.141 20.456 106.141 21.2486V27.5H103.827V21.6065C103.827 20.946 103.657 20.4325 103.316 20.0661C102.979 19.6953 102.506 19.5099 101.897 19.5099C101.488 19.5099 101.121 19.5994 100.797 19.7784C100.478 19.9531 100.226 20.2067 100.043 20.5391C99.8642 20.8714 99.7747 21.2741 99.7747 21.7472ZM113.103 27.6918C112.144 27.6918 111.313 27.4808 110.61 27.0589C109.907 26.6371 109.361 26.0469 108.973 25.2884C108.59 24.5298 108.398 23.6435 108.398 22.6293C108.398 21.6151 108.59 20.7266 108.973 19.9638C109.361 19.201 109.907 18.6087 110.61 18.1868C111.313 17.7649 112.144 17.554 113.103 17.554C114.061 17.554 114.892 17.7649 115.595 18.1868C116.299 18.6087 116.842 19.201 117.225 19.9638C117.613 20.7266 117.807 21.6151 117.807 22.6293C117.807 23.6435 117.613 24.5298 117.225 25.2884C116.842 26.0469 116.299 26.6371 115.595 27.0589C114.892 27.4808 114.061 27.6918 113.103 27.6918ZM113.115 25.8381C113.635 25.8381 114.07 25.6953 114.419 25.4098C114.769 25.12 115.029 24.7322 115.199 24.2464C115.374 23.7607 115.461 23.2195 115.461 22.6229C115.461 22.022 115.374 21.4787 115.199 20.9929C115.029 20.5028 114.769 20.1129 114.419 19.8232C114.07 19.5334 113.635 19.3885 113.115 19.3885C112.583 19.3885 112.139 19.5334 111.786 19.8232C111.436 20.1129 111.174 20.5028 111 20.9929C110.829 21.4787 110.744 22.022 110.744 22.6229C110.744 23.2195 110.829 23.7607 111 24.2464C111.174 24.7322 111.436 25.12 111.786 25.4098C112.139 25.6953 112.583 25.8381 113.115 25.8381ZM122.405 14.4091V27.5H120.091V14.4091H122.405ZM128.748 27.6726C127.977 27.6726 127.286 27.4744 126.677 27.0781C126.067 26.6818 125.586 26.1065 125.232 25.3523C124.879 24.598 124.702 23.6818 124.702 22.6037C124.702 21.5128 124.881 20.5923 125.239 19.8423C125.601 19.0881 126.089 18.5192 126.702 18.1357C127.316 17.7479 128 17.554 128.754 17.554C129.33 17.554 129.803 17.652 130.173 17.848C130.544 18.0398 130.838 18.272 131.055 18.5447C131.273 18.8132 131.441 19.0668 131.56 19.3054H131.656V14.4091H133.977V27.5H131.701V25.9531H131.56C131.441 26.1918 131.268 26.4453 131.043 26.7138C130.817 26.978 130.518 27.2038 130.148 27.3913C129.777 27.5788 129.31 27.6726 128.748 27.6726ZM129.393 25.7741C129.884 25.7741 130.301 25.642 130.646 25.3778C130.991 25.1094 131.254 24.7365 131.433 24.2592C131.611 23.782 131.701 23.2259 131.701 22.5909C131.701 21.956 131.611 21.4041 131.433 20.9354C131.258 20.4666 130.998 20.1023 130.653 19.8423C130.312 19.5824 129.892 19.4524 129.393 19.4524C128.878 19.4524 128.447 19.5866 128.102 19.8551C127.757 20.1236 127.497 20.4943 127.322 20.9673C127.148 21.4403 127.06 21.9815 127.06 22.5909C127.06 23.2045 127.148 23.7521 127.322 24.2337C127.501 24.7109 127.763 25.0881 128.109 25.3651C128.458 25.6378 128.886 25.7741 129.393 25.7741ZM141.109 27.6918C140.124 27.6918 139.274 27.4872 138.558 27.0781C137.847 26.6648 137.299 26.081 136.916 25.3267C136.532 24.5682 136.34 23.6754 136.34 22.6484C136.34 21.6385 136.532 20.7521 136.916 19.9893C137.303 19.2223 137.845 18.6257 138.539 18.1996C139.234 17.7692 140.05 17.554 140.987 17.554C141.593 17.554 142.164 17.652 142.7 17.848C143.242 18.0398 143.719 18.3381 144.132 18.7429C144.55 19.1477 144.878 19.6634 145.117 20.2898C145.355 20.9119 145.475 21.6534 145.475 22.5142V23.2237H137.427V21.6641H143.257C143.252 21.2209 143.156 20.8267 142.969 20.4815C142.781 20.1321 142.519 19.8572 142.183 19.657C141.85 19.4567 141.463 19.3565 141.019 19.3565C140.546 19.3565 140.131 19.4716 139.773 19.7017C139.415 19.9276 139.136 20.2259 138.936 20.5966C138.74 20.9631 138.639 21.3658 138.635 21.8047V23.1662C138.635 23.7372 138.74 24.2273 138.948 24.6364C139.157 25.0412 139.449 25.3523 139.824 25.5696C140.199 25.7827 140.638 25.8892 141.141 25.8892C141.477 25.8892 141.782 25.8423 142.055 25.7486C142.328 25.6506 142.564 25.5078 142.764 25.3203C142.965 25.1328 143.116 24.9006 143.218 24.6236L145.379 24.8665C145.242 25.4375 144.982 25.9361 144.599 26.3622C144.22 26.7841 143.734 27.1122 143.142 27.3466C142.549 27.5767 141.872 27.6918 141.109 27.6918ZM147.752 27.5V17.6818H149.996V19.3182H150.098C150.277 18.7514 150.584 18.3146 151.019 18.0078C151.457 17.6967 151.958 17.5412 152.521 17.5412C152.649 17.5412 152.791 17.5476 152.949 17.5604C153.111 17.5689 153.245 17.5838 153.352 17.6051V19.7337C153.254 19.6996 153.098 19.6697 152.885 19.6442C152.676 19.6143 152.474 19.5994 152.278 19.5994C151.856 19.5994 151.477 19.6911 151.14 19.8743C150.808 20.0533 150.546 20.3026 150.354 20.6222C150.162 20.9418 150.066 21.3104 150.066 21.728V27.5H147.752Z" fill="#F3F4F6"/>
<path d="M173 14.125V27.875M179.875 21L166.125 21" stroke="#F3F4F6" stroke-width="1.5" stroke-linecap="round" stroke-linejoin="round"/>
</svg>
