<svg width="341" height="32" viewBox="0 0 341 32" fill="none" xmlns="http://www.w3.org/2000/svg">
<path d="M0 4C0 1.79086 1.79086 0 4 0H337C339.209 0 341 1.79086 341 4V28C341 30.2091 339.209 32 337 32H4C1.79086 32 0 30.2091 0 28V4Z" fill="#FEF2F2"/>
<path d="M13.375 15.375L13.4096 15.3577C13.8872 15.1189 14.4249 15.5503 14.2954 16.0683L13.7046 18.4317C13.5751 18.9497 14.1128 19.3811 14.5904 19.1423L14.625 19.125M21.5 16C21.5 20.1421 18.1421 23.5 14 23.5C9.85786 23.5 6.5 20.1421 6.5 16C6.5 11.8579 9.85786 8.5 14 8.5C18.1421 8.5 21.5 11.8579 21.5 16ZM14 12.875H14.0063V12.8813H14V12.875Z" stroke="#C10107" stroke-width="1.5" stroke-linecap="round" stroke-linejoin="round"/>
<path d="M30.4659 11.3182V21.5H29.233V11.3182H30.4659ZM33.9522 16.9062V21.5H32.7789V13.8636H33.9125V15.0568H34.0119C34.1909 14.669 34.4627 14.3575 34.8272 14.1222C35.1918 13.8835 35.6625 13.7642 36.2392 13.7642C36.7562 13.7642 37.2086 13.8703 37.5964 14.0824C37.9842 14.2912 38.2858 14.6094 38.5012 15.0369C38.7167 15.4612 38.8244 15.9981 38.8244 16.6477V21.5H37.6511V16.7273C37.6511 16.1274 37.4953 15.66 37.1838 15.3253C36.8722 14.9872 36.4447 14.8182 35.9011 14.8182C35.5266 14.8182 35.1918 14.8994 34.8968 15.0618C34.6052 15.2242 34.3748 15.4612 34.2058 15.7727C34.0368 16.0843 33.9522 16.4621 33.9522 16.9062ZM46.3775 15.5739L45.3235 15.8722C45.2572 15.6965 45.1594 15.5258 45.0302 15.3601C44.9042 15.1911 44.7319 15.0518 44.5131 14.9425C44.2944 14.8331 44.0143 14.7784 43.6729 14.7784C43.2056 14.7784 42.8162 14.8861 42.5046 15.1016C42.1964 15.3137 42.0423 15.5838 42.0423 15.9119C42.0423 16.2036 42.1483 16.4339 42.3604 16.603C42.5726 16.772 42.904 16.9129 43.3548 17.0256L44.4883 17.304C45.171 17.4697 45.6798 17.7232 46.0146 18.0646C46.3493 18.4027 46.5167 18.8385 46.5167 19.3722C46.5167 19.8097 46.3907 20.2008 46.1388 20.5455C45.8903 20.8902 45.5423 21.1619 45.0948 21.3608C44.6474 21.5597 44.127 21.6591 43.5337 21.6591C42.7549 21.6591 42.1102 21.4901 41.5998 21.152C41.0894 20.8139 40.7662 20.3201 40.6303 19.6705L41.744 19.392C41.85 19.803 42.0505 20.1113 42.3455 20.3168C42.6438 20.5223 43.0333 20.625 43.5138 20.625C44.0607 20.625 44.4949 20.509 44.8164 20.277C45.1412 20.0417 45.3036 19.7599 45.3036 19.4318C45.3036 19.1667 45.2108 18.9446 45.0252 18.7656C44.8396 18.5833 44.5546 18.4474 44.1701 18.358L42.8974 18.0597C42.198 17.8939 41.6843 17.6371 41.3562 17.2891C41.0314 16.9377 40.869 16.4986 40.869 15.9716C40.869 15.5407 40.9899 15.1596 41.2319 14.8281C41.4772 14.4967 41.8103 14.2365 42.2312 14.0476C42.6554 13.8587 43.136 13.7642 43.6729 13.7642C44.4286 13.7642 45.0219 13.9299 45.4528 14.2614C45.887 14.5928 46.1952 15.0303 46.3775 15.5739ZM51.4846 21.6591C50.7488 21.6591 50.1141 21.4967 49.5804 21.1719C49.0501 20.8438 48.6408 20.3864 48.3525 19.7997C48.0674 19.2098 47.9249 18.5237 47.9249 17.7415C47.9249 16.9593 48.0674 16.2699 48.3525 15.6733C48.6408 15.0734 49.0418 14.6061 49.5556 14.2713C50.0726 13.9332 50.6758 13.7642 51.3652 13.7642C51.763 13.7642 52.1557 13.8305 52.5435 13.9631C52.9313 14.0956 53.2843 14.3111 53.6025 14.6094C53.9206 14.9044 54.1742 15.2955 54.3631 15.7827C54.552 16.2699 54.6465 16.8698 54.6465 17.5824V18.0795H48.7601V17.0653H53.4533C53.4533 16.6345 53.3671 16.25 53.1948 15.9119C53.0257 15.5739 52.7838 15.3071 52.4689 15.1115C52.1574 14.916 51.7895 14.8182 51.3652 14.8182C50.8979 14.8182 50.4935 14.9342 50.1522 15.1662C49.8141 15.3949 49.5539 15.6932 49.3716 16.0611C49.1893 16.429 49.0982 16.8234 49.0982 17.2443V17.9205C49.0982 18.4972 49.1976 18.986 49.3965 19.3871C49.5987 19.7848 49.8787 20.0881 50.2367 20.2969C50.5946 20.5024 51.0106 20.6051 51.4846 20.6051C51.7928 20.6051 52.0712 20.562 52.3198 20.4759C52.5717 20.3864 52.7888 20.2538 52.9711 20.0781C53.1534 19.8991 53.2942 19.6771 53.3936 19.4119L54.5272 19.7301C54.4078 20.1146 54.2073 20.4527 53.9256 20.7443C53.6439 21.0327 53.2959 21.258 52.8816 21.4205C52.4673 21.5795 52.0016 21.6591 51.4846 21.6591ZM56.4313 21.5V13.8636H57.5648V15.017H57.6444C57.7836 14.6392 58.0355 14.3326 58.4 14.0973C58.7646 13.862 59.1756 13.7443 59.633 13.7443C59.7192 13.7443 59.8269 13.746 59.9561 13.7493C60.0854 13.7526 60.1832 13.7576 60.2495 13.7642V14.9574C60.2097 14.9474 60.1185 14.9325 59.976 14.9126C59.8368 14.8894 59.6893 14.8778 59.5336 14.8778C59.1623 14.8778 58.8309 14.9557 58.5392 15.1115C58.2509 15.264 58.0222 15.4761 57.8532 15.7479C57.6874 16.0163 57.6046 16.3229 57.6046 16.6676V21.5H56.4313ZM65.4398 13.8636V14.858H61.4824V13.8636H65.4398ZM62.6358 12.0341H63.8091V19.3125C63.8091 19.6439 63.8572 19.8925 63.9533 20.0582C64.0527 20.2206 64.1787 20.33 64.3311 20.3864C64.4869 20.4394 64.651 20.4659 64.8233 20.4659C64.9526 20.4659 65.0587 20.4593 65.1415 20.446C65.2244 20.4295 65.2907 20.4162 65.3404 20.4062L65.579 21.4602C65.4995 21.4901 65.3884 21.5199 65.2459 21.5497C65.1034 21.5829 64.9228 21.5994 64.704 21.5994C64.3726 21.5994 64.0478 21.5282 63.7296 21.3857C63.4147 21.2431 63.1529 21.026 62.9441 20.7344C62.7386 20.4427 62.6358 20.0748 62.6358 19.6307V12.0341ZM71.8979 24.3636C71.699 24.3636 71.5217 24.3471 71.3659 24.3139C71.2102 24.2841 71.1025 24.2543 71.0428 24.2244L71.3411 23.1903C71.6261 23.2633 71.878 23.2898 72.0968 23.2699C72.3155 23.25 72.5094 23.1522 72.6784 22.9766C72.8508 22.8042 73.0082 22.5241 73.1507 22.1364L73.3695 21.5398L70.5456 13.8636H71.8184L73.9263 19.9489H74.0059L76.1138 13.8636H77.3865L74.1451 22.6136C73.9992 23.008 73.8186 23.3345 73.6032 23.593C73.3877 23.8549 73.1375 24.0488 72.8525 24.1747C72.5707 24.3007 72.2525 24.3636 71.8979 24.3636ZM81.764 21.6591C81.0746 21.6591 80.4698 21.495 79.9494 21.1669C79.4324 20.8388 79.028 20.3797 78.7363 19.7898C78.448 19.1998 78.3038 18.5104 78.3038 17.7216C78.3038 16.9261 78.448 16.2318 78.7363 15.6385C79.028 15.0452 79.4324 14.5845 79.9494 14.2564C80.4698 13.9283 81.0746 13.7642 81.764 13.7642C82.4534 13.7642 83.0566 13.9283 83.5737 14.2564C84.094 14.5845 84.4984 15.0452 84.7868 15.6385C85.0784 16.2318 85.2243 16.9261 85.2243 17.7216C85.2243 18.5104 85.0784 19.1998 84.7868 19.7898C84.4984 20.3797 84.094 20.8388 83.5737 21.1669C83.0566 21.495 82.4534 21.6591 81.764 21.6591ZM81.764 20.6051C82.2877 20.6051 82.7186 20.4709 83.0566 20.2024C83.3947 19.9339 83.6449 19.581 83.8074 19.1435C83.9698 18.706 84.051 18.232 84.051 17.7216C84.051 17.2112 83.9698 16.7356 83.8074 16.2947C83.6449 15.8539 83.3947 15.4976 83.0566 15.2259C82.7186 14.9541 82.2877 14.8182 81.764 14.8182C81.2404 14.8182 80.8095 14.9541 80.4714 15.2259C80.1333 15.4976 79.8831 15.8539 79.7207 16.2947C79.5583 16.7356 79.4771 17.2112 79.4771 17.7216C79.4771 18.232 79.5583 18.706 79.7207 19.1435C79.8831 19.581 80.1333 19.9339 80.4714 20.2024C80.8095 20.4709 81.2404 20.6051 81.764 20.6051ZM91.8278 18.3778V13.8636H93.0011V21.5H91.8278V20.2074H91.7482C91.5692 20.5952 91.2908 20.925 90.913 21.1967C90.5352 21.4652 90.0579 21.5994 89.4812 21.5994C89.0039 21.5994 88.5797 21.495 88.2085 21.2862C87.8372 21.0741 87.5456 20.7559 87.3335 20.3317C87.1213 19.9041 87.0153 19.3655 87.0153 18.7159V13.8636H88.1886V18.6364C88.1886 19.1932 88.3443 19.6373 88.6559 19.9688C88.9708 20.3002 89.3718 20.4659 89.859 20.4659C90.1507 20.4659 90.4473 20.3913 90.7489 20.2422C91.0539 20.093 91.3091 19.8643 91.5146 19.5561C91.7234 19.2479 91.8278 18.8551 91.8278 18.3778ZM95.15 21.5V13.8636H96.2836V15.017H96.3631C96.5023 14.6392 96.7542 14.3326 97.1188 14.0973C97.4834 13.862 97.8944 13.7443 98.3517 13.7443C98.4379 13.7443 98.5456 13.746 98.6749 13.7493C98.8042 13.7526 98.9019 13.7576 98.9682 13.7642V14.9574C98.9284 14.9474 98.8373 14.9325 98.6948 14.9126C98.5556 14.8894 98.4081 14.8778 98.2523 14.8778C97.8811 14.8778 97.5497 14.9557 97.258 15.1115C96.9696 15.264 96.7409 15.4761 96.5719 15.7479C96.4062 16.0163 96.3233 16.3229 96.3233 16.6676V21.5H95.15ZM106.544 21.679C106.06 21.679 105.621 21.5878 105.226 21.4055C104.832 21.2199 104.519 20.9531 104.287 20.6051C104.055 20.2538 103.939 19.8295 103.939 19.3324C103.939 18.8949 104.025 18.5402 104.197 18.2685C104.369 17.9934 104.6 17.7779 104.888 17.6222C105.176 17.4664 105.495 17.3504 105.843 17.2741C106.194 17.1946 106.547 17.1316 106.902 17.0852C107.366 17.0256 107.742 16.9808 108.03 16.951C108.322 16.9179 108.534 16.8632 108.667 16.7869C108.802 16.7107 108.87 16.5781 108.87 16.3892V16.3494C108.87 15.8589 108.736 15.4777 108.468 15.206C108.203 14.9342 107.8 14.7983 107.26 14.7983C106.699 14.7983 106.26 14.9209 105.942 15.1662C105.624 15.4115 105.4 15.6733 105.271 15.9517L104.157 15.554C104.356 15.09 104.621 14.7287 104.953 14.4702C105.288 14.2083 105.652 14.026 106.047 13.9233C106.444 13.8172 106.835 13.7642 107.22 13.7642C107.465 13.7642 107.747 13.794 108.065 13.8537C108.386 13.91 108.696 14.0277 108.995 14.2067C109.296 14.3857 109.547 14.6558 109.745 15.017C109.944 15.3783 110.044 15.8622 110.044 16.4688V21.5H108.87V20.4659H108.811C108.731 20.6316 108.599 20.8089 108.413 20.9979C108.227 21.1868 107.98 21.3475 107.672 21.4801C107.364 21.6127 106.988 21.679 106.544 21.679ZM106.723 20.625C107.187 20.625 107.578 20.5339 107.896 20.3516C108.217 20.1693 108.459 19.9339 108.622 19.6456C108.788 19.3572 108.87 19.054 108.87 18.7358V17.6619C108.821 17.7216 108.711 17.7763 108.542 17.826C108.377 17.8724 108.184 17.9138 107.966 17.9503C107.75 17.9834 107.54 18.0133 107.334 18.0398C107.132 18.063 106.968 18.0829 106.842 18.0994C106.537 18.1392 106.252 18.2038 105.987 18.2933C105.725 18.3795 105.513 18.5104 105.35 18.6861C105.191 18.8584 105.112 19.0937 105.112 19.392C105.112 19.7997 105.263 20.108 105.564 20.3168C105.869 20.5223 106.255 20.625 106.723 20.625ZM113.358 11.3182V21.5H112.185V11.3182H113.358ZM118.709 21.6591C117.973 21.6591 117.339 21.4967 116.805 21.1719C116.275 20.8438 115.865 20.3864 115.577 19.7997C115.292 19.2098 115.15 18.5237 115.15 17.7415C115.15 16.9593 115.292 16.2699 115.577 15.6733C115.865 15.0734 116.266 14.6061 116.78 14.2713C117.297 13.9332 117.9 13.7642 118.59 13.7642C118.988 13.7642 119.38 13.8305 119.768 13.9631C120.156 14.0956 120.509 14.3111 120.827 14.6094C121.145 14.9044 121.399 15.2955 121.588 15.7827C121.777 16.2699 121.871 16.8698 121.871 17.5824V18.0795H115.985V17.0653H120.678C120.678 16.6345 120.592 16.25 120.419 15.9119C120.25 15.5739 120.008 15.3071 119.694 15.1115C119.382 14.916 119.014 14.8182 118.59 14.8182C118.123 14.8182 117.718 14.9342 117.377 15.1662C117.039 15.3949 116.779 15.6932 116.596 16.0611C116.414 16.429 116.323 16.8234 116.323 17.2443V17.9205C116.323 18.4972 116.422 18.986 116.621 19.3871C116.823 19.7848 117.103 20.0881 117.461 20.2969C117.819 20.5024 118.235 20.6051 118.709 20.6051C119.017 20.6051 119.296 20.562 119.544 20.4759C119.796 20.3864 120.013 20.2538 120.196 20.0781C120.378 19.8991 120.519 19.6771 120.618 19.4119L121.752 19.7301C121.632 20.1146 121.432 20.4527 121.15 20.7443C120.868 21.0327 120.52 21.258 120.106 21.4205C119.692 21.5795 119.226 21.6591 118.709 21.6591ZM123.656 21.5V13.8636H124.789V15.017H124.869C125.008 14.6392 125.26 14.3326 125.625 14.0973C125.989 13.862 126.4 13.7443 126.858 13.7443C126.944 13.7443 127.051 13.746 127.181 13.7493C127.31 13.7526 127.408 13.7576 127.474 13.7642V14.9574C127.434 14.9474 127.343 14.9325 127.201 14.9126C127.061 14.8894 126.914 14.8778 126.758 14.8778C126.387 14.8778 126.056 14.9557 125.764 15.1115C125.475 15.264 125.247 15.4761 125.078 15.7479C124.912 16.0163 124.829 16.3229 124.829 16.6676V21.5H123.656ZM132.664 13.8636V14.858H128.707V13.8636H132.664ZM129.86 12.0341H131.034V19.3125C131.034 19.6439 131.082 19.8925 131.178 20.0582C131.277 20.2206 131.403 20.33 131.556 20.3864C131.712 20.4394 131.876 20.4659 132.048 20.4659C132.177 20.4659 132.283 20.4593 132.366 20.446C132.449 20.4295 132.515 20.4162 132.565 20.4062L132.804 21.4602C132.724 21.4901 132.613 21.5199 132.471 21.5497C132.328 21.5829 132.147 21.5994 131.929 21.5994C131.597 21.5994 131.272 21.5282 130.954 21.3857C130.639 21.2431 130.377 21.026 130.169 20.7344C129.963 20.4427 129.86 20.0748 129.86 19.6307V12.0341ZM141.688 13.8636V14.858H137.73V13.8636H141.688ZM138.884 12.0341H140.057V19.3125C140.057 19.6439 140.105 19.8925 140.201 20.0582C140.301 20.2206 140.427 20.33 140.579 20.3864C140.735 20.4394 140.899 20.4659 141.071 20.4659C141.201 20.4659 141.307 20.4593 141.39 20.446C141.472 20.4295 141.539 20.4162 141.588 20.4062L141.827 21.4602C141.748 21.4901 141.636 21.5199 141.494 21.5497C141.351 21.5829 141.171 21.5994 140.952 21.5994C140.621 21.5994 140.296 21.5282 139.978 21.3857C139.663 21.2431 139.401 21.026 139.192 20.7344C138.987 20.4427 138.884 20.0748 138.884 19.6307V12.0341ZM143.453 21.5V13.8636H144.626V21.5H143.453ZM144.049 12.5909C143.821 12.5909 143.623 12.513 143.458 12.3572C143.295 12.2015 143.214 12.0142 143.214 11.7955C143.214 11.5767 143.295 11.3894 143.458 11.2337C143.623 11.0779 143.821 11 144.049 11C144.278 11 144.474 11.0779 144.636 11.2337C144.802 11.3894 144.885 11.5767 144.885 11.7955C144.885 12.0142 144.802 12.2015 144.636 12.3572C144.474 12.513 144.278 12.5909 144.049 12.5909ZM150.096 13.8636V14.858H146.139V13.8636H150.096ZM147.292 12.0341H148.465V19.3125C148.465 19.6439 148.513 19.8925 148.61 20.0582C148.709 20.2206 148.835 20.33 148.987 20.3864C149.143 20.4394 149.307 20.4659 149.48 20.4659C149.609 20.4659 149.715 20.4593 149.798 20.446C149.881 20.4295 149.947 20.4162 149.997 20.4062L150.235 21.4602C150.156 21.4901 150.045 21.5199 149.902 21.5497C149.76 21.5829 149.579 21.5994 149.36 21.5994C149.029 21.5994 148.704 21.5282 148.386 21.3857C148.071 21.2431 147.809 21.026 147.6 20.7344C147.395 20.4427 147.292 20.0748 147.292 19.6307V12.0341ZM153.198 11.3182V21.5H152.025V11.3182H153.198ZM158.549 21.6591C157.813 21.6591 157.179 21.4967 156.645 21.1719C156.115 20.8438 155.705 20.3864 155.417 19.7997C155.132 19.2098 154.989 18.5237 154.989 17.7415C154.989 16.9593 155.132 16.2699 155.417 15.6733C155.705 15.0734 156.106 14.6061 156.62 14.2713C157.137 13.9332 157.74 13.7642 158.43 13.7642C158.827 13.7642 159.22 13.8305 159.608 13.9631C159.996 14.0956 160.349 14.3111 160.667 14.6094C160.985 14.9044 161.239 15.2955 161.428 15.7827C161.616 16.2699 161.711 16.8698 161.711 17.5824V18.0795H155.825V17.0653H160.518C160.518 16.6345 160.432 16.25 160.259 15.9119C160.09 15.5739 159.848 15.3071 159.533 15.1115C159.222 14.916 158.854 14.8182 158.43 14.8182C157.962 14.8182 157.558 14.9342 157.217 15.1662C156.879 15.3949 156.618 15.6932 156.436 16.0611C156.254 16.429 156.163 16.8234 156.163 17.2443V17.9205C156.163 18.4972 156.262 18.986 156.461 19.3871C156.663 19.7848 156.943 20.0881 157.301 20.2969C157.659 20.5024 158.075 20.6051 158.549 20.6051C158.857 20.6051 159.136 20.562 159.384 20.4759C159.636 20.3864 159.853 20.2538 160.036 20.0781C160.218 19.8991 160.359 19.6771 160.458 19.4119L161.592 19.7301C161.472 20.1146 161.272 20.4527 160.99 20.7443C160.708 21.0327 160.36 21.258 159.946 21.4205C159.532 21.5795 159.066 21.6591 158.549 21.6591ZM168.607 16.9062V21.5H167.433V11.3182H168.607V15.0568H168.706C168.885 14.6624 169.153 14.3492 169.511 14.1172C169.873 13.8819 170.353 13.7642 170.953 13.7642C171.473 13.7642 171.929 13.8686 172.32 14.0774C172.711 14.2829 173.015 14.5994 173.23 15.027C173.449 15.4512 173.558 15.9915 173.558 16.6477V21.5H172.385V16.7273C172.385 16.1207 172.228 15.6518 171.913 15.3203C171.601 14.9856 171.169 14.8182 170.615 14.8182C170.231 14.8182 169.886 14.8994 169.581 15.0618C169.279 15.2242 169.041 15.4612 168.865 15.7727C168.693 16.0843 168.607 16.4621 168.607 16.9062ZM178.906 21.6591C178.171 21.6591 177.536 21.4967 177.002 21.1719C176.472 20.8438 176.063 20.3864 175.774 19.7997C175.489 19.2098 175.347 18.5237 175.347 17.7415C175.347 16.9593 175.489 16.2699 175.774 15.6733C176.063 15.0734 176.464 14.6061 176.977 14.2713C177.494 13.9332 178.098 13.7642 178.787 13.7642C179.185 13.7642 179.578 13.8305 179.965 13.9631C180.353 14.0956 180.706 14.3111 181.024 14.6094C181.343 14.9044 181.596 15.2955 181.785 15.7827C181.974 16.2699 182.068 16.8698 182.068 17.5824V18.0795H176.182V17.0653H180.875C180.875 16.6345 180.789 16.25 180.617 15.9119C180.448 15.5739 180.206 15.3071 179.891 15.1115C179.579 14.916 179.211 14.8182 178.787 14.8182C178.32 14.8182 177.915 14.9342 177.574 15.1662C177.236 15.3949 176.976 15.6932 176.794 16.0611C176.611 16.429 176.52 16.8234 176.52 17.2443V17.9205C176.52 18.4972 176.619 18.986 176.818 19.3871C177.021 19.7848 177.301 20.0881 177.659 20.2969C178.017 20.5024 178.432 20.6051 178.906 20.6051C179.215 20.6051 179.493 20.562 179.742 20.4759C179.994 20.3864 180.211 20.2538 180.393 20.0781C180.575 19.8991 180.716 19.6771 180.816 19.4119L181.949 19.7301C181.83 20.1146 181.629 20.4527 181.347 20.7443C181.066 21.0327 180.718 21.258 180.303 21.4205C179.889 21.5795 179.423 21.6591 178.906 21.6591ZM183.853 21.5V13.8636H184.987V15.017H185.066C185.205 14.6392 185.457 14.3326 185.822 14.0973C186.186 13.862 186.597 13.7443 187.055 13.7443C187.141 13.7443 187.249 13.746 187.378 13.7493C187.507 13.7526 187.605 13.7576 187.671 13.7642V14.9574C187.632 14.9474 187.54 14.9325 187.398 14.9126C187.259 14.8894 187.111 14.8778 186.955 14.8778C186.584 14.8778 186.253 14.9557 185.961 15.1115C185.673 15.264 185.444 15.4761 185.275 15.7479C185.109 16.0163 185.026 16.3229 185.026 16.6676V21.5H183.853ZM192.031 21.6591C191.296 21.6591 190.661 21.4967 190.127 21.1719C189.597 20.8438 189.188 20.3864 188.899 19.7997C188.614 19.2098 188.472 18.5237 188.472 17.7415C188.472 16.9593 188.614 16.2699 188.899 15.6733C189.188 15.0734 189.589 14.6061 190.102 14.2713C190.619 13.9332 191.223 13.7642 191.912 13.7642C192.31 13.7642 192.703 13.8305 193.09 13.9631C193.478 14.0956 193.831 14.3111 194.149 14.6094C194.468 14.9044 194.721 15.2955 194.91 15.7827C195.099 16.2699 195.193 16.8698 195.193 17.5824V18.0795H189.307V17.0653H194C194 16.6345 193.914 16.25 193.742 15.9119C193.573 15.5739 193.331 15.3071 193.016 15.1115C192.704 14.916 192.336 14.8182 191.912 14.8182C191.445 14.8182 191.04 14.9342 190.699 15.1662C190.361 15.3949 190.101 15.6932 189.919 16.0611C189.736 16.429 189.645 16.8234 189.645 17.2443V17.9205C189.645 18.4972 189.744 18.986 189.943 19.3871C190.146 19.7848 190.426 20.0881 190.784 20.2969C191.142 20.5024 191.557 20.6051 192.031 20.6051C192.34 20.6051 192.618 20.562 192.867 20.4759C193.119 20.3864 193.336 20.2538 193.518 20.0781C193.7 19.8991 193.841 19.6771 193.941 19.4119L195.074 19.7301C194.955 20.1146 194.754 20.4527 194.472 20.7443C194.191 21.0327 193.843 21.258 193.428 21.4205C193.014 21.5795 192.548 21.6591 192.031 21.6591ZM198.529 11.3182L198.43 18.6364H197.276L197.177 11.3182H198.529ZM197.853 21.5795C197.608 21.5795 197.397 21.4917 197.222 21.3161C197.046 21.1404 196.958 20.9299 196.958 20.6847C196.958 20.4394 197.046 20.2289 197.222 20.0533C197.397 19.8776 197.608 19.7898 197.853 19.7898C198.098 19.7898 198.309 19.8776 198.485 20.0533C198.66 20.2289 198.748 20.4394 198.748 20.6847C198.748 20.8471 198.707 20.9962 198.624 21.1321C198.544 21.268 198.436 21.3774 198.301 21.4602C198.168 21.5398 198.019 21.5795 197.853 21.5795Z" fill="#101828"/>
<path d="M220.761 10.3636H222.523V18.017C222.523 18.8314 222.331 19.553 221.949 20.1818C221.566 20.8068 221.028 21.2992 220.335 21.6591C219.642 22.0152 218.83 22.1932 217.898 22.1932C216.97 22.1932 216.159 22.0152 215.466 21.6591C214.773 21.2992 214.235 20.8068 213.852 20.1818C213.47 19.553 213.278 18.8314 213.278 18.017V10.3636H215.034V17.875C215.034 18.4015 215.15 18.8693 215.381 19.2784C215.616 19.6875 215.947 20.0095 216.375 20.2443C216.803 20.4754 217.311 20.5909 217.898 20.5909C218.489 20.5909 218.998 20.4754 219.426 20.2443C219.858 20.0095 220.188 19.6875 220.415 19.2784C220.646 18.8693 220.761 18.4015 220.761 17.875V10.3636ZM225.259 25.2727V13.2727H226.918V14.6875H227.06C227.159 14.5057 227.301 14.2955 227.486 14.0568C227.672 13.8182 227.929 13.6098 228.259 13.4318C228.588 13.25 229.024 13.1591 229.566 13.1591C230.27 13.1591 230.899 13.3371 231.452 13.6932C232.005 14.0492 232.439 14.5625 232.753 15.233C233.071 15.9034 233.231 16.7102 233.231 17.6534C233.231 18.5966 233.073 19.4053 232.759 20.0795C232.445 20.75 232.013 21.267 231.463 21.6307C230.914 21.9905 230.287 22.1705 229.583 22.1705C229.052 22.1705 228.619 22.0814 228.282 21.9034C227.948 21.7254 227.687 21.517 227.498 21.2784C227.308 21.0398 227.162 20.8277 227.06 20.642H226.958V25.2727H225.259ZM226.924 17.6364C226.924 18.25 227.013 18.7879 227.191 19.25C227.369 19.7121 227.626 20.0739 227.963 20.3352C228.301 20.5928 228.713 20.7216 229.202 20.7216C229.71 20.7216 230.134 20.5871 230.475 20.3182C230.816 20.0455 231.073 19.6761 231.248 19.2102C231.426 18.7443 231.515 18.2197 231.515 17.6364C231.515 17.0606 231.427 16.5436 231.253 16.0852C231.083 15.6269 230.825 15.2652 230.481 15C230.14 14.7348 229.713 14.6023 229.202 14.6023C228.71 14.6023 228.293 14.7292 227.952 14.983C227.615 15.2367 227.359 15.5909 227.185 16.0455C227.011 16.5 226.924 17.0303 226.924 17.6364ZM239.113 25.4545C238.42 25.4545 237.823 25.3636 237.323 25.1818C236.827 25 236.422 24.7595 236.107 24.4602C235.793 24.161 235.558 23.8333 235.403 23.4773L236.863 22.875C236.965 23.0417 237.102 23.2178 237.272 23.4034C237.446 23.5928 237.681 23.7538 237.977 23.8864C238.276 24.0189 238.66 24.0852 239.13 24.0852C239.774 24.0852 240.306 23.928 240.727 23.6136C241.147 23.303 241.357 22.8068 241.357 22.125V20.4091H241.249C241.147 20.5947 240.999 20.8011 240.806 21.0284C240.617 21.2557 240.355 21.4527 240.022 21.6193C239.689 21.786 239.255 21.8693 238.721 21.8693C238.032 21.8693 237.41 21.7083 236.857 21.3864C236.308 21.0606 235.872 20.5814 235.551 19.9489C235.232 19.3125 235.073 18.5303 235.073 17.6023C235.073 16.6742 235.23 15.8788 235.545 15.2159C235.863 14.553 236.299 14.0455 236.852 13.6932C237.405 13.3371 238.032 13.1591 238.732 13.1591C239.274 13.1591 239.711 13.25 240.045 13.4318C240.378 13.6098 240.638 13.8182 240.823 14.0568C241.013 14.2955 241.158 14.5057 241.261 14.6875H241.386V13.2727H243.051V22.1932C243.051 22.9432 242.876 23.5587 242.528 24.0398C242.179 24.5208 241.708 24.8769 241.113 25.108C240.522 25.339 239.855 25.4545 239.113 25.4545ZM239.096 20.4602C239.585 20.4602 239.997 20.3466 240.335 20.1193C240.676 19.8883 240.933 19.5587 241.107 19.1307C241.285 18.6989 241.374 18.1818 241.374 17.5795C241.374 16.9924 241.287 16.4754 241.113 16.0284C240.939 15.5814 240.683 15.233 240.346 14.983C240.009 14.7292 239.592 14.6023 239.096 14.6023C238.585 14.6023 238.158 14.7348 237.818 15C237.477 15.2614 237.219 15.6174 237.045 16.0682C236.874 16.5189 236.789 17.0227 236.789 17.5795C236.789 18.1515 236.876 18.6534 237.051 19.0852C237.225 19.517 237.482 19.8542 237.823 20.0966C238.168 20.339 238.592 20.4602 239.096 20.4602ZM245.649 22V13.2727H247.291V14.6591H247.382C247.541 14.1894 247.821 13.8201 248.223 13.5511C248.628 13.2784 249.086 13.142 249.598 13.142C249.704 13.142 249.829 13.1458 249.973 13.1534C250.121 13.161 250.236 13.1705 250.319 13.1818V14.8068C250.251 14.7879 250.13 14.767 249.956 14.7443C249.781 14.7178 249.607 14.7045 249.433 14.7045C249.031 14.7045 248.674 14.7898 248.359 14.9602C248.049 15.1269 247.802 15.3598 247.621 15.6591C247.439 15.9545 247.348 16.2917 247.348 16.6705V22H245.649ZM254.571 22.1932C254.018 22.1932 253.518 22.0909 253.071 21.8864C252.624 21.678 252.27 21.3769 252.009 20.983C251.751 20.589 251.622 20.1061 251.622 19.5341C251.622 19.0417 251.717 18.6364 251.906 18.3182C252.096 18 252.351 17.7481 252.673 17.5625C252.995 17.3769 253.355 17.2367 253.753 17.142C254.151 17.0473 254.556 16.9754 254.969 16.9261C255.492 16.8655 255.916 16.8163 256.242 16.7784C256.567 16.7367 256.804 16.6705 256.952 16.5795C257.1 16.4886 257.173 16.3409 257.173 16.1364V16.0966C257.173 15.6004 257.033 15.2159 256.753 14.9432C256.476 14.6705 256.064 14.5341 255.514 14.5341C254.942 14.5341 254.492 14.661 254.162 14.9148C253.836 15.1648 253.611 15.4432 253.486 15.75L251.889 15.3864C252.079 14.8561 252.355 14.428 252.719 14.1023C253.086 13.7727 253.509 13.5341 253.986 13.3864C254.463 13.2348 254.965 13.1591 255.492 13.1591C255.84 13.1591 256.209 13.2008 256.6 13.2841C256.994 13.3636 257.361 13.5114 257.702 13.7273C258.047 13.9432 258.329 14.2519 258.548 14.6534C258.768 15.0511 258.878 15.5682 258.878 16.2045V22H257.219V20.8068H257.151C257.041 21.0265 256.876 21.2424 256.656 21.4545C256.437 21.6667 256.155 21.8428 255.81 21.983C255.465 22.1231 255.052 22.1932 254.571 22.1932ZM254.941 20.8295C255.41 20.8295 255.812 20.7367 256.145 20.5511C256.482 20.3655 256.738 20.1231 256.912 19.8239C257.09 19.5208 257.179 19.197 257.179 18.8523V17.7273C257.119 17.7879 257.001 17.8447 256.827 17.8977C256.656 17.947 256.461 17.9905 256.242 18.0284C256.022 18.0625 255.808 18.0947 255.6 18.125C255.391 18.1515 255.217 18.1742 255.077 18.1932C254.747 18.2348 254.446 18.3049 254.173 18.4034C253.905 18.5019 253.689 18.6439 253.526 18.8295C253.367 19.0114 253.287 19.2538 253.287 19.5568C253.287 19.9773 253.442 20.2955 253.753 20.5114C254.064 20.7235 254.459 20.8295 254.941 20.8295ZM264.728 22.1705C264.023 22.1705 263.395 21.9905 262.841 21.6307C262.292 21.267 261.86 20.75 261.546 20.0795C261.235 19.4053 261.08 18.5966 261.08 17.6534C261.08 16.7102 261.237 15.9034 261.552 15.233C261.87 14.5625 262.305 14.0492 262.859 13.6932C263.412 13.3371 264.038 13.1591 264.739 13.1591C265.281 13.1591 265.716 13.25 266.046 13.4318C266.379 13.6098 266.637 13.8182 266.819 14.0568C267.004 14.2955 267.148 14.5057 267.251 14.6875H267.353V10.3636H269.052V22H267.393V20.642H267.251C267.148 20.8277 267.001 21.0398 266.807 21.2784C266.618 21.517 266.357 21.7254 266.023 21.9034C265.69 22.0814 265.258 22.1705 264.728 22.1705ZM265.103 20.7216C265.591 20.7216 266.004 20.5928 266.341 20.3352C266.682 20.0739 266.94 19.7121 267.114 19.25C267.292 18.7879 267.381 18.25 267.381 17.6364C267.381 17.0303 267.294 16.5 267.12 16.0455C266.946 15.5909 266.69 15.2367 266.353 14.983C266.016 14.7292 265.599 14.6023 265.103 14.6023C264.591 14.6023 264.165 14.7348 263.824 15C263.484 15.2652 263.226 15.6269 263.052 16.0852C262.881 16.5436 262.796 17.0606 262.796 17.6364C262.796 18.2197 262.883 18.7443 263.057 19.2102C263.232 19.6761 263.489 20.0455 263.83 20.3182C264.175 20.5871 264.599 20.7216 265.103 20.7216ZM275.558 22.1761C274.698 22.1761 273.957 21.9924 273.336 21.625C272.719 21.2538 272.241 20.733 271.904 20.0625C271.571 19.3883 271.404 18.5985 271.404 17.6932C271.404 16.7992 271.571 16.0114 271.904 15.3295C272.241 14.6477 272.711 14.1155 273.313 13.733C273.92 13.3504 274.628 13.1591 275.438 13.1591C275.931 13.1591 276.408 13.2405 276.87 13.4034C277.332 13.5663 277.747 13.822 278.115 14.1705C278.482 14.5189 278.772 14.9716 278.984 15.5284C279.196 16.0814 279.302 16.7538 279.302 17.5455V18.1477H272.365V16.875H277.637C277.637 16.428 277.546 16.0322 277.365 15.6875C277.183 15.339 276.927 15.0644 276.598 14.8636C276.272 14.6629 275.889 14.5625 275.45 14.5625C274.973 14.5625 274.556 14.6799 274.2 14.9148C273.848 15.1458 273.575 15.4489 273.382 15.8239C273.192 16.1951 273.098 16.5985 273.098 17.0341V18.0284C273.098 18.6117 273.2 19.108 273.404 19.517C273.613 19.9261 273.902 20.2386 274.274 20.4545C274.645 20.6667 275.079 20.7727 275.575 20.7727C275.897 20.7727 276.19 20.7273 276.456 20.6364C276.721 20.5417 276.95 20.4015 277.143 20.2159C277.336 20.0303 277.484 19.8011 277.586 19.5284L279.194 19.8182C279.065 20.2917 278.834 20.7064 278.501 21.0625C278.171 21.4148 277.757 21.6894 277.257 21.8864C276.76 22.0795 276.194 22.1761 275.558 22.1761Z" fill="#101828"/>
<path d="M212 26H280.052V27.0909H212V26Z" fill="#101828"/>
<path fill-rule="evenodd" clip-rule="evenodd" d="M301.058 8.05806C301.302 7.81398 301.698 7.81398 301.942 8.05806L306.942 13.0581C307.186 13.3021 307.186 13.6979 306.942 13.9419L301.942 18.9419C301.698 19.186 301.302 19.186 301.058 18.9419C300.814 18.6979 300.814 18.3021 301.058 18.0581L304.991 14.125H296.5C294.084 14.125 292.125 16.0838 292.125 18.5C292.125 20.9162 294.084 22.875 296.5 22.875H299C299.345 22.875 299.625 23.1548 299.625 23.5C299.625 23.8452 299.345 24.125 299 24.125H296.5C293.393 24.125 290.875 21.6066 290.875 18.5C290.875 15.3934 293.393 12.875 296.5 12.875H304.991L301.058 8.94194C300.814 8.69786 300.814 8.30214 301.058 8.05806Z" fill="#364153"/>
<path fill-rule="evenodd" clip-rule="evenodd" d="M321.558 10.5581C321.802 10.314 322.198 10.314 322.442 10.5581L327 15.1161L331.558 10.5581C331.802 10.314 332.198 10.314 332.442 10.5581C332.686 10.8021 332.686 11.1979 332.442 11.4419L327.884 16L332.442 20.5581C332.686 20.8021 332.686 21.1979 332.442 21.4419C332.198 21.686 331.802 21.686 331.558 21.4419L327 16.8839L322.442 21.4419C322.198 21.686 321.802 21.686 321.558 21.4419C321.314 21.1979 321.314 20.8021 321.558 20.5581L326.116 16L321.558 11.4419C321.314 11.1979 321.314 10.8021 321.558 10.5581Z" fill="#364153"/>
</svg>
