<svg width="48" height="48" viewBox="0 0 48 48" fill="none" xmlns="http://www.w3.org/2000/svg">
<rect width="48" height="48" rx="24" fill="black"/>
<g clip-path="url(#clip0_56_1857)">
<path d="M12 35L13.6963 28.8403C12.6476 27.0323 12.0974 24.9848 12.1032 22.8916C12.1032 16.3327 17.467 11 24.0516 11C27.2493 11 30.2521 12.2376 32.5043 14.4848C34.7622 16.7319 36.0057 19.7205 36 22.8973C36 29.4563 30.6361 34.789 24.0458 34.789H24.0401C22.0401 34.789 20.0745 34.2871 18.3266 33.3403L12 35ZM18.6304 31.1901L18.9914 31.4068C20.5158 32.308 22.2636 32.7814 24.0458 32.7871H24.0516C29.5243 32.7871 33.9828 28.3555 33.9828 22.903C33.9828 20.2624 32.9513 17.7814 31.0773 15.9106C29.2034 14.0399 26.7049 13.0133 24.0516 13.0133C18.5788 13.0076 14.1203 17.4392 14.1203 22.8916C14.1203 24.7567 14.6418 26.576 15.639 28.1502L15.8739 28.5266L14.8711 32.1711L18.6304 31.1901Z" fill="white"/>
<path d="M12.418 34.5837L14.0569 28.635C13.0426 26.8954 12.5097 24.9163 12.5097 22.8973C12.5154 16.5665 17.6902 11.4163 24.0512 11.4163C27.14 11.4163 30.034 12.6141 32.2117 14.7814C34.3893 16.9487 35.587 19.8346 35.587 22.903C35.587 29.2338 30.4065 34.384 24.0512 34.384H24.0455C22.1142 34.384 20.2174 33.8992 18.5326 32.9867L12.418 34.5837Z" fill="black"/>
<path d="M12 35L13.6963 28.8403C12.6476 27.0323 12.0974 24.9848 12.1032 22.8916C12.1032 16.3327 17.467 11 24.0516 11C27.2493 11 30.2521 12.2376 32.5043 14.4848C34.7622 16.7319 36.0057 19.7205 36 22.8973C36 29.4563 30.6361 34.789 24.0458 34.789H24.0401C22.0401 34.789 20.0745 34.2871 18.3266 33.3403L12 35ZM18.6304 31.1901L18.9914 31.4068C20.5158 32.308 22.2636 32.7814 24.0458 32.7871H24.0516C29.5243 32.7871 33.9828 28.3555 33.9828 22.903C33.9828 20.2624 32.9513 17.7814 31.0773 15.9106C29.2034 14.0399 26.7049 13.0133 24.0516 13.0133C18.5788 13.0076 14.1203 17.4392 14.1203 22.8916C14.1203 24.7567 14.6418 26.576 15.639 28.1502L15.8739 28.5266L14.8711 32.1711L18.6304 31.1901Z" fill="white"/>
<path fill-rule="evenodd" clip-rule="evenodd" d="M21.0655 17.9183C20.842 17.4221 20.6071 17.4106 20.395 17.4049C20.2231 17.3992 20.0225 17.3992 19.822 17.3992C19.6214 17.3992 19.3005 17.4734 19.0254 17.77C18.7503 18.0665 17.9824 18.7852 17.9824 20.251C17.9824 21.711 19.0541 23.1255 19.2031 23.3251C19.352 23.5247 21.2718 26.6217 24.3033 27.8137C26.8248 28.8061 27.3406 28.6065 27.885 28.5551C28.4294 28.5038 29.65 27.8365 29.9022 27.1407C30.1486 26.4449 30.1486 25.8517 30.0741 25.7262C29.9996 25.6008 29.799 25.5266 29.501 25.3783C29.203 25.23 27.736 24.5114 27.4609 24.4088C27.1859 24.3118 26.9853 24.2605 26.7904 24.557C26.5899 24.8536 26.0168 25.5209 25.8449 25.7205C25.673 25.9202 25.4953 25.943 25.1973 25.7947C24.8993 25.6464 23.9366 25.3327 22.7962 24.3175C21.9079 23.5304 21.3062 22.5551 21.1343 22.2586C20.9624 21.962 21.1171 21.8023 21.2661 21.654C21.3979 21.5228 21.5641 21.3061 21.7131 21.135C21.8621 20.9639 21.9137 20.8384 22.0111 20.6388C22.1085 20.4392 22.0626 20.2681 21.9881 20.1198C21.9137 19.9772 21.3291 18.5057 21.0655 17.9183Z" fill="white"/>
</g>
<defs>
<clipPath id="clip0_56_1857">
<rect width="24" height="24" fill="white" transform="translate(12 11)"/>
</clipPath>
</defs>
</svg>
