<svg width="40" height="40" viewBox="0 0 40 40" fill="none" xmlns="http://www.w3.org/2000/svg">
<g clip-path="url(#clip0_56_1814)">
<path d="M0 40L2.82712 29.7338C1.07927 26.7205 0.162369 23.308 0.17192 19.8194C0.17192 8.88783 9.11174 0 20.0859 0C25.4155 0 30.4202 2.06274 34.1738 5.80799C37.9369 9.55323 40.0095 14.5342 40 19.8289C40 30.7605 31.0601 39.6483 20.0764 39.6483H20.0668C16.7335 39.6483 13.4575 38.8118 10.5444 37.2338L0 40ZM11.0506 33.6502L11.6523 34.0114C14.1929 35.5133 17.106 36.3023 20.0764 36.3118H20.0859C29.2072 36.3118 36.638 28.9259 36.638 19.8384C36.638 15.4373 34.9188 11.3023 31.7956 8.18441C28.6724 5.06654 24.5081 3.35551 20.0859 3.35551C10.9647 3.34601 3.5339 10.7319 3.5339 19.8194C3.5339 22.9278 4.40305 25.9601 6.06494 28.5837L6.45654 29.211L4.7851 35.2852L11.0506 33.6502Z" fill="white"/>
<path d="M0.697266 39.3061L3.42888 29.3916C1.73833 26.4924 0.850083 23.1939 0.850083 19.8289C0.859634 9.27756 9.48427 0.693909 20.086 0.693909C25.234 0.693909 30.0573 2.69011 33.6867 6.30228C37.3162 9.91444 39.3123 14.7243 39.3123 19.8384C39.3123 30.3897 30.6781 38.9734 20.086 38.9734H20.0764C16.8577 38.9734 13.6963 38.1654 10.8883 36.6445L0.697266 39.3061Z" fill="black"/>
<path d="M0 40L2.82712 29.7338C1.07927 26.7205 0.162369 23.308 0.17192 19.8194C0.17192 8.88783 9.11174 0 20.0859 0C25.4155 0 30.4202 2.06274 34.1738 5.80799C37.9369 9.55323 40.0095 14.5342 40 19.8289C40 30.7605 31.0601 39.6483 20.0764 39.6483H20.0668C16.7335 39.6483 13.4575 38.8118 10.5444 37.2338L0 40ZM11.0506 33.6502L11.6523 34.0114C14.1929 35.5133 17.106 36.3023 20.0764 36.3118H20.0859C29.2072 36.3118 36.638 28.9259 36.638 19.8384C36.638 15.4373 34.9188 11.3023 31.7956 8.18441C28.6724 5.06654 24.5081 3.35551 20.0859 3.35551C10.9647 3.34601 3.5339 10.7319 3.5339 19.8194C3.5339 22.9278 4.40305 25.9601 6.06494 28.5837L6.45654 29.211L4.7851 35.2852L11.0506 33.6502Z" fill="white"/>
<path fill-rule="evenodd" clip-rule="evenodd" d="M15.1102 11.5304C14.7377 10.7034 14.3461 10.6844 13.9927 10.6749C13.7062 10.6654 13.3719 10.6654 13.0376 10.6654C12.7033 10.6654 12.1684 10.789 11.71 11.2833C11.2515 11.7776 9.97168 12.9753 9.97168 15.4183C9.97168 17.8517 11.7577 20.2091 12.0061 20.5418C12.2544 20.8745 15.454 26.0361 20.5065 28.0228C24.709 29.6768 25.5686 29.3441 26.476 29.2586C27.3833 29.173 29.4177 28.0608 29.8379 26.9011C30.2486 25.7415 30.2486 24.7529 30.1245 24.5437C30.0003 24.3346 29.666 24.211 29.1694 23.9639C28.6727 23.7167 26.2276 22.519 25.7692 22.3479C25.3107 22.1863 24.9764 22.1008 24.6517 22.5951C24.3174 23.0894 23.3623 24.2015 23.0758 24.5342C22.7892 24.8669 22.4932 24.905 21.9965 24.6578C21.4998 24.4107 19.8953 23.8878 17.9946 22.1958C16.5142 20.884 15.5113 19.2586 15.2248 18.7643C14.9382 18.27 15.1961 18.0038 15.4445 17.7567C15.6641 17.538 15.9411 17.1768 16.1894 16.8916C16.4378 16.6065 16.5237 16.3973 16.6861 16.0646C16.8485 15.7319 16.7721 15.4468 16.6479 15.1996C16.5237 14.962 15.5495 12.5095 15.1102 11.5304Z" fill="white"/>
</g>
<defs>
<clipPath id="clip0_56_1814">
<rect width="40" height="40" fill="white"/>
</clipPath>
</defs>
</svg>
