<svg width="48" height="48" viewBox="0 0 48 48" fill="none" xmlns="http://www.w3.org/2000/svg">
<rect width="48" height="48" rx="24" fill="black"/>
<path d="M14.5738 22.4254V19.2201C14.5738 19.1014 14.5857 19.0301 14.7884 19.0301H17.5169C17.9936 19.0301 18.2557 19.4338 18.4464 20.1936L18.6013 20.7991H19.066C19.1493 19.0778 19.2207 18.3299 19.2207 18.3299C19.2207 18.3299 18.0531 18.4604 17.362 18.4604H13.871L12 18.401V18.8997L12.6316 19.0183C13.0725 19.1015 13.1795 19.1964 13.2156 19.6001C13.2156 19.6001 13.2514 20.7873 13.2514 22.7462C13.2514 24.7048 13.2156 25.8802 13.2156 25.8802C13.2156 26.2363 13.0725 26.3668 12.6316 26.4502L12 26.569V27.0673L13.871 27.0081H16.9928C17.6958 27.0081 19.3282 27.0673 19.3282 27.0673C19.3638 26.6399 19.6023 24.7048 19.638 24.4914H19.1971L18.7324 25.5479C18.363 26.3788 17.8269 26.4382 17.231 26.4382H15.4555C14.8597 26.4382 14.5737 26.2007 14.5737 25.6903V22.9836C14.5737 22.9836 15.8725 22.9836 16.3251 23.0192C16.6588 23.0431 16.8613 23.138 16.9687 23.601L17.1117 24.2183H17.6238L17.5882 22.6629L17.6596 21.096H17.1474L16.9807 21.7845C16.8733 22.2356 16.802 22.3189 16.3372 22.3662C15.813 22.4258 14.5736 22.4138 14.5736 22.4138V22.4256H14.5738V22.4254ZM21.6396 19.5526C21.4728 20.2886 21.3059 20.8584 20.7221 21.2383C20.3647 21.4757 20.0071 21.5587 19.8643 21.5706V22.0217H20.9247V25.6662C20.9247 26.6873 21.604 27.186 22.5095 27.186C23.2125 27.186 23.9392 26.8892 24.1895 26.2718L23.9392 25.9512C23.82 26.1531 23.439 26.4499 22.9623 26.4499C22.4381 26.4499 22.1521 26.0936 22.1521 25.1916V21.9744L23.9157 22.1051L24.0109 21.2977L22.1522 21.369V19.5644L21.6396 19.5526ZM25.405 25.1584L24.9522 25.1703C24.976 25.4314 24.988 25.7639 24.988 26.0725C24.988 26.3931 24.9761 26.6899 24.9522 26.8323C24.9522 26.8323 25.8578 27.1644 26.7753 27.1644C28.0145 27.1644 29.0035 26.5708 29.0035 25.4074C29.0035 23.4132 26.0009 23.7101 26.0009 22.3683C26.0009 21.8105 26.5013 21.5967 27.0494 21.5967C27.4783 21.5967 27.8357 21.751 27.9072 21.9768L28.2052 22.8671L28.6461 22.8434C28.6819 22.3685 28.7057 21.8224 28.7772 21.3832C28.3958 21.217 27.5974 21.1218 27.0974 21.1218C25.9294 21.1218 24.9882 21.6324 24.9882 22.7721C24.9882 24.7546 27.9193 24.3509 27.9193 25.8114C27.9193 26.3335 27.5974 26.7016 26.8708 26.7016C26.2037 26.7016 25.8699 26.3574 25.7391 26.0129L25.405 25.1584ZM32.5866 26.5299C31.8968 28.4497 31.0523 28.9471 30.2912 28.9471C29.9699 28.9471 29.8155 28.8048 29.7677 28.58L29.5893 27.6555L29.0897 27.6791C28.9945 28.2243 28.8994 28.8289 28.7687 29.3265C29.0661 29.5513 29.5654 29.6701 29.958 29.6701C30.7789 29.6701 32.0276 29.5632 33.1692 26.8616L35.0842 22.3588C35.239 21.9913 35.2982 21.9558 35.7502 21.7779L36 21.6833V21.2685L34.87 21.3278L33.6569 21.2685V21.6833L33.966 21.7779C34.2751 21.8729 34.4181 21.9913 34.4181 22.2046C34.4181 22.3112 34.3823 22.4179 34.3227 22.5837C34.1443 23.0343 33.0382 25.7122 32.7411 26.2812L33.0381 26.1743C32.5147 24.8827 31.7182 22.7258 31.5991 22.3588C31.5753 22.2877 31.5634 22.2284 31.5634 22.1689C31.5634 21.9794 31.6943 21.8253 31.9797 21.7661L32.3723 21.6834V21.2686L30.7427 21.3278L29.4463 21.2686V21.6834L29.6604 21.7544C29.9578 21.8492 30.0292 21.9322 30.2076 22.3469C31.1944 24.5985 31.6586 25.8307 32.2887 27.4425L32.5866 26.5299Z" fill="white"/>
</svg>
