<svg width="40" height="40" viewBox="0 0 40 40" fill="none" xmlns="http://www.w3.org/2000/svg">
<path d="M4.28975 17.3757V12.0335C4.28975 11.8356 4.30957 11.7169 4.64734 11.7169H9.19488C9.98935 11.7169 10.4262 12.3897 10.7441 13.6559L11.0022 14.6652H11.7766C11.9155 11.7963 12.0345 10.5498 12.0345 10.5498C12.0345 10.5498 10.0885 10.7673 8.93662 10.7673H3.11832L0 10.6684V11.4994L1.05273 11.6972C1.78751 11.8358 1.9659 11.9939 2.02595 12.6669C2.02595 12.6669 2.08565 14.6454 2.08565 17.9103C2.08565 21.1746 2.02595 23.1337 2.02595 23.1337C2.02595 23.7272 1.78751 23.9447 1.05273 24.0837L0 24.2816V25.1122L3.11832 25.0135H8.32135C9.49301 25.0135 12.2136 25.1122 12.2136 25.1122C12.273 24.3998 12.6704 21.1746 12.73 20.8189H11.9952L11.2207 22.5799C10.605 23.9646 9.71151 24.0637 8.71836 24.0637H5.75919C4.76615 24.0637 4.28951 23.6679 4.28951 22.8172V18.3059C4.28951 18.3059 6.45409 18.3059 7.20857 18.3654C7.76472 18.4051 8.10215 18.5634 8.28112 19.3349L8.51956 20.3638H9.37303L9.31368 17.7716L9.43272 15.16H8.57902L8.30118 16.3075C8.1222 17.0593 8.00328 17.1982 7.22862 17.277C6.35498 17.3763 4.28939 17.3564 4.28939 17.3564V17.376H4.28975V17.3757ZM16.066 12.5877C15.7879 13.8144 15.5099 14.764 14.5368 15.3972C13.9411 15.7928 13.3452 15.9311 13.1072 15.951V16.7028H14.8745V22.777C14.8745 24.4789 16.0067 25.31 17.5158 25.31C18.6875 25.31 19.8987 24.8154 20.3159 23.7863L19.8987 23.252C19.7 23.5886 19.0649 24.0831 18.2705 24.0831C17.3968 24.0831 16.9202 23.4894 16.9202 21.9859V16.6241L19.8595 16.8419L20.0182 15.4961L16.9203 15.6149V12.6073L16.066 12.5877ZM22.3416 21.9307L21.587 21.9504C21.6266 22.3856 21.6467 22.9398 21.6467 23.4542C21.6467 23.9885 21.6269 24.4831 21.587 24.7204C21.587 24.7204 23.0963 25.2739 24.6255 25.2739C26.6908 25.2739 28.3392 24.2847 28.3392 22.3456C28.3392 19.022 23.3348 19.5168 23.3348 17.2806C23.3348 16.3508 24.1688 15.9945 25.0823 15.9945C25.7972 15.9945 26.3929 16.2517 26.5121 16.628L27.0086 18.1119L27.7435 18.0724C27.8032 17.2808 27.8428 16.3706 27.962 15.6387C27.3264 15.3616 25.9957 15.2031 25.1623 15.2031C23.2156 15.2031 21.6471 16.054 21.6471 17.9535C21.6471 21.2576 26.5321 20.5849 26.5321 23.0189C26.5321 23.8891 25.9957 24.5026 24.7846 24.5026C23.6728 24.5026 23.1165 23.929 22.8985 23.3549L22.3416 21.9307ZM34.311 24.2165C33.1613 27.4162 31.7539 28.2452 30.4854 28.2452C29.9499 28.2452 29.6925 28.008 29.6128 27.6333L29.3155 26.0924L28.4828 26.1319C28.3242 27.0405 28.1657 28.0482 27.9479 28.8774C28.4435 29.2522 29.2756 29.4501 29.9301 29.4501C31.2982 29.4501 33.3793 29.272 35.282 24.7693L38.4737 17.2646C38.7316 16.6522 38.8303 16.5929 39.5836 16.2965L40 16.1388V15.4476L38.1167 15.5463L36.0949 15.4476V16.1388L36.61 16.2965C37.1252 16.4548 37.3635 16.6522 37.3635 17.0077C37.3635 17.1854 37.3038 17.3632 37.2045 17.6394C36.9072 18.3904 35.0636 22.8537 34.5686 23.8019L35.0635 23.6238C34.1911 21.4712 32.8636 17.8764 32.6652 17.2647C32.6255 17.1461 32.6057 17.0474 32.6057 16.9481C32.6057 16.6323 32.8238 16.3755 33.2996 16.2768L33.9538 16.139V15.4477L31.2378 15.5464L29.0772 15.4477V16.139L29.4341 16.2573C29.9296 16.4153 30.0486 16.5537 30.3459 17.2448C31.9907 20.9975 32.7643 23.0511 33.8144 25.7374L34.311 24.2165Z" fill="black"/>
</svg>
