<svg width="24" height="24" viewBox="0 0 24 24" fill="none" xmlns="http://www.w3.org/2000/svg">
<g clip-path="url(#clip0_150_2189)">
<path fill-rule="evenodd" clip-rule="evenodd" d="M11.9991 0.601562C9.16811 0.603031 6.42991 1.60572 4.27417 3.43035C2.11842 5.25497 0.685702 7.78255 0.232187 10.5611C-0.221328 13.3397 0.333931 16.1881 1.79869 18.5969C3.26345 21.0058 5.54219 22.818 8.22744 23.7096C8.81985 23.8196 9.043 23.4524 9.043 23.1402C9.043 22.8281 9.03114 21.9229 9.02719 20.9333C5.70969 21.65 5.00868 19.5333 5.00868 19.5333C4.46761 18.1589 3.68563 17.7976 3.68563 17.7976C2.60349 17.0633 3.7666 17.077 3.7666 17.077C4.96524 17.1615 5.59517 18.3003 5.59517 18.3003C6.65756 20.1126 8.38542 19.5883 9.06471 19.282C9.17135 18.5143 9.48138 17.992 9.823 17.6955C7.17295 17.3971 4.38862 16.38 4.38862 11.8365C4.3722 10.6582 4.81195 9.5187 5.61689 8.65376C5.49446 8.35531 5.08569 7.14974 5.73339 5.5122C5.73339 5.5122 6.73458 5.19412 9.01338 6.72759C10.968 6.19611 13.0303 6.19611 14.9849 6.72759C17.2617 5.19412 18.2609 5.5122 18.2609 5.5122C18.9106 7.14581 18.5018 8.35138 18.3794 8.65376C19.1869 9.51884 19.6276 10.6603 19.6096 11.8405C19.6096 16.3938 16.8194 17.3971 14.1654 17.6896C14.5919 18.0588 14.973 18.7794 14.973 19.8868C14.973 21.4733 14.9592 22.7495 14.9592 23.1402C14.9592 23.4564 15.1744 23.8255 15.7787 23.7096C18.4643 22.8179 20.7432 21.0053 22.208 18.5961C23.6727 16.1868 24.2277 13.338 23.7736 10.5592C23.3196 7.78036 21.8862 5.25275 19.7297 3.42844C17.5733 1.60413 14.8344 0.6021 12.0031 0.601562H11.9991Z" fill="#F9FAFB"/>
<path d="M4.5846 17.6235C4.55893 17.6824 4.46414 17.7001 4.38713 17.6589C4.31012 17.6176 4.25285 17.5411 4.2805 17.4802C4.30815 17.4193 4.40096 17.4036 4.47797 17.4449C4.55498 17.4861 4.61422 17.5646 4.5846 17.6235Z" fill="#F9FAFB"/>
<path d="M5.07223 18.1652C5.03133 18.1857 4.98454 18.1914 4.93988 18.1814C4.89521 18.1713 4.85544 18.1462 4.82737 18.1102C4.75035 18.0277 4.73455 17.9138 4.79379 17.8628C4.85303 17.8117 4.95967 17.8353 5.03668 17.9178C5.1137 18.0002 5.13147 18.1141 5.07223 18.1652Z" fill="#F9FAFB"/>
<path d="M5.53796 18.8416C5.4649 18.8926 5.34048 18.8416 5.27137 18.7395C5.25226 18.7211 5.23706 18.6992 5.22668 18.6749C5.2163 18.6506 5.21094 18.6245 5.21094 18.5981C5.21094 18.5717 5.2163 18.5456 5.22668 18.5213C5.23706 18.497 5.25226 18.475 5.27137 18.4567C5.34443 18.4076 5.46885 18.4567 5.53796 18.5569C5.60708 18.657 5.60905 18.7905 5.53796 18.8416Z" fill="#F9FAFB"/>
<path d="M6.17626 19.4993C6.11109 19.5719 5.97879 19.5523 5.87018 19.4541C5.76157 19.3559 5.73589 19.2224 5.80106 19.1517C5.86622 19.081 5.99853 19.1007 6.11109 19.1969C6.22365 19.2931 6.24537 19.4286 6.17626 19.4993Z" fill="#F9FAFB"/>
<path d="M7.07038 19.8853C7.04076 19.9776 6.90648 20.0188 6.7722 19.9795C6.63792 19.9402 6.54906 19.8303 6.57473 19.736C6.6004 19.6418 6.73666 19.5986 6.87291 19.6418C7.00917 19.685 7.09605 19.7891 7.07038 19.8853Z" fill="#F9FAFB"/>
<path d="M8.0505 19.9541C8.0505 20.0503 7.93993 20.1327 7.79775 20.1347C7.65557 20.1367 7.53906 20.0581 7.53906 19.9619C7.53906 19.8657 7.64964 19.7833 7.79182 19.7813C7.934 19.7793 8.0505 19.8559 8.0505 19.9541Z" fill="#F9FAFB"/>
<path d="M8.95481 19.7996C8.97259 19.8958 8.87385 19.996 8.73167 20.0195C8.58949 20.0431 8.46509 19.9861 8.44731 19.8919C8.42954 19.7976 8.53223 19.6955 8.67046 19.67C8.80869 19.6445 8.93704 19.7034 8.95481 19.7996Z" fill="#F9FAFB"/>
</g>
<defs>
<clipPath id="clip0_150_2189">
<rect width="24" height="24" fill="white"/>
</clipPath>
</defs>
</svg>
