<svg width="24" height="24" viewBox="0 0 24 24" fill="none" xmlns="http://www.w3.org/2000/svg">
<g clip-path="url(#clip0_150_2205)">
<path d="M23.5057 6.23088C23.2289 5.20287 22.4184 4.39233 21.3904 4.11556C19.5123 3.60156 11.9999 3.60156 11.9999 3.60156C11.9999 3.60156 4.48762 3.60156 2.60954 4.09579C1.60131 4.37256 0.771002 5.20287 0.494232 6.23088C0 8.10896 0 12.0035 0 12.0035C0 12.0035 0 15.9178 0.494232 17.7761C0.771002 18.8041 1.58154 19.6147 2.60954 19.8914C4.50739 20.4054 11.9999 20.4054 11.9999 20.4054C11.9999 20.4054 19.5123 20.4054 21.3904 19.9112C22.4184 19.6344 23.2289 18.8239 23.5057 17.7959C23.9999 15.9178 23.9999 12.0233 23.9999 12.0233C23.9999 12.0233 24.0197 8.10896 23.5057 6.23088Z" fill="#F9FAFB"/>
<path d="M9.60938 15.6023L15.8565 12.0043L9.60938 8.40625V15.6023Z" fill="#101828"/>
</g>
<defs>
<clipPath id="clip0_150_2205">
<rect width="24" height="24" fill="white"/>
</clipPath>
</defs>
</svg>
