<svg width="151" height="42" viewBox="0 0 151 42" fill="none" xmlns="http://www.w3.org/2000/svg">
<path d="M138 0.5C144.904 0.5 150.5 6.09644 150.5 13V29C150.5 35.9036 144.904 41.5 138 41.5H13C6.09644 41.5 0.5 35.9036 0.5 29V13C0.5 6.09644 6.09644 0.500001 13 0.5H138Z" fill="#F3F4F6"/>
<path d="M138 0.5C144.904 0.5 150.5 6.09644 150.5 13V29C150.5 35.9036 144.904 41.5 138 41.5H13C6.09644 41.5 0.5 35.9036 0.5 29V13C0.5 6.09644 6.09644 0.500001 13 0.5H138Z" stroke="#99A1AF"/>
<path d="M29 13.5V28.5M36.5 21L21.5 21" stroke="#101828" stroke-width="2" stroke-linecap="round" stroke-linejoin="round"/>
<path d="M50.2784 27V15.3636H54.5398C55.3655 15.3636 56.0492 15.5 56.5909 15.7727C57.1326 16.0417 57.5379 16.4072 57.8068 16.8693C58.0758 17.3277 58.2102 17.8447 58.2102 18.4205C58.2102 18.9053 58.1212 19.3144 57.9432 19.6477C57.7652 19.9773 57.5265 20.2424 57.2273 20.4432C56.9318 20.6402 56.6061 20.7841 56.25 20.875V20.9886C56.6364 21.0076 57.0133 21.1326 57.3807 21.3636C57.7519 21.5909 58.0587 21.9148 58.3011 22.3352C58.5436 22.7557 58.6648 23.267 58.6648 23.8693C58.6648 24.464 58.5246 24.9981 58.2443 25.4716C57.9678 25.9413 57.5398 26.3144 56.9602 26.5909C56.3807 26.8636 55.6402 27 54.7386 27H50.2784ZM52.0341 25.4943H54.5682C55.4091 25.4943 56.0114 25.3314 56.375 25.0057C56.7386 24.6799 56.9205 24.2727 56.9205 23.7841C56.9205 23.4167 56.8277 23.0795 56.642 22.7727C56.4564 22.4659 56.1913 22.2216 55.8466 22.0398C55.5057 21.858 55.1004 21.767 54.6307 21.767H52.0341V25.4943ZM52.0341 20.3977H54.3864C54.7803 20.3977 55.1345 20.322 55.4489 20.1705C55.767 20.0189 56.0189 19.8068 56.2045 19.5341C56.3939 19.2576 56.4886 18.9318 56.4886 18.5568C56.4886 18.0758 56.3201 17.6723 55.983 17.3466C55.6458 17.0208 55.1288 16.858 54.4318 16.858H52.0341V20.3977ZM66.4592 23.3807V18.2727H68.1637V27H66.4933V25.4886H66.4024C66.2016 25.9545 65.8797 26.3428 65.4365 26.6534C64.9971 26.9602 64.4497 27.1136 63.7944 27.1136C63.2338 27.1136 62.7376 26.9905 62.3058 26.7443C61.8778 26.4943 61.5406 26.125 61.2944 25.6364C61.052 25.1477 60.9308 24.5436 60.9308 23.8239V18.2727H62.6297V23.6193C62.6297 24.214 62.7944 24.6875 63.124 25.0398C63.4535 25.392 63.8816 25.5682 64.4081 25.5682C64.7262 25.5682 65.0425 25.4886 65.3569 25.3295C65.6751 25.1705 65.9384 24.9299 66.1467 24.608C66.3588 24.286 66.463 23.8769 66.4592 23.3807ZM74.8403 18.2727V19.6364H70.0732V18.2727H74.8403ZM71.3516 16.1818H73.0505V24.4375C73.0505 24.767 73.0998 25.0152 73.1982 25.1818C73.2967 25.3447 73.4236 25.4564 73.5789 25.517C73.738 25.5739 73.9104 25.6023 74.096 25.6023C74.2323 25.6023 74.3516 25.5928 74.4539 25.5739C74.5562 25.5549 74.6357 25.5398 74.6926 25.5284L74.9994 26.9318C74.9009 26.9697 74.7607 27.0076 74.5789 27.0455C74.3971 27.0871 74.1698 27.1098 73.8971 27.1136C73.4501 27.1212 73.0335 27.0417 72.6471 26.875C72.2607 26.7083 71.9482 26.4508 71.7096 26.1023C71.471 25.7538 71.3516 25.3163 71.3516 24.7898V16.1818ZM81.1134 18.2727V19.6364H76.3464V18.2727H81.1134ZM77.6248 16.1818H79.3236V24.4375C79.3236 24.767 79.3729 25.0152 79.4714 25.1818C79.5698 25.3447 79.6967 25.4564 79.852 25.517C80.0111 25.5739 80.1835 25.6023 80.3691 25.6023C80.5055 25.6023 80.6248 25.5928 80.727 25.5739C80.8293 25.5549 80.9089 25.5398 80.9657 25.5284L81.2725 26.9318C81.174 26.9697 81.0339 27.0076 80.852 27.0455C80.6702 27.0871 80.443 27.1098 80.1702 27.1136C79.7233 27.1212 79.3066 27.0417 78.9202 26.875C78.5339 26.7083 78.2214 26.4508 77.9827 26.1023C77.7441 25.7538 77.6248 25.3163 77.6248 24.7898V16.1818ZM86.8951 27.1761C86.0769 27.1761 85.3629 26.9886 84.753 26.6136C84.1432 26.2386 83.6697 25.714 83.3326 25.0398C82.9954 24.3655 82.8269 23.5777 82.8269 22.6761C82.8269 21.7708 82.9954 20.9792 83.3326 20.3011C83.6697 19.6231 84.1432 19.0966 84.753 18.7216C85.3629 18.3466 86.0769 18.1591 86.8951 18.1591C87.7132 18.1591 88.4273 18.3466 89.0371 18.7216C89.6469 19.0966 90.1204 19.6231 90.4576 20.3011C90.7947 20.9792 90.9632 21.7708 90.9632 22.6761C90.9632 23.5777 90.7947 24.3655 90.4576 25.0398C90.1204 25.714 89.6469 26.2386 89.0371 26.6136C88.4273 26.9886 87.7132 27.1761 86.8951 27.1761ZM86.9007 25.75C87.431 25.75 87.8704 25.6098 88.2189 25.3295C88.5674 25.0492 88.825 24.6761 88.9916 24.2102C89.1621 23.7443 89.2473 23.2311 89.2473 22.6705C89.2473 22.1136 89.1621 21.6023 88.9916 21.1364C88.825 20.6667 88.5674 20.2898 88.2189 20.0057C87.8704 19.7216 87.431 19.5795 86.9007 19.5795C86.3666 19.5795 85.9235 19.7216 85.5712 20.0057C85.2227 20.2898 84.9632 20.6667 84.7928 21.1364C84.6261 21.6023 84.5428 22.1136 84.5428 22.6705C84.5428 23.2311 84.6261 23.7443 84.7928 24.2102C84.9632 24.6761 85.2227 25.0492 85.5712 25.3295C85.9235 25.6098 86.3666 25.75 86.9007 25.75ZM94.8784 21.8182V27H93.1795V18.2727H94.8102V19.6932H94.9182C95.1189 19.2311 95.4333 18.8598 95.8614 18.5795C96.2932 18.2992 96.8367 18.1591 97.492 18.1591C98.0867 18.1591 98.6076 18.2841 99.0545 18.5341C99.5015 18.7803 99.8481 19.1477 100.094 19.6364C100.341 20.125 100.464 20.7292 100.464 21.4489V27H98.7648V21.6534C98.7648 21.0208 98.6 20.5265 98.2705 20.1705C97.9409 19.8106 97.4883 19.6307 96.9125 19.6307C96.5186 19.6307 96.1682 19.7159 95.8614 19.8864C95.5583 20.0568 95.3178 20.3068 95.1398 20.6364C94.9655 20.9621 94.8784 21.3561 94.8784 21.8182Z" fill="#101828"/>
<path d="M122 13.5V28.5M129.5 21L114.5 21" stroke="#101828" stroke-width="2" stroke-linecap="round" stroke-linejoin="round"/>
</svg>
