<svg width="48" height="48" viewBox="0 0 48 48" fill="none" xmlns="http://www.w3.org/2000/svg">
<rect width="48" height="48" rx="24" fill="black"/>
<path d="M14.238 28.2773H14.3729L14.5078 26.2998L14.3729 24.3223C14.3796 24.3017 14.3813 24.2797 14.3781 24.2583C14.3748 24.2368 14.3665 24.2165 14.354 24.1989C14.3415 24.1813 14.3251 24.167 14.3061 24.1571C14.2871 24.1472 14.2661 24.1421 14.2448 24.1421C14.2234 24.1421 14.2024 24.1472 14.1834 24.1571C14.1644 24.167 14.148 24.1813 14.1355 24.1989C14.123 24.2165 14.1147 24.2368 14.1115 24.2583C14.1082 24.2797 14.1099 24.3017 14.1166 24.3223L13.9682 26.2998L14.1031 28.2773H14.238ZM13.469 27.6181V27.522L13.7254 26.341L13.469 24.9677H13.3341L13.1992 26.341L13.3341 27.522C13.3341 27.6181 13.3341 27.6181 13.469 27.6181ZM15.1419 23.9378C15.1419 23.8004 15.1419 23.8004 15.007 23.8004V23.9378L14.7507 26.2998L15.007 28.5382V28.6755C15.1419 28.6755 15.1419 28.6755 15.1419 28.5382L15.3982 26.2998L15.1419 23.9378ZM15.9244 28.7991C15.9426 28.8013 15.9611 28.7993 15.9784 28.7932C15.9958 28.7871 16.0116 28.777 16.0246 28.7638C16.0375 28.7506 16.0474 28.7345 16.0534 28.7169C16.0594 28.6992 16.0614 28.6804 16.0593 28.6618L16.3156 26.2998L16.0593 23.8004C16.0614 23.7819 16.0594 23.7631 16.0534 23.7454C16.0474 23.7277 16.0375 23.7117 16.0246 23.6985C16.0116 23.6852 15.9958 23.6752 15.9784 23.6691C15.9611 23.6629 15.9426 23.6609 15.9244 23.6631L15.7894 23.8004L15.6545 26.2998L15.7894 28.6618L15.9244 28.7991ZM16.8282 28.7991C16.8465 28.8013 16.865 28.7993 16.8823 28.7932C16.8997 28.7871 16.9154 28.777 16.9284 28.7638C16.9414 28.7506 16.9513 28.7345 16.9573 28.7169C16.9633 28.6992 16.9653 28.6804 16.9631 28.6618L17.2195 26.2998L16.9631 24.0614C16.9653 24.0428 16.9633 24.024 16.9573 24.0063C16.9513 23.9886 16.9414 23.9726 16.9284 23.9594C16.9154 23.9462 16.8997 23.9361 16.8823 23.93C16.865 23.9239 16.8465 23.9218 16.8282 23.924C16.6933 23.924 16.6933 23.924 16.6933 24.0614L16.437 26.2998L16.6663 28.6755C16.6663 28.7991 16.6663 28.7991 16.8282 28.7991ZM18.0154 26.2998L17.8805 22.6194C17.8827 22.6009 17.8807 22.582 17.8747 22.5644C17.8687 22.5467 17.8588 22.5307 17.8458 22.5174C17.8328 22.5042 17.8171 22.4942 17.7997 22.4881C17.7823 22.4819 17.7639 22.4799 17.7456 22.4821C17.6107 22.4821 17.4893 22.4821 17.4893 22.6194L17.3544 26.2998L17.4893 28.6618C17.4893 28.7991 17.6242 28.7991 17.7456 28.7991C17.7639 28.8013 17.7823 28.7993 17.7997 28.7932C17.8171 28.7871 17.8328 28.777 17.8458 28.7638C17.8588 28.7506 17.8687 28.7345 17.8747 28.7169C17.8807 28.6992 17.8827 28.6804 17.8805 28.6618L18.0154 26.2998ZM18.5011 28.7991C18.636 28.7991 18.7574 28.7991 18.7574 28.6618L18.8923 26.2998L18.7574 21.6993C18.6894 21.6258 18.5992 21.5774 18.5011 21.562L18.3662 21.6993L18.2313 26.2998L18.3662 28.6618C18.364 28.6804 18.366 28.6992 18.372 28.7169C18.378 28.7345 18.3879 28.7506 18.4009 28.7638C18.4139 28.777 18.4297 28.7871 18.447 28.7932C18.4644 28.7993 18.4829 28.8013 18.5011 28.7991ZM19.3645 21.1775C19.2296 21.1775 19.2296 21.3148 19.2296 21.4384L19.0947 26.2998L19.2296 28.6618C19.2296 28.7991 19.2296 28.7991 19.3645 28.7991C19.4994 28.7991 19.6208 28.7991 19.6208 28.6618L19.7557 26.2998L19.6208 21.4384C19.6148 21.3713 19.5859 21.3084 19.539 21.2608C19.4922 21.2131 19.4305 21.1836 19.3645 21.1775ZM20.3224 28.7991C20.4573 28.7991 20.5787 28.7991 20.5787 28.6618L20.7136 26.2998L20.5787 21.1638C20.5787 21.0264 20.4438 21.0264 20.3224 21.0264C20.2009 21.0264 20.066 21.0264 20.066 21.1638L19.9311 26.2998L20.066 28.6618C20.0525 28.7991 20.1874 28.7991 20.3224 28.7991ZM21.2262 28.7991C21.2922 28.793 21.3539 28.7635 21.4008 28.7159C21.4476 28.6682 21.4765 28.6053 21.4826 28.5382L21.6175 26.2998L21.4826 21.3011C21.4826 21.2319 21.4556 21.1655 21.4075 21.1166C21.3594 21.0677 21.2942 21.0402 21.2262 21.0402C21.1583 21.0402 21.0931 21.0677 21.045 21.1166C20.9969 21.1655 20.9699 21.2319 20.9699 21.3011L20.835 26.2998L20.9699 28.5382C20.9759 28.6053 21.0049 28.6682 21.0517 28.7159C21.0985 28.7635 21.1603 28.793 21.2262 28.7991ZM22.5079 26.2998L22.3729 21.562C22.3729 21.5278 22.3663 21.4938 22.3534 21.4622C22.3406 21.4305 22.3217 21.4018 22.2979 21.3775C22.2741 21.3533 22.2458 21.3341 22.2147 21.321C22.1836 21.3078 22.1503 21.3011 22.1166 21.3011C22.083 21.3011 22.0496 21.3078 22.0185 21.321C21.9874 21.3341 21.9592 21.3533 21.9354 21.3775C21.9116 21.4018 21.8927 21.4305 21.8798 21.4622C21.8669 21.4938 21.8603 21.5278 21.8603 21.562L21.7254 26.2998L21.8603 28.5382C21.8603 28.5725 21.8669 28.6064 21.8798 28.6381C21.8927 28.6697 21.9116 28.6985 21.9354 28.7227C21.9592 28.7469 21.9874 28.7662 22.0185 28.7793C22.0496 28.7924 22.083 28.7991 22.1166 28.7991C22.1503 28.7991 22.1836 28.7924 22.2147 28.7793C22.2458 28.7662 22.2741 28.7469 22.2979 28.7227C22.3217 28.6985 22.3406 28.6697 22.3534 28.6381C22.3663 28.6064 22.3729 28.5725 22.3729 28.5382L22.5079 26.2998ZM23.034 28.7991C23.0999 28.793 23.1617 28.7635 23.2085 28.7159C23.2553 28.6682 23.2843 28.6053 23.2903 28.5382L23.4252 26.2998L23.2903 20.6557C23.2903 20.5865 23.2633 20.5201 23.2152 20.4712C23.1672 20.4222 23.102 20.3947 23.034 20.3947C22.966 20.3947 22.9008 20.4222 22.8527 20.4712C22.8047 20.5201 22.7777 20.5865 22.7777 20.6557L22.6428 26.3135L22.7777 28.5519C22.7866 28.6166 22.8168 28.6763 22.8634 28.7212C22.9099 28.7661 22.9701 28.7936 23.034 28.7991ZM23.9379 19.8592C23.8719 19.8653 23.8102 19.8948 23.7634 19.9424C23.7165 19.9901 23.6876 20.053 23.6816 20.1201L23.5466 26.2998L23.6816 28.5382C23.6816 28.6074 23.7086 28.6738 23.7566 28.7227C23.8047 28.7716 23.8699 28.7991 23.9379 28.7991C24.0059 28.7991 24.0711 28.7716 24.1191 28.7227C24.1672 28.6738 24.1942 28.6074 24.1942 28.5382L24.3291 26.2998L24.1942 20.1201C24.1882 20.053 24.1592 19.9901 24.1124 19.9424C24.0656 19.8948 24.0038 19.8653 23.9379 19.8592ZM24.8418 28.7991H32.2077C32.549 28.7991 32.8869 28.7305 33.2021 28.5971C33.5172 28.4638 33.8034 28.2683 34.0441 28.022C34.2848 27.7757 34.4753 27.4834 34.6047 27.162C34.7341 26.8405 34.7997 26.4961 34.798 26.1487C34.8088 25.7943 34.7499 25.4412 34.6249 25.1103C34.4999 24.7793 34.3113 24.477 34.07 24.2212C33.8288 23.9654 33.5398 23.7612 33.22 23.6206C32.9002 23.4799 32.5561 23.4057 32.2077 23.4022C31.8558 23.3735 31.502 23.4203 31.1689 23.5395C31.0501 22.3614 30.5105 21.2687 29.6525 20.4688C28.7945 19.6688 27.678 19.2174 26.5146 19.2C25.9039 19.2129 25.297 19.3005 24.7069 19.4609C24.5719 19.5982 24.4505 19.5982 24.4505 19.8592V28.5382C24.4505 28.6755 24.5854 28.7991 24.8418 28.7991Z" fill="white"/>
</svg>
