<svg width="40" height="40" viewBox="0 0 40 40" fill="none" xmlns="http://www.w3.org/2000/svg">
<path d="M3.73132 27.1288H3.95616L4.18101 23.833L3.95616 20.5371C3.96726 20.5028 3.9702 20.4662 3.96473 20.4304C3.95926 20.3947 3.94553 20.3608 3.92469 20.3315C3.90384 20.3021 3.87647 20.2783 3.84481 20.2618C3.81315 20.2454 3.77811 20.2368 3.74256 20.2368C3.70701 20.2368 3.67197 20.2454 3.64031 20.2618C3.60865 20.2783 3.58128 20.3021 3.56043 20.3315C3.53959 20.3608 3.52586 20.3947 3.52039 20.4304C3.51492 20.4662 3.51786 20.5028 3.52896 20.5371L3.28162 23.833L3.50647 27.1288H3.73132ZM2.44969 26.0302V25.87L2.8769 23.9016L2.44969 21.6129H2.22485L2 23.9016L2.22485 25.87C2.22485 26.0302 2.22485 26.0302 2.44969 26.0302ZM5.23779 19.8963C5.23779 19.6674 5.23779 19.6674 5.01294 19.6674V19.8963L4.58573 23.833L5.01294 27.5637V27.7926C5.23779 27.7926 5.23779 27.7926 5.23779 27.5637L5.665 23.833L5.23779 19.8963ZM6.5419 27.9986C6.5723 28.0022 6.60312 27.9988 6.63204 27.9886C6.66097 27.9784 6.68724 27.9617 6.70889 27.9397C6.73054 27.9176 6.74699 27.8909 6.75701 27.8614C6.76703 27.832 6.77036 27.8006 6.76674 27.7697L7.19395 23.833L6.76674 19.6674C6.77036 19.6365 6.76703 19.6051 6.75701 19.5756C6.74699 19.5462 6.73054 19.5195 6.70889 19.4974C6.68724 19.4754 6.66097 19.4586 6.63204 19.4484C6.60312 19.4382 6.5723 19.4348 6.5419 19.4385L6.31705 19.6674L6.0922 23.833L6.31705 27.7697L6.5419 27.9986ZM8.04837 27.9986C8.07877 28.0022 8.10959 27.9988 8.13851 27.9886C8.16744 27.9784 8.19371 27.9617 8.21536 27.9397C8.23701 27.9176 8.25346 27.8909 8.26348 27.8614C8.2735 27.832 8.27683 27.8006 8.27322 27.7697L8.70042 23.833L8.27322 20.1023C8.27683 20.0713 8.2735 20.04 8.26348 20.0105C8.25346 19.9811 8.23701 19.9543 8.21536 19.9323C8.19371 19.9103 8.16744 19.8935 8.13851 19.8833C8.10959 19.8731 8.07877 19.8697 8.04837 19.8734C7.82352 19.8734 7.82352 19.8734 7.82352 20.1023L7.39631 23.833L7.77855 27.7926C7.77855 27.9986 7.77855 27.9986 8.04837 27.9986ZM10.027 23.833L9.80217 17.6991C9.80578 17.6681 9.80246 17.6367 9.79244 17.6073C9.78241 17.5779 9.76596 17.5511 9.74432 17.5291C9.72267 17.507 9.69639 17.4903 9.66747 17.4801C9.63854 17.4699 9.60772 17.4665 9.57732 17.4702C9.35248 17.4702 9.15011 17.4702 9.15011 17.6991L8.92527 23.833L9.15011 27.7697C9.15011 27.9986 9.37496 27.9986 9.57732 27.9986C9.60772 28.0022 9.63854 27.9988 9.66747 27.9886C9.69639 27.9784 9.72267 27.9617 9.74432 27.9397C9.76596 27.9176 9.78241 27.8909 9.79244 27.8614C9.80246 27.832 9.80578 27.8006 9.80217 27.7697L10.027 23.833ZM10.8365 27.9986C11.0613 27.9986 11.2637 27.9986 11.2637 27.7697L11.4885 23.833L11.2637 16.1656C11.1503 16.0429 10.9999 15.9624 10.8365 15.9367L10.6116 16.1656L10.3868 23.833L10.6116 27.7697C10.608 27.8006 10.6113 27.832 10.6214 27.8614C10.6314 27.8909 10.6478 27.9176 10.6695 27.9397C10.6911 27.9617 10.7174 27.9784 10.7463 27.9886C10.7752 27.9988 10.8061 28.0022 10.8365 27.9986ZM12.2755 15.2958C12.0506 15.2958 12.0506 15.5247 12.0506 15.7307L11.8258 23.833L12.0506 27.7697C12.0506 27.9986 12.0506 27.9986 12.2755 27.9986C12.5003 27.9986 12.7027 27.9986 12.7027 27.7697L12.9275 23.833L12.7027 15.7307C12.6926 15.6188 12.6444 15.5141 12.5664 15.4346C12.4883 15.3552 12.3854 15.3061 12.2755 15.2958ZM13.8719 27.9986C14.0967 27.9986 14.2991 27.9986 14.2991 27.7697L14.5239 23.833L14.2991 15.273C14.2991 15.0441 14.0743 15.0441 13.8719 15.0441C13.6695 15.0441 13.4447 15.0441 13.4447 15.273L13.2198 23.833L13.4447 27.7697C13.4222 27.9986 13.647 27.9986 13.8719 27.9986ZM15.3784 27.9986C15.4883 27.9883 15.5912 27.9392 15.6692 27.8598C15.7473 27.7803 15.7955 27.6756 15.8056 27.5637L16.0304 23.833L15.8056 15.5018C15.8056 15.3865 15.7606 15.2759 15.6804 15.1943C15.6003 15.1128 15.4917 15.067 15.3784 15.067C15.2651 15.067 15.1564 15.1128 15.0763 15.1943C14.9962 15.2759 14.9512 15.3865 14.9512 15.5018L14.7263 23.833L14.9512 27.5637C14.9612 27.6756 15.0094 27.7803 15.0875 27.8598C15.1655 27.9392 15.2684 27.9883 15.3784 27.9986ZM17.5144 23.833L17.2896 15.9367C17.2896 15.8796 17.2785 15.823 17.257 15.7703C17.2356 15.7175 17.2041 15.6696 17.1644 15.6292C17.1248 15.5888 17.0777 15.5568 17.0258 15.5349C16.974 15.5131 16.9184 15.5018 16.8623 15.5018C16.8062 15.5018 16.7507 15.5131 16.6989 15.5349C16.647 15.5568 16.5999 15.5888 16.5603 15.6292C16.5206 15.6696 16.4891 15.7175 16.4677 15.7703C16.4462 15.823 16.4351 15.8796 16.4351 15.9367L16.2103 23.833L16.4351 27.5637C16.4351 27.6208 16.4462 27.6773 16.4677 27.7301C16.4891 27.7829 16.5206 27.8308 16.5603 27.8712C16.5999 27.9116 16.647 27.9436 16.6989 27.9655C16.7507 27.9873 16.8062 27.9986 16.8623 27.9986C16.9184 27.9986 16.974 27.9873 17.0258 27.9655C17.0777 27.9436 17.1248 27.9116 17.1644 27.8712C17.2041 27.8308 17.2356 27.7829 17.257 27.7301C17.2785 27.6773 17.2896 27.6208 17.2896 27.5637L17.5144 23.833ZM18.3913 27.9986C18.5012 27.9883 18.6041 27.9392 18.6822 27.8598C18.7602 27.7803 18.8085 27.6756 18.8185 27.5637L19.0434 23.833L18.8185 14.4261C18.8185 14.3108 18.7735 14.2002 18.6934 14.1186C18.6133 14.0371 18.5046 13.9912 18.3913 13.9912C18.278 13.9912 18.1693 14.0371 18.0892 14.1186C18.0091 14.2002 17.9641 14.3108 17.9641 14.4261L17.7392 23.8559L17.9641 27.5866C17.979 27.6943 18.0293 27.7938 18.1069 27.8686C18.1845 27.9434 18.2848 27.9893 18.3913 27.9986ZM19.8978 13.0986C19.7879 13.1088 19.6849 13.158 19.6069 13.2374C19.5289 13.3168 19.4806 13.4216 19.4706 13.5335L19.2457 23.833L19.4706 27.5637C19.4706 27.679 19.5156 27.7896 19.5957 27.8712C19.6758 27.9527 19.7845 27.9986 19.8978 27.9986C20.0111 27.9986 20.1197 27.9527 20.1999 27.8712C20.28 27.7896 20.325 27.679 20.325 27.5637L20.5498 23.833L20.325 13.5335C20.3149 13.4216 20.2667 13.3168 20.1886 13.2374C20.1106 13.158 20.0077 13.1088 19.8978 13.0986ZM21.4042 27.9986H33.6809C34.2497 27.9986 34.8129 27.8841 35.3381 27.6619C35.8634 27.4396 36.3403 27.1139 36.7414 26.7034C37.1426 26.2929 37.4601 25.8057 37.6758 25.2699C37.8914 24.7341 38.0009 24.1602 37.9979 23.5812C38.0159 22.9905 37.9178 22.4021 37.7095 21.8504C37.5012 21.2988 37.1868 20.795 36.7847 20.3687C36.3826 19.9423 35.901 19.602 35.368 19.3676C34.835 19.1332 34.2614 19.0095 33.6809 19.0037C33.0944 18.9558 32.5046 19.0338 31.9495 19.2325C31.7514 17.269 30.8521 15.4478 29.4221 14.1146C27.9922 12.7814 26.1312 12.0289 24.1923 12C23.1745 12.0215 22.163 12.1676 21.1794 12.4349C20.9546 12.6637 20.7522 12.6637 20.7522 13.0986V27.5637C20.7522 27.7926 20.977 27.9986 21.4042 27.9986Z" fill="#FF5500"/>
</svg>
