<svg width="40" height="40" viewBox="0 0 40 40" fill="none" xmlns="http://www.w3.org/2000/svg">
<rect width="40" height="40" rx="20" fill="#FF5500"/>
<path d="M5.53895 25.2377H5.73881L5.93868 22.3539L5.73881 19.47C5.74868 19.4399 5.75129 19.4079 5.74642 19.3766C5.74156 19.3454 5.72936 19.3157 5.71083 19.29C5.69231 19.2644 5.66797 19.2435 5.63983 19.2291C5.61169 19.2147 5.58054 19.2072 5.54894 19.2072C5.51734 19.2072 5.4862 19.2147 5.45806 19.2291C5.42991 19.2435 5.40558 19.2644 5.38705 19.29C5.36852 19.3157 5.35632 19.3454 5.35146 19.3766C5.3466 19.4079 5.34921 19.4399 5.35907 19.47L5.13922 22.3539L5.33909 25.2377H5.53895ZM4.39973 24.2764V24.1362L4.77947 22.4139L4.39973 20.4113H4.19986L4 22.4139L4.19986 24.1362C4.19986 24.2764 4.19986 24.2764 4.39973 24.2764ZM6.87803 18.9092C6.87803 18.709 6.87803 18.709 6.67817 18.709V18.9092L6.29843 22.3539L6.67817 25.6182V25.8185C6.87803 25.8185 6.87803 25.8185 6.87803 25.6182L7.25778 22.3539L6.87803 18.9092ZM8.03724 25.9987C8.06426 26.002 8.09166 25.999 8.11737 25.9901C8.14308 25.9811 8.16644 25.9665 8.18568 25.9472C8.20492 25.9279 8.21955 25.9045 8.22845 25.8788C8.23736 25.853 8.24032 25.8255 8.23711 25.7985L8.61685 22.3539L8.23711 18.709C8.24032 18.6819 8.23736 18.6545 8.22845 18.6287C8.21955 18.6029 8.20492 18.5795 8.18568 18.5602C8.16644 18.541 8.14308 18.5263 8.11737 18.5174C8.09166 18.5085 8.06426 18.5055 8.03724 18.5087L7.83738 18.709L7.63752 22.3539L7.83738 25.7985L8.03724 25.9987ZM9.37633 25.9987C9.40335 26.002 9.43075 25.999 9.45646 25.9901C9.48217 25.9811 9.50552 25.9665 9.52476 25.9472C9.54401 25.9279 9.55863 25.9045 9.56754 25.8788C9.57645 25.853 9.57941 25.8255 9.57619 25.7985L9.95593 22.3539L9.57619 19.0895C9.57941 19.0624 9.57645 19.035 9.56754 19.0092C9.55863 18.9834 9.54401 18.96 9.52476 18.9408C9.50552 18.9215 9.48217 18.9068 9.45646 18.8979C9.43075 18.889 9.40335 18.886 9.37633 18.8892C9.17646 18.8892 9.17647 18.8892 9.17647 19.0895L8.79672 22.3539L9.13649 25.8185C9.13649 25.9987 9.13649 25.9987 9.37633 25.9987ZM11.1351 22.3539L10.9353 16.9867C10.9385 16.9596 10.9355 16.9321 10.9266 16.9064C10.9177 16.8806 10.9031 16.8572 10.8838 16.8379C10.8646 16.8187 10.8412 16.804 10.8155 16.7951C10.7898 16.7862 10.7624 16.7832 10.7354 16.7864C10.5355 16.7864 10.3557 16.7864 10.3557 16.9867L10.1558 22.3539L10.3557 25.7985C10.3557 25.9987 10.5555 25.9987 10.7354 25.9987C10.7624 26.002 10.7898 25.999 10.8155 25.9901C10.8412 25.9811 10.8646 25.9665 10.8838 25.9472C10.9031 25.9279 10.9177 25.9045 10.9266 25.8788C10.9355 25.853 10.9385 25.8255 10.9353 25.7985L11.1351 22.3539ZM11.8546 25.9987C12.0545 25.9987 12.2344 25.9987 12.2344 25.7985L12.4342 22.3539L12.2344 15.6449C12.1336 15.5376 12 15.4671 11.8546 15.4446L11.6548 15.6449L11.4549 22.3539L11.6548 25.7985C11.6516 25.8255 11.6545 25.853 11.6634 25.8788C11.6723 25.9045 11.687 25.9279 11.7062 25.9472C11.7254 25.9665 11.7488 25.9811 11.7745 25.9901C11.8002 25.999 11.8276 26.002 11.8546 25.9987ZM13.1338 14.8839C12.9339 14.8839 12.9339 15.0841 12.9339 15.2644L12.734 22.3539L12.9339 25.7985C12.9339 25.9987 12.9339 25.9987 13.1338 25.9987C13.3336 25.9987 13.5135 25.9987 13.5135 25.7985L13.7134 22.3539L13.5135 15.2644C13.5046 15.1665 13.4617 15.0748 13.3923 15.0053C13.3229 14.9358 13.2315 14.8928 13.1338 14.8839ZM14.5528 25.9987C14.7527 25.9987 14.9325 25.9987 14.9325 25.7985L15.1324 22.3539L14.9325 14.8638C14.9325 14.6636 14.7327 14.6636 14.5528 14.6636C14.3729 14.6636 14.1731 14.6636 14.1731 14.8638L13.9732 22.3539L14.1731 25.7985C14.1531 25.9987 14.3529 25.9987 14.5528 25.9987ZM15.8919 25.9987C15.9896 25.9898 16.0811 25.9468 16.1504 25.8773C16.2198 25.8078 16.2627 25.7161 16.2716 25.6182L16.4715 22.3539L16.2716 15.0641C16.2716 14.9632 16.2316 14.8664 16.1604 14.795C16.0892 14.7237 15.9926 14.6836 15.8919 14.6836C15.7912 14.6836 15.6946 14.7237 15.6234 14.795C15.5521 14.8664 15.5121 14.9632 15.5121 15.0641L15.3123 22.3539L15.5121 25.6182C15.5211 25.7161 15.564 25.8078 15.6333 25.8773C15.7027 25.9468 15.7942 25.9898 15.8919 25.9987ZM17.7906 22.3539L17.5907 15.4446C17.5907 15.3946 17.5809 15.3452 17.5618 15.299C17.5427 15.2528 17.5148 15.2109 17.4795 15.1756C17.4442 15.1402 17.4024 15.1122 17.3563 15.0931C17.3102 15.0739 17.2608 15.0641 17.211 15.0641C17.1611 15.0641 17.1117 15.0739 17.0657 15.0931C17.0196 15.1122 16.9777 15.1402 16.9425 15.1756C16.9072 15.2109 16.8792 15.2528 16.8601 15.299C16.8411 15.3452 16.8312 15.3946 16.8312 15.4446L16.6314 22.3539L16.8312 25.6182C16.8312 25.6682 16.8411 25.7177 16.8601 25.7638C16.8792 25.81 16.9072 25.852 16.9425 25.8873C16.9777 25.9226 17.0196 25.9507 17.0657 25.9698C17.1117 25.9889 17.1611 25.9987 17.211 25.9987C17.2608 25.9987 17.3102 25.9889 17.3563 25.9698C17.4024 25.9507 17.4442 25.9226 17.4795 25.8873C17.5148 25.852 17.5427 25.81 17.5618 25.7638C17.5809 25.7177 17.5907 25.6682 17.5907 25.6182L17.7906 22.3539ZM18.57 25.9987C18.6677 25.9898 18.7592 25.9468 18.8286 25.8773C18.898 25.8078 18.9409 25.7161 18.9498 25.6182L19.1497 22.3539L18.9498 14.1228C18.9498 14.0219 18.9098 13.9251 18.8386 13.8538C18.7673 13.7824 18.6708 13.7423 18.57 13.7423C18.4693 13.7423 18.3727 13.7824 18.3015 13.8538C18.2303 13.9251 18.1903 14.0219 18.1903 14.1228L17.9904 22.3739L18.1903 25.6383C18.2035 25.7325 18.2483 25.8195 18.3173 25.885C18.3863 25.9505 18.4754 25.9906 18.57 25.9987ZM19.9091 12.9613C19.8114 12.9702 19.7199 13.0132 19.6506 13.0827C19.5812 13.1522 19.5383 13.2439 19.5294 13.3418L19.3295 22.3539L19.5294 25.6182C19.5294 25.7191 19.5694 25.8159 19.6406 25.8873C19.7118 25.9586 19.8084 25.9987 19.9091 25.9987C20.0098 25.9987 20.1064 25.9586 20.1776 25.8873C20.2489 25.8159 20.2889 25.7191 20.2889 25.6182L20.4887 22.3539L20.2889 13.3418C20.2799 13.2439 20.2371 13.1522 20.1677 13.0827C20.0983 13.0132 20.0068 12.9702 19.9091 12.9613ZM21.2482 25.9987H32.1608C32.6664 25.9987 33.167 25.8986 33.6339 25.7041C34.1008 25.5097 34.5247 25.2246 34.8813 24.8655C35.2379 24.5063 35.5201 24.08 35.7118 23.6112C35.9035 23.1424 36.0008 22.6402 35.9981 22.1336C36.0141 21.6167 35.927 21.1018 35.7418 20.6191C35.5566 20.1364 35.2771 19.6956 34.9197 19.3226C34.5623 18.9495 34.1342 18.6517 33.6604 18.4466C33.1867 18.2415 32.6768 18.1333 32.1608 18.1282C31.6394 18.0863 31.1152 18.1546 30.6218 18.3285C30.4457 16.6104 29.6463 15.0168 28.3752 13.8503C27.1042 12.6837 25.45 12.0253 23.7265 12C22.8218 12.0189 21.9226 12.1466 21.0484 12.3805C20.8485 12.5808 20.6686 12.5808 20.6686 12.9613V25.6182C20.6686 25.8185 20.8685 25.9987 21.2482 25.9987Z" fill="white"/>
</svg>
