<svg width="48" height="47" viewBox="0 0 48 47" fill="none" xmlns="http://www.w3.org/2000/svg">
<path d="M4 23.5C4 12.4543 12.9543 3.5 24 3.5C35.0457 3.5 44 12.4543 44 23.5C44 34.5457 35.0457 43.5 24 43.5C12.9543 43.5 4 34.5457 4 23.5Z" fill="#FEF2F2"/>
<path d="M24 16V31M31.5 23.5L16.5 23.5" stroke="#82171A" stroke-width="2" stroke-linecap="round" stroke-linejoin="round"/>
<path d="M24.5 1C36.9264 1 47 11.0736 47 23.5C47 35.9264 36.9264 46 24.5 46H23.5C11.0736 46 1 35.9264 1 23.5C1 11.0736 11.0736 1 23.5 1H24.5Z" stroke="#E70208" stroke-width="2"/>
</svg>
