<svg width="207" height="48" viewBox="0 0 207 48" fill="none" xmlns="http://www.w3.org/2000/svg">
<path d="M4 20C4 11.1634 11.1634 4 20 4H187C195.837 4 203 11.1634 203 20V28C203 36.8366 195.837 44 187 44H20C11.1634 44 4 36.8366 4 28V20Z" fill="#030713"/>
<path d="M31 17.125V30.875M37.875 24L24.125 24" stroke="#F3F4F6" stroke-width="1.5" stroke-linecap="round" stroke-linejoin="round"/>
<path d="M51.2912 30.5V17.4091H56.2003C57.206 17.4091 58.0497 17.5966 58.7315 17.9716C59.4176 18.3466 59.9354 18.8622 60.2848 19.5185C60.6385 20.1705 60.8153 20.9119 60.8153 21.7429C60.8153 22.5824 60.6385 23.3281 60.2848 23.9801C59.9311 24.6321 59.4091 25.1456 58.7188 25.5206C58.0284 25.8913 57.1783 26.0767 56.1683 26.0767H52.9148V24.1271H55.8487C56.4368 24.1271 56.9183 24.0249 57.2933 23.8203C57.6683 23.6158 57.9453 23.3345 58.1243 22.9766C58.3075 22.6186 58.3991 22.2074 58.3991 21.7429C58.3991 21.2784 58.3075 20.8693 58.1243 20.5156C57.9453 20.1619 57.6662 19.8871 57.2869 19.6911C56.9119 19.4908 56.4283 19.3906 55.8359 19.3906H53.6626V30.5H51.2912ZM65.4068 17.4091V30.5H63.0929V17.4091H65.4068ZM70.9315 30.6982C70.3094 30.6982 69.749 30.5874 69.2504 30.3658C68.7561 30.1399 68.3641 29.8075 68.0743 29.3686C67.7888 28.9297 67.646 28.3885 67.646 27.745C67.646 27.1911 67.7483 26.733 67.9529 26.3707C68.1574 26.0085 68.4365 25.7188 68.7902 25.5014C69.1439 25.2841 69.5423 25.12 69.9855 25.0092C70.433 24.8942 70.8953 24.8111 71.3726 24.7599C71.9479 24.7003 72.4145 24.647 72.7725 24.6001C73.1304 24.549 73.3904 24.4723 73.5523 24.37C73.7185 24.2635 73.8016 24.0994 73.8016 23.8778V23.8395C73.8016 23.358 73.6588 22.9851 73.3733 22.7209C73.0878 22.4567 72.6766 22.3246 72.1396 22.3246C71.5729 22.3246 71.1233 22.4482 70.7909 22.6953C70.4628 22.9425 70.2412 23.2344 70.1261 23.571L67.9656 23.2642C68.1361 22.6676 68.4173 22.169 68.8094 21.7685C69.2014 21.3636 69.6808 21.0611 70.2476 20.8608C70.8144 20.6562 71.4408 20.554 72.1269 20.554C72.5999 20.554 73.0708 20.6094 73.5395 20.7202C74.0083 20.831 74.4365 21.0142 74.8243 21.2699C75.2121 21.5213 75.5232 21.8643 75.7575 22.299C75.9962 22.7337 76.1155 23.277 76.1155 23.929V30.5H73.8911V29.1513H73.8144C73.6737 29.424 73.4756 29.6797 73.2199 29.9183C72.9685 30.1527 72.651 30.3423 72.2675 30.4872C71.8882 30.6278 71.4429 30.6982 70.9315 30.6982ZM71.5324 28.9979C71.9969 28.9979 72.3996 28.9062 72.7405 28.723C73.0814 28.5355 73.3435 28.2884 73.5267 27.9815C73.7142 27.6747 73.808 27.3402 73.808 26.978V25.821C73.7355 25.8807 73.6119 25.9361 73.4372 25.9872C73.2668 26.0384 73.075 26.0831 72.8619 26.1214C72.6489 26.1598 72.4379 26.1939 72.2291 26.2237C72.0203 26.2536 71.8392 26.2791 71.6858 26.3004C71.3406 26.3473 71.0317 26.424 70.759 26.5305C70.4862 26.6371 70.271 26.7862 70.1134 26.978C69.9557 27.1655 69.8769 27.4084 69.8769 27.7067C69.8769 28.1328 70.0324 28.4545 70.3435 28.6719C70.6546 28.8892 71.0509 28.9979 71.5324 28.9979ZM83.0449 30.6918C82.0648 30.6918 81.2231 30.4766 80.52 30.0462C79.8211 29.6158 79.2821 29.0213 78.9028 28.2628C78.5278 27.5 78.3403 26.6222 78.3403 25.6293C78.3403 24.6321 78.5321 23.7521 78.9156 22.9893C79.2991 22.2223 79.8403 21.6257 80.5392 21.1996C81.2423 20.7692 82.0733 20.554 83.0321 20.554C83.829 20.554 84.5342 20.701 85.1479 20.995C85.7658 21.2848 86.2579 21.696 86.6244 22.2287C86.9909 22.7571 87.1997 23.375 87.2508 24.0824H85.0392C84.9497 23.6094 84.7366 23.2152 84.4 22.8999C84.0676 22.5803 83.6223 22.4205 83.064 22.4205C82.591 22.4205 82.1756 22.5483 81.8176 22.804C81.4596 23.0554 81.1805 23.4176 80.9802 23.8906C80.7842 24.3636 80.6862 24.9304 80.6862 25.5909C80.6862 26.2599 80.7842 26.8352 80.9802 27.3168C81.1763 27.794 81.4511 28.1626 81.8048 28.4226C82.1628 28.6783 82.5825 28.8061 83.064 28.8061C83.405 28.8061 83.7096 28.7422 83.9781 28.6143C84.2508 28.4822 84.4788 28.2926 84.6621 28.0455C84.8453 27.7983 84.971 27.4979 85.0392 27.1442H87.2508C87.1954 27.8388 86.9909 28.4545 86.6372 28.9915C86.2835 29.5241 85.802 29.9418 85.1926 30.2443C84.5832 30.5426 83.8673 30.6918 83.0449 30.6918ZM93.8175 30.6918C92.8331 30.6918 91.9829 30.4872 91.267 30.0781C90.5554 29.6648 90.0078 29.081 89.6243 28.3267C89.2408 27.5682 89.049 26.6754 89.049 25.6484C89.049 24.6385 89.2408 23.7521 89.6243 22.9893C90.0121 22.2223 90.5533 21.6257 91.2479 21.1996C91.9425 20.7692 92.7585 20.554 93.696 20.554C94.3011 20.554 94.8722 20.652 95.4091 20.848C95.9503 21.0398 96.4275 21.3381 96.8409 21.7429C97.2585 22.1477 97.5866 22.6634 97.8253 23.2898C98.0639 23.9119 98.1832 24.6534 98.1832 25.5142V26.2237H90.1356V24.6641H95.9652C95.9609 24.2209 95.865 23.8267 95.6775 23.4815C95.49 23.1321 95.228 22.8572 94.8913 22.657C94.5589 22.4567 94.1712 22.3565 93.728 22.3565C93.255 22.3565 92.8395 22.4716 92.4815 22.7017C92.1236 22.9276 91.8445 23.2259 91.6442 23.5966C91.4481 23.9631 91.348 24.3658 91.3437 24.8047V26.1662C91.3437 26.7372 91.4481 27.2273 91.657 27.6364C91.8658 28.0412 92.1577 28.3523 92.5327 28.5696C92.9077 28.7827 93.3466 28.8892 93.8494 28.8892C94.1861 28.8892 94.4908 28.8423 94.7635 28.7486C95.0362 28.6506 95.2727 28.5078 95.473 28.3203C95.6733 28.1328 95.8246 27.9006 95.9268 27.6236L98.0873 27.8665C97.951 28.4375 97.691 28.9361 97.3075 29.3622C96.9283 29.7841 96.4425 30.1122 95.8501 30.3466C95.2578 30.5767 94.5802 30.6918 93.8175 30.6918ZM102.775 24.7472V30.5H100.461V17.4091H102.724V22.3501H102.839C103.069 21.7962 103.425 21.3594 103.906 21.0398C104.392 20.7159 105.01 20.554 105.76 20.554C106.442 20.554 107.036 20.6967 107.543 20.9822C108.05 21.2678 108.442 21.6854 108.719 22.2351C109.001 22.7848 109.141 23.456 109.141 24.2486V30.5H106.827V24.6065C106.827 23.946 106.657 23.4325 106.316 23.0661C105.979 22.6953 105.506 22.5099 104.897 22.5099C104.488 22.5099 104.121 22.5994 103.797 22.7784C103.478 22.9531 103.226 23.2067 103.043 23.5391C102.864 23.8714 102.775 24.2741 102.775 24.7472ZM116.103 30.6918C115.144 30.6918 114.313 30.4808 113.61 30.0589C112.907 29.6371 112.361 29.0469 111.973 28.2884C111.59 27.5298 111.398 26.6435 111.398 25.6293C111.398 24.6151 111.59 23.7266 111.973 22.9638C112.361 22.201 112.907 21.6087 113.61 21.1868C114.313 20.7649 115.144 20.554 116.103 20.554C117.061 20.554 117.892 20.7649 118.595 21.1868C119.299 21.6087 119.842 22.201 120.225 22.9638C120.613 23.7266 120.807 24.6151 120.807 25.6293C120.807 26.6435 120.613 27.5298 120.225 28.2884C119.842 29.0469 119.299 29.6371 118.595 30.0589C117.892 30.4808 117.061 30.6918 116.103 30.6918ZM116.115 28.8381C116.635 28.8381 117.07 28.6953 117.419 28.4098C117.769 28.12 118.029 27.7322 118.199 27.2464C118.374 26.7607 118.461 26.2195 118.461 25.6229C118.461 25.022 118.374 24.4787 118.199 23.9929C118.029 23.5028 117.769 23.1129 117.419 22.8232C117.07 22.5334 116.635 22.3885 116.115 22.3885C115.583 22.3885 115.139 22.5334 114.786 22.8232C114.436 23.1129 114.174 23.5028 114 23.9929C113.829 24.4787 113.744 25.022 113.744 25.6229C113.744 26.2195 113.829 26.7607 114 27.2464C114.174 27.7322 114.436 28.12 114.786 28.4098C115.139 28.6953 115.583 28.8381 116.115 28.8381ZM125.405 17.4091V30.5H123.091V17.4091H125.405ZM131.748 30.6726C130.977 30.6726 130.286 30.4744 129.677 30.0781C129.067 29.6818 128.586 29.1065 128.232 28.3523C127.879 27.598 127.702 26.6818 127.702 25.6037C127.702 24.5128 127.881 23.5923 128.239 22.8423C128.601 22.0881 129.089 21.5192 129.702 21.1357C130.316 20.7479 131 20.554 131.754 20.554C132.33 20.554 132.803 20.652 133.173 20.848C133.544 21.0398 133.838 21.272 134.055 21.5447C134.273 21.8132 134.441 22.0668 134.56 22.3054H134.656V17.4091H136.977V30.5H134.701V28.9531H134.56C134.441 29.1918 134.268 29.4453 134.043 29.7138C133.817 29.978 133.518 30.2038 133.148 30.3913C132.777 30.5788 132.31 30.6726 131.748 30.6726ZM132.393 28.7741C132.884 28.7741 133.301 28.642 133.646 28.3778C133.991 28.1094 134.254 27.7365 134.433 27.2592C134.611 26.782 134.701 26.2259 134.701 25.5909C134.701 24.956 134.611 24.4041 134.433 23.9354C134.258 23.4666 133.998 23.1023 133.653 22.8423C133.312 22.5824 132.892 22.4524 132.393 22.4524C131.878 22.4524 131.447 22.5866 131.102 22.8551C130.757 23.1236 130.497 23.4943 130.322 23.9673C130.148 24.4403 130.06 24.9815 130.06 25.5909C130.06 26.2045 130.148 26.7521 130.322 27.2337C130.501 27.7109 130.763 28.0881 131.109 28.3651C131.458 28.6378 131.886 28.7741 132.393 28.7741ZM144.109 30.6918C143.124 30.6918 142.274 30.4872 141.558 30.0781C140.847 29.6648 140.299 29.081 139.916 28.3267C139.532 27.5682 139.34 26.6754 139.34 25.6484C139.34 24.6385 139.532 23.7521 139.916 22.9893C140.303 22.2223 140.845 21.6257 141.539 21.1996C142.234 20.7692 143.05 20.554 143.987 20.554C144.593 20.554 145.164 20.652 145.7 20.848C146.242 21.0398 146.719 21.3381 147.132 21.7429C147.55 22.1477 147.878 22.6634 148.117 23.2898C148.355 23.9119 148.475 24.6534 148.475 25.5142V26.2237H140.427V24.6641H146.257C146.252 24.2209 146.156 23.8267 145.969 23.4815C145.781 23.1321 145.519 22.8572 145.183 22.657C144.85 22.4567 144.463 22.3565 144.019 22.3565C143.546 22.3565 143.131 22.4716 142.773 22.7017C142.415 22.9276 142.136 23.2259 141.936 23.5966C141.74 23.9631 141.639 24.3658 141.635 24.8047V26.1662C141.635 26.7372 141.74 27.2273 141.948 27.6364C142.157 28.0412 142.449 28.3523 142.824 28.5696C143.199 28.7827 143.638 28.8892 144.141 28.8892C144.477 28.8892 144.782 28.8423 145.055 28.7486C145.328 28.6506 145.564 28.5078 145.764 28.3203C145.965 28.1328 146.116 27.9006 146.218 27.6236L148.379 27.8665C148.242 28.4375 147.982 28.9361 147.599 29.3622C147.22 29.7841 146.734 30.1122 146.142 30.3466C145.549 30.5767 144.872 30.6918 144.109 30.6918ZM150.752 30.5V20.6818H152.996V22.3182H153.098C153.277 21.7514 153.584 21.3146 154.019 21.0078C154.457 20.6967 154.958 20.5412 155.521 20.5412C155.649 20.5412 155.791 20.5476 155.949 20.5604C156.111 20.5689 156.245 20.5838 156.352 20.6051V22.7337C156.254 22.6996 156.098 22.6697 155.885 22.6442C155.676 22.6143 155.474 22.5994 155.278 22.5994C154.856 22.5994 154.477 22.6911 154.14 22.8743C153.808 23.0533 153.546 23.3026 153.354 23.6222C153.162 23.9418 153.066 24.3104 153.066 24.728V30.5H150.752Z" fill="#F3F4F6"/>
<path d="M176 17.125V30.875M182.875 24L169.125 24" stroke="#F3F4F6" stroke-width="1.5" stroke-linecap="round" stroke-linejoin="round"/>
<path d="M189 1C198.389 1 206 8.61116 206 18V30C206 39.3888 198.389 47 189 47H18C8.61116 47 1 39.3888 1 30V18C1 8.61116 8.61116 1 18 1H189Z" stroke="#6A7282" stroke-width="2"/>
</svg>
