<svg width="48" height="48" viewBox="0 0 48 48" fill="none" xmlns="http://www.w3.org/2000/svg">
<rect width="48" height="48" rx="24" fill="black"/>
<g clip-path="url(#clip0_56_1831)">
<path fill-rule="evenodd" clip-rule="evenodd" d="M23.9952 12.6C21.1642 12.6015 18.426 13.6042 16.2703 15.4288C14.1145 17.2534 12.6818 19.781 12.2283 22.5596C11.7748 25.3381 12.33 28.1865 13.7948 30.5953C15.2595 33.0042 17.5383 34.8165 20.2235 35.7081C20.8159 35.818 21.0391 35.4509 21.0391 35.1387C21.0391 34.8265 21.0272 33.9213 21.0233 32.9317C17.7058 33.6484 17.0048 31.5318 17.0048 31.5318C16.4637 30.1574 15.6817 29.7961 15.6817 29.7961C14.5996 29.0617 15.7627 29.0755 15.7627 29.0755C16.9613 29.1599 17.5913 30.2987 17.5913 30.2987C18.6537 32.111 20.3815 31.5868 21.0608 31.2805C21.1674 30.5127 21.4775 29.9905 21.8191 29.694C19.169 29.3955 16.3847 28.3784 16.3847 23.835C16.3683 22.6567 16.808 21.5171 17.613 20.6522C17.4906 20.3537 17.0818 19.1482 17.7295 17.5106C17.7295 17.5106 18.7307 17.1926 21.0095 18.726C22.9641 18.1945 25.0264 18.1945 26.981 18.726C29.2578 17.1926 30.257 17.5106 30.257 17.5106C30.9067 19.1442 30.4979 20.3498 30.3755 20.6522C31.183 21.5173 31.6237 22.6588 31.6057 23.8389C31.6057 28.3922 28.8155 29.3955 26.1615 29.6881C26.588 30.0572 26.9691 30.7778 26.9691 31.8852C26.9691 33.4717 26.9553 34.7479 26.9553 35.1387C26.9553 35.4548 27.1705 35.8239 27.7748 35.7081C30.4604 34.8164 32.7393 33.0038 34.2041 30.5945C35.6688 28.1852 36.2238 25.3364 35.7697 22.5576C35.3157 19.7788 33.8823 17.2512 31.7258 15.4269C29.5694 13.6026 26.8305 12.6005 23.9992 12.6H23.9952Z" fill="white"/>
<path d="M16.5866 29.6252C16.5609 29.6842 16.4661 29.7018 16.3891 29.6606C16.3121 29.6194 16.2548 29.5428 16.2825 29.4819C16.3101 29.421 16.4029 29.4053 16.4799 29.4466C16.5569 29.4878 16.6162 29.5663 16.5866 29.6252Z" fill="white"/>
<path d="M17.0703 30.1613C17.0294 30.1818 16.9826 30.1875 16.9379 30.1774C16.8933 30.1674 16.8535 30.1423 16.8254 30.1063C16.7484 30.0238 16.7326 29.9099 16.7918 29.8589C16.8511 29.8078 16.9577 29.8314 17.0347 29.9139C17.1117 29.9963 17.1295 30.1102 17.0703 30.1613Z" fill="white"/>
<path d="M17.5399 30.8426C17.4669 30.8936 17.3424 30.8426 17.2733 30.7405C17.2542 30.7222 17.239 30.7002 17.2286 30.6759C17.2182 30.6516 17.2129 30.6255 17.2129 30.5991C17.2129 30.5727 17.2182 30.5466 17.2286 30.5223C17.239 30.498 17.2542 30.4761 17.2733 30.4577C17.3464 30.4087 17.4708 30.4577 17.5399 30.5579C17.609 30.658 17.611 30.7915 17.5399 30.8426Z" fill="white"/>
<path d="M18.1782 31.5023C18.113 31.575 17.9807 31.5553 17.8721 31.4572C17.7635 31.359 17.7378 31.2255 17.803 31.1548C17.8682 31.0841 18.0005 31.1037 18.113 31.1999C18.2256 31.2962 18.2473 31.4316 18.1782 31.5023Z" fill="white"/>
<path d="M19.0723 31.8871C19.0427 31.9794 18.9084 32.0207 18.7742 31.9814C18.6399 31.9421 18.551 31.8322 18.5767 31.7379C18.6024 31.6437 18.7386 31.6005 18.8749 31.6437C19.0111 31.6869 19.098 31.7909 19.0723 31.8871Z" fill="black"/>
<path d="M20.0486 31.9539C20.0486 32.0501 19.938 32.1326 19.7958 32.1346C19.6536 32.1365 19.5371 32.058 19.5371 31.9618C19.5371 31.8656 19.6477 31.7831 19.7899 31.7811C19.932 31.7792 20.0486 31.8557 20.0486 31.9539Z" fill="black"/>
<path d="M20.9568 31.8027C20.9745 31.8989 20.8758 31.9991 20.7336 32.0226C20.5914 32.0462 20.467 31.9893 20.4493 31.895C20.4315 31.8008 20.5342 31.6987 20.6724 31.6732C20.8106 31.6476 20.939 31.7065 20.9568 31.8027Z" fill="black"/>
</g>
<defs>
<clipPath id="clip0_56_1831">
<rect width="24" height="24" fill="white" transform="translate(12 12)"/>
</clipPath>
</defs>
</svg>
