<svg width="40" height="40" viewBox="0 0 40 40" fill="none" xmlns="http://www.w3.org/2000/svg">
<path fill-rule="evenodd" clip-rule="evenodd" d="M19.9929 1C15.2745 1.00245 10.7108 2.6736 7.11792 5.71464C3.52501 8.75568 1.13714 12.9683 0.381282 17.5993C-0.374577 22.2302 0.550855 26.9775 2.99212 30.9922C5.43339 35.007 9.23128 38.0274 13.7067 39.5135C14.6941 39.6967 15.066 39.0848 15.066 38.5645C15.066 38.0441 15.0462 36.5355 15.0396 34.8862C9.51046 36.0807 8.3421 32.553 8.3421 32.553C7.44032 30.2623 6.13701 29.6601 6.13701 29.6601C4.33345 28.4362 6.27196 28.4591 6.27196 28.4591C8.2697 28.5999 9.31959 30.4979 9.31959 30.4979C11.0902 33.5183 13.97 32.6446 15.1022 32.1341C15.2799 30.8546 15.7966 29.9841 16.366 29.49C11.9492 28.9925 7.30867 27.2974 7.30867 19.725C7.2813 17.7611 8.01422 15.8619 9.35579 14.4203C9.15174 13.9229 8.47045 11.9136 9.54996 9.1844C9.54996 9.1844 11.2186 8.65427 15.0166 11.2101C18.2743 10.3242 21.7114 10.3242 24.9691 11.2101C28.7638 8.65427 30.4291 9.1844 30.4291 9.1844C31.5119 11.9071 30.8307 13.9164 30.6266 14.4203C31.9724 15.8621 32.7069 17.7646 32.677 19.7315C32.677 27.3203 28.0266 28.9925 23.6033 29.4801C24.3142 30.0954 24.9494 31.2964 24.9494 33.142C24.9494 35.7862 24.9263 37.9132 24.9263 38.5645C24.9263 39.0913 25.285 39.7066 26.2921 39.5135C30.7681 38.0273 34.5664 35.0063 37.0076 30.9908C39.4488 26.9754 40.3738 22.2274 39.617 17.596C38.8603 12.9647 36.4713 8.75199 32.8772 5.71147C29.2831 2.67095 24.7184 1.0009 19.9994 1H19.9929Z" fill="#191717"/>
<path d="M7.64409 29.3754C7.60131 29.4736 7.44333 29.503 7.31497 29.4343C7.18662 29.3656 7.09118 29.238 7.13726 29.1365C7.18334 29.0351 7.33802 29.0089 7.46638 29.0776C7.59473 29.1463 7.69346 29.2772 7.64409 29.3754Z" fill="#191717"/>
<path d="M8.45029 30.2688C8.38213 30.3029 8.30416 30.3125 8.22971 30.2957C8.15526 30.279 8.08898 30.2371 8.04219 30.1772C7.91383 30.0397 7.88749 29.8499 7.98623 29.7648C8.08496 29.6797 8.2627 29.719 8.39105 29.8565C8.51941 29.9939 8.54903 30.1837 8.45029 30.2688Z" fill="#191717"/>
<path d="M9.23352 31.4043C9.11174 31.4894 8.90439 31.4043 8.7892 31.2341C8.75734 31.2036 8.73202 31.167 8.71471 31.1265C8.69741 31.0861 8.68848 31.0425 8.68848 30.9985C8.68848 30.9545 8.69741 30.911 8.71471 30.8705C8.73202 30.83 8.75734 30.7934 8.7892 30.7629C8.91097 30.6811 9.11833 30.7629 9.23352 30.9298C9.34871 31.0967 9.352 31.3192 9.23352 31.4043Z" fill="#191717"/>
<path d="M10.2967 32.5039C10.1881 32.625 9.96758 32.5922 9.78656 32.4286C9.60555 32.265 9.56275 32.0425 9.67136 31.9246C9.77997 31.8068 10.0005 31.8396 10.1881 31.9999C10.3757 32.1603 10.4119 32.3861 10.2967 32.5039Z" fill="#191717"/>
<path d="M11.7876 33.1453C11.7382 33.2991 11.5144 33.3678 11.2906 33.3023C11.0668 33.2369 10.9187 33.0536 10.9615 32.8965C11.0043 32.7395 11.2313 32.6675 11.4584 32.7395C11.6855 32.8115 11.8303 32.9849 11.7876 33.1453Z" fill="#191717"/>
<path d="M13.4134 33.2565C13.4134 33.4169 13.2291 33.5543 12.9922 33.5576C12.7552 33.5609 12.561 33.43 12.561 33.2696C12.561 33.1093 12.7453 32.9718 12.9823 32.9686C13.2193 32.9653 13.4134 33.0929 13.4134 33.2565Z" fill="#191717"/>
<path d="M14.9273 33.0046C14.9569 33.1649 14.7924 33.3318 14.5554 33.3711C14.3184 33.4104 14.1111 33.3155 14.0815 33.1584C14.0518 33.0013 14.223 32.8311 14.4534 32.7886C14.6837 32.7461 14.8977 32.8442 14.9273 33.0046Z" fill="#191717"/>
</svg>
