<svg width="48" height="48" viewBox="0 0 48 48" fill="none" xmlns="http://www.w3.org/2000/svg">
<rect width="48" height="48" rx="24" fill="black"/>
<path d="M32.242 17.1857C30.7262 16.4902 29.1007 15.9777 27.4012 15.6843C27.3703 15.6786 27.3393 15.6927 27.3234 15.7211C27.1144 16.0929 26.8828 16.5779 26.7206 16.9592C24.8927 16.6855 23.0741 16.6855 21.2837 16.9592C21.1215 16.5694 20.8815 16.0929 20.6715 15.7211C20.6556 15.6937 20.6247 15.6795 20.5937 15.6843C18.8951 15.9768 17.2697 16.4892 15.7529 17.1857C15.7398 17.1913 15.7286 17.2008 15.7211 17.213C12.6379 21.8192 11.7933 26.3122 12.2077 30.7494C12.2095 30.7711 12.2217 30.7919 12.2386 30.8051C14.2728 32.2989 16.2432 33.2059 18.1771 33.807C18.208 33.8164 18.2408 33.8051 18.2605 33.7796C18.718 33.1549 19.1258 32.4962 19.4754 31.8035C19.496 31.7629 19.4763 31.7148 19.4342 31.6988C18.7873 31.4534 18.1715 31.1543 17.579 30.8145C17.5321 30.7872 17.5284 30.7201 17.5715 30.6881C17.6962 30.5946 17.8209 30.4974 17.9399 30.3993C17.9615 30.3814 17.9915 30.3776 18.0168 30.3889C21.9089 32.1659 26.1226 32.1659 29.9688 30.3889C29.9941 30.3766 30.0241 30.3804 30.0466 30.3983C30.1656 30.4965 30.2903 30.5946 30.4159 30.6881C30.459 30.7201 30.4562 30.7872 30.4094 30.8145C29.8169 31.1609 29.201 31.4534 28.5533 31.6978C28.5111 31.7139 28.4924 31.7629 28.513 31.8035C28.8701 32.4952 29.2779 33.1539 29.7269 33.7787C29.7457 33.8051 29.7794 33.8164 29.8104 33.807C31.7536 33.2059 33.724 32.2989 35.7582 30.8051C35.776 30.7919 35.7873 30.7721 35.7892 30.7504C36.285 25.6204 34.9586 21.1643 32.2729 17.214C32.2663 17.2008 32.2551 17.1913 32.242 17.1857ZM20.0566 28.0476C18.8848 28.0476 17.9193 26.9718 17.9193 25.6506C17.9193 24.3294 18.8661 23.2536 20.0566 23.2536C21.2565 23.2536 22.2126 24.3389 22.1939 25.6506C22.1939 26.9718 21.2471 28.0476 20.0566 28.0476ZM27.959 28.0476C26.7872 28.0476 25.8217 26.9718 25.8217 25.6506C25.8217 24.3294 26.7684 23.2536 27.959 23.2536C29.1589 23.2536 30.115 24.3389 30.0963 25.6506C30.0963 26.9718 29.1589 28.0476 27.959 28.0476Z" fill="white"/>
</svg>
