<svg width="40" height="40" viewBox="0 0 40 40" fill="none" xmlns="http://www.w3.org/2000/svg">
<path d="M33.736 8.64277C31.2097 7.48359 28.5006 6.62955 25.668 6.14041C25.6165 6.13097 25.5649 6.15456 25.5384 6.20174C25.1899 6.82143 24.804 7.62985 24.5338 8.26527C21.4872 7.80917 18.4562 7.80917 15.4721 8.26527C15.2018 7.61573 14.8019 6.82143 14.4519 6.20174C14.4253 6.15613 14.3738 6.13254 14.3222 6.14041C11.4912 6.62799 8.78214 7.48202 6.25425 8.64277C6.23236 8.65221 6.21361 8.66795 6.20116 8.68838C1.06256 16.3653 -0.345119 23.8536 0.345441 31.249C0.348565 31.2852 0.368876 31.3198 0.396998 31.3418C3.7873 33.8316 7.07138 35.3431 10.2945 36.3449C10.3461 36.3607 10.4007 36.3418 10.4335 36.2993C11.196 35.2582 11.8756 34.1603 12.4583 33.0058C12.4927 32.9382 12.4599 32.858 12.3896 32.8313C11.3116 32.4223 10.2851 31.9237 9.2977 31.3575C9.2196 31.3119 9.21334 31.2002 9.28519 31.1467C9.49298 30.991 9.70082 30.829 9.89923 30.6655C9.93513 30.6356 9.98515 30.6293 10.0274 30.6482C16.5142 33.6098 23.537 33.6098 29.9473 30.6482C29.9895 30.6277 30.0395 30.634 30.077 30.6639C30.2754 30.8275 30.4832 30.991 30.6926 31.1467C30.7644 31.2002 30.7597 31.3119 30.6816 31.3575C29.6942 31.9347 28.6677 32.4223 27.5881 32.8297C27.5179 32.8564 27.4866 32.9382 27.521 33.0058C28.1162 34.1587 28.7958 35.2565 29.5442 36.2978C29.5755 36.3418 29.6317 36.3607 29.6833 36.3449C32.922 35.3431 36.2061 33.8316 39.5964 31.3418C39.6261 31.3198 39.6448 31.2868 39.6479 31.2506C40.4744 22.7007 38.2637 15.2738 33.7875 8.68995C33.7766 8.66795 33.7579 8.65221 33.736 8.64277ZM13.427 26.746C11.474 26.746 9.86484 24.953 9.86484 22.751C9.86484 20.549 11.4428 18.7561 13.427 18.7561C15.4268 18.7561 17.0204 20.5648 16.9892 22.751C16.9892 24.953 15.4112 26.746 13.427 26.746ZM26.5976 26.746C24.6447 26.746 23.0355 24.953 23.0355 22.751C23.0355 20.549 24.6134 18.7561 26.5976 18.7561C28.5974 18.7561 30.191 20.5648 30.1598 22.751C30.1598 24.953 28.5974 26.746 26.5976 26.746Z" fill="#5865F2"/>
</svg>
