<svg width="40" height="40" viewBox="0 0 40 40" fill="none" xmlns="http://www.w3.org/2000/svg">
<rect width="40" height="40" rx="20" fill="#3A76F0"/>
<path d="M17.577 6.76083L17.8692 7.94434C16.7177 8.22894 15.6155 8.68527 14.5998 9.29797L13.9747 8.25131C15.0928 7.57425 16.3075 7.07164 17.577 6.76083ZM23.8274 6.76083L23.5353 7.94434C24.6868 8.22894 25.789 8.68527 26.8047 9.29797L27.4371 8.25131C26.3162 7.57484 25.0991 7.0723 23.8274 6.76083ZM9.55507 12.6673C8.87864 13.7869 8.37609 15.0028 8.06459 16.2733L9.24809 16.5654C9.5327 15.4139 9.98903 14.3117 10.6017 13.296L9.55507 12.6673ZM8.90414 19.3985C8.90405 18.8067 8.94856 18.2157 9.03728 17.6306L7.83158 17.4457C7.63557 18.7389 7.63557 20.0543 7.83158 21.3476L9.03728 21.1663C8.94869 20.5812 8.90419 19.9903 8.90414 19.3985ZM27.4298 30.5419L26.8047 29.499C25.7906 30.1122 24.6896 30.5686 23.539 30.8526L23.8311 32.0361C25.0991 31.7223 26.3124 31.2186 27.4298 30.5419ZM32.5003 19.3985C32.5003 19.9903 32.4558 20.5812 32.3672 21.1663L33.5729 21.3476C33.7689 20.0543 33.7689 18.7389 33.5729 17.4457L32.3672 17.6306C32.4559 18.2157 32.5004 18.8067 32.5003 19.3985ZM33.3399 22.52L32.1564 22.2278C31.8725 23.3807 31.4161 24.4842 30.8027 25.5009L31.8494 26.1297C32.5265 25.009 33.0291 23.7919 33.3399 22.52ZM22.4701 31.0634C21.2982 31.241 20.1063 31.241 18.9344 31.0634L18.7531 32.2691C20.0451 32.4651 21.3593 32.4651 22.6513 32.2691L22.4701 31.0634ZM30.1999 26.396C29.4969 27.3492 28.654 28.1909 27.6997 28.8924L28.4246 29.8762C29.4758 29.1024 30.4057 28.1763 31.1837 27.1283L30.1999 26.396ZM27.6997 9.90082C28.6541 10.6037 29.497 11.4466 30.1999 12.401L31.1837 11.6687C30.4084 10.6197 29.481 9.69231 28.432 8.91703L27.6997 9.90082ZM11.2046 12.401C11.9075 11.4466 12.7504 10.6037 13.7047 9.90082L12.9724 8.91703C11.9235 9.69231 10.9961 10.6197 10.2208 11.6687L11.2046 12.401ZM31.8494 12.6673L30.8027 13.296C31.416 14.3101 31.8724 15.4112 32.1564 16.5617L33.3399 16.2696C33.0284 15.0003 32.5258 13.7856 31.8494 12.6673ZM18.9344 7.73352C20.1063 7.55598 21.2982 7.55598 22.4701 7.73352L22.6513 6.52783C21.3593 6.33179 20.0451 6.33179 18.7531 6.52783L18.9344 7.73352ZM11.8296 30.2017L9.31097 30.786L9.89902 28.2674L8.71182 27.99L8.12376 30.5086C8.08697 30.6648 8.08132 30.8267 8.10714 30.985C8.13297 31.1434 8.18976 31.295 8.27426 31.4314C8.35876 31.5678 8.46932 31.6862 8.59961 31.7798C8.72991 31.8734 8.87737 31.9404 9.03358 31.9769C9.21627 32.0176 9.40567 32.0176 9.58835 31.9769L12.107 31.3963L11.8296 30.2017ZM8.96331 26.9026L10.1542 27.1763L10.561 25.4307C9.96694 24.4341 9.52444 23.3546 9.24809 22.2278L8.06459 22.52C8.33079 23.5986 8.73348 24.6388 9.26289 25.6156L8.96331 26.9026ZM14.6589 29.5433L12.9133 29.9502L13.1907 31.1411L14.474 30.8415C15.45 31.3725 16.4905 31.7753 17.5696 32.0398L17.8618 30.8563C16.7385 30.5763 15.6629 30.1314 14.67 29.5359L14.6589 29.5433ZM20.7022 8.82087C14.8587 8.82457 10.1283 13.5623 10.1283 19.4022C10.1315 21.3912 10.6942 23.3393 11.752 25.0238L10.7349 29.3658L15.0732 28.3487C20.018 31.4591 26.5495 29.9761 29.6599 25.0349C32.7703 20.0938 31.2909 13.5623 26.3498 10.4482C24.6582 9.38444 22.7005 8.82033 20.7022 8.82087Z" fill="white"/>
</svg>
