<svg width="48" height="48" viewBox="0 0 48 48" fill="none" xmlns="http://www.w3.org/2000/svg">
<rect width="48" height="48" rx="24" fill="black"/>
<g clip-path="url(#clip0_56_1820)">
<path d="M25.5374 24.2277C25.5374 27.9984 22.5069 31.0552 18.7688 31.0552C15.0307 31.0552 12 27.9977 12 24.2277C12 20.4577 15.0305 17.4 18.7688 17.4C22.5072 17.4 25.5374 20.457 25.5374 24.2277Z" fill="white"/>
<path d="M32.9622 24.2277C32.9622 27.777 31.447 30.6554 29.5778 30.6554C27.7086 30.6554 26.1934 27.777 26.1934 24.2277C26.1934 20.6784 27.7084 17.7999 29.5776 17.7999C31.4467 17.7999 32.962 20.6775 32.962 24.2277" fill="white"/>
<path d="M35.9995 24.2277C35.9995 27.407 35.4667 29.986 34.8092 29.986C34.1517 29.986 33.6191 27.4077 33.6191 24.2277C33.6191 21.0477 34.152 18.4695 34.8092 18.4695C35.4665 18.4695 35.9995 21.0475 35.9995 24.2277Z" fill="white"/>
</g>
<defs>
<clipPath id="clip0_56_1820">
<rect width="24" height="24" fill="white" transform="translate(12 12)"/>
</clipPath>
</defs>
</svg>
