<svg width="40" height="40" viewBox="0 0 40 40" fill="none" xmlns="http://www.w3.org/2000/svg">
<path d="M22.5624 20.3795C22.5624 26.664 17.5116 31.7586 11.2814 31.7586C5.05121 31.7586 0 26.6629 0 20.3795C0 14.0961 5.05083 9 11.2814 9C17.5119 9 22.5624 14.095 22.5624 20.3795Z" fill="black"/>
<path d="M34.9381 20.3795C34.9381 26.295 32.4127 31.0924 29.2974 31.0924C26.1822 31.0924 23.6567 26.295 23.6567 20.3795C23.6567 14.464 26.1818 9.66657 29.2971 9.66657C32.4123 9.66657 34.9378 14.4624 34.9378 20.3795" fill="black"/>
<path d="M40 20.3795C40 25.6784 39.112 29.9766 38.0162 29.9766C36.9204 29.9766 36.0327 25.6795 36.0327 20.3795C36.0327 15.0795 36.9208 10.7824 38.0162 10.7824C39.1116 10.7824 40 15.0791 40 20.3795Z" fill="black"/>
</svg>
