<svg width="40" height="40" viewBox="0 0 40 40" fill="none" xmlns="http://www.w3.org/2000/svg">
<rect width="40" height="40" rx="20" fill="black"/>
<path d="M21.8866 20.3794C21.8866 25.0071 18.1673 28.7586 13.5797 28.7586C8.99199 28.7586 5.27246 25.0063 5.27246 20.3794C5.27246 15.7526 8.99171 12 13.5797 12C18.1676 12 21.8866 15.7518 21.8866 20.3794Z" fill="white"/>
<path d="M30.9996 20.3794C30.9996 24.7354 29.14 28.268 26.846 28.268C24.552 28.268 22.6924 24.7354 22.6924 20.3794C22.6924 16.0235 24.5517 12.4908 26.8457 12.4908C29.1397 12.4908 30.9993 16.0223 30.9993 20.3794" fill="white"/>
<path d="M34.727 20.3795C34.727 24.2813 34.0731 27.4464 33.2662 27.4464C32.4593 27.4464 31.8057 24.2822 31.8057 20.3795C31.8057 16.4767 32.4596 13.3125 33.2662 13.3125C34.0728 13.3125 34.727 16.4764 34.727 20.3795Z" fill="white"/>
</svg>
