<svg width="40" height="40" viewBox="0 0 40 40" fill="none" xmlns="http://www.w3.org/2000/svg">
<path d="M22.5624 20.3795C22.5624 26.664 17.5116 31.7586 11.2814 31.7586C5.05121 31.7586 0 26.6629 0 20.3795C0 14.0961 5.05083 9 11.2814 9C17.5119 9 22.5624 14.095 22.5624 20.3795Z" fill="black"/>
<path d="M34.9377 20.3795C34.9377 26.295 32.4122 31.0924 29.297 31.0924C26.1817 31.0924 23.6562 26.295 23.6562 20.3795C23.6562 14.464 26.1813 9.66657 29.2966 9.66657C32.4119 9.66657 34.9373 14.4624 34.9373 20.3795" fill="black"/>
<path d="M39.9995 20.3795C39.9995 25.6784 39.1115 29.9766 38.0157 29.9766C36.9199 29.9766 36.0322 25.6795 36.0322 20.3795C36.0322 15.0795 36.9203 10.7824 38.0157 10.7824C39.1111 10.7824 39.9995 15.0791 39.9995 20.3795Z" fill="black"/>
</svg>
