<svg width="48" height="48" viewBox="0 0 48 48" fill="none" xmlns="http://www.w3.org/2000/svg">
<rect width="48" height="48" rx="24" fill="black"/>
<path d="M30.5066 19.3158L30.447 19.6618C29.6595 23.6827 26.9868 25.0668 23.5625 25.0668H21.8205C21.6188 25.0672 21.424 25.1395 21.2709 25.2707C21.1178 25.402 21.0165 25.5835 20.9853 25.7827L20.0904 31.4382L19.8398 33.037C19.8294 33.1007 19.833 33.1659 19.8504 33.228C19.8679 33.2902 19.8987 33.3477 19.9408 33.3966C19.9829 33.4455 20.0352 33.4846 20.094 33.5111C20.1529 33.5377 20.2168 33.551 20.2813 33.5501H23.3716C23.5487 33.5524 23.7209 33.4911 23.8566 33.3772C23.9924 33.2633 24.0828 33.1045 24.1113 32.9297V32.7746L24.684 29.0877V28.8849C24.71 28.7078 24.7993 28.5462 24.9353 28.4299C25.0713 28.3136 25.2449 28.2506 25.4238 28.2525H25.8891C28.8839 28.2525 31.2225 27.0594 31.8549 23.4799C32.0387 22.8763 32.0783 22.238 31.9705 21.6163C31.8628 20.9947 31.6107 20.407 31.2344 19.9004C31.0244 19.6681 30.7787 19.4708 30.5066 19.3158Z" fill="#B3B3B3"/>
<path d="M29.6838 18.9936L29.3139 18.8982L28.9202 18.8266C28.4147 18.7505 27.904 18.7146 27.3929 18.7192H22.7396C22.5627 18.7202 22.3921 18.7845 22.2585 18.9005C22.125 19.0165 22.0375 19.1766 22.0118 19.3516L21.0215 25.6156V25.7946C21.0527 25.5954 21.154 25.4139 21.3071 25.2827C21.4602 25.1514 21.6551 25.0791 21.8567 25.0787H23.5987C27.023 25.0787 29.6957 23.6947 30.4832 19.6737C30.4832 19.5544 30.4832 19.4351 30.5428 19.3277C30.3362 19.2183 30.1206 19.1265 29.8985 19.0533L29.6838 18.9936Z" fill="#808080"/>
<path d="M22 19.3397C22.0257 19.1646 22.1133 19.0046 22.2468 18.8886C22.3803 18.7726 22.551 18.7083 22.7279 18.7073H27.3812C27.8963 18.702 28.411 18.7379 28.9203 18.8147L29.3141 18.8863L29.6839 18.9817H29.8629C30.0849 19.0552 30.3004 19.147 30.5072 19.2561C30.6582 18.665 30.6643 18.0461 30.5251 17.4521C30.386 16.858 30.1056 16.3063 29.7078 15.8437C28.8249 14.8415 27.2261 14.4 25.1858 14.4H19.22C19.0184 14.4004 18.8235 14.4727 18.6704 14.6039C18.5173 14.7352 18.416 14.9167 18.3848 15.1159L15.9269 30.8536C15.9167 30.9257 15.922 30.9992 15.9425 31.0691C15.9629 31.139 15.998 31.2038 16.0454 31.2591C16.0928 31.3144 16.1514 31.359 16.2174 31.3899C16.2834 31.4208 16.3552 31.4372 16.428 31.4382H20.091L21.0097 25.6037L22 19.3397Z" fill="white"/>
</svg>
