<svg width="40" height="40" viewBox="0 0 40 40" fill="none" xmlns="http://www.w3.org/2000/svg">
<path d="M30.8449 12.193L30.7454 12.7697C29.433 19.4712 24.9785 21.778 19.2713 21.778H16.3679C16.0319 21.7787 15.7071 21.8992 15.4519 22.1179C15.1968 22.3366 15.028 22.6391 14.9759 22.9711L13.4845 32.397L13.0669 35.0617C13.0494 35.1679 13.0555 35.2765 13.0845 35.3801C13.1136 35.4836 13.165 35.5795 13.2352 35.661C13.3053 35.7425 13.3925 35.8077 13.4905 35.8519C13.5886 35.8961 13.6951 35.9183 13.8027 35.9168H18.9531C19.2484 35.9207 19.5353 35.8184 19.7615 35.6287C19.9878 35.4389 20.1384 35.1742 20.186 34.8828V34.6243L21.1405 28.4795V28.1415C21.1838 27.8464 21.3326 27.577 21.5593 27.3832C21.786 27.1894 22.0752 27.0843 22.3735 27.0875H23.149C28.1404 27.0875 32.038 25.0989 33.092 19.1332C33.3983 18.1272 33.4643 17.0634 33.2847 16.0272C33.1051 14.9911 32.6849 14.0116 32.0579 13.1674C31.7079 12.7802 31.2984 12.4513 30.8449 12.193Z" fill="#179BD7"/>
<path d="M29.4728 11.6561L28.8563 11.497L28.2001 11.3777C27.3577 11.2508 26.5066 11.1909 25.6547 11.1987H17.8992C17.6044 11.2003 17.3199 11.3075 17.0974 11.5009C16.8749 11.6943 16.729 11.961 16.6862 12.2526L15.0356 22.6927V22.991C15.0877 22.659 15.2565 22.3565 15.5116 22.1378C15.7668 21.9191 16.0916 21.7985 16.4277 21.7979H19.331C25.0382 21.7979 29.4927 19.4911 30.8052 12.7896C30.8052 12.5907 30.8052 12.3918 30.9046 12.2129C30.5601 12.0305 30.2009 11.8775 29.8307 11.7555L29.4728 11.6561Z" fill="#222D65"/>
<path d="M16.6664 12.2328C16.7092 11.9411 16.8551 11.6744 17.0777 11.481C17.3002 11.2877 17.5847 11.1804 17.8795 11.1788H25.635C26.4935 11.17 27.3513 11.2298 28.2002 11.3578L28.8565 11.4771L29.4729 11.6362H29.7712C30.1412 11.7587 30.5004 11.9116 30.8451 12.0936C31.0966 11.1083 31.1069 10.0769 30.8749 9.08682C30.643 8.09675 30.1757 7.17721 29.5127 6.40619C28.0411 4.73578 25.3764 4 21.976 4H12.033C11.697 4.00068 11.3722 4.1212 11.117 4.3399C10.8618 4.55861 10.6931 4.86115 10.641 5.19315L6.54451 31.4226C6.52756 31.5429 6.5364 31.6653 6.57045 31.7818C6.6045 31.8984 6.66298 32.0063 6.74199 32.0985C6.821 32.1907 6.91874 32.265 7.0287 32.3165C7.13866 32.3679 7.25832 32.3954 7.37972 32.397H13.4847L15.0159 22.6728L16.6664 12.2328Z" fill="#253B80"/>
</svg>
