<svg width="40" height="40" viewBox="0 0 40 40" fill="none" xmlns="http://www.w3.org/2000/svg">
<path d="M30.8453 12.193L30.7459 12.7697C29.4334 19.4712 24.979 21.778 19.2718 21.778H16.3684C16.0324 21.7787 15.7076 21.8992 15.4524 22.1179C15.1973 22.3366 15.0285 22.6391 14.9764 22.9711L13.485 32.397L13.0674 35.0617C13.0499 35.1679 13.0559 35.2765 13.085 35.3801C13.1141 35.4836 13.1655 35.5795 13.2357 35.661C13.3058 35.7425 13.393 35.8077 13.491 35.8519C13.5891 35.8961 13.6956 35.9183 13.8031 35.9168H18.9536C19.2489 35.9207 19.5357 35.8184 19.762 35.6287C19.9883 35.4389 20.1389 35.1742 20.1865 34.8828V34.6243L21.141 28.4795V28.1415C21.1843 27.8464 21.3331 27.577 21.5598 27.3832C21.7865 27.1894 22.0757 27.0843 22.374 27.0875H23.1495C28.1409 27.0875 32.0385 25.0989 33.0924 19.1332C33.3988 18.1272 33.4648 17.0634 33.2852 16.0272C33.1056 14.9911 32.6854 14.0116 32.0584 13.1674C31.7084 12.7802 31.2989 12.4513 30.8453 12.193Z" fill="#B3B3B3"/>
<path d="M29.4733 11.6561L28.8568 11.497L28.2006 11.3777C27.3582 11.2508 26.5071 11.1909 25.6552 11.1987H17.8997C17.6049 11.2003 17.3204 11.3075 17.0979 11.5009C16.8753 11.6942 16.7295 11.9609 16.6867 12.2526L15.0361 22.6927V22.991C15.0882 22.659 15.257 22.3565 15.5121 22.1378C15.7673 21.9191 16.0921 21.7985 16.4281 21.7979H19.3315C25.0387 21.7979 29.4932 19.4911 30.8056 12.7896C30.8056 12.5907 30.8056 12.3918 30.9051 12.2129C30.5606 12.0305 30.2014 11.8775 29.8312 11.7555L29.4733 11.6561Z" fill="#808080"/>
<path d="M16.6664 12.2328C16.7092 11.9411 16.8551 11.6744 17.0776 11.481C17.3002 11.2876 17.5847 11.1804 17.8795 11.1788H25.6349C26.4934 11.17 27.3513 11.2298 28.2002 11.3578L28.8565 11.4771L29.4729 11.6362H29.7712C30.1412 11.7586 30.5004 11.9116 30.845 12.0936C31.0966 11.1083 31.1068 10.0769 30.8749 9.08681C30.643 8.09675 30.1757 7.17721 29.5127 6.40619C28.0411 4.73578 25.3764 4 21.9759 4H12.033C11.697 4.00068 11.3722 4.1212 11.117 4.3399C10.8618 4.55861 10.6931 4.86115 10.641 5.19315L6.54451 31.4226C6.52756 31.5428 6.5364 31.6653 6.57045 31.7818C6.6045 31.8984 6.66298 32.0063 6.74199 32.0985C6.821 32.1907 6.91874 32.265 7.0287 32.3165C7.13866 32.3679 7.25832 32.3954 7.37972 32.397H13.4847L15.0159 22.6728L16.6664 12.2328Z" fill="black"/>
</svg>
