<svg width="194" height="44" viewBox="0 0 194 44" fill="none" xmlns="http://www.w3.org/2000/svg">
<path d="M4 16C4 9.37258 9.37258 4 16 4H178C184.627 4 190 9.37258 190 16V28C190 34.6274 184.627 40 178 40H16C9.37258 40 4 34.6274 4 28V16Z" fill="#030713"/>
<path d="M26 15.75V28.25M32.25 22L19.75 22" stroke="#F3F4F6" stroke-width="1.5" stroke-linecap="round" stroke-linejoin="round"/>
<path d="M45.1985 27.5V16.5909H49.087C49.9357 16.5909 50.6388 16.7454 51.1964 17.0543C51.7539 17.3633 52.1712 17.7859 52.4482 18.3221C52.7251 18.8548 52.8636 19.4549 52.8636 20.1225C52.8636 20.7937 52.7234 21.3974 52.4428 21.9336C52.1658 22.4663 51.7468 22.8888 51.1857 23.2013C50.6282 23.5103 49.9268 23.6648 49.0817 23.6648H46.4077V22.2692H48.9325C49.4688 22.2692 49.9038 22.1768 50.2376 21.9922C50.5714 21.804 50.8164 21.5483 50.9727 21.2251C51.1289 20.902 51.207 20.5344 51.207 20.1225C51.207 19.7106 51.1289 19.3448 50.9727 19.0252C50.8164 18.7056 50.5696 18.4553 50.2322 18.2741C49.8984 18.093 49.4581 18.0025 48.9112 18.0025H46.8445V27.5H45.1985ZM56.5781 16.5909V27.5H54.9854V16.5909H56.5781ZM61.4218 27.6811C60.9033 27.6811 60.4346 27.5852 60.0155 27.3935C59.5965 27.1982 59.2645 26.9158 59.0194 26.5465C58.778 26.1772 58.6572 25.7244 58.6572 25.1882C58.6572 24.7266 58.746 24.3466 58.9236 24.0483C59.1011 23.75 59.3408 23.5138 59.6427 23.3398C59.9445 23.1658 60.2819 23.0344 60.6547 22.9457C61.0276 22.8569 61.4076 22.7894 61.7947 22.7433C62.2847 22.6864 62.6824 22.6403 62.9878 22.6048C63.2932 22.5657 63.5152 22.5036 63.6537 22.4183C63.7922 22.3331 63.8614 22.1946 63.8614 22.0028V21.9656C63.8614 21.5004 63.73 21.1399 63.4672 20.8842C63.208 20.6286 62.8209 20.5007 62.306 20.5007C61.7698 20.5007 61.3472 20.6197 61.0383 20.8576C60.7329 21.092 60.5216 21.353 60.4044 21.6406L58.9076 21.2997C59.0851 20.8026 59.3444 20.4013 59.6853 20.0959C60.0297 19.7869 60.4257 19.5632 60.8731 19.4247C61.3206 19.2827 61.7911 19.2116 62.2847 19.2116C62.6114 19.2116 62.9576 19.2507 63.3234 19.3288C63.6927 19.4034 64.0372 19.5419 64.3568 19.7443C64.68 19.9467 64.9445 20.2362 65.1505 20.6126C65.3564 20.9854 65.4594 21.4702 65.4594 22.0668V27.5H63.904V26.3814H63.8401C63.7371 26.5874 63.5826 26.7898 63.3767 26.9886C63.1707 27.1875 62.9062 27.3526 62.583 27.484C62.2599 27.6154 61.8728 27.6811 61.4218 27.6811ZM61.768 26.4027C62.2084 26.4027 62.5848 26.3157 62.8973 26.1417C63.2133 25.9677 63.453 25.7404 63.6164 25.4599C63.7833 25.1758 63.8667 24.8722 63.8667 24.549V23.4943C63.8099 23.5511 63.6998 23.6044 63.5365 23.6541C63.3767 23.7003 63.1938 23.7411 62.9878 23.7766C62.7819 23.8086 62.5812 23.8388 62.3859 23.8672C62.1906 23.892 62.0273 23.9134 61.8959 23.9311C61.5869 23.9702 61.3046 24.0359 61.0489 24.1282C60.7968 24.2205 60.5944 24.3537 60.4417 24.5277C60.2925 24.6982 60.2179 24.9254 60.2179 25.2095C60.2179 25.6037 60.3635 25.902 60.6547 26.1044C60.9459 26.3033 61.317 26.4027 61.768 26.4027ZM71.3472 27.6651C70.5553 27.6651 69.8734 27.4858 69.3017 27.1271C68.7335 26.7649 68.2967 26.266 67.9913 25.6303C67.6859 24.9947 67.5332 24.2667 67.5332 23.4464C67.5332 22.6154 67.6895 21.8821 68.002 21.2464C68.3145 20.6072 68.7548 20.1083 69.323 19.7496C69.8912 19.391 70.5606 19.2116 71.3312 19.2116C71.9526 19.2116 72.5066 19.3271 72.9931 19.5579C73.4796 19.7852 73.872 20.1048 74.1703 20.5167C74.4722 20.9286 74.6515 21.4098 74.7083 21.9602H73.1582C73.073 21.5767 72.8777 21.2464 72.5723 20.9695C72.2705 20.6925 71.8656 20.554 71.3578 20.554C70.9139 20.554 70.5251 20.6712 70.1913 20.9055C69.861 21.1364 69.6036 21.4666 69.4189 21.8963C69.2342 22.3224 69.1419 22.8267 69.1419 23.4091C69.1419 24.0057 69.2325 24.5206 69.4136 24.9538C69.5947 25.3871 69.8504 25.7227 70.1806 25.9606C70.5144 26.1985 70.9068 26.3175 71.3578 26.3175C71.6597 26.3175 71.9331 26.2624 72.1781 26.1523C72.4267 26.0387 72.6344 25.8771 72.8014 25.6676C72.9718 25.4581 73.0908 25.206 73.1582 24.9112H74.7083C74.6515 25.4403 74.4793 25.9126 74.1916 26.3281C73.904 26.7436 73.5187 27.0703 73.0357 27.3082C72.5563 27.5462 71.9935 27.6651 71.3472 27.6651ZM80.2578 27.6651C79.4517 27.6651 78.7575 27.4929 78.1751 27.1484C77.5962 26.8004 77.1488 26.3121 76.8327 25.6836C76.5202 25.0515 76.364 24.3111 76.364 23.4624C76.364 22.6243 76.5202 21.8857 76.8327 21.2464C77.1488 20.6072 77.5891 20.1083 78.1538 19.7496C78.7219 19.391 79.386 19.2116 80.1459 19.2116C80.6076 19.2116 81.055 19.288 81.4883 19.4407C81.9215 19.5934 82.3104 19.8331 82.6548 20.1598C82.9993 20.4865 83.2709 20.9109 83.4698 21.4329C83.6687 21.9513 83.7681 22.5817 83.7681 23.3239V23.8885H77.2642V22.6953H82.2074C82.2074 22.2763 82.1222 21.9052 81.9517 21.582C81.7812 21.2553 81.5415 20.9979 81.2326 20.8097C80.9272 20.6214 80.5685 20.5273 80.1566 20.5273C79.7092 20.5273 79.3185 20.6374 78.9847 20.8576C78.6545 21.0742 78.3988 21.3583 78.2177 21.7099C78.0401 22.0579 77.9513 22.4361 77.9513 22.8445V23.7766C77.9513 24.3235 78.0472 24.7887 78.239 25.1722C78.4343 25.5558 78.706 25.8487 79.054 26.0511C79.402 26.25 79.8086 26.3494 80.2738 26.3494C80.5756 26.3494 80.8508 26.3068 81.0994 26.2216C81.348 26.1328 81.5628 26.0014 81.744 25.8274C81.9251 25.6534 82.0636 25.4386 82.1594 25.1829L83.6669 25.4545C83.5462 25.8984 83.3295 26.2873 83.017 26.6211C82.7081 26.9513 82.3192 27.2088 81.8505 27.3935C81.3853 27.5746 80.8544 27.6651 80.2578 27.6651ZM87.4479 22.642V27.5H85.8552V16.5909H87.4266V20.6499H87.5278C87.7196 20.2095 88.0126 19.8597 88.4067 19.6005C88.8009 19.3413 89.3158 19.2116 89.9515 19.2116C90.5126 19.2116 91.0026 19.3271 91.4216 19.5579C91.8442 19.7887 92.1709 20.1332 92.4018 20.5913C92.6361 21.0458 92.7533 21.614 92.7533 22.2958V27.5H91.1606V22.4876C91.1606 21.8874 91.0062 21.4222 90.6972 21.092C90.3883 20.7582 89.9586 20.5913 89.4081 20.5913C89.0317 20.5913 88.6944 20.6712 88.3961 20.831C88.1013 20.9908 87.8687 21.2251 87.6983 21.5341C87.5314 21.8395 87.4479 22.2088 87.4479 22.642ZM98.6451 27.6651C97.878 27.6651 97.2086 27.4893 96.6369 27.1378C96.0652 26.7862 95.6213 26.2944 95.3052 25.6623C94.9892 25.0302 94.8311 24.2915 94.8311 23.4464C94.8311 22.5977 94.9892 21.8555 95.3052 21.2198C95.6213 20.5842 96.0652 20.0906 96.6369 19.739C97.2086 19.3874 97.878 19.2116 98.6451 19.2116C99.4121 19.2116 100.081 19.3874 100.653 19.739C101.225 20.0906 101.669 20.5842 101.985 21.2198C102.301 21.8555 102.459 22.5977 102.459 23.4464C102.459 24.2915 102.301 25.0302 101.985 25.6623C101.669 26.2944 101.225 26.7862 100.653 27.1378C100.081 27.4893 99.4121 27.6651 98.6451 27.6651ZM98.6504 26.3281C99.1475 26.3281 99.5595 26.1967 99.8862 25.9339C100.213 25.6712 100.454 25.3214 100.611 24.8846C100.77 24.4478 100.85 23.9666 100.85 23.4411C100.85 22.919 100.77 22.4396 100.611 22.0028C100.454 21.5625 100.213 21.2092 99.8862 20.9428C99.5595 20.6765 99.1475 20.5433 98.6504 20.5433C98.1497 20.5433 97.7342 20.6765 97.4039 20.9428C97.0772 21.2092 96.834 21.5625 96.6742 22.0028C96.5179 22.4396 96.4398 22.919 96.4398 23.4411C96.4398 23.9666 96.5179 24.4478 96.6742 24.8846C96.834 25.3214 97.0772 25.6712 97.4039 25.9339C97.7342 26.1967 98.1497 26.3281 98.6504 26.3281ZM106.149 16.5909V27.5H104.557V16.5909H106.149ZM111.675 27.6598C111.014 27.6598 110.425 27.4911 109.907 27.1538C109.392 26.8129 108.987 26.3281 108.692 25.6996C108.401 25.0675 108.255 24.3093 108.255 23.4251C108.255 22.5408 108.403 21.7844 108.697 21.1559C108.996 20.5273 109.404 20.0462 109.922 19.7124C110.441 19.3786 111.029 19.2116 111.686 19.2116C112.193 19.2116 112.602 19.2969 112.911 19.4673C113.223 19.6342 113.465 19.8295 113.635 20.0533C113.809 20.277 113.944 20.4741 114.04 20.6445H114.136V16.5909H115.729V27.5H114.173V26.2269H114.04C113.944 26.4009 113.806 26.5998 113.625 26.8235C113.447 27.0472 113.202 27.2425 112.889 27.4094C112.577 27.5763 112.172 27.6598 111.675 27.6598ZM112.027 26.3015C112.485 26.3015 112.872 26.1808 113.188 25.9393C113.507 25.6942 113.749 25.3551 113.912 24.9219C114.079 24.4886 114.163 23.9844 114.163 23.4091C114.163 22.8409 114.081 22.3437 113.918 21.9176C113.754 21.4915 113.514 21.1594 113.198 20.9215C112.882 20.6836 112.492 20.5646 112.027 20.5646C111.547 20.5646 111.148 20.6889 110.828 20.9375C110.508 21.1861 110.267 21.5252 110.104 21.9549C109.944 22.3846 109.864 22.8693 109.864 23.4091C109.864 23.956 109.946 24.4478 110.109 24.8846C110.272 25.3214 110.514 25.6676 110.833 25.9233C111.157 26.1754 111.554 26.3015 112.027 26.3015ZM121.848 27.6651C121.042 27.6651 120.348 27.4929 119.765 27.1484C119.186 26.8004 118.739 26.3121 118.423 25.6836C118.11 25.0515 117.954 24.3111 117.954 23.4624C117.954 22.6243 118.11 21.8857 118.423 21.2464C118.739 20.6072 119.179 20.1083 119.744 19.7496C120.312 19.391 120.976 19.2116 121.736 19.2116C122.198 19.2116 122.645 19.288 123.079 19.4407C123.512 19.5934 123.901 19.8331 124.245 20.1598C124.59 20.4865 124.861 20.9109 125.06 21.4329C125.259 21.9513 125.358 22.5817 125.358 23.3239V23.8885H118.854V22.6953H123.798C123.798 22.2763 123.712 21.9052 123.542 21.582C123.371 21.2553 123.132 20.9979 122.823 20.8097C122.517 20.6214 122.159 20.5273 121.747 20.5273C121.299 20.5273 120.909 20.6374 120.575 20.8576C120.245 21.0742 119.989 21.3583 119.808 21.7099C119.63 22.0579 119.542 22.4361 119.542 22.8445V23.7766C119.542 24.3235 119.637 24.7887 119.829 25.1722C120.025 25.5558 120.296 25.8487 120.644 26.0511C120.992 26.25 121.399 26.3494 121.864 26.3494C122.166 26.3494 122.441 26.3068 122.69 26.2216C122.938 26.1328 123.153 26.0014 123.334 25.8274C123.515 25.6534 123.654 25.4386 123.75 25.1829L125.257 25.4545C125.136 25.8984 124.92 26.2873 124.607 26.6211C124.298 26.9513 123.909 27.2088 123.441 27.3935C122.976 27.5746 122.445 27.6651 121.848 27.6651ZM127.445 27.5V19.3182H128.985V20.6179H129.07C129.219 20.1776 129.482 19.8313 129.858 19.5792C130.238 19.3235 130.668 19.1957 131.148 19.1957C131.247 19.1957 131.364 19.1992 131.499 19.2063C131.638 19.2134 131.746 19.2223 131.824 19.233V20.7564C131.76 20.7386 131.646 20.7191 131.483 20.6978C131.32 20.6729 131.156 20.6605 130.993 20.6605C130.617 20.6605 130.281 20.7404 129.986 20.9002C129.695 21.0565 129.464 21.2749 129.294 21.5554C129.123 21.8324 129.038 22.1484 129.038 22.5036V27.5H127.445Z" fill="#F3F4F6"/>
<path d="M168 15.75V28.25M174.25 22L161.75 22" stroke="#F3F4F6" stroke-width="1.5" stroke-linecap="round" stroke-linejoin="round"/>
<path d="M180 1C187.18 1 193 6.8203 193 14V30C193 37.1797 187.18 43 180 43H14C6.8203 43 1 37.1797 1 30V14C1 6.8203 6.8203 1 14 1H180Z" stroke="#6A7282" stroke-width="2"/>
</svg>
