<svg width="48" height="48" viewBox="0 0 48 48" fill="none" xmlns="http://www.w3.org/2000/svg">
<rect width="48" height="48" rx="24" fill="black"/>
<path d="M27.8642 18.4718C27.9745 18.4474 28.0234 18.484 28.0903 18.5571C28.47 18.9775 29.6835 20.4535 30.0132 20.8561C30.0744 20.9293 30.032 21.009 29.9831 21.0513C27.5335 22.9542 24.808 25.6501 23.2893 27.5774C23.2592 27.6206 23.2837 27.6206 23.3081 27.614C25.9536 26.4796 32.1688 24.6676 34.9678 24.1619V20.6309L24.0129 12L13.0391 20.6243V24.4847C16.4373 22.4728 24.3002 19.3557 27.8642 18.4718Z" fill="white"/>
<path d="M18.9488 33.3051C18.8574 33.3539 18.7829 33.3417 18.7095 33.2685L16.6641 30.841C16.6095 30.7734 16.6029 30.7368 16.6764 30.6336C18.2572 28.3281 21.484 24.7352 23.5416 23.217C23.5783 23.1926 23.5661 23.1616 23.5227 23.1804C21.3794 23.8757 15.2867 26.4861 13.0332 27.7548V36H34.9629V28.0597C31.9745 28.5655 23.0215 31.2191 18.9488 33.3051Z" fill="white"/>
</svg>
