<svg width="40" height="40" viewBox="0 0 40 40" fill="none" xmlns="http://www.w3.org/2000/svg">
<g clip-path="url(#clip0_56_1708)">
<path d="M26.4405 10.7863C26.6243 10.7456 26.7059 10.8066 26.8174 10.9286C27.4502 11.6292 29.4726 14.0892 30.0222 14.7601C30.1242 14.8821 30.0536 15.0151 29.9719 15.0854C25.8894 18.257 21.3468 22.7501 18.8157 25.9624C18.7654 26.0343 18.8063 26.0343 18.8471 26.0234C23.2562 24.1326 33.6148 21.1127 38.2798 20.2698V14.3848L20.0216 0L1.73193 14.3739V20.8078C7.39563 17.4547 20.5005 12.2595 26.4405 10.7863Z" fill="#006AFF"/>
<path d="M11.58 35.5085C11.4277 35.5898 11.3036 35.5695 11.1811 35.4475L7.77224 31.4016C7.68117 31.289 7.67018 31.2281 7.79265 31.056C10.4274 27.2135 15.8054 21.2253 19.2347 18.6949C19.2959 18.6543 19.2755 18.6027 19.2033 18.6339C15.6311 19.7928 5.47661 24.1436 1.7207 26.258V40H38.2702V26.7662C33.2895 27.6092 18.3679 32.0319 11.58 35.5085Z" fill="#006AFF"/>
</g>
<defs>
<clipPath id="clip0_56_1708">
<rect width="40" height="40" fill="white"/>
</clipPath>
</defs>
</svg>
