<svg width="40" height="40" viewBox="0 0 40 40" fill="none" xmlns="http://www.w3.org/2000/svg">
<rect width="40" height="40" rx="20" fill="#006AFF"/>
<path d="M24.1856 12.2619C24.305 12.2355 24.3581 12.2751 24.4305 12.3544C24.8419 12.8098 26.1564 14.4088 26.5137 14.8449C26.58 14.9242 26.5341 15.0106 26.481 15.0564C23.8274 17.1179 20.8747 20.0384 19.2294 22.1264C19.1968 22.1732 19.2233 22.1732 19.2498 22.1661C22.1158 20.9371 28.8488 18.9741 31.8811 18.4262V14.601L20.0133 5.25086L8.125 14.5939V18.7759C11.8064 16.5964 20.3246 13.2195 24.1856 12.2619Z" fill="white"/>
<path d="M14.5267 28.3314C14.4277 28.3842 14.3471 28.371 14.2674 28.2917L12.0517 25.6619C11.9925 25.5887 11.9853 25.5491 12.0649 25.4373C13.7775 22.9396 17.2732 19.0473 19.5022 17.4026C19.542 17.3761 19.5288 17.3426 19.4818 17.3629C17.1599 18.1162 10.5595 20.9442 8.11816 22.3185V31.2509H31.8753V22.6489C28.6379 23.1968 18.9389 26.0716 14.5267 28.3314Z" fill="white"/>
</svg>
