<svg width="40" height="40" viewBox="0 0 40 40" fill="none" xmlns="http://www.w3.org/2000/svg">
<g clip-path="url(#clip0_56_1791)">
<path d="M26.4401 10.7863C26.6238 10.7456 26.7054 10.8066 26.8169 10.9286C27.4497 11.6292 29.4721 14.0892 30.0217 14.7601C30.1237 14.8821 30.0531 15.0151 29.9714 15.0854C25.8889 18.257 21.3463 22.7501 18.8152 25.9624C18.7649 26.0343 18.8058 26.0343 18.8466 26.0234C23.2557 24.1326 33.6143 21.1127 38.2793 20.2698V14.3848L20.0211 0L1.73145 14.3739V20.8078C7.39514 17.4547 20.5 12.2595 26.4401 10.7863Z" fill="black"/>
<path d="M11.58 35.5085C11.4277 35.5898 11.3036 35.5695 11.1811 35.4475L7.77224 31.4016C7.68117 31.289 7.67018 31.2281 7.79265 31.056C10.4274 27.2135 15.8054 21.2253 19.2347 18.6949C19.2959 18.6543 19.2755 18.6027 19.2033 18.6339C15.6311 19.7928 5.47661 24.1436 1.7207 26.258V40H38.2702V26.7662C33.2895 27.6092 18.3679 32.0319 11.58 35.5085Z" fill="black"/>
</g>
<defs>
<clipPath id="clip0_56_1791">
<rect width="40" height="40" fill="white"/>
</clipPath>
</defs>
</svg>
