<svg width="48" height="48" viewBox="0 0 48 48" fill="none" xmlns="http://www.w3.org/2000/svg">
<rect width="48" height="48" rx="24" fill="black"/>
<rect x="12" y="12" width="24" height="24" rx="12" fill="white"/>
<path d="M24 18.527C27.0183 18.527 29.473 20.9817 29.473 24C29.473 27.0183 27.0183 29.473 24 29.473C20.9817 29.473 18.527 27.0183 18.527 24C18.527 20.9817 20.9817 18.527 24 18.527ZM24 18C20.6857 18 18 20.6857 18 24C18 27.3143 20.6857 30 24 30C27.3143 30 30 27.3143 30 24C30 20.6857 27.3143 18 24 18Z" fill="black"/>
<path d="M22.2656 27.4219L27.4219 23.8512L22.2656 20.5781V27.4219Z" fill="black"/>
</svg>
